<svg width="196" height="166" viewBox="0 0 196 166" fill="none" xmlns="http://www.w3.org/2000/svg">
<g id="Group" filter="url(#filter0_d_449_536)">
<g id="Clip path group">
<mask id="mask0_449_536" style="mask-type:luminance" maskUnits="userSpaceOnUse" x="6" y="4" width="185" height="155">
<g id="clip0_1779_49315">
<path id="Vector" d="M182.429 4.23804H13.7381C9.46446 4.23804 6 7.7025 6 11.9761V151.262C6 155.535 9.46446 159 13.7381 159H182.429C186.702 159 190.167 155.535 190.167 151.262V11.9761C190.167 7.7025 186.702 4.23804 182.429 4.23804Z" fill="white"/>
</g>
</mask>
<g mask="url(#mask0_449_536)">
<g id="Group_2">
<path id="Vector_2" d="M182.429 4.23804H13.7381C9.46446 4.23804 6 7.7025 6 11.9761V151.262C6 155.535 9.46446 159 13.7381 159H182.429C186.702 159 190.167 155.535 190.167 151.262V11.9761C190.167 7.7025 186.702 4.23804 182.429 4.23804Z" fill="white"/>
<path id="Vector_3" d="M14.7419 21.2619H13.9561L16.2291 15.0714H17.0029L19.276 21.2619H18.49L16.6402 16.0507H16.5918L14.7419 21.2619ZM15.0321 18.8437H18.1999V19.5087H15.0321V18.8437ZM23.4321 17.6588L22.7913 17.8401C22.751 17.7334 22.6916 17.6296 22.613 17.5288C22.5364 17.4261 22.4317 17.3414 22.2986 17.275C22.1656 17.2084 21.9954 17.1751 21.7878 17.1751C21.5037 17.1751 21.2669 17.2407 21.0775 17.3717C20.8901 17.5006 20.7964 17.6649 20.7964 17.8644C20.7964 18.0416 20.8608 18.1817 20.9898 18.2845C21.1188 18.3873 21.3203 18.4729 21.5943 18.5415L22.2836 18.7107C22.6986 18.8114 23.008 18.9657 23.2115 19.1732C23.415 19.3787 23.5168 19.6437 23.5168 19.9681C23.5168 20.2342 23.4403 20.472 23.287 20.6815C23.1359 20.891 22.9244 21.0563 22.6523 21.1772C22.3803 21.2981 22.0639 21.3586 21.7032 21.3586C21.2296 21.3586 20.8377 21.2558 20.5273 21.0503C20.217 20.8447 20.0206 20.5445 19.9379 20.1495L20.615 19.9802C20.6795 20.2301 20.8014 20.4176 20.9808 20.5424C21.1622 20.6674 21.3989 20.7299 21.6911 20.7299C22.0236 20.7299 22.2876 20.6594 22.483 20.5183C22.6805 20.3752 22.7793 20.2039 22.7793 20.0044C22.7793 19.8432 22.7229 19.7082 22.61 19.5994C22.4971 19.4885 22.3239 19.406 22.0901 19.3515L21.3163 19.1702C20.8911 19.0694 20.5787 18.9132 20.3792 18.7016C20.1817 18.4881 20.083 18.221 20.083 17.9006C20.083 17.6387 20.1566 17.4069 20.3037 17.2054C20.4528 17.0039 20.6553 16.8457 20.9112 16.7308C21.1692 16.616 21.4614 16.5586 21.7878 16.5586C22.2473 16.5586 22.6079 16.6593 22.87 16.8608C23.1339 17.0623 23.3213 17.3284 23.4321 17.6588ZM27.8793 17.6588L27.2385 17.8401C27.1982 17.7334 27.1388 17.6296 27.0601 17.5288C26.9836 17.4261 26.8788 17.3414 26.7458 17.275C26.6128 17.2084 26.4425 17.1751 26.2349 17.1751C25.9508 17.1751 25.714 17.2407 25.5246 17.3717C25.3372 17.5006 25.2435 17.6649 25.2435 17.8644C25.2435 18.0416 25.308 18.1817 25.437 18.2845C25.5659 18.3873 25.7674 18.4729 26.0415 18.5415L26.7306 18.7107C27.1458 18.8114 27.4551 18.9657 27.6587 19.1732C27.8622 19.3787 27.9639 19.6437 27.9639 19.9681C27.9639 20.2342 27.8873 20.472 27.7342 20.6815C27.5831 20.891 27.3715 21.0563 27.0994 21.1772C26.8274 21.2981 26.511 21.3586 26.1503 21.3586C25.6768 21.3586 25.2848 21.2558 24.9745 21.0503C24.6642 20.8447 24.4677 20.5445 24.3851 20.1495L25.0622 19.9802C25.1266 20.2301 25.2486 20.4176 25.4279 20.5424C25.6092 20.6674 25.846 20.7299 26.1382 20.7299C26.4707 20.7299 26.7347 20.6594 26.9302 20.5183C27.1277 20.3752 27.2264 20.2039 27.2264 20.0044C27.2264 19.8432 27.1699 19.7082 27.0571 19.5994C26.9443 19.4885 26.771 19.406 26.5372 19.3515L25.7634 19.1702C25.3383 19.0694 25.0259 18.9132 24.8264 18.7016C24.6289 18.4881 24.5302 18.221 24.5302 17.9006C24.5302 17.6387 24.6037 17.4069 24.7508 17.2054C24.9 17.0039 25.1025 16.8457 25.3584 16.7308C25.6163 16.616 25.9085 16.5586 26.2349 16.5586C26.6944 16.5586 27.0551 16.6593 27.3171 16.8608C27.5811 17.0623 27.7685 17.3284 27.8793 17.6588ZM29.0378 21.2619V16.619H29.7511V21.2619H29.0378ZM29.4004 15.8452C29.2614 15.8452 29.1415 15.7978 29.0408 15.7031C28.942 15.6084 28.8927 15.4946 28.8927 15.3616C28.8927 15.2285 28.942 15.1147 29.0408 15.02C29.1415 14.9253 29.2614 14.8779 29.4004 14.8779C29.5395 14.8779 29.6584 14.9253 29.7572 15.02C29.8579 15.1147 29.9083 15.2285 29.9083 15.3616C29.9083 15.4946 29.8579 15.6084 29.7572 15.7031C29.6584 15.7978 29.5395 15.8452 29.4004 15.8452ZM32.9317 23.0997C32.5871 23.0997 32.2909 23.0553 32.0431 22.9666C31.7952 22.88 31.5886 22.7651 31.4234 22.6221C31.2602 22.481 31.1302 22.3299 31.0335 22.1687L31.6018 21.7697C31.6662 21.8543 31.7479 21.951 31.8466 22.0598C31.9453 22.1707 32.0804 22.2664 32.2516 22.347C32.425 22.4296 32.6516 22.4709 32.9317 22.4709C33.3066 22.4709 33.6158 22.3802 33.8597 22.1989C34.1035 22.0176 34.2255 21.7334 34.2255 21.3465V20.4034H34.165C34.1126 20.488 34.038 20.5928 33.9413 20.7178C33.8466 20.8407 33.7096 20.9506 33.5302 21.0473C33.3529 21.142 33.1131 21.1893 32.8109 21.1893C32.436 21.1893 32.0995 21.1007 31.8013 20.9233C31.505 20.746 31.2703 20.488 31.0969 20.1495C30.9257 19.811 30.84 19.3998 30.84 18.9162C30.84 18.4407 30.9237 18.0266 31.0909 17.6739C31.2582 17.3192 31.4909 17.0452 31.7891 16.8518C32.0874 16.6563 32.432 16.5586 32.8229 16.5586C33.1252 16.5586 33.365 16.6089 33.5423 16.7097C33.7216 16.8084 33.8587 16.9213 33.9534 17.0482C34.0501 17.1731 34.1247 17.276 34.1771 17.3565H34.2496V16.619H34.9388V21.3949C34.9388 21.7939 34.8481 22.1183 34.6668 22.3682C34.4874 22.62 34.2456 22.8044 33.9413 22.9213C33.6391 23.0402 33.3025 23.0997 32.9317 23.0997ZM32.9076 20.5485C33.1937 20.5485 33.4355 20.483 33.633 20.352C33.8305 20.221 33.9806 20.0327 34.0834 19.7868C34.1861 19.5409 34.2375 19.2467 34.2375 18.9041C34.2375 18.5696 34.1871 18.2744 34.0864 18.0185C33.9856 17.7626 33.8365 17.562 33.6391 17.417C33.4416 17.2719 33.1978 17.1994 32.9076 17.1994C32.6052 17.1994 32.3534 17.276 32.1519 17.4291C31.9524 17.5822 31.8023 17.7878 31.7015 18.0458C31.6028 18.3037 31.5534 18.5898 31.5534 18.9041C31.5534 19.2266 31.6038 19.5117 31.7045 19.7596C31.8073 20.0054 31.9584 20.1989 32.1579 20.3399C32.3594 20.479 32.6093 20.5485 32.9076 20.5485ZM36.9579 18.4689V21.2619H36.2446V16.619H36.9338V17.3444H36.9942C37.103 17.1087 37.2683 16.9192 37.4899 16.7762C37.7116 16.6311 37.9978 16.5586 38.3484 16.5586C38.6628 16.5586 38.9378 16.623 39.1736 16.752C39.4094 16.8789 39.5928 17.0724 39.7238 17.3324C39.8547 17.5903 39.9202 17.9168 39.9202 18.3117V21.2619H39.2069V18.3601C39.2069 17.9953 39.1121 17.7112 38.9227 17.5076C38.7333 17.3021 38.4734 17.1994 38.1429 17.1994C37.9151 17.1994 37.7116 17.2487 37.5323 17.3475C37.355 17.4462 37.2149 17.5903 37.1122 17.7797C37.0093 17.9691 36.9579 18.1989 36.9579 18.4689ZM43.1704 21.3586C42.723 21.3586 42.3371 21.2598 42.0127 21.0624C41.6902 20.8629 41.4414 20.5848 41.266 20.2281C41.0928 19.8694 41.0061 19.4523 41.0061 18.9767C41.0061 18.5011 41.0928 18.082 41.266 17.7193C41.4414 17.3545 41.6852 17.0704 41.9975 16.8669C42.3119 16.6613 42.6786 16.5586 43.0978 16.5586C43.3396 16.5586 43.5784 16.5989 43.8142 16.6794C44.05 16.7601 44.2645 16.8911 44.458 17.0724C44.6515 17.2517 44.8056 17.4895 44.9205 17.7858C45.0353 18.082 45.0928 18.4467 45.0928 18.88V19.1822H41.5139V18.5656H44.3673C44.3673 18.3037 44.3149 18.0699 44.2101 17.8644C44.1074 17.6588 43.9603 17.4966 43.7688 17.3777C43.5794 17.2588 43.3557 17.1994 43.0978 17.1994C42.8137 17.1994 42.5678 17.2699 42.3603 17.4109C42.1548 17.55 41.9965 17.7314 41.8857 17.9551C41.7749 18.1787 41.7195 18.4185 41.7195 18.6744V19.0855C41.7195 19.4361 41.7799 19.7334 41.9008 19.9772C42.0238 20.219 42.194 20.4034 42.4117 20.5304C42.6293 20.6553 42.8822 20.7178 43.1704 20.7178C43.3577 20.7178 43.527 20.6916 43.6782 20.6392C43.8313 20.5848 43.9633 20.5041 44.0741 20.3974C44.185 20.2886 44.2706 20.1535 44.3311 19.9923L45.0203 20.1858C44.9477 20.4196 44.8258 20.6251 44.6545 20.8024C44.4832 20.9777 44.2716 21.1148 44.0197 21.2135C43.7678 21.3102 43.4847 21.3586 43.1704 21.3586ZM47.9311 21.3586C47.5442 21.3586 47.2026 21.2609 46.9064 21.0654C46.6102 20.8679 46.3784 20.5898 46.2111 20.2311C46.0439 19.8704 45.9603 19.4442 45.9603 18.9525C45.9603 18.4648 46.0439 18.0416 46.2111 17.683C46.3784 17.3243 46.6112 17.0472 46.9094 16.8518C47.2077 16.6563 47.5522 16.5586 47.9432 16.5586C48.2455 16.5586 48.4842 16.6089 48.6596 16.7097C48.8369 16.8084 48.9719 16.9213 49.0646 17.0482C49.1593 17.1731 49.2329 17.276 49.2853 17.3565H49.3457V15.0714H50.0591V21.2619H49.3699V20.5485H49.2853C49.2329 20.6331 49.1583 20.7399 49.0615 20.8689C48.9648 20.9958 48.8269 21.1097 48.6475 21.2105C48.4681 21.3092 48.2293 21.3586 47.9311 21.3586ZM48.0278 20.7178C48.314 20.7178 48.5558 20.6432 48.7533 20.4941C48.9507 20.343 49.1009 20.1344 49.2036 19.8684C49.3064 19.6004 49.3578 19.291 49.3578 18.9404C49.3578 18.5938 49.3074 18.2906 49.2066 18.0306C49.1059 17.7686 48.9568 17.5651 48.7593 17.42C48.5618 17.2729 48.318 17.1994 48.0278 17.1994C47.7256 17.1994 47.4737 17.277 47.2721 17.4321C47.0726 17.5853 46.9225 17.7938 46.8218 18.0578C46.723 18.3198 46.6736 18.614 46.6736 18.9404C46.6736 19.2709 46.724 19.5712 46.8248 19.8412C46.9275 20.1092 47.0787 20.3228 47.2782 20.482C47.4797 20.6392 47.7296 20.7178 48.0278 20.7178ZM59.1786 18.1666C59.1786 18.8195 59.0606 19.3837 58.8249 19.8593C58.5891 20.3349 58.2657 20.7016 57.8546 20.9596C57.4435 21.2175 56.974 21.3465 56.446 21.3465C55.918 21.3465 55.4485 21.2175 55.0374 20.9596C54.6263 20.7016 54.3029 20.3349 54.0672 19.8593C53.8314 19.3837 53.7135 18.8195 53.7135 18.1666C53.7135 17.5137 53.8314 16.9495 54.0672 16.4739C54.3029 15.9983 54.6263 15.6316 55.0374 15.3736C55.4485 15.1157 55.918 14.9867 56.446 14.9867C56.974 14.9867 57.4435 15.1157 57.8546 15.3736C58.2657 15.6316 58.5891 15.9983 58.8249 16.4739C59.0606 16.9495 59.1786 17.5137 59.1786 18.1666ZM58.4531 18.1666C58.4531 17.6306 58.3634 17.1782 58.1841 16.8094C58.0067 16.4406 57.7659 16.1616 57.4616 15.9722C57.1594 15.7827 56.8208 15.688 56.446 15.688C56.0712 15.688 55.7316 15.7827 55.4274 15.9722C55.1251 16.1616 54.8843 16.4406 54.7049 16.8094C54.5276 17.1782 54.439 17.6306 54.439 18.1666C54.439 18.7026 54.5276 19.155 54.7049 19.5238C54.8843 19.8926 55.1251 20.1716 55.4274 20.3611C55.7316 20.5505 56.0712 20.6452 56.446 20.6452C56.8208 20.6452 57.1594 20.5505 57.4616 20.3611C57.7659 20.1716 58.0067 19.8926 58.1841 19.5238C58.3634 19.155 58.4531 18.7026 58.4531 18.1666ZM61.0556 18.4689V21.2619H60.3423V16.619H61.0315V17.3444H61.0919C61.2007 17.1087 61.366 16.9192 61.5876 16.7762C61.8093 16.6311 62.0954 16.5586 62.4461 16.5586C62.7604 16.5586 63.0355 16.623 63.2712 16.752C63.507 16.8789 63.6904 17.0724 63.8214 17.3324C63.9524 17.5903 64.0179 17.9168 64.0179 18.3117V21.2619H63.3045V18.3601C63.3045 17.9953 63.2098 17.7112 63.0204 17.5076C62.8309 17.3021 62.571 17.1994 62.2405 17.1994C62.0128 17.1994 61.8093 17.2487 61.6299 17.3475C61.4526 17.4462 61.3126 17.5903 61.2098 17.7797C61.107 17.9691 61.0556 18.1989 61.0556 18.4689ZM14.3792 33.6428V33.0987L16.4225 30.8619C16.6623 30.6 16.8599 30.3722 17.015 30.1788C17.1702 29.9833 17.285 29.8 17.3596 29.6287C17.4361 29.4553 17.4744 29.274 17.4744 29.0846C17.4744 28.8669 17.422 28.6785 17.3173 28.5193C17.2145 28.3602 17.0734 28.2372 16.8941 28.1505C16.7148 28.064 16.5132 28.0206 16.2896 28.0206C16.0518 28.0206 15.8442 28.07 15.6669 28.1687C15.4915 28.2655 15.3555 28.4015 15.2588 28.5768C15.164 28.7521 15.1168 28.9576 15.1168 29.1934H14.4034C14.4034 28.8306 14.487 28.5123 14.6543 28.2382C14.8215 27.9642 15.0492 27.7506 15.3374 27.5974C15.6276 27.4443 15.953 27.3677 16.3137 27.3677C16.6765 27.3677 16.9978 27.4443 17.2779 27.5974C17.5581 27.7506 17.7777 27.9571 17.9369 28.2171C18.0961 28.477 18.1757 28.7662 18.1757 29.0846C18.1757 29.3123 18.1344 29.535 18.0518 29.7526C17.9712 29.9682 17.8301 30.209 17.6286 30.475C17.4291 30.739 17.152 31.0615 16.7973 31.4423L15.4069 32.9294V32.9778H18.2845V33.6428H14.3792ZM21.7092 27.4523V33.6428H20.9596V28.2382H20.9234L19.412 29.2418V28.48L20.9596 27.4523H21.7092ZM23.6558 33.6912C23.5067 33.6912 23.3787 33.6378 23.2719 33.531C23.1652 33.4241 23.1118 33.2962 23.1118 33.1471C23.1118 32.998 23.1652 32.87 23.2719 32.7632C23.3787 32.6564 23.5067 32.603 23.6558 32.603C23.8049 32.603 23.9329 32.6564 24.0397 32.7632C24.1465 32.87 24.1999 32.998 24.1999 33.1471C24.1999 33.2458 24.1748 33.3365 24.1244 33.4191C24.076 33.5017 24.0105 33.5682 23.9279 33.6186C23.8473 33.667 23.7566 33.6912 23.6558 33.6912ZM27.271 33.7275C26.8155 33.7275 26.4276 33.6035 26.1073 33.3556C25.7868 33.1058 25.542 32.744 25.3728 32.2705C25.2035 31.795 25.1188 31.2206 25.1188 30.5476C25.1188 29.8785 25.2035 29.3072 25.3728 28.8337C25.544 28.3582 25.7898 27.9954 26.1103 27.7455C26.4326 27.4937 26.8196 27.3677 27.271 27.3677C27.7224 27.3677 28.1083 27.4937 28.4287 27.7455C28.7511 27.9954 28.997 28.3582 29.1662 28.8337C29.3375 29.3072 29.4231 29.8785 29.4231 30.5476C29.4231 31.2206 29.3385 31.795 29.1692 32.2705C29 32.744 28.7551 33.1058 28.4347 33.3556C28.1143 33.6035 27.7264 33.7275 27.271 33.7275ZM27.271 33.0625C27.7224 33.0625 28.073 32.8448 28.3229 32.4095C28.5728 31.9742 28.6977 31.3536 28.6977 30.5476C28.6977 30.0116 28.6403 29.5551 28.5254 29.1783C28.4125 28.8015 28.2493 28.5143 28.0358 28.3168C27.8241 28.1194 27.5692 28.0206 27.271 28.0206C26.8237 28.0206 26.474 28.2412 26.2221 28.6825C25.9702 29.1219 25.8442 29.7435 25.8442 30.5476C25.8442 31.0836 25.9007 31.539 26.0136 31.9138C26.1264 32.2886 26.2886 32.5738 26.5002 32.7693C26.7138 32.9647 26.9708 33.0625 27.271 33.0625ZM32.5546 33.7275C32.1395 33.7275 31.7728 33.6539 31.4544 33.5068C31.138 33.3577 30.8912 33.1531 30.7138 32.8931C30.5365 32.6312 30.4489 32.333 30.4509 31.9985C30.4489 31.7365 30.5003 31.4947 30.605 31.273C30.7098 31.0493 30.8529 30.863 31.0343 30.7138C31.2176 30.5627 31.4222 30.4669 31.6478 30.4267V30.3904C31.3516 30.3138 31.1158 30.1476 30.9406 29.8916C30.7652 29.6337 30.6785 29.3405 30.6806 29.012C30.6785 28.6977 30.7582 28.4166 30.9193 28.1687C31.0806 27.9209 31.3022 27.7254 31.5844 27.5823C31.8685 27.4393 32.192 27.3677 32.5546 27.3677C32.9133 27.3677 33.2337 27.4393 33.5159 27.5823C33.798 27.7254 34.0196 27.9209 34.1809 28.1687C34.3441 28.4166 34.4267 28.6977 34.4287 29.012C34.4267 29.3405 34.337 29.6337 34.1597 29.8916C33.9844 30.1476 33.7516 30.3138 33.4615 30.3904V30.4267C33.6851 30.4669 33.8867 30.5627 34.066 30.7138C34.2453 30.863 34.3884 31.0493 34.4952 31.273C34.602 31.4947 34.6565 31.7365 34.6585 31.9985C34.6565 32.333 34.5658 32.6312 34.3864 32.8931C34.209 33.1531 33.9622 33.3577 33.6459 33.5068C33.3315 33.6539 32.9678 33.7275 32.5546 33.7275ZM32.5546 33.0625C32.8348 33.0625 33.0766 33.0171 33.2801 32.9264C33.4836 32.8357 33.6408 32.7078 33.7516 32.5425C33.8625 32.3773 33.9189 32.1839 33.9209 31.9622C33.9189 31.7284 33.8584 31.5219 33.7396 31.3425C33.6206 31.1632 33.4585 31.0221 33.2529 30.9194C33.0493 30.8166 32.8166 30.7652 32.5546 30.7652C32.2907 30.7652 32.0549 30.8166 31.8473 30.9194C31.6418 31.0221 31.4796 31.1632 31.3607 31.3425C31.2438 31.5219 31.1864 31.7284 31.1884 31.9622C31.1864 32.1839 31.2398 32.3773 31.3486 32.5425C31.4594 32.7078 31.6176 32.8357 31.8232 32.9264C32.0287 33.0171 32.2725 33.0625 32.5546 33.0625ZM32.5546 30.1244C32.7763 30.1244 32.9728 30.08 33.1441 29.9914C33.3174 29.9028 33.4534 29.7788 33.5522 29.6196C33.6509 29.4604 33.7013 29.274 33.7033 29.0604C33.7013 28.8508 33.6519 28.6685 33.5552 28.5133C33.4585 28.3561 33.3244 28.2352 33.1531 28.1505C32.9819 28.064 32.7824 28.0206 32.5546 28.0206C32.3229 28.0206 32.1204 28.064 31.9471 28.1505C31.7738 28.2352 31.6398 28.3561 31.5451 28.5133C31.4503 28.6685 31.404 28.8508 31.406 29.0604C31.404 29.274 31.4513 29.4604 31.5481 29.6196C31.6468 29.7788 31.7828 29.9028 31.9562 29.9914C32.1294 30.08 32.3289 30.1244 32.5546 30.1244ZM36.1577 33.6912C36.0085 33.6912 35.8806 33.6378 35.7738 33.531C35.667 33.4241 35.6136 33.2962 35.6136 33.1471C35.6136 32.998 35.667 32.87 35.7738 32.7632C35.8806 32.6564 36.0085 32.603 36.1577 32.603C36.3068 32.603 36.4348 32.6564 36.5416 32.7632C36.6484 32.87 36.7018 32.998 36.7018 33.1471C36.7018 33.2458 36.6766 33.3365 36.6262 33.4191C36.5778 33.5017 36.5124 33.5682 36.4297 33.6186C36.3492 33.667 36.2585 33.6912 36.1577 33.6912ZM37.9698 33.6428V33.0987L40.0132 30.8619C40.253 30.6 40.4504 30.3722 40.6056 30.1788C40.7607 29.9833 40.8756 29.8 40.9502 29.6287C41.0268 29.4553 41.0651 29.274 41.0651 29.0846C41.0651 28.8669 41.0126 28.6785 40.9078 28.5193C40.8051 28.3602 40.664 28.2372 40.4847 28.1505C40.3054 28.064 40.1039 28.0206 39.8801 28.0206C39.6424 28.0206 39.4348 28.07 39.2575 28.1687C39.0822 28.2655 38.9462 28.4015 38.8494 28.5768C38.7547 28.7521 38.7074 28.9576 38.7074 29.1934H37.994C37.994 28.8306 38.0776 28.5123 38.2449 28.2382C38.4121 27.9642 38.6398 27.7506 38.928 27.5974C39.2181 27.4443 39.5436 27.3677 39.9044 27.3677C40.267 27.3677 40.5885 27.4443 40.8685 27.5974C41.1486 27.7506 41.3683 27.9571 41.5275 28.2171C41.6867 28.477 41.7663 28.7662 41.7663 29.0846C41.7663 29.3123 41.725 29.535 41.6423 29.7526C41.5618 29.9682 41.4207 30.209 41.2192 30.475C41.0197 30.739 40.7426 31.0615 40.388 31.4423L38.9975 32.9294V32.9778H41.8751V33.6428H37.9698ZM45.1427 33.7275C44.6872 33.7275 44.2993 33.6035 43.9789 33.3556C43.6585 33.1058 43.4137 32.744 43.2444 32.2705C43.0751 31.795 42.9905 31.2206 42.9905 30.5476C42.9905 29.8785 43.0751 29.3072 43.2444 28.8337C43.4157 28.3582 43.6615 27.9954 43.982 27.7455C44.3044 27.4937 44.6913 27.3677 45.1427 27.3677C45.594 27.3677 45.9799 27.4937 46.3004 27.7455C46.6227 27.9954 46.8686 28.3582 47.0379 28.8337C47.2092 29.3072 47.2948 29.8785 47.2948 30.5476C47.2948 31.2206 47.2102 31.795 47.0409 32.2705C46.8717 32.744 46.6268 33.1058 46.3064 33.3556C45.986 33.6035 45.5981 33.7275 45.1427 33.7275ZM45.1427 33.0625C45.594 33.0625 45.9446 32.8448 46.1946 32.4095C46.4444 31.9742 46.5693 31.3536 46.5693 30.5476C46.5693 30.0116 46.5119 29.5551 46.3971 29.1783C46.2842 28.8015 46.121 28.5143 45.9074 28.3168C45.6958 28.1194 45.4409 28.0206 45.1427 28.0206C44.6953 28.0206 44.3456 28.2412 44.0938 28.6825C43.8419 29.1219 43.7159 29.7435 43.7159 30.5476C43.7159 31.0836 43.7724 31.539 43.8852 31.9138C43.998 32.2886 44.1603 32.5738 44.3719 32.7693C44.5854 32.9647 44.8424 33.0625 45.1427 33.0625ZM48.4434 33.6428V33.0987L50.4867 30.8619C50.7266 30.6 50.924 30.3722 51.0793 30.1788C51.2344 29.9833 51.3492 29.8 51.4238 29.6287C51.5004 29.4553 51.5387 29.274 51.5387 29.0846C51.5387 28.8669 51.4863 28.6785 51.3815 28.5193C51.2787 28.3602 51.1377 28.2372 50.9583 28.1505C50.7789 28.064 50.5774 28.0206 50.3538 28.0206C50.116 28.0206 49.9084 28.07 49.7311 28.1687C49.5558 28.2655 49.4197 28.4015 49.323 28.5768C49.2283 28.7521 49.1809 28.9576 49.1809 29.1934H48.4677C48.4677 28.8306 48.5512 28.5123 48.7185 28.2382C48.8857 27.9642 49.1135 27.7506 49.4016 27.5974C49.6918 27.4443 50.0173 27.3677 50.378 27.3677C50.7407 27.3677 51.0621 27.4443 51.3422 27.5974C51.6223 27.7506 51.8419 27.9571 52.0012 28.2171C52.1603 28.477 52.24 28.7662 52.24 29.0846C52.24 29.3123 52.1987 29.535 52.116 29.7526C52.0354 29.9682 51.8943 30.209 51.6928 30.475C51.4933 30.739 51.2162 31.0615 50.8616 31.4423L49.4711 32.9294V32.9778H52.3488V33.6428H48.4434ZM53.319 32.3733V31.7566L56.0395 27.4523H56.4868V28.4075H56.1845L54.1292 31.6599V31.7083H57.7926V32.3733H53.319ZM56.2329 33.6428V32.1859V31.8987V27.4523H56.9463V33.6428H56.2329Z" fill="black"/>
<path id="Vector_4" d="M17.607 65.369H14.8283V56.3646H17.7301C18.6036 56.3646 19.351 56.5449 19.9724 56.9054C20.5938 57.263 21.0701 57.7774 21.4013 58.4486C21.7325 59.117 21.8982 59.9171 21.8982 60.8492C21.8982 61.7872 21.731 62.5947 21.3969 63.2718C21.0628 63.9459 20.5762 64.4647 19.9373 64.8282C19.2982 65.1887 18.5215 65.369 17.607 65.369ZM15.9187 64.4017H17.5367C18.2812 64.4017 18.8982 64.2581 19.3876 63.9708C19.8771 63.6836 20.2421 63.2747 20.4824 62.7442C20.7228 62.2136 20.8429 61.582 20.8429 60.8492C20.8429 60.1223 20.7242 59.4965 20.4868 58.9719C20.2494 58.4442 19.8947 58.0398 19.4228 57.7584C18.9509 57.474 18.3633 57.3319 17.6598 57.3319H15.9187V64.4017ZM26.4179 65.5096C25.7672 65.5096 25.2059 65.366 24.7339 65.0788C24.265 64.7886 23.903 64.3841 23.648 63.8653C23.396 63.3436 23.2699 62.7369 23.2699 62.0451C23.2699 61.3534 23.396 60.7437 23.648 60.2161C23.903 59.6856 24.2577 59.2723 24.712 58.9762C25.1692 58.6773 25.7027 58.5278 26.3124 58.5278C26.6641 58.5278 27.0114 58.5864 27.3544 58.7037C27.6973 58.8209 28.0095 59.0114 28.2908 59.2752C28.5723 59.5361 28.7964 59.882 28.9635 60.3128C29.1306 60.7437 29.2142 61.2742 29.2142 61.9044V62.3441H24.0085V61.4471H28.159C28.159 61.0661 28.0828 60.7261 27.9303 60.4271C27.7808 60.1282 27.5669 59.8922 27.2884 59.7193C27.0129 59.5464 26.6875 59.4598 26.3124 59.4598C25.8991 59.4598 25.5415 59.5625 25.2396 59.7677C24.9406 59.9699 24.7105 60.2337 24.5493 60.559C24.3881 60.8844 24.3075 61.2332 24.3075 61.6055V62.2034C24.3075 62.7134 24.3954 63.1457 24.5713 63.5004C24.7501 63.8521 24.9977 64.1203 25.3143 64.305C25.6309 64.4867 25.9987 64.5776 26.4179 64.5776C26.6904 64.5776 26.9367 64.5394 27.1565 64.4632C27.3793 64.3841 27.5713 64.2669 27.7325 64.1115C27.8937 63.9533 28.0182 63.7569 28.1062 63.5223L29.1086 63.8038C29.0031 64.1438 28.8258 64.4427 28.5766 64.7007C28.3275 64.9557 28.0197 65.155 27.6534 65.2986C27.287 65.4393 26.8752 65.5096 26.4179 65.5096ZM30.7926 67.9014V58.6157H31.795V59.6885H31.9181C31.9943 59.5713 32.0998 59.4218 32.2346 59.24C32.3724 59.0554 32.5688 58.8913 32.8238 58.7476C33.0817 58.6011 33.4306 58.5278 33.8702 58.5278C34.4388 58.5278 34.94 58.6699 35.3738 58.9542C35.8076 59.2386 36.1462 59.6416 36.3895 60.1633C36.6327 60.6851 36.7544 61.3006 36.7544 62.0099C36.7544 62.7251 36.6327 63.3451 36.3895 63.8697C36.1462 64.3914 35.8091 64.796 35.3782 65.0832C34.9474 65.3675 34.4505 65.5096 33.8878 65.5096C33.454 65.5096 33.1066 65.4378 32.8458 65.2942C32.5849 65.1477 32.3841 64.9821 32.2435 64.7974C32.1028 64.6098 31.9943 64.4545 31.9181 64.3314H31.8302V67.9014H30.7926ZM31.8126 61.9924C31.8126 62.5024 31.8873 62.9523 32.0368 63.3421C32.1863 63.729 32.4046 64.0324 32.6919 64.2522C32.9791 64.4691 33.3309 64.5776 33.7471 64.5776C34.1809 64.5776 34.5429 64.4632 34.8331 64.2346C35.1262 64.003 35.346 63.6924 35.4925 63.3025C35.642 62.9098 35.7168 62.4731 35.7168 61.9924C35.7168 61.5175 35.6435 61.0896 35.4969 60.7085C35.3533 60.3246 35.135 60.0212 34.8418 59.7984C34.5517 59.5727 34.1867 59.4598 33.7471 59.4598C33.325 59.4598 32.9704 59.5669 32.6831 59.7808C32.3958 59.9918 32.1789 60.2879 32.0324 60.6689C31.8859 61.0471 31.8126 61.4882 31.8126 61.9924ZM38.3372 65.369V58.6157H39.3396V59.6357H39.4099C39.5331 59.3016 39.7558 59.0305 40.0783 58.8224C40.4006 58.6142 40.7641 58.5102 41.1687 58.5102C41.2448 58.5102 41.3401 58.5117 41.4544 58.5146C41.5687 58.5175 41.6552 58.5219 41.7138 58.5278V59.583C41.6787 59.5742 41.598 59.561 41.472 59.5434C41.3489 59.5229 41.2185 59.5126 41.0807 59.5126C40.7524 59.5126 40.4593 59.5815 40.2014 59.7193C39.9463 59.8541 39.7441 60.0417 39.5946 60.282C39.4481 60.5195 39.3748 60.7906 39.3748 61.0955V65.369H38.3372ZM45.5697 65.5096C44.919 65.5096 44.3577 65.366 43.8857 65.0788C43.4168 64.7886 43.0548 64.3841 42.7998 63.8653C42.5477 63.3436 42.4217 62.7369 42.4217 62.0451C42.4217 61.3534 42.5477 60.7437 42.7998 60.2161C43.0548 59.6856 43.4095 59.2723 43.8638 58.9762C44.321 58.6773 44.8545 58.5278 45.4642 58.5278C45.8158 58.5278 46.1632 58.5864 46.5062 58.7037C46.8491 58.8209 47.1613 59.0114 47.4426 59.2752C47.7241 59.5361 47.9482 59.882 48.1153 60.3128C48.2824 60.7437 48.3659 61.2742 48.3659 61.9044V62.3441H43.1603V61.4471H47.3108C47.3108 61.0661 47.2345 60.7261 47.0821 60.4271C46.9326 60.1282 46.7187 59.8922 46.4402 59.7193C46.1647 59.5464 45.8393 59.4598 45.4642 59.4598C45.0509 59.4598 44.6933 59.5625 44.3913 59.7677C44.0924 59.9699 43.8623 60.2337 43.7011 60.559C43.5399 60.8844 43.4593 61.2332 43.4593 61.6055V62.2034C43.4593 62.7134 43.5472 63.1457 43.7231 63.5004C43.9019 63.8521 44.1495 64.1203 44.4661 64.305C44.7827 64.4867 45.1505 64.5776 45.5697 64.5776C45.8422 64.5776 46.0885 64.5394 46.3083 64.4632C46.5311 64.3841 46.7231 64.2669 46.8842 64.1115C47.0455 63.9533 47.17 63.7569 47.258 63.5223L48.2604 63.8038C48.1549 64.1438 47.9776 64.4427 47.7284 64.7007C47.4793 64.9557 47.1715 65.155 46.8052 65.2986C46.4388 65.4393 46.0269 65.5096 45.5697 65.5096ZM54.7279 60.1282L53.7958 60.392C53.7372 60.2366 53.6507 60.0856 53.5364 59.9391C53.425 59.7896 53.2726 59.6665 53.0791 59.5698C52.8857 59.4731 52.638 59.4247 52.3361 59.4247C51.9228 59.4247 51.5784 59.52 51.3029 59.7105C51.0303 59.8981 50.894 60.1369 50.894 60.4271C50.894 60.6851 50.9878 60.8888 51.1754 61.0383C51.363 61.1878 51.6561 61.3123 52.0547 61.412L53.0572 61.6582C53.661 61.8047 54.1109 62.029 54.4069 62.3309C54.703 62.6298 54.851 63.0153 54.851 63.4872C54.851 63.8741 54.7396 64.22 54.5169 64.5248C54.297 64.8296 53.9892 65.07 53.5936 65.2459C53.1978 65.4217 52.7377 65.5096 52.213 65.5096C51.5242 65.5096 50.9541 65.3601 50.5027 65.0612C50.0513 64.7622 49.7655 64.3255 49.6454 63.751L50.6302 63.5048C50.724 63.8682 50.9013 64.1409 51.1622 64.3225C51.426 64.5043 51.7704 64.5952 52.1954 64.5952C52.6791 64.5952 53.063 64.4926 53.3473 64.2874C53.6346 64.0793 53.7782 63.8302 53.7782 63.54C53.7782 63.3054 53.6962 63.1091 53.532 62.9508C53.3678 62.7896 53.1158 62.6695 52.7758 62.5903L51.6502 62.3265C51.0318 62.1799 50.5775 61.9528 50.2873 61.645C50 61.3343 49.8564 60.9459 49.8564 60.4799C49.8564 60.0989 49.9634 59.7618 50.1773 59.4687C50.3942 59.1755 50.6888 58.9455 51.0611 58.7784C51.4363 58.6113 51.8612 58.5278 52.3361 58.5278C53.0044 58.5278 53.529 58.6744 53.9101 58.9675C54.2941 59.2606 54.5667 59.6475 54.7279 60.1282ZM61.1965 60.1282L60.2643 60.392C60.2058 60.2366 60.1193 60.0856 60.005 59.9391C59.8936 59.7896 59.7412 59.6665 59.5477 59.5698C59.3543 59.4731 59.1066 59.4247 58.8047 59.4247C58.3914 59.4247 58.047 59.52 57.7714 59.7105C57.4989 59.8981 57.3626 60.1369 57.3626 60.4271C57.3626 60.6851 57.4563 60.8888 57.644 61.0383C57.8316 61.1878 58.1247 61.3123 58.5233 61.412L59.5257 61.6582C60.1295 61.8047 60.5794 62.029 60.8755 62.3309C61.1716 62.6298 61.3196 63.0153 61.3196 63.4872C61.3196 63.8741 61.2082 64.22 60.9854 64.5248C60.7655 64.8296 60.4578 65.07 60.0621 65.2459C59.6664 65.4217 59.2062 65.5096 58.6816 65.5096C57.9927 65.5096 57.4227 65.3601 56.9712 65.0612C56.5199 64.7622 56.2341 64.3255 56.1139 63.751L57.0988 63.5048C57.1926 63.8682 57.3699 64.1409 57.6308 64.3225C57.8946 64.5043 58.239 64.5952 58.6639 64.5952C59.1476 64.5952 59.5316 64.4926 59.8159 64.2874C60.1032 64.0793 60.2468 63.8302 60.2468 63.54C60.2468 63.3054 60.1647 63.1091 60.0005 62.9508C59.8364 62.7896 59.5843 62.6695 59.2443 62.5903L58.1188 62.3265C57.5004 62.1799 57.046 61.9528 56.7558 61.645C56.4686 61.3343 56.325 60.9459 56.325 60.4799C56.325 60.0989 56.432 59.7618 56.6459 59.4687C56.8628 59.1755 57.1574 58.9455 57.5296 58.7784C57.9048 58.6113 58.3298 58.5278 58.8047 58.5278C59.473 58.5278 59.9976 58.6744 60.3786 58.9675C60.7627 59.2606 61.0352 59.6475 61.1965 60.1282ZM62.8814 65.369V58.6157H63.919V65.369H62.8814ZM63.409 57.4902C63.2068 57.4902 63.0324 57.4213 62.8859 57.2835C62.7422 57.1458 62.6704 56.9802 62.6704 56.7867C62.6704 56.5933 62.7422 56.4277 62.8859 56.2899C63.0324 56.1521 63.2068 56.0833 63.409 56.0833C63.6113 56.0833 63.7842 56.1521 63.9279 56.2899C64.0744 56.4277 64.1477 56.5933 64.1477 56.7867C64.1477 56.9802 64.0744 57.1458 63.9279 57.2835C63.7842 57.4213 63.6113 57.4902 63.409 57.4902ZM68.5631 65.5096C67.9534 65.5096 67.4184 65.3646 66.9583 65.0744C66.501 64.7842 66.1434 64.3783 65.8854 63.8566C65.6305 63.3348 65.503 62.7251 65.503 62.0275C65.503 61.324 65.6305 60.71 65.8854 60.1853C66.1434 59.6607 66.501 59.2532 66.9583 58.9631C67.4184 58.6729 67.9534 58.5278 68.5631 58.5278C69.1727 58.5278 69.7061 58.6729 70.1634 58.9631C70.6236 59.2532 70.9812 59.6607 71.2362 60.1853C71.4941 60.71 71.6231 61.324 71.6231 62.0275C71.6231 62.7251 71.4941 63.3348 71.2362 63.8566C70.9812 64.3783 70.6236 64.7842 70.1634 65.0744C69.7061 65.3646 69.1727 65.5096 68.5631 65.5096ZM68.5631 64.5776C69.0261 64.5776 69.4072 64.4589 69.7061 64.2214C70.0051 63.984 70.2264 63.6718 70.3701 63.2849C70.5137 62.898 70.5855 62.4789 70.5855 62.0275C70.5855 61.5761 70.5137 61.1555 70.3701 60.7657C70.2264 60.3758 70.0051 60.0608 69.7061 59.8204C69.4072 59.58 69.0261 59.4598 68.5631 59.4598C68.0999 59.4598 67.7188 59.58 67.4199 59.8204C67.1209 60.0608 66.8996 60.3758 66.756 60.7657C66.6124 61.1555 66.5406 61.5761 66.5406 62.0275C66.5406 62.4789 66.6124 62.898 66.756 63.2849C66.8996 63.6718 67.1209 63.984 67.4199 64.2214C67.7188 64.4589 68.0999 64.5776 68.5631 64.5776ZM74.2446 61.3065V65.369H73.207V58.6157H74.2094V59.6709H74.2974C74.4556 59.328 74.696 59.0524 75.0184 58.8444C75.3408 58.6333 75.757 58.5278 76.267 58.5278C76.7243 58.5278 77.1244 58.6216 77.4674 58.8091C77.8102 58.9939 78.0771 59.2752 78.2675 59.6533C78.4578 60.0285 78.553 60.5033 78.553 61.0778V65.369H77.5157V61.1482C77.5157 60.6176 77.3779 60.2044 77.1024 59.9083C76.8269 59.6093 76.4488 59.4598 75.9681 59.4598C75.6368 59.4598 75.3408 59.5317 75.0799 59.6753C74.822 59.819 74.6183 60.0285 74.4689 60.304C74.3194 60.5795 74.2446 60.9137 74.2446 61.3065ZM18.0995 78.0316H19.2953L20.2978 79.3502L20.5616 79.7022L22.0564 81.6894H20.8605L19.8757 80.37L19.6294 80.0365L18.0995 78.0316ZM22.4258 76.343C22.4258 77.2927 22.2543 78.1136 21.9113 78.8054C21.5684 79.4972 21.098 80.0303 20.5 80.4056C19.9021 80.7809 19.2191 80.9682 18.4512 80.9682C17.6832 80.9682 17.0003 80.7809 16.4023 80.4056C15.8044 80.0303 15.3339 79.4972 14.991 78.8054C14.648 78.1136 14.4766 77.2927 14.4766 76.343C14.4766 75.3933 14.648 74.5726 14.991 73.8809C15.3339 73.1892 15.8044 72.6557 16.4023 72.2805C17.0003 71.9053 17.6832 71.7177 18.4512 71.7177C19.2191 71.7177 19.9021 71.9053 20.5 72.2805C21.098 72.6557 21.5684 73.1892 21.9113 73.8809C22.2543 74.5726 22.4258 75.3933 22.4258 76.343ZM21.3705 76.343C21.3705 75.5633 21.2401 74.9053 20.9793 74.3689C20.7213 73.8325 20.3711 73.4266 19.9284 73.151C19.4888 72.8755 18.9964 72.7377 18.4512 72.7377C17.906 72.7377 17.4121 72.8755 16.9695 73.151C16.5299 73.4266 16.1796 73.8325 15.9187 74.3689C15.6607 74.9053 15.5318 75.5633 15.5318 76.343C15.5318 77.1227 15.6607 77.7809 15.9187 78.3171C16.1796 78.8534 16.5299 79.2596 16.9695 79.5351C17.4121 79.8106 17.906 79.9483 18.4512 79.9483C18.9964 79.9483 19.4888 79.8106 19.9284 79.5351C20.3711 79.2596 20.7213 78.8534 20.9793 78.3171C21.2401 77.7809 21.3705 77.1227 21.3705 76.343ZM28.3744 78.0842V74.0919H29.412V80.8452H28.3744V79.7022H28.3041C28.1458 80.045 27.8995 80.3368 27.5654 80.5766C27.2313 80.8142 26.8092 80.9334 26.2992 80.9334C25.8771 80.9334 25.502 80.8405 25.1736 80.6563C24.8454 80.4683 24.5874 80.1874 24.3998 79.8121C24.2122 79.4337 24.1185 78.9578 24.1185 78.3829V74.0919H25.1561V78.3125C25.1561 78.8054 25.2938 79.1977 25.5694 79.491C25.8478 79.7843 26.2025 79.9305 26.6333 79.9305C26.8913 79.9305 27.1536 79.8647 27.4203 79.7324C27.69 79.6009 27.9157 79.3989 28.0974 79.1258C28.2821 78.8534 28.3744 78.5059 28.3744 78.0842ZM34.1439 80.986C33.4932 80.986 32.9319 80.8421 32.46 80.555C31.991 80.2648 31.629 79.8601 31.374 79.3416C31.1219 78.8201 30.9959 78.2127 30.9959 77.5213C30.9959 76.8295 31.1219 76.2199 31.374 75.6923C31.629 75.1618 31.9837 74.7485 32.438 74.4524C32.8952 74.1535 33.4287 74.004 34.0384 74.004C34.3901 74.004 34.7374 74.0626 35.0804 74.1799C35.4233 74.2971 35.7355 74.4876 36.0169 74.7514C36.2982 75.0123 36.5225 75.3581 36.6895 75.789C36.8566 76.2199 36.9402 76.7504 36.9402 77.3806V77.8203H31.7345V76.9233H35.8849C35.8849 76.5423 35.8088 76.2023 35.6563 75.9033C35.5068 75.6044 35.2929 75.3684 35.0144 75.1955C34.7389 75.0225 34.4135 74.936 34.0384 74.936C33.6251 74.936 33.2675 75.0386 32.9656 75.2439C32.6666 75.4461 32.4365 75.7099 32.2753 76.0352C32.1141 76.3605 32.0335 76.7094 32.0335 77.0817V77.6796C32.0335 78.1894 32.1214 78.622 32.2973 78.9764C32.4761 79.3285 32.7238 79.5962 33.0403 79.7812C33.3569 79.963 33.7248 80.0535 34.1439 80.0535C34.4165 80.0535 34.6627 80.0156 34.8825 79.9398C35.1053 79.8601 35.2973 79.7433 35.4585 79.5877C35.6197 79.4291 35.7443 79.2333 35.8322 78.9988L36.8346 79.2797C36.7291 79.6202 36.5518 79.9189 36.3026 80.1766C36.0535 80.4319 35.7457 80.6308 35.3793 80.7747C35.0129 80.9156 34.6011 80.986 34.1439 80.986ZM43.3021 75.6044L42.37 75.8682C42.3114 75.7128 42.2249 75.5618 42.1106 75.4153C41.9993 75.2658 41.8468 75.1427 41.6534 75.046C41.4599 74.9493 41.2122 74.9009 40.9104 74.9009C40.4971 74.9009 40.1526 74.9962 39.8771 75.1867C39.6046 75.3742 39.4682 75.6131 39.4682 75.9033C39.4682 76.1613 39.562 76.365 39.7496 76.5145C39.9372 76.664 40.2303 76.7885 40.6289 76.8882L41.6314 77.1344C42.2352 77.2809 42.6851 77.5052 42.9812 77.8072C43.2772 78.1059 43.4252 78.4912 43.4252 78.9633C43.4252 79.3502 43.3138 79.696 43.091 80.0009C42.8712 80.3058 42.5634 80.5465 42.1678 80.7221C41.7721 80.8978 41.3119 80.986 40.7872 80.986C40.0984 80.986 39.5283 80.8366 39.0769 80.5372C38.6255 80.2385 38.3398 79.8021 38.2196 79.2271L39.2044 78.9811C39.2982 79.3447 39.4756 79.6171 39.7364 79.799C40.0002 79.9808 40.3446 80.0713 40.7696 80.0713C41.2532 80.0713 41.6373 79.9684 41.9216 79.7634C42.2088 79.5552 42.3524 79.3061 42.3524 79.0159C42.3524 78.7814 42.2703 78.5856 42.1062 78.427C41.9421 78.2661 41.69 78.1453 41.35 78.0664L40.2245 77.8025C39.606 77.6561 39.1516 77.4289 38.8615 77.1212C38.5742 76.8105 38.4306 76.4221 38.4306 75.9561C38.4306 75.5751 38.5376 75.238 38.7516 74.9449C38.9685 74.6517 39.2631 74.4217 39.6353 74.2546C40.0105 74.0875 40.4355 74.004 40.9104 74.004C41.5786 74.004 42.1033 74.1505 42.4843 74.4437C42.8683 74.7368 43.1409 75.1237 43.3021 75.6044ZM47.9241 74.0919V74.9712H44.4243V74.0919H47.9241ZM45.4443 72.4739H46.4819V78.9106C46.4819 79.2039 46.5245 79.4237 46.6095 79.5699C46.6974 79.7138 46.8088 79.8106 46.9436 79.8601C47.0814 79.9073 47.2265 79.9305 47.3789 79.9305C47.4932 79.9305 47.587 79.9251 47.6603 79.9127C47.7336 79.8988 47.7922 79.8864 47.8361 79.8779L48.0472 80.8103C47.9769 80.8366 47.8787 80.863 47.7526 80.8893C47.6266 80.9187 47.4668 80.9334 47.2734 80.9334C46.9803 80.9334 46.693 80.8699 46.4116 80.7438C46.1332 80.6177 45.9016 80.4258 45.717 80.1681C45.5353 79.9104 45.4443 79.5846 45.4443 79.1923V72.4739ZM49.4849 80.8452V74.0919H50.5225V80.8452H49.4849ZM50.0125 72.9664C49.8103 72.9664 49.6358 72.8975 49.4893 72.7597C49.3457 72.622 49.2738 72.4564 49.2738 72.2629C49.2738 72.0695 49.3457 71.9039 49.4893 71.766C49.6358 71.6283 49.8103 71.5594 50.0125 71.5594C50.2147 71.5594 50.3877 71.6283 50.5313 71.766C50.6778 71.9039 50.7511 72.0695 50.7511 72.2629C50.7511 72.4564 50.6778 72.622 50.5313 72.7597C50.3877 72.8975 50.2147 72.9664 50.0125 72.9664ZM55.1665 80.986C54.5568 80.986 54.0219 80.8405 53.5617 80.5503C53.1044 80.2602 52.7469 79.8547 52.4889 79.3324C52.2339 78.8108 52.1064 78.2011 52.1064 77.5037C52.1064 76.8002 52.2339 76.1862 52.4889 75.6615C52.7469 75.1368 53.1044 74.7294 53.5617 74.4393C54.0219 74.1491 54.5568 74.004 55.1665 74.004C55.7761 74.004 56.3096 74.1491 56.7668 74.4393C57.227 74.7294 57.5846 75.1368 57.8396 75.6615C58.0975 76.1862 58.2265 76.8002 58.2265 77.5037C58.2265 78.2011 58.0975 78.8108 57.8396 79.3324C57.5846 79.8547 57.227 80.2602 56.7668 80.5503C56.3096 80.8405 55.7761 80.986 55.1665 80.986ZM55.1665 80.0535C55.6295 80.0535 56.0106 79.9352 56.3096 79.6976C56.6086 79.46 56.8299 79.1482 56.9735 78.7613C57.1171 78.3744 57.1889 77.955 57.1889 77.5037C57.1889 77.0523 57.1171 76.6317 56.9735 76.2418C56.8299 75.852 56.6086 75.537 56.3096 75.2966C56.0106 75.0562 55.6295 74.936 55.1665 74.936C54.7034 74.936 54.3223 75.0562 54.0233 75.2966C53.7243 75.537 53.503 75.852 53.3594 76.2418C53.2158 76.6317 53.144 77.0523 53.144 77.5037C53.144 77.955 53.2158 78.3744 53.3594 78.7613C53.503 79.1482 53.7243 79.46 54.0233 79.6976C54.3223 79.9352 54.7034 80.0535 55.1665 80.0535ZM60.848 76.7827V80.8452H59.8104V74.0919H60.8128V75.1471H60.9008C61.059 74.8042 61.2994 74.5286 61.6218 74.3205C61.9442 74.1095 62.3604 74.004 62.8705 74.004C63.3277 74.004 63.7278 74.0978 64.0708 74.2853C64.4137 74.47 64.6804 74.7514 64.8709 75.1295C65.0615 75.5047 65.1567 75.9795 65.1567 76.554V80.8452H64.1192V76.6244C64.1192 76.0938 63.9813 75.6806 63.7059 75.3845C63.4303 75.0855 63.0522 74.936 62.5715 74.936C62.2403 74.936 61.9442 75.0078 61.6834 75.1515C61.4254 75.2952 61.2217 75.5047 61.0723 75.7802C60.9228 76.0557 60.848 76.3899 60.848 76.7827ZM68.0904 76.7827V80.8452H67.0527V74.0919H68.0552V75.1471H68.1431C68.3014 74.8042 68.5418 74.5286 68.8642 74.3205C69.1866 74.1095 69.6028 74.004 70.1128 74.004C70.5701 74.004 70.9701 74.0978 71.3131 74.2853C71.6561 74.47 71.9228 74.7514 72.1133 75.1295C72.3038 75.5047 72.3991 75.9795 72.3991 76.554V80.8452H71.3615V76.6244C71.3615 76.0938 71.2237 75.6806 70.9482 75.3845C70.6727 75.0855 70.2945 74.936 69.8138 74.936C69.4827 74.936 69.1866 75.0078 68.9257 75.1515C68.6678 75.2952 68.4641 75.5047 68.3146 75.7802C68.1651 76.0557 68.0904 76.3899 68.0904 76.7827ZM76.2824 81.0038C75.8545 81.0038 75.4661 80.9225 75.1173 80.7616C74.7685 80.5975 74.4915 80.3615 74.2864 80.0535C74.0812 79.7432 73.9786 79.368 73.9786 78.9284C73.9786 78.5415 74.0548 78.2274 74.2072 77.9875C74.3597 77.744 74.5633 77.5535 74.8184 77.4158C75.0734 77.278 75.3547 77.1754 75.6625 77.108C75.9732 77.0376 76.2854 76.982 76.599 76.9409C77.0093 76.8882 77.342 76.8486 77.5971 76.8222C77.855 76.7929 78.0423 76.7446 78.1599 76.6771C78.2799 76.6097 78.3402 76.4925 78.3402 76.3254V76.2902C78.3402 75.8564 78.2211 75.5193 77.9843 75.279C77.7494 75.0386 77.3933 74.9185 76.9156 74.9185C76.4202 74.9185 76.0318 75.027 75.7504 75.2439C75.4691 75.4608 75.2712 75.6923 75.1569 75.9385L74.172 75.5867C74.3479 75.1764 74.5824 74.857 74.8755 74.6283C75.1715 74.3968 75.494 74.2355 75.8428 74.1447C76.1945 74.0509 76.5403 74.004 76.8804 74.004C77.0973 74.004 77.3464 74.0304 77.6278 74.0831C77.9122 74.133 78.1862 74.237 78.4501 74.3953C78.7171 74.5535 78.9384 74.7924 79.114 75.1119C79.2897 75.4314 79.3779 75.8593 79.3779 76.3958V80.8452H78.3402V79.9305H78.2876C78.2172 80.0775 78.0996 80.2339 77.9356 80.401C77.7714 80.5681 77.5531 80.7105 77.2805 80.8274C77.0079 80.945 76.6752 81.0038 76.2824 81.0038ZM76.4407 80.0713C76.8511 80.0713 77.1969 79.9909 77.4784 79.8299C77.7626 79.6682 77.9765 79.46 78.1205 79.2055C78.2667 78.9501 78.3402 78.6824 78.3402 78.4007V77.4509C78.2961 77.5037 78.1994 77.5521 78.05 77.596C77.9033 77.6371 77.7333 77.6737 77.5399 77.706C77.3494 77.7353 77.1633 77.7615 76.9815 77.7847C76.8027 77.8056 76.6577 77.8234 76.5462 77.8381C76.2766 77.873 76.0245 77.9302 75.79 78.0091C75.5585 78.0858 75.3709 78.201 75.2273 78.3566C75.0866 78.509 75.0162 78.7172 75.0162 78.9811C75.0162 79.3416 75.1496 79.614 75.4163 79.799C75.686 79.9808 76.0275 80.0713 76.4407 80.0713ZM81.2714 80.8452V74.0919H82.3091V80.8452H81.2714ZM81.7991 72.9664C81.5972 72.9664 81.4223 72.8975 81.2761 72.7597C81.1321 72.622 81.0602 72.4564 81.0602 72.2629C81.0602 72.0695 81.1321 71.9039 81.2761 71.766C81.4223 71.6283 81.5972 71.5594 81.7991 71.5594C82.0011 71.5594 82.1744 71.6283 82.3176 71.766C82.4646 71.9039 82.5381 72.0695 82.5381 72.2629C82.5381 72.4564 82.4646 72.622 82.3176 72.7597C82.1744 72.8975 82.0011 72.9664 81.7991 72.9664ZM84.2096 80.8452V74.0919H85.2116V75.1119H85.2821C85.4051 74.7778 85.628 74.5067 85.9506 74.2986C86.2733 74.0904 86.6362 73.9864 87.0409 73.9864C87.1175 73.9864 87.2127 73.9879 87.3265 73.9908C87.441 73.9937 87.5277 73.9981 87.5865 74.004V75.0591C87.5509 75.0504 87.4704 75.0372 87.3443 75.0196C87.2212 74.9991 87.0912 74.9888 86.9527 74.9888C86.6246 74.9888 86.3314 75.0577 86.0737 75.1955C85.8191 75.3303 85.6163 75.5179 85.467 75.7582C85.3208 75.9957 85.2472 76.2668 85.2472 76.5716V80.8452H84.2096ZM91.4424 80.986C90.7916 80.986 90.2298 80.8421 89.7578 80.555C89.2888 80.2648 88.9275 79.8601 88.6721 79.3416C88.4199 78.8201 88.2937 78.2127 88.2937 77.5213C88.2937 76.8295 88.4199 76.2199 88.6721 75.6923C88.9275 75.1618 89.2819 74.7485 89.7361 74.4524C90.1934 74.1535 90.7266 74.004 91.3363 74.004C91.6884 74.004 92.0359 74.0626 92.3787 74.1799C92.7215 74.2971 93.0333 74.4876 93.315 74.7514C93.5966 75.0123 93.8203 75.3581 93.9874 75.789C94.1546 76.2199 94.2381 76.7504 94.2381 77.3806V77.8203H89.0327V76.9233H93.1834C93.1834 76.5423 93.1068 76.2023 92.9544 75.9033C92.805 75.6044 92.5907 75.3684 92.3129 75.1955C92.0374 75.0225 91.7116 74.936 91.3363 74.936C90.9231 74.936 90.5656 75.0386 90.2638 75.2439C89.9652 75.4461 89.7346 75.7099 89.5736 76.0352C89.4127 76.3605 89.3314 76.7094 89.3314 77.0817V77.6796C89.3314 78.1894 89.4196 78.622 89.5953 78.9764C89.774 79.3285 90.0216 79.5962 90.3381 79.7812C90.6554 79.963 91.023 80.0535 91.4424 80.0535C91.7147 80.0535 91.9608 80.0156 92.1806 79.9398C92.4034 79.8601 92.5953 79.7433 92.7563 79.5877C92.918 79.4291 93.0426 79.2333 93.13 78.9988L94.1329 79.2797C94.0277 79.6202 93.8497 79.9189 93.6005 80.1766C93.3514 80.4319 93.0442 80.6308 92.6774 80.7747C92.3114 80.9156 91.8997 80.986 91.4424 80.986Z" fill="black"/>
<path id="Vector_5" d="M182.429 117.988H13.7381C9.46446 117.988 6 121.453 6 125.726V151.262C6 155.535 9.46446 159 13.7381 159H182.429C186.702 159 190.167 155.535 190.167 151.262V125.726C190.167 121.453 186.702 117.988 182.429 117.988Z" fill="#E1DFDF"/>
<path id="Vector_6" d="M178.56 126.887H17.6073C15.4705 126.887 13.7383 128.619 13.7383 130.756V146.232C13.7383 148.369 15.4705 150.101 17.6073 150.101H178.56C180.697 150.101 182.429 148.369 182.429 146.232V130.756C182.429 128.619 180.697 126.887 178.56 126.887Z" fill="#00A886"/>
<path id="Vector_7" d="M85.0619 136.554C85.0209 136.189 84.8515 135.908 84.5543 135.707C84.2564 135.505 83.8819 135.403 83.4307 135.403C83.1073 135.403 82.8279 135.455 82.5919 135.557C82.3559 135.658 82.1725 135.796 82.0418 135.973C81.9133 136.148 81.8499 136.346 81.8499 136.569C81.8499 136.757 81.8932 136.918 81.9806 137.054C82.0704 137.19 82.1865 137.304 82.3304 137.397C82.4766 137.486 82.6329 137.561 82.8001 137.623C82.9665 137.682 83.1266 137.731 83.2806 137.77L84.0498 137.969C84.3013 138.031 84.559 138.115 84.8236 138.22C85.0875 138.324 85.3328 138.463 85.5579 138.636C85.7839 138.807 85.9657 139.02 86.1043 139.274C86.2451 139.528 86.3163 139.832 86.3163 140.185C86.3163 140.632 86.2002 141.028 85.9696 141.374C85.7413 141.721 85.4094 141.994 84.9737 142.193C84.5396 142.394 84.0157 142.494 83.3998 142.494C82.8101 142.494 82.2994 142.4 81.8684 142.213C81.4382 142.026 81.1008 141.76 80.8571 141.417C80.6133 141.071 80.4787 140.66 80.4531 140.185H81.6456C81.6688 140.47 81.7609 140.708 81.9226 140.897C82.0866 141.085 82.2956 141.224 82.5494 141.317C82.8063 141.407 83.0872 141.451 83.3921 141.451C83.7279 141.451 84.0273 141.399 84.2889 141.294C84.5528 141.186 84.7601 141.037 84.9118 140.847C85.0635 140.655 85.1385 140.431 85.1385 140.174C85.1385 139.941 85.072 139.75 84.9389 139.6C84.8081 139.452 84.6294 139.329 84.4042 139.231C84.1806 139.134 83.9283 139.048 83.6459 138.974L82.715 138.72C82.0843 138.548 81.5844 138.295 81.2145 137.962C80.8478 137.629 80.6644 137.188 80.6644 136.638C80.6644 136.185 80.7874 135.789 81.0343 135.45C81.2803 135.112 81.6138 134.848 82.034 134.661C82.455 134.472 82.9293 134.376 83.4578 134.376C83.991 134.376 84.4615 134.47 84.8693 134.657C85.2801 134.845 85.6028 135.102 85.8388 135.43C86.0749 135.756 86.1979 136.131 86.2079 136.554H85.0619ZM90.4028 136.454V137.377H87.1752V136.454H90.4028ZM88.0403 135.038H89.191V140.628C89.191 140.851 89.2243 141.019 89.2908 141.132C89.3573 141.242 89.4432 141.318 89.5485 141.359C89.656 141.397 89.7729 141.417 89.8982 141.417C89.9911 141.417 90.0716 141.41 90.1412 141.397C90.2101 141.385 90.2643 141.374 90.3022 141.366L90.5103 142.317C90.4438 142.342 90.3486 142.368 90.2256 142.394C90.1025 142.422 89.9485 142.437 89.7636 142.44C89.461 142.445 89.1794 142.391 88.9178 142.279C88.6563 142.166 88.4443 141.991 88.2825 141.755C88.1216 141.52 88.0403 141.223 88.0403 140.866V135.038ZM93.3943 142.494C93.0198 142.494 92.6816 142.425 92.3791 142.286C92.0765 142.145 91.8366 141.941 91.6594 141.674C91.4853 141.407 91.3979 141.081 91.3979 140.693C91.3979 140.36 91.4621 140.086 91.5906 139.87C91.7182 139.655 91.8916 139.484 92.1098 139.358C92.328 139.233 92.571 139.138 92.8403 139.073C93.1096 139.009 93.3843 138.961 93.6636 138.927C94.018 138.886 94.3051 138.853 94.5256 138.827C94.7462 138.8 94.9063 138.755 95.0062 138.693C95.1068 138.632 95.1563 138.531 95.1563 138.393V138.366C95.1563 138.03 95.0619 137.77 94.8715 137.585C94.6843 137.401 94.4049 137.308 94.0335 137.308C93.6458 137.308 93.3409 137.394 93.1173 137.565C92.8968 137.735 92.7443 137.924 92.66 138.131L91.579 137.885C91.7066 137.526 91.8939 137.236 92.1407 137.015C92.3891 136.792 92.6754 136.631 92.9981 136.531C93.3216 136.428 93.6613 136.377 94.018 136.377C94.254 136.377 94.504 136.405 94.7678 136.462C95.0348 136.515 95.2832 136.615 95.5146 136.761C95.7475 136.908 95.9386 137.117 96.0872 137.389C96.2365 137.658 96.3108 138.008 96.3108 138.439V142.363H95.1872V141.555H95.1408C95.0665 141.704 94.9551 141.85 94.8065 141.994C94.6579 142.137 94.4668 142.256 94.2331 142.351C94.0002 142.447 93.7201 142.494 93.3943 142.494ZM93.6443 141.571C93.9623 141.571 94.2347 141.508 94.4599 141.382C94.6881 141.256 94.8615 141.092 94.9798 140.89C95.0998 140.685 95.1601 140.465 95.1601 140.232V139.47C95.1191 139.511 95.0402 139.549 94.9218 139.586C94.8065 139.619 94.6742 139.648 94.5256 139.674C94.3771 139.697 94.2316 139.719 94.0907 139.739C93.9499 139.758 93.8315 139.772 93.7371 139.785C93.5135 139.813 93.31 139.861 93.125 139.928C92.9432 139.994 92.7969 140.09 92.6871 140.216C92.5787 140.339 92.5253 140.503 92.5253 140.709C92.5253 140.993 92.6306 141.209 92.8403 141.355C93.0507 141.499 93.3193 141.571 93.6443 141.571ZM97.8429 142.363V136.454H98.9549V137.393H99.016C99.1236 137.075 99.314 136.825 99.5856 136.642C99.8603 136.458 100.171 136.365 100.516 136.365C100.588 136.365 100.673 136.368 100.77 136.373C100.87 136.378 100.948 136.384 101.005 136.392V137.493C100.959 137.479 100.877 137.466 100.759 137.45C100.641 137.432 100.523 137.423 100.405 137.423C100.133 137.423 99.8904 137.481 99.6776 137.596C99.4672 137.709 99.3008 137.867 99.1778 138.07C99.0547 138.269 98.9928 138.498 98.9928 138.755V142.363H97.8429ZM105.108 136.454V137.377H101.88V136.454H105.108ZM102.746 135.038H103.896V140.628C103.896 140.851 103.93 141.019 103.996 141.132C104.063 141.242 104.149 141.318 104.254 141.359C104.362 141.397 104.478 141.417 104.604 141.417C104.697 141.417 104.777 141.41 104.847 141.397C104.916 141.385 104.97 141.374 105.008 141.366L105.216 142.317C105.149 142.342 105.054 142.368 104.931 142.394C104.808 142.422 104.654 142.437 104.469 142.44C104.167 142.445 103.885 142.391 103.623 142.279C103.361 142.166 103.15 141.991 102.988 141.755C102.826 141.52 102.746 141.223 102.746 140.866V135.038Z" fill="white"/>
<path id="Vector_8" d="M110.143 138.494H114.656" stroke="white" stroke-width="0.773809" stroke-linecap="round" stroke-linejoin="round"/>
<path id="Vector_9" d="M112.398 136.237L114.656 138.494L112.398 140.751" stroke="white" stroke-width="0.773809" stroke-linecap="round" stroke-linejoin="round"/>
</g>
</g>
</g>
</g>
<defs>
<filter id="filter0_d_449_536" x="0.815476" y="0.601133" width="194.536" height="165.131" filterUnits="userSpaceOnUse" color-interpolation-filters="sRGB">
<feFlood flood-opacity="0" result="BackgroundImageFix"/>
<feColorMatrix in="SourceAlpha" type="matrix" values="0 0 0 0 0 0 0 0 0 0 0 0 0 0 0 0 0 0 127 0" result="hardAlpha"/>
<feOffset dy="1.54762"/>
<feGaussianBlur stdDeviation="2.59226"/>
<feComposite in2="hardAlpha" operator="out"/>
<feColorMatrix type="matrix" values="0 0 0 0 0 0 0 0 0 0.458246 0 0 0 0 0.365506 0 0 0 0.1 0"/>
<feBlend mode="normal" in2="BackgroundImageFix" result="effect1_dropShadow_449_536"/>
<feBlend mode="normal" in="SourceGraphic" in2="effect1_dropShadow_449_536" result="shape"/>
</filter>
</defs>
</svg>
