<svg width="360" height="40" viewBox="0 0 360 40" fill="none" xmlns="http://www.w3.org/2000/svg">
<path d="M41.4 0H9.9C4.43238 0 0 4.37766 0 9.77778V30.2222C0 35.6223 4.43238 40 9.9 40H41.4C46.8676 40 51.3 35.6223 51.3 30.2222V9.77778C51.3 4.37766 46.8676 0 41.4 0Z" fill="black"/>
<path d="M24.3002 13.7778L19.8002 17.3334H16.2002V22.6667H19.8002L24.3002 26.2223V13.7778Z" stroke="white" stroke-width="1.5" stroke-linecap="round" stroke-linejoin="round"/>
<path d="M31.5627 13.7156C33.25 15.3825 34.1978 17.643 34.1978 20C34.1978 22.357 33.25 24.6175 31.5627 26.2845M28.3857 16.8534C29.2294 17.6868 29.7033 18.8171 29.7033 19.9956C29.7033 21.1741 29.2294 22.3044 28.3857 23.1378" stroke="white" stroke-width="1.5" stroke-linecap="round" stroke-linejoin="round"/>
<path d="M344.7 0H70.1998C64.7322 0 60.2998 4.37766 60.2998 9.77778V30.2222C60.2998 35.6223 64.7322 40 70.1998 40H344.7C350.167 40 354.6 35.6223 354.6 30.2222V9.77778C354.6 4.37766 350.167 0 344.7 0Z" fill="#E1DFDF"/>
<path d="M60.2998 9.77778C60.2998 4.37766 64.7322 0 70.1998 0H128.7V40H70.1998C64.7322 40 60.2998 35.6223 60.2998 30.2222V9.77778Z" fill="black"/>
<path d="M81.1543 17.7715C81.1066 17.3532 80.9097 17.0291 80.5637 16.7992C80.2177 16.5665 79.7822 16.4502 79.2572 16.4502C78.8813 16.4502 78.5561 16.5091 78.2817 16.627C78.0073 16.7418 77.794 16.9009 77.6419 17.1042C77.4928 17.3046 77.4182 17.5328 77.4182 17.7892C77.4182 18.0042 77.4688 18.1898 77.5703 18.346C77.6747 18.5022 77.8104 18.6333 77.9774 18.7393C78.1475 18.8424 78.3294 18.9294 78.5234 19C78.7172 19.0678 78.9037 19.1238 79.0826 19.168L79.9775 19.3977C80.2699 19.4685 80.5697 19.5642 80.8769 19.685C81.1841 19.8058 81.469 19.9649 81.7315 20.1623C81.9941 20.3597 82.2058 20.6042 82.3669 20.8959C82.531 21.1875 82.613 21.5367 82.613 21.9432C82.613 22.4559 82.4788 22.9111 82.2103 23.3088C81.9448 23.7064 81.5585 24.0202 81.0514 24.25C80.5473 24.4799 79.9373 24.5947 79.2213 24.5947C78.5353 24.5947 77.9417 24.4872 77.4406 24.2721C76.9394 24.0571 76.5472 23.7521 76.2637 23.3574C75.9804 22.9596 75.8238 22.4882 75.7939 21.9432H77.181C77.2079 22.2703 77.3153 22.5428 77.5032 22.7608C77.6941 22.9759 77.9372 23.1364 78.2325 23.2424C78.5308 23.3456 78.8575 23.3971 79.2124 23.3971C79.6032 23.3971 79.9507 23.3368 80.255 23.216C80.5622 23.0922 80.8038 22.9214 80.9798 22.7033C81.1558 22.4824 81.2438 22.2246 81.2438 21.93C81.2438 21.6619 81.1662 21.4424 81.0112 21.2715C80.8591 21.1007 80.6517 20.9592 80.3892 20.8472C80.1297 20.7353 79.8358 20.6366 79.5077 20.5512L78.4249 20.2595C77.6911 20.0621 77.1095 19.772 76.6799 19.3889C76.2533 19.0059 76.04 18.4992 76.04 17.8688C76.04 17.3472 76.1832 16.8921 76.4696 16.5032C76.756 16.1144 77.1438 15.8123 77.6329 15.5973C78.1222 15.3792 78.674 15.2703 79.2885 15.2703C79.9089 15.2703 80.4563 15.3778 80.9306 15.5928C81.4079 15.808 81.7837 16.104 82.0581 16.4811C82.3326 16.8552 82.4758 17.2854 82.4877 17.7715H81.1543ZM84.1578 26.9899V17.6566H85.4644V18.757H85.5761C85.6537 18.6156 85.7656 18.452 85.9117 18.2664C86.0579 18.0808 86.2608 17.9188 86.5203 17.7803C86.7798 17.639 87.1229 17.5682 87.5494 17.5682C88.1042 17.5682 88.5994 17.7067 89.0349 17.9836C89.4704 18.2606 89.812 18.6598 90.0599 19.1812C90.3101 19.7027 90.4352 20.3302 90.4352 21.0638C90.4352 21.7974 90.3119 22.4264 90.0644 22.9508C89.8165 23.4722 89.4764 23.8744 89.0438 24.1572C88.6113 24.4371 88.1176 24.577 87.5628 24.577C87.1452 24.577 86.8036 24.5079 86.5381 24.3694C86.2757 24.2309 86.0699 24.0688 85.9208 23.8832C85.7715 23.6976 85.6567 23.5327 85.5761 23.3883H85.4957V26.9899H84.1578ZM85.4688 21.0505C85.4688 21.5278 85.5389 21.9462 85.6791 22.3056C85.8193 22.665 86.0222 22.9464 86.2876 23.1496C86.5531 23.35 86.8783 23.4502 87.263 23.4502C87.6628 23.4502 87.9969 23.3456 88.2653 23.1364C88.5338 22.9243 88.7367 22.637 88.8738 22.2746C89.014 21.9123 89.0842 21.5042 89.0842 21.0505C89.0842 20.6027 89.0155 20.2006 88.8783 19.8441C88.744 19.4876 88.5413 19.2063 88.2698 19C88.0014 18.7938 87.6658 18.6907 87.263 18.6907C86.8753 18.6907 86.5471 18.7894 86.2787 18.9868C86.0132 19.1841 85.8118 19.4596 85.6746 19.8132C85.5374 20.1667 85.4688 20.5792 85.4688 21.0505ZM94.8965 24.5815C94.2197 24.5815 93.6365 24.4386 93.1469 24.1528C92.6609 23.8641 92.2847 23.459 92.0192 22.9376C91.7564 22.4131 91.6259 21.7989 91.6259 21.0947C91.6259 20.3994 91.7564 19.7866 92.0192 19.2564C92.2847 18.7261 92.6546 18.3121 93.1289 18.0145C93.6059 17.717 94.1639 17.5682 94.802 17.5682C95.1899 17.5682 95.5661 17.6316 95.9297 17.7583C96.2942 17.8849 96.6209 18.0838 96.9098 18.3548C97.1996 18.6259 97.4273 18.9779 97.5947 19.4111C97.7612 19.8412 97.8449 20.3641 97.8449 20.9799V21.4483H92.3819V20.4584H96.5336C96.5336 20.1107 96.4625 19.8029 96.3194 19.5348C96.1763 19.2637 95.9747 19.0501 95.7155 18.894C95.459 18.7378 95.1575 18.6598 94.811 18.6598C94.4357 18.6598 94.1072 18.7511 93.8273 18.9337C93.5492 19.1135 93.335 19.3492 93.1829 19.6408C93.0335 19.9296 92.9588 20.2433 92.9588 20.5821V21.3555C92.9588 21.8092 93.0398 22.1952 93.2009 22.5133C93.3647 22.8315 93.5924 23.0745 93.8849 23.2424C94.1774 23.4074 94.5194 23.4899 94.91 23.4899C95.1638 23.4899 95.3942 23.4546 95.603 23.3839C95.8118 23.3103 95.9927 23.2012 96.1448 23.0568C96.2969 22.9125 96.413 22.7343 96.494 22.5222L97.7603 22.7475C97.6586 23.1158 97.4768 23.4384 97.214 23.7153C96.9548 23.9893 96.6281 24.2029 96.2339 24.3561C95.8433 24.5064 95.3978 24.5815 94.8965 24.5815ZM102.292 24.5815C101.614 24.5815 101.031 24.4386 100.542 24.1528C100.056 23.8641 99.68 23.459 99.4145 22.9376C99.1517 22.4131 99.0203 21.7989 99.0203 21.0947C99.0203 20.3994 99.1517 19.7866 99.4145 19.2564C99.68 18.7261 100.05 18.3121 100.524 18.0145C101.001 17.717 101.559 17.5682 102.197 17.5682C102.585 17.5682 102.961 17.6316 103.325 17.7583C103.689 17.8849 104.015 18.0838 104.305 18.3548C104.594 18.6259 104.823 18.9779 104.99 19.4111C105.157 19.8412 105.24 20.3641 105.24 20.9799V21.4483H99.7772V20.4584H103.929C103.929 20.1107 103.858 19.8029 103.715 19.5348C103.572 19.2637 103.37 19.0501 103.11 18.894C102.853 18.7378 102.553 18.6598 102.206 18.6598C101.831 18.6598 101.503 18.7511 101.222 18.9337C100.945 19.1135 100.73 19.3492 100.578 19.6408C100.429 19.9296 100.354 20.2433 100.354 20.5821V21.3555C100.354 21.8092 100.434 22.1952 100.595 22.5133C100.76 22.8315 100.988 23.0745 101.28 23.2424C101.573 23.4074 101.914 23.4899 102.305 23.4899C102.558 23.4899 102.79 23.4546 102.998 23.3839C103.207 23.3103 103.388 23.2012 103.54 23.0568C103.692 22.9125 103.808 22.7343 103.889 22.5222L105.155 22.7475C105.054 23.1158 104.872 23.4384 104.609 23.7153C104.35 23.9893 104.023 24.2029 103.629 24.3561C103.239 24.5064 102.792 24.5815 102.292 24.5815ZM109.297 24.577C108.742 24.577 108.247 24.4371 107.812 24.1572C107.38 23.8744 107.039 23.4722 106.792 22.9508C106.547 22.4264 106.425 21.7974 106.425 21.0638C106.425 20.3302 106.549 19.7027 106.796 19.1812C107.047 18.6598 107.389 18.2606 107.825 17.9836C108.261 17.7067 108.755 17.5682 109.306 17.5682C109.733 17.5682 110.076 17.639 110.335 17.7803C110.598 17.9188 110.8 18.0808 110.944 18.2664C111.09 18.452 111.204 18.6156 111.284 18.757H111.365V15.394H112.702V24.4445H111.396V23.3883H111.284C111.204 23.5327 111.088 23.6976 110.935 23.8832C110.786 24.0688 110.58 24.2309 110.317 24.3694C110.055 24.5079 109.715 24.577 109.297 24.577ZM109.593 23.4502C109.978 23.4502 110.303 23.35 110.568 23.1496C110.836 22.9464 111.04 22.665 111.177 22.3056C111.317 21.9462 111.387 21.5278 111.387 21.0505C111.387 20.5792 111.318 20.1667 111.181 19.8132C111.044 19.4596 110.843 19.1841 110.577 18.9868C110.312 18.7894 109.983 18.6907 109.593 18.6907C109.19 18.6907 108.855 18.7938 108.586 19C108.317 19.2063 108.115 19.4876 107.977 19.8441C107.843 20.2006 107.776 20.6027 107.776 21.0505C107.776 21.5042 107.845 21.9123 107.982 22.2746C108.119 22.637 108.322 22.9243 108.59 23.1364C108.862 23.3456 109.196 23.4502 109.593 23.4502Z" fill="white"/>
<path d="M157.5 8.44446H149.4C142.938 8.44446 137.7 13.6181 137.7 20C137.7 26.382 142.938 31.5556 149.4 31.5556H157.5C163.962 31.5556 169.2 26.382 169.2 20C169.2 13.6181 163.962 8.44446 157.5 8.44446Z" fill="black"/>
<path d="M148.656 17.6565L150.173 20.2992L151.703 17.6565H153.166L151.023 21.0505L153.184 24.4444H151.721L150.173 21.9078L148.629 24.4444H147.161L149.3 21.0505L147.188 17.6565H148.656ZM157.998 15.3939V24.4444H156.611V16.7639H156.557L154.365 18.178V16.8699L156.652 15.3939H157.998Z" fill="white"/>
<path d="M189.156 17.6566L190.673 20.2992L192.203 17.6566H193.666L191.523 21.0505L193.684 24.4445H192.221L190.673 21.9079L189.129 24.4445H187.661L189.8 21.0505L187.688 17.6566H189.156ZM198.498 15.394V24.4445H197.111V16.764H197.057L194.865 18.1781V16.87L197.152 15.394H198.498ZM201.347 24.5285C201.103 24.5285 200.892 24.443 200.717 24.2721C200.54 24.0984 200.453 23.8891 200.453 23.6446C200.453 23.4031 200.54 23.1968 200.717 23.0259C200.892 22.8521 201.103 22.7652 201.347 22.7652C201.592 22.7652 201.802 22.8521 201.978 23.0259C202.154 23.1968 202.242 23.4031 202.242 23.6446C202.242 23.8066 202.201 23.9554 202.117 24.091C202.037 24.2235 201.929 24.3296 201.795 24.4091C201.661 24.4887 201.511 24.5285 201.347 24.5285ZM204.016 24.4445V23.4546L207.117 20.2816C207.449 19.9369 207.721 19.635 207.936 19.3757C208.154 19.1135 208.316 18.8645 208.423 18.6288C208.531 18.3931 208.584 18.1427 208.584 17.8776C208.584 17.577 208.513 17.3178 208.37 17.0998C208.227 16.8788 208.032 16.7095 207.784 16.5916C207.536 16.4708 207.258 16.4104 206.947 16.4104C206.619 16.4104 206.333 16.4767 206.088 16.6093C205.844 16.7418 205.656 16.9289 205.524 17.1705C205.393 17.412 205.327 17.6949 205.327 18.019H204.008C204.008 17.468 204.136 16.9864 204.392 16.5739C204.649 16.1615 205.001 15.8418 205.448 15.615C205.896 15.3851 206.405 15.2703 206.974 15.2703C207.549 15.2703 208.057 15.3837 208.495 15.6105C208.937 15.8344 209.281 16.1408 209.528 16.5297C209.777 16.9157 209.9 17.3517 209.9 17.8378C209.9 18.1736 209.836 18.5022 209.708 18.8232C209.582 19.1444 209.364 19.5024 209.051 19.8971C208.737 20.2889 208.302 20.7648 207.744 21.3246L205.922 23.2072V23.2734H210.048V24.4445H204.016ZM214.768 24.5682C214.208 24.5682 213.704 24.4622 213.256 24.25C212.812 24.035 212.457 23.7404 212.192 23.3662C211.926 22.992 211.784 22.5648 211.766 22.0847H213.109C213.141 22.4736 213.316 22.7932 213.632 23.0436C213.948 23.294 214.327 23.4192 214.768 23.4192C215.12 23.4192 215.432 23.3397 215.703 23.1806C215.978 23.0185 216.193 22.7961 216.348 22.5133C216.506 22.2304 216.585 21.9079 216.585 21.5455C216.585 21.1772 216.504 20.8488 216.343 20.56C216.182 20.2713 215.96 20.0445 215.676 19.8794C215.396 19.7144 215.074 19.6305 214.711 19.6276C214.433 19.6276 214.154 19.6747 213.874 19.769C213.593 19.8632 213.366 19.987 213.193 20.1402L211.927 19.9546L212.442 15.394H217.48V16.5651H213.592L213.301 19.0973H213.354C213.533 18.9264 213.771 18.7835 214.066 18.6686C214.364 18.5537 214.684 18.4962 215.024 18.4962C215.581 18.4962 216.078 18.6273 216.513 18.8896C216.952 19.1518 217.296 19.5097 217.547 19.9634C217.8 20.4142 217.926 20.9327 217.923 21.519C217.926 22.1053 217.791 22.6282 217.52 23.0878C217.251 23.5474 216.879 23.9097 216.402 24.1749C215.927 24.4371 215.383 24.5682 214.768 24.5682Z" fill="black"/>
<path d="M247.656 17.6566L249.173 20.2992L250.703 17.6566H252.166L250.023 21.0505L252.184 24.4445H250.721L249.173 21.9079L247.629 24.4445H246.161L248.3 21.0505L246.188 17.6566H247.656ZM256.998 15.394V24.4445H255.611V16.764H255.557L253.365 18.1781V16.87L255.652 15.394H256.998ZM259.847 24.5285C259.603 24.5285 259.392 24.443 259.217 24.2721C259.04 24.0984 258.953 23.8891 258.953 23.6446C258.953 23.4031 259.04 23.1968 259.217 23.0259C259.392 22.8521 259.603 22.7652 259.847 22.7652C260.092 22.7652 260.302 22.8521 260.478 23.0259C260.654 23.1968 260.742 23.4031 260.742 23.6446C260.742 23.8066 260.701 23.9554 260.617 24.091C260.537 24.2235 260.429 24.3296 260.295 24.4091C260.161 24.4887 260.011 24.5285 259.847 24.5285ZM265.393 24.5682C264.833 24.5682 264.329 24.4622 263.881 24.25C263.437 24.035 263.082 23.7404 262.817 23.3662C262.551 22.992 262.409 22.5648 262.391 22.0847H263.734C263.766 22.4736 263.941 22.7932 264.257 23.0436C264.573 23.294 264.952 23.4192 265.393 23.4192C265.745 23.4192 266.057 23.3397 266.328 23.1806C266.603 23.0185 266.818 22.7961 266.973 22.5133C267.131 22.2304 267.21 21.9079 267.21 21.5455C267.21 21.1772 267.129 20.8488 266.968 20.56C266.807 20.2713 266.585 20.0445 266.301 19.8794C266.021 19.7144 265.699 19.6305 265.336 19.6276C265.058 19.6276 264.779 19.6747 264.499 19.769C264.218 19.8632 263.991 19.987 263.818 20.1402L262.552 19.9546L263.067 15.394H268.105V16.5651H264.217L263.926 19.0973H263.979C264.158 18.9264 264.396 18.7835 264.691 18.6686C264.989 18.5537 265.309 18.4962 265.649 18.4962C266.206 18.4962 266.703 18.6273 267.138 18.8896C267.577 19.1518 267.921 19.5097 268.172 19.9634C268.425 20.4142 268.551 20.9327 268.548 21.519C268.551 22.1053 268.416 22.6282 268.145 23.0878C267.876 23.5474 267.504 23.9097 267.027 24.1749C266.552 24.4371 266.008 24.5682 265.393 24.5682ZM273.373 24.5947C272.665 24.5918 272.061 24.4077 271.56 24.0424C271.059 23.677 270.676 23.1453 270.411 22.447C270.145 21.7488 270.012 20.9077 270.012 19.9237C270.012 18.9426 270.145 18.1044 270.411 17.4091C270.679 16.7138 271.063 16.1835 271.565 15.8183C272.069 15.4529 272.672 15.2703 273.373 15.2703C274.074 15.2703 274.675 15.4544 275.175 15.8226C275.677 16.188 276.06 16.7183 276.326 17.4136C276.594 18.1059 276.728 18.9426 276.728 19.9237C276.728 20.9106 276.596 21.7532 276.33 22.4514C276.065 23.1467 275.681 23.6785 275.18 24.0468C274.679 24.412 274.076 24.5947 273.373 24.5947ZM273.373 23.4148C273.993 23.4148 274.478 23.1158 274.827 22.5177C275.179 21.9197 275.354 21.055 275.354 19.9237C275.354 19.1724 275.274 18.5375 275.113 18.019C274.955 17.4976 274.727 17.1027 274.428 16.8346C274.133 16.5636 273.781 16.428 273.373 16.428C272.755 16.428 272.27 16.7286 271.918 17.3296C271.566 17.9306 271.389 18.7952 271.385 19.9237C271.385 20.6778 271.465 21.3157 271.623 21.8372C271.784 22.3557 272.012 22.749 272.308 23.0171C272.603 23.2823 272.958 23.4148 273.373 23.4148Z" fill="black"/>
<path d="M307.055 17.6565L308.572 20.2992L310.102 17.6565H311.565L309.422 21.0505L311.583 24.4444H310.12L308.572 21.9078L307.028 24.4444H305.561L307.699 21.0505L305.588 17.6565H307.055ZM316.397 15.3939V24.4444H315.011V16.7639H314.957L312.764 18.178V16.8699L315.051 15.3939H316.397ZM319.247 24.5284C319.002 24.5284 318.791 24.4429 318.616 24.2721C318.44 24.0983 318.352 23.889 318.352 23.6445C318.352 23.403 318.44 23.1968 318.616 23.0258C318.791 22.8521 319.002 22.7651 319.247 22.7651C319.492 22.7651 319.701 22.8521 319.878 23.0258C320.053 23.1968 320.141 23.403 320.141 23.6445C320.141 23.8065 320.1 23.9553 320.016 24.0909C319.936 24.2234 319.828 24.3295 319.694 24.409C319.56 24.4886 319.411 24.5284 319.247 24.5284ZM321.991 24.4444L325.991 16.6313V16.565H321.365V15.3939H327.422V16.6048L323.436 24.4444H321.991ZM331.88 24.5681C331.319 24.5681 330.815 24.4621 330.368 24.2499C329.924 24.0349 329.569 23.7403 329.303 23.3661C329.038 22.992 328.896 22.5648 328.878 22.0846H330.221C330.253 22.4735 330.428 22.7931 330.743 23.0435C331.06 23.2939 331.439 23.4192 331.88 23.4192C332.232 23.4192 332.544 23.3396 332.815 23.1805C333.09 23.0185 333.305 22.7961 333.46 22.5132C333.618 22.2304 333.697 21.9078 333.697 21.5454C333.697 21.1771 333.616 20.8487 333.455 20.56C333.294 20.2713 333.072 20.0444 332.788 19.8793C332.508 19.7144 332.186 19.6305 331.823 19.6275C331.544 19.6275 331.265 19.6746 330.986 19.7689C330.705 19.8632 330.478 19.9869 330.305 20.1401L329.039 19.9545L329.554 15.3939H334.592V16.565H330.704L330.413 19.0972H330.466C330.645 18.9263 330.883 18.7834 331.178 18.6685C331.476 18.5537 331.796 18.4961 332.136 18.4961C332.693 18.4961 333.19 18.6273 333.625 18.8895C334.064 19.1517 334.408 19.5097 334.659 19.9633C334.912 20.4141 335.038 20.9326 335.035 21.5189C335.038 22.1052 334.903 22.6281 334.632 23.0877C334.363 23.5473 333.991 23.9097 333.514 24.1748C333.039 24.437 332.495 24.5681 331.88 24.5681Z" fill="black"/>
</svg>
