<svg width="224" height="198" viewBox="0 0 224 198" fill="none" xmlns="http://www.w3.org/2000/svg">
<g filter="url(#filter0_d_449_1985)">
<path d="M207.134 5H16.7816C11.6533 5 7.49609 9.15726 7.49609 14.2855V179.683C7.49609 184.812 11.6533 188.969 16.7816 188.969H207.134C212.262 188.969 216.42 184.812 216.42 179.683V14.2855C216.42 9.15726 212.262 5 207.134 5Z" fill="white"/>
<path d="M19.9463 29.3744V19.2411H23.816C24.5596 19.2411 25.2011 19.3726 25.7407 19.6356C26.2847 19.8985 26.7019 20.2726 26.9921 20.7577C27.2868 21.2429 27.4341 21.8164 27.4341 22.4783C27.4341 23.1448 27.2845 23.7206 26.9852 24.2058C26.686 24.6909 26.262 25.0672 25.7134 25.3347C25.1694 25.5977 24.5256 25.7292 23.782 25.7292H21.7418V29.3744H19.9463ZM21.7418 24.1922H23.714C24.317 24.1922 24.7931 24.0403 25.1422 23.7365C25.4913 23.4282 25.6659 23.0088 25.6659 22.4783C25.6659 21.9524 25.4913 21.5376 25.1422 21.2338C24.7931 20.93 24.317 20.7781 23.714 20.7781H21.7418V24.1922ZM28.4746 29.3744V22.1927H30.1273V23.3829H30.1476C30.2791 22.9748 30.4854 22.6642 30.7666 22.4511C31.0521 22.2335 31.4262 22.1247 31.8885 22.1247C32.0063 22.1247 32.1108 22.1292 32.2013 22.1383C32.2965 22.1428 32.3783 22.1474 32.4462 22.1519V23.6753C32.383 23.6663 32.2739 23.6549 32.1201 23.6413C31.9657 23.6277 31.8048 23.6209 31.6371 23.6209C31.229 23.6209 30.8844 23.7614 30.6033 24.0425C30.3267 24.3237 30.1885 24.7453 30.1885 25.3075V29.3744H28.4746ZM36.5539 29.5376C35.8471 29.5376 35.2278 29.3812 34.6974 29.0684C34.167 28.751 33.752 28.3113 33.4531 27.749C33.1583 27.1868 33.0109 26.534 33.0109 25.7904C33.0109 25.0468 33.1583 24.3939 33.4531 23.8317C33.752 23.265 34.167 22.8229 34.6974 22.5056C35.2278 22.1882 35.8471 22.0295 36.5539 22.0295C37.2567 22.0295 37.8736 22.1882 38.404 22.5056C38.9391 22.8229 39.3541 23.265 39.6483 23.8317C39.9478 24.3939 40.0975 25.0468 40.0975 25.7904C40.0975 26.534 39.9478 27.1868 39.6483 27.749C39.3541 28.3113 38.9391 28.751 38.404 29.0684C37.8736 29.3812 37.2567 29.5376 36.5539 29.5376ZM36.5539 28.1027C37.1029 28.1027 37.5405 27.8964 37.8666 27.4838C38.1934 27.0712 38.3565 26.5067 38.3565 25.7904C38.3565 25.074 38.1934 24.5073 37.8666 24.0901C37.5405 23.673 37.1029 23.4645 36.5539 23.4645C36.0008 23.4645 35.5609 23.673 35.2348 24.0901C34.9081 24.5028 34.745 25.0695 34.745 25.7904C34.745 26.5067 34.9081 27.0712 35.2348 27.4838C35.5609 27.8964 36.0008 28.1027 36.5539 28.1027ZM45.1163 22.1927V23.5733H43.6544V29.3744H41.9337V23.5733H40.6413V22.1927H41.9337V21.1454C41.9337 20.5287 42.1194 20.0572 42.4914 19.7308C42.8675 19.4043 43.4095 19.2411 44.1169 19.2411H45.1163V20.6217H44.457C44.1622 20.6217 43.9533 20.6829 43.8308 20.8053C43.713 20.9277 43.6544 21.1363 43.6544 21.431V22.1927H45.1163ZM46.1569 29.3744V22.1927H47.8706V29.3744H46.1569ZM47.014 21.125C46.7192 21.125 46.4743 21.032 46.2793 20.8461C46.0843 20.6557 45.9868 20.4222 45.9868 20.1457C45.9868 19.8691 46.0843 19.6379 46.2793 19.4519C46.4743 19.266 46.7192 19.1731 47.014 19.1731C47.3042 19.1731 47.5468 19.266 47.7418 19.4519C47.9368 19.6379 48.0343 19.8691 48.0343 20.1457C48.0343 20.4222 47.9368 20.6557 47.7418 20.8461C47.5468 21.032 47.3042 21.125 47.014 21.125ZM51.1078 19.2411V29.3744H49.394V19.2411H51.1078ZM55.8004 29.5376C55.0843 29.5376 54.4633 29.3767 53.9369 29.0548C53.4111 28.7329 53.0055 28.2908 52.72 27.7287C52.4385 27.1619 52.298 26.5158 52.298 25.7904C52.298 25.0604 52.4431 24.4143 52.7333 23.8521C53.0281 23.2854 53.4338 22.8411 53.9509 22.5191C54.4679 22.1927 55.0616 22.0295 55.7325 22.0295C56.422 22.0295 57.0249 22.1882 57.5414 22.5056C58.0585 22.8229 58.4596 23.2627 58.7457 23.8249C59.0312 24.3826 59.174 25.0287 59.174 25.7631V26.2324H53.9781C54.0008 26.8173 54.1731 27.2888 54.4946 27.647C54.8167 28.0052 55.2653 28.1843 55.8416 28.1843C56.2722 28.1843 56.628 28.0914 56.9095 27.9055C57.1903 27.715 57.3807 27.4656 57.4805 27.1574H59.0857C58.9946 27.6244 58.7956 28.0369 58.4868 28.3951C58.1833 28.7533 57.8003 29.0344 57.3377 29.2384C56.8752 29.4379 56.3628 29.5376 55.8004 29.5376ZM53.9915 25.0491H57.5281C57.4735 24.5368 57.2878 24.1333 56.9704 23.8385C56.6576 23.5393 56.2542 23.3897 55.7598 23.3897C55.2613 23.3897 54.855 23.5393 54.5422 23.8385C54.2341 24.1333 54.0507 24.5368 53.9915 25.0491ZM67.2465 29.5376C65.9907 29.5376 65.007 29.2316 64.2949 28.6195C63.5875 28.0029 63.234 27.1528 63.234 26.0692H64.9954C65.0047 26.6813 65.206 27.1596 65.6007 27.5042C66 27.8488 66.553 28.0211 67.2599 28.0211C67.8901 28.0211 68.3979 27.8896 68.7833 27.6266C69.1692 27.3591 69.3619 27.0032 69.3619 26.5589C69.3619 26.2007 69.2168 25.9105 68.9266 25.6883C68.6365 25.4617 68.1536 25.2712 67.4775 25.1171L66.3894 24.8723C65.3784 24.6411 64.6327 24.2987 64.1521 23.8453C63.6716 23.3919 63.4313 22.8093 63.4313 22.0975C63.4313 21.4945 63.5851 20.9663 63.8939 20.5129C64.2067 20.0595 64.6419 19.7081 65.1996 19.4588C65.7614 19.2049 66.4143 19.0779 67.1583 19.0779C68.2917 19.0779 69.1895 19.3658 69.8511 19.9416C70.5179 20.5174 70.8644 21.3086 70.8917 22.3151H69.1849C69.1483 21.7801 68.9493 21.3607 68.5865 21.057C68.2238 20.7532 67.745 20.6013 67.1513 20.6013C66.589 20.6013 66.1288 20.7328 65.7707 20.9957C65.4126 21.2587 65.2333 21.5965 65.2333 22.0091C65.2333 22.3491 65.3738 22.6257 65.6552 22.8388C65.9408 23.0474 66.4143 23.2264 67.0765 23.3761L68.1037 23.6141C69.1553 23.8453 69.926 24.1899 70.4158 24.6478C70.9056 25.1057 71.1505 25.7065 71.1505 26.45C71.1505 27.0803 70.9915 27.6266 70.674 28.0891C70.3566 28.5515 69.9057 28.9097 69.3207 29.1636C68.7357 29.413 68.0445 29.5376 67.2465 29.5376ZM75.5774 29.5376C74.8612 29.5376 74.2402 29.3767 73.7145 29.0548C73.1881 28.7329 72.7824 28.2908 72.4969 27.7287C72.216 27.1619 72.075 26.5158 72.075 25.7904C72.075 25.0604 72.2201 24.4143 72.5102 23.8521C72.805 23.2854 73.2107 22.8411 73.7278 22.5191C74.2449 22.1927 74.8386 22.0295 75.5095 22.0295C76.1989 22.0295 76.8019 22.1882 77.3184 22.5056C77.8355 22.8229 78.2371 23.2627 78.5226 23.8249C78.8081 24.3826 78.9509 25.0287 78.9509 25.7631V26.2324H73.7551C73.7777 26.8173 73.9501 27.2888 74.2716 27.647C74.5937 28.0052 75.0429 28.1843 75.6186 28.1843C76.0492 28.1843 76.4049 28.0914 76.6864 27.9055C76.9673 27.715 77.1576 27.4656 77.2574 27.1574H78.8627C78.7716 27.6244 78.5725 28.0369 78.2638 28.3951C77.9602 28.7533 77.5772 29.0344 77.1147 29.2384C76.6521 29.4379 76.1397 29.5376 75.5774 29.5376ZM73.7684 25.0491H77.305C77.2505 24.5368 77.0648 24.1333 76.7473 23.8385C76.4345 23.5393 76.0312 23.3897 75.5367 23.3897C75.0382 23.3897 74.6326 23.5393 74.3198 23.8385C74.011 24.1333 73.8276 24.5368 73.7684 25.0491ZM83.9088 22.1927V23.5733H82.4463V27.3138C82.4463 27.5722 82.4985 27.7513 82.603 27.851C82.7075 27.9463 82.8978 27.9939 83.174 27.9939H83.9088V29.3744H82.8752C82.1451 29.3744 81.6031 29.2271 81.2496 28.9324C80.9003 28.6377 80.7262 28.182 80.7262 27.5654V23.5733H79.4744V22.1927H80.7262V20.234H82.4463V22.1927H83.9088ZM88.2207 22.1927V23.5733H86.7582V27.3138C86.7582 27.5722 86.8105 27.7513 86.9149 27.851C87.0188 27.9463 87.2092 27.9939 87.486 27.9939H88.2207V29.3744H87.1865C86.457 29.3744 85.915 29.2271 85.5616 28.9324C85.2122 28.6377 85.0375 28.182 85.0375 27.5654V23.5733H83.7863V22.1927H85.0375V20.234H86.7582V22.1927H88.2207ZM89.3019 29.3744V22.1927H91.0156V29.3744H89.3019ZM90.1591 21.125C89.8642 21.125 89.6193 21.032 89.4243 20.8461C89.2293 20.6557 89.1319 20.4222 89.1319 20.1457C89.1319 19.8691 89.2293 19.6379 89.4243 19.4519C89.6193 19.266 89.8642 19.1731 90.1591 19.1731C90.4492 19.1731 90.6912 19.266 90.8862 19.4519C91.0812 19.6379 91.1787 19.8691 91.1787 20.1457C91.1787 20.4222 91.0812 20.6557 90.8862 20.8461C90.6912 21.032 90.4492 21.125 90.1591 21.125ZM94.2528 25.3143V29.3744H92.539V22.1927H94.2255V23.2944C94.7246 22.4648 95.4588 22.0499 96.4291 22.0499C97.1818 22.0499 97.7964 22.2925 98.2723 22.7776C98.7528 23.2627 98.993 23.9655 98.993 24.8858V29.3744H97.2723V25.1579C97.2723 24.6319 97.1458 24.233 96.8916 23.9609C96.638 23.6889 96.2817 23.5529 95.8238 23.5529C95.3752 23.5529 95.0009 23.6934 94.702 23.9745C94.4025 24.2556 94.2528 24.7022 94.2528 25.3143ZM103.781 32.3124C102.833 32.3124 102.08 32.1084 101.523 31.7003C100.966 31.2923 100.639 30.7392 100.544 30.0409H102.224C102.305 30.3492 102.484 30.5827 102.761 30.7414C103.037 30.9046 103.378 30.9862 103.781 30.9862C104.316 30.9862 104.731 30.8411 105.026 30.551C105.325 30.2608 105.474 29.8414 105.474 29.2928V28.1979H105.467C105.236 28.6195 104.935 28.9301 104.563 29.1296C104.191 29.3246 103.77 29.422 103.298 29.422C102.672 29.422 102.126 29.2656 101.659 28.9528C101.192 28.64 100.829 28.2092 100.571 27.6606C100.317 27.1075 100.19 26.4705 100.19 25.7496C100.19 25.0241 100.319 24.3826 100.578 23.8249C100.836 23.2673 101.199 22.832 101.666 22.5191C102.133 22.2063 102.672 22.0499 103.285 22.0499C103.751 22.0499 104.173 22.1496 104.549 22.3491C104.931 22.5441 105.239 22.8478 105.474 23.2604H105.481V22.1927H107.175V29.1908C107.175 29.9298 107.027 30.5283 106.733 30.9862C106.438 31.4487 106.034 31.7842 105.522 31.9928C105.009 32.2059 104.429 32.3124 103.781 32.3124ZM103.7 28.0074C104.261 28.0074 104.711 27.8012 105.046 27.3886C105.386 26.9715 105.556 26.4183 105.556 25.7292C105.556 25.04 105.386 24.4891 105.046 24.0766C104.711 23.6594 104.261 23.4509 103.7 23.4509C103.169 23.4509 102.74 23.6481 102.414 24.0425C102.087 24.437 101.924 24.9992 101.924 25.7292C101.924 26.4637 102.087 27.0281 102.414 27.4226C102.74 27.8125 103.169 28.0074 103.7 28.0074ZM111.513 29.5445C110.639 29.5445 109.906 29.3404 109.317 28.9324C108.732 28.5198 108.413 27.9281 108.358 27.1574H110.051C110.087 27.5064 110.228 27.7785 110.473 27.9734C110.718 28.1639 111.055 28.2591 111.487 28.2591C111.899 28.2591 112.223 28.1775 112.459 28.0142C112.699 27.851 112.819 27.6425 112.819 27.3886C112.819 27.1709 112.731 26.9964 112.554 26.8649C112.377 26.7334 112.139 26.6359 111.84 26.5725L110.616 26.3209C109.219 26.0307 108.521 25.3393 108.521 24.2466C108.521 23.5846 108.784 23.0519 109.31 22.6484C109.836 22.2403 110.537 22.0363 111.412 22.0363C112.282 22.0363 112.989 22.2517 113.534 22.6824C114.082 23.1085 114.365 23.6911 114.384 24.4302H112.772C112.763 24.1083 112.638 23.8431 112.398 23.6345C112.158 23.4259 111.842 23.3216 111.452 23.3216C111.076 23.3216 110.779 23.4055 110.562 23.5733C110.344 23.7411 110.235 23.9473 110.235 24.1922C110.235 24.4053 110.319 24.5798 110.487 24.7159C110.654 24.8473 110.888 24.9471 111.187 25.0151L112.479 25.2803C113.191 25.4299 113.715 25.6657 114.05 25.9876C114.39 26.3095 114.56 26.7334 114.56 27.2594C114.56 27.7264 114.429 28.1322 114.166 28.4767C113.907 28.8168 113.549 29.0797 113.091 29.2656C112.633 29.4515 112.108 29.5445 111.513 29.5445Z" fill="black"/>
<path d="M201.186 20.5242L193.932 27.7785" stroke="black" stroke-width="0.580343" stroke-linecap="round" stroke-linejoin="round"/>
<path d="M193.932 20.5242L201.186 27.7785" stroke="black" stroke-width="0.580343" stroke-linecap="round" stroke-linejoin="round"/>
<path d="M24.5736 44.4632H23.8581C23.8158 44.2572 23.7417 44.0767 23.6359 43.9206C23.532 43.7651 23.405 43.6339 23.255 43.5283C23.1069 43.4209 22.9425 43.3397 22.7617 43.2863C22.5808 43.2323 22.3923 43.205 22.1961 43.205C21.8384 43.205 21.5143 43.2956 21.2238 43.4766C20.9353 43.6571 20.7055 43.9235 20.5343 44.2758C20.365 44.6274 20.2804 45.0592 20.2804 45.5711C20.2804 46.0829 20.365 46.5147 20.5343 46.8664C20.7055 47.2187 20.9353 47.4851 21.2238 47.6655C21.5143 47.8466 21.8384 47.9371 22.1961 47.9371C22.3923 47.9371 22.5808 47.9099 22.7617 47.8565C22.9425 47.8025 23.1069 47.7224 23.255 47.6168C23.405 47.5088 23.532 47.3771 23.6359 47.2216C23.7417 47.0637 23.8158 46.8832 23.8581 46.679H24.5736C24.5197 46.9813 24.4216 47.2512 24.2793 47.4897C24.137 47.7282 23.96 47.9313 23.7484 48.0985C23.5368 48.2639 23.2993 48.3898 23.0358 48.4763C22.7741 48.5633 22.4943 48.6063 22.1961 48.6063C21.6922 48.6063 21.244 48.4832 20.8516 48.2372C20.4592 47.9911 20.1505 47.6406 19.9255 47.1868C19.7004 46.7329 19.5879 46.1944 19.5879 45.5711C19.5879 44.9478 19.7004 44.4092 19.9255 43.9554C20.1505 43.5016 20.4592 43.1516 20.8516 42.905C21.244 42.6589 21.6922 42.5359 22.1961 42.5359C22.4943 42.5359 22.7741 42.5794 23.0358 42.6659C23.2993 42.7524 23.5368 42.8795 23.7484 43.0466C23.96 43.212 24.137 43.4139 24.2793 43.6525C24.4216 43.8892 24.5197 44.1591 24.5736 44.4632ZM26.3184 45.8595V48.5256H25.6375V42.6166H26.3184V44.7865H26.3761C26.48 44.5572 26.6358 44.3756 26.8435 44.2409C27.0532 44.1046 27.3321 44.0361 27.6803 44.0361C27.9823 44.0361 28.2467 44.097 28.4737 44.2177C28.7007 44.3373 28.8767 44.5207 29.0017 44.769C29.1286 45.0151 29.1921 45.3285 29.1921 45.7098V48.5256H28.5112V45.7556C28.5112 45.4039 28.4198 45.1318 28.2371 44.9391C28.0563 44.7453 27.8053 44.6478 27.484 44.6478C27.261 44.6478 27.0609 44.6948 26.8839 44.7894C26.7089 44.8834 26.5704 45.0209 26.4684 45.202C26.3684 45.3825 26.3184 45.6018 26.3184 45.8595ZM31.742 48.6295C31.4611 48.6295 31.2062 48.5767 30.9774 48.4711C30.7485 48.3631 30.5667 48.2082 30.4321 48.0062C30.2974 47.8025 30.2301 47.5564 30.2301 47.2674C30.2301 47.0138 30.2801 46.8078 30.3801 46.6499C30.4801 46.4903 30.6138 46.3656 30.7811 46.275C30.9485 46.1845 31.1331 46.1172 31.3351 46.0731C31.539 46.0272 31.7439 45.9907 31.9497 45.9634C32.2189 45.9292 32.4372 45.903 32.6049 45.8856C32.7738 45.8665 32.8968 45.8346 32.974 45.7905C33.0529 45.7463 33.0924 45.6692 33.0924 45.5595V45.5363C33.0924 45.2519 33.0146 45.0308 32.8585 44.8729C32.7047 44.7151 32.4708 44.6361 32.1574 44.6361C31.8323 44.6361 31.5775 44.7075 31.3928 44.8497C31.2082 44.9919 31.0783 45.144 31.0033 45.3059L30.357 45.0749C30.4725 44.8056 30.6263 44.5961 30.8186 44.4458C31.0129 44.2937 31.2245 44.1881 31.4534 44.1283C31.6842 44.0668 31.9114 44.0361 32.1342 44.0361C32.2764 44.0361 32.4401 44.0535 32.6246 44.0883C32.8115 44.1208 32.9914 44.1893 33.1643 44.2932C33.3396 44.397 33.4847 44.5537 33.6002 44.7632C33.7157 44.9727 33.7731 45.2536 33.7731 45.6059V48.5256H33.0924V47.9255H33.0575C33.0117 48.0219 32.9345 48.1246 32.8266 48.2343C32.7192 48.344 32.5759 48.4374 32.3971 48.514C32.2178 48.5912 31.9996 48.6295 31.742 48.6295ZM31.8458 48.0178C32.1151 48.0178 32.342 47.965 32.5265 47.8594C32.7134 47.7532 32.8538 47.6168 32.9479 47.4497C33.0442 47.2819 33.0924 47.1061 33.0924 46.9215V46.2983C33.0633 46.3331 33.0001 46.3644 32.902 46.3934C32.8057 46.4201 32.6942 46.4445 32.5672 46.4654C32.4418 46.4845 32.3199 46.502 32.201 46.5176C32.0831 46.531 31.988 46.5426 31.9148 46.5519C31.7381 46.5751 31.5727 46.6128 31.4188 46.6644C31.2668 46.7144 31.1437 46.7904 31.0495 46.8925C30.9572 46.9923 30.911 47.1293 30.911 47.3022C30.911 47.539 30.9985 47.7178 31.1736 47.8391C31.3505 47.958 31.5746 48.0178 31.8458 48.0178ZM35.6969 45.8595V48.5256H35.0162V44.0941H35.6737V44.7865H35.7318C35.8351 44.5613 35.9929 44.3802 36.2047 44.2438C36.416 44.1057 36.6893 44.0361 37.0242 44.0361C37.3242 44.0361 37.5865 44.0976 37.8117 44.2206C38.0369 44.3419 38.2116 44.5265 38.3369 44.7749C38.4617 45.0209 38.5244 45.3326 38.5244 45.7098V48.5256H37.8436V45.7556C37.8436 45.4074 37.7531 45.1364 37.572 44.942C37.3915 44.7458 37.1432 44.6478 36.828 44.6478C36.6104 44.6478 36.416 44.6948 36.2448 44.7894C36.0759 44.8834 35.9418 45.0209 35.8438 45.202C35.7457 45.3825 35.6969 45.6018 35.6969 45.8595ZM41.5573 50.28C41.2288 50.28 40.9456 50.2376 40.7094 50.1529C40.4726 50.0699 40.2753 49.9608 40.118 49.8238C39.9619 49.6892 39.8377 49.5453 39.7454 49.3909L40.288 49.0102C40.3496 49.0909 40.4273 49.1837 40.5219 49.287C40.6159 49.3932 40.7448 49.4843 40.9084 49.5615C41.0738 49.6405 41.2903 49.6799 41.5573 49.6799C41.9153 49.6799 42.2107 49.5929 42.4434 49.4199C42.6762 49.247 42.7922 48.976 42.7922 48.6063V47.7062H42.7348C42.6849 47.7868 42.6135 47.8872 42.5212 48.0062C42.4307 48.1234 42.3001 48.2285 42.1289 48.3208C41.9594 48.4113 41.7308 48.4565 41.4423 48.4565C41.0843 48.4565 40.7633 48.3718 40.4784 48.2024C40.1958 48.0335 39.9718 47.7868 39.8064 47.4636C39.6427 47.1409 39.5609 46.748 39.5609 46.2866C39.5609 45.8328 39.641 45.4376 39.8006 45.101C39.9601 44.7621 40.1824 44.5009 40.4668 44.3158C40.7517 44.1295 41.0802 44.0361 41.4534 44.0361C41.7424 44.0361 41.971 44.0842 42.1405 44.1806C42.3117 44.2746 42.4423 44.3825 42.5328 44.5038C42.6251 44.6228 42.6965 44.7209 42.7464 44.7981H42.8154V44.0941H43.4735V48.6527C43.4735 49.0334 43.3865 49.3433 43.2135 49.5818C43.0423 49.8221 42.8114 49.9979 42.5212 50.1094C42.2328 50.2231 41.9113 50.28 41.5573 50.28ZM41.5346 47.8449C41.8074 47.8449 42.0384 47.7822 42.227 47.6574C42.4156 47.5321 42.5589 47.3522 42.657 47.1177C42.7551 46.8832 42.8038 46.6024 42.8038 46.275C42.8038 45.9559 42.7557 45.6738 42.6599 45.4295C42.5636 45.1857 42.4214 44.9942 42.2328 44.8555C42.0442 44.7168 41.8114 44.6478 41.5346 44.6478C41.2456 44.6478 41.0053 44.7209 40.8132 44.8671C40.6229 45.0134 40.4796 45.2095 40.3832 45.4556C40.2892 45.7017 40.2416 45.975 40.2416 46.275C40.2416 46.5826 40.2898 46.8548 40.3861 47.0916C40.4842 47.326 40.6287 47.5112 40.8191 47.6458C41.0111 47.7781 41.2497 47.8449 41.5346 47.8449ZM46.5778 48.6179C46.1507 48.6179 45.7822 48.5239 45.4728 48.3353C45.1652 48.1449 44.9273 47.8791 44.7602 47.539C44.5948 47.1966 44.5118 46.7985 44.5118 46.3441C44.5118 45.8903 44.5948 45.4904 44.7602 45.1439C44.9273 44.7957 45.16 44.5247 45.4583 44.3303C45.7584 44.1342 46.1083 44.0361 46.5087 44.0361C46.7391 44.0361 46.9672 44.0744 47.1924 44.1516C47.4176 44.2287 47.6224 44.3535 47.807 44.5265C47.9915 44.6977 48.1389 44.9246 48.2486 45.2078C48.3577 45.4904 48.4128 45.8386 48.4128 46.2518V46.5408H44.9969V45.9518H47.7205C47.7205 45.7017 47.6706 45.4788 47.5702 45.2827C47.4721 45.0865 47.3317 44.9315 47.1489 44.8184C46.9684 44.7046 46.7548 44.6478 46.5087 44.6478C46.2371 44.6478 46.0027 44.7151 45.8048 44.8497C45.6086 44.9826 45.4572 45.1556 45.3515 45.3691C45.2459 45.5827 45.1931 45.8113 45.1931 46.0557V46.448C45.1931 46.7828 45.2506 47.0666 45.366 47.2993C45.4833 47.5303 45.6458 47.7062 45.8535 47.8275C46.0613 47.9464 46.3027 48.0062 46.5778 48.0062C46.7565 48.0062 46.9185 47.9812 47.0624 47.9313C47.2086 47.8791 47.3346 47.8025 47.4402 47.7004C47.5464 47.5965 47.6282 47.4676 47.6857 47.3139L48.3438 47.4984C48.2741 47.7218 48.1581 47.918 47.9944 48.0869C47.8308 48.2546 47.6288 48.3852 47.3885 48.4792C47.1483 48.572 46.8778 48.6179 46.5778 48.6179ZM56.5115 42.6166V48.5256H55.8192L52.5994 43.8863H52.5414V48.5256H51.8258V42.6166H52.5182L55.7501 47.2674H55.8076V42.6166H56.5115ZM59.7092 48.6179C59.2821 48.6179 58.9136 48.5239 58.6043 48.3353C58.2967 48.1449 58.0587 47.8791 57.8916 47.539C57.7262 47.1966 57.6432 46.7985 57.6432 46.3441C57.6432 45.8903 57.7262 45.4904 57.8916 45.1439C58.0587 44.7957 58.2914 44.5247 58.5897 44.3303C58.8898 44.1342 59.2397 44.0361 59.6402 44.0361C59.8706 44.0361 60.0986 44.0744 60.3238 44.1516C60.549 44.2287 60.7538 44.3535 60.9384 44.5265C61.1229 44.6977 61.2703 44.9246 61.3795 45.2078C61.4891 45.4904 61.5443 45.8386 61.5443 46.2518V46.5408H58.1278V45.9518H60.8519C60.8519 45.7017 60.802 45.4788 60.7016 45.2827C60.6035 45.0865 60.4631 44.9315 60.2803 44.8184C60.0998 44.7046 59.8862 44.6478 59.6402 44.6478C59.3686 44.6478 59.1341 44.7151 58.9362 44.8497C58.7395 44.9826 58.5886 45.1556 58.483 45.3691C58.3773 45.5827 58.3245 45.8113 58.3245 46.0557V46.448C58.3245 46.7828 58.382 47.0666 58.4975 47.2993C58.6147 47.5303 58.7772 47.7062 58.985 47.8275C59.1927 47.9464 59.4341 48.0062 59.7092 48.0062C59.888 48.0062 60.0499 47.9812 60.1938 47.9313C60.3401 47.8791 60.466 47.8025 60.5716 47.7004C60.6778 47.5965 60.7597 47.4676 60.8171 47.3139L61.4752 47.4984C61.4056 47.7218 61.2895 47.918 61.1258 48.0869C60.9622 48.2546 60.7602 48.3852 60.52 48.4792C60.2797 48.572 60.0093 48.6179 59.7092 48.6179ZM63.5842 48.5256L62.2337 44.0941H62.9493L63.9074 47.4868H63.9533L64.8998 44.0941H65.627L66.5613 47.4752H66.6078L67.5659 44.0941H68.2815L66.931 48.5256H66.2613L65.2921 45.1213H65.2231L64.2533 48.5256H63.5842ZM71.5587 48.5256V42.6166H73.5556C74.0188 42.6166 74.3977 42.7001 74.6919 42.8678C74.9885 43.0332 75.2079 43.2573 75.3501 43.5399C75.4922 43.8225 75.5636 44.1382 75.5636 44.4864C75.5636 44.8346 75.4922 45.1509 75.3501 45.4353C75.2096 45.7202 74.992 45.9471 74.6978 46.1166C74.4035 46.2837 74.0269 46.3673 73.5667 46.3673H72.1361V45.733H73.544C73.8615 45.733 74.1162 45.6779 74.3083 45.5682C74.501 45.4585 74.6403 45.3105 74.7268 45.1236C74.8156 44.9356 74.8597 44.7226 74.8597 44.4864C74.8597 44.2496 74.8156 44.0384 74.7268 43.8515C74.6403 43.6652 74.4999 43.519 74.3054 43.4128C74.111 43.3054 73.8533 43.2515 73.5324 43.2515H72.2742V48.5256H71.5587ZM77.9279 48.6295C77.6471 48.6295 77.3923 48.5767 77.1636 48.4711C76.9344 48.3631 76.7527 48.2082 76.6181 48.0062C76.4835 47.8025 76.4161 47.5564 76.4161 47.2674C76.4161 47.0138 76.4661 46.8078 76.5659 46.6499C76.6663 46.4903 76.7998 46.3656 76.9669 46.275C77.1346 46.1845 77.3192 46.1172 77.5211 46.0731C77.7248 46.0272 77.9297 45.9907 78.1357 45.9634C78.405 45.9292 78.6232 45.903 78.7909 45.8856C78.9598 45.8665 79.0828 45.8346 79.16 45.7905C79.2389 45.7463 79.2784 45.6692 79.2784 45.5595V45.5363C79.2784 45.2519 79.2006 45.0308 79.0445 44.8729C78.8907 44.7151 78.6569 44.6361 78.3435 44.6361C78.0185 44.6361 77.7637 44.7075 77.5786 44.8497C77.394 44.9919 77.2646 45.144 77.1892 45.3059L76.5432 45.0749C76.6587 44.8056 76.8125 44.5961 77.0046 44.4458C77.199 44.2937 77.4103 44.1881 77.6395 44.1283C77.8705 44.0668 78.0974 44.0361 78.3203 44.0361C78.4624 44.0361 78.6261 44.0535 78.8106 44.0883C78.9975 44.1208 79.1774 44.1893 79.3504 44.2932C79.5256 44.397 79.6707 44.5537 79.7862 44.7632C79.9017 44.9727 79.9591 45.2536 79.9591 45.6059V48.5256H79.2784V47.9255H79.2436C79.1977 48.0219 79.1205 48.1246 79.0126 48.2343C78.9052 48.344 78.7619 48.4374 78.5831 48.514C78.4038 48.5912 78.1856 48.6295 77.9279 48.6295ZM78.0318 48.0178C78.3011 48.0178 78.528 47.965 78.7126 47.8594C78.8994 47.7532 79.0399 47.6168 79.1339 47.4497C79.2302 47.2819 79.2784 47.1061 79.2784 46.9215V46.2983C79.2494 46.3331 79.1861 46.3644 79.088 46.3934C78.9917 46.4201 78.8803 46.4445 78.7532 46.4654C78.6278 46.4845 78.506 46.502 78.387 46.5176C78.2692 46.531 78.174 46.5426 78.1009 46.5519C77.9239 46.5751 77.7585 46.6128 77.6047 46.6644C77.4526 46.7144 77.3296 46.7904 77.2356 46.8925C77.1433 46.9923 77.0969 47.1293 77.0969 47.3022C77.0969 47.539 77.1845 47.7178 77.3598 47.8391C77.5368 47.958 77.7608 48.0178 78.0318 48.0178ZM84.3413 45.0865L83.7296 45.2594C83.6907 45.1573 83.6345 45.0586 83.559 44.9623C83.4859 44.8642 83.3861 44.7836 83.259 44.7197C83.1325 44.6565 82.9694 44.6245 82.7715 44.6245C82.5005 44.6245 82.2741 44.6872 82.0936 44.8126C81.9149 44.9356 81.8249 45.0923 81.8249 45.2827C81.8249 45.4521 81.8865 45.5856 82.0101 45.6837C82.1331 45.7817 82.3252 45.8636 82.5869 45.9292L83.2445 46.0905C83.6408 46.1868 83.9362 46.3337 84.1307 46.5321C84.3245 46.7283 84.422 46.9813 84.422 47.2906C84.422 47.5448 84.3489 47.7717 84.2026 47.9714C84.0581 48.1716 83.8561 48.3295 83.5967 48.4449C83.3373 48.5604 83.035 48.6179 82.6908 48.6179C82.2387 48.6179 81.8644 48.5198 81.5684 48.3237C81.2725 48.1275 81.0844 47.8408 81.0055 47.4636L81.652 47.3022C81.7135 47.5408 81.8302 47.7195 82.0014 47.8391C82.1743 47.958 82.4001 48.0178 82.6792 48.0178C82.9967 48.0178 83.2485 47.9505 83.4354 47.8159C83.6234 47.6795 83.718 47.5158 83.718 47.3255C83.718 47.1717 83.6641 47.0428 83.5561 46.939C83.4487 46.8327 83.2834 46.7538 83.0599 46.7022L82.3217 46.5292C81.9155 46.4329 81.6172 46.2837 81.4268 46.0818C81.2388 45.8781 81.1442 45.6233 81.1442 45.3175C81.1442 45.0673 81.2144 44.8462 81.3549 44.6536C81.4971 44.4615 81.6903 44.3106 81.9346 44.2009C82.1813 44.0912 82.4598 44.0361 82.7715 44.0361C83.2102 44.0361 83.5544 44.1324 83.8045 44.3245C84.0564 44.5172 84.2351 44.7708 84.3413 45.0865ZM88.5859 45.0865L87.9743 45.2594C87.936 45.1573 87.8791 45.0586 87.8042 44.9623C87.7311 44.8642 87.6307 44.7836 87.5042 44.7197C87.3771 44.6565 87.2146 44.6245 87.0167 44.6245C86.7451 44.6245 86.5193 44.6872 86.3383 44.8126C86.1595 44.9356 86.0702 45.0923 86.0702 45.2827C86.0702 45.4521 86.1317 45.5856 86.2547 45.6837C86.3777 45.7817 86.5704 45.8636 86.8316 45.9292L87.4897 46.0905C87.886 46.1868 88.1809 46.3337 88.3753 46.5321C88.5697 46.7283 88.6666 46.9813 88.6666 47.2906C88.6666 47.5448 88.5935 47.7717 88.4473 47.9714C88.3033 48.1716 88.1014 48.3295 87.8414 48.4449C87.582 48.5604 87.2802 48.6179 86.9354 48.6179C86.4834 48.6179 86.1096 48.5198 85.8131 48.3237C85.5171 48.1275 85.3296 47.8408 85.2507 47.4636L85.8972 47.3022C85.9587 47.5408 86.0748 47.7195 86.246 47.8391C86.4189 47.958 86.6453 48.0178 86.9238 48.0178C87.2413 48.0178 87.4937 47.9505 87.68 47.8159C87.8686 47.6795 87.9627 47.5158 87.9627 47.3255C87.9627 47.1717 87.9087 47.0428 87.8013 46.939C87.6934 46.8327 87.528 46.7538 87.3051 46.7022L86.5663 46.5292C86.1607 46.4329 85.8624 46.2837 85.672 46.0818C85.4834 45.8781 85.3894 45.6233 85.3894 45.3175C85.3894 45.0673 85.4596 44.8462 85.5995 44.6536C85.7423 44.4615 85.9355 44.3106 86.1798 44.2009C86.4259 44.0912 86.705 44.0361 87.0167 44.0361C87.4549 44.0361 87.7996 44.1324 88.0491 44.3245C88.3016 44.5172 88.4803 44.7708 88.5859 45.0865ZM90.6961 48.5256L89.3456 44.0941H90.0612L91.0187 47.4868H91.0652L92.0117 44.0941H92.7383L93.6732 47.4752H93.7197L94.6772 44.0941H95.3928L94.0429 48.5256H93.3732L92.404 45.1213H92.3344L91.3652 48.5256H90.6961ZM97.9428 48.6179C97.543 48.6179 97.1919 48.5227 96.8895 48.3324C96.5895 48.142 96.355 47.8756 96.1855 47.5332C96.0184 47.1908 95.9348 46.7904 95.9348 46.3331C95.9348 45.8711 96.0184 45.4684 96.1855 45.1236C96.355 44.7795 96.5895 44.5125 96.8895 44.3216C97.1919 44.1312 97.543 44.0361 97.9428 44.0361C98.3427 44.0361 98.6932 44.1312 98.9932 44.3216C99.295 44.5125 99.5295 44.7795 99.6972 45.1236C99.8661 45.4684 99.9508 45.8711 99.9508 46.3331C99.9508 46.7904 99.8661 47.1908 99.6972 47.5332C99.5295 47.8756 99.295 48.142 98.9932 48.3324C98.6932 48.5227 98.3427 48.6179 97.9428 48.6179ZM97.9428 48.0062C98.2469 48.0062 98.497 47.9284 98.6932 47.7723C98.8894 47.6168 99.0344 47.4119 99.1285 47.1577C99.2231 46.9041 99.2701 46.629 99.2701 46.3331C99.2701 46.0365 99.2231 45.7609 99.1285 45.5049C99.0344 45.249 98.8894 45.0424 98.6932 44.8845C98.497 44.7267 98.2469 44.6478 97.9428 44.6478C97.6387 44.6478 97.3886 44.7267 97.1924 44.8845C96.9963 45.0424 96.8512 45.249 96.7572 45.5049C96.6626 45.7609 96.6156 46.0365 96.6156 46.3331C96.6156 46.629 96.6626 46.9041 96.7572 47.1577C96.8512 47.4119 96.9963 47.6168 97.1924 47.7723C97.3886 47.9284 97.6387 48.0062 97.9428 48.0062ZM100.99 48.5256V44.0941H101.648V44.7632H101.694C101.775 44.5439 101.921 44.3663 102.133 44.2293C102.345 44.0929 102.583 44.0245 102.848 44.0245C102.898 44.0245 102.961 44.0256 103.036 44.0274C103.111 44.0297 103.168 44.0326 103.206 44.0361V44.7284C103.183 44.7226 103.13 44.7145 103.048 44.7029C102.967 44.689 102.881 44.6826 102.79 44.6826C102.575 44.6826 102.383 44.7278 102.214 44.8184C102.046 44.9066 101.914 45.0296 101.815 45.1875C101.719 45.343 101.672 45.5212 101.672 45.7214V48.5256H100.99ZM105.552 48.6179C105.183 48.6179 104.856 48.5245 104.574 48.3382C104.291 48.1495 104.07 47.8843 103.91 47.5419C103.75 47.1972 103.671 46.7904 103.671 46.3215C103.671 45.856 103.75 45.4521 103.91 45.1097C104.07 44.7673 104.292 44.5027 104.577 44.3158C104.861 44.1295 105.19 44.0361 105.563 44.0361C105.852 44.0361 106.08 44.0842 106.247 44.1806C106.416 44.2746 106.545 44.3825 106.634 44.5038C106.724 44.6228 106.794 44.7209 106.845 44.7981H106.902V42.6166H107.583V48.5256H106.925V47.8449H106.845C106.794 47.9255 106.723 48.0277 106.631 48.1507C106.539 48.2714 106.407 48.3805 106.236 48.4763C106.065 48.5709 105.837 48.6179 105.552 48.6179ZM105.644 48.0062C105.917 48.0062 106.148 47.9348 106.337 47.7926C106.525 47.6487 106.668 47.4497 106.766 47.1955C106.864 46.9395 106.914 46.6447 106.914 46.3099C106.914 45.9791 106.866 45.6895 106.769 45.4411C106.674 45.191 106.531 44.9971 106.343 44.8584C106.154 44.718 105.921 44.6478 105.644 44.6478C105.356 44.6478 105.115 44.722 104.923 44.87C104.732 45.0163 104.589 45.2153 104.493 45.4672C104.399 45.7173 104.352 45.9982 104.352 46.3099C104.352 46.625 104.4 46.9117 104.496 47.1693C104.594 47.4253 104.738 47.629 104.928 47.781C105.121 47.9313 105.36 48.0062 105.644 48.0062Z" fill="black"/>
<path d="M19.1025 63.0344C19.1025 60.1495 21.441 57.8113 24.3256 57.8113H199.589C202.474 57.8113 204.812 60.1495 204.812 63.0344V80.4447C204.812 83.3295 202.474 85.6678 199.589 85.6678H24.3256C21.441 85.6678 19.1025 83.3295 19.1025 80.4447V63.0344Z" fill="#EEF2F1"/>
<path d="M30.2705 72.2651L30.3067 70.7283L28.9919 71.535L28.7471 71.0998L30.1027 70.3703L28.7471 69.6356L28.9919 69.2003L30.3067 70.0029L30.2705 68.4656H30.7647L30.7284 70.0029L32.0387 69.2003L32.2882 69.6356L30.9324 70.3703L32.2882 71.0998L32.0387 71.535L30.7284 70.7283L30.7647 72.2651H30.2705ZM34.5324 72.2651L34.5684 70.7283L33.2539 71.535L33.009 71.0998L34.3647 70.3703L33.009 69.6356L33.2539 69.2003L34.5684 70.0029L34.5324 68.4656H35.0268L34.9903 70.0029L36.3007 69.2003L36.5497 69.6356L35.1946 70.3703L36.5497 71.0998L36.3007 71.535L34.9903 70.7283L35.0268 72.2651H34.5324ZM38.7944 72.2651L38.8304 70.7283L37.5159 71.535L37.271 71.0998L38.6267 70.3703L37.271 69.6356L37.5159 69.2003L38.8304 70.0029L38.7944 68.4656H39.2883L39.2523 70.0029L40.5627 69.2003L40.8117 69.6356L39.456 70.3703L40.8117 71.0998L40.5627 71.535L39.2523 70.7283L39.2883 72.2651H38.7944ZM43.0559 72.2651L43.0925 70.7283L41.7774 71.535L41.5325 71.0998L42.8882 70.3703L41.5325 69.6356L41.7774 69.2003L43.0925 70.0029L43.0559 68.4656H43.5503L43.5138 70.0029L44.8242 69.2003L45.0737 69.6356L43.7181 70.3703L45.0737 71.0998L44.8242 71.535L43.5138 70.7283L43.5503 72.2651H43.0559ZM47.3179 72.2651L47.3545 70.7283L46.0394 71.535L45.7945 71.0998L47.1502 70.3703L45.7945 69.6356L46.0394 69.2003L47.3545 70.0029L47.3179 68.4656H47.8124L47.7758 70.0029L49.0862 69.2003L49.3358 69.6356L47.9801 70.3703L49.3358 71.0998L49.0862 71.535L47.7758 70.7283L47.8124 72.2651H47.3179ZM51.58 72.2651L51.616 70.7283L50.3015 71.535L50.0566 71.0998L51.4123 70.3703L50.0566 69.6356L50.3015 69.2003L51.616 70.0029L51.58 68.4656H52.0738L52.0379 70.0029L53.3483 69.2003L53.5978 69.6356L52.2421 70.3703L53.5978 71.0998L53.3483 71.535L52.0379 70.7283L52.0738 72.2651H51.58ZM55.842 72.2651L55.878 70.7283L54.5635 71.535L54.3186 71.0998L55.6743 70.3703L54.3186 69.6356L54.5635 69.2003L55.878 70.0029L55.842 68.4656H56.3359L56.2999 70.0029L57.6103 69.2003L57.8593 69.6356L56.5036 70.3703L57.8593 71.0998L57.6103 71.535L56.2999 70.7283L56.3359 72.2651H55.842ZM60.1035 72.2651L60.14 70.7283L58.825 71.535L58.5801 71.0998L59.9358 70.3703L58.5801 69.6356L58.825 69.2003L60.14 70.0029L60.1035 68.4656H60.5979L60.5619 70.0029L61.8718 69.2003L62.1213 69.6356L60.7656 70.3703L62.1213 71.0998L61.8718 71.535L60.5619 70.7283L60.5979 72.2651H60.1035ZM64.3655 72.2651L64.4021 70.7283L63.087 71.535L62.8421 71.0998L64.1978 70.3703L62.8421 69.6356L63.087 69.2003L64.4021 70.0029L64.3655 68.4656H64.86L64.8234 70.0029L66.1338 69.2003L66.3834 69.6356L65.0277 70.3703L66.3834 71.0998L66.1338 71.535L64.8234 70.7283L64.86 72.2651H64.3655ZM68.6276 72.2651L68.6635 70.7283L67.3491 71.535L67.1042 71.0998L68.4598 70.3703L67.1042 69.6356L67.3491 69.2003L68.6635 70.0029L68.6276 68.4656H69.122L69.0854 70.0029L70.3959 69.2003L70.6448 69.6356L69.2897 70.3703L70.6448 71.0998L70.3959 71.535L69.0854 70.7283L69.122 72.2651H68.6276ZM72.8896 72.2651L72.9256 70.7283L71.6111 71.535L71.3662 71.0998L72.7219 70.3703L71.3662 69.6356L71.6111 69.2003L72.9256 70.0029L72.8896 68.4656H73.3835L73.3475 70.0029L74.6579 69.2003L74.9069 69.6356L73.5512 70.3703L74.9069 71.0998L74.6579 71.535L73.3475 70.7283L73.3835 72.2651H72.8896ZM77.1511 72.2651L77.1876 70.7283L75.8726 71.535L75.6277 71.0998L76.9833 70.3703L75.6277 69.6356L75.8726 69.2003L77.1876 70.0029L77.1511 68.4656H77.6455L77.6089 70.0029L78.9194 69.2003L79.1689 69.6356L77.8132 70.3703L79.1689 71.0998L78.9194 71.535L77.6089 70.7283L77.6455 72.2651H77.1511ZM81.4131 72.2651L81.4497 70.7283L80.1346 71.535L79.8897 71.0998L81.2454 70.3703L79.8897 69.6356L80.1346 69.2003L81.4497 70.0029L81.4131 68.4656H81.9075L81.871 70.0029L83.1814 69.2003L83.4309 69.6356L82.0753 70.3703L83.4309 71.0998L83.1814 71.535L81.871 70.7283L81.9075 72.2651H81.4131ZM85.6751 72.2651L85.7111 70.7283L84.3966 71.535L84.1517 71.0998L85.5074 70.3703L84.1517 69.6356L84.3966 69.2003L85.7111 70.0029L85.6751 68.4656H86.169L86.133 70.0029L87.4434 69.2003L87.693 69.6356L86.3373 70.3703L87.693 71.0998L87.4434 71.535L86.133 70.7283L86.169 72.2651H85.6751ZM89.9372 72.2651L89.9732 70.7283L88.6587 71.535L88.4138 71.0998L89.7695 70.3703L88.4138 69.6356L88.6587 69.2003L89.9732 70.0029L89.9372 68.4656H90.4311L90.3951 70.0029L91.7055 69.2003L91.9545 69.6356L90.5988 70.3703L91.9545 71.0998L91.7055 71.535L90.3951 70.7283L90.4311 72.2651H89.9372ZM94.1986 72.2651L94.2352 70.7283L92.9201 71.535L92.6752 71.0998L94.0309 70.3703L92.6752 69.6356L92.9201 69.2003L94.2352 70.0029L94.1986 68.4656H94.6931L94.6571 70.0029L95.9669 69.2003L96.2165 69.6356L94.8608 70.3703L96.2165 71.0998L95.9669 71.535L94.6571 70.7283L94.6931 72.2651H94.1986ZM98.4607 72.2651L98.4972 70.7283L97.1822 71.535L96.9373 71.0998L98.293 70.3703L96.9373 69.6356L97.1822 69.2003L98.4972 70.0029L98.4607 68.4656H98.9551L98.9186 70.0029L100.229 69.2003L100.479 69.6356L99.1228 70.3703L100.479 71.0998L100.229 71.535L98.9186 70.7283L98.9551 72.2651H98.4607ZM102.723 72.2651L102.759 70.7283L101.444 71.535L101.199 71.0998L102.555 70.3703L101.199 69.6356L101.444 69.2003L102.759 70.0029L102.723 68.4656H103.217L103.181 70.0029L104.491 69.2003L104.74 69.6356L103.385 70.3703L104.74 71.0998L104.491 71.535L103.181 70.7283L103.217 72.2651H102.723Z" fill="#8B8E8C"/>
<path d="M185.625 69.7083C187.148 73.0092 191.719 73.0092 193.241 69.7083" stroke="#8B8E8C" stroke-width="0.580343" stroke-linecap="round" stroke-linejoin="round"/>
<path d="M191.88 71.3926L193.243 73.263" stroke="#8B8E8C" stroke-width="0.580343" stroke-linecap="round" stroke-linejoin="round"/>
<path d="M189.434 72.1841V74.0249" stroke="#8B8E8C" stroke-width="0.580343" stroke-linecap="round" stroke-linejoin="round"/>
<path d="M186.988 71.3926L185.625 73.263" stroke="#8B8E8C" stroke-width="0.580343" stroke-linecap="round" stroke-linejoin="round"/>
<path d="M24.5736 101.337H23.8581C23.8158 101.131 23.7417 100.95 23.6359 100.794C23.532 100.639 23.405 100.508 23.255 100.402C23.1069 100.295 22.9425 100.213 22.7617 100.16C22.5808 100.106 22.3923 100.079 22.1961 100.079C21.8384 100.079 21.5143 100.169 21.2238 100.35C20.9353 100.531 20.7055 100.797 20.5343 101.15C20.365 101.501 20.2804 101.933 20.2804 102.445C20.2804 102.957 20.365 103.389 20.5343 103.74C20.7055 104.092 20.9353 104.359 21.2238 104.539C21.5143 104.72 21.8384 104.811 22.1961 104.811C22.3923 104.811 22.5808 104.784 22.7617 104.73C22.9425 104.676 23.1069 104.596 23.255 104.491C23.405 104.383 23.532 104.251 23.6359 104.095C23.7417 103.938 23.8158 103.757 23.8581 103.553H24.5736C24.5197 103.855 24.4216 104.125 24.2793 104.363C24.137 104.602 23.96 104.805 23.7484 104.972C23.5368 105.138 23.2993 105.264 23.0358 105.35C22.7741 105.437 22.4943 105.48 22.1961 105.48C21.6922 105.48 21.244 105.357 20.8516 105.111C20.4592 104.865 20.1505 104.514 19.9255 104.061C19.7004 103.607 19.5879 103.068 19.5879 102.445C19.5879 101.822 19.7004 101.283 19.9255 100.829C20.1505 100.375 20.4592 100.025 20.8516 99.7788C21.244 99.5327 21.6922 99.4097 22.1961 99.4097C22.4943 99.4097 22.7741 99.4532 23.0358 99.5397C23.2993 99.6261 23.5368 99.7532 23.7484 99.9204C23.96 100.086 24.137 100.288 24.2793 100.526C24.4216 100.763 24.5197 101.033 24.5736 101.337ZM26.3184 102.733V105.399H25.6375V99.4903H26.3184V101.66H26.3761C26.48 101.431 26.6358 101.249 26.8435 101.115C27.0532 100.978 27.3321 100.91 27.6803 100.91C27.9823 100.91 28.2467 100.971 28.4737 101.091C28.7007 101.211 28.8767 101.394 29.0017 101.643C29.1286 101.889 29.1921 102.202 29.1921 102.584V105.399H28.5112V102.629C28.5112 102.278 28.4198 102.006 28.2371 101.813C28.0563 101.619 27.8053 101.522 27.484 101.522C27.261 101.522 27.0609 101.569 26.8839 101.663C26.7089 101.757 26.5704 101.895 26.4684 102.076C26.3684 102.256 26.3184 102.476 26.3184 102.733ZM31.742 105.503C31.4611 105.503 31.2062 105.45 30.9774 105.345C30.7485 105.237 30.5667 105.082 30.4321 104.88C30.2974 104.676 30.2301 104.43 30.2301 104.141C30.2301 103.888 30.2801 103.682 30.3801 103.524C30.4801 103.364 30.6138 103.239 30.7811 103.149C30.9485 103.058 31.1331 102.991 31.3351 102.947C31.539 102.901 31.7439 102.864 31.9497 102.837C32.2189 102.803 32.4372 102.777 32.6049 102.759C32.7738 102.74 32.8968 102.708 32.974 102.664C33.0529 102.62 33.0924 102.543 33.0924 102.433V102.41C33.0924 102.126 33.0146 101.905 32.8585 101.747C32.7047 101.589 32.4708 101.51 32.1574 101.51C31.8323 101.51 31.5775 101.581 31.3928 101.723C31.2082 101.866 31.0783 102.018 31.0033 102.18L30.357 101.949C30.4725 101.679 30.6263 101.47 30.8186 101.32C31.0129 101.168 31.2245 101.062 31.4534 101.002C31.6842 100.941 31.9114 100.91 32.1342 100.91C32.2764 100.91 32.4401 100.927 32.6246 100.962C32.8115 100.995 32.9914 101.063 33.1643 101.167C33.3396 101.271 33.4847 101.428 33.6002 101.637C33.7157 101.847 33.7731 102.127 33.7731 102.48V105.399H33.0924V104.799H33.0575C33.0117 104.896 32.9345 104.998 32.8266 105.108C32.7192 105.218 32.5759 105.311 32.3971 105.388C32.2178 105.465 31.9996 105.503 31.742 105.503ZM31.8458 104.892C32.1151 104.892 32.342 104.839 32.5265 104.733C32.7134 104.627 32.8538 104.491 32.9479 104.323C33.0442 104.156 33.0924 103.98 33.0924 103.795V103.172C33.0633 103.207 33.0001 103.238 32.902 103.267C32.8057 103.294 32.6942 103.318 32.5672 103.339C32.4418 103.358 32.3199 103.376 32.201 103.391C32.0831 103.405 31.988 103.416 31.9148 103.426C31.7381 103.449 31.5727 103.487 31.4188 103.538C31.2668 103.588 31.1437 103.664 31.0495 103.766C30.9572 103.866 30.911 104.003 30.911 104.176C30.911 104.413 30.9985 104.592 31.1736 104.713C31.3505 104.832 31.5746 104.892 31.8458 104.892ZM35.6969 102.733V105.399H35.0162V100.968H35.6737V101.66H35.7318C35.8351 101.435 35.9929 101.254 36.2047 101.118C36.416 100.979 36.6893 100.91 37.0242 100.91C37.3242 100.91 37.5865 100.971 37.8117 101.094C38.0369 101.216 38.2116 101.4 38.3369 101.649C38.4617 101.895 38.5244 102.206 38.5244 102.584V105.399H37.8436V102.629C37.8436 102.281 37.7531 102.01 37.572 101.816C37.3915 101.62 37.1432 101.522 36.828 101.522C36.6104 101.522 36.416 101.569 36.2448 101.663C36.0759 101.757 35.9418 101.895 35.8438 102.076C35.7457 102.256 35.6969 102.476 35.6969 102.733ZM41.5573 107.154C41.2288 107.154 40.9456 107.111 40.7094 107.027C40.4726 106.944 40.2753 106.835 40.118 106.698C39.9619 106.563 39.8377 106.419 39.7454 106.265L40.288 105.884C40.3496 105.965 40.4273 106.057 40.5219 106.161C40.6159 106.267 40.7448 106.358 40.9084 106.435C41.0738 106.514 41.2903 106.554 41.5573 106.554C41.9153 106.554 42.2107 106.467 42.4434 106.294C42.6762 106.121 42.7922 105.85 42.7922 105.48V104.58H42.7348C42.6849 104.661 42.6135 104.761 42.5212 104.88C42.4307 104.997 42.3001 105.102 42.1289 105.195C41.9594 105.285 41.7308 105.33 41.4423 105.33C41.0843 105.33 40.7633 105.246 40.4784 105.076C40.1958 104.907 39.9718 104.661 39.8064 104.337C39.6427 104.015 39.5609 103.622 39.5609 103.16C39.5609 102.707 39.641 102.311 39.8006 101.975C39.9601 101.636 40.1824 101.375 40.4668 101.19C40.7517 101.003 41.0802 100.91 41.4534 100.91C41.7424 100.91 41.971 100.958 42.1405 101.054C42.3117 101.148 42.4423 101.256 42.5328 101.378C42.6251 101.497 42.6965 101.595 42.7464 101.672H42.8154V100.968H43.4735V105.526C43.4735 105.907 43.3865 106.217 43.2135 106.456C43.0423 106.696 42.8114 106.872 42.5212 106.983C42.2328 107.097 41.9113 107.154 41.5573 107.154ZM41.5346 104.719C41.8074 104.719 42.0384 104.656 42.227 104.531C42.4156 104.406 42.5589 104.226 42.657 103.991C42.7551 103.757 42.8038 103.476 42.8038 103.149C42.8038 102.83 42.7557 102.548 42.6599 102.303C42.5636 102.06 42.4214 101.868 42.2328 101.729C42.0442 101.591 41.8114 101.522 41.5346 101.522C41.2456 101.522 41.0053 101.595 40.8132 101.741C40.6229 101.887 40.4796 102.083 40.3832 102.329C40.2892 102.575 40.2416 102.849 40.2416 103.149C40.2416 103.456 40.2898 103.729 40.3861 103.965C40.4842 104.2 40.6287 104.385 40.8191 104.52C41.0111 104.652 41.2497 104.719 41.5346 104.719ZM46.5778 105.492C46.1507 105.492 45.7822 105.398 45.4728 105.209C45.1652 105.019 44.9273 104.753 44.7602 104.413C44.5948 104.07 44.5118 103.672 44.5118 103.218C44.5118 102.764 44.5948 102.364 44.7602 102.018C44.9273 101.67 45.16 101.399 45.4583 101.204C45.7584 101.008 46.1083 100.91 46.5087 100.91C46.7391 100.91 46.9672 100.948 47.1924 101.025C47.4176 101.103 47.6224 101.227 47.807 101.4C47.9915 101.571 48.1389 101.798 48.2486 102.082C48.3577 102.364 48.4128 102.712 48.4128 103.126V103.415H44.9969V102.826H47.7205C47.7205 102.575 47.6706 102.353 47.5702 102.156C47.4721 101.96 47.3317 101.805 47.1489 101.692C46.9684 101.578 46.7548 101.522 46.5087 101.522C46.2371 101.522 46.0027 101.589 45.8048 101.723C45.6086 101.856 45.4572 102.029 45.3515 102.243C45.2459 102.456 45.1931 102.685 45.1931 102.929V103.322C45.1931 103.657 45.2506 103.94 45.366 104.173C45.4833 104.404 45.6458 104.58 45.8535 104.701C46.0613 104.82 46.3027 104.88 46.5778 104.88C46.7565 104.88 46.9185 104.855 47.0624 104.805C47.2086 104.753 47.3346 104.676 47.4402 104.574C47.5464 104.47 47.6282 104.341 47.6857 104.188L48.3438 104.372C48.2741 104.596 48.1581 104.792 47.9944 104.961C47.8308 105.128 47.6288 105.259 47.3885 105.353C47.1483 105.446 46.8778 105.492 46.5778 105.492ZM56.5115 99.4903V105.399H55.8192L52.5994 100.76H52.5414V105.399H51.8258V99.4903H52.5182L55.7501 104.141H55.8076V99.4903H56.5115ZM59.7092 105.492C59.2821 105.492 58.9136 105.398 58.6043 105.209C58.2967 105.019 58.0587 104.753 57.8916 104.413C57.7262 104.07 57.6432 103.672 57.6432 103.218C57.6432 102.764 57.7262 102.364 57.8916 102.018C58.0587 101.67 58.2914 101.399 58.5897 101.204C58.8898 101.008 59.2397 100.91 59.6402 100.91C59.8706 100.91 60.0986 100.948 60.3238 101.025C60.549 101.103 60.7538 101.227 60.9384 101.4C61.1229 101.571 61.2703 101.798 61.3795 102.082C61.4891 102.364 61.5443 102.712 61.5443 103.126V103.415H58.1278V102.826H60.8519C60.8519 102.575 60.802 102.353 60.7016 102.156C60.6035 101.96 60.4631 101.805 60.2803 101.692C60.0998 101.578 59.8862 101.522 59.6402 101.522C59.3686 101.522 59.1341 101.589 58.9362 101.723C58.7395 101.856 58.5886 102.029 58.483 102.243C58.3773 102.456 58.3245 102.685 58.3245 102.929V103.322C58.3245 103.657 58.382 103.94 58.4975 104.173C58.6147 104.404 58.7772 104.58 58.985 104.701C59.1927 104.82 59.4341 104.88 59.7092 104.88C59.888 104.88 60.0499 104.855 60.1938 104.805C60.3401 104.753 60.466 104.676 60.5716 104.574C60.6778 104.47 60.7597 104.341 60.8171 104.188L61.4752 104.372C61.4056 104.596 61.2895 104.792 61.1258 104.961C60.9622 105.128 60.7602 105.259 60.52 105.353C60.2797 105.446 60.0093 105.492 59.7092 105.492ZM63.5842 105.399L62.2337 100.968H62.9493L63.9074 104.361H63.9533L64.8998 100.968H65.627L66.5613 104.349H66.6078L67.5659 100.968H68.2815L66.931 105.399H66.2613L65.2921 101.995H65.2231L64.2533 105.399H63.5842ZM71.5587 105.399V99.4903H73.5556C74.0188 99.4903 74.3977 99.5739 74.6919 99.7416C74.9885 99.907 75.2079 100.131 75.3501 100.414C75.4922 100.696 75.5636 101.012 75.5636 101.36C75.5636 101.708 75.4922 102.025 75.3501 102.309C75.2096 102.594 74.992 102.821 74.6978 102.99C74.4035 103.158 74.0269 103.241 73.5667 103.241H72.1361V102.607H73.544C73.8615 102.607 74.1162 102.552 74.3083 102.442C74.501 102.332 74.6403 102.184 74.7268 101.997C74.8156 101.809 74.8597 101.596 74.8597 101.36C74.8597 101.123 74.8156 100.912 74.7268 100.725C74.6403 100.539 74.4999 100.393 74.3054 100.287C74.111 100.179 73.8533 100.125 73.5324 100.125H72.2742V105.399H71.5587ZM77.9279 105.503C77.6471 105.503 77.3923 105.45 77.1636 105.345C76.9344 105.237 76.7527 105.082 76.6181 104.88C76.4835 104.676 76.4161 104.43 76.4161 104.141C76.4161 103.888 76.4661 103.682 76.5659 103.524C76.6663 103.364 76.7998 103.239 76.9669 103.149C77.1346 103.058 77.3192 102.991 77.5211 102.947C77.7248 102.901 77.9297 102.864 78.1357 102.837C78.405 102.803 78.6232 102.777 78.7909 102.759C78.9598 102.74 79.0828 102.708 79.16 102.664C79.2389 102.62 79.2784 102.543 79.2784 102.433V102.41C79.2784 102.126 79.2006 101.905 79.0445 101.747C78.8907 101.589 78.6569 101.51 78.3435 101.51C78.0185 101.51 77.7637 101.581 77.5786 101.723C77.394 101.866 77.2646 102.018 77.1892 102.18L76.5432 101.949C76.6587 101.679 76.8125 101.47 77.0046 101.32C77.199 101.168 77.4103 101.062 77.6395 101.002C77.8705 100.941 78.0974 100.91 78.3203 100.91C78.4624 100.91 78.6261 100.927 78.8106 100.962C78.9975 100.995 79.1774 101.063 79.3504 101.167C79.5256 101.271 79.6707 101.428 79.7862 101.637C79.9017 101.847 79.9591 102.127 79.9591 102.48V105.399H79.2784V104.799H79.2436C79.1977 104.896 79.1205 104.998 79.0126 105.108C78.9052 105.218 78.7619 105.311 78.5831 105.388C78.4038 105.465 78.1856 105.503 77.9279 105.503ZM78.0318 104.892C78.3011 104.892 78.528 104.839 78.7126 104.733C78.8994 104.627 79.0399 104.491 79.1339 104.323C79.2302 104.156 79.2784 103.98 79.2784 103.795V103.172C79.2494 103.207 79.1861 103.238 79.088 103.267C78.9917 103.294 78.8803 103.318 78.7532 103.339C78.6278 103.358 78.506 103.376 78.387 103.391C78.2692 103.405 78.174 103.416 78.1009 103.426C77.9239 103.449 77.7585 103.487 77.6047 103.538C77.4526 103.588 77.3296 103.664 77.2356 103.766C77.1433 103.866 77.0969 104.003 77.0969 104.176C77.0969 104.413 77.1845 104.592 77.3598 104.713C77.5368 104.832 77.7608 104.892 78.0318 104.892ZM84.3413 101.96L83.7296 102.133C83.6907 102.031 83.6345 101.932 83.559 101.836C83.4859 101.738 83.3861 101.657 83.259 101.593C83.1325 101.53 82.9694 101.498 82.7715 101.498C82.5005 101.498 82.2741 101.561 82.0936 101.686C81.9149 101.809 81.8249 101.966 81.8249 102.156C81.8249 102.326 81.8865 102.459 82.0101 102.557C82.1331 102.656 82.3252 102.737 82.5869 102.803L83.2445 102.964C83.6408 103.061 83.9362 103.207 84.1307 103.406C84.3245 103.602 84.422 103.855 84.422 104.164C84.422 104.419 84.3489 104.646 84.2026 104.845C84.0581 105.045 83.8561 105.203 83.5967 105.319C83.3373 105.434 83.035 105.492 82.6908 105.492C82.2387 105.492 81.8644 105.394 81.5684 105.197C81.2725 105.001 81.0844 104.715 81.0055 104.337L81.652 104.176C81.7135 104.415 81.8302 104.593 82.0014 104.713C82.1743 104.832 82.4001 104.892 82.6792 104.892C82.9967 104.892 83.2485 104.824 83.4354 104.69C83.6234 104.553 83.718 104.39 83.718 104.199C83.718 104.045 83.6641 103.917 83.5561 103.813C83.4487 103.707 83.2834 103.628 83.0599 103.576L82.3217 103.403C81.9155 103.307 81.6172 103.158 81.4268 102.956C81.2388 102.752 81.1442 102.497 81.1442 102.191C81.1442 101.941 81.2144 101.72 81.3549 101.527C81.4971 101.335 81.6903 101.184 81.9346 101.075C82.1813 100.965 82.4598 100.91 82.7715 100.91C83.2102 100.91 83.5544 101.006 83.8045 101.198C84.0564 101.391 84.2351 101.645 84.3413 101.96ZM88.5859 101.96L87.9743 102.133C87.936 102.031 87.8791 101.932 87.8042 101.836C87.7311 101.738 87.6307 101.657 87.5042 101.593C87.3771 101.53 87.2146 101.498 87.0167 101.498C86.7451 101.498 86.5193 101.561 86.3383 101.686C86.1595 101.809 86.0702 101.966 86.0702 102.156C86.0702 102.326 86.1317 102.459 86.2547 102.557C86.3777 102.656 86.5704 102.737 86.8316 102.803L87.4897 102.964C87.886 103.061 88.1809 103.207 88.3753 103.406C88.5697 103.602 88.6666 103.855 88.6666 104.164C88.6666 104.419 88.5935 104.646 88.4473 104.845C88.3033 105.045 88.1014 105.203 87.8414 105.319C87.582 105.434 87.2802 105.492 86.9354 105.492C86.4834 105.492 86.1096 105.394 85.8131 105.197C85.5171 105.001 85.3296 104.715 85.2507 104.337L85.8972 104.176C85.9587 104.415 86.0748 104.593 86.246 104.713C86.4189 104.832 86.6453 104.892 86.9238 104.892C87.2413 104.892 87.4937 104.824 87.68 104.69C87.8686 104.553 87.9627 104.39 87.9627 104.199C87.9627 104.045 87.9087 103.917 87.8013 103.813C87.6934 103.707 87.528 103.628 87.3051 103.576L86.5663 103.403C86.1607 103.307 85.8624 103.158 85.672 102.956C85.4834 102.752 85.3894 102.497 85.3894 102.191C85.3894 101.941 85.4596 101.72 85.5995 101.527C85.7423 101.335 85.9355 101.184 86.1798 101.075C86.4259 100.965 86.705 100.91 87.0167 100.91C87.4549 100.91 87.7996 101.006 88.0491 101.198C88.3016 101.391 88.4803 101.645 88.5859 101.96ZM90.6961 105.399L89.3456 100.968H90.0612L91.0187 104.361H91.0652L92.0117 100.968H92.7383L93.6732 104.349H93.7197L94.6772 100.968H95.3928L94.0429 105.399H93.3732L92.404 101.995H92.3344L91.3652 105.399H90.6961ZM97.9428 105.492C97.543 105.492 97.1919 105.396 96.8895 105.206C96.5895 105.016 96.355 104.749 96.1855 104.407C96.0184 104.065 95.9348 103.664 95.9348 103.207C95.9348 102.745 96.0184 102.342 96.1855 101.997C96.355 101.653 96.5895 101.386 96.8895 101.195C97.1919 101.005 97.543 100.91 97.9428 100.91C98.3427 100.91 98.6932 101.005 98.9932 101.195C99.295 101.386 99.5295 101.653 99.6972 101.997C99.8661 102.342 99.9508 102.745 99.9508 103.207C99.9508 103.664 99.8661 104.065 99.6972 104.407C99.5295 104.749 99.295 105.016 98.9932 105.206C98.6932 105.396 98.3427 105.492 97.9428 105.492ZM97.9428 104.88C98.2469 104.88 98.497 104.802 98.6932 104.646C98.8894 104.491 99.0344 104.286 99.1285 104.032C99.2231 103.778 99.2701 103.503 99.2701 103.207C99.2701 102.91 99.2231 102.635 99.1285 102.379C99.0344 102.123 98.8894 101.916 98.6932 101.758C98.497 101.6 98.2469 101.522 97.9428 101.522C97.6387 101.522 97.3886 101.6 97.1924 101.758C96.9963 101.916 96.8512 102.123 96.7572 102.379C96.6626 102.635 96.6156 102.91 96.6156 103.207C96.6156 103.503 96.6626 103.778 96.7572 104.032C96.8512 104.286 96.9963 104.491 97.1924 104.646C97.3886 104.802 97.6387 104.88 97.9428 104.88ZM100.99 105.399V100.968H101.648V101.637H101.694C101.775 101.418 101.921 101.24 102.133 101.103C102.345 100.967 102.583 100.898 102.848 100.898C102.898 100.898 102.961 100.899 103.036 100.901C103.111 100.903 103.168 100.906 103.206 100.91V101.602C103.183 101.596 103.13 101.588 103.048 101.577C102.967 101.563 102.881 101.556 102.79 101.556C102.575 101.556 102.383 101.602 102.214 101.692C102.046 101.78 101.914 101.903 101.815 102.061C101.719 102.217 101.672 102.395 101.672 102.595V105.399H100.99ZM105.552 105.492C105.183 105.492 104.856 105.398 104.574 105.212C104.291 105.023 104.07 104.758 103.91 104.416C103.75 104.071 103.671 103.664 103.671 103.195C103.671 102.73 103.75 102.326 103.91 101.983C104.07 101.641 104.292 101.376 104.577 101.19C104.861 101.003 105.19 100.91 105.563 100.91C105.852 100.91 106.08 100.958 106.247 101.054C106.416 101.148 106.545 101.256 106.634 101.378C106.724 101.497 106.794 101.595 106.845 101.672H106.902V99.4903H107.583V105.399H106.925V104.719H106.845C106.794 104.799 106.723 104.901 106.631 105.024C106.539 105.145 106.407 105.254 106.236 105.35C106.065 105.445 105.837 105.492 105.552 105.492ZM105.644 104.88C105.917 104.88 106.148 104.809 106.337 104.666C106.525 104.522 106.668 104.323 106.766 104.069C106.864 103.813 106.914 103.519 106.914 103.184C106.914 102.853 106.866 102.563 106.769 102.315C106.674 102.065 106.531 101.871 106.343 101.732C106.154 101.592 105.921 101.522 105.644 101.522C105.356 101.522 105.115 101.596 104.923 101.744C104.732 101.89 104.589 102.089 104.493 102.341C104.399 102.591 104.352 102.872 104.352 103.184C104.352 103.499 104.4 103.785 104.496 104.043C104.594 104.299 104.738 104.503 104.928 104.655C105.121 104.805 105.36 104.88 105.644 104.88Z" fill="black"/>
<path d="M19.1025 119.908C19.1025 117.023 21.441 114.685 24.3256 114.685H199.589C202.474 114.685 204.812 117.023 204.812 119.908V137.318C204.812 140.203 202.474 142.541 199.589 142.541H24.3256C21.441 142.541 19.1025 140.203 19.1025 137.318V119.908Z" fill="#EEF2F1"/>
<path d="M30.2705 129.139L30.3067 127.602L28.9919 128.409L28.7471 127.974L30.1027 127.244L28.7471 126.509L28.9919 126.074L30.3067 126.877L30.2705 125.339H30.7647L30.7284 126.877L32.0387 126.074L32.2882 126.509L30.9324 127.244L32.2882 127.974L32.0387 128.409L30.7284 127.602L30.7647 129.139H30.2705ZM34.5324 129.139L34.5684 127.602L33.2539 128.409L33.009 127.974L34.3647 127.244L33.009 126.509L33.2539 126.074L34.5684 126.877L34.5324 125.339H35.0268L34.9903 126.877L36.3007 126.074L36.5497 126.509L35.1946 127.244L36.5497 127.974L36.3007 128.409L34.9903 127.602L35.0268 129.139H34.5324ZM38.7944 129.139L38.8304 127.602L37.5159 128.409L37.271 127.974L38.6267 127.244L37.271 126.509L37.5159 126.074L38.8304 126.877L38.7944 125.339H39.2883L39.2523 126.877L40.5627 126.074L40.8117 126.509L39.456 127.244L40.8117 127.974L40.5627 128.409L39.2523 127.602L39.2883 129.139H38.7944ZM43.0559 129.139L43.0925 127.602L41.7774 128.409L41.5325 127.974L42.8882 127.244L41.5325 126.509L41.7774 126.074L43.0925 126.877L43.0559 125.339H43.5503L43.5138 126.877L44.8242 126.074L45.0737 126.509L43.7181 127.244L45.0737 127.974L44.8242 128.409L43.5138 127.602L43.5503 129.139H43.0559ZM47.3179 129.139L47.3545 127.602L46.0394 128.409L45.7945 127.974L47.1502 127.244L45.7945 126.509L46.0394 126.074L47.3545 126.877L47.3179 125.339H47.8124L47.7758 126.877L49.0862 126.074L49.3358 126.509L47.9801 127.244L49.3358 127.974L49.0862 128.409L47.7758 127.602L47.8124 129.139H47.3179ZM51.58 129.139L51.616 127.602L50.3015 128.409L50.0566 127.974L51.4123 127.244L50.0566 126.509L50.3015 126.074L51.616 126.877L51.58 125.339H52.0738L52.0379 126.877L53.3483 126.074L53.5978 126.509L52.2421 127.244L53.5978 127.974L53.3483 128.409L52.0379 127.602L52.0738 129.139H51.58ZM55.842 129.139L55.878 127.602L54.5635 128.409L54.3186 127.974L55.6743 127.244L54.3186 126.509L54.5635 126.074L55.878 126.877L55.842 125.339H56.3359L56.2999 126.877L57.6103 126.074L57.8593 126.509L56.5036 127.244L57.8593 127.974L57.6103 128.409L56.2999 127.602L56.3359 129.139H55.842ZM60.1035 129.139L60.14 127.602L58.825 128.409L58.5801 127.974L59.9358 127.244L58.5801 126.509L58.825 126.074L60.14 126.877L60.1035 125.339H60.5979L60.5619 126.877L61.8718 126.074L62.1213 126.509L60.7656 127.244L62.1213 127.974L61.8718 128.409L60.5619 127.602L60.5979 129.139H60.1035ZM64.3655 129.139L64.4021 127.602L63.087 128.409L62.8421 127.974L64.1978 127.244L62.8421 126.509L63.087 126.074L64.4021 126.877L64.3655 125.339H64.86L64.8234 126.877L66.1338 126.074L66.3834 126.509L65.0277 127.244L66.3834 127.974L66.1338 128.409L64.8234 127.602L64.86 129.139H64.3655ZM68.6276 129.139L68.6635 127.602L67.3491 128.409L67.1042 127.974L68.4598 127.244L67.1042 126.509L67.3491 126.074L68.6635 126.877L68.6276 125.339H69.122L69.0854 126.877L70.3959 126.074L70.6448 126.509L69.2897 127.244L70.6448 127.974L70.3959 128.409L69.0854 127.602L69.122 129.139H68.6276ZM72.8896 129.139L72.9256 127.602L71.6111 128.409L71.3662 127.974L72.7219 127.244L71.3662 126.509L71.6111 126.074L72.9256 126.877L72.8896 125.339H73.3835L73.3475 126.877L74.6579 126.074L74.9069 126.509L73.5512 127.244L74.9069 127.974L74.6579 128.409L73.3475 127.602L73.3835 129.139H72.8896ZM77.1511 129.139L77.1876 127.602L75.8726 128.409L75.6277 127.974L76.9833 127.244L75.6277 126.509L75.8726 126.074L77.1876 126.877L77.1511 125.339H77.6455L77.6089 126.877L78.9194 126.074L79.1689 126.509L77.8132 127.244L79.1689 127.974L78.9194 128.409L77.6089 127.602L77.6455 129.139H77.1511ZM81.4131 129.139L81.4497 127.602L80.1346 128.409L79.8897 127.974L81.2454 127.244L79.8897 126.509L80.1346 126.074L81.4497 126.877L81.4131 125.339H81.9075L81.871 126.877L83.1814 126.074L83.4309 126.509L82.0753 127.244L83.4309 127.974L83.1814 128.409L81.871 127.602L81.9075 129.139H81.4131ZM85.6751 129.139L85.7111 127.602L84.3966 128.409L84.1517 127.974L85.5074 127.244L84.1517 126.509L84.3966 126.074L85.7111 126.877L85.6751 125.339H86.169L86.133 126.877L87.4434 126.074L87.693 126.509L86.3373 127.244L87.693 127.974L87.4434 128.409L86.133 127.602L86.169 129.139H85.6751ZM89.9372 129.139L89.9732 127.602L88.6587 128.409L88.4138 127.974L89.7695 127.244L88.4138 126.509L88.6587 126.074L89.9732 126.877L89.9372 125.339H90.4311L90.3951 126.877L91.7055 126.074L91.9545 126.509L90.5988 127.244L91.9545 127.974L91.7055 128.409L90.3951 127.602L90.4311 129.139H89.9372ZM94.1986 129.139L94.2352 127.602L92.9201 128.409L92.6752 127.974L94.0309 127.244L92.6752 126.509L92.9201 126.074L94.2352 126.877L94.1986 125.339H94.6931L94.6571 126.877L95.9669 126.074L96.2165 126.509L94.8608 127.244L96.2165 127.974L95.9669 128.409L94.6571 127.602L94.6931 129.139H94.1986ZM98.4607 129.139L98.4972 127.602L97.1822 128.409L96.9373 127.974L98.293 127.244L96.9373 126.509L97.1822 126.074L98.4972 126.877L98.4607 125.339H98.9551L98.9186 126.877L100.229 126.074L100.479 126.509L99.1228 127.244L100.479 127.974L100.229 128.409L98.9186 127.602L98.9551 129.139H98.4607ZM102.723 129.139L102.759 127.602L101.444 128.409L101.199 127.974L102.555 127.244L101.199 126.509L101.444 126.074L102.759 126.877L102.723 125.339H103.217L103.181 126.877L104.491 126.074L104.74 126.509L103.385 127.244L104.74 127.974L104.491 128.409L103.181 127.602L103.217 129.139H102.723Z" fill="#8B8E8C"/>
<path d="M185.625 126.582C187.148 129.883 191.719 129.883 193.241 126.582" stroke="#8B8E8C" stroke-width="0.580343" stroke-linecap="round" stroke-linejoin="round"/>
<path d="M191.88 128.266L193.243 130.137" stroke="#8B8E8C" stroke-width="0.580343" stroke-linecap="round" stroke-linejoin="round"/>
<path d="M189.434 129.058V130.898" stroke="#8B8E8C" stroke-width="0.580343" stroke-linecap="round" stroke-linejoin="round"/>
<path d="M186.988 128.266L185.625 130.137" stroke="#8B8E8C" stroke-width="0.580343" stroke-linecap="round" stroke-linejoin="round"/>
<path d="M109.056 150.666H24.3256C21.441 150.666 19.1025 153.005 19.1025 155.889V172.719C19.1025 175.604 21.441 177.942 24.3256 177.942H109.056C111.94 177.942 114.279 175.604 114.279 172.719V155.889C114.279 153.005 111.94 150.666 109.056 150.666Z" fill="#00A886"/>
<path d="M41.4223 164.304H35.667" stroke="white" stroke-width="0.870515" stroke-linecap="round" stroke-linejoin="round"/>
<path d="M38.5443 167.182L35.667 164.304L38.5443 161.427" stroke="white" stroke-width="0.870515" stroke-linecap="round" stroke-linejoin="round"/>
<path d="M52.73 163.229H51.701C51.6616 163.009 51.5878 162.816 51.4805 162.649C51.3725 162.482 51.2408 162.34 51.0847 162.224C50.9286 162.107 50.7539 162.019 50.5606 161.96C50.3691 161.9 50.166 161.871 49.9501 161.871C49.5613 161.871 49.2131 161.968 48.9049 162.164C48.5997 162.36 48.3577 162.647 48.1795 163.025C48.0037 163.403 47.916 163.864 47.916 164.41C47.916 164.959 48.0037 165.423 48.1795 165.801C48.3577 166.179 48.6008 166.465 48.9084 166.659C49.216 166.852 49.5625 166.949 49.9472 166.949C50.1602 166.949 50.3627 166.92 50.5537 166.863C50.7475 166.804 50.9222 166.717 51.0783 166.602C51.2344 166.488 51.3662 166.349 51.4735 166.184C51.5838 166.017 51.6592 165.825 51.701 165.61L52.73 165.613C52.6748 165.945 52.5686 166.251 52.4102 166.53C52.2541 166.807 52.0533 167.046 51.8066 167.249C51.5629 167.449 51.2837 167.604 50.9692 167.714C50.6547 167.823 50.3123 167.879 49.9403 167.879C49.3559 167.879 48.8347 167.74 48.3774 167.463C47.9201 167.184 47.5597 166.785 47.2962 166.266C47.0345 165.748 46.9033 165.128 46.9033 164.41C46.9033 163.688 47.0356 163.07 47.2991 162.553C47.5632 162.034 47.9236 161.636 48.3809 161.36C48.8382 161.08 49.3582 160.941 49.9403 160.941C50.2989 160.941 50.6332 160.993 50.9431 161.096C51.2553 161.197 51.535 161.346 51.7834 161.544C52.0324 161.74 52.2378 161.979 52.4003 162.263C52.5628 162.545 52.6731 162.867 52.73 163.229ZM56.0037 167.888C55.529 167.888 55.1146 167.78 54.7606 167.562C54.4066 167.345 54.1315 167.04 53.9359 166.649C53.7403 166.258 53.6429 165.8 53.6429 165.277C53.6429 164.752 53.7403 164.292 53.9359 163.899C54.1315 163.505 54.4066 163.2 54.7606 162.982C55.1146 162.765 55.529 162.655 56.0037 162.655C56.4784 162.655 56.8928 162.765 57.2468 162.982C57.6008 163.2 57.8753 163.505 58.0709 163.899C58.2664 164.292 58.3645 164.752 58.3645 165.277C58.3645 165.8 58.2664 166.258 58.0709 166.649C57.8753 167.04 57.6008 167.345 57.2468 167.562C56.8928 167.78 56.4784 167.888 56.0037 167.888ZM56.0066 167.061C56.3147 167.061 56.5695 166.98 56.7721 166.817C56.974 166.654 57.1237 166.438 57.2201 166.167C57.3193 165.897 57.3687 165.599 57.3687 165.273C57.3687 164.951 57.3193 164.654 57.2201 164.383C57.1237 164.111 56.974 163.892 56.7721 163.727C56.5695 163.563 56.3147 163.48 56.0066 163.48C55.6967 163.48 55.4396 163.563 55.2353 163.727C55.0328 163.892 54.8825 164.111 54.7838 164.383C54.6869 164.654 54.6387 164.951 54.6387 165.273C54.6387 165.599 54.6869 165.897 54.7838 166.167C54.8825 166.438 55.0328 166.654 55.2353 166.817C55.4396 166.98 55.6967 167.061 56.0066 167.061ZM60.4508 164.779V167.786H59.4649V162.722H60.4114V163.546H60.4741C60.5907 163.278 60.7729 163.062 61.0213 162.9C61.272 162.737 61.5872 162.655 61.9679 162.655C62.3126 162.655 62.615 162.728 62.8744 162.873C63.1338 163.016 63.3352 163.229 63.4779 163.513C63.6207 163.796 63.6921 164.147 63.6921 164.565V167.786H62.7066V164.683C62.7066 164.316 62.6109 164.03 62.4194 163.823C62.2284 163.614 61.9656 163.51 61.6313 163.51C61.4026 163.51 61.1995 163.559 61.0213 163.658C60.8455 163.757 60.7062 163.902 60.6029 164.093C60.5013 164.282 60.4508 164.511 60.4508 164.779ZM67.379 162.722V163.513H64.6125V162.722H67.379ZM65.3542 161.508H66.3402V166.299C66.3402 166.49 66.3686 166.634 66.4261 166.731C66.4829 166.826 66.5566 166.89 66.6466 166.926C66.7389 166.959 66.8393 166.975 66.9466 166.975C67.0261 166.975 67.0952 166.97 67.1544 166.959C67.2142 166.948 67.26 166.939 67.2931 166.932L67.4713 167.747C67.4138 167.769 67.3326 167.791 67.2269 167.812C67.1213 167.837 66.9896 167.85 66.8311 167.852C66.5723 167.856 66.3303 167.811 66.1057 167.714C65.8817 167.617 65.7006 167.468 65.5619 167.265C65.4232 167.063 65.3542 166.809 65.3542 166.504V161.508ZM68.4695 167.786V162.722H69.4555V167.786H68.4695ZM68.9674 161.94C68.7956 161.94 68.6488 161.883 68.5257 161.769C68.4045 161.652 68.3441 161.513 68.3441 161.353C68.3441 161.19 68.4045 161.052 68.5257 160.938C68.6488 160.821 68.7956 160.763 68.9674 160.763C69.1386 160.763 69.2848 160.821 69.4061 160.938C69.5292 161.052 69.5907 161.19 69.5907 161.353C69.5907 161.513 69.5292 161.652 69.4061 161.769C69.2848 161.883 69.1386 161.94 68.9674 161.94ZM71.7675 164.779V167.786H70.7815V162.722H71.7281V163.546H71.7908C71.9074 163.278 72.0896 163.062 72.338 162.9C72.5887 162.737 72.9039 162.655 73.2846 162.655C73.6293 162.655 73.9316 162.728 74.1911 162.873C74.4505 163.016 74.6519 163.229 74.7946 163.513C74.9374 163.796 75.0088 164.147 75.0088 164.565V167.786H74.0233V164.683C74.0233 164.316 73.9276 164.03 73.7361 163.823C73.5451 163.614 73.2822 163.51 72.948 163.51C72.7193 163.51 72.5162 163.559 72.338 163.658C72.1622 163.757 72.0229 163.902 71.9196 164.093C71.818 164.282 71.7675 164.511 71.7675 164.779ZM79.5395 165.686V162.722H80.529V167.786H79.5592V166.909H79.5064C79.3904 167.18 79.2035 167.405 78.9458 167.585C78.691 167.763 78.3736 167.852 77.9929 167.852C77.6679 167.852 77.38 167.781 77.1293 167.638C76.8809 167.493 76.6854 167.278 76.542 166.995C76.4016 166.711 76.3314 166.361 76.3314 165.943V162.722H77.3174V165.824C77.3174 166.169 77.4125 166.444 77.6041 166.649C77.7956 166.853 78.044 166.955 78.3492 166.955C78.5338 166.955 78.7177 166.909 78.9 166.817C79.0845 166.724 79.2371 166.585 79.3584 166.398C79.4815 166.211 79.5418 165.974 79.5395 165.686ZM84.0366 167.888C83.5375 167.888 83.1075 167.782 82.7471 167.569C82.389 167.353 82.1116 167.051 81.916 166.662C81.7228 166.27 81.6258 165.812 81.6258 165.287C81.6258 164.768 81.7228 164.311 81.916 163.915C82.1116 163.52 82.3843 163.211 82.7337 162.989C83.086 162.766 83.4969 162.655 83.9669 162.655C84.2531 162.655 84.5299 162.703 84.798 162.797C85.0661 162.892 85.307 163.04 85.5205 163.242C85.7335 163.445 85.9018 163.708 86.0248 164.03C86.1479 164.351 86.2094 164.742 86.2094 165.201V165.551H82.1836V164.812H85.2431C85.2431 164.553 85.1903 164.323 85.0853 164.123C84.9796 163.921 84.8311 163.761 84.6401 163.645C84.4509 163.528 84.2287 163.47 83.9739 163.47C83.6971 163.47 83.4551 163.538 83.2485 163.675C83.0442 163.809 82.8858 163.984 82.7738 164.202C82.6635 164.417 82.6089 164.651 82.6089 164.904V165.481C82.6089 165.82 82.6681 166.108 82.7865 166.345C82.9078 166.583 83.0755 166.764 83.2914 166.89C83.5067 167.013 83.7586 167.074 84.0464 167.074C84.2333 167.074 84.4034 167.047 84.5577 166.995C84.7115 166.94 84.8444 166.859 84.9564 166.751C85.0684 166.643 85.1543 166.51 85.2135 166.352L86.1467 166.52C86.0718 166.795 85.9378 167.035 85.7445 167.242C85.553 167.447 85.3128 167.606 85.0226 167.72C84.7342 167.833 84.4057 167.888 84.0366 167.888Z" fill="white"/>
<path d="M97.7152 164.304H91.96" stroke="white" stroke-width="0.870515" stroke-linecap="round" stroke-linejoin="round"/>
<path d="M94.8373 167.182L91.96 164.304L94.8373 161.427" stroke="white" stroke-width="0.870515" stroke-linecap="round" stroke-linejoin="round"/>
</g>
<defs>
<filter id="filter0_d_449_1985" x="0.796094" y="0.3" width="222.324" height="197.369" filterUnits="userSpaceOnUse" color-interpolation-filters="sRGB">
<feFlood flood-opacity="0" result="BackgroundImageFix"/>
<feColorMatrix in="SourceAlpha" type="matrix" values="0 0 0 0 0 0 0 0 0 0 0 0 0 0 0 0 0 0 127 0" result="hardAlpha"/>
<feOffset dy="2"/>
<feGaussianBlur stdDeviation="3.35"/>
<feComposite in2="hardAlpha" operator="out"/>
<feColorMatrix type="matrix" values="0 0 0 0 0 0 0 0 0 0.458246 0 0 0 0 0.365506 0 0 0 0.1 0"/>
<feBlend mode="normal" in2="BackgroundImageFix" result="effect1_dropShadow_449_1985"/>
<feBlend mode="normal" in="SourceGraphic" in2="effect1_dropShadow_449_1985" result="shape"/>
</filter>
</defs>
</svg>
