<svg width="216" height="211" viewBox="0 0 216 211" fill="none" xmlns="http://www.w3.org/2000/svg">
<g filter="url(#filter0_d_449_598)">
<path d="M196.215 5H19.7848C12.724 5 7 10.724 7 17.7848V189.101C7 196.162 12.724 201.886 19.7848 201.886H196.215C203.276 201.886 209 196.162 209 189.101V17.7848C209 10.724 203.276 5 196.215 5Z" fill="white"/>
<path d="M24.7539 48.4684H22.8652L28.3278 33.5914H30.1875L35.65 48.4684H33.7613L29.3157 35.945H29.1995L24.7539 48.4684ZM25.4512 42.657H33.0641V44.2551H25.4512V42.657ZM41.948 48.7008C41.0183 48.7008 40.1973 48.4659 39.4855 47.9962C38.7736 47.5216 38.2167 46.8533 37.8148 45.9913C37.4128 45.1245 37.2118 44.1002 37.2118 42.9186C37.2118 41.7466 37.4128 40.7297 37.8148 39.8676C38.2167 39.0057 38.7761 38.3398 39.4928 37.87C40.2095 37.4003 41.0376 37.1654 41.9771 37.1654C42.7034 37.1654 43.2773 37.2865 43.6986 37.5287C44.1248 37.7659 44.4493 38.0371 44.672 38.3421C44.8996 38.6425 45.0764 38.8895 45.2023 39.0832H45.3476V33.5914H47.0619V48.4684H45.4057V46.754H45.2023C45.0764 46.9575 44.8972 47.214 44.6647 47.5241C44.4323 47.8291 44.1005 48.1027 43.6696 48.3449C43.2386 48.5821 42.6647 48.7008 41.948 48.7008ZM42.1804 47.1609C42.8681 47.1609 43.4493 46.9816 43.9239 46.6233C44.3984 46.26 44.7592 45.7589 45.0062 45.1196C45.2532 44.4755 45.3766 43.7322 45.3766 42.8896C45.3766 42.0565 45.2555 41.3278 45.0135 40.703C44.7714 40.0735 44.413 39.5843 43.9383 39.2357C43.4637 38.8822 42.8778 38.7054 42.1804 38.7054C41.4541 38.7054 40.8487 38.8919 40.3644 39.2647C39.885 39.6328 39.5242 40.1341 39.2821 40.7685C39.0448 41.398 38.9262 42.105 38.9262 42.8896C38.9262 43.6838 39.0472 44.4053 39.2894 45.0542C39.5364 45.6983 39.8996 46.2116 40.379 46.5942C40.8632 46.9719 41.4637 47.1609 42.1804 47.1609ZM50.4398 48.4684V37.3107H52.0959V38.996H52.2121C52.4155 38.4439 52.7836 37.9959 53.3163 37.6522C53.849 37.3082 54.4495 37.1364 55.1179 37.1364C55.2437 37.1364 55.4012 37.1388 55.59 37.1436C55.7788 37.1484 55.9218 37.1557 56.0185 37.1654V38.9088C55.9605 38.8943 55.8273 38.8725 55.619 38.8434C55.4156 38.8096 55.2002 38.7926 54.9725 38.7926C54.4302 38.7926 53.9459 38.9063 53.5198 39.134C53.0984 39.3568 52.7643 39.6667 52.5173 40.0638C52.2752 40.4561 52.1541 40.904 52.1541 41.4077V48.4684H50.4398ZM58.0507 48.4684V37.3107H59.765V48.4684H58.0507ZM58.9224 35.4511C58.5883 35.4511 58.3001 35.3373 58.058 35.1096C57.8207 34.8821 57.702 34.6085 57.702 34.2889C57.702 33.9692 57.8207 33.6956 58.058 33.4679C58.3001 33.2404 58.5883 33.1266 58.9224 33.1266C59.2565 33.1266 59.5423 33.2404 59.7796 33.4679C60.0217 33.6956 60.1428 33.9692 60.1428 34.2889C60.1428 34.6085 60.0217 34.8821 59.7796 35.1096C59.5423 35.3373 59.2565 35.4511 58.9224 35.4511ZM66.1877 48.7298C65.4807 48.7298 64.8402 48.5967 64.2636 48.3303C63.687 48.0591 63.2293 47.6693 62.8905 47.1609C62.5517 46.6475 62.3817 46.0276 62.3817 45.3012C62.3817 44.6619 62.5082 44.1438 62.7601 43.7467C63.012 43.3447 63.3482 43.03 63.7688 42.8024C64.1907 42.5748 64.6561 42.4053 65.1637 42.2939C65.6776 42.1776 66.1928 42.0857 66.7119 42.0178C67.3895 41.9307 67.9392 41.8653 68.3599 41.8217C68.7869 41.7733 69.0963 41.6934 69.2906 41.582C69.4887 41.4706 69.5885 41.2769 69.5885 41.0009V40.9427C69.5885 40.226 69.3916 39.6691 68.9991 39.272C68.6117 38.8749 68.0236 38.6763 67.2348 38.6763C66.4153 38.6763 65.7748 38.8556 65.3094 39.2139C64.844 39.5723 64.518 39.9548 64.3288 40.3616L62.7013 39.7804C62.9915 39.1025 63.3789 38.5747 63.8634 38.1969C64.3531 37.8144 64.8862 37.548 65.4615 37.3979C66.0432 37.2429 66.6147 37.1654 67.176 37.1654C67.534 37.1654 67.9456 37.209 68.411 37.2962C68.8815 37.3786 69.3341 37.5504 69.77 37.812C70.2098 38.0734 70.5755 38.4681 70.867 38.996C71.1572 39.5238 71.3016 40.2309 71.3016 41.1171V48.4684H69.5885V46.9574H69.5003C69.3839 47.1996 69.1909 47.4586 68.9198 47.7346C68.6488 48.0107 68.2883 48.2457 67.8369 48.4393C67.3869 48.633 66.8372 48.7298 66.1877 48.7298ZM66.4498 47.1899C67.1274 47.1899 67.6989 47.0567 68.1642 46.7904C68.6334 46.524 68.9876 46.1801 69.2241 45.7589C69.467 45.3375 69.5885 44.8944 69.5885 44.4295V42.8604C69.5156 42.9476 69.3558 43.0275 69.109 43.1001C68.8661 43.168 68.5849 43.2285 68.2652 43.2818C67.9507 43.3303 67.6439 43.3739 67.3435 43.4126C67.0481 43.4465 66.8078 43.4755 66.6237 43.4997C66.1788 43.5578 65.762 43.6523 65.3746 43.783C64.9923 43.9089 64.6817 44.1002 64.4451 44.3569C64.2125 44.6088 64.0961 44.9525 64.0961 45.3884C64.0961 45.984 64.316 46.4344 64.7571 46.7395C65.2033 47.0398 65.7671 47.1899 66.4498 47.1899ZM76.1458 41.7563V48.4684H74.4314V37.3107H76.087V39.0541H76.2327C76.4948 38.4875 76.8912 38.0322 77.4243 37.6885C77.9561 37.3398 78.6439 37.1654 79.4865 37.1654C80.2421 37.1654 80.903 37.3204 81.4707 37.6303C82.037 37.9355 82.4768 38.4003 82.7926 39.025C83.1071 39.6449 83.2644 40.4294 83.2644 41.3785V48.4684H81.5499V41.4949C81.5499 40.6182 81.3224 39.9355 80.8672 39.4464C80.4121 38.9524 79.7869 38.7054 78.993 38.7054C78.4458 38.7054 77.9561 38.824 77.5253 39.0613C77.0995 39.2987 76.7633 39.6449 76.5166 40.1001C76.2685 40.5553 76.1458 41.1074 76.1458 41.7563ZM92.3825 48.4684V33.5914H97.4095C98.5716 33.5914 99.5254 33.79 100.272 34.1871C101.017 34.5795 101.57 35.1194 101.928 35.8071C102.286 36.4947 102.465 37.2768 102.465 38.1533C102.465 39.0298 102.286 39.8072 101.928 40.4851C101.57 41.1631 101.02 41.6959 100.278 42.0832C99.5382 42.4658 98.5908 42.657 97.4389 42.657H93.3708V41.0299H97.3801C98.174 41.0299 98.8133 40.9137 99.2978 40.6813C99.7875 40.4488 100.14 40.1195 100.359 39.6934C100.581 39.2623 100.693 38.749 100.693 38.1533C100.693 37.5577 100.581 37.0371 100.359 36.5915C100.135 36.146 99.7798 35.8022 99.2914 35.56C98.8018 35.313 98.1548 35.1895 97.3507 35.1895H94.1839V48.4684H92.3825ZM99.3848 41.7854L103.046 48.4684H100.955L97.3507 41.7854H99.3848ZM112.267 43.9065V37.3107H113.981V48.4684H112.267V46.5797H112.15C111.888 47.1463 111.482 47.6281 110.929 48.0252C110.377 48.4175 109.68 48.6136 108.838 48.6136C108.14 48.6136 107.521 48.4611 106.978 48.156C106.436 47.8461 106.01 47.3811 105.699 46.7613C105.39 46.1365 105.235 45.3496 105.235 44.4005V37.3107H106.95V44.2843C106.95 45.0978 107.177 45.7467 107.632 46.231C108.091 46.7153 108.678 46.9574 109.39 46.9574C109.816 46.9574 110.249 46.8485 110.69 46.6305C111.135 46.4126 111.509 46.0785 111.809 45.6281C112.113 45.1777 112.267 44.6039 112.267 43.9065ZM125.023 39.8096L123.484 40.2454C123.387 39.9887 123.244 39.7393 123.056 39.4973C122.872 39.2503 122.62 39.0468 122.3 38.887C121.981 38.7272 121.572 38.6473 121.072 38.6473C120.389 38.6473 119.82 38.8047 119.365 39.1195C118.915 39.4294 118.69 39.824 118.69 40.3035C118.69 40.7297 118.845 41.0662 119.154 41.3132C119.465 41.5602 119.949 41.766 120.608 41.9307L122.263 42.3374C123.262 42.5795 124.004 42.95 124.494 43.4489C124.982 43.9428 125.227 44.5796 125.227 45.3593C125.227 45.9986 125.043 46.5701 124.676 47.0737C124.313 47.5773 123.804 47.9743 123.149 48.2649C122.496 48.5555 121.735 48.7008 120.868 48.7008C119.73 48.7008 118.788 48.4538 118.043 47.9599C117.298 47.4659 116.825 46.7443 116.626 45.7952L118.254 45.3884C118.409 45.9889 118.701 46.4393 119.132 46.7395C119.568 47.0398 120.137 47.1899 120.84 47.1899C121.639 47.1899 122.273 47.0204 122.743 46.6814C123.217 46.3375 123.455 45.926 123.455 45.4465C123.455 45.059 123.319 44.7346 123.048 44.4731C122.777 44.2068 122.36 44.0083 121.799 43.8775L119.939 43.4416C118.917 43.1995 118.167 42.8241 117.687 42.3157C117.212 41.8024 116.975 41.1607 116.975 40.3907C116.975 39.7611 117.152 39.2042 117.506 38.7199C117.864 38.2357 118.351 37.8556 118.966 37.5795C119.586 37.3034 120.288 37.1654 121.072 37.1654C122.176 37.1654 123.043 37.4076 123.673 37.8919C124.307 38.3762 124.757 39.0154 125.023 39.8096ZM129.522 41.7563V48.4684H127.808V33.5914H129.522V39.0541H129.667C129.929 38.4778 130.321 38.0202 130.844 37.6812C131.372 37.3374 132.074 37.1654 132.951 37.1654C133.711 37.1654 134.377 37.318 134.948 37.623C135.52 37.9233 135.963 38.3857 136.278 39.0105C136.597 39.6304 136.757 40.4197 136.757 41.3785V48.4684H135.043V41.4949C135.043 40.6086 134.813 39.9234 134.352 39.4391C133.897 38.9499 133.266 38.7054 132.456 38.7054C131.895 38.7054 131.392 38.824 130.945 39.0613C130.506 39.2987 130.157 39.6449 129.9 40.1001C129.648 40.5553 129.522 41.1074 129.522 41.7563Z" fill="black"/>
<path d="M23.5801 72.7595V62.5317H24.8185V67.0863H30.272V62.5317H31.5106V72.7595H30.272V68.185H24.8185V72.7595H23.5801ZM37.0466 72.9193C36.3074 72.9193 35.6698 72.7562 35.1338 72.4299C34.6011 72.1003 34.1899 71.6409 33.9002 71.0516C33.614 70.4589 33.4708 69.7698 33.4708 68.984C33.4708 68.1983 33.614 67.5057 33.9002 66.9065C34.1899 66.3038 34.5928 65.8344 35.1088 65.4981C35.6282 65.1586 36.2341 64.9888 36.9267 64.9888C37.3262 64.9888 37.7207 65.0554 38.1103 65.1885C38.4998 65.3217 38.8543 65.5382 39.174 65.8377C39.4936 66.1341 39.7483 66.5269 39.9381 67.0163C40.1278 67.5057 40.2227 68.1084 40.2227 68.8242V69.3236H34.3097V68.3048H39.0241C39.0241 67.872 38.9376 67.4858 38.7645 67.1462C38.5947 66.8065 38.3516 66.5386 38.0353 66.3422C37.7224 66.1457 37.3528 66.0475 36.9267 66.0475C36.4572 66.0475 36.051 66.164 35.7081 66.397C35.3686 66.6268 35.1071 66.9265 34.924 67.2961C34.741 67.6655 34.6494 68.0617 34.6494 68.4845V69.1638C34.6494 69.7431 34.7493 70.2341 34.949 70.637C35.1521 71.0365 35.4334 71.3412 35.793 71.551C36.1525 71.7573 36.5705 71.8606 37.0466 71.8606C37.3561 71.8606 37.6358 71.8173 37.8855 71.7307C38.1385 71.6409 38.3566 71.5076 38.5397 71.3312C38.7229 71.1514 38.8643 70.9284 38.9643 70.662L40.1029 70.9817C39.983 71.3679 39.7816 71.7075 39.4986 72.0004C39.2156 72.2901 38.866 72.5165 38.4498 72.6796C38.0337 72.8394 37.5659 72.9193 37.0466 72.9193ZM45.6313 62.0522L42.3353 74.2977H41.2565L44.5525 62.0522H45.6313ZM47.1882 72.7595V62.5317H48.4267V67.0863H53.8802V62.5317H55.1188V72.7595H53.8802V68.185H48.4267V72.7595H47.1882ZM57.4385 72.7595V65.0886H58.6171V72.7595H57.4385ZM58.0378 63.8102C57.8081 63.8102 57.61 63.7319 57.4436 63.5754C57.2804 63.4189 57.1988 63.2309 57.1988 63.0111C57.1988 62.7913 57.2804 62.6033 57.4436 62.4468C57.61 62.2903 57.8081 62.2121 58.0378 62.2121C58.2676 62.2121 58.4639 62.2903 58.6271 62.4468C58.7935 62.6033 58.8768 62.7913 58.8768 63.0111C58.8768 63.2309 58.7935 63.4189 58.6271 63.5754C58.4639 63.7319 58.2676 63.8102 58.0378 63.8102ZM60.7765 72.7595V65.0886H61.9143V66.2872H62.014C62.1738 65.8777 62.4321 65.5598 62.7888 65.3333C63.1442 65.1036 63.5725 64.9888 64.0724 64.9888C64.5774 64.9888 64.9993 65.1036 65.3355 65.3333C65.6756 65.5598 65.9402 65.8777 66.1295 66.2872H66.21C66.4056 65.891 66.7009 65.5764 67.0934 65.3433C67.4859 65.1069 67.9577 64.9888 68.5062 64.9888C69.1927 64.9888 69.754 65.2034 70.1899 65.633C70.6259 66.0591 70.8445 66.7233 70.8445 67.6257V72.7595H69.6657V67.6257C69.6657 67.0597 69.511 66.6552 69.2004 66.4121C68.891 66.1691 68.5266 66.0475 68.1073 66.0475C67.5677 66.0475 67.1497 66.2106 66.8531 66.5369C66.5578 66.8598 66.4094 67.2693 66.4094 67.7654V72.7595H65.2102V67.5057C65.2102 67.0696 65.0696 66.7183 64.7858 66.452C64.5032 66.1824 64.1389 66.0475 63.6927 66.0475C63.3858 66.0475 63.0995 66.1291 62.8335 66.2922C62.5702 66.4553 62.3567 66.6818 62.1943 66.9715C62.0345 67.2577 61.9539 67.589 61.9539 67.9652V72.7595H60.7765Z" fill="black"/>
<path d="M184.709 45.9114C189.652 45.9114 193.659 41.9047 193.659 36.9621C193.659 32.0195 189.652 28.0127 184.709 28.0127C179.767 28.0127 175.76 32.0195 175.76 36.9621C175.76 41.9047 179.767 45.9114 184.709 45.9114Z" stroke="black" stroke-linecap="round" stroke-linejoin="round"/>
<path d="M184.709 40.7975V36.962" stroke="black" stroke-width="1.5" stroke-linecap="round" stroke-linejoin="round"/>
<path d="M184.709 33.3826H184.72" stroke="black" stroke-width="1.5" stroke-linecap="round" stroke-linejoin="round"/>
<path d="M23.5947 146.911V145.487L27.9994 140.924C28.4698 140.428 28.8576 139.994 29.1626 139.621C29.472 139.244 29.7029 138.886 29.8554 138.546C30.0079 138.207 30.0843 137.848 30.0843 137.466C30.0843 137.034 29.9826 136.661 29.7792 136.347C29.5758 136.03 29.2982 135.786 28.9465 135.616C28.5948 135.443 28.1986 135.356 27.7579 135.356C27.2918 135.356 26.885 135.451 26.5375 135.642C26.1901 135.833 25.9232 136.102 25.7367 136.45C25.5503 136.797 25.457 137.204 25.457 137.669H23.582C23.582 136.878 23.7642 136.185 24.1286 135.592C24.4931 134.998 24.9931 134.538 25.6286 134.212C26.2643 133.881 26.9868 133.716 27.796 133.716C28.6139 133.716 29.3343 133.88 29.9572 134.206C30.5843 134.528 31.0737 134.968 31.4254 135.528C31.7771 136.083 31.9529 136.71 31.9529 137.408C31.9529 137.892 31.8619 138.365 31.6797 138.826C31.5017 139.288 31.1903 139.803 30.7452 140.371C30.3003 140.934 29.6817 141.618 28.8893 142.424L26.3024 145.132V145.228H32.1627V146.911H23.5947ZM34.5716 146.911V145.487L38.9765 140.924C39.4468 140.428 39.8345 139.994 40.1396 139.621C40.4489 139.244 40.6798 138.886 40.8325 138.546C40.985 138.207 41.0612 137.848 41.0612 137.466C41.0612 137.034 40.9595 136.661 40.7561 136.347C40.5527 136.03 40.2752 135.786 39.9235 135.616C39.5717 135.443 39.1755 135.356 38.7348 135.356C38.2687 135.356 37.862 135.451 37.5145 135.642C37.167 135.833 36.9001 136.102 36.7137 136.45C36.5272 136.797 36.434 137.204 36.434 137.669H34.5589C34.5589 136.878 34.7411 136.185 35.1056 135.592C35.47 134.998 35.97 134.538 36.6055 134.212C37.2412 133.881 37.9637 133.716 38.7731 133.716C39.5908 133.716 40.3112 133.88 40.9341 134.206C41.5612 134.528 42.0506 134.968 42.4023 135.528C42.754 136.083 42.9299 136.71 42.9299 137.408C42.9299 137.892 42.8388 138.365 42.6566 138.826C42.4786 139.288 42.1672 139.803 41.7223 140.371C41.2774 140.934 40.6587 141.618 39.8663 142.424L37.2793 145.132V145.228H43.1396V146.911H34.5716ZM54.6775 146.911H50.4635V133.894H54.811C56.0865 133.894 57.1818 134.155 58.0971 134.676C59.0125 135.193 59.7137 135.937 60.2009 136.907C60.6925 137.873 60.9386 139.032 60.9386 140.383C60.9386 141.74 60.6905 142.905 60.1947 143.88C59.7031 144.854 58.9912 145.605 58.059 146.129C57.1267 146.651 55.9996 146.911 54.6775 146.911ZM52.4275 145.196H54.5695C55.5611 145.196 56.3852 145.009 57.0421 144.636C57.6988 144.259 58.1904 143.714 58.5167 143.002C58.8429 142.286 59.0061 141.414 59.0061 140.383C59.0061 139.362 58.8429 138.496 58.5167 137.784C58.1946 137.072 57.7136 136.531 57.0738 136.163C56.4339 135.795 55.6394 135.611 54.6903 135.611H52.4275V145.196ZM66.0692 147.127C65.4504 147.127 64.8917 147.014 64.3918 146.785C63.8906 146.551 63.4956 146.215 63.2028 145.774C62.9139 145.332 62.7707 144.793 62.7707 144.152C62.7707 143.601 62.8768 143.149 63.0877 142.792C63.3 142.437 63.5863 142.155 63.9469 141.947C64.3061 141.74 64.7089 141.583 65.1538 141.477C65.5987 141.37 66.0525 141.29 66.5141 141.235C67.0983 141.167 67.5739 141.112 67.9383 141.07C68.3027 141.024 68.5673 140.95 68.7322 140.848C68.8972 140.747 68.9803 140.58 68.9803 140.352V140.308C68.9803 139.752 68.823 139.322 68.5098 139.017C68.2004 138.712 67.7388 138.559 67.1239 138.559C66.4847 138.559 65.9797 138.701 65.6115 138.985C65.2471 139.265 64.9952 139.577 64.8546 139.919L63.0686 139.513C63.2808 138.92 63.5902 138.441 63.9967 138.076C64.4084 137.708 64.8802 137.44 65.4146 137.275C65.949 137.105 66.5102 137.021 67.0983 137.021C67.4883 137.021 67.9025 137.068 68.3385 137.162C68.7795 137.25 69.1899 137.415 69.5709 137.656C69.957 137.898 70.2728 138.243 70.5183 138.693C70.7637 139.138 70.8877 139.716 70.8877 140.428V146.911H69.0314V145.577H68.9547C68.832 145.822 68.6479 146.064 68.4024 146.302C68.1556 146.538 67.8399 146.735 67.455 146.892C67.0689 147.049 66.6074 147.127 66.0692 147.127ZM66.4821 145.602C67.0076 145.602 67.4576 145.499 67.8296 145.29C68.2068 145.083 68.4932 144.812 68.6875 144.477C68.8869 144.138 68.9866 143.775 68.9866 143.39V142.131C68.9189 142.199 68.7872 142.263 68.5929 142.323C68.4024 142.378 68.1838 142.426 67.9383 142.469C67.6915 142.507 67.4525 142.543 67.2198 142.576C66.9871 142.607 66.7915 142.631 66.6355 142.653C66.266 142.699 65.9298 142.778 65.6242 142.888C65.3238 142.998 65.0822 143.156 64.8993 143.365C64.7216 143.568 64.6321 143.839 64.6321 144.178C64.6321 144.648 64.806 145.005 65.1538 145.246C65.5015 145.483 65.9439 145.602 66.4821 145.602ZM74.2706 150.573C73.9868 150.573 73.7273 150.549 73.4946 150.503C73.2619 150.46 73.088 150.413 72.9729 150.363L73.4306 148.806C73.7784 148.898 74.0878 148.939 74.3588 148.926C74.6299 148.913 74.8702 148.812 75.0773 148.621C75.2896 148.43 75.4762 148.12 75.6373 147.687L75.8713 147.038L72.2992 137.149H74.3333L76.8058 144.725H76.9081L79.3807 137.149H81.4212L77.3978 148.214C77.2111 148.723 76.9733 149.153 76.6857 149.504C76.3967 149.861 76.0541 150.128 75.6552 150.306C75.2576 150.483 74.7961 150.573 74.2706 150.573ZM90.5227 139.532L88.8006 139.838C88.7277 139.616 88.6139 139.407 88.4566 139.207C88.3045 139.009 88.0974 138.845 87.834 138.719C87.5719 138.591 87.2434 138.527 86.8483 138.527C86.3113 138.527 85.8613 138.649 85.5008 138.89C85.1415 139.127 84.9613 139.435 84.9613 139.812C84.9613 140.138 85.0814 140.4 85.3231 140.6C85.5647 140.799 85.9547 140.963 86.4929 141.089L88.0437 141.445C88.9425 141.653 89.6111 141.973 90.0522 142.405C90.4933 142.837 90.7132 143.398 90.7132 144.09C90.7132 144.674 90.5444 145.196 90.2043 145.653C89.8706 146.106 89.4014 146.463 88.8006 146.721C88.2022 146.979 87.5093 147.108 86.7217 147.108C85.6286 147.108 84.7363 146.876 84.0459 146.409C83.3555 145.938 82.931 145.271 82.7751 144.407L84.611 144.127C84.726 144.606 84.9613 144.968 85.3167 145.215C85.6734 145.456 86.1375 145.577 86.709 145.577C87.3316 145.577 87.8302 145.448 88.2022 145.189C88.5755 144.926 88.7622 144.606 88.7622 144.229C88.7622 143.924 88.6471 143.668 88.4183 143.459C88.1945 143.252 87.8494 143.095 87.3827 142.99L85.7296 142.627C84.8194 142.42 84.1456 142.089 83.7084 141.636C83.2762 141.183 83.0602 140.608 83.0602 139.913C83.0602 139.338 83.2213 138.833 83.5434 138.401C83.8656 137.968 84.3105 137.631 84.8782 137.391C85.4458 137.144 86.0966 137.021 86.8304 137.021C87.8852 137.021 88.7149 137.25 89.3209 137.708C89.9269 138.161 90.3283 138.769 90.5227 139.532Z" fill="black"/>
<path d="M29.1735 155.861C29.1135 155.354 28.8705 154.962 28.4442 154.682C28.0181 154.402 27.4955 154.263 26.8762 154.263C26.4233 154.263 26.0271 154.335 25.6876 154.483C25.3513 154.628 25.0882 154.83 24.8985 155.087C24.7121 155.343 24.6189 155.634 24.6189 155.96C24.6189 156.234 24.6837 156.468 24.8136 156.665C24.9468 156.858 25.1166 157.019 25.3229 157.149C25.5294 157.276 25.7459 157.381 25.9722 157.464C26.1986 157.543 26.4067 157.608 26.5964 157.658L27.6352 157.938C27.9016 158.009 28.1979 158.104 28.5241 158.228C28.8539 158.351 29.1684 158.519 29.468 158.732C29.771 158.942 30.0207 159.212 30.2172 159.541C30.4136 159.871 30.5118 160.275 30.5118 160.755C30.5118 161.307 30.3669 161.807 30.0774 162.253C29.791 162.699 29.3715 163.053 28.8188 163.317C28.2695 163.58 27.602 163.712 26.8162 163.712C26.0838 163.712 25.4495 163.593 24.9135 163.356C24.3808 163.12 23.9612 162.791 23.6549 162.368C23.352 161.945 23.1806 161.454 23.1406 160.895H24.4191C24.4523 161.281 24.5822 161.601 24.8086 161.853C25.0384 162.104 25.3279 162.29 25.6776 162.413C26.0305 162.533 26.41 162.593 26.8162 162.593C27.289 162.593 27.7135 162.516 28.0897 162.363C28.466 162.207 28.7638 161.99 28.9836 161.714C29.2034 161.434 29.3132 161.108 29.3132 160.734C29.3132 160.395 29.2184 160.119 29.0286 159.906C28.8388 159.692 28.5891 159.52 28.2794 159.387C27.9698 159.254 27.6352 159.136 27.2757 159.036L26.0172 158.677C25.2181 158.447 24.5855 158.12 24.1194 157.694C23.6533 157.267 23.4203 156.71 23.4203 156.021C23.4203 155.448 23.575 154.948 23.8847 154.522C24.1976 154.093 24.6171 153.76 25.1432 153.524C25.6726 153.283 26.2635 153.164 26.9161 153.164C27.5754 153.164 28.1613 153.282 28.674 153.519C29.1868 153.751 29.5929 154.071 29.8925 154.477C30.1955 154.884 30.3553 155.344 30.3721 155.861H29.1735ZM32.3883 163.532V155.861H33.567V163.532H32.3883ZM32.9876 154.582C32.758 154.582 32.5598 154.504 32.3933 154.347C32.2302 154.191 32.1486 154.003 32.1486 153.783C32.1486 153.563 32.2302 153.375 32.3933 153.219C32.5598 153.062 32.758 152.984 32.9876 152.984C33.2173 152.984 33.4138 153.062 33.577 153.219C33.7434 153.375 33.8266 153.563 33.8266 153.783C33.8266 154.003 33.7434 154.191 33.577 154.347C33.4138 154.504 33.2173 154.582 32.9876 154.582ZM36.9042 158.918V163.532H35.7257V155.861H36.8643V157.059H36.9642C37.1439 156.67 37.417 156.357 37.7832 156.12C38.1494 155.881 38.6222 155.761 39.2015 155.761C39.7209 155.761 40.1753 155.867 40.5649 156.081C40.9544 156.29 41.2574 156.61 41.4737 157.039C41.6902 157.465 41.7985 158.005 41.7985 158.658V163.532H40.6198V158.737C40.6198 158.135 40.4634 157.665 40.1504 157.328C39.8374 156.99 39.408 156.82 38.8619 156.82C38.4857 156.82 38.1494 156.901 37.8531 157.064C37.5601 157.227 37.3288 157.465 37.1589 157.778C36.9891 158.092 36.9042 158.471 36.9042 158.918ZM47.0684 163.691C46.3492 163.691 45.7299 163.521 45.2106 163.183C44.6912 162.843 44.2916 162.375 44.012 161.779C43.7323 161.183 43.5926 160.502 43.5926 159.736C43.5926 158.957 43.7356 158.269 44.022 157.674C44.3117 157.074 44.7146 156.606 45.2306 156.27C45.75 155.931 46.3559 155.761 47.0484 155.761C47.5878 155.761 48.0739 155.861 48.5067 156.06C48.9396 156.26 49.2941 156.54 49.5705 156.899C49.8468 157.259 50.0182 157.679 50.0848 158.158H48.9062C48.8163 157.808 48.6166 157.498 48.307 157.229C48.0006 156.956 47.5878 156.82 47.0684 156.82C46.6089 156.82 46.206 156.94 45.8598 157.179C45.5169 157.415 45.2488 157.75 45.0558 158.182C44.8661 158.612 44.7711 159.117 44.7711 159.696C44.7711 160.289 44.8644 160.805 45.0508 161.244C45.2405 161.684 45.507 162.026 45.8499 162.268C46.1961 162.511 46.6022 162.633 47.0684 162.633C47.3747 162.633 47.6528 162.579 47.9025 162.473C48.1521 162.367 48.3635 162.213 48.5367 162.013C48.7098 161.813 48.8329 161.574 48.9062 161.294H50.0848C50.0182 161.747 49.8534 162.155 49.5904 162.518C49.3308 162.877 48.9861 163.163 48.5567 163.377C48.1304 163.587 47.6344 163.691 47.0684 163.691ZM55.024 163.691C54.2849 163.691 53.6473 163.528 53.1112 163.202C52.5785 162.872 52.1673 162.413 51.8776 161.824C51.5914 161.232 51.4482 160.541 51.4482 159.756C51.4482 158.97 51.5914 158.278 51.8776 157.679C52.1673 157.077 52.5702 156.606 53.0863 156.27C53.6056 155.931 54.2116 155.761 54.9041 155.761C55.3036 155.761 55.6981 155.827 56.0877 155.96C56.4772 156.093 56.8318 156.311 57.1514 156.61C57.471 156.907 57.7258 157.299 57.9155 157.789C58.1053 158.278 58.2002 158.88 58.2002 159.596V160.095H52.2873V159.077H57.0017C57.0017 158.644 56.915 158.258 56.7419 157.918C56.5721 157.579 56.3291 157.311 56.0128 157.114C55.6998 156.918 55.3303 156.82 54.9041 156.82C54.4346 156.82 54.0284 156.936 53.6855 157.169C53.346 157.399 53.0845 157.698 52.9014 158.069C52.7184 158.438 52.6268 158.834 52.6268 159.256V159.937C52.6268 160.516 52.7267 161.007 52.9265 161.409C53.1295 161.808 53.4109 162.114 53.7704 162.323C54.1301 162.529 54.5479 162.633 55.024 162.633C55.3336 162.633 55.6132 162.589 55.8629 162.502C56.1159 162.413 56.334 162.28 56.5171 162.104C56.7003 161.923 56.8419 161.701 56.9417 161.434L58.0803 161.753C57.9605 162.139 57.759 162.479 57.476 162.772C57.1931 163.062 56.8435 163.289 56.4272 163.451C56.0111 163.612 55.5433 163.691 55.024 163.691ZM65.1272 153.304V163.532H63.9484V153.304H65.1272ZM69.543 163.712C69.0572 163.712 68.6162 163.62 68.2198 163.437C67.8235 163.25 67.509 162.982 67.275 162.633C67.0423 162.28 66.926 161.853 66.926 161.354C66.926 160.915 67.0129 160.558 67.1855 160.286C67.3594 160.009 67.5908 159.793 67.8797 159.636C68.17 159.48 68.4896 159.364 68.8386 159.287C69.1915 159.206 69.5469 159.144 69.9023 159.097C70.3689 159.036 70.7461 158.992 71.0363 158.962C71.3291 158.929 71.5426 158.874 71.6756 158.797C71.8124 158.721 71.8801 158.588 71.8801 158.397V158.358C71.8801 157.865 71.7459 157.482 71.4761 157.21C71.2089 156.936 70.8049 156.799 70.2616 156.799C69.699 156.799 69.2579 156.923 68.9383 157.169C68.6187 157.415 68.3937 157.679 68.2646 157.959L67.1459 157.559C67.3453 157.093 67.6125 156.73 67.9449 156.471C68.2812 156.207 68.6468 156.024 69.0432 155.921C69.4433 155.815 69.8358 155.761 70.2219 155.761C70.4687 155.761 70.7512 155.79 71.0708 155.85C71.3943 155.907 71.705 156.026 72.0054 156.206C72.3084 156.385 72.559 156.656 72.7597 157.019C72.9591 157.382 73.0589 157.868 73.0589 158.478V163.532H71.8801V162.492H71.82C71.7408 162.66 71.6078 162.837 71.4211 163.027C71.2345 163.217 70.9865 163.378 70.6771 163.511C70.3664 163.645 69.9892 163.712 69.543 163.712ZM69.7233 162.652C70.1887 162.652 70.5812 162.561 70.9008 162.378C71.2243 162.194 71.4672 161.959 71.6308 161.669C71.797 161.379 71.8801 161.074 71.8801 160.755V159.676C71.8303 159.736 71.7203 159.791 71.5503 159.841C71.3841 159.888 71.191 159.929 70.9711 159.966C70.7551 159.999 70.5428 160.029 70.337 160.055C70.1337 160.078 69.9688 160.099 69.8422 160.116C69.5367 160.155 69.2503 160.22 68.9831 160.31C68.721 160.397 68.5075 160.528 68.3438 160.705C68.184 160.877 68.1048 161.114 68.1048 161.414C68.1048 161.824 68.2556 162.133 68.5586 162.343C68.8655 162.55 69.2528 162.652 69.7233 162.652ZM80.6441 157.579L79.5842 157.878C79.5178 157.702 79.4206 157.53 79.2902 157.364C79.1636 157.194 78.991 157.055 78.7711 156.945C78.5512 156.835 78.27 156.78 77.9273 156.78C77.4568 156.78 77.0656 156.887 76.7537 157.105C76.443 157.317 76.2883 157.589 76.2883 157.918C76.2883 158.212 76.3957 158.443 76.6079 158.612C76.8214 158.782 77.1538 158.924 77.6077 159.036L78.7456 159.316C79.4321 159.483 79.9422 159.738 80.2785 160.081C80.6147 160.42 80.7835 160.858 80.7835 161.394C80.7835 161.834 80.6569 162.226 80.4037 162.573C80.1544 162.919 79.8041 163.192 79.3554 163.392C78.9054 163.592 78.3825 163.691 77.7867 163.691C77.0043 163.691 76.3574 163.521 75.8447 163.183C75.332 162.843 75.0073 162.346 74.8705 161.693L75.9891 161.414C76.0953 161.827 76.2973 162.137 76.5939 162.343C76.893 162.55 77.2842 162.652 77.7675 162.652C78.316 162.652 78.7519 162.536 79.0754 162.303C79.4014 162.066 79.5651 161.784 79.5651 161.454C79.5651 161.188 79.4717 160.964 79.2851 160.785C79.0984 160.601 78.812 160.466 78.4259 160.375L77.1474 160.076C76.4456 159.91 75.9291 159.651 75.5992 159.301C75.2732 158.948 75.1096 158.507 75.1096 157.978C75.1096 157.546 75.231 157.162 75.4752 156.83C75.7207 156.496 76.0556 156.235 76.4788 156.046C76.9045 155.856 77.3878 155.761 77.9273 155.761C78.6855 155.761 79.2812 155.927 79.7146 156.26C80.1506 156.593 80.46 157.033 80.6441 157.579ZM85.8935 155.861V156.859H81.9187V155.861H85.8935ZM83.077 154.022H84.2558V161.334C84.2558 161.668 84.3031 161.917 84.4003 162.083C84.5 162.247 84.6266 162.357 84.78 162.413C84.936 162.467 85.1009 162.492 85.2748 162.492C85.4039 162.492 85.5113 162.486 85.5944 162.473C85.6775 162.456 85.744 162.442 85.7938 162.433L86.0329 163.492C85.9536 163.521 85.8424 163.552 85.6992 163.581C85.556 163.615 85.3745 163.631 85.1546 163.631C84.8209 163.631 84.4949 163.56 84.1753 163.417C83.8595 163.273 83.5961 163.056 83.3864 162.762C83.1806 162.469 83.077 162.1 83.077 161.654V154.022ZM26.8362 169.924V170.923H22.7012V169.924H26.8362ZM23.9396 177.595V168.865C23.9396 168.426 24.0428 168.06 24.2493 167.766C24.4556 167.473 24.7237 167.253 25.0533 167.108C25.3829 166.96 25.7308 166.888 26.0971 166.888C26.3868 166.888 26.6232 166.911 26.8062 166.958C26.9893 167.004 27.1259 167.047 27.2157 167.087L26.8762 168.106C26.8162 168.086 26.733 168.061 26.6265 168.032C26.5232 168.001 26.3868 167.986 26.217 167.986C25.8274 167.986 25.546 168.084 25.3729 168.281C25.2032 168.477 25.1183 168.766 25.1183 169.145V177.595H23.9396ZM31.2883 177.755C30.5959 177.755 29.9883 177.59 29.4656 177.26C28.9462 176.93 28.54 176.47 28.247 175.877C27.9574 175.285 27.8125 174.592 27.8125 173.799C27.8125 173 27.9574 172.303 28.247 171.707C28.54 171.11 28.9462 170.648 29.4656 170.319C29.9883 169.989 30.5959 169.824 31.2883 169.824C31.9809 169.824 32.5869 169.989 33.1062 170.319C33.629 170.648 34.0352 171.11 34.3247 171.707C34.6178 172.303 34.7643 173 34.7643 173.799C34.7643 174.592 34.6178 175.285 34.3247 175.877C34.0352 176.47 33.629 176.93 33.1062 177.26C32.5869 177.59 31.9809 177.755 31.2883 177.755ZM31.2883 176.696C31.8144 176.696 32.2472 176.561 32.5869 176.291C32.9265 176.022 33.1778 175.667 33.3409 175.227C33.5041 174.789 33.5856 174.312 33.5856 173.799C33.5856 173.286 33.5041 172.81 33.3409 172.366C33.1778 171.924 32.9265 171.566 32.5869 171.292C32.2472 171.02 31.8144 170.883 31.2883 170.883C30.7624 170.883 30.3295 171.02 29.9899 171.292C29.6503 171.566 29.399 171.924 29.2359 172.366C29.0727 172.81 28.9912 173.286 28.9912 173.799C28.9912 174.312 29.0727 174.789 29.2359 175.227C29.399 175.667 29.6503 176.022 29.9899 176.291C30.3295 176.561 30.7624 176.696 31.2883 176.696ZM37.742 167.367V177.595H36.5634V167.367H37.742ZM41.0793 167.367V177.595H39.9007V167.367H41.0793ZM46.3542 177.755C45.6618 177.755 45.0541 177.59 44.5314 177.26C44.012 176.93 43.6059 176.47 43.3128 175.877C43.0233 175.285 42.8784 174.592 42.8784 173.799C42.8784 173 43.0233 172.303 43.3128 171.707C43.6059 171.11 44.012 170.648 44.5314 170.319C45.0541 169.989 45.6618 169.824 46.3542 169.824C47.0468 169.824 47.6528 169.989 48.1721 170.319C48.6949 170.648 49.101 171.11 49.3906 171.707C49.6836 172.303 49.8302 173 49.8302 173.799C49.8302 174.592 49.6836 175.285 49.3906 175.877C49.101 176.47 48.6949 176.93 48.1721 177.26C47.6528 177.59 47.0468 177.755 46.3542 177.755ZM46.3542 176.696C46.8803 176.696 47.3131 176.561 47.6528 176.291C47.9923 176.022 48.2437 175.667 48.4068 175.227C48.57 174.789 48.6515 174.312 48.6515 173.799C48.6515 173.286 48.57 172.81 48.4068 172.366C48.2437 171.924 47.9923 171.566 47.6528 171.292C47.3131 171.02 46.8803 170.883 46.3542 170.883C45.8283 170.883 45.3954 171.02 45.0558 171.292C44.7162 171.566 44.4649 171.924 44.3017 172.366C44.1386 172.81 44.057 173.286 44.057 173.799C44.057 174.312 44.1386 174.789 44.3017 175.227C44.4649 175.667 44.7162 176.022 45.0558 176.291C45.3954 176.561 45.8283 176.696 46.3542 176.696ZM53.1063 177.595L50.7691 169.924H52.0075L53.6656 175.797H53.7455L55.3835 169.924H56.642L58.2601 175.777H58.34L59.998 169.924H61.2368L58.8993 177.595H57.7408L56.0627 171.702H55.9428L54.2648 177.595H53.1063ZM71.5848 174.459V169.924H72.7623V177.595H71.5848V176.296H71.5042C71.324 176.686 71.0453 177.017 70.6656 177.291C70.2858 177.56 69.8064 177.695 69.2273 177.695C68.7478 177.695 68.3221 177.59 67.9488 177.38C67.5755 177.167 67.2827 176.847 67.0692 176.421C66.857 175.992 66.7496 175.451 66.7496 174.798V169.924H67.9283V174.718C67.9283 175.277 68.0856 175.723 68.3975 176.057C68.7146 176.389 69.1173 176.555 69.607 176.555C69.8997 176.555 70.1976 176.481 70.5006 176.332C70.8075 176.182 71.0632 175.952 71.2703 175.643C71.48 175.332 71.5848 174.938 71.5848 174.459ZM74.9216 180.471V169.924H76.0607V171.142H76.2001C76.287 171.009 76.4059 170.839 76.5593 170.634C76.7166 170.424 76.9391 170.237 77.2293 170.074C77.522 169.907 77.9184 169.824 78.417 169.824C79.0639 169.824 79.6328 169.985 80.125 170.309C80.6185 170.631 81.0021 171.089 81.2795 171.682C81.5557 172.275 81.6937 172.973 81.6937 173.78C81.6937 174.592 81.5557 175.296 81.2795 175.892C81.0021 176.485 80.6198 176.944 80.1301 177.27C79.6405 177.594 79.0767 177.755 78.4374 177.755C77.9452 177.755 77.5502 177.673 77.2536 177.511C76.957 177.343 76.7294 177.155 76.5696 176.945C76.4098 176.733 76.287 176.555 76.2001 176.416H76.1004V180.471H74.9216ZM76.0799 173.759C76.0799 174.339 76.1656 174.85 76.3343 175.292C76.5044 175.732 76.7524 176.076 77.0784 176.327C77.4057 176.573 77.8046 176.696 78.2776 176.696C78.7698 176.696 79.1815 176.566 79.5114 176.306C79.8438 176.043 80.0944 175.69 80.2606 175.248C80.4306 174.801 80.515 174.305 80.515 173.759C80.515 173.22 80.4319 172.734 80.2657 172.301C80.102 171.865 79.854 171.521 79.5216 171.268C79.1917 171.011 78.7775 170.883 78.2776 170.883C77.7982 170.883 77.3955 171.004 77.0695 171.247C76.7422 171.488 76.4967 171.824 76.3305 172.256C76.163 172.686 76.0799 173.187 76.0799 173.759Z" fill="black"/>
<path d="M125.26 177.595C136.91 177.595 146.355 168.15 146.355 156.5C146.355 144.85 136.91 135.405 125.26 135.405C113.61 135.405 104.165 144.85 104.165 156.5C104.165 168.15 113.61 177.595 125.26 177.595Z" fill="black"/>
<path d="M129.896 148.215C130.135 147.975 130.419 147.786 130.732 147.655C131.046 147.526 131.381 147.46 131.719 147.46C132.058 147.46 132.393 147.526 132.706 147.655C133.02 147.786 133.303 147.975 133.544 148.215C133.783 148.455 133.973 148.738 134.102 149.052C134.232 149.365 134.299 149.7 134.299 150.039C134.299 150.377 134.232 150.712 134.102 151.026C133.973 151.339 133.783 151.623 133.544 151.863L121.233 164.173L116.218 165.541L117.586 160.526L129.896 148.215Z" fill="black" stroke="white" stroke-width="1.5" stroke-linecap="round" stroke-linejoin="round"/>
<path d="M172.564 177.595C184.214 177.595 193.659 168.15 193.659 156.5C193.659 144.85 184.214 135.405 172.564 135.405C160.913 135.405 151.469 144.85 151.469 156.5C151.469 168.15 160.913 177.595 172.564 177.595Z" fill="#00A886"/>
<path d="M181.603 150.473L169.171 164.034L163.521 157.869" fill="#00A886"/>
<path d="M181.603 150.473L169.171 164.034L163.521 157.869" stroke="white" stroke-width="1.5" stroke-linecap="round" stroke-linejoin="round"/>
</g>
<defs>
<filter id="filter0_d_449_598" x="0.3" y="0.3" width="215.4" height="210.286" filterUnits="userSpaceOnUse" color-interpolation-filters="sRGB">
<feFlood flood-opacity="0" result="BackgroundImageFix"/>
<feColorMatrix in="SourceAlpha" type="matrix" values="0 0 0 0 0 0 0 0 0 0 0 0 0 0 0 0 0 0 127 0" result="hardAlpha"/>
<feOffset dy="2"/>
<feGaussianBlur stdDeviation="3.35"/>
<feComposite in2="hardAlpha" operator="out"/>
<feColorMatrix type="matrix" values="0 0 0 0 0 0 0 0 0 0.458246 0 0 0 0 0.365506 0 0 0 0.1 0"/>
<feBlend mode="normal" in2="BackgroundImageFix" result="effect1_dropShadow_449_598"/>
<feBlend mode="normal" in="SourceGraphic" in2="effect1_dropShadow_449_598" result="shape"/>
</filter>
</defs>
</svg>
