<svg width="196" height="166" viewBox="0 0 196 166" fill="none" xmlns="http://www.w3.org/2000/svg">
<g id="Group" filter="url(#filter0_d_449_550)">
<g id="Clip path group">
<mask id="mask0_449_550" style="mask-type:luminance" maskUnits="userSpaceOnUse" x="6" y="4" width="185" height="155">
<g id="clip0_1779_49314">
<path id="Vector" d="M182.429 4H13.7381C9.46446 4 6 7.46446 6 11.7381V151.024C6 155.297 9.46446 158.762 13.7381 158.762H182.429C186.702 158.762 190.167 155.297 190.167 151.024V11.7381C190.167 7.46446 186.702 4 182.429 4Z" fill="white"/>
</g>
</mask>
<g mask="url(#mask0_449_550)">
<g id="Group_2">
<path id="Vector_2" d="M182.429 4H13.7381C9.46446 4 6 7.46446 6 11.7381V151.024C6 155.297 9.46446 158.762 13.7381 158.762H182.429C186.702 158.762 190.167 155.297 190.167 151.024V11.7381C190.167 7.46446 186.702 4 182.429 4Z" fill="white"/>
<path id="Vector_3" d="M14.7419 21.0238H13.9561L16.2291 14.8333H17.0029L19.276 21.0238H18.49L16.6402 15.8127H16.5918L14.7419 21.0238ZM15.0321 18.6057H18.1999V19.2707H15.0321V18.6057ZM23.4321 17.4207L22.7913 17.6021C22.751 17.4953 22.6916 17.3916 22.613 17.2908C22.5364 17.188 22.4317 17.1034 22.2986 17.0369C22.1656 16.9704 21.9954 16.9371 21.7878 16.9371C21.5037 16.9371 21.2669 17.0026 21.0775 17.1336C20.8901 17.2626 20.7964 17.4268 20.7964 17.6263C20.7964 17.8036 20.8608 17.9437 20.9898 18.0464C21.1188 18.1493 21.3203 18.2349 21.5943 18.3034L22.2836 18.4726C22.6986 18.5734 23.008 18.7276 23.2115 18.9352C23.415 19.1407 23.5168 19.4057 23.5168 19.7301C23.5168 19.9961 23.4403 20.2339 23.287 20.4435C23.1359 20.653 22.9244 20.8183 22.6523 20.9392C22.3803 21.0601 22.0639 21.1205 21.7032 21.1205C21.2296 21.1205 20.8377 21.0178 20.5273 20.8123C20.217 20.6067 20.0206 20.3064 19.9379 19.9115L20.615 19.7422C20.6795 19.9921 20.8014 20.1795 20.9808 20.3044C21.1622 20.4294 21.3989 20.4918 21.6911 20.4918C22.0236 20.4918 22.2876 20.4213 22.483 20.2803C22.6805 20.1372 22.7793 19.9659 22.7793 19.7664C22.7793 19.6052 22.7229 19.4702 22.61 19.3614C22.4971 19.2505 22.3239 19.1679 22.0901 19.1134L21.3163 18.9321C20.8911 18.8314 20.5787 18.6752 20.3792 18.4636C20.1817 18.25 20.083 17.983 20.083 17.6625C20.083 17.4006 20.1566 17.1689 20.3037 16.9674C20.4528 16.7659 20.6553 16.6077 20.9112 16.4928C21.1692 16.3779 21.4614 16.3205 21.7878 16.3205C22.2473 16.3205 22.6079 16.4213 22.87 16.6228C23.1339 16.8243 23.3213 17.0903 23.4321 17.4207ZM27.8793 17.4207L27.2385 17.6021C27.1982 17.4953 27.1388 17.3916 27.0601 17.2908C26.9836 17.188 26.8788 17.1034 26.7458 17.0369C26.6128 16.9704 26.4425 16.9371 26.2349 16.9371C25.9508 16.9371 25.714 17.0026 25.5246 17.1336C25.3372 17.2626 25.2435 17.4268 25.2435 17.6263C25.2435 17.8036 25.308 17.9437 25.437 18.0464C25.5659 18.1493 25.7674 18.2349 26.0415 18.3034L26.7306 18.4726C27.1458 18.5734 27.4551 18.7276 27.6587 18.9352C27.8622 19.1407 27.9639 19.4057 27.9639 19.7301C27.9639 19.9961 27.8873 20.2339 27.7342 20.4435C27.5831 20.653 27.3715 20.8183 27.0994 20.9392C26.8274 21.0601 26.511 21.1205 26.1503 21.1205C25.6768 21.1205 25.2848 21.0178 24.9745 20.8123C24.6642 20.6067 24.4677 20.3064 24.3851 19.9115L25.0622 19.7422C25.1266 19.9921 25.2486 20.1795 25.4279 20.3044C25.6092 20.4294 25.846 20.4918 26.1382 20.4918C26.4707 20.4918 26.7347 20.4213 26.9302 20.2803C27.1277 20.1372 27.2264 19.9659 27.2264 19.7664C27.2264 19.6052 27.1699 19.4702 27.0571 19.3614C26.9443 19.2505 26.771 19.1679 26.5372 19.1134L25.7634 18.9321C25.3383 18.8314 25.0259 18.6752 24.8264 18.4636C24.6289 18.25 24.5302 17.983 24.5302 17.6625C24.5302 17.4006 24.6037 17.1689 24.7508 16.9674C24.9 16.7659 25.1025 16.6077 25.3584 16.4928C25.6163 16.3779 25.9085 16.3205 26.2349 16.3205C26.6944 16.3205 27.0551 16.4213 27.3171 16.6228C27.5811 16.8243 27.7685 17.0903 27.8793 17.4207ZM29.0378 21.0238V16.381H29.7511V21.0238H29.0378ZM29.4004 15.6072C29.2614 15.6072 29.1415 15.5598 29.0408 15.4651C28.942 15.3704 28.8927 15.2565 28.8927 15.1235C28.8927 14.9905 28.942 14.8767 29.0408 14.782C29.1415 14.6872 29.2614 14.6399 29.4004 14.6399C29.5395 14.6399 29.6584 14.6872 29.7572 14.782C29.8579 14.8767 29.9083 14.9905 29.9083 15.1235C29.9083 15.2565 29.8579 15.3704 29.7572 15.4651C29.6584 15.5598 29.5395 15.6072 29.4004 15.6072ZM32.9317 22.8616C32.5871 22.8616 32.2909 22.8173 32.0431 22.7286C31.7952 22.6419 31.5886 22.5271 31.4234 22.384C31.2602 22.243 31.1302 22.0918 31.0335 21.9306L31.6018 21.5317C31.6662 21.6162 31.7479 21.713 31.8466 21.8218C31.9453 21.9327 32.0804 22.0284 32.2516 22.1089C32.425 22.1916 32.6516 22.2329 32.9317 22.2329C33.3066 22.2329 33.6158 22.1422 33.8597 21.9608C34.1035 21.7795 34.2255 21.4954 34.2255 21.1085V20.1654H34.165C34.1126 20.25 34.038 20.3548 33.9413 20.4798C33.8466 20.6026 33.7096 20.7125 33.5302 20.8092C33.3529 20.904 33.1131 20.9512 32.8109 20.9512C32.436 20.9512 32.0995 20.8626 31.8013 20.6853C31.505 20.5079 31.2703 20.25 31.0969 19.9115C30.9257 19.5729 30.84 19.1618 30.84 18.6782C30.84 18.2027 30.9237 17.7885 31.0909 17.4359C31.2582 17.0812 31.4909 16.8072 31.7891 16.6137C32.0874 16.4183 32.432 16.3205 32.8229 16.3205C33.1252 16.3205 33.365 16.3709 33.5423 16.4717C33.7216 16.5704 33.8587 16.6832 33.9534 16.8102C34.0501 16.9351 34.1247 17.0379 34.1771 17.1185H34.2496V16.381H34.9388V21.1568C34.9388 21.5558 34.8481 21.8803 34.6668 22.1301C34.4874 22.382 34.2456 22.5664 33.9413 22.6833C33.6391 22.8022 33.3025 22.8616 32.9317 22.8616ZM32.9076 20.3104C33.1937 20.3104 33.4355 20.245 33.633 20.114C33.8305 19.983 33.9806 19.7946 34.0834 19.5488C34.1861 19.3029 34.2375 19.0087 34.2375 18.6661C34.2375 18.3316 34.1871 18.0364 34.0864 17.7805C33.9856 17.5246 33.8365 17.324 33.6391 17.1789C33.4416 17.0338 33.1978 16.9613 32.9076 16.9613C32.6052 16.9613 32.3534 17.0379 32.1519 17.1911C31.9524 17.3442 31.8023 17.5497 31.7015 17.8077C31.6028 18.0656 31.5534 18.3518 31.5534 18.6661C31.5534 18.9885 31.6038 19.2737 31.7045 19.5215C31.8073 19.7674 31.9584 19.9608 32.1579 20.1019C32.3594 20.241 32.6093 20.3104 32.9076 20.3104ZM36.9579 18.2308V21.0238H36.2446V16.381H36.9338V17.1064H36.9942C37.103 16.8706 37.2683 16.6812 37.4899 16.5381C37.7116 16.393 37.9978 16.3205 38.3484 16.3205C38.6628 16.3205 38.9378 16.385 39.1736 16.514C39.4094 16.6409 39.5928 16.8343 39.7238 17.0943C39.8547 17.3522 39.9202 17.6787 39.9202 18.0737V21.0238H39.2069V18.122C39.2069 17.7573 39.1121 17.4732 38.9227 17.2696C38.7333 17.0641 38.4734 16.9613 38.1429 16.9613C37.9151 16.9613 37.7116 17.0107 37.5323 17.1094C37.355 17.2082 37.2149 17.3522 37.1122 17.5417C37.0093 17.7311 36.9579 17.9609 36.9579 18.2308ZM43.1704 21.1205C42.723 21.1205 42.3371 21.0218 42.0127 20.8243C41.6902 20.6248 41.4414 20.3467 41.266 19.9901C41.0928 19.6314 41.0061 19.2143 41.0061 18.7387C41.0061 18.2631 41.0928 17.8439 41.266 17.4812C41.4414 17.1165 41.6852 16.8323 41.9975 16.6288C42.3119 16.4233 42.6786 16.3205 43.0978 16.3205C43.3396 16.3205 43.5784 16.3608 43.8142 16.4414C44.05 16.522 44.2645 16.653 44.458 16.8343C44.6515 17.0137 44.8056 17.2515 44.9205 17.5477C45.0353 17.8439 45.0928 18.2087 45.0928 18.642V18.9442H41.5139V18.3276H44.3673C44.3673 18.0656 44.3149 17.8319 44.2101 17.6263C44.1074 17.4207 43.9603 17.2585 43.7688 17.1397C43.5794 17.0207 43.3557 16.9613 43.0978 16.9613C42.8137 16.9613 42.5678 17.0318 42.3603 17.1729C42.1548 17.3119 41.9965 17.4933 41.8857 17.717C41.7749 17.9407 41.7195 18.1805 41.7195 18.4364V18.8475C41.7195 19.1981 41.7799 19.4953 41.9008 19.7391C42.0238 19.981 42.194 20.1654 42.4117 20.2923C42.6293 20.4172 42.8822 20.4798 43.1704 20.4798C43.3577 20.4798 43.527 20.4535 43.6782 20.4011C43.8313 20.3467 43.9633 20.2661 44.0741 20.1593C44.185 20.0505 44.2706 19.9155 44.3311 19.7543L45.0203 19.9478C44.9477 20.1815 44.8258 20.3871 44.6545 20.5643C44.4832 20.7397 44.2716 20.8767 44.0197 20.9755C43.7678 21.0722 43.4847 21.1205 43.1704 21.1205ZM47.9311 21.1205C47.5442 21.1205 47.2026 21.0228 46.9064 20.8274C46.6102 20.6299 46.3784 20.3518 46.2111 19.9931C46.0439 19.6324 45.9603 19.2061 45.9603 18.7145C45.9603 18.2268 46.0439 17.8036 46.2111 17.445C46.3784 17.0863 46.6112 16.8092 46.9094 16.6137C47.2077 16.4183 47.5522 16.3205 47.9432 16.3205C48.2455 16.3205 48.4842 16.3709 48.6596 16.4717C48.8369 16.5704 48.9719 16.6832 49.0646 16.8102C49.1593 16.9351 49.2329 17.0379 49.2853 17.1185H49.3457V14.8333H50.0591V21.0238H49.3699V20.3104H49.2853C49.2329 20.3951 49.1583 20.5019 49.0615 20.6309C48.9648 20.7578 48.8269 20.8717 48.6475 20.9724C48.4681 21.0712 48.2293 21.1205 47.9311 21.1205ZM48.0278 20.4798C48.314 20.4798 48.5558 20.4052 48.7533 20.256C48.9507 20.1049 49.1009 19.8964 49.2036 19.6303C49.3064 19.3624 49.3578 19.053 49.3578 18.7024C49.3578 18.3558 49.3074 18.0525 49.2066 17.7925C49.1059 17.5306 48.9568 17.3271 48.7593 17.182C48.5618 17.0349 48.318 16.9613 48.0278 16.9613C47.7256 16.9613 47.4737 17.0389 47.2721 17.1941C47.0726 17.3472 46.9225 17.5558 46.8218 17.8198C46.723 18.0817 46.6736 18.3759 46.6736 18.7024C46.6736 19.0329 46.724 19.3331 46.8248 19.6032C46.9275 19.8712 47.0787 20.0848 47.2782 20.244C47.4797 20.4011 47.7296 20.4798 48.0278 20.4798ZM59.1786 17.9286C59.1786 18.5814 59.0606 19.1457 58.8249 19.6213C58.5891 20.0969 58.2657 20.4636 57.8546 20.7216C57.4435 20.9795 56.974 21.1085 56.446 21.1085C55.918 21.1085 55.4485 20.9795 55.0374 20.7216C54.6263 20.4636 54.3029 20.0969 54.0672 19.6213C53.8314 19.1457 53.7135 18.5814 53.7135 17.9286C53.7135 17.2756 53.8314 16.7115 54.0672 16.2359C54.3029 15.7603 54.6263 15.3936 55.0374 15.1356C55.4485 14.8777 55.918 14.7487 56.446 14.7487C56.974 14.7487 57.4435 14.8777 57.8546 15.1356C58.2657 15.3936 58.5891 15.7603 58.8249 16.2359C59.0606 16.7115 59.1786 17.2756 59.1786 17.9286ZM58.4531 17.9286C58.4531 17.3926 58.3634 16.9402 58.1841 16.5714C58.0067 16.2026 57.7659 15.9236 57.4616 15.7341C57.1594 15.5447 56.8208 15.45 56.446 15.45C56.0712 15.45 55.7316 15.5447 55.4274 15.7341C55.1251 15.9236 54.8843 16.2026 54.7049 16.5714C54.5276 16.9402 54.439 17.3926 54.439 17.9286C54.439 18.4646 54.5276 18.917 54.7049 19.2858C54.8843 19.6546 55.1251 19.9336 55.4274 20.123C55.7316 20.3125 56.0712 20.4072 56.446 20.4072C56.8208 20.4072 57.1594 20.3125 57.4616 20.123C57.7659 19.9336 58.0067 19.6546 58.1841 19.2858C58.3634 18.917 58.4531 18.4646 58.4531 17.9286ZM61.0556 18.2308V21.0238H60.3423V16.381H61.0315V17.1064H61.0919C61.2007 16.8706 61.366 16.6812 61.5876 16.5381C61.8093 16.393 62.0954 16.3205 62.4461 16.3205C62.7604 16.3205 63.0355 16.385 63.2712 16.514C63.507 16.6409 63.6904 16.8343 63.8214 17.0943C63.9524 17.3522 64.0179 17.6787 64.0179 18.0737V21.0238H63.3045V18.122C63.3045 17.7573 63.2098 17.4732 63.0204 17.2696C62.8309 17.0641 62.571 16.9613 62.2405 16.9613C62.0128 16.9613 61.8093 17.0107 61.6299 17.1094C61.4526 17.2082 61.3126 17.3522 61.2098 17.5417C61.107 17.7311 61.0556 17.9609 61.0556 18.2308ZM14.3792 33.4048V32.8607L16.4225 30.6239C16.6623 30.3619 16.8599 30.1342 17.015 29.9407C17.1702 29.7453 17.285 29.562 17.3596 29.3906C17.4361 29.2173 17.4744 29.036 17.4744 28.8466C17.4744 28.6289 17.422 28.4405 17.3173 28.2813C17.2145 28.1221 17.0734 27.9992 16.8941 27.9125C16.7148 27.8259 16.5132 27.7826 16.2896 27.7826C16.0518 27.7826 15.8442 27.832 15.6669 27.9307C15.4915 28.0274 15.3555 28.1635 15.2588 28.3387C15.164 28.5141 15.1168 28.7196 15.1168 28.9554H14.4034C14.4034 28.5926 14.487 28.2743 14.6543 28.0002C14.8215 27.7262 15.0492 27.5125 15.3374 27.3594C15.6276 27.2062 15.953 27.1296 16.3137 27.1296C16.6765 27.1296 16.9978 27.2062 17.2779 27.3594C17.5581 27.5125 17.7777 27.7191 17.9369 27.9791C18.0961 28.239 18.1757 28.5281 18.1757 28.8466C18.1757 29.0742 18.1344 29.2969 18.0518 29.5146C17.9712 29.7302 17.8301 29.971 17.6286 30.237C17.4291 30.501 17.152 30.8234 16.7973 31.2042L15.4069 32.6914V32.7398H18.2845V33.4048H14.3792ZM21.4674 33.4894C21.1127 33.4894 20.7934 33.4189 20.5092 33.2778C20.2251 33.1367 19.9973 32.9433 19.8261 32.6974C19.6548 32.4516 19.5611 32.1715 19.545 31.8572H20.2704C20.2987 32.1373 20.4256 32.369 20.6513 32.5523C20.879 32.7337 21.151 32.8244 21.4674 32.8244C21.7213 32.8244 21.947 32.765 22.1445 32.6461C22.344 32.5272 22.5001 32.3639 22.613 32.1564C22.7279 31.9468 22.7853 31.7101 22.7853 31.446C22.7853 31.176 22.7259 30.9352 22.6069 30.7237C22.4901 30.51 22.3289 30.3418 22.1233 30.2188C21.9178 30.096 21.683 30.0334 21.4191 30.0314C21.2296 30.0294 21.0352 30.0587 20.8357 30.1191C20.6362 30.1775 20.4719 30.2531 20.343 30.3458L19.6417 30.2612L20.0165 27.2143H23.2326V27.8793H20.6453L20.4276 29.705H20.4639C20.5909 29.6042 20.75 29.5206 20.9415 29.4541C21.1329 29.3876 21.3324 29.3543 21.5399 29.3543C21.9188 29.3543 22.2563 29.445 22.5525 29.6264C22.8508 29.8058 23.0845 30.0516 23.2538 30.3639C23.4251 30.6763 23.5107 31.033 23.5107 31.434C23.5107 31.8289 23.4221 32.1816 23.2448 32.4919C23.0694 32.8002 22.8276 33.0441 22.5193 33.2234C22.211 33.4007 21.8604 33.4894 21.4674 33.4894ZM25.0108 33.4531C24.8617 33.4531 24.7337 33.3997 24.6269 33.293C24.5201 33.1861 24.4667 33.0582 24.4667 32.9091C24.4667 32.76 24.5201 32.632 24.6269 32.5252C24.7337 32.4184 24.8617 32.3649 25.0108 32.3649C25.1599 32.3649 25.2879 32.4184 25.3947 32.5252C25.5014 32.632 25.5548 32.76 25.5548 32.9091C25.5548 33.0078 25.5297 33.0985 25.4793 33.1811C25.431 33.2637 25.3654 33.3302 25.2828 33.3806C25.2022 33.429 25.1115 33.4531 25.0108 33.4531ZM28.6259 33.4894C28.1705 33.4894 27.7826 33.3655 27.4622 33.1176C27.1418 32.8677 26.8969 32.506 26.7276 32.0325C26.5584 31.5569 26.4737 30.9826 26.4737 30.3095C26.4737 29.6405 26.5584 29.0692 26.7276 28.5957C26.8989 28.1201 27.1448 27.7574 27.4652 27.5075C27.7876 27.2556 28.1745 27.1296 28.6259 27.1296C29.0773 27.1296 29.4632 27.2556 29.7836 27.5075C30.106 27.7574 30.3518 28.1201 30.5211 28.5957C30.6924 29.0692 30.7781 29.6405 30.7781 30.3095C30.7781 30.9826 30.6934 31.5569 30.5242 32.0325C30.3549 32.506 30.11 32.8677 29.7897 33.1176C29.4692 33.3655 29.0813 33.4894 28.6259 33.4894ZM28.6259 32.8244C29.0773 32.8244 29.4279 32.6067 29.6778 32.1715C29.9276 31.7362 30.0526 31.1156 30.0526 30.3095C30.0526 29.7735 29.9952 29.317 29.8804 28.9403C29.7675 28.5634 29.6043 28.2763 29.3906 28.0788C29.1791 27.8813 28.9242 27.7826 28.6259 27.7826C28.1785 27.7826 27.8289 28.0032 27.577 28.4445C27.3252 28.8839 27.1992 29.5055 27.1992 30.3095C27.1992 30.8456 27.2556 31.3009 27.3685 31.6758C27.4813 32.0506 27.6435 32.3358 27.8551 32.5312C28.0687 32.7267 28.3256 32.8244 28.6259 32.8244ZM33.9096 33.4894C33.4944 33.4894 33.1277 33.4158 32.8093 33.2687C32.493 33.1196 32.246 32.9151 32.0688 32.6551C31.8914 32.3932 31.8037 32.0949 31.8057 31.7604C31.8037 31.4985 31.8551 31.2567 31.96 31.035C32.0647 30.8113 32.2078 30.6249 32.3891 30.4758C32.5725 30.3246 32.777 30.2289 33.0028 30.1887V30.1524C32.7065 30.0758 32.4708 29.9096 32.2954 29.6536C32.1201 29.3957 32.0335 29.1025 32.0355 28.774C32.0335 28.4597 32.1131 28.1785 32.2743 27.9307C32.4355 27.6828 32.6572 27.4874 32.9393 27.3443C33.2234 27.2012 33.5468 27.1296 33.9096 27.1296C34.2682 27.1296 34.5887 27.2012 34.8708 27.3443C35.1529 27.4874 35.3746 27.6828 35.5357 27.9307C35.699 28.1785 35.7817 28.4597 35.7837 28.774C35.7817 29.1025 35.692 29.3957 35.5146 29.6536C35.3393 29.9096 35.1066 30.0758 34.8164 30.1524V30.1887C35.04 30.2289 35.2415 30.3246 35.4209 30.4758C35.6003 30.6249 35.7434 30.8113 35.8501 31.035C35.9569 31.2567 36.0113 31.4985 36.0133 31.7604C36.0113 32.0949 35.9206 32.3932 35.7413 32.6551C35.564 32.9151 35.3171 33.1196 35.0007 33.2687C34.6864 33.4158 34.3226 33.4894 33.9096 33.4894ZM33.9096 32.8244C34.1897 32.8244 34.4315 32.7791 34.635 32.6884C34.8385 32.5977 34.9957 32.4698 35.1066 32.3045C35.2174 32.1393 35.2738 31.9458 35.2758 31.7241C35.2738 31.4904 35.2134 31.2838 35.0944 31.1045C34.9756 30.9252 34.8134 30.7841 34.6078 30.6813C34.4043 30.5786 34.1715 30.5271 33.9096 30.5271C33.6456 30.5271 33.4098 30.5786 33.2022 30.6813C32.9967 30.7841 32.8345 30.9252 32.7156 31.1045C32.5987 31.2838 32.5413 31.4904 32.5433 31.7241C32.5413 31.9458 32.5947 32.1393 32.7035 32.3045C32.8143 32.4698 32.9725 32.5977 33.1781 32.6884C33.3836 32.7791 33.6275 32.8244 33.9096 32.8244ZM33.9096 29.8863C34.1312 29.8863 34.3277 29.842 34.499 29.7533C34.6723 29.6647 34.8083 29.5408 34.907 29.3816C35.0058 29.2224 35.0562 29.036 35.0582 28.8223C35.0562 28.6128 35.0068 28.4304 34.9101 28.2753C34.8134 28.1181 34.6794 27.9972 34.508 27.9125C34.3368 27.8259 34.1373 27.7826 33.9096 27.7826C33.6778 27.7826 33.4753 27.8259 33.302 27.9125C33.1287 27.9972 32.9947 28.1181 32.9 28.2753C32.8053 28.4304 32.7589 28.6128 32.7609 28.8223C32.7589 29.036 32.8063 29.2224 32.903 29.3816C33.0018 29.5408 33.1378 29.6647 33.311 29.7533C33.4844 29.842 33.6839 29.8863 33.9096 29.8863ZM37.5126 33.4531C37.3635 33.4531 37.2356 33.3997 37.1287 33.293C37.0219 33.1861 36.9685 33.0582 36.9685 32.9091C36.9685 32.76 37.0219 32.632 37.1287 32.5252C37.2356 32.4184 37.3635 32.3649 37.5126 32.3649C37.6617 32.3649 37.7897 32.4184 37.8965 32.5252C38.0033 32.632 38.0567 32.76 38.0567 32.9091C38.0567 33.0078 38.0315 33.0985 37.9811 33.1811C37.9328 33.2637 37.8673 33.3302 37.7847 33.3806C37.704 33.429 37.6133 33.4531 37.5126 33.4531ZM39.3247 33.4048V32.8607L41.3681 30.6239C41.6079 30.3619 41.8054 30.1342 41.9605 29.9407C42.1157 29.7453 42.2305 29.562 42.3051 29.3906C42.3817 29.2173 42.4199 29.036 42.4199 28.8466C42.4199 28.6289 42.3676 28.4405 42.2628 28.2813C42.16 28.1221 42.019 27.9992 41.8396 27.9125C41.6603 27.8259 41.4587 27.7826 41.2351 27.7826C40.9973 27.7826 40.7898 27.832 40.6124 27.9307C40.4371 28.0274 40.301 28.1635 40.2043 28.3387C40.1097 28.5141 40.0623 28.7196 40.0623 28.9554H39.3489C39.3489 28.5926 39.4326 28.2743 39.5998 28.0002C39.767 27.7262 39.9947 27.5125 40.2829 27.3594C40.5731 27.2062 40.8986 27.1296 41.2592 27.1296C41.622 27.1296 41.9434 27.2062 42.2235 27.3594C42.5036 27.5125 42.7233 27.7191 42.8824 27.9791C43.0416 28.239 43.1212 28.5281 43.1212 28.8466C43.1212 29.0742 43.0799 29.2969 42.9973 29.5146C42.9167 29.7302 42.7757 29.971 42.5741 30.237C42.3746 30.501 42.0976 30.8234 41.7429 31.2042L40.3525 32.6914V32.7398H43.23V33.4048H39.3247ZM46.4976 33.4894C46.0421 33.4894 45.6542 33.3655 45.3339 33.1176C45.0134 32.8677 44.7686 32.506 44.5993 32.0325C44.4301 31.5569 44.3454 30.9826 44.3454 30.3095C44.3454 29.6405 44.4301 29.0692 44.5993 28.5957C44.7706 28.1201 45.0165 27.7574 45.3369 27.5075C45.6593 27.2556 46.0462 27.1296 46.4976 27.1296C46.949 27.1296 47.3349 27.2556 47.6553 27.5075C47.9777 27.7574 48.2235 28.1201 48.3928 28.5957C48.5641 29.0692 48.6497 29.6405 48.6497 30.3095C48.6497 30.9826 48.5651 31.5569 48.3958 32.0325C48.2265 32.506 47.9817 32.8677 47.6613 33.1176C47.3409 33.3655 46.953 33.4894 46.4976 33.4894ZM46.4976 32.8244C46.949 32.8244 47.2996 32.6067 47.5494 32.1715C47.7994 31.7362 47.9243 31.1156 47.9243 30.3095C47.9243 29.7735 47.8669 29.317 47.752 28.9403C47.6391 28.5634 47.4759 28.2763 47.2623 28.0788C47.0507 27.8813 46.7958 27.7826 46.4976 27.7826C46.0502 27.7826 45.7006 28.0032 45.4487 28.4445C45.1968 28.8839 45.0709 29.5055 45.0709 30.3095C45.0709 30.8456 45.1273 31.3009 45.2402 31.6758C45.353 32.0506 45.5152 32.3358 45.7268 32.5312C45.9404 32.7267 46.1973 32.8244 46.4976 32.8244ZM49.7984 33.4048V32.8607L51.8417 30.6239C52.0815 30.3619 52.279 30.1342 52.4341 29.9407C52.5893 29.7453 52.7042 29.562 52.7787 29.3906C52.8553 29.2173 52.8936 29.036 52.8936 28.8466C52.8936 28.6289 52.8412 28.4405 52.7364 28.2813C52.6336 28.1221 52.4926 27.9992 52.3133 27.9125C52.1339 27.8259 51.9324 27.7826 51.7087 27.7826C51.4709 27.7826 51.2633 27.832 51.086 27.9307C50.9107 28.0274 50.7747 28.1635 50.678 28.3387C50.5832 28.5141 50.5359 28.7196 50.5359 28.9554H49.8225C49.8225 28.5926 49.9062 28.2743 50.0735 28.0002C50.2407 27.7262 50.4684 27.5125 50.7566 27.3594C51.0468 27.2062 51.3721 27.1296 51.7329 27.1296C52.0956 27.1296 52.417 27.2062 52.6971 27.3594C52.9773 27.5125 53.1969 27.7191 53.356 27.9791C53.5153 28.239 53.5948 28.5281 53.5948 28.8466C53.5948 29.0742 53.5536 29.2969 53.4709 29.5146C53.3903 29.7302 53.2492 29.971 53.0477 30.237C52.8483 30.501 52.5712 30.8234 52.2165 31.2042L50.8261 32.6914V32.7398H53.7037V33.4048H49.7984ZM54.674 32.1353V31.5186L57.3944 27.2143H57.8417V28.1695H57.5395L55.484 31.4219V31.4702H59.1475V32.1353H54.674ZM57.5878 33.4048V31.9478V31.6607V27.2143H58.3012V33.4048H57.5878Z" fill="black"/>
<path id="Vector_4" d="M17.607 64.3571H14.8283V55.3528H17.7301C18.6036 55.3528 19.351 55.5331 19.9724 55.8936C20.5938 56.2512 21.0701 56.7656 21.4013 57.4368C21.7325 58.1051 21.8982 58.9053 21.8982 59.8374C21.8982 60.7753 21.731 61.5829 21.3969 62.2599C21.0628 62.9341 20.5762 63.4529 19.9373 63.8163C19.2982 64.1768 18.5215 64.3571 17.607 64.3571ZM15.9187 63.3899H17.5367C18.2812 63.3899 18.8982 63.2462 19.3876 62.959C19.8771 62.6718 20.2421 62.2629 20.4824 61.7324C20.7228 61.2018 20.8429 60.5702 20.8429 59.8374C20.8429 59.1105 20.7242 58.4847 20.4868 57.96C20.2494 57.4324 19.8947 57.0279 19.4228 56.7466C18.9509 56.4622 18.3633 56.32 17.6598 56.32H15.9187V63.3899ZM26.4179 64.4978C25.7672 64.4978 25.2059 64.3542 24.7339 64.0669C24.265 63.7768 23.903 63.3723 23.648 62.8535C23.396 62.3318 23.2699 61.725 23.2699 61.0332C23.2699 60.3415 23.396 59.7318 23.648 59.2042C23.903 58.6737 24.2577 58.2604 24.712 57.9644C25.1692 57.6655 25.7027 57.516 26.3124 57.516C26.6641 57.516 27.0114 57.5745 27.3544 57.6918C27.6973 57.8091 28.0095 57.9996 28.2908 58.2634C28.5723 58.5242 28.7964 58.8701 28.9635 59.301C29.1306 59.7318 29.2142 60.2624 29.2142 60.8925V61.3322H24.0085V60.4353H28.159C28.159 60.0543 28.0828 59.7143 27.9303 59.4153C27.7808 59.1163 27.5669 58.8803 27.2884 58.7075C27.0129 58.5345 26.6875 58.448 26.3124 58.448C25.8991 58.448 25.5415 58.5506 25.2396 58.7558C24.9406 58.958 24.7105 59.2218 24.5493 59.5472C24.3881 59.8725 24.3075 60.2213 24.3075 60.5936V61.1916C24.3075 61.7016 24.3954 62.1339 24.5713 62.4885C24.7501 62.8403 24.9977 63.1085 25.3143 63.2931C25.6309 63.4748 25.9987 63.5658 26.4179 63.5658C26.6904 63.5658 26.9367 63.5276 27.1565 63.4514C27.3793 63.3723 27.5713 63.2551 27.7325 63.0997C27.8937 62.9414 28.0182 62.745 28.1062 62.5105L29.1086 62.7919C29.0031 63.132 28.8258 63.4309 28.5766 63.6889C28.3275 63.9438 28.0197 64.1432 27.6534 64.2868C27.287 64.4275 26.8752 64.4978 26.4179 64.4978ZM30.7926 66.8896V57.6039H31.795V58.6767H31.9181C31.9943 58.5594 32.0998 58.4099 32.2346 58.2282C32.3724 58.0435 32.5688 57.8794 32.8238 57.7358C33.0817 57.5892 33.4306 57.516 33.8702 57.516C34.4388 57.516 34.94 57.6581 35.3738 57.9424C35.8076 58.2268 36.1462 58.6298 36.3895 59.1515C36.6327 59.6733 36.7544 60.2887 36.7544 60.9981C36.7544 61.7133 36.6327 62.3332 36.3895 62.8579C36.1462 63.3796 35.8091 63.7841 35.3782 64.0714C34.9474 64.3557 34.4505 64.4978 33.8878 64.4978C33.454 64.4978 33.1066 64.426 32.8458 64.2824C32.5849 64.1358 32.3841 63.9702 32.2435 63.7856C32.1028 63.5979 31.9943 63.4426 31.9181 63.3195H31.8302V66.8896H30.7926ZM31.8126 60.9805C31.8126 61.4905 31.8873 61.9404 32.0368 62.3303C32.1863 62.7172 32.4046 63.0205 32.6919 63.2404C32.9791 63.4573 33.3309 63.5658 33.7471 63.5658C34.1809 63.5658 34.5429 63.4514 34.8331 63.2228C35.1262 62.9912 35.346 62.6805 35.4925 62.2907C35.642 61.898 35.7168 61.4612 35.7168 60.9805C35.7168 60.5056 35.6435 60.0777 35.4969 59.6967C35.3533 59.3127 35.135 59.0093 34.8418 58.7865C34.5517 58.5609 34.1867 58.448 33.7471 58.448C33.325 58.448 32.9704 58.555 32.6831 58.769C32.3958 58.98 32.1789 59.2761 32.0324 59.6571C31.8859 60.0352 31.8126 60.4763 31.8126 60.9805ZM38.3372 64.3571V57.6039H39.3396V58.6239H39.4099C39.5331 58.2898 39.7558 58.0186 40.0783 57.8105C40.4006 57.6024 40.7641 57.4984 41.1687 57.4984C41.2448 57.4984 41.3401 57.4999 41.4544 57.5027C41.5687 57.5057 41.6552 57.5101 41.7138 57.516V58.5711C41.6787 58.5624 41.598 58.5491 41.472 58.5316C41.3489 58.5111 41.2185 58.5008 41.0807 58.5008C40.7524 58.5008 40.4593 58.5696 40.2014 58.7075C39.9463 58.8423 39.7441 59.0298 39.5946 59.2702C39.4481 59.5077 39.3748 59.7787 39.3748 60.0836V64.3571H38.3372ZM45.5697 64.4978C44.919 64.4978 44.3577 64.3542 43.8857 64.0669C43.4168 63.7768 43.0548 63.3723 42.7998 62.8535C42.5477 62.3318 42.4217 61.725 42.4217 61.0332C42.4217 60.3415 42.5477 59.7318 42.7998 59.2042C43.0548 58.6737 43.4095 58.2604 43.8638 57.9644C44.321 57.6655 44.8545 57.516 45.4642 57.516C45.8158 57.516 46.1632 57.5745 46.5062 57.6918C46.8491 57.8091 47.1613 57.9996 47.4426 58.2634C47.7241 58.5242 47.9482 58.8701 48.1153 59.301C48.2824 59.7318 48.3659 60.2624 48.3659 60.8925V61.3322H43.1603V60.4353H47.3108C47.3108 60.0543 47.2345 59.7143 47.0821 59.4153C46.9326 59.1163 46.7187 58.8803 46.4402 58.7075C46.1647 58.5345 45.8393 58.448 45.4642 58.448C45.0509 58.448 44.6933 58.5506 44.3913 58.7558C44.0924 58.958 43.8623 59.2218 43.7011 59.5472C43.5399 59.8725 43.4593 60.2213 43.4593 60.5936V61.1916C43.4593 61.7016 43.5472 62.1339 43.7231 62.4885C43.9019 62.8403 44.1495 63.1085 44.4661 63.2931C44.7827 63.4748 45.1505 63.5658 45.5697 63.5658C45.8422 63.5658 46.0885 63.5276 46.3083 63.4514C46.5311 63.3723 46.7231 63.2551 46.8842 63.0997C47.0455 62.9414 47.17 62.745 47.258 62.5105L48.2604 62.7919C48.1549 63.132 47.9776 63.4309 47.7284 63.6889C47.4793 63.9438 47.1715 64.1432 46.8052 64.2868C46.4388 64.4275 46.0269 64.4978 45.5697 64.4978ZM54.7279 59.1163L53.7958 59.3801C53.7372 59.2248 53.6507 59.0738 53.5364 58.9273C53.425 58.7778 53.2726 58.6547 53.0791 58.558C52.8857 58.4612 52.638 58.4129 52.3361 58.4129C51.9228 58.4129 51.5784 58.5081 51.3029 58.6986C51.0303 58.8862 50.894 59.1251 50.894 59.4153C50.894 59.6733 50.9878 59.8769 51.1754 60.0264C51.363 60.1759 51.6561 60.3005 52.0547 60.4002L53.0572 60.6463C53.661 60.7929 54.1109 61.0171 54.4069 61.3191C54.703 61.618 54.851 62.0034 54.851 62.4754C54.851 62.8623 54.7396 63.2082 54.5169 63.513C54.297 63.8178 53.9892 64.0581 53.5936 64.234C53.1978 64.4099 52.7377 64.4978 52.213 64.4978C51.5242 64.4978 50.9541 64.3483 50.5027 64.0494C50.0513 63.7504 49.7655 63.3136 49.6454 62.7392L50.6302 62.4929C50.724 62.8564 50.9013 63.129 51.1622 63.3107C51.426 63.4925 51.7704 63.5833 52.1954 63.5833C52.6791 63.5833 53.063 63.4807 53.3473 63.2756C53.6346 63.0674 53.7782 62.8183 53.7782 62.5281C53.7782 62.2936 53.6962 62.0972 53.532 61.939C53.3678 61.7778 53.1158 61.6576 52.7758 61.5785L51.6502 61.3147C51.0318 61.1681 50.5775 60.9409 50.2873 60.6332C50 60.3225 49.8564 59.9341 49.8564 59.468C49.8564 59.087 49.9634 58.7499 50.1773 58.4568C50.3942 58.1637 50.6888 57.9337 51.0611 57.7666C51.4363 57.5994 51.8612 57.516 52.3361 57.516C53.0044 57.516 53.529 57.6625 53.9101 57.9556C54.2941 58.2488 54.5667 58.6357 54.7279 59.1163ZM61.1965 59.1163L60.2643 59.3801C60.2058 59.2248 60.1193 59.0738 60.005 58.9273C59.8936 58.7778 59.7412 58.6547 59.5477 58.558C59.3543 58.4612 59.1066 58.4129 58.8047 58.4129C58.3914 58.4129 58.047 58.5081 57.7714 58.6986C57.4989 58.8862 57.3626 59.1251 57.3626 59.4153C57.3626 59.6733 57.4563 59.8769 57.644 60.0264C57.8316 60.1759 58.1247 60.3005 58.5233 60.4002L59.5257 60.6463C60.1295 60.7929 60.5794 61.0171 60.8755 61.3191C61.1716 61.618 61.3196 62.0034 61.3196 62.4754C61.3196 62.8623 61.2082 63.2082 60.9854 63.513C60.7655 63.8178 60.4578 64.0581 60.0621 64.234C59.6664 64.4099 59.2062 64.4978 58.6816 64.4978C57.9927 64.4978 57.4227 64.3483 56.9712 64.0494C56.5199 63.7504 56.2341 63.3136 56.1139 62.7392L57.0988 62.4929C57.1926 62.8564 57.3699 63.129 57.6308 63.3107C57.8946 63.4925 58.239 63.5833 58.6639 63.5833C59.1476 63.5833 59.5316 63.4807 59.8159 63.2756C60.1032 63.0674 60.2468 62.8183 60.2468 62.5281C60.2468 62.2936 60.1647 62.0972 60.0005 61.939C59.8364 61.7778 59.5843 61.6576 59.2443 61.5785L58.1188 61.3147C57.5004 61.1681 57.046 60.9409 56.7558 60.6332C56.4686 60.3225 56.325 59.9341 56.325 59.468C56.325 59.087 56.432 58.7499 56.6459 58.4568C56.8628 58.1637 57.1574 57.9337 57.5296 57.7666C57.9048 57.5994 58.3298 57.516 58.8047 57.516C59.473 57.516 59.9976 57.6625 60.3786 57.9556C60.7627 58.2488 61.0352 58.6357 61.1965 59.1163ZM62.8814 64.3571V57.6039H63.919V64.3571H62.8814ZM63.409 56.4784C63.2068 56.4784 63.0324 56.4095 62.8859 56.2717C62.7422 56.1339 62.6704 55.9683 62.6704 55.7749C62.6704 55.5814 62.7422 55.4158 62.8859 55.278C63.0324 55.1403 63.2068 55.0714 63.409 55.0714C63.6113 55.0714 63.7842 55.1403 63.9279 55.278C64.0744 55.4158 64.1477 55.5814 64.1477 55.7749C64.1477 55.9683 64.0744 56.1339 63.9279 56.2717C63.7842 56.4095 63.6113 56.4784 63.409 56.4784ZM68.5631 64.4978C67.9534 64.4978 67.4184 64.3527 66.9583 64.0625C66.501 63.7724 66.1434 63.3664 65.8854 62.8447C65.6305 62.3229 65.503 61.7133 65.503 61.0157C65.503 60.3122 65.6305 59.6982 65.8854 59.1735C66.1434 58.6488 66.501 58.2414 66.9583 57.9512C67.4184 57.661 67.9534 57.516 68.5631 57.516C69.1727 57.516 69.7061 57.661 70.1634 57.9512C70.6236 58.2414 70.9812 58.6488 71.2362 59.1735C71.4941 59.6982 71.6231 60.3122 71.6231 61.0157C71.6231 61.7133 71.4941 62.3229 71.2362 62.8447C70.9812 63.3664 70.6236 63.7724 70.1634 64.0625C69.7061 64.3527 69.1727 64.4978 68.5631 64.4978ZM68.5631 63.5658C69.0261 63.5658 69.4072 63.447 69.7061 63.2096C70.0051 62.9722 70.2264 62.66 70.3701 62.2731C70.5137 61.8862 70.5855 61.4671 70.5855 61.0157C70.5855 60.5643 70.5137 60.1437 70.3701 59.7538C70.2264 59.364 70.0051 59.0489 69.7061 58.8085C69.4072 58.5682 69.0261 58.448 68.5631 58.448C68.0999 58.448 67.7188 58.5682 67.4199 58.8085C67.1209 59.0489 66.8996 59.364 66.756 59.7538C66.6124 60.1437 66.5406 60.5643 66.5406 61.0157C66.5406 61.4671 66.6124 61.8862 66.756 62.2731C66.8996 62.66 67.1209 62.9722 67.4199 63.2096C67.7188 63.447 68.0999 63.5658 68.5631 63.5658ZM74.2446 60.2946V64.3571H73.207V57.6039H74.2094V58.6591H74.2974C74.4556 58.3161 74.696 58.0406 75.0184 57.8325C75.3408 57.6215 75.757 57.516 76.267 57.516C76.7243 57.516 77.1244 57.6097 77.4674 57.7973C77.8102 57.982 78.0771 58.2634 78.2675 58.6415C78.4578 59.0167 78.553 59.4915 78.553 60.066V64.3571H77.5157V60.1364C77.5157 59.6058 77.3779 59.1926 77.1024 58.8965C76.8269 58.5975 76.4488 58.448 75.9681 58.448C75.6368 58.448 75.3408 58.5198 75.0799 58.6634C74.822 58.8071 74.6183 59.0167 74.4689 59.2922C74.3194 59.5677 74.2446 59.9018 74.2446 60.2946ZM18.0995 77.0194H19.2953L20.2978 78.3383L20.5616 78.6904L22.0564 80.6775H20.8605L19.8757 79.3582L19.6294 79.0247L18.0995 77.0194ZM22.4258 75.3311C22.4258 76.2808 22.2543 77.1015 21.9113 77.7936C21.5684 78.4853 21.098 79.0185 20.5 79.3938C19.9021 79.7691 19.2191 79.9564 18.4512 79.9564C17.6832 79.9564 17.0003 79.7691 16.4023 79.3938C15.8044 79.0185 15.3339 78.4853 14.991 77.7936C14.648 77.1015 14.4766 76.2808 14.4766 75.3311C14.4766 74.3814 14.648 73.5607 14.991 72.869C15.3339 72.1773 15.8044 71.6439 16.4023 71.2686C17.0003 70.8935 17.6832 70.7058 18.4512 70.7058C19.2191 70.7058 19.9021 70.8935 20.5 71.2686C21.098 71.6439 21.5684 72.1773 21.9113 72.869C22.2543 73.5607 22.4258 74.3814 22.4258 75.3311ZM21.3705 75.3311C21.3705 74.5514 21.2401 73.8935 20.9793 73.3571C20.7213 72.8207 20.3711 72.4147 19.9284 72.1392C19.4888 71.8637 18.9964 71.7259 18.4512 71.7259C17.906 71.7259 17.4121 71.8637 16.9695 72.1392C16.5299 72.4147 16.1796 72.8207 15.9187 73.3571C15.6607 73.8935 15.5318 74.5514 15.5318 75.3311C15.5318 76.1108 15.6607 76.7689 15.9187 77.3053C16.1796 77.8415 16.5299 78.2478 16.9695 78.5233C17.4121 78.7987 17.906 78.9365 18.4512 78.9365C18.9964 78.9365 19.4888 78.7987 19.9284 78.5233C20.3711 78.2478 20.7213 77.8415 20.9793 77.3053C21.2401 76.7689 21.3705 76.1108 21.3705 75.3311ZM28.3744 77.0722V73.08H29.412V79.8333H28.3744V78.6904H28.3041C28.1458 79.0332 27.8995 79.3249 27.5654 79.5648C27.2313 79.8024 26.8092 79.9215 26.2992 79.9215C25.8771 79.9215 25.502 79.8287 25.1736 79.6445C24.8454 79.4565 24.5874 79.1756 24.3998 78.8003C24.2122 78.4219 24.1185 77.946 24.1185 77.3712V73.08H25.1561V77.3009C25.1561 77.7936 25.2938 78.1859 25.5694 78.4792C25.8478 78.7724 26.2025 78.9187 26.6333 78.9187C26.8913 78.9187 27.1536 78.8529 27.4203 78.7206C27.69 78.589 27.9157 78.3871 28.0974 78.1139C28.2821 77.8415 28.3744 77.4943 28.3744 77.0722ZM34.1439 79.9741C33.4932 79.9741 32.9319 79.8302 32.46 79.5431C31.991 79.253 31.629 78.8483 31.374 78.3298C31.1219 77.8083 30.9959 77.2012 30.9959 76.5094C30.9959 75.8177 31.1219 75.208 31.374 74.6804C31.629 74.1499 31.9837 73.7366 32.438 73.4406C32.8952 73.1416 33.4287 72.9921 34.0384 72.9921C34.3901 72.9921 34.7374 73.0507 35.0804 73.168C35.4233 73.2853 35.7355 73.4758 36.0169 73.7396C36.2982 74.0004 36.5225 74.3463 36.6895 74.7772C36.8566 75.208 36.9402 75.7385 36.9402 76.3687V76.8084H31.7345V75.9115H35.8849C35.8849 75.5305 35.8088 75.1905 35.6563 74.8915C35.5068 74.5925 35.2929 74.3565 35.0144 74.1837C34.7389 74.0107 34.4135 73.9242 34.0384 73.9242C33.6251 73.9242 33.2675 74.0268 32.9656 74.232C32.6666 74.4342 32.4365 74.698 32.2753 75.0234C32.1141 75.3487 32.0335 75.6975 32.0335 76.0698V76.6677C32.0335 77.1778 32.1214 77.6102 32.2973 77.9646C32.4761 78.3166 32.7238 78.5844 33.0403 78.7693C33.3569 78.9512 33.7248 79.0417 34.1439 79.0417C34.4165 79.0417 34.6627 79.0038 34.8825 78.928C35.1053 78.8483 35.2973 78.7314 35.4585 78.5759C35.6197 78.4172 35.7443 78.2215 35.8322 77.987L36.8346 78.2679C36.7291 78.6084 36.5518 78.9071 36.3026 79.1647C36.0535 79.4201 35.7457 79.619 35.3793 79.7629C35.0129 79.9037 34.6011 79.9741 34.1439 79.9741ZM43.3021 74.5925L42.37 74.8563C42.3114 74.7009 42.2249 74.55 42.1106 74.4035C41.9993 74.254 41.8468 74.1309 41.6534 74.0342C41.4599 73.9374 41.2122 73.8891 40.9104 73.8891C40.4971 73.8891 40.1526 73.9843 39.8771 74.1748C39.6046 74.3624 39.4682 74.6013 39.4682 74.8915C39.4682 75.1494 39.562 75.3531 39.7496 75.5026C39.9372 75.6521 40.2303 75.7767 40.6289 75.8764L41.6314 76.1225C42.2352 76.2691 42.6851 76.4933 42.9812 76.7953C43.2772 77.0942 43.4252 77.4796 43.4252 77.9514C43.4252 78.3383 43.3138 78.6842 43.091 78.9891C42.8712 79.294 42.5634 79.5346 42.1678 79.7103C41.7721 79.8859 41.3119 79.9741 40.7872 79.9741C40.0984 79.9741 39.5283 79.8248 39.0769 79.5253C38.6255 79.2266 38.3398 78.7902 38.2196 78.2153L39.2044 77.9692C39.2982 78.3329 39.4756 78.6053 39.7364 78.7871C40.0002 78.969 40.3446 79.0595 40.7696 79.0595C41.2532 79.0595 41.6373 78.9566 41.9216 78.7515C42.2088 78.5434 42.3524 78.2942 42.3524 78.004C42.3524 77.7696 42.2703 77.5738 42.1062 77.4152C41.9421 77.254 41.69 77.1338 41.35 77.0546L40.2245 76.7909C39.606 76.6443 39.1516 76.4171 38.8615 76.1094C38.5742 75.7987 38.4306 75.4103 38.4306 74.9442C38.4306 74.5632 38.5376 74.2261 38.7516 73.933C38.9685 73.6399 39.2631 73.4098 39.6353 73.2428C40.0105 73.0756 40.4355 72.9921 40.9104 72.9921C41.5786 72.9921 42.1033 73.1387 42.4843 73.4318C42.8683 73.7249 43.1409 74.1118 43.3021 74.5925ZM47.9241 73.08V73.9594H44.4243V73.08H47.9241ZM45.4443 71.4621H46.4819V77.8988C46.4819 78.1921 46.5245 78.4118 46.6095 78.5581C46.6974 78.702 46.8088 78.7987 46.9436 78.8483C47.0814 78.8955 47.2265 78.9187 47.3789 78.9187C47.4932 78.9187 47.587 78.9133 47.6603 78.9009C47.7336 78.8869 47.7922 78.8746 47.8361 78.8661L48.0472 79.7985C47.9769 79.8248 47.8787 79.8511 47.7526 79.8774C47.6266 79.9068 47.4668 79.9215 47.2734 79.9215C46.9803 79.9215 46.693 79.8581 46.4116 79.732C46.1332 79.6058 45.9016 79.4139 45.717 79.1562C45.5353 78.8986 45.4443 78.5728 45.4443 78.1805V71.4621ZM49.4849 79.8333V73.08H50.5225V79.8333H49.4849ZM50.0125 71.9545C49.8103 71.9545 49.6358 71.8857 49.4893 71.7479C49.3457 71.6101 49.2738 71.4445 49.2738 71.2511C49.2738 71.0576 49.3457 70.892 49.4893 70.7542C49.6358 70.6165 49.8103 70.5476 50.0125 70.5476C50.2147 70.5476 50.3877 70.6165 50.5313 70.7542C50.6778 70.892 50.7511 71.0576 50.7511 71.2511C50.7511 71.4445 50.6778 71.6101 50.5313 71.7479C50.3877 71.8857 50.2147 71.9545 50.0125 71.9545ZM55.1665 79.9741C54.5568 79.9741 54.0219 79.8287 53.5617 79.5385C53.1044 79.2483 52.7469 78.8428 52.4889 78.3205C52.2339 77.799 52.1064 77.1894 52.1064 76.4919C52.1064 75.7884 52.2339 75.1744 52.4889 74.6496C52.7469 74.125 53.1044 73.7176 53.5617 73.4274C54.0219 73.1372 54.5568 72.9921 55.1665 72.9921C55.7761 72.9921 56.3096 73.1372 56.7668 73.4274C57.227 73.7176 57.5846 74.125 57.8396 74.6496C58.0975 75.1744 58.2265 75.7884 58.2265 76.4919C58.2265 77.1894 58.0975 77.799 57.8396 78.3205C57.5846 78.8428 57.227 79.2483 56.7668 79.5385C56.3096 79.8287 55.7761 79.9741 55.1665 79.9741ZM55.1665 79.0417C55.6295 79.0417 56.0106 78.9233 56.3096 78.6858C56.6086 78.4482 56.8299 78.1364 56.9735 77.7494C57.1171 77.3624 57.1889 76.9433 57.1889 76.4919C57.1889 76.0405 57.1171 75.6198 56.9735 75.23C56.8299 74.8402 56.6086 74.5251 56.3096 74.2847C56.0106 74.0444 55.6295 73.9242 55.1665 73.9242C54.7034 73.9242 54.3223 74.0444 54.0233 74.2847C53.7243 74.5251 53.503 74.8402 53.3594 75.23C53.2158 75.6198 53.144 76.0405 53.144 76.4919C53.144 76.9433 53.2158 77.3624 53.3594 77.7494C53.503 78.1364 53.7243 78.4482 54.0233 78.6858C54.3223 78.9233 54.7034 79.0417 55.1665 79.0417ZM60.848 75.7708V79.8333H59.8104V73.08H60.8128V74.1353H60.9008C61.059 73.7923 61.2994 73.5168 61.6218 73.3087C61.9442 73.0977 62.3604 72.9921 62.8705 72.9921C63.3277 72.9921 63.7278 73.0859 64.0708 73.2735C64.4137 73.4582 64.6804 73.7396 64.8709 74.1177C65.0615 74.4929 65.1567 74.9677 65.1567 75.5422V79.8333H64.1192V75.6126C64.1192 75.082 63.9813 74.6688 63.7059 74.3727C63.4303 74.0737 63.0522 73.9242 62.5715 73.9242C62.2403 73.9242 61.9442 73.996 61.6834 74.1396C61.4254 74.2833 61.2217 74.4929 61.0723 74.7683C60.9228 75.0439 60.848 75.378 60.848 75.7708ZM68.0904 75.7708V79.8333H67.0527V73.08H68.0552V74.1353H68.1431C68.3014 73.7923 68.5418 73.5168 68.8642 73.3087C69.1866 73.0977 69.6028 72.9921 70.1128 72.9921C70.5701 72.9921 70.9701 73.0859 71.3131 73.2735C71.6561 73.4582 71.9228 73.7396 72.1133 74.1177C72.3038 74.4929 72.3991 74.9677 72.3991 75.5422V79.8333H71.3615V75.6126C71.3615 75.082 71.2237 74.6688 70.9482 74.3727C70.6727 74.0737 70.2945 73.9242 69.8138 73.9242C69.4827 73.9242 69.1866 73.996 68.9257 74.1396C68.6678 74.2833 68.4641 74.4929 68.3146 74.7683C68.1651 75.0439 68.0904 75.378 68.0904 75.7708ZM76.2824 79.9919C75.8545 79.9919 75.4661 79.9107 75.1173 79.7497C74.7685 79.5857 74.4915 79.3497 74.2864 79.0417C74.0812 78.7314 73.9786 78.3561 73.9786 77.9166C73.9786 77.5297 74.0548 77.2158 74.2072 76.9755C74.3597 76.7322 74.5633 76.5417 74.8184 76.4039C75.0734 76.2662 75.3547 76.1636 75.6625 76.0962C75.9732 76.0258 76.2854 75.9701 76.599 75.9291C77.0093 75.8764 77.342 75.8367 77.5971 75.8104C77.855 75.7811 78.0423 75.7327 78.1599 75.6653C78.2799 75.5979 78.3402 75.4806 78.3402 75.3136V75.2784C78.3402 74.8446 78.2211 74.5075 77.9843 74.2672C77.7494 74.0268 77.3933 73.9066 76.9156 73.9066C76.4202 73.9066 76.0318 74.0151 75.7504 74.232C75.4691 74.4489 75.2712 74.6804 75.1569 74.9267L74.172 74.5749C74.3479 74.1645 74.5824 73.8451 74.8755 73.6165C75.1715 73.3849 75.494 73.2237 75.8428 73.1328C76.1945 73.039 76.5403 72.9921 76.8804 72.9921C77.0973 72.9921 77.3464 73.0185 77.6278 73.0713C77.9122 73.1211 78.1862 73.2251 78.4501 73.3835C78.7171 73.5417 78.9384 73.7806 79.114 74.1001C79.2897 74.4196 79.3779 74.8475 79.3779 75.3839V79.8333H78.3402V78.9187H78.2876C78.2172 79.0657 78.0996 79.222 77.9356 79.3892C77.7714 79.5563 77.5531 79.6987 77.2805 79.8155C77.0079 79.9331 76.6752 79.9919 76.2824 79.9919ZM76.4407 79.0595C76.8511 79.0595 77.1969 78.979 77.4784 78.8181C77.7626 78.6564 77.9765 78.4482 78.1205 78.1936C78.2667 77.9383 78.3402 77.6705 78.3402 77.3888V76.4391C78.2961 76.4919 78.1994 76.5402 78.05 76.5842C77.9033 76.6253 77.7333 76.6619 77.5399 76.6941C77.3494 76.7235 77.1633 76.7498 76.9815 76.7733C76.8027 76.7938 76.6577 76.8114 76.5462 76.826C76.2766 76.8612 76.0245 76.9184 75.79 76.9975C75.5585 77.0737 75.3709 77.1894 75.2273 77.3448C75.0866 77.4973 75.0162 77.7053 75.0162 77.9692C75.0162 78.3298 75.1496 78.6022 75.4163 78.7871C75.686 78.969 76.0275 79.0595 76.4407 79.0595ZM81.2714 79.8333V73.08H82.3091V79.8333H81.2714ZM81.7991 71.9545C81.5972 71.9545 81.4223 71.8857 81.2761 71.7479C81.1321 71.6101 81.0602 71.4445 81.0602 71.2511C81.0602 71.0576 81.1321 70.892 81.2761 70.7542C81.4223 70.6165 81.5972 70.5476 81.7991 70.5476C82.0011 70.5476 82.1744 70.6165 82.3176 70.7542C82.4646 70.892 82.5381 71.0576 82.5381 71.2511C82.5381 71.4445 82.4646 71.6101 82.3176 71.7479C82.1744 71.8857 82.0011 71.9545 81.7991 71.9545ZM84.2096 79.8333V73.08H85.2116V74.1001H85.2821C85.4051 73.766 85.628 73.4948 85.9506 73.2867C86.2733 73.0786 86.6362 72.9746 87.0409 72.9746C87.1175 72.9746 87.2127 72.976 87.3265 72.9789C87.441 72.9819 87.5277 72.9863 87.5865 72.9921V74.0473C87.5509 74.0386 87.4704 74.0253 87.3443 74.0078C87.2212 73.9873 87.0912 73.977 86.9527 73.977C86.6246 73.977 86.3314 74.0458 86.0737 74.1837C85.8191 74.3185 85.6163 74.506 85.467 74.7464C85.3208 74.9839 85.2472 75.2549 85.2472 75.5598V79.8333H84.2096ZM91.4424 79.9741C90.7916 79.9741 90.2298 79.8302 89.7578 79.5431C89.2888 79.253 88.9275 78.8483 88.6721 78.3298C88.4199 77.8083 88.2937 77.2012 88.2937 76.5094C88.2937 75.8177 88.4199 75.208 88.6721 74.6804C88.9275 74.1499 89.2819 73.7366 89.7361 73.4406C90.1934 73.1416 90.7266 72.9921 91.3363 72.9921C91.6884 72.9921 92.0359 73.0507 92.3787 73.168C92.7215 73.2853 93.0333 73.4758 93.315 73.7396C93.5966 74.0004 93.8203 74.3463 93.9874 74.7772C94.1546 75.208 94.2381 75.7385 94.2381 76.3687V76.8084H89.0327V75.9115H93.1834C93.1834 75.5305 93.1068 75.1905 92.9544 74.8915C92.805 74.5925 92.5907 74.3565 92.3129 74.1837C92.0374 74.0107 91.7116 73.9242 91.3363 73.9242C90.9231 73.9242 90.5656 74.0268 90.2638 74.232C89.9652 74.4342 89.7346 74.698 89.5736 75.0234C89.4127 75.3487 89.3314 75.6975 89.3314 76.0698V76.6677C89.3314 77.1778 89.4196 77.6102 89.5953 77.9646C89.774 78.3166 90.0216 78.5844 90.3381 78.7693C90.6554 78.9512 91.023 79.0417 91.4424 79.0417C91.7147 79.0417 91.9608 79.0038 92.1806 78.928C92.4034 78.8483 92.5953 78.7314 92.7563 78.5759C92.918 78.4172 93.0426 78.2215 93.13 77.987L94.1329 78.2679C94.0277 78.6084 93.8497 78.9071 93.6005 79.1647C93.3514 79.4201 93.0442 79.619 92.6774 79.7629C92.3114 79.9037 91.8997 79.9741 91.4424 79.9741Z" fill="black"/>
<path id="Vector_5" d="M182.429 117.75H13.7381C9.46446 117.75 6 121.214 6 125.488V151.024C6 155.297 9.46446 158.762 13.7381 158.762H182.429C186.702 158.762 190.167 155.297 190.167 151.024V125.488C190.167 121.214 186.702 117.75 182.429 117.75Z" fill="#E1DFDF"/>
<path id="Vector_6" d="M17.2387 136.839C16.6309 136.837 16.1116 136.677 15.6807 136.359C15.2498 136.041 14.9202 135.577 14.692 134.97C14.4637 134.361 14.3496 133.629 14.3496 132.773C14.3496 131.918 14.4637 131.189 14.692 130.584C14.9228 129.979 15.2537 129.517 15.6845 129.199C16.118 128.881 16.6361 128.722 17.2387 128.722C17.8414 128.722 18.3583 128.882 18.7891 129.202C19.22 129.52 19.5495 129.982 19.7778 130.588C20.0086 131.19 20.124 131.918 20.124 132.773C20.124 133.632 20.0099 134.365 19.7817 134.973C19.5534 135.579 19.2238 136.041 18.793 136.362C18.3621 136.68 17.844 136.839 17.2387 136.839ZM17.2387 135.812C17.7722 135.812 18.1889 135.552 18.489 135.031C18.7917 134.511 18.943 133.758 18.943 132.773C18.943 132.119 18.8738 131.566 18.7353 131.114C18.5993 130.661 18.4031 130.317 18.1466 130.084C17.8927 129.848 17.5901 129.73 17.2387 129.73C16.7079 129.73 16.2911 129.992 15.9885 130.515C15.6858 131.038 15.5332 131.791 15.5307 132.773C15.5307 133.43 15.5986 133.985 15.7346 134.439C15.873 134.89 16.0692 135.233 16.3231 135.466C16.577 135.696 16.8822 135.812 17.2387 135.812ZM24.0894 136.816C23.6072 136.816 23.1738 136.724 22.7891 136.539C22.407 136.352 22.1018 136.096 21.8735 135.77C21.6452 135.444 21.5234 135.072 21.508 134.654H22.6621C22.6903 134.993 22.8404 135.271 23.1122 135.489C23.3841 135.707 23.7098 135.816 24.0894 135.816C24.392 135.816 24.6601 135.747 24.8935 135.608C25.1294 135.467 25.314 135.274 25.4474 135.027C25.5833 134.781 25.6513 134.5 25.6513 134.185C25.6513 133.864 25.5821 133.578 25.4436 133.327C25.305 133.075 25.114 132.878 24.8703 132.734C24.6293 132.591 24.3523 132.517 24.0394 132.515C23.8008 132.515 23.561 132.556 23.32 132.638C23.0789 132.72 22.884 132.828 22.7352 132.962L21.6465 132.8L22.0889 128.829H26.4207V129.849H23.0776L22.8275 132.053H22.8737C23.0276 131.905 23.2315 131.78 23.4854 131.68C23.7419 131.58 24.0163 131.53 24.3087 131.53C24.7883 131.53 25.2153 131.645 25.5897 131.873C25.9667 132.101 26.263 132.412 26.4785 132.808C26.6964 133.2 26.8042 133.651 26.8016 134.162C26.8042 134.672 26.6887 135.127 26.4553 135.528C26.2245 135.928 25.9039 136.243 25.4935 136.474C25.0858 136.702 24.6178 136.816 24.0894 136.816ZM31.2228 128.46L28.6837 137.893H27.6566L30.1957 128.46H31.2228ZM32.1846 136.708V135.846L34.8506 133.085C35.1353 132.784 35.37 132.521 35.5546 132.296C35.7418 132.068 35.8816 131.851 35.9739 131.645C36.0663 131.44 36.1125 131.223 36.1125 130.991C36.1125 130.73 36.0509 130.504 35.9278 130.314C35.8046 130.122 35.6367 129.975 35.4238 129.872C35.211 129.767 34.9712 129.715 34.7044 129.715C34.4223 129.715 34.1761 129.772 33.9658 129.887C33.7554 130.003 33.5939 130.166 33.481 130.376C33.3682 130.587 33.3118 130.833 33.3118 131.114H32.1769C32.1769 130.636 32.2872 130.216 32.5077 129.857C32.7283 129.498 33.0309 129.219 33.4157 129.022C33.8003 128.822 34.2377 128.722 34.7275 128.722C35.2225 128.722 35.6585 128.821 36.0355 129.018C36.4151 129.213 36.7113 129.479 36.9242 129.818C37.1371 130.154 37.2435 130.534 37.2435 130.957C37.2435 131.249 37.1884 131.535 37.078 131.815C36.9703 132.094 36.7818 132.406 36.5125 132.75C36.2432 133.091 35.8688 133.505 35.3892 133.992L33.8235 135.631V135.689H37.3704V136.708H32.1846ZM41.5715 136.839C40.9635 136.837 40.4442 136.677 40.0134 136.359C39.5825 136.041 39.2529 135.577 39.0247 134.97C38.7964 134.361 38.6823 133.629 38.6823 132.773C38.6823 131.918 38.7964 131.189 39.0247 130.584C39.2555 129.979 39.5863 129.517 40.0172 129.199C40.4507 128.881 40.9687 128.722 41.5715 128.722C42.1741 128.722 42.6909 128.882 43.1218 129.202C43.5526 129.52 43.8822 129.982 44.1105 130.588C44.3413 131.19 44.4568 131.918 44.4568 132.773C44.4568 133.632 44.3426 134.365 44.1143 134.973C43.8861 135.579 43.5565 136.041 43.1257 136.362C42.6948 136.68 42.1767 136.839 41.5715 136.839ZM41.5715 135.812C42.1049 135.812 42.5216 135.552 42.8217 135.031C43.1243 134.511 43.2757 133.758 43.2757 132.773C43.2757 132.119 43.2064 131.566 43.0679 131.114C42.932 130.661 42.7358 130.317 42.4794 130.084C42.2254 129.848 41.9228 129.73 41.5715 129.73C41.0405 129.73 40.6238 129.992 40.3211 130.515C40.0185 131.038 39.8659 131.791 39.8633 132.773C39.8633 133.43 39.9313 133.985 40.0672 134.439C40.2057 134.89 40.4019 135.233 40.6558 135.466C40.9097 135.696 41.215 135.812 41.5715 135.812ZM51.693 134.154H52.8626L53.6858 135.227L54.0744 135.704L55.3862 137.416H54.1705L53.2934 136.273L52.9933 135.858L51.693 134.154ZM55.6402 132.769C55.6402 133.61 55.4863 134.334 55.1785 134.939C54.8708 135.541 54.4488 136.006 53.9128 136.332C53.3793 136.654 52.7728 136.816 52.0932 136.816C51.4109 136.816 50.8018 136.654 50.2658 136.332C49.7324 136.006 49.3117 135.54 49.004 134.935C48.6961 134.33 48.5423 133.608 48.5423 132.769C48.5423 131.928 48.6961 131.206 49.004 130.603C49.3117 129.998 49.7324 129.534 50.2658 129.21C50.8018 128.884 51.4109 128.722 52.0932 128.722C52.7728 128.722 53.3793 128.884 53.9128 129.21C54.4488 129.534 54.8708 129.998 55.1785 130.603C55.4863 131.206 55.6402 131.928 55.6402 132.769ZM54.463 132.769C54.463 132.127 54.359 131.588 54.1514 131.149C53.9461 130.708 53.664 130.375 53.305 130.149C52.9485 129.92 52.5445 129.807 52.0932 129.807C51.6392 129.807 51.2339 129.92 50.8774 130.149C50.5209 130.375 50.2389 130.708 50.0311 131.149C49.8259 131.588 49.7234 132.127 49.7234 132.769C49.7234 133.41 49.8259 133.951 50.0311 134.392C50.2389 134.831 50.5209 135.165 50.8774 135.393C51.2339 135.618 51.6392 135.731 52.0932 135.731C52.5445 135.731 52.9485 135.618 53.305 135.393C53.664 135.165 53.9461 134.831 54.1514 134.392C54.359 133.951 54.463 133.41 54.463 132.769ZM60.7731 134.258V130.8H61.9272V136.708H60.7961V135.685H60.7346C60.5987 136 60.3807 136.263 60.0806 136.474C59.7831 136.681 59.4125 136.785 58.9688 136.785C58.5892 136.785 58.2532 136.702 57.9609 136.535C57.6711 136.366 57.4428 136.116 57.2761 135.785C57.1119 135.454 57.0299 135.045 57.0299 134.558V130.8H58.1802V134.419C58.1802 134.822 58.2917 135.143 58.5149 135.381C58.738 135.62 59.0278 135.739 59.3843 135.739C59.5997 135.739 59.8139 135.685 60.0267 135.577C60.2422 135.469 60.4204 135.307 60.5615 135.089C60.7051 134.871 60.7756 134.594 60.7731 134.258ZM66.0195 136.828C65.4374 136.828 64.9359 136.703 64.5153 136.455C64.0973 136.203 63.7741 135.85 63.5459 135.397C63.3201 134.94 63.2073 134.405 63.2073 133.793C63.2073 133.187 63.3201 132.654 63.5459 132.192C63.7741 131.73 64.0922 131.37 64.4999 131.111C64.9102 130.852 65.3899 130.722 65.9387 130.722C66.2722 130.722 66.5953 130.777 66.9082 130.888C67.2211 130.998 67.5019 131.171 67.7507 131.407C67.9995 131.643 68.1957 131.949 68.3393 132.326C68.4829 132.701 68.5547 133.157 68.5547 133.692V134.1H63.8575V133.239H67.4275C67.4275 132.936 67.366 132.668 67.2429 132.435C67.1198 132.199 66.9467 132.012 66.7235 131.877C66.503 131.741 66.2439 131.672 65.9465 131.672C65.6232 131.672 65.3412 131.752 65.1001 131.911C64.8616 132.068 64.6769 132.273 64.5461 132.527C64.4179 132.778 64.3537 133.051 64.3537 133.346V134.019C64.3537 134.414 64.423 134.75 64.5615 135.027C64.7026 135.304 64.8987 135.516 65.15 135.662C65.4015 135.805 65.695 135.877 66.031 135.877C66.2491 135.877 66.4478 135.846 66.6273 135.785C66.8069 135.721 66.9621 135.626 67.0928 135.5C67.2236 135.375 67.3237 135.22 67.3929 135.035L68.4816 135.231C68.3944 135.552 68.238 135.832 68.0123 136.074C67.7892 136.312 67.5083 136.498 67.1698 136.632C66.8338 136.763 66.4504 136.828 66.0195 136.828ZM74.2589 132.242L73.2164 132.427C73.1728 132.293 73.1036 132.166 73.0087 132.045C72.9163 131.925 72.7906 131.826 72.6316 131.75C72.4727 131.672 72.2739 131.634 72.0353 131.634C71.7096 131.634 71.4378 131.707 71.2198 131.853C71.0018 131.997 70.8928 132.183 70.8928 132.411C70.8928 132.609 70.9658 132.767 71.1121 132.888C71.2583 133.009 71.4942 133.108 71.8199 133.184L72.7586 133.4C73.3024 133.526 73.7075 133.719 73.9743 133.981C74.241 134.242 74.3744 134.582 74.3744 135.001C74.3744 135.354 74.2718 135.67 74.0666 135.947C73.864 136.221 73.5806 136.437 73.2164 136.593C72.8548 136.749 72.4355 136.828 71.9584 136.828C71.2967 136.828 70.7568 136.687 70.3388 136.404C69.9207 136.119 69.6643 135.716 69.5694 135.192L70.6812 135.023C70.7504 135.313 70.8928 135.532 71.1082 135.682C71.3237 135.828 71.6045 135.9 71.9507 135.9C72.3278 135.9 72.6291 135.822 72.8548 135.666C73.0805 135.507 73.1933 135.313 73.1933 135.085C73.1933 134.9 73.1241 134.745 72.9856 134.619C72.8497 134.494 72.6406 134.399 72.3585 134.335L71.3582 134.115C70.8069 133.99 70.3991 133.79 70.1349 133.516C69.8733 133.241 69.7425 132.893 69.7425 132.473C69.7425 132.124 69.8399 131.819 70.0349 131.557C70.2298 131.296 70.4991 131.091 70.8428 130.946C71.1865 130.796 71.5801 130.722 72.0238 130.722C72.6624 130.722 73.1651 130.861 73.5319 131.138C73.8987 131.412 74.141 131.78 74.2589 132.242ZM78.3974 130.8V131.723H75.1697V130.8H78.3974ZM76.0354 129.383H77.1857V134.973C77.1857 135.196 77.219 135.364 77.2856 135.477C77.3523 135.588 77.4382 135.663 77.5434 135.704C77.6511 135.743 77.7678 135.762 77.8934 135.762C77.9858 135.762 78.0662 135.756 78.1359 135.743C78.2048 135.73 78.2589 135.719 78.2976 135.712L78.505 136.662C78.4384 136.687 78.3433 136.714 78.2202 136.739C78.0972 136.767 77.9435 136.783 77.7588 136.785C77.4562 136.79 77.174 136.736 76.9125 136.624C76.6509 136.511 76.4393 136.336 76.2777 136.1C76.1162 135.865 76.0354 135.569 76.0354 135.212V129.383ZM79.6696 136.708V130.8H80.8202V136.708H79.6696ZM80.2507 129.887C80.0511 129.887 79.8785 129.821 79.7354 129.688C79.5945 129.551 79.5233 129.39 79.5233 129.202C79.5233 129.013 79.5945 128.851 79.7354 128.718C79.8785 128.582 80.0511 128.514 80.2507 128.514C80.4511 128.514 80.6214 128.582 80.7622 128.718C80.9061 128.851 80.9781 129.013 80.9781 129.202C80.9781 129.39 80.9061 129.551 80.7622 129.688C80.6214 129.821 80.4511 129.887 80.2507 129.887ZM84.8564 136.828C84.3024 136.828 83.8195 136.701 83.4063 136.447C82.9931 136.193 82.6727 135.838 82.4445 135.381C82.2162 134.925 82.1024 134.391 82.1024 133.781C82.1024 133.167 82.2162 132.632 82.4445 132.172C82.6727 131.713 82.9931 131.357 83.4063 131.103C83.8195 130.849 84.3024 130.722 84.8564 130.722C85.4105 130.722 85.8941 130.849 86.3073 131.103C86.7198 131.357 87.0409 131.713 87.2692 132.172C87.4967 132.632 87.6112 133.167 87.6112 133.781C87.6112 134.391 87.4967 134.925 87.2692 135.381C87.0409 135.838 86.7198 136.193 86.3073 136.447C85.8941 136.701 85.4105 136.828 84.8564 136.828ZM84.8603 135.862C85.2193 135.862 85.5173 135.767 85.7533 135.577C85.9893 135.387 86.1634 135.135 86.2764 134.819C86.3917 134.504 86.4497 134.156 86.4497 133.777C86.4497 133.4 86.3917 133.054 86.2764 132.738C86.1634 132.42 85.9893 132.165 85.7533 131.973C85.5173 131.78 85.2193 131.684 84.8603 131.684C84.4989 131.684 84.1987 131.78 83.9604 131.973C83.7243 132.165 83.5487 132.42 83.4334 132.738C83.3204 133.054 83.2639 133.4 83.2639 133.777C83.2639 134.156 83.3204 134.504 83.4334 134.819C83.5487 135.135 83.7243 135.387 83.9604 135.577C84.1987 135.767 84.4989 135.862 84.8603 135.862ZM90.0456 133.2V136.708H88.8949V130.8H89.9992V131.761H90.0727C90.2081 131.448 90.4209 131.197 90.7111 131.007C91.0036 130.817 91.3711 130.722 91.8153 130.722C92.2177 130.722 92.5705 130.807 92.8731 130.976C93.1757 131.143 93.4101 131.392 93.5773 131.723C93.7436 132.053 93.8272 132.462 93.8272 132.95V136.708H92.6765V133.088C92.6765 132.66 92.5651 132.326 92.3423 132.084C92.1186 131.84 91.8122 131.719 91.423 131.719C91.156 131.719 90.9184 131.776 90.7111 131.892C90.506 132.007 90.3427 132.176 90.222 132.4C90.1044 132.62 90.0456 132.887 90.0456 133.2ZM99.7979 132.242L98.7548 132.427C98.7115 132.293 98.6426 132.166 98.5474 132.045C98.4553 131.925 98.3292 131.826 98.1706 131.75C98.0112 131.672 97.8123 131.634 97.574 131.634C97.2482 131.634 96.9766 131.707 96.7584 131.853C96.5402 131.997 96.4318 132.183 96.4318 132.411C96.4318 132.609 96.5046 132.767 96.6508 132.888C96.7971 133.009 97.0331 133.108 97.3589 133.184L98.2975 133.4C98.8407 133.526 99.2462 133.719 99.5131 133.981C99.7801 134.242 99.9132 134.582 99.9132 135.001C99.9132 135.354 99.8103 135.67 99.6052 135.947C99.4025 136.221 99.1193 136.437 98.7548 136.593C98.3934 136.749 97.974 136.828 97.4974 136.828C96.8358 136.828 96.2956 136.687 95.8778 136.404C95.4592 136.119 95.203 135.716 95.1078 135.192L96.2198 135.023C96.2895 135.313 96.4318 135.532 96.647 135.682C96.8621 135.828 97.143 135.9 97.4896 135.9C97.8665 135.9 98.1675 135.822 98.3934 135.666C98.6194 135.507 98.7324 135.313 98.7324 135.085C98.7324 134.9 98.6627 134.745 98.5242 134.619C98.388 134.494 98.1791 134.399 97.8974 134.335L96.8969 134.115C96.3459 133.99 95.9381 133.79 95.6735 133.516C95.412 133.241 95.2812 132.893 95.2812 132.473C95.2812 132.124 95.3787 131.819 95.5737 131.557C95.7687 131.296 96.038 131.091 96.3815 130.946C96.7251 130.796 97.119 130.722 97.5624 130.722C98.2015 130.722 98.7037 130.861 99.0705 131.138C99.4373 131.412 99.6795 131.78 99.7979 132.242Z" fill="black"/>
<path id="Vector_7" d="M99.6311 144.446H15.2859C14.4312 144.446 13.7383 145.139 13.7383 145.994C13.7383 146.849 14.4312 147.542 15.2859 147.542H99.6311C100.486 147.542 101.179 146.849 101.179 145.994C101.179 145.139 100.486 144.446 99.6311 144.446Z" fill="white"/>
<path id="Vector_8" d="M21.8633 144.446H15.2859C14.4312 144.446 13.7383 145.139 13.7383 145.994C13.7383 146.849 14.4312 147.542 15.2859 147.542H21.8633C22.718 147.542 23.4109 146.849 23.4109 145.994C23.4109 145.139 22.718 144.446 21.8633 144.446Z" fill="#00A886"/>
<path id="Vector_9" d="M178.559 126.649H113.559C111.423 126.649 109.69 128.381 109.69 130.518V145.994C109.69 148.131 111.423 149.863 113.559 149.863H178.559C180.696 149.863 182.429 148.131 182.429 145.994V130.518C182.429 128.381 180.696 126.649 178.559 126.649Z" fill="#00A886"/>
<path id="Vector_10" d="M124.838 136.808H123.638C123.591 136.552 123.505 136.326 123.38 136.131C123.255 135.936 123.101 135.771 122.918 135.635C122.736 135.499 122.533 135.397 122.307 135.327C122.084 135.258 121.846 135.223 121.595 135.223C121.141 135.223 120.734 135.337 120.375 135.565C120.019 135.794 119.737 136.129 119.529 136.57C119.324 137.011 119.222 137.549 119.222 138.186C119.222 138.827 119.324 139.368 119.529 139.809C119.737 140.25 120.02 140.584 120.379 140.81C120.738 141.035 121.142 141.148 121.591 141.148C121.84 141.148 122.076 141.114 122.299 141.048C122.525 140.978 122.729 140.878 122.911 140.744C123.093 140.611 123.247 140.447 123.372 140.256C123.501 140.061 123.589 139.838 123.638 139.586L124.838 139.59C124.774 139.977 124.65 140.334 124.465 140.659C124.283 140.982 124.048 141.262 123.761 141.498C123.476 141.731 123.15 141.912 122.783 142.041C122.417 142.168 122.017 142.233 121.583 142.233C120.902 142.233 120.293 142.071 119.76 141.748C119.226 141.422 118.806 140.957 118.498 140.351C118.193 139.746 118.04 139.024 118.04 138.186C118.04 137.344 118.194 136.622 118.502 136.02C118.81 135.415 119.23 134.95 119.764 134.627C120.297 134.301 120.904 134.139 121.583 134.139C122.002 134.139 122.391 134.199 122.753 134.32C123.117 134.437 123.444 134.611 123.734 134.843C124.024 135.071 124.264 135.35 124.453 135.682C124.643 136.01 124.771 136.385 124.838 136.808ZM128.657 142.244C128.103 142.244 127.62 142.117 127.207 141.863C126.794 141.61 126.474 141.254 126.246 140.798C126.017 140.341 125.903 139.807 125.903 139.198C125.903 138.584 126.017 138.049 126.246 137.589C126.474 137.13 126.794 136.774 127.207 136.52C127.62 136.266 128.103 136.139 128.657 136.139C129.212 136.139 129.695 136.266 130.108 136.52C130.521 136.774 130.841 137.13 131.069 137.589C131.298 138.049 131.411 138.584 131.411 139.198C131.411 139.807 131.298 140.341 131.069 140.798C130.841 141.254 130.521 141.61 130.108 141.863C129.695 142.117 129.212 142.244 128.657 142.244ZM128.661 141.278C129.02 141.278 129.318 141.184 129.554 140.994C129.79 140.804 129.964 140.552 130.077 140.236C130.192 139.92 130.25 139.573 130.25 139.194C130.25 138.816 130.192 138.47 130.077 138.155C129.964 137.837 129.79 137.582 129.554 137.389C129.318 137.197 129.02 137.101 128.661 137.101C128.299 137.101 128 137.197 127.761 137.389C127.525 137.582 127.349 137.837 127.234 138.155C127.121 138.47 127.065 138.816 127.065 139.194C127.065 139.573 127.121 139.92 127.234 140.236C127.349 140.552 127.525 140.804 127.761 140.994C128 141.184 128.299 141.278 128.661 141.278ZM133.846 138.617V142.125H132.696V136.216H133.8V137.178H133.873C134.009 136.865 134.222 136.613 134.511 136.424C134.804 136.234 135.172 136.139 135.616 136.139C136.019 136.139 136.371 136.224 136.673 136.393C136.976 136.56 137.211 136.808 137.378 137.139C137.545 137.47 137.627 137.879 137.627 138.367V142.125H136.478V138.505C136.478 138.076 136.366 137.742 136.143 137.501C135.92 137.257 135.613 137.136 135.223 137.136C134.956 137.136 134.72 137.193 134.511 137.309C134.306 137.424 134.144 137.593 134.023 137.816C133.905 138.037 133.846 138.304 133.846 138.617ZM141.929 136.216V137.139H138.701V136.216H141.929ZM139.567 134.8H140.717V140.39C140.717 140.613 140.751 140.781 140.817 140.894C140.884 141.005 140.97 141.08 141.075 141.121C141.182 141.159 141.299 141.179 141.425 141.179C141.517 141.179 141.598 141.172 141.668 141.159C141.736 141.147 141.791 141.136 141.828 141.128L142.037 142.079C141.97 142.104 141.875 142.13 141.752 142.156C141.629 142.184 141.475 142.199 141.29 142.202C140.987 142.207 140.706 142.153 140.444 142.041C140.182 141.928 139.971 141.753 139.809 141.517C139.647 141.282 139.567 140.985 139.567 140.628V134.8ZM143.201 142.125V136.216H144.351V142.125H143.201ZM143.782 135.304C143.582 135.304 143.41 135.237 143.266 135.104C143.125 134.968 143.055 134.806 143.055 134.619C143.055 134.429 143.125 134.268 143.266 134.135C143.41 133.998 143.582 133.931 143.782 133.931C143.982 133.931 144.153 133.998 144.294 134.135C144.437 134.268 144.509 134.429 144.509 134.619C144.509 134.806 144.437 134.968 144.294 135.104C144.153 135.237 143.982 135.304 143.782 135.304ZM147.049 138.617V142.125H145.899V136.216H147.003V137.178H147.076C147.212 136.865 147.425 136.613 147.715 136.424C148.007 136.234 148.375 136.139 148.819 136.139C149.221 136.139 149.574 136.224 149.877 136.393C150.179 136.56 150.414 136.808 150.581 137.139C150.747 137.47 150.831 137.879 150.831 138.367V142.125H149.68V138.505C149.68 138.076 149.569 137.742 149.346 137.501C149.122 137.257 148.816 137.136 148.427 137.136C148.16 137.136 147.922 137.193 147.715 137.309C147.51 137.424 147.347 137.593 147.226 137.816C147.108 138.037 147.049 138.304 147.049 138.617ZM156.117 139.674V136.216H157.271V142.125H156.14V141.102H156.078C155.942 141.417 155.725 141.68 155.424 141.891C155.126 142.098 154.757 142.202 154.312 142.202C153.933 142.202 153.597 142.119 153.305 141.952C153.015 141.783 152.786 141.532 152.62 141.202C152.456 140.871 152.373 140.462 152.373 139.975V136.216H153.524V139.836C153.524 140.238 153.635 140.56 153.858 140.798C154.082 141.036 154.371 141.155 154.728 141.155C154.943 141.155 155.157 141.102 155.37 140.994C155.586 140.886 155.764 140.724 155.905 140.505C156.049 140.287 156.119 140.01 156.117 139.674ZM161.363 142.244C160.781 142.244 160.279 142.12 159.859 141.871C159.441 141.62 159.118 141.267 158.889 140.813C158.663 140.357 158.551 139.822 158.551 139.209C158.551 138.603 158.663 138.07 158.889 137.608C159.118 137.147 159.436 136.787 159.844 136.527C160.254 136.269 160.733 136.139 161.282 136.139C161.616 136.139 161.939 136.194 162.252 136.304C162.565 136.415 162.846 136.588 163.094 136.824C163.344 137.06 163.539 137.366 163.683 137.743C163.826 138.117 163.898 138.573 163.898 139.109V139.517H159.201V138.655H162.771C162.771 138.353 162.71 138.084 162.587 137.851C162.464 137.615 162.29 137.429 162.067 137.293C161.847 137.157 161.588 137.089 161.29 137.089C160.967 137.089 160.685 137.169 160.444 137.327C160.205 137.484 160.021 137.69 159.89 137.943C159.762 138.195 159.697 138.468 159.697 138.763V139.436C159.697 139.831 159.767 140.167 159.905 140.444C160.046 140.721 160.242 140.933 160.494 141.079C160.745 141.222 161.039 141.294 161.375 141.294C161.592 141.294 161.791 141.263 161.971 141.202C162.15 141.138 162.306 141.042 162.437 140.917C162.567 140.792 162.667 140.636 162.737 140.451L163.826 140.648C163.738 140.968 163.582 141.249 163.356 141.49C163.133 141.729 162.852 141.915 162.513 142.048C162.177 142.179 161.794 142.244 161.363 142.244Z" fill="white"/>
<path id="Vector_11" d="M168.565 138.256H173.079" stroke="white" stroke-width="0.773809" stroke-linecap="round" stroke-linejoin="round"/>
<path id="Vector_12" d="M170.821 135.999L173.078 138.256L170.821 140.513" stroke="white" stroke-width="0.773809" stroke-linecap="round" stroke-linejoin="round"/>
</g>
</g>
</g>
</g>
<defs>
<filter id="filter0_d_449_550" x="0.815476" y="0.363095" width="194.536" height="165.131" filterUnits="userSpaceOnUse" color-interpolation-filters="sRGB">
<feFlood flood-opacity="0" result="BackgroundImageFix"/>
<feColorMatrix in="SourceAlpha" type="matrix" values="0 0 0 0 0 0 0 0 0 0 0 0 0 0 0 0 0 0 127 0" result="hardAlpha"/>
<feOffset dy="1.54762"/>
<feGaussianBlur stdDeviation="2.59226"/>
<feComposite in2="hardAlpha" operator="out"/>
<feColorMatrix type="matrix" values="0 0 0 0 0 0 0 0 0 0.458246 0 0 0 0 0.365506 0 0 0 0.1 0"/>
<feBlend mode="normal" in2="BackgroundImageFix" result="effect1_dropShadow_449_550"/>
<feBlend mode="normal" in="SourceGraphic" in2="effect1_dropShadow_449_550" result="shape"/>
</filter>
</defs>
</svg>
