<svg width="225" height="65" viewBox="0 0 225 65" fill="none" xmlns="http://www.w3.org/2000/svg">
<path d="M7.79688 5.83331H6.77697C6.71666 5.53778 6.6111 5.27815 6.46031 5.05443C6.31226 4.83071 6.1313 4.6429 5.91746 4.49098C5.70634 4.33631 5.47193 4.2203 5.21421 4.14297C4.95649 4.06564 4.68781 4.02697 4.40816 4.02697C3.8982 4.02697 3.43623 4.15678 3.02223 4.41641C2.61098 4.67604 2.28335 5.05857 2.03934 5.56402C1.79807 6.06946 1.67744 6.68953 1.67744 7.42422C1.67744 8.15891 1.79807 8.77898 2.03934 9.2844C2.28335 9.7899 2.61098 10.1724 3.02223 10.4321C3.43623 10.6916 3.8982 10.8215 4.40816 10.8215C4.68781 10.8215 4.95649 10.7828 5.21421 10.7055C5.47193 10.6281 5.70634 10.5135 5.91746 10.3616C6.1313 10.2069 6.31226 10.0177 6.46031 9.79398C6.6111 9.56756 6.71666 9.3079 6.77697 9.01515H7.79688C7.72011 9.44873 7.58029 9.83681 7.3774 10.1793C7.17452 10.5218 6.92229 10.8132 6.6207 11.0535C6.31911 11.291 5.98051 11.4719 5.6049 11.5962C5.23203 11.7205 4.83312 11.7826 4.40816 11.7826C3.68983 11.7826 3.05102 11.6059 2.49171 11.2523C1.93242 10.8988 1.49238 10.3961 1.17159 9.74431C0.850819 9.09248 0.69043 8.3191 0.69043 7.42422C0.69043 6.52934 0.850819 5.75598 1.17159 5.10415C1.49238 4.45231 1.93242 3.94963 2.49171 3.5961C3.05102 3.24256 3.68983 3.0658 4.40816 3.0658C4.83312 3.0658 5.23203 3.12794 5.6049 3.25223C5.98051 3.37652 6.31911 3.55881 6.6207 3.7991C6.92229 4.03664 7.17452 4.32665 7.3774 4.66913C7.58029 5.00885 7.72011 5.39692 7.79688 5.83331ZM10.2839 7.83852V11.6666H9.31337V3.1818H10.2839V6.29733H10.3662C10.5142 5.96865 10.7363 5.70764 11.0324 5.5143C11.3313 5.3182 11.7288 5.22015 12.225 5.22015C12.6555 5.22015 13.0325 5.30715 13.356 5.48115C13.6795 5.6524 13.9304 5.91617 14.1086 6.27247C14.2895 6.626 14.38 7.07621 14.38 7.62309V11.6666H13.4094V7.68937C13.4094 7.18393 13.2792 6.7931 13.0188 6.5169C12.7611 6.23795 12.4032 6.09846 11.9454 6.09846C11.6274 6.09846 11.3423 6.16613 11.09 6.30147C10.8405 6.4368 10.6431 6.63429 10.4978 6.89392C10.3552 7.15355 10.2839 7.46841 10.2839 7.83852ZM18.0145 11.8158C17.6142 11.8158 17.2509 11.7398 16.9247 11.5879C16.5984 11.4332 16.3393 11.2109 16.1474 10.9209C15.9554 10.6281 15.8595 10.2746 15.8595 9.86031C15.8595 9.49573 15.9308 9.20015 16.0734 8.97373C16.2159 8.74448 16.4065 8.5649 16.645 8.43515C16.8835 8.3053 17.1467 8.20863 17.4346 8.1451C17.7252 8.07881 18.0172 8.02634 18.3106 7.98767C18.6944 7.93795 19.0056 7.90066 19.2441 7.8758C19.4854 7.84819 19.6608 7.80261 19.7705 7.73909C19.8829 7.67556 19.9392 7.56508 19.9392 7.40765V7.3745C19.9392 6.96573 19.8281 6.6481 19.606 6.42162C19.3867 6.19514 19.0536 6.0819 18.6067 6.0819C18.1433 6.0819 17.7801 6.18409 17.5169 6.38847C17.2536 6.59286 17.0686 6.81106 16.9616 7.04306L16.0405 6.71163C16.205 6.32495 16.4243 6.02389 16.6984 5.80845C16.9754 5.59025 17.277 5.43835 17.6032 5.35273C17.9322 5.26434 18.2557 5.22015 18.5738 5.22015C18.7767 5.22015 19.0097 5.245 19.2729 5.29472C19.5389 5.34168 19.7952 5.43973 20.0419 5.58888C20.2915 5.73802 20.4984 5.96313 20.663 6.26419C20.8274 6.56524 20.9097 6.9685 20.9097 7.47394V11.6666H19.9392V10.8049H19.8898C19.824 10.943 19.7143 11.0907 19.5608 11.2482C19.4073 11.4056 19.2029 11.5396 18.948 11.6501C18.6931 11.7606 18.3819 11.8158 18.0145 11.8158ZM18.1625 10.9375C18.5463 10.9375 18.8698 10.8616 19.133 10.7096C19.399 10.5577 19.5992 10.3616 19.7335 10.1213C19.8706 9.88098 19.9392 9.62831 19.9392 9.36315V8.46823C19.898 8.51798 19.8075 8.56356 19.6677 8.60498C19.5306 8.64365 19.3716 8.67815 19.1906 8.70856C19.0124 8.73615 18.8383 8.76106 18.6683 8.78315C18.5011 8.80248 18.3654 8.81906 18.2612 8.83281C18.009 8.86598 17.7732 8.91981 17.5538 8.9944C17.3373 9.06623 17.1618 9.17531 17.0275 9.32173C16.8959 9.46531 16.83 9.6614 16.83 9.90998C16.83 10.2497 16.9548 10.5066 17.2043 10.6806C17.4565 10.8519 17.7759 10.9375 18.1625 10.9375ZM23.6517 7.83852V11.6666H22.6812V5.30301H23.6188V6.29733H23.701C23.8491 5.97417 24.0739 5.71455 24.3755 5.51845C24.6771 5.31958 25.0664 5.22015 25.5435 5.22015C25.9711 5.22015 26.3455 5.30854 26.6662 5.4853C26.9869 5.6593 27.2364 5.92446 27.4147 6.28075C27.5929 6.63429 27.682 7.08174 27.682 7.62309V11.6666H26.7114V7.68937C26.7114 7.18945 26.5825 6.80001 26.3249 6.52105C26.0671 6.23933 25.7135 6.09846 25.2638 6.09846C24.954 6.09846 24.6771 6.16613 24.4331 6.30147C24.1918 6.4368 24.0012 6.63429 23.8614 6.89392C23.7216 7.15355 23.6517 7.46841 23.6517 7.83852ZM32.0053 14.1856C31.5364 14.1856 31.1334 14.1248 30.7962 14.0033C30.459 13.8846 30.178 13.7271 29.9531 13.531C29.731 13.3376 29.5542 13.1305 29.4226 12.9096L30.1958 12.3626C30.2835 12.4786 30.3945 12.6112 30.5289 12.7604C30.6632 12.9123 30.8469 13.0435 31.08 13.154C31.3157 13.2672 31.6242 13.3238 32.0053 13.3238C32.5152 13.3238 32.9361 13.1996 33.2678 12.951C33.5996 12.7024 33.7654 12.313 33.7654 11.7826V10.4901H33.6832C33.6119 10.6061 33.5105 10.7496 33.3789 10.9209C33.25 11.0894 33.0636 11.2399 32.8196 11.3725C32.5783 11.5023 32.252 11.5672 31.8407 11.5672C31.3309 11.5672 30.873 11.4456 30.4672 11.2026C30.0642 10.9596 29.7448 10.6061 29.509 10.1421C29.2759 9.67798 29.1594 9.11456 29.1594 8.45165C29.1594 7.79985 29.2732 7.23226 29.5007 6.74891C29.7283 6.2628 30.045 5.88717 30.4507 5.62202C30.8565 5.3541 31.3253 5.22015 31.8572 5.22015C32.2685 5.22015 32.5947 5.2892 32.836 5.4273C33.08 5.56264 33.2664 5.71731 33.3953 5.89131C33.5269 6.06255 33.6283 6.20342 33.6996 6.3139H33.7983V5.30301H34.736V11.849C34.736 12.3958 34.6126 12.8405 34.3659 13.183C34.1219 13.5282 33.7929 13.781 33.3789 13.9411C32.9676 14.1041 32.5098 14.1856 32.0053 14.1856ZM31.9724 10.6889C32.3617 10.6889 32.6907 10.5991 32.9594 10.4196C33.2281 10.2401 33.4323 9.98181 33.5722 9.6449C33.712 9.3079 33.7819 8.90465 33.7819 8.43515C33.7819 7.97662 33.7134 7.57199 33.5763 7.22121C33.4392 6.87044 33.2363 6.59562 32.9677 6.39676C32.6989 6.1979 32.3672 6.09846 31.9724 6.09846C31.5612 6.09846 31.2184 6.20342 30.9442 6.41333C30.6728 6.62325 30.4686 6.90496 30.3315 7.2585C30.1972 7.61204 30.13 8.00424 30.13 8.43515C30.13 8.87706 30.1985 9.26781 30.3356 9.60756C30.4754 9.94456 30.6811 10.2097 30.9525 10.4031C31.2266 10.5936 31.5666 10.6889 31.9724 10.6889ZM39.1611 11.7992C38.5524 11.7992 38.0274 11.6639 37.586 11.3932C37.1474 11.1198 36.8087 10.7386 36.5702 10.2497C36.3344 9.75815 36.2165 9.1864 36.2165 8.53456C36.2165 7.88271 36.3344 7.30822 36.5702 6.81106C36.8087 6.31114 37.1405 5.9217 37.5654 5.64274C37.9931 5.36101 38.4921 5.22015 39.0624 5.22015C39.3914 5.22015 39.7162 5.27539 40.037 5.38587C40.3578 5.49635 40.6498 5.67588 40.913 5.92446C41.1763 6.17028 41.386 6.49619 41.5422 6.9022C41.6985 7.30822 41.7766 7.80814 41.7766 8.40198V8.81623H36.9074V7.9711H40.7896C40.7896 7.61204 40.7184 7.29165 40.5758 7.00992C40.436 6.7282 40.2358 6.50585 39.9753 6.3429C39.7177 6.17995 39.4133 6.09846 39.0624 6.09846C38.6758 6.09846 38.3413 6.19514 38.0589 6.38847C37.7793 6.57905 37.564 6.82763 37.4132 7.13421C37.2625 7.4408 37.1871 7.76947 37.1871 8.12025V8.68373C37.1871 9.16431 37.2693 9.57165 37.4338 9.9059C37.6011 10.2373 37.8328 10.4901 38.1288 10.6641C38.425 10.8353 38.769 10.9209 39.1611 10.9209C39.416 10.9209 39.6463 10.885 39.852 10.8132C40.0604 10.7386 40.2399 10.6281 40.3907 10.4817C40.5415 10.3326 40.658 10.1476 40.7403 9.92656L41.678 10.1917C41.5793 10.5121 41.4133 10.7939 41.1803 11.0369C40.9473 11.2772 40.6594 11.465 40.3167 11.6004C39.974 11.7329 39.5888 11.7992 39.1611 11.7992ZM53.3206 3.1818V11.6666H52.3335L47.7439 5.00471H47.6617V11.6666H46.6418V3.1818H47.6288L52.2348 9.86031H52.3171V3.1818H53.3206ZM57.8782 11.7992C57.2696 11.7992 56.7445 11.6639 56.3031 11.3932C55.8645 11.1198 55.5259 10.7386 55.2873 10.2497C55.0516 9.75815 54.9337 9.1864 54.9337 8.53456C54.9337 7.88271 55.0516 7.30822 55.2873 6.81106C55.5259 6.31114 55.8576 5.9217 56.2826 5.64274C56.7103 5.36101 57.2093 5.22015 57.7795 5.22015C58.1085 5.22015 58.4334 5.27539 58.7542 5.38587C59.075 5.49635 59.3669 5.67588 59.6301 5.92446C59.8934 6.17028 60.1031 6.49619 60.2594 6.9022C60.4157 7.30822 60.4938 7.80814 60.4938 8.40198V8.81623H55.6246V7.9711H59.5068C59.5068 7.61204 59.4355 7.29165 59.293 7.00992C59.1531 6.7282 58.953 6.50585 58.6925 6.3429C58.4348 6.17995 58.1305 6.09846 57.7795 6.09846C57.393 6.09846 57.0584 6.19514 56.776 6.38847C56.4964 6.57905 56.2812 6.82763 56.1304 7.13421C55.9796 7.4408 55.9043 7.76947 55.9043 8.12025V8.68373C55.9043 9.16431 55.9865 9.57165 56.151 9.9059C56.3182 10.2373 56.5499 10.4901 56.846 10.6641C57.1421 10.8353 57.4862 10.9209 57.8782 10.9209C58.1332 10.9209 58.3635 10.885 58.5692 10.8132C58.7775 10.7386 58.9571 10.6281 59.1079 10.4817C59.2587 10.3326 59.3752 10.1476 59.4574 9.92656L60.3951 10.1917C60.2964 10.5121 60.1305 10.7939 59.8975 11.0369C59.6645 11.2772 59.3765 11.465 59.0338 11.6004C58.6911 11.7329 58.306 11.7992 57.8782 11.7992ZM63.4014 11.6666L61.4767 5.30301H62.4966L63.862 10.1751H63.9277L65.2767 5.30301H66.3131L67.6455 10.1586H67.7113L69.0767 5.30301H70.0965L68.1719 11.6666H67.2178L65.836 6.77791H65.7372L64.3555 11.6666H63.4014ZM74.7684 11.6666V3.1818H77.6143C78.275 3.1818 78.8151 3.30195 79.2346 3.54224C79.6568 3.77977 79.9694 4.10155 80.1722 4.50755C80.3752 4.91357 80.4766 5.36654 80.4766 5.86645C80.4766 6.36638 80.3752 6.82073 80.1722 7.2295C79.9721 7.63828 79.6623 7.96419 79.2428 8.20725C78.8233 8.44756 78.286 8.56765 77.6307 8.56765H75.5909V7.65623H77.5978C78.0502 7.65623 78.4134 7.57751 78.6877 7.42008C78.9618 7.26265 79.1606 7.04997 79.284 6.78205C79.41 6.51138 79.4732 6.20618 79.4732 5.86645C79.4732 5.52673 79.41 5.22291 79.284 4.955C79.1606 4.68709 78.9605 4.47717 78.6835 4.32526C78.4066 4.17059 78.0392 4.09325 77.5813 4.09325H75.7883V11.6666H74.7684ZM83.8468 11.8158C83.4464 11.8158 83.0833 11.7398 82.7573 11.5879C82.4308 11.4332 82.1716 11.2109 81.9797 10.9209C81.7878 10.6281 81.6918 10.2746 81.6918 9.86031C81.6918 9.49573 81.7631 9.20015 81.9056 8.97373C82.0483 8.74448 82.2388 8.5649 82.4773 8.43515C82.7159 8.3053 82.979 8.20863 83.2669 8.1451C83.5573 8.07881 83.8493 8.02634 84.1429 7.98767C84.5267 7.93795 84.8378 7.90066 85.0768 7.8758C85.3175 7.84819 85.4929 7.80261 85.6029 7.73909C85.7154 7.67556 85.7717 7.56508 85.7717 7.40765V7.3745C85.7717 6.96573 85.6608 6.6481 85.4383 6.42162C85.2191 6.19514 84.8857 6.0819 84.439 6.0819C83.9758 6.0819 83.6127 6.18409 83.3488 6.38847C83.0857 6.59286 82.9013 6.81106 82.7937 7.04306L81.8728 6.71163C82.0373 6.32495 82.2566 6.02389 82.5308 5.80845C82.8078 5.59025 83.1089 5.43835 83.4356 5.35273C83.7649 5.26434 84.0883 5.22015 84.406 5.22015C84.6086 5.22015 84.8419 5.245 85.1049 5.29472C85.3713 5.34168 85.6277 5.43973 85.8743 5.58888C86.1241 5.73802 86.3309 5.96313 86.4955 6.26419C86.6601 6.56524 86.742 6.9685 86.742 7.47394V11.6666H85.7717V10.8049H85.722C85.6567 10.943 85.5467 11.0907 85.3928 11.2482C85.2398 11.4056 85.0355 11.5396 84.7807 11.6501C84.5251 11.7606 84.2141 11.8158 83.8468 11.8158ZM83.9948 10.9375C84.3787 10.9375 84.7021 10.8616 84.9651 10.7096C85.2315 10.5577 85.4317 10.3616 85.5657 10.1213C85.703 9.88098 85.7717 9.62831 85.7717 9.36315V8.46823C85.7303 8.51798 85.6402 8.56356 85.5004 8.60498C85.363 8.64365 85.2042 8.67815 85.023 8.70856C84.8444 8.73615 84.6707 8.76106 84.5011 8.78315C84.3332 8.80248 84.1975 8.81906 84.0933 8.83281C83.841 8.86598 83.6052 8.91981 83.386 8.9944C83.1693 9.06623 82.9939 9.17531 82.8599 9.32173C82.7284 9.46531 82.6624 9.6614 82.6624 9.90998C82.6624 10.2497 82.7871 10.5066 83.0369 10.6806C83.2892 10.8519 83.6085 10.9375 83.9948 10.9375ZM92.9882 6.7282L92.1163 6.97678C92.0609 6.8304 91.9807 6.68815 91.8731 6.55005C91.7689 6.40919 91.6266 6.29319 91.4455 6.20204C91.2651 6.1109 91.0327 6.06532 90.7506 6.06532C90.3643 6.06532 90.0417 6.15509 89.7845 6.33461C89.5297 6.51138 89.4015 6.73649 89.4015 7.00992C89.4015 7.25298 89.4891 7.44494 89.6653 7.5858C89.8407 7.72666 90.1145 7.84405 90.4876 7.93795L91.4248 8.16996C91.9898 8.30806 92.4108 8.51931 92.688 8.80381C92.9642 9.08556 93.1032 9.44873 93.1032 9.89348C93.1032 10.2581 92.999 10.584 92.7905 10.8712C92.5845 11.1585 92.2967 11.3849 91.9269 11.5506C91.5572 11.7164 91.1262 11.7992 90.6357 11.7992C89.9913 11.7992 89.4577 11.6584 89.0358 11.3766C88.614 11.0949 88.3459 10.6834 88.2334 10.1421L89.1549 9.90998C89.2426 10.2525 89.4089 10.5094 89.6529 10.6806C89.8994 10.8519 90.2212 10.9375 90.6191 10.9375C91.0716 10.9375 91.4306 10.8408 91.697 10.6475C91.965 10.4514 92.0998 10.2166 92.0998 9.94315C92.0998 9.72223 92.0229 9.53715 91.869 9.38798C91.716 9.23606 91.4802 9.12281 91.1618 9.04831L90.1095 8.79973C89.5305 8.66156 89.1053 8.44756 88.834 8.15753C88.566 7.86476 88.4311 7.4988 88.4311 7.05964C88.4311 6.70058 88.5312 6.38295 88.7314 6.10675C88.9341 5.83055 89.2095 5.61374 89.5578 5.4563C89.9094 5.29886 90.3064 5.22015 90.7506 5.22015C91.376 5.22015 91.8665 5.35825 92.2231 5.63445C92.5821 5.91065 92.8368 6.27523 92.9882 6.7282ZM99.0384 6.7282L98.1665 6.97678C98.1119 6.8304 98.0309 6.68815 97.9242 6.55005C97.8199 6.40919 97.6768 6.29319 97.4965 6.20204C97.3153 6.1109 97.0837 6.06532 96.8016 6.06532C96.4145 6.06532 96.0927 6.15509 95.8346 6.33461C95.5799 6.51138 95.4525 6.73649 95.4525 7.00992C95.4525 7.25298 95.5402 7.44494 95.7155 7.5858C95.8909 7.72666 96.1655 7.84405 96.5378 7.93795L97.4758 8.16996C98.0408 8.30806 98.461 8.51931 98.7381 8.80381C99.0152 9.08556 99.1534 9.44873 99.1534 9.89348C99.1534 10.2581 99.0492 10.584 98.8407 10.8712C98.6356 11.1585 98.3477 11.3849 97.9771 11.5506C97.6073 11.7164 97.1772 11.7992 96.6858 11.7992C96.0414 11.7992 95.5087 11.6584 95.086 11.3766C94.6641 11.0949 94.397 10.6834 94.2845 10.1421L95.206 9.90998C95.2936 10.2525 95.4591 10.5094 95.7031 10.6806C95.9496 10.8519 96.2722 10.9375 96.6693 10.9375C97.1218 10.9375 97.4816 10.8408 97.7471 10.6475C98.016 10.4514 98.15 10.2166 98.15 9.94315C98.15 9.72223 98.0731 9.53715 97.92 9.38798C97.7662 9.23606 97.5304 9.12281 97.2128 9.04831L96.1597 8.79973C95.5815 8.66156 95.1563 8.44756 94.885 8.15753C94.6162 7.86476 94.4822 7.4988 94.4822 7.05964C94.4822 6.70058 94.5822 6.38295 94.7816 6.10675C94.9851 5.83055 95.2606 5.61374 95.6088 5.4563C95.9595 5.29886 96.3574 5.22015 96.8016 5.22015C97.4262 5.22015 97.9175 5.35825 98.2732 5.63445C98.6331 5.91065 98.8878 6.27523 99.0384 6.7282ZM102.046 11.6666L100.121 5.30301H101.141L102.506 10.1751H102.572L103.921 5.30301H104.957L106.29 10.1586H106.356L107.721 5.30301H108.741L106.817 11.6666H105.862L104.481 6.77791H104.381L103 11.6666H102.046ZM112.375 11.7992C111.806 11.7992 111.305 11.6625 110.874 11.3891C110.446 11.1156 110.112 10.7331 109.871 10.2415C109.632 9.74981 109.513 9.17531 109.513 8.51798C109.513 7.8551 109.632 7.27645 109.871 6.78205C110.112 6.28766 110.446 5.90375 110.874 5.6303C111.305 5.35687 111.806 5.22015 112.375 5.22015C112.945 5.22015 113.445 5.35687 113.873 5.6303C114.303 5.90375 114.637 6.28766 114.876 6.78205C115.117 7.27645 115.238 7.8551 115.238 8.51798C115.238 9.17531 115.117 9.74981 114.876 10.2415C114.637 10.7331 114.303 11.1156 113.873 11.3891C113.445 11.6625 112.945 11.7992 112.375 11.7992ZM112.375 10.9209C112.809 10.9209 113.165 10.8091 113.445 10.5853C113.725 10.3616 113.931 10.0675 114.065 9.7029C114.2 9.33831 114.267 8.94331 114.267 8.51798C114.267 8.09262 114.2 7.69628 114.065 7.32893C113.931 6.96159 113.725 6.66467 113.445 6.43819C113.165 6.2117 112.809 6.09846 112.375 6.09846C111.942 6.09846 111.585 6.2117 111.306 6.43819C111.026 6.66467 110.819 6.96159 110.685 7.32893C110.551 7.69628 110.484 8.09262 110.484 8.51798C110.484 8.94331 110.551 9.33831 110.685 9.7029C110.819 10.0675 111.026 10.3616 111.306 10.5853C111.585 10.8091 111.942 10.9209 112.375 10.9209ZM116.719 11.6666V5.30301H117.657V6.26419H117.723C117.837 5.94931 118.046 5.69383 118.348 5.49773C118.65 5.30163 118.99 5.20358 119.368 5.20358C119.439 5.20358 119.528 5.20495 119.635 5.20772C119.742 5.21048 119.823 5.21463 119.877 5.22015V6.21447C119.845 6.20618 119.769 6.19375 119.652 6.17718C119.537 6.15785 119.414 6.14818 119.285 6.14818C118.978 6.14818 118.704 6.21309 118.463 6.3429C118.225 6.46995 118.035 6.64672 117.895 6.8732C117.758 7.09693 117.69 7.35241 117.69 7.63965V11.6666H116.719ZM123.221 11.7992C122.695 11.7992 122.23 11.6652 121.827 11.3973C121.424 11.1266 121.109 10.7455 120.881 10.2539C120.653 9.75948 120.54 9.17531 120.54 8.5014C120.54 7.833 120.653 7.25298 120.881 6.76135C121.109 6.2697 121.425 5.88993 121.831 5.62202C122.237 5.3541 122.706 5.22015 123.237 5.22015C123.649 5.22015 123.974 5.2892 124.212 5.4273C124.453 5.56264 124.637 5.71731 124.764 5.89131C124.892 6.06255 124.992 6.20342 125.064 6.3139H125.146V3.1818H126.116V11.6666H125.179V10.6889H125.064C124.992 10.8049 124.891 10.9513 124.76 11.1281C124.628 11.3021 124.44 11.4581 124.196 11.5962C123.952 11.7316 123.627 11.7992 123.221 11.7992ZM123.352 10.9209C123.742 10.9209 124.071 10.8187 124.34 10.6143C124.608 10.4071 124.812 10.1213 124.952 9.75673C125.092 9.3894 125.162 8.9654 125.162 8.48481C125.162 8.00976 125.094 7.59409 124.956 7.23779C124.82 6.87873 124.616 6.59976 124.348 6.4009C124.08 6.19928 123.748 6.09846 123.352 6.09846C122.941 6.09846 122.599 6.2048 122.324 6.41747C122.053 6.62739 121.849 6.91325 121.712 7.27507C121.577 7.63413 121.51 8.03739 121.51 8.48481C121.51 8.93781 121.579 9.34931 121.716 9.71948C121.856 10.0868 122.061 10.3796 122.333 10.5977C122.607 10.8132 122.947 10.9209 123.352 10.9209Z" fill="black"/>
<path d="M0 32.5C0 28.3578 3.33318 25 7.44485 25H217.555C221.667 25 225 28.3578 225 32.5V57.5C225 61.6422 221.667 65 217.555 65H7.44485C3.33317 65 0 61.6422 0 57.5V32.5Z" fill="#EEF2F1"/>
<path d="M16.6602 50.1236C16.0743 50.1236 15.5573 49.9761 15.1092 49.6809C14.6655 49.3814 14.3165 48.9648 14.0623 48.4309C13.8124 47.8928 13.6875 47.2699 13.6875 46.5625C13.6875 45.855 13.8124 45.2343 14.0623 44.7004C14.3165 44.1666 14.6677 43.7499 15.1157 43.4504C15.5638 43.1509 16.0786 43.0013 16.6602 43.0013C17.1729 43.0013 17.6361 43.1293 18.0497 43.3854C18.4676 43.6371 18.7713 43.9821 18.9609 44.4205H18.9674V40.2995H19.801V50H18.9867V48.6979H18.9738C18.7627 49.1449 18.4525 49.4943 18.0432 49.746C17.6339 49.9978 17.1729 50.1236 16.6602 50.1236ZM16.7701 49.3555C17.4552 49.3555 18.0023 49.1037 18.4116 48.6002C18.8252 48.0924 19.032 47.4131 19.032 46.5625C19.032 45.7118 18.8252 45.0325 18.4116 44.5247C18.0023 44.0169 17.4552 43.7629 16.7701 43.7629C16.1239 43.7629 15.5875 44.006 15.1609 44.4921C14.7387 44.9783 14.5276 45.6684 14.5276 46.5625C14.5276 47.4565 14.7387 48.1466 15.1609 48.6328C15.5875 49.1145 16.1239 49.3555 16.7701 49.3555ZM21.4878 43.125H22.315V50.996C22.315 51.4995 22.1556 51.9119 21.8367 52.233C21.5222 52.5585 21.1 52.7213 20.5701 52.7213H20.2082V51.9726H20.499C20.8049 51.9726 21.0462 51.8815 21.2228 51.6992C21.3995 51.5169 21.4878 51.2434 21.4878 50.8789V43.125ZM21.9014 41.634C21.7376 41.634 21.5955 41.5755 21.4748 41.4583C21.3585 41.3411 21.3004 41.1979 21.3004 41.0286C21.3004 40.8593 21.3585 40.7161 21.4748 40.599C21.5955 40.4817 21.7376 40.4231 21.9014 40.4231C22.0651 40.4231 22.2052 40.4817 22.3215 40.599C22.4421 40.7161 22.5024 40.8593 22.5024 41.0286C22.5024 41.1979 22.4421 41.3411 22.3215 41.4583C22.2052 41.5755 22.0651 41.634 21.9014 41.634ZM23.7109 50V49.2448L27.1231 46.009C27.5626 45.588 27.918 45.2191 28.1894 44.9023C28.4608 44.5855 28.659 44.2838 28.784 43.9974C28.9089 43.7065 28.9714 43.3919 28.9714 43.0534C28.9714 42.4196 28.7754 41.9097 28.3833 41.5234C27.9912 41.1371 27.4635 40.944 26.8 40.944C26.1106 40.944 25.5656 41.1566 25.165 41.5819C24.7643 42.0074 24.5639 42.5672 24.5639 43.2617H23.7367C23.7367 42.6584 23.8639 42.1224 24.118 41.6536C24.3766 41.1849 24.7341 40.8181 25.1908 40.5534C25.6518 40.2842 26.1882 40.1497 26.8 40.1497C27.3859 40.1497 27.9051 40.2734 28.3574 40.5208C28.8098 40.7682 29.1631 41.1089 29.4173 41.543C29.6758 41.9726 29.805 42.4674 29.805 43.0273C29.805 43.4266 29.7318 43.8064 29.5853 44.1666C29.4388 44.5269 29.2105 44.8958 28.9003 45.2734C28.5901 45.6509 28.1916 46.0699 27.7048 46.5299L24.9065 49.1926V49.2057H29.902V50H23.7109ZM34.3159 50.1497C33.6783 50.1497 33.1117 50.0238 32.6163 49.7721C32.1208 49.516 31.7309 49.1644 31.4465 48.7174C31.1665 48.266 31.0265 47.7474 31.0265 47.1614H31.9118C31.9118 47.8384 32.1294 48.3745 32.5646 48.7694C32.9997 49.1644 33.577 49.362 34.2965 49.362C35.016 49.362 35.5977 49.1753 36.0414 48.802C36.4852 48.4244 36.7071 47.9361 36.7071 47.3372C36.7071 46.9553 36.5951 46.621 36.3711 46.3346C36.1513 46.0438 35.8432 45.8181 35.4469 45.6575C35.0548 45.497 34.6024 45.4166 34.0897 45.4166H33.5275V44.6159H34.0897C34.7661 44.6159 35.3198 44.4553 35.7507 44.134C36.1858 43.8085 36.4033 43.3767 36.4033 42.8385C36.4033 42.2656 36.2051 41.8055 35.8088 41.4583C35.4167 41.111 34.8997 40.9375 34.2578 40.9375C33.6029 40.9375 33.0773 41.1241 32.6809 41.4974C32.2889 41.8663 32.0928 42.3632 32.0928 42.9882H31.2462C31.2462 42.4327 31.3755 41.9422 31.634 41.5169C31.8925 41.0915 32.2479 40.7574 32.7002 40.5143C33.1569 40.2712 33.6783 40.1497 34.2642 40.1497C34.8373 40.1497 35.35 40.2647 35.8023 40.4948C36.2547 40.7205 36.6101 41.033 36.8686 41.4323C37.1314 41.8315 37.2629 42.2851 37.2629 42.793C37.2629 43.3095 37.0992 43.7651 36.7717 44.1601C36.4443 44.5507 35.9962 44.8264 35.4275 44.987V45C36.0781 45.1171 36.5972 45.3906 36.9849 45.8203C37.3727 46.2456 37.5666 46.7513 37.5666 47.3372C37.5666 47.8797 37.4266 48.3637 37.1465 48.789C36.8665 49.21 36.4809 49.542 35.9897 49.7851C35.4986 50.0282 34.9407 50.1497 34.3159 50.1497ZM41.4312 50.1236C40.9616 50.1236 40.5372 50.0216 40.1581 49.8176C39.7789 49.6137 39.4774 49.3142 39.2533 48.9192C39.0336 48.5199 38.9237 48.0359 38.9237 47.4674V43.125H39.7509V47.4153C39.7509 48.0316 39.9146 48.5069 40.2421 48.8411C40.5695 49.1753 41.0133 49.3424 41.5734 49.3424C42.1292 49.3424 42.5966 49.1709 42.9757 48.8281C43.3592 48.4852 43.5509 47.9752 43.5509 47.2981V43.125H44.3845V50H43.5703V48.8997C43.3419 49.3164 43.0426 49.6245 42.672 49.8242C42.3015 50.0238 41.8879 50.1236 41.4312 50.1236ZM48.7662 40.2995V50H47.9196V41.2044H47.9067L45.606 42.7409V41.8294L47.8808 40.2995H48.7662ZM54.4984 44.8176V45.612H50.4917V44.8176H54.4984ZM59.1515 50.1367C58.4622 50.1367 57.8611 49.9305 57.3484 49.5182C56.84 49.1059 56.4437 48.5264 56.1593 47.7799C55.8793 47.0334 55.7393 46.1588 55.7393 45.1562C55.7393 44.1493 55.8793 43.2725 56.1593 42.526C56.4437 41.7751 56.84 41.1935 57.3484 40.7812C57.8611 40.3689 58.4622 40.1627 59.1515 40.1627C59.8365 40.1627 60.4332 40.3689 60.9416 40.7812C61.4543 41.1935 61.8507 41.7751 62.1307 42.526C62.4108 43.2725 62.5508 44.1493 62.5508 45.1562C62.5508 46.1588 62.4108 47.0334 62.1307 47.7799C61.8507 48.5264 61.4543 49.1059 60.9416 49.5182C60.4332 49.9305 59.8365 50.1367 59.1515 50.1367ZM59.1515 49.3424C59.6728 49.3424 60.1252 49.1709 60.5086 48.8281C60.8921 48.4852 61.1894 48.0013 61.4005 47.3763C61.6159 46.747 61.7236 46.0069 61.7236 45.1562C61.7236 44.3012 61.6159 43.5589 61.4005 42.9296C61.1894 42.3003 60.8921 41.8142 60.5086 41.4713C60.1252 41.1284 59.6728 40.9569 59.1515 40.9569C58.6302 40.9569 58.1756 41.1284 57.7879 41.4713C57.4001 41.8142 57.1007 42.3003 56.8896 42.9296C56.6785 43.5589 56.5729 44.3012 56.5729 45.1562C56.5729 46.0069 56.6785 46.747 56.8896 47.3763C57.1007 48.0013 57.4001 48.4852 57.7879 48.8281C58.1756 49.1709 58.6302 49.3424 59.1515 49.3424ZM63.9208 50V43.125H64.748V50H63.9208ZM64.3344 41.634C64.1707 41.634 64.0285 41.5755 63.9079 41.4583C63.7916 41.3411 63.7335 41.1979 63.7335 41.0286C63.7335 40.8593 63.7916 40.7161 63.9079 40.599C64.0285 40.4817 64.1707 40.4231 64.3344 40.4231C64.4982 40.4231 64.6382 40.4817 64.7545 40.599C64.8752 40.7161 64.9355 40.8593 64.9355 41.0286C64.9355 41.1979 64.8752 41.3411 64.7545 41.4583C64.6382 41.5755 64.4982 41.634 64.3344 41.634ZM66.4154 50V43.125H67.2103V44.2708H67.2296C67.3718 43.9019 67.5981 43.6045 67.9083 43.3789C68.2228 43.1532 68.604 43.0403 69.0521 43.0403C69.134 43.0403 69.2029 43.0446 69.2589 43.0534C69.3192 43.0577 69.3709 43.062 69.414 43.0664V43.9062C69.3753 43.8975 69.3128 43.8867 69.2266 43.8736C69.1404 43.8606 69.037 43.8541 68.9164 43.8541C68.4511 43.8541 68.0547 44.0125 67.7273 44.3294C67.4042 44.6462 67.2426 45.1041 67.2426 45.7031V50H66.4154ZM75.5017 50V50.7942H69.5885V50H75.5017ZM81.9578 51.1653C81.1005 51.1653 80.312 51.0156 79.5926 50.7161C78.8774 50.4166 78.257 49.9978 77.7314 49.4596C77.2057 48.917 76.7985 48.2812 76.5099 47.552C76.2212 46.8185 76.0769 46.02 76.0769 45.1562C76.0769 44.2881 76.2212 43.4874 76.5099 42.7539C76.7985 42.0204 77.2057 41.3845 77.7314 40.8463C78.257 40.3038 78.8774 39.8828 79.5926 39.5833C80.312 39.2838 81.1005 39.134 81.9578 39.134C82.794 39.134 83.5608 39.2795 84.2582 39.5703C84.9563 39.8567 85.5619 40.2647 86.0747 40.7942C86.5868 41.3194 86.9838 41.9422 87.2634 42.6627C87.548 43.3832 87.6903 44.1774 87.6903 45.0455C87.6903 46.0611 87.481 46.8598 87.0632 47.4414C86.6455 48.0229 86.0532 48.3138 85.2864 48.3138C84.9026 48.3138 84.599 48.2465 84.3748 48.112C84.1548 47.9774 83.9959 47.8103 83.8967 47.6106C83.7974 47.4066 83.7395 47.2004 83.7221 46.9921H83.7155C83.5774 47.3654 83.3433 47.68 83.0116 47.9361C82.6838 48.1879 82.2594 48.3138 81.7381 48.3138C81.1823 48.3138 80.7019 48.1684 80.2969 47.8775C79.8962 47.5868 79.586 47.2004 79.3663 46.7187C79.1466 46.237 79.0368 45.7139 79.0368 45.1497C79.0368 44.542 79.1574 44.0017 79.3987 43.5286C79.6399 43.0512 79.9674 42.6757 80.381 42.4023C80.7946 42.1245 81.2599 41.9856 81.7769 41.9856C82.2551 41.9856 82.6493 42.0941 82.9595 42.3111C83.2738 42.5238 83.5021 42.7799 83.6444 43.0794H83.651V42.1289H84.4393V46.4648C84.4393 47.1896 84.7371 47.552 85.3311 47.552C85.8307 47.552 86.2145 47.3372 86.4817 46.9075C86.753 46.4778 86.8887 45.868 86.8887 45.0781C86.8887 44.0408 86.6794 43.1336 86.2617 42.3567C85.8481 41.5798 85.2707 40.9765 84.5303 40.5468C83.7892 40.1171 82.9313 39.9023 81.9578 39.9023C80.954 39.9023 80.0729 40.1236 79.3146 40.5664C78.5563 41.0047 77.9661 41.6189 77.5439 42.4088C77.1217 43.1944 76.9106 44.1102 76.9106 45.1562C76.9106 46.1979 77.1217 47.1137 77.5439 47.9036C77.9661 48.6892 78.5563 49.3012 79.3146 49.7395C80.0729 50.1779 80.954 50.3971 81.9578 50.3971C82.5438 50.3971 83.0711 50.3319 83.541 50.2018C84.0108 50.0715 84.4153 49.9262 84.7561 49.7656L85.0275 50.4817C84.704 50.6466 84.2755 50.8007 83.7412 50.944C83.2118 51.0915 82.617 51.1653 81.9578 51.1653ZM81.8221 47.5585C82.4296 47.5585 82.8908 47.3415 83.2051 46.9075C83.5236 46.4735 83.6833 45.8875 83.6833 45.1497C83.6833 44.4119 83.5236 43.8259 83.2051 43.3919C82.8908 42.9579 82.4296 42.7409 81.8221 42.7409C81.2232 42.7409 80.7472 42.9579 80.3939 43.3919C80.0449 43.8259 79.8704 44.4119 79.8704 45.1497C79.8704 45.8875 80.0449 46.4735 80.3939 46.9075C80.7472 47.3415 81.2232 47.5585 81.8221 47.5585ZM92.1166 50.1497C91.4797 50.1497 90.913 50.0238 90.4175 49.7721C89.9221 49.516 89.5316 49.1644 89.2479 48.7174C88.9675 48.266 88.8277 47.7474 88.8277 47.1614H89.7128C89.7128 47.8384 89.9303 48.3745 90.3654 48.7694C90.8005 49.1644 91.3779 49.362 92.0976 49.362C92.8173 49.362 93.3988 49.1753 93.8422 48.802C94.2864 48.4244 94.5081 47.9361 94.5081 47.3372C94.5081 46.9553 94.3964 46.621 94.1722 46.3346C93.9522 46.0438 93.6445 45.8181 93.2482 45.6575C92.8561 45.497 92.4037 45.4166 91.8908 45.4166H91.3283V44.6159H91.8908C92.5675 44.6159 93.1209 44.4553 93.5518 44.134C93.9869 43.8085 94.2045 43.3767 94.2045 42.8385C94.2045 42.2656 94.006 41.8055 93.6097 41.4583C93.2176 41.111 92.7006 40.9375 92.0587 40.9375C91.4036 40.9375 90.8783 41.1241 90.4821 41.4974C90.09 41.8663 89.8939 42.3632 89.8939 42.9882H89.0469C89.0469 42.4327 89.1767 41.9422 89.4348 41.5169C89.6937 41.0915 90.0486 40.7574 90.5011 40.5143C90.9577 40.2712 91.4797 40.1497 92.0653 40.1497C92.6386 40.1497 93.1506 40.2647 93.6031 40.4948C94.0556 40.7205 94.4113 41.033 94.6694 41.4323C94.9324 41.8315 95.064 42.2851 95.064 42.793C95.064 43.3095 94.9002 43.7651 94.5726 44.1601C94.245 44.5507 93.7975 44.8264 93.2284 44.987V45C93.8794 45.1171 94.3981 45.3906 94.786 45.8203C95.174 46.2456 95.3676 46.7513 95.3676 47.3372C95.3676 47.8797 95.2278 48.3637 94.9473 48.789C94.6677 49.21 94.2823 49.542 93.7909 49.7851C93.2995 50.0282 92.742 50.1497 92.1166 50.1497ZM99.4324 40.2995V50H98.5862V41.2044H98.573L96.2725 42.7409V41.8294L98.5473 40.2995H99.4324ZM100.802 47.5194V46.8034L105.514 40.2995H106.593V46.7252H108.086V47.5194H106.593V50H105.753V47.5194H100.802ZM105.753 46.7252V41.2955H105.746L101.824 46.7187V46.7252H105.753ZM112.164 50.1367C111.556 50.1367 111.012 50.0216 110.529 49.7916C110.05 49.5573 109.672 49.2382 109.391 48.8346C109.116 48.4266 108.978 47.9644 108.978 47.4479C108.978 47.0225 109.07 46.6319 109.256 46.276C109.445 45.9201 109.7 45.6249 110.018 45.3906C110.337 45.1562 110.699 45.0086 111.103 44.9479C110.561 44.8307 110.128 44.5681 109.805 44.1601C109.482 43.7478 109.32 43.2639 109.32 42.7083C109.32 42.2222 109.445 41.7881 109.695 41.4062C109.945 41.02 110.283 40.7161 110.71 40.4948C111.141 40.2734 111.625 40.1627 112.164 40.1627C112.698 40.1627 113.178 40.2734 113.605 40.4948C114.036 40.7161 114.376 41.02 114.626 41.4062C114.881 41.7881 115.007 42.2222 115.007 42.7083C115.007 43.2639 114.843 43.7478 114.517 44.1601C114.193 44.5681 113.765 44.8307 113.23 44.9479C113.631 45.0086 113.99 45.1562 114.31 45.3906C114.628 45.6249 114.881 45.9201 115.066 46.276C115.255 46.6319 115.35 47.0225 115.35 47.4479C115.35 47.9644 115.212 48.4266 114.936 48.8346C114.66 49.2382 114.282 49.5573 113.799 49.7916C113.32 50.0216 112.775 50.1367 112.164 50.1367ZM112.164 49.3424C112.849 49.3424 113.406 49.1645 113.837 48.8085C114.268 48.4483 114.483 47.9817 114.483 47.4088C114.483 47.0225 114.383 46.6774 114.18 46.3736C113.982 46.0654 113.706 45.8224 113.353 45.6444C113.004 45.4665 112.607 45.3775 112.164 45.3775C111.72 45.3775 111.322 45.4665 110.968 45.6444C110.62 45.8224 110.343 46.0654 110.141 46.3736C109.939 46.6774 109.837 47.0225 109.837 47.4088C109.837 47.9817 110.053 48.4483 110.483 48.8085C110.919 49.1645 111.479 49.3424 112.164 49.3424ZM112.164 44.6093C112.741 44.6093 113.217 44.4357 113.592 44.0885C113.966 43.7413 114.154 43.2985 114.154 42.7604C114.154 42.2265 113.966 41.7903 113.592 41.4518C113.221 41.1132 112.745 40.944 112.164 40.944C111.587 40.944 111.11 41.1132 110.735 41.4518C110.361 41.7903 110.174 42.2265 110.174 42.7604C110.174 43.2985 110.361 43.7413 110.735 44.0885C111.11 44.4357 111.587 44.6093 112.164 44.6093ZM116.448 50V49.2448L119.86 46.009C120.3 45.588 120.655 45.2191 120.927 44.9023C121.199 44.5855 121.396 44.2838 121.521 43.9974C121.646 43.7065 121.709 43.3919 121.709 43.0534C121.709 42.4196 121.513 41.9097 121.121 41.5234C120.729 41.1371 120.201 40.944 119.538 40.944C118.848 40.944 118.303 41.1566 117.902 41.5819C117.502 42.0074 117.302 42.5672 117.302 43.2617H116.475C116.475 42.6584 116.601 42.1224 116.856 41.6536C117.114 41.1849 117.471 40.8181 117.928 40.5534C118.39 40.2842 118.926 40.1497 119.538 40.1497C120.123 40.1497 120.643 40.2734 121.095 40.5208C121.548 40.7682 121.901 41.1089 122.155 41.543C122.413 41.9726 122.543 42.4674 122.543 43.0273C122.543 43.4266 122.469 43.8064 122.323 44.1666C122.176 44.5269 121.948 44.8958 121.638 45.2734C121.328 45.6509 120.929 46.0699 120.443 46.5299L117.644 49.1926V49.2057H122.64V50H116.448Z" fill="#8B8E8C"/>
<path d="M203.079 46.4583C203.879 46.4583 204.527 45.8054 204.527 45C204.527 44.1945 203.879 43.5416 203.079 43.5416C202.28 43.5416 201.632 44.1945 201.632 45C201.632 45.8054 202.28 46.4583 203.079 46.4583Z" stroke="#8B8E8C" stroke-linecap="round" stroke-linejoin="round"/>
<path d="M209.593 45C208.226 47.1809 205.77 49.375 203.079 49.375C200.387 49.375 197.931 47.1809 196.564 45C198.228 42.9279 200.178 40.625 203.079 40.625C205.98 40.625 207.929 42.9278 209.593 45Z" stroke="#8B8E8C" stroke-linecap="round" stroke-linejoin="round"/>
</svg>
