<svg width="503" height="216" viewBox="0 0 503 216" fill="none" xmlns="http://www.w3.org/2000/svg">
<g filter="url(#filter0_d_449_1933)">
<path d="M487.006 5H16.9281C11.7998 5 7.64258 9.15726 7.64258 14.2855V197.094C7.64258 202.222 11.7998 206.379 16.9281 206.379H487.006C492.134 206.379 496.292 202.222 496.292 197.094V14.2855C496.292 9.15726 492.134 5 487.006 5Z" fill="white"/>
<path d="M25.8965 35.1779V25.0446H29.7662C30.5097 25.0446 31.1513 25.176 31.6909 25.4391C32.2349 25.702 32.6522 26.076 32.9424 26.5612C33.2372 27.0463 33.384 27.6199 33.384 28.2818C33.384 28.9483 33.2349 29.5241 32.9354 30.0093C32.636 30.4944 32.2123 30.8707 31.6636 31.1382C31.1196 31.4012 30.4758 31.5327 29.7322 31.5327H27.6919V35.1779H25.8965ZM27.6919 29.9956H29.6642C30.2672 29.9956 30.7433 29.8437 31.0924 29.54C31.4415 29.2317 31.6161 28.8122 31.6161 28.2818C31.6161 27.7558 31.4415 27.341 31.0924 27.0373C30.7433 26.7335 30.2672 26.5816 29.6642 26.5816H27.6919V29.9956ZM34.4246 35.1779V27.9962H36.0774V29.1863H36.0977C36.2294 28.7783 36.4355 28.4677 36.7169 28.2546C37.0025 28.037 37.3762 27.9281 37.8387 27.9281C37.9565 27.9281 38.061 27.9327 38.1515 27.9417C38.2467 27.9463 38.3285 27.9508 38.3964 27.9554V29.4788C38.3332 29.4697 38.2241 29.4583 38.0703 29.4448C37.9159 29.4312 37.7552 29.4243 37.5874 29.4243C37.1795 29.4243 36.8347 29.5649 36.5533 29.846C36.277 30.1271 36.1389 30.5488 36.1389 31.111V35.1779H34.4246ZM42.5041 35.3411C41.7972 35.3411 41.178 35.1847 40.6476 34.8719C40.1172 34.5545 39.7022 34.1147 39.4033 33.5525C39.1085 32.9903 38.9611 32.3374 38.9611 31.5938C38.9611 30.8503 39.1085 30.1974 39.4033 29.6352C39.7022 29.0685 40.1172 28.6264 40.6476 28.309C41.178 27.9916 41.7972 27.833 42.5041 27.833C43.2069 27.833 43.8238 27.9916 44.3542 28.309C44.8893 28.6264 45.3043 29.0685 45.5985 29.6352C45.898 30.1974 46.0477 30.8503 46.0477 31.5938C46.0477 32.3374 45.898 32.9903 45.5985 33.5525C45.3043 34.1147 44.8893 34.5545 44.3542 34.8719C43.8238 35.1847 43.2069 35.3411 42.5041 35.3411ZM42.5041 33.9062C43.0531 33.9062 43.4907 33.6998 43.8168 33.2873C44.1436 32.8747 44.3067 32.3102 44.3067 31.5938C44.3067 30.8775 44.1436 30.3108 43.8168 29.8936C43.4907 29.4765 43.0531 29.2679 42.5041 29.2679C41.951 29.2679 41.5111 29.4765 41.185 29.8936C40.8583 30.3062 40.6952 30.8729 40.6952 31.5938C40.6952 32.3102 40.8583 32.8747 41.185 33.2873C41.5111 33.6998 41.951 33.9062 42.5041 33.9062ZM51.0665 27.9962V29.3767H49.6046V35.1779H47.8839V29.3767H46.5915V27.9962H47.8839V26.9488C47.8839 26.3322 48.0696 25.8607 48.4416 25.5342C48.8177 25.2078 49.3597 25.0446 50.0671 25.0446H51.0665V26.4252H50.4072C50.1124 26.4252 49.9035 26.4863 49.781 26.6088C49.6632 26.7312 49.6046 26.9398 49.6046 27.2345V27.9962H51.0665ZM52.107 35.1779V27.9962H53.8208V35.1779H52.107ZM52.9642 26.9285C52.6694 26.9285 52.4245 26.8355 52.2295 26.6496C52.0345 26.4592 51.937 26.2257 51.937 25.9491C51.937 25.6725 52.0345 25.4413 52.2295 25.2554C52.4245 25.0695 52.6694 24.9766 52.9642 24.9766C53.2544 24.9766 53.497 25.0695 53.692 25.2554C53.887 25.4413 53.9845 25.6725 53.9845 25.9491C53.9845 26.2257 53.887 26.4592 53.692 26.6496C53.497 26.8355 53.2544 26.9285 52.9642 26.9285ZM57.058 25.0446V35.1779H55.3442V25.0446H57.058ZM61.7506 35.3411C61.0345 35.3411 60.4135 35.1802 59.8871 34.8583C59.3613 34.5363 58.9557 34.0943 58.6701 33.5321C58.3887 32.9654 58.2482 32.3193 58.2482 31.5938C58.2482 30.8639 58.3933 30.2178 58.6835 29.6556C58.9783 29.0888 59.384 28.6445 59.9011 28.3226C60.4181 27.9962 61.0118 27.833 61.6827 27.833C62.3722 27.833 62.9751 27.9916 63.4916 28.309C64.0087 28.6264 64.4097 29.0662 64.6959 29.6284C64.9814 30.186 65.1241 30.8321 65.1241 31.5666V32.0359H59.9283C59.951 32.6208 60.1233 33.0923 60.4448 33.4505C60.7669 33.8087 61.2155 33.9877 61.7918 33.9877C62.2224 33.9877 62.5782 33.8948 62.8596 33.709C63.1405 33.5185 63.3309 33.2691 63.4307 32.9608H65.0359C64.9448 33.4278 64.7458 33.8404 64.437 34.1986C64.1335 34.5568 63.7505 34.8379 63.2879 35.0419C62.8254 35.2414 62.313 35.3411 61.7506 35.3411ZM59.9417 30.8526H63.4783C63.4237 30.3402 63.238 29.9367 62.9206 29.642C62.6078 29.3427 62.2044 29.1931 61.71 29.1931C61.2115 29.1931 60.8052 29.3427 60.4924 29.642C60.1843 29.9367 60.0009 30.3402 59.9417 30.8526ZM73.1967 35.3411C71.9409 35.3411 70.9572 35.0351 70.2451 34.423C69.5377 33.8064 69.1842 32.9563 69.1842 31.8727H70.9456C70.9549 32.4848 71.1562 32.9631 71.5509 33.3076C71.9501 33.6522 72.5032 33.8246 73.2101 33.8246C73.8403 33.8246 74.3481 33.693 74.7335 33.4301C75.1194 33.1626 75.3121 32.8067 75.3121 32.3623C75.3121 32.0041 75.167 31.714 74.8768 31.4918C74.5866 31.2651 74.1038 31.0747 73.4277 30.9206L72.3396 30.6757C71.3286 30.4445 70.5829 30.1022 70.1023 29.6488C69.6218 29.1954 69.3815 28.6128 69.3815 27.9009C69.3815 27.298 69.5353 26.7697 69.8441 26.3164C70.1569 25.8629 70.5921 25.5116 71.1498 25.2622C71.7116 25.0083 72.3645 24.8813 73.1085 24.8813C74.2419 24.8813 75.1397 25.1693 75.8013 25.7451C76.4681 26.3209 76.8146 27.1121 76.8419 28.1186H75.1351C75.0985 27.5836 74.8995 27.1642 74.5367 26.8604C74.174 26.5566 73.6952 26.4047 73.1015 26.4047C72.5392 26.4047 72.079 26.5363 71.7209 26.7992C71.3628 27.0622 71.1835 27.4 71.1835 27.8125C71.1835 28.1526 71.324 28.4292 71.6054 28.6423C71.8909 28.8508 72.3645 29.0299 73.0267 29.1795L74.0539 29.4175C75.1055 29.6488 75.8762 29.9934 76.366 30.4513C76.8558 30.9092 77.1007 31.51 77.1007 32.2535C77.1007 32.8838 76.9417 33.4301 76.6242 33.8926C76.3068 34.355 75.8559 34.7132 75.2709 34.9671C74.6859 35.2165 73.9947 35.3411 73.1967 35.3411ZM81.5275 35.3411C80.8114 35.3411 80.1904 35.1802 79.6646 34.8583C79.1383 34.5363 78.7326 34.0943 78.4471 33.5321C78.1662 32.9654 78.0252 32.3193 78.0252 31.5938C78.0252 30.8639 78.1703 30.2178 78.4604 29.6556C78.7552 29.0888 79.1609 28.6445 79.678 28.3226C80.1951 27.9962 80.7888 27.833 81.4597 27.833C82.1491 27.833 82.7521 27.9916 83.2686 28.309C83.7857 28.6264 84.1873 29.0662 84.4728 29.6284C84.7583 30.186 84.9011 30.8321 84.9011 31.5666V32.0359H79.7053C79.7279 32.6208 79.9003 33.0923 80.2218 33.4505C80.5439 33.8087 80.993 33.9877 81.5687 33.9877C81.9994 33.9877 82.3551 33.8948 82.6366 33.709C82.9175 33.5185 83.1078 33.2691 83.2076 32.9608H84.8129C84.7218 33.4278 84.5227 33.8404 84.214 34.1986C83.9104 34.5568 83.5274 34.8379 83.0649 35.0419C82.6023 35.2414 82.0899 35.3411 81.5275 35.3411ZM79.7186 30.8526H83.2552C83.2007 30.3402 83.015 29.9367 82.6975 29.642C82.3847 29.3427 81.9814 29.1931 81.4869 29.1931C80.9884 29.1931 80.5828 29.3427 80.2699 29.642C79.9612 29.9367 79.7778 30.3402 79.7186 30.8526ZM89.859 27.9962V29.3767H88.3965V33.1172C88.3965 33.3757 88.4487 33.5548 88.5532 33.6545C88.6576 33.7497 88.848 33.7973 89.1242 33.7973H89.859V35.1779H88.8254C88.0953 35.1779 87.5533 35.0306 87.1998 34.7359C86.8505 34.4412 86.6764 33.9855 86.6764 33.3689V29.3767H85.4245V27.9962H86.6764V26.0375H88.3965V27.9962H89.859ZM94.1709 27.9962V29.3767H92.7084V33.1172C92.7084 33.3757 92.7607 33.5548 92.8651 33.6545C92.969 33.7497 93.1594 33.7973 93.4362 33.7973H94.1709V35.1779H93.1367C92.4072 35.1779 91.8652 35.0306 91.5118 34.7359C91.1624 34.4412 90.9877 33.9855 90.9877 33.3689V29.3767H89.7365V27.9962H90.9877V26.0375H92.7084V27.9962H94.1709ZM95.2521 35.1779V27.9962H96.9658V35.1779H95.2521ZM96.1093 26.9285C95.8144 26.9285 95.5695 26.8355 95.3745 26.6496C95.1795 26.4592 95.082 26.2257 95.082 25.9491C95.082 25.6725 95.1795 25.4413 95.3745 25.2554C95.5695 25.0695 95.8144 24.9766 96.1093 24.9766C96.3994 24.9766 96.6414 25.0695 96.8364 25.2554C97.0314 25.4413 97.1289 25.6725 97.1289 25.9491C97.1289 26.2257 97.0314 26.4592 96.8364 26.6496C96.6414 26.8355 96.3994 26.9285 96.1093 26.9285ZM100.203 31.1178V35.1779H98.4892V27.9962H100.176V29.0979C100.675 28.2682 101.409 27.8533 102.379 27.8533C103.132 27.8533 103.747 28.0959 104.222 28.581C104.703 29.0662 104.943 29.7689 104.943 30.6893V35.1779H103.223V30.9614C103.223 30.4354 103.096 30.0364 102.842 29.7644C102.588 29.4923 102.232 29.3564 101.774 29.3564C101.325 29.3564 100.951 29.4969 100.652 29.778C100.353 30.0591 100.203 30.5057 100.203 31.1178ZM109.731 38.1156C108.783 38.1156 108.031 37.9119 107.474 37.5038C106.916 37.0958 106.589 36.5427 106.494 35.8444H108.174C108.255 36.1527 108.435 36.3862 108.711 36.5449C108.988 36.7081 109.328 36.7897 109.731 36.7897C110.266 36.7897 110.681 36.6446 110.976 36.3544C111.275 36.0643 111.425 35.6449 111.425 35.0963V34.0014H111.418C111.187 34.423 110.885 34.7336 110.513 34.9331C110.141 35.1281 109.72 35.2255 109.248 35.2255C108.623 35.2255 108.077 35.0691 107.609 34.7562C107.142 34.4434 106.779 34.0127 106.521 33.4641C106.267 32.911 106.14 32.2739 106.14 31.553C106.14 30.8276 106.269 30.186 106.528 29.6284C106.786 29.0707 107.149 28.6355 107.616 28.3226C108.083 28.0097 108.623 27.8533 109.235 27.8533C109.701 27.8533 110.123 27.9531 110.499 28.1526C110.881 28.3476 111.189 28.6513 111.425 29.0639H111.431V27.9962H113.125V34.9943C113.125 35.7333 112.978 36.3318 112.683 36.7897C112.388 37.2522 111.985 37.5877 111.472 37.7963C110.96 38.0094 110.379 38.1156 109.731 38.1156ZM109.65 33.8109C110.212 33.8109 110.661 33.6047 110.996 33.192C111.336 32.7749 111.506 32.2218 111.506 31.5327C111.506 30.8434 111.336 30.2926 110.996 29.88C110.661 29.4629 110.212 29.2544 109.65 29.2544C109.119 29.2544 108.691 29.4516 108.364 29.846C108.038 30.2405 107.875 30.8027 107.875 31.5327C107.875 32.2671 108.038 32.8316 108.364 33.226C108.691 33.616 109.119 33.8109 109.65 33.8109ZM117.464 35.348C116.589 35.348 115.857 35.1439 115.267 34.7359C114.682 34.3232 114.363 33.7316 114.308 32.9608H116.002C116.038 33.3099 116.179 33.582 116.423 33.7769C116.668 33.9674 117.006 34.0626 117.437 34.0626C117.849 34.0626 118.173 33.981 118.409 33.8177C118.649 33.6545 118.769 33.4459 118.769 33.192C118.769 32.9744 118.681 32.7998 118.504 32.6684C118.328 32.5369 118.089 32.4394 117.79 32.376L116.566 32.1243C115.169 31.8341 114.471 31.1427 114.471 30.0501C114.471 29.3881 114.734 28.8554 115.261 28.4519C115.786 28.0438 116.487 27.8398 117.362 27.8398C118.233 27.8398 118.939 28.0551 119.484 28.4859C120.032 28.912 120.315 29.4946 120.334 30.2337H118.722C118.713 29.9118 118.588 29.6465 118.348 29.438C118.108 29.2294 117.793 29.1251 117.403 29.1251C117.026 29.1251 116.729 29.209 116.512 29.3767C116.294 29.5445 116.185 29.7508 116.185 29.9956C116.185 30.2087 116.269 30.3833 116.437 30.5193C116.605 30.6508 116.838 30.7505 117.137 30.8185L118.429 31.0838C119.141 31.2334 119.665 31.4692 120 31.7911C120.34 32.113 120.51 32.5369 120.51 33.0629C120.51 33.5299 120.379 33.9356 120.116 34.2802C119.857 34.6203 119.499 34.8832 119.042 35.0691C118.584 35.255 118.058 35.348 117.464 35.348Z" fill="black"/>
<path d="M475.254 26.3276L468 33.5819" stroke="black" stroke-width="0.580343" stroke-linecap="round" stroke-linejoin="round"/>
<path d="M468 26.3276L475.254 33.5819" stroke="black" stroke-width="0.580343" stroke-linecap="round" stroke-linejoin="round"/>
<path d="M30.5238 53.1685H29.8083C29.7659 52.9625 29.6919 52.782 29.5861 52.6259C29.4822 52.4704 29.3552 52.3392 29.2052 52.2336C29.0571 52.1262 28.8926 52.045 28.7119 51.9916C28.531 51.9376 28.3425 51.9103 28.1463 51.9103C27.7886 51.9103 27.4645 52.0009 27.174 52.1819C26.8855 52.3624 26.6557 52.6288 26.4845 52.9811C26.3152 53.3328 26.2306 53.7645 26.2306 54.2764C26.2306 54.7883 26.3152 55.22 26.4845 55.5717C26.6557 55.924 26.8855 56.1904 27.174 56.3709C27.4645 56.5519 27.7886 56.6425 28.1463 56.6425C28.3425 56.6425 28.531 56.6152 28.7119 56.5618C28.8926 56.5078 29.0571 56.4277 29.2052 56.3221C29.3552 56.2142 29.4822 56.0824 29.5861 55.9269C29.6919 55.7691 29.7659 55.5886 29.8083 55.3843H30.5238C30.4699 55.6866 30.3718 55.9565 30.2295 56.195C30.0872 56.4335 29.9102 56.6367 29.6986 56.8038C29.487 56.9692 29.2495 57.0951 28.986 57.1816C28.7243 57.2687 28.4445 57.3116 28.1463 57.3116C27.6424 57.3116 27.1942 57.1886 26.8018 56.9425C26.4094 56.6964 26.1007 56.3459 25.8757 55.8921C25.6506 55.4382 25.5381 54.8997 25.5381 54.2764C25.5381 53.6531 25.6506 53.1146 25.8757 52.6607C26.1007 52.2069 26.4094 51.857 26.8018 51.6103C27.1942 51.3642 27.6424 51.2412 28.1463 51.2412C28.4445 51.2412 28.7243 51.2847 28.986 51.3712C29.2495 51.4577 29.487 51.5848 29.6986 51.7519C29.9102 51.9173 30.0872 52.1193 30.2295 52.3578C30.3718 52.5946 30.4699 52.8644 30.5238 53.1685ZM32.2688 54.5648V57.2309H31.5877V51.3219H32.2688V53.4918H32.3262C32.4301 53.2625 32.5862 53.0809 32.794 52.9463C33.0035 52.8099 33.2821 52.7414 33.6303 52.7414C33.9326 52.7414 34.1967 52.8023 34.4236 52.923C34.6511 53.0426 34.8269 53.226 34.9517 53.4744C35.0788 53.7204 35.1421 54.0338 35.1421 54.4151V57.2309H34.4613V54.461C34.4613 54.1093 34.3702 53.8371 34.1874 53.6444C34.0063 53.4506 33.7556 53.3531 33.4341 53.3531C33.2113 53.3531 33.0111 53.4001 32.834 53.4947C32.6594 53.5887 32.5207 53.7262 32.4185 53.9073C32.3187 54.0878 32.2688 54.3072 32.2688 54.5648ZM37.6921 57.3348C37.4112 57.3348 37.1564 57.282 36.9278 57.1764C36.6986 57.0684 36.5169 56.9135 36.3823 56.7115C36.2476 56.5078 36.1803 56.2618 36.1803 55.9727C36.1803 55.7191 36.2302 55.5131 36.33 55.3553C36.4304 55.1957 36.5639 55.0709 36.7316 54.9804C36.8988 54.8898 37.0833 54.8225 37.2853 54.7784C37.489 54.7326 37.6938 54.696 37.8999 54.6687C38.1691 54.6345 38.3874 54.6084 38.5551 54.591C38.7239 54.5718 38.847 54.5399 38.9242 54.4958C39.0031 54.4517 39.0426 54.3745 39.0426 54.2648V54.2416C39.0426 53.9572 38.9648 53.7361 38.8087 53.5783C38.6549 53.4204 38.421 53.3415 38.1076 53.3415C37.7826 53.3415 37.5279 53.4129 37.3427 53.555C37.1582 53.6972 37.0288 53.8493 36.9533 54.0112L36.3074 53.7802C36.4229 53.5109 36.5767 53.3014 36.7688 53.1511C36.9632 52.9991 37.1744 52.8934 37.4037 52.8337C37.6346 52.7722 37.8616 52.7414 38.0844 52.7414C38.2266 52.7414 38.3903 52.7588 38.5748 52.7936C38.7617 52.8261 38.9416 52.8946 39.1145 52.9985C39.2898 53.1024 39.4349 53.2591 39.5504 53.4686C39.6658 53.6781 39.7233 53.959 39.7233 54.3112V57.2309H39.0426V56.6309H39.0077C38.9619 56.7272 38.8847 56.8299 38.7768 56.9396C38.6694 57.0493 38.5261 57.1427 38.3473 57.2193C38.168 57.2965 37.9498 57.3348 37.6921 57.3348ZM37.796 56.7231C38.0653 56.7231 38.2922 56.6703 38.4767 56.5647C38.6636 56.4585 38.804 56.3221 38.8981 56.155C38.9944 55.9873 39.0426 55.8114 39.0426 55.6269V55.0036C39.0135 55.0384 38.9503 55.0697 38.8522 55.0988C38.7559 55.1254 38.6444 55.1498 38.5173 55.1707C38.392 55.1899 38.2701 55.2073 38.1512 55.2229C38.0333 55.2363 37.9382 55.2479 37.865 55.2572C37.688 55.2804 37.5226 55.3181 37.3688 55.3698C37.2168 55.4197 37.0938 55.4957 36.9998 55.5978C36.9075 55.6977 36.861 55.8346 36.861 56.0076C36.861 56.2443 36.9487 56.4231 37.1239 56.5444C37.301 56.6634 37.525 56.7231 37.796 56.7231ZM41.6471 54.5648V57.2309H40.9664V52.7994H41.6239V53.4918H41.682C41.7853 53.2666 41.9431 53.0855 42.1549 52.9492C42.3662 52.811 42.6395 52.7414 42.9744 52.7414C43.2744 52.7414 43.5367 52.8029 43.7619 52.9259C43.9871 53.0472 44.1618 53.2318 44.2871 53.4802C44.4119 53.7262 44.4746 54.0379 44.4746 54.4151V57.2309H43.7938V54.461C43.7938 54.1128 43.7033 53.8417 43.5222 53.6473C43.3417 53.4512 43.0934 53.3531 42.7782 53.3531C42.5606 53.3531 42.3662 53.4001 42.195 53.4947C42.0261 53.5887 41.892 53.7262 41.794 53.9073C41.6959 54.0878 41.6471 54.3072 41.6471 54.5648ZM47.5074 58.9853C47.179 58.9853 46.8958 58.9429 46.6596 58.8582C46.4228 58.7752 46.2255 58.6661 46.0682 58.5292C45.9121 58.3945 45.7879 58.2506 45.6956 58.0962L46.2382 57.7155C46.2997 57.7962 46.3775 57.889 46.4721 57.9923C46.5661 58.0985 46.695 58.1897 46.8586 58.2668C47.024 58.3458 47.2405 58.3852 47.5074 58.3852C47.8655 58.3852 48.1609 58.2982 48.3936 58.1252C48.6263 57.9523 48.7424 57.6813 48.7424 57.3116V56.4115H48.685C48.6351 56.4922 48.5637 56.5926 48.4714 56.7115C48.3809 56.8288 48.2503 56.9338 48.0791 57.0261C47.9096 57.1166 47.681 57.1619 47.3925 57.1619C47.0345 57.1619 46.7135 57.0771 46.4286 56.9077C46.146 56.7388 45.9219 56.4922 45.7566 56.1689C45.5929 55.8462 45.5111 55.4533 45.5111 54.992C45.5111 54.5381 45.5912 54.1429 45.7507 53.8063C45.9103 53.4674 46.1326 53.2063 46.417 53.0211C46.7019 52.8348 47.0304 52.7414 47.4036 52.7414C47.6926 52.7414 47.9212 52.7896 48.0907 52.8859C48.2619 52.9799 48.3925 53.0879 48.483 53.2092C48.5753 53.3281 48.6467 53.4262 48.6966 53.5034H48.7656V52.7994H49.4237V57.358C49.4237 57.7387 49.3367 58.0486 49.1637 58.2872C48.9925 58.5274 48.7616 58.7033 48.4714 58.8147C48.183 58.9284 47.8615 58.9853 47.5074 58.9853ZM47.4848 56.5502C47.7576 56.5502 47.9886 56.4875 48.1772 56.3627C48.3658 56.2374 48.5091 56.0575 48.6072 55.823C48.7053 55.5886 48.754 55.3077 48.754 54.9804C48.754 54.6612 48.7059 54.3791 48.6101 54.1348C48.5138 53.8911 48.3716 53.6995 48.183 53.5608C47.9944 53.4221 47.7616 53.3531 47.4848 53.3531C47.1958 53.3531 46.9555 53.4262 46.7634 53.5724C46.5731 53.7187 46.4297 53.9149 46.3334 54.1609C46.2394 54.407 46.1918 54.6803 46.1918 54.9804C46.1918 55.2879 46.24 55.5601 46.3363 55.7969C46.4344 56.0314 46.5789 56.2165 46.7692 56.3511C46.9613 56.4834 47.1999 56.5502 47.4848 56.5502ZM52.528 57.3232C52.1009 57.3232 51.7323 57.2292 51.423 57.0406C51.1154 56.8502 50.8775 56.5844 50.7104 56.2444C50.545 55.9019 50.462 55.5038 50.462 55.0494C50.462 54.5956 50.545 54.1957 50.7104 53.8493C50.8775 53.5011 51.1102 53.23 51.4085 53.0356C51.7085 52.8395 52.0585 52.7414 52.4589 52.7414C52.6893 52.7414 52.9174 52.7797 53.1426 52.8569C53.3678 52.9341 53.5726 53.0588 53.7572 53.2318C53.9417 53.403 54.0891 53.6299 54.1988 53.9131C54.3079 54.1957 54.363 54.5439 54.363 54.9571V55.2462H50.9471V54.6571H53.6707C53.6707 54.407 53.6208 54.1841 53.5204 53.988C53.4223 53.7918 53.2819 53.6369 53.0991 53.5237C52.9186 53.41 52.705 53.3531 52.4589 53.3531C52.1873 53.3531 51.9529 53.4204 51.755 53.555C51.5588 53.6879 51.4074 53.8609 51.3017 54.0744C51.1961 54.288 51.1433 54.5167 51.1433 54.761V55.1533C51.1433 55.4882 51.2007 55.7719 51.3162 56.0047C51.4335 56.2356 51.596 56.4115 51.8037 56.5328C52.0115 56.6517 52.2529 56.7115 52.528 56.7115C52.7067 56.7115 52.8687 56.6866 53.0126 56.6367C53.1588 56.5844 53.2848 56.5078 53.3904 56.4057C53.4966 56.3018 53.5784 56.173 53.6359 56.0192L54.294 56.2037C54.2243 56.4272 54.1083 56.6233 53.9446 56.7922C53.781 56.9599 53.579 57.0905 53.3387 57.1845C53.0985 57.2774 52.828 57.3232 52.528 57.3232ZM62.4617 51.3219V57.2309H61.7694L58.5496 52.5917H58.4916V57.2309H57.776V51.3219H58.4684L61.7003 55.9727H61.7578V51.3219H62.4617ZM65.6594 57.3232C65.2323 57.3232 64.8638 57.2292 64.5545 57.0406C64.2469 56.8502 64.0089 56.5844 63.8418 56.2444C63.6764 55.9019 63.5934 55.5038 63.5934 55.0494C63.5934 54.5956 63.6764 54.1957 63.8418 53.8493C64.0089 53.5011 64.2416 53.23 64.5399 53.0356C64.84 52.8395 65.1899 52.7414 65.5904 52.7414C65.8208 52.7414 66.0488 52.7797 66.274 52.8569C66.4992 52.9341 66.704 53.0588 66.8886 53.2318C67.0731 53.403 67.2205 53.6299 67.3297 53.9131C67.4393 54.1957 67.4945 54.5439 67.4945 54.9571V55.2462H64.078V54.6571H66.8021C66.8021 54.407 66.7522 54.1841 66.6518 53.988C66.5537 53.7918 66.4133 53.6369 66.2305 53.5237C66.05 53.41 65.8364 53.3531 65.5904 53.3531C65.3188 53.3531 65.0843 53.4204 64.8864 53.555C64.6897 53.6879 64.5388 53.8609 64.4332 54.0744C64.3275 54.288 64.2747 54.5167 64.2747 54.761V55.1533C64.2747 55.4882 64.3322 55.7719 64.4477 56.0047C64.5649 56.2356 64.7274 56.4115 64.9352 56.5328C65.1429 56.6517 65.3843 56.7115 65.6594 56.7115C65.8382 56.7115 66.0001 56.6866 66.144 56.6367C66.2903 56.5844 66.4162 56.5078 66.5218 56.4057C66.628 56.3018 66.7098 56.173 66.7673 56.0192L67.4254 56.2037C67.3558 56.4272 67.2397 56.6233 67.076 56.7922C66.9124 56.9599 66.7104 57.0905 66.4702 57.1845C66.2299 57.2774 65.9595 57.3232 65.6594 57.3232ZM69.5344 57.2309L68.1839 52.7994H68.8995L69.8576 56.1921H69.9035L70.85 52.7994H71.5772L72.5115 56.1805H72.558L73.5161 52.7994H74.2317L72.8812 57.2309H72.2115L71.2423 53.8266H71.1733L70.2035 57.2309H69.5344ZM77.5089 57.2309V51.3219H79.5058C79.9689 51.3219 80.3479 51.4054 80.6421 51.5732C80.9387 51.7386 81.1581 51.9626 81.3003 52.2452C81.4424 52.5278 81.5138 52.8435 81.5138 53.1917C81.5138 53.54 81.4424 53.8562 81.3003 54.1406C81.1598 54.4256 80.9422 54.6525 80.6479 54.8219C80.3537 54.9891 79.9771 55.0726 79.5169 55.0726H78.0863V54.4383H79.4942C79.8117 54.4383 80.0664 54.3832 80.2585 54.2735C80.4512 54.1638 80.5905 54.0158 80.677 53.829C80.7658 53.6409 80.8099 53.4279 80.8099 53.1917C80.8099 52.955 80.7658 52.7437 80.677 52.5568C80.5905 52.3706 80.45 52.2243 80.2556 52.1181C80.0612 52.0107 79.8035 51.9568 79.4826 51.9568H78.2244V57.2309H77.5089ZM83.8781 57.3348C83.5973 57.3348 83.3425 57.282 83.1138 57.1764C82.8846 57.0684 82.7029 56.9135 82.5683 56.7115C82.4337 56.5078 82.3663 56.2618 82.3663 55.9727C82.3663 55.7191 82.4163 55.5131 82.5161 55.3553C82.6165 55.1957 82.7499 55.0709 82.9171 54.9804C83.0848 54.8898 83.2694 54.8225 83.4713 54.7784C83.675 54.7326 83.8799 54.696 84.0859 54.6687C84.3552 54.6345 84.5734 54.6084 84.7411 54.591C84.91 54.5718 85.033 54.5399 85.1102 54.4958C85.1891 54.4517 85.2286 54.3745 85.2286 54.2648V54.2416C85.2286 53.9572 85.1508 53.7361 84.9947 53.5783C84.8409 53.4204 84.607 53.3415 84.2937 53.3415C83.9687 53.3415 83.7139 53.4129 83.5288 53.555C83.3442 53.6972 83.2148 53.8493 83.1394 54.0112L82.4934 53.7802C82.6089 53.5109 82.7627 53.3014 82.9548 53.1511C83.1492 52.9991 83.3605 52.8934 83.5897 52.8337C83.8207 52.7722 84.0476 52.7414 84.2704 52.7414C84.4126 52.7414 84.5763 52.7588 84.7608 52.7936C84.9477 52.8261 85.1276 52.8946 85.3006 52.9985C85.4758 53.1024 85.6209 53.2591 85.7364 53.4686C85.8519 53.6781 85.9093 53.959 85.9093 54.3112V57.2309H85.2286V56.6309H85.1938C85.1479 56.7272 85.0707 56.8299 84.9628 56.9396C84.8554 57.0493 84.7121 57.1427 84.5333 57.2193C84.354 57.2965 84.1358 57.3348 83.8781 57.3348ZM83.982 56.7231C84.2513 56.7231 84.4782 56.6703 84.6628 56.5647C84.8496 56.4585 84.9901 56.3221 85.0841 56.155C85.1804 55.9873 85.2286 55.8114 85.2286 55.6269V55.0036C85.1996 55.0384 85.1363 55.0697 85.0382 55.0988C84.9419 55.1254 84.8305 55.1498 84.7034 55.1707C84.578 55.1899 84.4562 55.2073 84.3372 55.2229C84.2194 55.2363 84.1242 55.2479 84.0511 55.2572C83.8741 55.2804 83.7087 55.3181 83.5549 55.3698C83.4028 55.4197 83.2798 55.4957 83.1858 55.5978C83.0935 55.6977 83.0471 55.8346 83.0471 56.0076C83.0471 56.2443 83.1347 56.4231 83.31 56.5444C83.487 56.6634 83.711 56.7231 83.982 56.7231ZM90.2915 53.7918L89.6798 53.9648C89.6409 53.8626 89.5847 53.764 89.5092 53.6676C89.4361 53.5695 89.3363 53.4889 89.2092 53.425C89.0827 53.3618 88.9196 53.3299 88.7217 53.3299C88.4507 53.3299 88.2243 53.3925 88.0438 53.5179C87.8651 53.6409 87.7751 53.7976 87.7751 53.988C87.7751 54.1574 87.8367 54.2909 87.9603 54.389C88.0833 54.4871 88.2754 54.5689 88.5371 54.6345L89.1947 54.7958C89.591 54.8921 89.8864 55.039 90.0808 55.2375C90.2747 55.4336 90.3722 55.6866 90.3722 55.996C90.3722 56.2501 90.299 56.4771 90.1528 56.6767C90.0083 56.8769 89.8063 57.0348 89.5469 57.1503C89.2875 57.2657 88.9852 57.3232 88.641 57.3232C88.1889 57.3232 87.8146 57.2251 87.5186 57.029C87.2227 56.8328 87.0346 56.5461 86.9557 56.1689L87.6022 56.0076C87.6637 56.2461 87.7804 56.4248 87.9516 56.5444C88.1245 56.6634 88.3503 56.7231 88.6294 56.7231C88.9469 56.7231 89.1987 56.6558 89.3856 56.5212C89.5736 56.3848 89.6682 56.2211 89.6682 56.0308C89.6682 55.877 89.6143 55.7482 89.5063 55.6443C89.3989 55.5381 89.2335 55.4591 89.0101 55.4075L88.2719 55.2346C87.8657 55.1382 87.5674 54.9891 87.377 54.7871C87.189 54.5834 87.0944 54.3286 87.0944 54.0228C87.0944 53.7727 87.1646 53.5516 87.3051 53.3589C87.4472 53.1668 87.6405 53.0159 87.8848 52.9062C88.1315 52.7965 88.41 52.7414 88.7217 52.7414C89.1604 52.7414 89.5046 52.8377 89.7547 53.0298C90.0066 53.2225 90.1853 53.4761 90.2915 53.7918ZM94.5361 53.7918L93.9245 53.9648C93.8862 53.8626 93.8293 53.764 93.7544 53.6676C93.6813 53.5695 93.5809 53.4889 93.4544 53.425C93.3273 53.3618 93.1648 53.3299 92.9669 53.3299C92.6953 53.3299 92.4695 53.3925 92.2885 53.5179C92.1097 53.6409 92.0204 53.7976 92.0204 53.988C92.0204 54.1574 92.0819 54.2909 92.2049 54.389C92.3279 54.4871 92.5206 54.5689 92.7818 54.6345L93.4399 54.7958C93.8362 54.8921 94.1311 55.039 94.3255 55.2375C94.5199 55.4336 94.6168 55.6866 94.6168 55.996C94.6168 56.2501 94.5437 56.4771 94.3974 56.6767C94.2535 56.8769 94.0516 57.0348 93.7916 57.1503C93.5322 57.2657 93.2304 57.3232 92.8856 57.3232C92.4336 57.3232 92.0598 57.2251 91.7633 57.029C91.4673 56.8328 91.2798 56.5461 91.2009 56.1689L91.8474 56.0076C91.9089 56.2461 92.025 56.4248 92.1962 56.5444C92.3691 56.6634 92.5955 56.7231 92.874 56.7231C93.1915 56.7231 93.4439 56.6558 93.6302 56.5212C93.8188 56.3848 93.9128 56.2211 93.9128 56.0308C93.9128 55.877 93.8589 55.7482 93.7515 55.6443C93.6436 55.5381 93.4782 55.4591 93.2553 55.4075L92.5165 55.2346C92.1109 55.1382 91.8126 54.9891 91.6222 54.7871C91.4336 54.5834 91.3396 54.3286 91.3396 54.0228C91.3396 53.7727 91.4098 53.5516 91.5497 53.3589C91.6925 53.1668 91.8857 53.0159 92.13 52.9062C92.3761 52.7965 92.6552 52.7414 92.9669 52.7414C93.4051 52.7414 93.7498 52.8377 93.9993 53.0298C94.2518 53.2225 94.4305 53.4761 94.5361 53.7918ZM96.6463 57.2309L95.2958 52.7994H96.0114L96.9689 56.1921H97.0154L97.9619 52.7994H98.6885L99.6234 56.1805H99.6699L100.627 52.7994H101.343L99.9931 57.2309H99.3234L98.3542 53.8266H98.2846L97.3154 57.2309H96.6463ZM103.893 57.3232C103.493 57.3232 103.142 57.228 102.84 57.0377C102.54 56.8473 102.305 56.5809 102.136 56.2385C101.969 55.8961 101.885 55.4957 101.885 55.0384C101.885 54.5764 101.969 54.1737 102.136 53.829C102.305 53.4848 102.54 53.2179 102.84 53.0269C103.142 52.8366 103.493 52.7414 103.893 52.7414C104.293 52.7414 104.643 52.8366 104.943 53.0269C105.245 53.2179 105.48 53.4848 105.647 53.829C105.816 54.1737 105.901 54.5764 105.901 55.0384C105.901 55.4957 105.816 55.8961 105.647 56.2385C105.48 56.5809 105.245 56.8473 104.943 57.0377C104.643 57.228 104.293 57.3232 103.893 57.3232ZM103.893 56.7115C104.197 56.7115 104.447 56.6338 104.643 56.4776C104.84 56.3221 104.985 56.1173 105.079 55.8631C105.173 55.6095 105.22 55.3344 105.22 55.0384C105.22 54.7418 105.173 54.4662 105.079 54.2102C104.985 53.9543 104.84 53.7477 104.643 53.5899C104.447 53.432 104.197 53.3531 103.893 53.3531C103.589 53.3531 103.339 53.432 103.143 53.5899C102.946 53.7477 102.801 53.9543 102.707 54.2102C102.613 54.4662 102.566 54.7418 102.566 55.0384C102.566 55.3344 102.613 55.6095 102.707 55.8631C102.801 56.1173 102.946 56.3221 103.143 56.4776C103.339 56.6338 103.589 56.7115 103.893 56.7115ZM106.94 57.2309V52.7994H107.599V53.4686H107.644C107.725 53.2492 107.871 53.0716 108.083 52.9347C108.295 52.7983 108.533 52.7298 108.799 52.7298C108.849 52.7298 108.911 52.731 108.986 52.7327C109.061 52.735 109.118 52.7379 109.156 52.7414V53.4337C109.134 53.4279 109.08 53.4198 108.998 53.4082C108.917 53.3943 108.831 53.3879 108.741 53.3879C108.525 53.3879 108.333 53.4332 108.164 53.5237C107.997 53.6119 107.864 53.7349 107.766 53.8928C107.669 54.0483 107.622 54.2265 107.622 54.4267V57.2309H106.94ZM111.502 57.3232C111.133 57.3232 110.807 57.2298 110.524 57.0435C110.241 56.8549 110.02 56.5896 109.86 56.2472C109.701 55.9025 109.621 55.4957 109.621 55.0268C109.621 54.5614 109.701 54.1574 109.86 53.815C110.02 53.4726 110.242 53.208 110.527 53.0211C110.811 52.8348 111.14 52.7414 111.514 52.7414C111.802 52.7414 112.03 52.7896 112.197 52.8859C112.367 52.9799 112.495 53.0879 112.584 53.2092C112.674 53.3281 112.744 53.4262 112.795 53.5034H112.852V51.3219H113.533V57.2309H112.876V56.5502H112.795C112.744 56.6309 112.674 56.733 112.581 56.856C112.489 56.9767 112.357 57.0858 112.186 57.1816C112.015 57.2762 111.787 57.3232 111.502 57.3232ZM111.594 56.7115C111.868 56.7115 112.098 56.6401 112.287 56.498C112.475 56.354 112.618 56.155 112.717 55.9008C112.815 55.6449 112.864 55.35 112.864 55.0152C112.864 54.6844 112.816 54.3948 112.719 54.1464C112.624 53.8963 112.481 53.7024 112.293 53.5637C112.104 53.4233 111.872 53.3531 111.594 53.3531C111.306 53.3531 111.065 53.4274 110.873 53.5753C110.682 53.7216 110.539 53.9207 110.443 54.1725C110.349 54.4227 110.302 54.7035 110.302 55.0152C110.302 55.3303 110.35 55.617 110.446 55.8747C110.544 56.1306 110.688 56.3343 110.879 56.4863C111.071 56.6367 111.31 56.7115 111.594 56.7115Z" fill="black"/>
<path d="M25.0527 71.7394C25.0527 68.8546 27.3912 66.5164 30.2758 66.5164H473.658C476.543 66.5164 478.881 68.8546 478.881 71.7394V89.1497C478.881 92.0346 476.543 94.3728 473.658 94.3728H30.2758C27.3912 94.3728 25.0527 92.0346 25.0527 89.1497V71.7394Z" fill="#EEF2F1"/>
<path d="M36.2197 80.9704L36.2563 79.4337L34.9412 80.2403L34.6963 79.8051L36.052 79.0756L34.6963 78.3409L34.9412 77.9056L36.2563 78.7082L36.2197 77.1709H36.7141L36.6776 78.7082L37.988 77.9056L38.2375 78.3409L36.8819 79.0756L38.2375 79.8051L37.988 80.2403L36.6776 79.4337L36.7141 80.9704H36.2197ZM40.4817 80.9704L40.5177 79.4337L39.2032 80.2403L38.9583 79.8051L40.314 79.0756L38.9583 78.3409L39.2032 77.9056L40.5177 78.7082L40.4817 77.1709H40.9762L40.9396 78.7082L42.25 77.9056L42.499 78.3409L41.1439 79.0756L42.499 79.8051L42.25 80.2403L40.9396 79.4337L40.9762 80.9704H40.4817ZM44.7438 80.9704L44.7798 79.4337L43.4653 80.2403L43.2204 79.8051L44.5761 79.0756L43.2204 78.3409L43.4653 77.9056L44.7798 78.7082L44.7438 77.1709H45.2376L45.2017 78.7082L46.5121 77.9056L46.761 78.3409L45.4054 79.0756L46.761 79.8051L46.5121 80.2403L45.2017 79.4337L45.2376 80.9704H44.7438ZM49.0052 80.9704L49.0418 79.4337L47.7267 80.2403L47.4818 79.8051L48.8375 79.0756L47.4818 78.3409L47.7267 77.9056L49.0418 78.7082L49.0052 77.1709H49.4997L49.4631 78.7082L50.7735 77.9056L51.0231 78.3409L49.6674 79.0756L51.0231 79.8051L50.7735 80.2403L49.4631 79.4337L49.4997 80.9704H49.0052ZM53.2673 80.9704L53.3038 79.4337L51.9888 80.2403L51.7439 79.8051L53.0996 79.0756L51.7439 78.3409L51.9888 77.9056L53.3038 78.7082L53.2673 77.1709H53.7617L53.7252 78.7082L55.0356 77.9056L55.2851 78.3409L53.9294 79.0756L55.2851 79.8051L55.0356 80.2403L53.7252 79.4337L53.7617 80.9704H53.2673ZM57.5293 80.9704L57.5653 79.4337L56.2508 80.2403L56.0059 79.8051L57.3616 79.0756L56.0059 78.3409L56.2508 77.9056L57.5653 78.7082L57.5293 77.1709H58.0232L57.9872 78.7082L59.2976 77.9056L59.5472 78.3409L58.1915 79.0756L59.5472 79.8051L59.2976 80.2403L57.9872 79.4337L58.0232 80.9704H57.5293ZM61.7914 80.9704L61.8273 79.4337L60.5129 80.2403L60.268 79.8051L61.6236 79.0756L60.268 78.3409L60.5129 77.9056L61.8273 78.7082L61.7914 77.1709H62.2852L62.2492 78.7082L63.5597 77.9056L63.8086 78.3409L62.453 79.0756L63.8086 79.8051L63.5597 80.2403L62.2492 79.4337L62.2852 80.9704H61.7914ZM66.0528 80.9704L66.0894 79.4337L64.7743 80.2403L64.5294 79.8051L65.8851 79.0756L64.5294 78.3409L64.7743 77.9056L66.0894 78.7082L66.0528 77.1709H66.5473L66.5113 78.7082L67.8211 77.9056L68.0707 78.3409L66.715 79.0756L68.0707 79.8051L67.8211 80.2403L66.5113 79.4337L66.5473 80.9704H66.0528ZM70.3149 80.9704L70.3514 79.4337L69.0364 80.2403L68.7915 79.8051L70.1471 79.0756L68.7915 78.3409L69.0364 77.9056L70.3514 78.7082L70.3149 77.1709H70.8093L70.7728 78.7082L72.0832 77.9056L72.3327 78.3409L70.977 79.0756L72.3327 79.8051L72.0832 80.2403L70.7728 79.4337L70.8093 80.9704H70.3149ZM74.5769 80.9704L74.6129 79.4337L73.2984 80.2403L73.0535 79.8051L74.4092 79.0756L73.0535 78.3409L73.2984 77.9056L74.6129 78.7082L74.5769 77.1709H75.0714L75.0348 78.7082L76.3452 77.9056L76.5942 78.3409L75.2391 79.0756L76.5942 79.8051L76.3452 80.2403L75.0348 79.4337L75.0714 80.9704H74.5769ZM78.8389 80.9704L78.8749 79.4337L77.5604 80.2403L77.3155 79.8051L78.6712 79.0756L77.3155 78.3409L77.5604 77.9056L78.8749 78.7082L78.8389 77.1709H79.3328L79.2968 78.7082L80.6072 77.9056L80.8562 78.3409L79.5005 79.0756L80.8562 79.8051L80.6072 80.2403L79.2968 79.4337L79.3328 80.9704H78.8389ZM83.1004 80.9704L83.137 79.4337L81.8219 80.2403L81.577 79.8051L82.9327 79.0756L81.577 78.3409L81.8219 77.9056L83.137 78.7082L83.1004 77.1709H83.5949L83.5583 78.7082L84.8687 77.9056L85.1183 78.3409L83.7626 79.0756L85.1183 79.8051L84.8687 80.2403L83.5583 79.4337L83.5949 80.9704H83.1004ZM87.3624 80.9704L87.399 79.4337L86.0839 80.2403L85.839 79.8051L87.1947 79.0756L85.839 78.3409L86.0839 77.9056L87.399 78.7082L87.3624 77.1709H87.8569L87.8203 78.7082L89.1307 77.9056L89.3803 78.3409L88.0246 79.0756L89.3803 79.8051L89.1307 80.2403L87.8203 79.4337L87.8569 80.9704H87.3624ZM91.6245 80.9704L91.6605 79.4337L90.346 80.2403L90.1011 79.8051L91.4568 79.0756L90.1011 78.3409L90.346 77.9056L91.6605 78.7082L91.6245 77.1709H92.1184L92.0824 78.7082L93.3928 77.9056L93.6423 78.3409L92.2867 79.0756L93.6423 79.8051L93.3928 80.2403L92.0824 79.4337L92.1184 80.9704H91.6245ZM95.8865 80.9704L95.9225 79.4337L94.608 80.2403L94.3631 79.8051L95.7188 79.0756L94.3631 78.3409L94.608 77.9056L95.9225 78.7082L95.8865 77.1709H96.3804L96.3444 78.7082L97.6548 77.9056L97.9038 78.3409L96.5481 79.0756L97.9038 79.8051L97.6548 80.2403L96.3444 79.4337L96.3804 80.9704H95.8865ZM100.148 80.9704L100.185 79.4337L98.8695 80.2403L98.6246 79.8051L99.9803 79.0756L98.6246 78.3409L98.8695 77.9056L100.185 78.7082L100.148 77.1709H100.642L100.606 78.7082L101.916 77.9056L102.166 78.3409L100.81 79.0756L102.166 79.8051L101.916 80.2403L100.606 79.4337L100.642 80.9704H100.148ZM104.41 80.9704L104.447 79.4337L103.132 80.2403L102.887 79.8051L104.242 79.0756L102.887 78.3409L103.132 77.9056L104.447 78.7082L104.41 77.1709H104.904L104.868 78.7082L106.178 77.9056L106.428 78.3409L105.072 79.0756L106.428 79.8051L106.178 80.2403L104.868 79.4337L104.904 80.9704H104.41ZM108.672 80.9704L108.708 79.4337L107.394 80.2403L107.149 79.8051L108.504 79.0756L107.149 78.3409L107.394 77.9056L108.708 78.7082L108.672 77.1709H109.167L109.13 78.7082L110.44 77.9056L110.689 78.3409L109.334 79.0756L110.689 79.8051L110.44 80.2403L109.13 79.4337L109.167 80.9704H108.672Z" fill="#8B8E8C"/>
<path d="M459.693 78.4133C461.216 81.7143 465.787 81.7143 467.31 78.4133" stroke="#8B8E8C" stroke-width="0.580343" stroke-linecap="round" stroke-linejoin="round"/>
<path d="M465.948 80.0977L467.311 81.9681" stroke="#8B8E8C" stroke-width="0.580343" stroke-linecap="round" stroke-linejoin="round"/>
<path d="M463.502 80.8892V82.73" stroke="#8B8E8C" stroke-width="0.580343" stroke-linecap="round" stroke-linejoin="round"/>
<path d="M461.056 80.0977L459.693 81.9681" stroke="#8B8E8C" stroke-width="0.580343" stroke-linecap="round" stroke-linejoin="round"/>
<path d="M30.5238 110.042H29.8083C29.7659 109.836 29.6919 109.656 29.5861 109.499C29.4822 109.344 29.3552 109.213 29.2052 109.107C29.0571 109 28.8926 108.919 28.7119 108.865C28.531 108.811 28.3425 108.784 28.1463 108.784C27.7886 108.784 27.4645 108.874 27.174 109.055C26.8855 109.236 26.6557 109.502 26.4845 109.855C26.3152 110.206 26.2306 110.638 26.2306 111.15C26.2306 111.662 26.3152 112.094 26.4845 112.445C26.6557 112.798 26.8855 113.064 27.174 113.244C27.4645 113.425 27.7886 113.516 28.1463 113.516C28.3425 113.516 28.531 113.489 28.7119 113.435C28.8926 113.381 29.0571 113.301 29.2052 113.196C29.3552 113.088 29.4822 112.956 29.5861 112.8C29.6919 112.643 29.7659 112.462 29.8083 112.258H30.5238C30.4699 112.56 30.3718 112.83 30.2295 113.069C30.0872 113.307 29.9102 113.51 29.6986 113.677C29.487 113.843 29.2495 113.969 28.986 114.055C28.7243 114.142 28.4445 114.185 28.1463 114.185C27.6424 114.185 27.1942 114.062 26.8018 113.816C26.4094 113.57 26.1007 113.219 25.8757 112.766C25.6506 112.312 25.5381 111.773 25.5381 111.15C25.5381 110.527 25.6506 109.988 25.8757 109.534C26.1007 109.08 26.4094 108.73 26.8018 108.484C27.1942 108.238 27.6424 108.115 28.1463 108.115C28.4445 108.115 28.7243 108.158 28.986 108.245C29.2495 108.331 29.487 108.458 29.6986 108.625C29.9102 108.791 30.0872 108.993 30.2295 109.231C30.3718 109.468 30.4699 109.738 30.5238 110.042ZM32.2688 111.438V114.104H31.5877V108.195H32.2688V110.365H32.3262C32.4301 110.136 32.5862 109.954 32.794 109.82C33.0035 109.683 33.2821 109.615 33.6303 109.615C33.9326 109.615 34.1967 109.676 34.4236 109.797C34.6511 109.916 34.8269 110.1 34.9517 110.348C35.0788 110.594 35.1421 110.907 35.1421 111.289V114.104H34.4613V111.334C34.4613 110.983 34.3702 110.711 34.1874 110.518C34.0063 110.324 33.7556 110.227 33.4341 110.227C33.2113 110.227 33.0111 110.274 32.834 110.368C32.6594 110.462 32.5207 110.6 32.4185 110.781C32.3187 110.961 32.2688 111.181 32.2688 111.438ZM37.6921 114.208C37.4112 114.208 37.1564 114.156 36.9278 114.05C36.6986 113.942 36.5169 113.787 36.3823 113.585C36.2476 113.381 36.1803 113.135 36.1803 112.846C36.1803 112.593 36.2302 112.387 36.33 112.229C36.4304 112.069 36.5639 111.944 36.7316 111.854C36.8988 111.763 37.0833 111.696 37.2853 111.652C37.489 111.606 37.6938 111.57 37.8999 111.542C38.1691 111.508 38.3874 111.482 38.5551 111.464C38.7239 111.445 38.847 111.413 38.9242 111.369C39.0031 111.325 39.0426 111.248 39.0426 111.138V111.115C39.0426 110.831 38.9648 110.61 38.8087 110.452C38.6549 110.294 38.421 110.215 38.1076 110.215C37.7826 110.215 37.5279 110.286 37.3427 110.429C37.1582 110.571 37.0288 110.723 36.9533 110.885L36.3074 110.654C36.4229 110.384 36.5767 110.175 36.7688 110.025C36.9632 109.873 37.1744 109.767 37.4037 109.707C37.6346 109.646 37.8616 109.615 38.0844 109.615C38.2266 109.615 38.3903 109.632 38.5748 109.667C38.7617 109.7 38.9416 109.768 39.1145 109.872C39.2898 109.976 39.4349 110.133 39.5504 110.342C39.6658 110.552 39.7233 110.832 39.7233 111.185V114.104H39.0426V113.504H39.0077C38.9619 113.601 38.8847 113.703 38.7768 113.813C38.6694 113.923 38.5261 114.016 38.3473 114.093C38.168 114.17 37.9498 114.208 37.6921 114.208ZM37.796 113.597C38.0653 113.597 38.2922 113.544 38.4767 113.438C38.6636 113.332 38.804 113.196 38.8981 113.029C38.9944 112.861 39.0426 112.685 39.0426 112.5V111.877C39.0135 111.912 38.9503 111.943 38.8522 111.972C38.7559 111.999 38.6444 112.023 38.5173 112.044C38.392 112.063 38.2701 112.081 38.1512 112.096C38.0333 112.11 37.9382 112.121 37.865 112.131C37.688 112.154 37.5226 112.192 37.3688 112.243C37.2168 112.293 37.0938 112.369 36.9998 112.471C36.9075 112.571 36.861 112.708 36.861 112.881C36.861 113.118 36.9487 113.297 37.1239 113.418C37.301 113.537 37.525 113.597 37.796 113.597ZM41.6471 111.438V114.104H40.9664V109.673H41.6239V110.365H41.682C41.7853 110.14 41.9431 109.959 42.1549 109.823C42.3662 109.685 42.6395 109.615 42.9744 109.615C43.2744 109.615 43.5367 109.676 43.7619 109.799C43.9871 109.921 44.1618 110.105 44.2871 110.354C44.4119 110.6 44.4746 110.911 44.4746 111.289V114.104H43.7938V111.334C43.7938 110.986 43.7033 110.715 43.5222 110.521C43.3417 110.325 43.0934 110.227 42.7782 110.227C42.5606 110.227 42.3662 110.274 42.195 110.368C42.0261 110.462 41.892 110.6 41.794 110.781C41.6959 110.961 41.6471 111.181 41.6471 111.438ZM47.5074 115.859C47.179 115.859 46.8958 115.816 46.6596 115.732C46.4228 115.649 46.2255 115.54 46.0682 115.403C45.9121 115.268 45.7879 115.124 45.6956 114.97L46.2382 114.589C46.2997 114.67 46.3775 114.763 46.4721 114.866C46.5661 114.972 46.695 115.063 46.8586 115.14C47.024 115.219 47.2405 115.259 47.5074 115.259C47.8655 115.259 48.1609 115.172 48.3936 114.999C48.6263 114.826 48.7424 114.555 48.7424 114.185V113.285H48.685C48.6351 113.366 48.5637 113.466 48.4714 113.585C48.3809 113.702 48.2503 113.807 48.0791 113.9C47.9096 113.99 47.681 114.035 47.3925 114.035C47.0345 114.035 46.7135 113.951 46.4286 113.781C46.146 113.612 45.9219 113.366 45.7566 113.042C45.5929 112.72 45.5111 112.327 45.5111 111.866C45.5111 111.412 45.5912 111.016 45.7507 110.68C45.9103 110.341 46.1326 110.08 46.417 109.895C46.7019 109.708 47.0304 109.615 47.4036 109.615C47.6926 109.615 47.9212 109.663 48.0907 109.759C48.2619 109.853 48.3925 109.961 48.483 110.083C48.5753 110.202 48.6467 110.3 48.6966 110.377H48.7656V109.673H49.4237V114.232C49.4237 114.612 49.3367 114.922 49.1637 115.161C48.9925 115.401 48.7616 115.577 48.4714 115.688C48.183 115.802 47.8615 115.859 47.5074 115.859ZM47.4848 113.424C47.7576 113.424 47.9886 113.361 48.1772 113.236C48.3658 113.111 48.5091 112.931 48.6072 112.697C48.7053 112.462 48.754 112.181 48.754 111.854C48.754 111.535 48.7059 111.253 48.6101 111.008C48.5138 110.765 48.3716 110.573 48.183 110.434C47.9944 110.296 47.7616 110.227 47.4848 110.227C47.1958 110.227 46.9555 110.3 46.7634 110.446C46.5731 110.592 46.4297 110.788 46.3334 111.034C46.2394 111.281 46.1918 111.554 46.1918 111.854C46.1918 112.161 46.24 112.434 46.3363 112.67C46.4344 112.905 46.5789 113.09 46.7692 113.225C46.9613 113.357 47.1999 113.424 47.4848 113.424ZM52.528 114.197C52.1009 114.197 51.7323 114.103 51.423 113.914C51.1154 113.724 50.8775 113.458 50.7104 113.118C50.545 112.775 50.462 112.377 50.462 111.923C50.462 111.469 50.545 111.069 50.7104 110.723C50.8775 110.375 51.1102 110.104 51.4085 109.909C51.7085 109.713 52.0585 109.615 52.4589 109.615C52.6893 109.615 52.9174 109.653 53.1426 109.73C53.3678 109.808 53.5726 109.932 53.7572 110.105C53.9417 110.277 54.0891 110.503 54.1988 110.787C54.3079 111.069 54.363 111.417 54.363 111.831V112.12H50.9471V111.531H53.6707C53.6707 111.281 53.6208 111.058 53.5204 110.862C53.4223 110.665 53.2819 110.51 53.0991 110.397C52.9186 110.283 52.705 110.227 52.4589 110.227C52.1873 110.227 51.9529 110.294 51.755 110.429C51.5588 110.561 51.4074 110.734 51.3017 110.948C51.1961 111.162 51.1433 111.39 51.1433 111.635V112.027C51.1433 112.362 51.2007 112.645 51.3162 112.878C51.4335 113.109 51.596 113.285 51.8037 113.406C52.0115 113.525 52.2529 113.585 52.528 113.585C52.7067 113.585 52.8687 113.56 53.0126 113.51C53.1588 113.458 53.2848 113.381 53.3904 113.279C53.4966 113.175 53.5784 113.047 53.6359 112.893L54.294 113.077C54.2243 113.301 54.1083 113.497 53.9446 113.666C53.781 113.833 53.579 113.964 53.3387 114.058C53.0985 114.151 52.828 114.197 52.528 114.197ZM62.4617 108.195V114.104H61.7694L58.5496 109.465H58.4916V114.104H57.776V108.195H58.4684L61.7003 112.846H61.7578V108.195H62.4617ZM65.6594 114.197C65.2323 114.197 64.8638 114.103 64.5545 113.914C64.2469 113.724 64.0089 113.458 63.8418 113.118C63.6764 112.775 63.5934 112.377 63.5934 111.923C63.5934 111.469 63.6764 111.069 63.8418 110.723C64.0089 110.375 64.2416 110.104 64.5399 109.909C64.84 109.713 65.1899 109.615 65.5904 109.615C65.8208 109.615 66.0488 109.653 66.274 109.73C66.4992 109.808 66.704 109.932 66.8886 110.105C67.0731 110.277 67.2205 110.503 67.3297 110.787C67.4393 111.069 67.4945 111.417 67.4945 111.831V112.12H64.078V111.531H66.8021C66.8021 111.281 66.7522 111.058 66.6518 110.862C66.5537 110.665 66.4133 110.51 66.2305 110.397C66.05 110.283 65.8364 110.227 65.5904 110.227C65.3188 110.227 65.0843 110.294 64.8864 110.429C64.6897 110.561 64.5388 110.734 64.4332 110.948C64.3275 111.162 64.2747 111.39 64.2747 111.635V112.027C64.2747 112.362 64.3322 112.645 64.4477 112.878C64.5649 113.109 64.7274 113.285 64.9352 113.406C65.1429 113.525 65.3843 113.585 65.6594 113.585C65.8382 113.585 66.0001 113.56 66.144 113.51C66.2903 113.458 66.4162 113.381 66.5218 113.279C66.628 113.175 66.7098 113.047 66.7673 112.893L67.4254 113.077C67.3558 113.301 67.2397 113.497 67.076 113.666C66.9124 113.833 66.7104 113.964 66.4702 114.058C66.2299 114.151 65.9595 114.197 65.6594 114.197ZM69.5344 114.104L68.1839 109.673H68.8995L69.8576 113.066H69.9035L70.85 109.673H71.5772L72.5115 113.054H72.558L73.5161 109.673H74.2317L72.8812 114.104H72.2115L71.2423 110.7H71.1733L70.2035 114.104H69.5344ZM77.5089 114.104V108.195H79.5058C79.9689 108.195 80.3479 108.279 80.6421 108.447C80.9387 108.612 81.1581 108.836 81.3003 109.119C81.4424 109.401 81.5138 109.717 81.5138 110.065C81.5138 110.413 81.4424 110.73 81.3003 111.014C81.1598 111.299 80.9422 111.526 80.6479 111.695C80.3537 111.863 79.9771 111.946 79.5169 111.946H78.0863V111.312H79.4942C79.8117 111.312 80.0664 111.257 80.2585 111.147C80.4512 111.037 80.5905 110.889 80.677 110.702C80.7658 110.514 80.8099 110.301 80.8099 110.065C80.8099 109.828 80.7658 109.617 80.677 109.43C80.5905 109.244 80.45 109.098 80.2556 108.992C80.0612 108.884 79.8035 108.83 79.4826 108.83H78.2244V114.104H77.5089ZM83.8781 114.208C83.5973 114.208 83.3425 114.156 83.1138 114.05C82.8846 113.942 82.7029 113.787 82.5683 113.585C82.4337 113.381 82.3663 113.135 82.3663 112.846C82.3663 112.593 82.4163 112.387 82.5161 112.229C82.6165 112.069 82.7499 111.944 82.9171 111.854C83.0848 111.763 83.2694 111.696 83.4713 111.652C83.675 111.606 83.8799 111.57 84.0859 111.542C84.3552 111.508 84.5734 111.482 84.7411 111.464C84.91 111.445 85.033 111.413 85.1102 111.369C85.1891 111.325 85.2286 111.248 85.2286 111.138V111.115C85.2286 110.831 85.1508 110.61 84.9947 110.452C84.8409 110.294 84.607 110.215 84.2937 110.215C83.9687 110.215 83.7139 110.286 83.5288 110.429C83.3442 110.571 83.2148 110.723 83.1394 110.885L82.4934 110.654C82.6089 110.384 82.7627 110.175 82.9548 110.025C83.1492 109.873 83.3605 109.767 83.5897 109.707C83.8207 109.646 84.0476 109.615 84.2704 109.615C84.4126 109.615 84.5763 109.632 84.7608 109.667C84.9477 109.7 85.1276 109.768 85.3006 109.872C85.4758 109.976 85.6209 110.133 85.7364 110.342C85.8519 110.552 85.9093 110.832 85.9093 111.185V114.104H85.2286V113.504H85.1938C85.1479 113.601 85.0707 113.703 84.9628 113.813C84.8554 113.923 84.7121 114.016 84.5333 114.093C84.354 114.17 84.1358 114.208 83.8781 114.208ZM83.982 113.597C84.2513 113.597 84.4782 113.544 84.6628 113.438C84.8496 113.332 84.9901 113.196 85.0841 113.029C85.1804 112.861 85.2286 112.685 85.2286 112.5V111.877C85.1996 111.912 85.1363 111.943 85.0382 111.972C84.9419 111.999 84.8305 112.023 84.7034 112.044C84.578 112.063 84.4562 112.081 84.3372 112.096C84.2194 112.11 84.1242 112.121 84.0511 112.131C83.8741 112.154 83.7087 112.192 83.5549 112.243C83.4028 112.293 83.2798 112.369 83.1858 112.471C83.0935 112.571 83.0471 112.708 83.0471 112.881C83.0471 113.118 83.1347 113.297 83.31 113.418C83.487 113.537 83.711 113.597 83.982 113.597ZM90.2915 110.665L89.6798 110.838C89.6409 110.736 89.5847 110.637 89.5092 110.541C89.4361 110.443 89.3363 110.362 89.2092 110.299C89.0827 110.235 88.9196 110.203 88.7217 110.203C88.4507 110.203 88.2243 110.266 88.0438 110.391C87.8651 110.514 87.7751 110.671 87.7751 110.862C87.7751 111.031 87.8367 111.164 87.9603 111.263C88.0833 111.361 88.2754 111.442 88.5371 111.508L89.1947 111.669C89.591 111.766 89.8864 111.913 90.0808 112.111C90.2747 112.307 90.3722 112.56 90.3722 112.869C90.3722 113.124 90.299 113.351 90.1528 113.55C90.0083 113.75 89.8063 113.908 89.5469 114.024C89.2875 114.139 88.9852 114.197 88.641 114.197C88.1889 114.197 87.8146 114.099 87.5186 113.903C87.2227 113.706 87.0346 113.42 86.9557 113.042L87.6022 112.881C87.6637 113.12 87.7804 113.298 87.9516 113.418C88.1245 113.537 88.3503 113.597 88.6294 113.597C88.9469 113.597 89.1987 113.529 89.3856 113.395C89.5736 113.258 89.6682 113.095 89.6682 112.904C89.6682 112.751 89.6143 112.622 89.5063 112.518C89.3989 112.412 89.2335 112.333 89.0101 112.281L88.2719 112.108C87.8657 112.012 87.5674 111.863 87.377 111.661C87.189 111.457 87.0944 111.202 87.0944 110.896C87.0944 110.646 87.1646 110.425 87.3051 110.232C87.4472 110.04 87.6405 109.889 87.8848 109.78C88.1315 109.67 88.41 109.615 88.7217 109.615C89.1604 109.615 89.5046 109.711 89.7547 109.903C90.0066 110.096 90.1853 110.35 90.2915 110.665ZM94.5361 110.665L93.9245 110.838C93.8862 110.736 93.8293 110.637 93.7544 110.541C93.6813 110.443 93.5809 110.362 93.4544 110.299C93.3273 110.235 93.1648 110.203 92.9669 110.203C92.6953 110.203 92.4695 110.266 92.2885 110.391C92.1097 110.514 92.0204 110.671 92.0204 110.862C92.0204 111.031 92.0819 111.164 92.2049 111.263C92.3279 111.361 92.5206 111.442 92.7818 111.508L93.4399 111.669C93.8362 111.766 94.1311 111.913 94.3255 112.111C94.5199 112.307 94.6168 112.56 94.6168 112.869C94.6168 113.124 94.5437 113.351 94.3974 113.55C94.2535 113.75 94.0516 113.908 93.7916 114.024C93.5322 114.139 93.2304 114.197 92.8856 114.197C92.4336 114.197 92.0598 114.099 91.7633 113.903C91.4673 113.706 91.2798 113.42 91.2009 113.042L91.8474 112.881C91.9089 113.12 92.025 113.298 92.1962 113.418C92.3691 113.537 92.5955 113.597 92.874 113.597C93.1915 113.597 93.4439 113.529 93.6302 113.395C93.8188 113.258 93.9128 113.095 93.9128 112.904C93.9128 112.751 93.8589 112.622 93.7515 112.518C93.6436 112.412 93.4782 112.333 93.2553 112.281L92.5165 112.108C92.1109 112.012 91.8126 111.863 91.6222 111.661C91.4336 111.457 91.3396 111.202 91.3396 110.896C91.3396 110.646 91.4098 110.425 91.5497 110.232C91.6925 110.04 91.8857 109.889 92.13 109.78C92.3761 109.67 92.6552 109.615 92.9669 109.615C93.4051 109.615 93.7498 109.711 93.9993 109.903C94.2518 110.096 94.4305 110.35 94.5361 110.665ZM96.6463 114.104L95.2958 109.673H96.0114L96.9689 113.066H97.0154L97.9619 109.673H98.6885L99.6234 113.054H99.6699L100.627 109.673H101.343L99.9931 114.104H99.3234L98.3542 110.7H98.2846L97.3154 114.104H96.6463ZM103.893 114.197C103.493 114.197 103.142 114.102 102.84 113.911C102.54 113.721 102.305 113.454 102.136 113.112C101.969 112.77 101.885 112.369 101.885 111.912C101.885 111.45 101.969 111.047 102.136 110.702C102.305 110.358 102.54 110.091 102.84 109.9C103.142 109.71 103.493 109.615 103.893 109.615C104.293 109.615 104.643 109.71 104.943 109.9C105.245 110.091 105.48 110.358 105.647 110.702C105.816 111.047 105.901 111.45 105.901 111.912C105.901 112.369 105.816 112.77 105.647 113.112C105.48 113.454 105.245 113.721 104.943 113.911C104.643 114.102 104.293 114.197 103.893 114.197ZM103.893 113.585C104.197 113.585 104.447 113.507 104.643 113.351C104.84 113.196 104.985 112.991 105.079 112.737C105.173 112.483 105.22 112.208 105.22 111.912C105.22 111.615 105.173 111.34 105.079 111.084C104.985 110.828 104.84 110.621 104.643 110.463C104.447 110.306 104.197 110.227 103.893 110.227C103.589 110.227 103.339 110.306 103.143 110.463C102.946 110.621 102.801 110.828 102.707 111.084C102.613 111.34 102.566 111.615 102.566 111.912C102.566 112.208 102.613 112.483 102.707 112.737C102.801 112.991 102.946 113.196 103.143 113.351C103.339 113.507 103.589 113.585 103.893 113.585ZM106.94 114.104V109.673H107.599V110.342H107.644C107.725 110.123 107.871 109.945 108.083 109.808C108.295 109.672 108.533 109.603 108.799 109.603C108.849 109.603 108.911 109.604 108.986 109.606C109.061 109.609 109.118 109.611 109.156 109.615V110.307C109.134 110.301 109.08 110.293 108.998 110.282C108.917 110.268 108.831 110.261 108.741 110.261C108.525 110.261 108.333 110.307 108.164 110.397C107.997 110.485 107.864 110.608 107.766 110.766C107.669 110.922 107.622 111.1 107.622 111.3V114.104H106.94ZM111.502 114.197C111.133 114.197 110.807 114.103 110.524 113.917C110.241 113.728 110.02 113.463 109.86 113.121C109.701 112.776 109.621 112.369 109.621 111.9C109.621 111.435 109.701 111.031 109.86 110.689C110.02 110.346 110.242 110.082 110.527 109.895C110.811 109.708 111.14 109.615 111.514 109.615C111.802 109.615 112.03 109.663 112.197 109.759C112.367 109.853 112.495 109.961 112.584 110.083C112.674 110.202 112.744 110.3 112.795 110.377H112.852V108.195H113.533V114.104H112.876V113.424H112.795C112.744 113.504 112.674 113.607 112.581 113.73C112.489 113.85 112.357 113.959 112.186 114.055C112.015 114.15 111.787 114.197 111.502 114.197ZM111.594 113.585C111.868 113.585 112.098 113.514 112.287 113.371C112.475 113.228 112.618 113.029 112.717 112.774C112.815 112.518 112.864 112.224 112.864 111.889C112.864 111.558 112.816 111.268 112.719 111.02C112.624 110.77 112.481 110.576 112.293 110.437C112.104 110.297 111.872 110.227 111.594 110.227C111.306 110.227 111.065 110.301 110.873 110.449C110.682 110.595 110.539 110.794 110.443 111.046C110.349 111.296 110.302 111.577 110.302 111.889C110.302 112.204 110.35 112.491 110.446 112.748C110.544 113.004 110.688 113.208 110.879 113.36C111.071 113.51 111.31 113.585 111.594 113.585Z" fill="black"/>
<path d="M25.0527 128.613C25.0527 125.728 27.3912 123.39 30.2758 123.39H473.658C476.543 123.39 478.881 125.728 478.881 128.613V146.024C478.881 148.908 476.543 151.247 473.658 151.247H30.2758C27.3912 151.247 25.0527 148.908 25.0527 146.024V128.613Z" fill="#EEF2F1"/>
<path d="M36.2197 137.844L36.2563 136.307L34.9412 137.114L34.6963 136.679L36.052 135.949L34.6963 135.214L34.9412 134.779L36.2563 135.582L36.2197 134.044H36.7141L36.6776 135.582L37.988 134.779L38.2375 135.214L36.8819 135.949L38.2375 136.679L37.988 137.114L36.6776 136.307L36.7141 137.844H36.2197ZM40.4817 137.844L40.5177 136.307L39.2032 137.114L38.9583 136.679L40.314 135.949L38.9583 135.214L39.2032 134.779L40.5177 135.582L40.4817 134.044H40.9762L40.9396 135.582L42.25 134.779L42.499 135.214L41.1439 135.949L42.499 136.679L42.25 137.114L40.9396 136.307L40.9762 137.844H40.4817ZM44.7438 137.844L44.7798 136.307L43.4653 137.114L43.2204 136.679L44.5761 135.949L43.2204 135.214L43.4653 134.779L44.7798 135.582L44.7438 134.044H45.2376L45.2017 135.582L46.5121 134.779L46.761 135.214L45.4054 135.949L46.761 136.679L46.5121 137.114L45.2017 136.307L45.2376 137.844H44.7438ZM49.0052 137.844L49.0418 136.307L47.7267 137.114L47.4818 136.679L48.8375 135.949L47.4818 135.214L47.7267 134.779L49.0418 135.582L49.0052 134.044H49.4997L49.4631 135.582L50.7735 134.779L51.0231 135.214L49.6674 135.949L51.0231 136.679L50.7735 137.114L49.4631 136.307L49.4997 137.844H49.0052ZM53.2673 137.844L53.3038 136.307L51.9888 137.114L51.7439 136.679L53.0996 135.949L51.7439 135.214L51.9888 134.779L53.3038 135.582L53.2673 134.044H53.7617L53.7252 135.582L55.0356 134.779L55.2851 135.214L53.9294 135.949L55.2851 136.679L55.0356 137.114L53.7252 136.307L53.7617 137.844H53.2673ZM57.5293 137.844L57.5653 136.307L56.2508 137.114L56.0059 136.679L57.3616 135.949L56.0059 135.214L56.2508 134.779L57.5653 135.582L57.5293 134.044H58.0232L57.9872 135.582L59.2976 134.779L59.5472 135.214L58.1915 135.949L59.5472 136.679L59.2976 137.114L57.9872 136.307L58.0232 137.844H57.5293ZM61.7914 137.844L61.8273 136.307L60.5129 137.114L60.268 136.679L61.6236 135.949L60.268 135.214L60.5129 134.779L61.8273 135.582L61.7914 134.044H62.2852L62.2492 135.582L63.5597 134.779L63.8086 135.214L62.453 135.949L63.8086 136.679L63.5597 137.114L62.2492 136.307L62.2852 137.844H61.7914ZM66.0528 137.844L66.0894 136.307L64.7743 137.114L64.5294 136.679L65.8851 135.949L64.5294 135.214L64.7743 134.779L66.0894 135.582L66.0528 134.044H66.5473L66.5113 135.582L67.8211 134.779L68.0707 135.214L66.715 135.949L68.0707 136.679L67.8211 137.114L66.5113 136.307L66.5473 137.844H66.0528ZM70.3149 137.844L70.3514 136.307L69.0364 137.114L68.7915 136.679L70.1471 135.949L68.7915 135.214L69.0364 134.779L70.3514 135.582L70.3149 134.044H70.8093L70.7728 135.582L72.0832 134.779L72.3327 135.214L70.977 135.949L72.3327 136.679L72.0832 137.114L70.7728 136.307L70.8093 137.844H70.3149ZM74.5769 137.844L74.6129 136.307L73.2984 137.114L73.0535 136.679L74.4092 135.949L73.0535 135.214L73.2984 134.779L74.6129 135.582L74.5769 134.044H75.0714L75.0348 135.582L76.3452 134.779L76.5942 135.214L75.2391 135.949L76.5942 136.679L76.3452 137.114L75.0348 136.307L75.0714 137.844H74.5769ZM78.8389 137.844L78.8749 136.307L77.5604 137.114L77.3155 136.679L78.6712 135.949L77.3155 135.214L77.5604 134.779L78.8749 135.582L78.8389 134.044H79.3328L79.2968 135.582L80.6072 134.779L80.8562 135.214L79.5005 135.949L80.8562 136.679L80.6072 137.114L79.2968 136.307L79.3328 137.844H78.8389ZM83.1004 137.844L83.137 136.307L81.8219 137.114L81.577 136.679L82.9327 135.949L81.577 135.214L81.8219 134.779L83.137 135.582L83.1004 134.044H83.5949L83.5583 135.582L84.8687 134.779L85.1183 135.214L83.7626 135.949L85.1183 136.679L84.8687 137.114L83.5583 136.307L83.5949 137.844H83.1004ZM87.3624 137.844L87.399 136.307L86.0839 137.114L85.839 136.679L87.1947 135.949L85.839 135.214L86.0839 134.779L87.399 135.582L87.3624 134.044H87.8569L87.8203 135.582L89.1307 134.779L89.3803 135.214L88.0246 135.949L89.3803 136.679L89.1307 137.114L87.8203 136.307L87.8569 137.844H87.3624ZM91.6245 137.844L91.6605 136.307L90.346 137.114L90.1011 136.679L91.4568 135.949L90.1011 135.214L90.346 134.779L91.6605 135.582L91.6245 134.044H92.1184L92.0824 135.582L93.3928 134.779L93.6423 135.214L92.2867 135.949L93.6423 136.679L93.3928 137.114L92.0824 136.307L92.1184 137.844H91.6245ZM95.8865 137.844L95.9225 136.307L94.608 137.114L94.3631 136.679L95.7188 135.949L94.3631 135.214L94.608 134.779L95.9225 135.582L95.8865 134.044H96.3804L96.3444 135.582L97.6548 134.779L97.9038 135.214L96.5481 135.949L97.9038 136.679L97.6548 137.114L96.3444 136.307L96.3804 137.844H95.8865ZM100.148 137.844L100.185 136.307L98.8695 137.114L98.6246 136.679L99.9803 135.949L98.6246 135.214L98.8695 134.779L100.185 135.582L100.148 134.044H100.642L100.606 135.582L101.916 134.779L102.166 135.214L100.81 135.949L102.166 136.679L101.916 137.114L100.606 136.307L100.642 137.844H100.148ZM104.41 137.844L104.447 136.307L103.132 137.114L102.887 136.679L104.242 135.949L102.887 135.214L103.132 134.779L104.447 135.582L104.41 134.044H104.904L104.868 135.582L106.178 134.779L106.428 135.214L105.072 135.949L106.428 136.679L106.178 137.114L104.868 136.307L104.904 137.844H104.41ZM108.672 137.844L108.708 136.307L107.394 137.114L107.149 136.679L108.504 135.949L107.149 135.214L107.394 134.779L108.708 135.582L108.672 134.044H109.167L109.13 135.582L110.44 134.779L110.689 135.214L109.334 135.949L110.689 136.679L110.44 137.114L109.13 136.307L109.167 137.844H108.672Z" fill="#8B8E8C"/>
<path d="M459.693 135.287C461.216 138.588 465.787 138.588 467.31 135.287" stroke="#8B8E8C" stroke-width="0.580343" stroke-linecap="round" stroke-linejoin="round"/>
<path d="M465.948 136.971L467.311 138.842" stroke="#8B8E8C" stroke-width="0.580343" stroke-linecap="round" stroke-linejoin="round"/>
<path d="M463.502 137.763V139.604" stroke="#8B8E8C" stroke-width="0.580343" stroke-linecap="round" stroke-linejoin="round"/>
<path d="M461.056 136.971L459.693 138.842" stroke="#8B8E8C" stroke-width="0.580343" stroke-linecap="round" stroke-linejoin="round"/>
<path d="M115.006 162.273H30.2758C27.3912 162.273 25.0527 164.611 25.0527 167.496V184.326C25.0527 187.211 27.3912 189.549 30.2758 189.549H115.006C117.891 189.549 120.229 187.211 120.229 184.326V167.496C120.229 164.611 117.891 162.273 115.006 162.273Z" fill="#00A886"/>
<path d="M47.3715 175.911H41.6162" stroke="white" stroke-width="0.870515" stroke-linecap="round" stroke-linejoin="round"/>
<path d="M44.4936 178.789L41.6162 175.911L44.4936 173.034" stroke="white" stroke-width="0.870515" stroke-linecap="round" stroke-linejoin="round"/>
<path d="M58.6802 174.836H57.6512C57.6117 174.616 57.538 174.423 57.4307 174.256C57.3227 174.089 57.191 173.947 57.0349 173.831C56.8788 173.714 56.7041 173.626 56.5108 173.567C56.3193 173.507 56.1162 173.478 55.9003 173.478C55.5115 173.478 55.1633 173.575 54.8551 173.771C54.5499 173.967 54.3079 174.254 54.1297 174.631C53.9538 175.01 53.8662 175.471 53.8662 176.017C53.8662 176.566 53.9538 177.03 54.1297 177.408C54.3079 177.786 54.551 178.072 54.8586 178.266C55.1662 178.459 55.5126 178.556 55.8974 178.556C56.1104 178.556 56.3129 178.527 56.5039 178.47C56.6977 178.411 56.8724 178.324 57.0285 178.209C57.1846 178.095 57.3164 177.956 57.4237 177.791C57.534 177.624 57.6094 177.432 57.6512 177.217L58.6802 177.22C58.625 177.552 58.5188 177.858 58.3604 178.137C58.2043 178.414 58.0035 178.653 57.7568 178.856C57.5131 179.056 57.2339 179.211 56.9194 179.321C56.6049 179.43 56.2625 179.485 55.8905 179.485C55.306 179.485 54.7849 179.347 54.3276 179.07C53.8703 178.791 53.5099 178.392 53.2464 177.873C52.9847 177.354 52.8535 176.735 52.8535 176.017C52.8535 175.295 52.9858 174.677 53.2493 174.16C53.5134 173.641 53.8738 173.243 54.3311 172.966C54.7884 172.687 55.3084 172.548 55.8905 172.548C56.2491 172.548 56.5834 172.6 56.8933 172.703C57.2055 172.804 57.4852 172.953 57.7336 173.151C57.9826 173.347 58.188 173.586 58.3505 173.87C58.513 174.152 58.6233 174.474 58.6802 174.836ZM61.9539 179.495C61.4792 179.495 61.0648 179.387 60.7108 179.169C60.3568 178.952 60.0817 178.647 59.8861 178.256C59.6905 177.865 59.593 177.407 59.593 176.884C59.593 176.359 59.6905 175.899 59.8861 175.505C60.0817 175.112 60.3568 174.807 60.7108 174.589C61.0648 174.371 61.4792 174.262 61.9539 174.262C62.4286 174.262 62.843 174.371 63.197 174.589C63.551 174.807 63.8255 175.112 64.0211 175.505C64.2166 175.899 64.3147 176.359 64.3147 176.884C64.3147 177.407 64.2166 177.865 64.0211 178.256C63.8255 178.647 63.551 178.952 63.197 179.169C62.843 179.387 62.4286 179.495 61.9539 179.495ZM61.9568 178.668C62.2649 178.668 62.5197 178.586 62.7223 178.424C62.9242 178.261 63.0739 178.044 63.1703 177.774C63.2695 177.504 63.3188 177.206 63.3188 176.88C63.3188 176.558 63.2695 176.26 63.1703 175.99C63.0739 175.718 62.9242 175.499 62.7223 175.334C62.5197 175.169 62.2649 175.087 61.9568 175.087C61.6469 175.087 61.3898 175.169 61.1855 175.334C60.983 175.499 60.8327 175.718 60.734 175.99C60.6371 176.26 60.5889 176.558 60.5889 176.88C60.5889 177.206 60.6371 177.504 60.734 177.774C60.8327 178.044 60.983 178.261 61.1855 178.424C61.3898 178.586 61.6469 178.668 61.9568 178.668ZM66.401 176.386V179.393H65.415V174.329H66.3616V175.153H66.4243C66.5409 174.884 66.7231 174.669 66.9715 174.507C67.2222 174.344 67.5374 174.262 67.9181 174.262C68.2628 174.262 68.5652 174.335 68.8246 174.48C69.084 174.623 69.2854 174.836 69.4281 175.12C69.5709 175.403 69.6423 175.754 69.6423 176.172V179.393H68.6568V176.29C68.6568 175.923 68.5611 175.637 68.3696 175.429C68.1786 175.221 67.9157 175.117 67.5815 175.117C67.3528 175.117 67.1497 175.166 66.9715 175.265C66.7957 175.364 66.6564 175.509 66.5531 175.7C66.4515 175.889 66.401 176.118 66.401 176.386ZM73.3292 174.329V175.12H70.5627V174.329H73.3292ZM71.3044 173.115H72.2904V177.906C72.2904 178.097 72.3188 178.241 72.3763 178.338C72.4331 178.433 72.5068 178.497 72.5968 178.533C72.6891 178.566 72.7895 178.582 72.8968 178.582C72.9763 178.582 73.0454 178.577 73.1046 178.566C73.1644 178.555 73.2102 178.546 73.2433 178.539L73.4215 179.354C73.364 179.376 73.2828 179.398 73.1771 179.419C73.0715 179.444 72.9398 179.457 72.7813 179.459C72.5225 179.463 72.2805 179.418 72.0559 179.321C71.8319 179.224 71.6508 179.075 71.5121 178.872C71.3734 178.67 71.3044 178.416 71.3044 178.111V173.115ZM74.4196 179.393V174.329H75.4057V179.393H74.4196ZM74.9176 173.547C74.7458 173.547 74.599 173.49 74.4759 173.376C74.3547 173.259 74.2943 173.12 74.2943 172.96C74.2943 172.797 74.3547 172.659 74.4759 172.545C74.599 172.428 74.7458 172.37 74.9176 172.37C75.0888 172.37 75.235 172.428 75.3563 172.545C75.4794 172.659 75.5409 172.797 75.5409 172.96C75.5409 173.12 75.4794 173.259 75.3563 173.376C75.235 173.49 75.0888 173.547 74.9176 173.547ZM77.7177 176.386V179.393H76.7317V174.329H77.6783V175.153H77.741C77.8576 174.884 78.0398 174.669 78.2882 174.507C78.5389 174.344 78.854 174.262 79.2348 174.262C79.5795 174.262 79.8818 174.335 80.1413 174.48C80.4007 174.623 80.602 174.836 80.7448 175.12C80.8876 175.403 80.959 175.754 80.959 176.172V179.393H79.9735V176.29C79.9735 175.923 79.8778 175.637 79.6863 175.429C79.4953 175.221 79.2324 175.117 78.8982 175.117C78.6695 175.117 78.4664 175.166 78.2882 175.265C78.1124 175.364 77.9731 175.509 77.8698 175.7C77.7682 175.889 77.7177 176.118 77.7177 176.386ZM85.4897 177.293V174.329H86.4792V179.393H85.5094V178.516H85.4566C85.3405 178.787 85.1537 179.012 84.896 179.192C84.6412 179.37 84.3238 179.459 83.9431 179.459C83.6181 179.459 83.3302 179.388 83.0795 179.245C82.8311 179.1 82.6356 178.885 82.4922 178.602C82.3518 178.318 82.2816 177.968 82.2816 177.55V174.329H83.2676V177.431C83.2676 177.776 83.3627 178.051 83.5543 178.256C83.7458 178.46 83.9942 178.562 84.2994 178.562C84.484 178.562 84.6679 178.516 84.8502 178.424C85.0347 178.331 85.1873 178.192 85.3086 178.005C85.4317 177.818 85.492 177.581 85.4897 177.293ZM89.9868 179.495C89.4877 179.495 89.0576 179.389 88.6973 179.176C88.3392 178.96 88.0618 178.658 87.8662 178.268C87.6729 177.877 87.576 177.419 87.576 176.894C87.576 176.375 87.6729 175.917 87.8662 175.522C88.0618 175.126 88.3345 174.818 88.6839 174.595C89.0362 174.373 89.4471 174.262 89.9171 174.262C90.2033 174.262 90.4801 174.31 90.7482 174.404C91.0163 174.499 91.2572 174.647 91.4707 174.849C91.6837 175.052 91.852 175.315 91.975 175.637C92.0981 175.958 92.1596 176.349 92.1596 176.808V177.158H88.1337V176.419H91.1933C91.1933 176.16 91.1405 175.93 91.0355 175.73C90.9298 175.528 90.7813 175.368 90.5903 175.252C90.4011 175.135 90.1789 175.077 89.9241 175.077C89.6473 175.077 89.4053 175.145 89.1987 175.281C88.9944 175.416 88.836 175.591 88.724 175.809C88.6137 176.024 88.5591 176.258 88.5591 176.511V177.088C88.5591 177.427 88.6183 177.715 88.7367 177.952C88.858 178.19 89.0257 178.371 89.2416 178.497C89.4569 178.62 89.7088 178.681 89.9966 178.681C90.1835 178.681 90.3536 178.654 90.5079 178.602C90.6617 178.547 90.7946 178.466 90.9066 178.358C91.0186 178.25 91.1045 178.117 91.1637 177.959L92.0969 178.127C92.022 178.402 91.888 178.642 91.6947 178.849C91.5032 179.054 91.263 179.213 90.9728 179.327C90.6844 179.44 90.3559 179.495 89.9868 179.495Z" fill="white"/>
<path d="M103.665 175.911H97.9102" stroke="white" stroke-width="0.870515" stroke-linecap="round" stroke-linejoin="round"/>
<path d="M100.787 178.789L97.9102 175.911L100.787 173.034" stroke="white" stroke-width="0.870515" stroke-linecap="round" stroke-linejoin="round"/>
</g>
<defs>
<filter id="filter0_d_449_1933" x="0.942578" y="0.3" width="502.049" height="214.779" filterUnits="userSpaceOnUse" color-interpolation-filters="sRGB">
<feFlood flood-opacity="0" result="BackgroundImageFix"/>
<feColorMatrix in="SourceAlpha" type="matrix" values="0 0 0 0 0 0 0 0 0 0 0 0 0 0 0 0 0 0 127 0" result="hardAlpha"/>
<feOffset dy="2"/>
<feGaussianBlur stdDeviation="3.35"/>
<feComposite in2="hardAlpha" operator="out"/>
<feColorMatrix type="matrix" values="0 0 0 0 0 0 0 0 0 0.458246 0 0 0 0 0.365506 0 0 0 0.1 0"/>
<feBlend mode="normal" in2="BackgroundImageFix" result="effect1_dropShadow_449_1933"/>
<feBlend mode="normal" in="SourceGraphic" in2="effect1_dropShadow_449_1933" result="shape"/>
</filter>
</defs>
</svg>
