<svg width="275" height="154" viewBox="0 0 275 154" fill="none" xmlns="http://www.w3.org/2000/svg">
<g filter="url(#filter0_d_449_515)">
<mask id="mask0_449_515" style="mask-type:luminance" maskUnits="userSpaceOnUse" x="5" y="4" width="264" height="144">
<path d="M261.261 4H13.6424C9.36876 4 5.9043 7.46446 5.9043 11.7381V139.417C5.9043 143.69 9.36876 147.155 13.6424 147.155H261.261C265.535 147.155 269 143.69 269 139.417V11.7381C269 7.46446 265.535 4 261.261 4Z" fill="white"/>
</mask>
<g mask="url(#mask0_449_515)">
<path d="M261.261 4H13.6424C9.36876 4 5.9043 7.46446 5.9043 11.7381V139.417C5.9043 143.69 9.36876 147.155 13.6424 147.155H261.261C265.535 147.155 269 143.69 269 139.417V11.7381C269 7.46446 265.535 4 261.261 4Z" fill="white"/>
<path d="M14.6453 21.0238H13.8594L16.1324 14.8333H16.9062L19.1793 21.0238H18.3934L16.5435 15.8127H16.4951L14.6453 21.0238ZM14.9354 18.6057H18.1032V19.2706H14.9354V18.6057ZM23.3354 17.4207L22.6947 17.6021C22.6543 17.4953 22.5949 17.3916 22.5164 17.2908C22.4398 17.188 22.335 17.1034 22.202 17.0368C22.069 16.9704 21.8987 16.9371 21.6911 16.9371C21.407 16.9371 21.1702 17.0026 20.9808 17.1336C20.7934 17.2626 20.6997 17.4268 20.6997 17.6263C20.6997 17.8036 20.7642 17.9437 20.8931 18.0464C21.0221 18.1492 21.2236 18.2349 21.4976 18.3033L22.1869 18.4726C22.602 18.5734 22.9113 18.7275 23.1148 18.9352C23.3183 19.1407 23.4201 19.4056 23.4201 19.7301C23.4201 19.996 23.3436 20.2338 23.1904 20.4435C23.0392 20.653 22.8277 20.8182 22.5556 20.9392C22.2836 21.06 21.9672 21.1205 21.6065 21.1205C21.133 21.1205 20.741 21.0178 20.4306 20.8122C20.1203 20.6067 19.9239 20.3064 19.8412 19.9115L20.5183 19.7422C20.5829 19.992 20.7047 20.1794 20.8841 20.3044C21.0655 20.4293 21.3022 20.4918 21.5944 20.4918C21.9269 20.4918 22.1909 20.4213 22.3864 20.2802C22.5838 20.1371 22.6826 19.9659 22.6826 19.7664C22.6826 19.6051 22.6262 19.4702 22.5133 19.3613C22.4005 19.2505 22.2272 19.1678 21.9934 19.1134L21.2196 18.9321C20.7944 18.8313 20.482 18.6752 20.2825 18.4636C20.0851 18.2499 19.9863 17.983 19.9863 17.6625C19.9863 17.4006 20.0599 17.1689 20.207 16.9674C20.3561 16.7659 20.5586 16.6076 20.8145 16.4928C21.0725 16.3779 21.3647 16.3205 21.6911 16.3205C22.1506 16.3205 22.5113 16.4213 22.7733 16.6228C23.0372 16.8243 23.2246 17.0902 23.3354 17.4207ZM27.7826 17.4207L27.1418 17.6021C27.1015 17.4953 27.0421 17.3916 26.9635 17.2908C26.8869 17.188 26.7821 17.1034 26.6491 17.0368C26.5161 16.9704 26.3458 16.9371 26.1383 16.9371C25.8541 16.9371 25.6173 17.0026 25.4279 17.1336C25.2406 17.2626 25.1469 17.4268 25.1469 17.6263C25.1469 17.8036 25.2113 17.9437 25.3403 18.0464C25.4692 18.1492 25.6707 18.2349 25.9448 18.3033L26.634 18.4726C27.0491 18.5734 27.3584 18.7275 27.562 18.9352C27.7655 19.1407 27.8673 19.4056 27.8673 19.7301C27.8673 19.996 27.7907 20.2338 27.6375 20.4435C27.4864 20.653 27.2748 20.8182 27.0028 20.9392C26.7307 21.06 26.4144 21.1205 26.0536 21.1205C25.5801 21.1205 25.1881 21.0178 24.8778 20.8122C24.5675 20.6067 24.371 20.3064 24.2884 19.9115L24.9655 19.7422C25.0299 19.992 25.1519 20.1794 25.3312 20.3044C25.5126 20.4293 25.7493 20.4918 26.0415 20.4918C26.374 20.4918 26.638 20.4213 26.8335 20.2802C27.031 20.1371 27.1297 19.9659 27.1297 19.7664C27.1297 19.6051 27.0733 19.4702 26.9604 19.3613C26.8476 19.2505 26.6743 19.1678 26.4405 19.1134L25.6667 18.9321C25.2416 18.8313 24.9292 18.6752 24.7297 18.4636C24.5322 18.2499 24.4335 17.983 24.4335 17.6625C24.4335 17.4006 24.507 17.1689 24.6541 16.9674C24.8033 16.7659 25.0058 16.6076 25.2617 16.4928C25.5196 16.3779 25.8118 16.3205 26.1383 16.3205C26.5977 16.3205 26.9584 16.4213 27.2204 16.6228C27.4844 16.8243 27.6718 17.0902 27.7826 17.4207ZM28.9411 21.0238V16.381H29.6545V21.0238H28.9411ZM29.3038 15.6072C29.1647 15.6072 29.0448 15.5598 28.9441 15.4651C28.8454 15.3704 28.796 15.2565 28.796 15.1235C28.796 14.9905 28.8454 14.8767 28.9441 14.782C29.0448 14.6873 29.1647 14.6399 29.3038 14.6399C29.4428 14.6399 29.5617 14.6873 29.6605 14.782C29.7612 14.8767 29.8116 14.9905 29.8116 15.1235C29.8116 15.2565 29.7612 15.3704 29.6605 15.4651C29.5617 15.5598 29.4428 15.6072 29.3038 15.6072ZM32.835 22.8616C32.4905 22.8616 32.1943 22.8173 31.9464 22.7286C31.6985 22.6419 31.4919 22.5271 31.3267 22.384C31.1635 22.243 31.0335 22.0918 30.9368 21.9306L31.5051 21.5316C31.5696 21.6163 31.6512 21.713 31.7499 21.8218C31.8487 21.9327 31.9837 22.0283 32.1549 22.1089C32.3283 22.1916 32.5549 22.2329 32.835 22.2329C33.2099 22.2329 33.5192 22.1422 33.763 21.9608C34.0068 21.7794 34.1288 21.4953 34.1288 21.1084V20.1654H34.0683C34.016 20.25 33.9414 20.3548 33.8446 20.4797C33.7499 20.6026 33.6129 20.7124 33.4335 20.8092C33.2562 20.9039 33.0164 20.9512 32.7142 20.9512C32.3393 20.9512 32.0028 20.8626 31.7046 20.6853C31.4084 20.5079 31.1736 20.25 31.0003 19.9115C30.829 19.5729 30.7434 19.1618 30.7434 18.6782C30.7434 18.2026 30.827 17.7885 30.9942 17.4359C31.1615 17.0812 31.3942 16.8072 31.6924 16.6137C31.9907 16.4182 32.3353 16.3205 32.7262 16.3205C33.0285 16.3205 33.2683 16.3709 33.4457 16.4717C33.6249 16.5704 33.762 16.6832 33.8567 16.8102C33.9534 16.9351 34.028 17.0379 34.0804 17.1185H34.1529V16.381H34.8421V21.1568C34.8421 21.5558 34.7515 21.8802 34.5701 22.1301C34.3907 22.382 34.1489 22.5664 33.8446 22.6833C33.5424 22.8021 33.2059 22.8616 32.835 22.8616ZM32.8109 20.3104C33.0971 20.3104 33.3389 20.245 33.5363 20.114C33.7338 19.983 33.8839 19.7945 33.9867 19.5487C34.0895 19.3029 34.1408 19.0087 34.1408 18.6661C34.1408 18.3316 34.0905 18.0364 33.9897 17.7805C33.889 17.5245 33.7399 17.324 33.5424 17.1789C33.3449 17.0338 33.1011 16.9613 32.8109 16.9613C32.5086 16.9613 32.2567 17.0379 32.0552 17.191C31.8557 17.3442 31.7056 17.5497 31.6048 17.8076C31.5061 18.0656 31.4567 18.3517 31.4567 18.6661C31.4567 18.9885 31.5071 19.2737 31.6079 19.5215C31.7106 19.7674 31.8617 19.9608 32.0612 20.1019C32.2627 20.241 32.5126 20.3104 32.8109 20.3104ZM36.8612 18.2308V21.0238H36.148V16.381H36.8371V17.1064H36.8975C37.0063 16.8706 37.1716 16.6812 37.3932 16.5381C37.6149 16.393 37.9011 16.3205 38.2517 16.3205C38.5661 16.3205 38.8411 16.385 39.0769 16.5139C39.3127 16.6409 39.4961 16.8343 39.6271 17.0943C39.758 17.3523 39.8235 17.6787 39.8235 18.0737V21.0238H39.1102V18.122C39.1102 17.7573 39.0155 17.4731 38.826 17.2696C38.6366 17.0641 38.3767 16.9613 38.0462 16.9613C37.8185 16.9613 37.6149 17.0107 37.4356 17.1094C37.2583 17.2082 37.1182 17.3522 37.0155 17.5417C36.9126 17.7311 36.8612 17.9608 36.8612 18.2308ZM43.0737 21.1205C42.6263 21.1205 42.2404 21.0218 41.916 20.8243C41.5936 20.6248 41.3447 20.3467 41.1694 19.99C40.9961 19.6314 40.9094 19.2142 40.9094 18.7386C40.9094 18.2631 40.9961 17.8439 41.1694 17.4812C41.3447 17.1165 41.5885 16.8323 41.9008 16.6288C42.2152 16.4233 42.5819 16.3205 43.0011 16.3205C43.2429 16.3205 43.4817 16.3608 43.7175 16.4414C43.9533 16.522 44.1679 16.653 44.3613 16.8343C44.5548 17.0137 44.7089 17.2515 44.8238 17.5477C44.9387 17.8439 44.9961 18.2087 44.9961 18.6419V18.9442H41.4172V18.3276H44.2706C44.2706 18.0656 44.2182 17.8319 44.1135 17.6263C44.0107 17.4207 43.8636 17.2585 43.6722 17.1396C43.4827 17.0207 43.259 16.9613 43.0011 16.9613C42.717 16.9613 42.4711 17.0318 42.2636 17.1729C42.0581 17.3119 41.8998 17.4933 41.789 17.7169C41.6782 17.9407 41.6228 18.1805 41.6228 18.4364V18.8475C41.6228 19.1981 41.6832 19.4953 41.8041 19.7391C41.9271 19.981 42.0973 20.1654 42.315 20.2923C42.5326 20.4172 42.7855 20.4797 43.0737 20.4797C43.261 20.4797 43.4303 20.4535 43.5815 20.4011C43.7346 20.3467 43.8666 20.2661 43.9774 20.1593C44.0883 20.0505 44.1739 19.9155 44.2344 19.7542L44.9236 19.9477C44.851 20.1815 44.7291 20.3871 44.5578 20.5643C44.3865 20.7397 44.1749 20.8767 43.923 20.9755C43.6712 21.0722 43.388 21.1205 43.0737 21.1205ZM47.8344 21.1205C47.4475 21.1205 47.1059 21.0228 46.8097 20.8274C46.5135 20.6299 46.2818 20.3518 46.1145 19.993C45.9472 19.6324 45.8636 19.2061 45.8636 18.7145C45.8636 18.2268 45.9472 17.8036 46.1145 17.445C46.2818 17.0862 46.5145 16.8092 46.8127 16.6137C47.111 16.4182 47.4556 16.3205 47.8465 16.3205C48.1488 16.3205 48.3875 16.3709 48.5629 16.4717C48.7402 16.5704 48.8753 16.6832 48.9679 16.8102C49.0626 16.9351 49.1362 17.0379 49.1886 17.1185H49.249V14.8333H49.9624V21.0238H49.2732V20.3104H49.1886C49.1362 20.3951 49.0616 20.5019 48.9649 20.6309C48.8681 20.7578 48.7302 20.8717 48.5508 20.9724C48.3714 21.0712 48.1326 21.1205 47.8344 21.1205ZM47.9311 20.4797C48.2173 20.4797 48.4591 20.4052 48.6566 20.256C48.8541 20.1049 49.0042 19.8963 49.1069 19.6303C49.2097 19.3623 49.2612 19.053 49.2612 18.7024C49.2612 18.3558 49.2107 18.0525 49.11 17.7925C49.0092 17.5305 48.8601 17.327 48.6626 17.1819C48.4651 17.0348 48.2213 16.9613 47.9311 16.9613C47.6289 16.9613 47.377 17.0389 47.1754 17.1941C46.9759 17.3472 46.8258 17.5558 46.7251 17.8197C46.6263 18.0817 46.577 18.3759 46.577 18.7024C46.577 19.0329 46.6273 19.3331 46.7281 19.6031C46.8309 19.8712 46.982 20.0847 47.1815 20.244C47.383 20.4011 47.6329 20.4797 47.9311 20.4797ZM59.0819 17.9286C59.0819 18.5814 58.964 19.1457 58.7282 19.6213C58.4924 20.0969 58.169 20.4636 57.7579 20.7215C57.3469 20.9795 56.8773 21.1084 56.3493 21.1084C55.8214 21.1084 55.3518 20.9795 54.9408 20.7215C54.5296 20.4636 54.2063 20.0969 53.9705 19.6213C53.7347 19.1457 53.6169 18.5814 53.6169 17.9286C53.6169 17.2756 53.7347 16.7115 53.9705 16.2359C54.2063 15.7603 54.5296 15.3935 54.9408 15.1356C55.3518 14.8777 55.8214 14.7487 56.3493 14.7487C56.8773 14.7487 57.3469 14.8777 57.7579 15.1356C58.169 15.3935 58.4924 15.7603 58.7282 16.2359C58.964 16.7115 59.0819 17.2756 59.0819 17.9286ZM58.3564 17.9286C58.3564 17.3926 58.2668 16.9401 58.0874 16.5714C57.91 16.2026 57.6692 15.9235 57.365 15.7341C57.0627 15.5446 56.7242 15.4499 56.3493 15.4499C55.9745 15.4499 55.635 15.5446 55.3307 15.7341C55.0284 15.9235 54.7876 16.2026 54.6083 16.5714C54.4309 16.9401 54.3423 17.3926 54.3423 17.9286C54.3423 18.4646 54.4309 18.917 54.6083 19.2858C54.7876 19.6545 55.0284 19.9336 55.3307 20.123C55.635 20.3125 55.9745 20.4072 56.3493 20.4072C56.7242 20.4072 57.0627 20.3125 57.365 20.123C57.6692 19.9336 57.91 19.6545 58.0874 19.2858C58.2668 18.917 58.3564 18.4646 58.3564 17.9286ZM60.9589 18.2308V21.0238H60.2456V16.381H60.9348V17.1064H60.9952C61.104 16.8706 61.2693 16.6812 61.4909 16.5381C61.7126 16.393 61.9988 16.3205 62.3494 16.3205C62.6638 16.3205 62.9388 16.385 63.1746 16.5139C63.4103 16.6409 63.5937 16.8343 63.7247 17.0943C63.8557 17.3523 63.9212 17.6787 63.9212 18.0737V21.0238H63.2078V18.122C63.2078 17.7573 63.1131 17.4731 62.9237 17.2696C62.7343 17.0641 62.4743 16.9613 62.1439 16.9613C61.9161 16.9613 61.7126 17.0107 61.5332 17.1094C61.356 17.2082 61.2159 17.3522 61.1131 17.5417C61.0103 17.7311 60.9589 17.9608 60.9589 18.2308ZM14.2825 33.4048V32.8606L16.3258 30.6239C16.5656 30.3619 16.7632 30.1342 16.9183 29.9407C17.0735 29.7453 17.1883 29.5619 17.2629 29.3906C17.3394 29.2173 17.3777 29.0359 17.3777 28.8465C17.3777 28.6289 17.3253 28.4405 17.2206 28.2813C17.1178 28.1221 16.9767 27.9992 16.7974 27.9125C16.6181 27.8258 16.4165 27.7825 16.1929 27.7825C15.9551 27.7825 15.7475 27.8319 15.5702 27.9307C15.3948 28.0274 15.2588 28.1634 15.1621 28.3387C15.0674 28.5141 15.0201 28.7196 15.0201 28.9554H14.3067C14.3067 28.5926 14.3903 28.2743 14.5576 28.0002C14.7248 27.7261 14.9525 27.5125 15.2407 27.3594C15.5309 27.2063 15.8563 27.1296 16.217 27.1296C16.5798 27.1296 16.9011 27.2063 17.1813 27.3594C17.4614 27.5125 17.6811 27.7191 17.8402 27.9791C17.9994 28.239 18.079 28.5282 18.079 28.8465C18.079 29.0742 18.0377 29.2969 17.9551 29.5145C17.8745 29.7302 17.7335 29.971 17.5319 30.237C17.3324 30.501 17.0554 30.8233 16.7006 31.2042L15.3103 32.6914V32.7398H18.1878V33.4048H14.2825ZM21.6126 27.2143V33.4048H20.8629V28.0002H20.8267L19.3153 29.0037V28.242L20.8629 27.2143H21.6126ZM23.5592 33.4531C23.41 33.4531 23.2821 33.3997 23.1753 33.2929C23.0685 33.1861 23.0151 33.0582 23.0151 32.909C23.0151 32.7599 23.0685 32.632 23.1753 32.5252C23.2821 32.4183 23.41 32.3649 23.5592 32.3649C23.7083 32.3649 23.8363 32.4183 23.943 32.5252C24.0498 32.632 24.1032 32.7599 24.1032 32.909C24.1032 33.0078 24.0781 33.0984 24.0277 33.1811C23.9793 33.2637 23.9138 33.3302 23.8312 33.3806C23.7506 33.4289 23.6599 33.4531 23.5592 33.4531ZM27.1743 33.4894C26.7189 33.4894 26.3309 33.3655 26.0106 33.1176C25.6902 32.8678 25.4453 32.506 25.2761 32.0324C25.1068 31.5569 25.0221 30.9826 25.0221 30.3095C25.0221 29.6405 25.1068 29.0692 25.2761 28.5956C25.4473 28.12 25.6932 27.7574 26.0136 27.5075C26.336 27.2556 26.7229 27.1296 27.1743 27.1296C27.6257 27.1296 28.0116 27.2556 28.332 27.5075C28.6544 27.7574 28.9003 28.12 29.0695 28.5956C29.2409 29.0692 29.3264 29.6405 29.3264 30.3095C29.3264 30.9826 29.2419 31.5569 29.0725 32.0324C28.9033 32.506 28.6584 32.8678 28.338 33.1176C28.0176 33.3655 27.6297 33.4894 27.1743 33.4894ZM27.1743 32.8244C27.6257 32.8244 27.9763 32.6067 28.2262 32.1715C28.4761 31.7362 28.601 31.1155 28.601 30.3095C28.601 29.7735 28.5436 29.317 28.4287 28.9402C28.3158 28.5634 28.1526 28.2763 27.9391 28.0788C27.7274 27.8813 27.4725 27.7825 27.1743 27.7825C26.727 27.7825 26.3773 28.0032 26.1254 28.4445C25.8735 28.8838 25.7476 29.5055 25.7476 30.3095C25.7476 30.8456 25.804 31.3009 25.9169 31.6758C26.0297 32.0506 26.192 32.3358 26.4035 32.5312C26.6171 32.7267 26.8741 32.8244 27.1743 32.8244ZM32.458 33.4894C32.0428 33.4894 31.6761 33.4158 31.3577 33.2687C31.0414 33.1196 30.7945 32.9151 30.6171 32.6551C30.4398 32.3932 30.3522 32.0949 30.3542 31.7604C30.3522 31.4984 30.4036 31.2566 30.5084 31.035C30.6131 30.8113 30.7562 30.6249 30.9376 30.4758C31.1209 30.3246 31.3255 30.2289 31.5511 30.1886V30.1523C31.2549 30.0758 31.0191 29.9095 30.8439 29.6536C30.6685 29.3957 30.5819 29.1025 30.5839 28.774C30.5819 28.4596 30.6615 28.1785 30.8227 27.9307C30.9839 27.6828 31.2056 27.4873 31.4877 27.3442C31.7718 27.2011 32.0953 27.1296 32.458 27.1296C32.8166 27.1296 33.1371 27.2011 33.4192 27.3442C33.7013 27.4873 33.9229 27.6828 34.0842 27.9307C34.2474 28.1785 34.33 28.4596 34.3321 28.774C34.33 29.1025 34.2404 29.3957 34.063 29.6536C33.8877 29.9095 33.655 30.0758 33.3648 30.1523V30.1886C33.5884 30.2289 33.79 30.3246 33.9693 30.4758C34.1487 30.6249 34.2917 30.8113 34.3985 31.035C34.5053 31.2566 34.5598 31.4984 34.5618 31.7604C34.5598 32.0949 34.4691 32.3932 34.2897 32.6551C34.1124 32.9151 33.8655 33.1196 33.5492 33.2687C33.2348 33.4158 32.8711 33.4894 32.458 33.4894ZM32.458 32.8244C32.7381 32.8244 32.9799 32.7791 33.1834 32.6884C33.3869 32.5977 33.5442 32.4697 33.655 32.3045C33.7658 32.1393 33.8222 31.9458 33.8242 31.7241C33.8222 31.4904 33.7618 31.2838 33.6429 31.1045C33.524 30.9251 33.3618 30.7841 33.1562 30.6813C32.9527 30.5785 32.7199 30.5271 32.458 30.5271C32.194 30.5271 31.9582 30.5785 31.7506 30.6813C31.5451 30.7841 31.3829 30.9251 31.264 31.1045C31.1471 31.2838 31.0897 31.4904 31.0917 31.7241C31.0897 31.9458 31.1431 32.1393 31.2519 32.3045C31.3627 32.4697 31.521 32.5977 31.7265 32.6884C31.932 32.7791 32.1758 32.8244 32.458 32.8244ZM32.458 29.8863C32.6797 29.8863 32.8761 29.842 33.0474 29.7533C33.2207 29.6646 33.3567 29.5408 33.4555 29.3816C33.5542 29.2223 33.6046 29.0359 33.6066 28.8224C33.6046 28.6128 33.5552 28.4304 33.4585 28.2753C33.3618 28.118 33.2278 27.9972 33.0564 27.9125C32.8852 27.8258 32.6857 27.7825 32.458 27.7825C32.2262 27.7825 32.0237 27.8258 31.8504 27.9125C31.6771 27.9972 31.5431 28.118 31.4484 28.2753C31.3537 28.4304 31.3073 28.6128 31.3093 28.8224C31.3073 29.0359 31.3547 29.2223 31.4514 29.3816C31.5501 29.5408 31.6862 29.6646 31.8595 29.7533C32.0328 29.842 32.2322 29.8863 32.458 29.8863ZM36.0611 33.4531C35.9119 33.4531 35.784 33.3997 35.6772 33.2929C35.5703 33.1861 35.5169 33.0582 35.5169 32.909C35.5169 32.7599 35.5703 32.632 35.6772 32.5252C35.784 32.4183 35.9119 32.3649 36.0611 32.3649C36.2102 32.3649 36.3381 32.4183 36.4449 32.5252C36.5517 32.632 36.6051 32.7599 36.6051 32.909C36.6051 33.0078 36.5799 33.0984 36.5295 33.1811C36.4812 33.2637 36.4157 33.3302 36.333 33.3806C36.2525 33.4289 36.1618 33.4531 36.0611 33.4531ZM37.8732 33.4048V32.8606L39.9165 30.6239C40.1563 30.3619 40.3538 30.1342 40.5089 29.9407C40.6641 29.7453 40.779 29.5619 40.8535 29.3906C40.9301 29.2173 40.9684 29.0359 40.9684 28.8465C40.9684 28.6289 40.9159 28.4405 40.8112 28.2813C40.7084 28.1221 40.5673 27.9992 40.388 27.9125C40.2087 27.8258 40.0072 27.7825 39.7835 27.7825C39.5457 27.7825 39.3381 27.8319 39.1608 27.9307C38.9855 28.0274 38.8495 28.1634 38.7527 28.3387C38.658 28.5141 38.6107 28.7196 38.6107 28.9554H37.8973C37.8973 28.5926 37.981 28.2743 38.1482 28.0002C38.3155 27.7261 38.5431 27.5125 38.8313 27.3594C39.1215 27.2063 39.4469 27.1296 39.8077 27.1296C40.1704 27.1296 40.4918 27.2063 40.7719 27.3594C41.052 27.5125 41.2717 27.7191 41.4308 27.9791C41.59 28.239 41.6696 28.5282 41.6696 28.8465C41.6696 29.0742 41.6283 29.2969 41.5457 29.5145C41.4651 29.7302 41.324 29.971 41.1225 30.237C40.9231 30.501 40.646 30.8233 40.2913 31.2042L38.9009 32.6914V32.7398H41.7784V33.4048H37.8732ZM45.046 33.4894C44.5905 33.4894 44.2026 33.3655 43.8823 33.1176C43.5618 32.8678 43.317 32.506 43.1478 32.0324C42.9784 31.5569 42.8938 30.9826 42.8938 30.3095C42.8938 29.6405 42.9784 29.0692 43.1478 28.5956C43.319 28.12 43.5648 27.7574 43.8853 27.5075C44.2077 27.2556 44.5946 27.1296 45.046 27.1296C45.4974 27.1296 45.8833 27.2556 46.2037 27.5075C46.5261 27.7574 46.772 28.12 46.9412 28.5956C47.1125 29.0692 47.1981 29.6405 47.1981 30.3095C47.1981 30.9826 47.1135 31.5569 46.9442 32.0324C46.775 32.506 46.5302 32.8678 46.2097 33.1176C45.8893 33.3655 45.5014 33.4894 45.046 33.4894ZM45.046 32.8244C45.4974 32.8244 45.848 32.6067 46.0979 32.1715C46.3478 31.7362 46.4727 31.1155 46.4727 30.3095C46.4727 29.7735 46.4152 29.317 46.3004 28.9402C46.1875 28.5634 46.0243 28.2763 45.8107 28.0788C45.5991 27.8813 45.3442 27.7825 45.046 27.7825C44.5986 27.7825 44.249 28.0032 43.9971 28.4445C43.7452 28.8838 43.6192 29.5055 43.6192 30.3095C43.6192 30.8456 43.6757 31.3009 43.7885 31.6758C43.9014 32.0506 44.0636 32.3358 44.2752 32.5312C44.4888 32.7267 44.7457 32.8244 45.046 32.8244ZM48.3468 33.4048V32.8606L50.3901 30.6239C50.6299 30.3619 50.8273 30.1342 50.9826 29.9407C51.1377 29.7453 51.2526 29.5619 51.3272 29.3906C51.4037 29.2173 51.442 29.0359 51.442 28.8465C51.442 28.6289 51.3896 28.4405 51.2848 28.2813C51.1821 28.1221 51.041 27.9992 50.8616 27.9125C50.6823 27.8258 50.4808 27.7825 50.2571 27.7825C50.0193 27.7825 49.8117 27.8319 49.6344 27.9307C49.4591 28.0274 49.3231 28.1634 49.2263 28.3387C49.1316 28.5141 49.0843 28.7196 49.0843 28.9554H48.371C48.371 28.5926 48.4545 28.2743 48.6218 28.0002C48.7891 27.7261 49.0168 27.5125 49.305 27.3594C49.5951 27.2063 49.9206 27.1296 50.2813 27.1296C50.644 27.1296 50.9654 27.2063 51.2455 27.3594C51.5256 27.5125 51.7452 27.7191 51.9045 27.9791C52.0637 28.239 52.1433 28.5282 52.1433 28.8465C52.1433 29.0742 52.102 29.2969 52.0193 29.5145C51.9387 29.7302 51.7976 29.971 51.5961 30.237C51.3966 30.501 51.1195 30.8233 50.7649 31.2042L49.3744 32.6914V32.7398H52.2521V33.4048H48.3468ZM53.2224 32.1352V31.5186L55.9428 27.2143H56.3901V28.1694H56.0879L54.0325 31.4219V31.4703H57.6959V32.1352H53.2224ZM56.1362 33.4048V31.9478V31.6607V27.2143H56.8496V33.4048H56.1362Z" fill="black"/>
<path d="M17.5103 64.3571H14.7317V55.3528H17.6334C18.5069 55.3528 19.2543 55.5331 19.8757 55.8936C20.4971 56.2512 20.9734 56.7656 21.3046 57.4368C21.6358 58.105 21.8015 58.9052 21.8015 59.8374C21.8015 60.7753 21.6343 61.5828 21.3002 62.2599C20.9661 62.9341 20.4795 63.4528 19.8406 63.8163C19.2016 64.1768 18.4248 64.3571 17.5103 64.3571ZM15.822 63.3899H17.44C18.1845 63.3899 18.8015 63.2462 19.2909 62.959C19.7805 62.6717 20.1454 62.2628 20.3857 61.7323C20.6261 61.2018 20.7462 60.5701 20.7462 59.8374C20.7462 59.1105 20.6275 58.4847 20.3901 57.96C20.1527 57.4324 19.798 57.0279 19.3261 56.7465C18.8542 56.4622 18.2666 56.32 17.5631 56.32H15.822V63.3899ZM26.3212 64.4978C25.6705 64.4978 25.1092 64.3542 24.6373 64.0669C24.1683 63.7768 23.8064 63.3722 23.5513 62.8535C23.2993 62.3317 23.1732 61.725 23.1732 61.0332C23.1732 60.3415 23.2993 59.7318 23.5513 59.2042C23.8064 58.6737 24.161 58.2604 24.6153 57.9644C25.0725 57.6654 25.606 57.5159 26.2157 57.5159C26.5674 57.5159 26.9147 57.5745 27.2577 57.6918C27.6006 57.8091 27.9128 57.9996 28.1942 58.2634C28.4756 58.5242 28.6998 58.8701 28.8668 59.301C29.0339 59.7318 29.1175 60.2624 29.1175 60.8925V61.3322H23.9118V60.4353H28.0623C28.0623 60.0543 27.9861 59.7143 27.8336 59.4153C27.6841 59.1163 27.4702 58.8803 27.1918 58.7074C26.9162 58.5345 26.5908 58.448 26.2157 58.448C25.8024 58.448 25.4448 58.5506 25.1429 58.7557C24.844 58.958 24.6138 59.2218 24.4526 59.5472C24.2915 59.8725 24.2108 60.2213 24.2108 60.5935V61.1915C24.2108 61.7016 24.2987 62.1339 24.4746 62.4885C24.6534 62.8402 24.9011 63.1084 25.2176 63.2931C25.5342 63.4748 25.9021 63.5657 26.3212 63.5657C26.5938 63.5657 26.84 63.5276 27.0598 63.4514C27.2826 63.3722 27.4746 63.255 27.6358 63.0997C27.797 62.9414 27.9215 62.745 28.0095 62.5105L29.0119 62.7919C28.9065 63.1319 28.7291 63.4309 28.4799 63.6888C28.2308 63.9438 27.923 64.1432 27.5567 64.2868C27.1903 64.4275 26.7785 64.4978 26.3212 64.4978ZM30.6959 66.8896V57.6039H31.6983V58.6767H31.8214C31.8976 58.5594 32.0032 58.4099 32.138 58.2282C32.2757 58.0435 32.4721 57.8794 32.7271 57.7358C32.985 57.5892 33.3339 57.5159 33.7735 57.5159C34.3422 57.5159 34.8434 57.6581 35.2772 57.9424C35.7109 58.2267 36.0495 58.6298 36.2928 59.1515C36.5361 59.6732 36.6577 60.2887 36.6577 60.9981C36.6577 61.7132 36.5361 62.3331 36.2928 62.8579C36.0495 63.3796 35.7124 63.784 35.2816 64.0714C34.8507 64.3557 34.3538 64.4978 33.7911 64.4978C33.3573 64.4978 33.01 64.426 32.7491 64.2824C32.4883 64.1358 32.2875 63.9702 32.1468 63.7855C32.0061 63.5979 31.8976 63.4426 31.8214 63.3195H31.7335V66.8896H30.6959ZM31.7159 60.9805C31.7159 61.4905 31.7906 61.9404 31.9401 62.3303C32.0896 62.7172 32.308 63.0205 32.5952 63.2404C32.8824 63.4573 33.2342 63.5657 33.6504 63.5657C34.0842 63.5657 34.4462 63.4514 34.7364 63.2228C35.0295 62.9912 35.2493 62.6805 35.3959 62.2907C35.5454 61.8979 35.6201 61.4611 35.6201 60.9805C35.6201 60.5056 35.5468 60.0777 35.4003 59.6966C35.2566 59.3127 35.0383 59.0093 34.7452 58.7865C34.455 58.5608 34.09 58.448 33.6504 58.448C33.2283 58.448 32.8737 58.555 32.5865 58.769C32.2991 58.98 32.0822 59.2761 31.9357 59.6571C31.7892 60.0352 31.7159 60.4763 31.7159 60.9805ZM38.2405 64.3571V57.6039H39.2429V58.6239H39.3133C39.4364 58.2898 39.6592 58.0186 39.9816 57.8105C40.304 57.6024 40.6674 57.4983 41.072 57.4983C41.1481 57.4983 41.2435 57.4998 41.3577 57.5027C41.472 57.5057 41.5585 57.5101 41.6171 57.5159V58.5711C41.582 58.5623 41.5014 58.5491 41.3753 58.5316C41.2522 58.511 41.1218 58.5008 40.984 58.5008C40.6557 58.5008 40.3626 58.5696 40.1047 58.7074C39.8497 58.8423 39.6475 59.0298 39.498 59.2702C39.3514 59.5076 39.2781 59.7787 39.2781 60.0835V64.3571H38.2405ZM45.473 64.4978C44.8223 64.4978 44.261 64.3542 43.7891 64.0669C43.3201 63.7768 42.9581 63.3722 42.7031 62.8535C42.4511 62.3317 42.325 61.725 42.325 61.0332C42.325 60.3415 42.4511 59.7318 42.7031 59.2042C42.9581 58.6737 43.3128 58.2604 43.7671 57.9644C44.2243 57.6654 44.7578 57.5159 45.3675 57.5159C45.7192 57.5159 46.0665 57.5745 46.4095 57.6918C46.7524 57.8091 47.0646 57.9996 47.3459 58.2634C47.6274 58.5242 47.8516 58.8701 48.0186 59.301C48.1857 59.7318 48.2693 60.2624 48.2693 60.8925V61.3322H43.0636V60.4353H47.2141C47.2141 60.0543 47.1379 59.7143 46.9854 59.4153C46.8359 59.1163 46.622 58.8803 46.3436 58.7074C46.068 58.5345 45.7426 58.448 45.3675 58.448C44.9542 58.448 44.5966 58.5506 44.2947 58.7557C43.9957 58.958 43.7656 59.2218 43.6044 59.5472C43.4432 59.8725 43.3626 60.2213 43.3626 60.5935V61.1915C43.3626 61.7016 43.4505 62.1339 43.6264 62.4885C43.8052 62.8402 44.0528 63.1084 44.3694 63.2931C44.686 63.4748 45.0538 63.5657 45.473 63.5657C45.7456 63.5657 45.9918 63.5276 46.2116 63.4514C46.4344 63.3722 46.6264 63.255 46.7876 63.0997C46.9488 62.9414 47.0733 62.745 47.1613 62.5105L48.1637 62.7919C48.0582 63.1319 47.8809 63.4309 47.6317 63.6888C47.3826 63.9438 47.0748 64.1432 46.7085 64.2868C46.3421 64.4275 45.9303 64.4978 45.473 64.4978ZM54.6312 59.1163L53.6991 59.3801C53.6405 59.2248 53.554 59.0738 53.4397 58.9272C53.3283 58.7777 53.1759 58.6547 52.9825 58.558C52.789 58.4612 52.5413 58.4129 52.2394 58.4129C51.8261 58.4129 51.4817 58.5081 51.2063 58.6986C50.9336 58.8862 50.7973 59.1251 50.7973 59.4153C50.7973 59.6732 50.8912 59.8769 51.0787 60.0264C51.2663 60.1759 51.5594 60.3004 51.958 60.4001L52.9605 60.6463C53.5643 60.7929 54.0142 61.0171 54.3102 61.319C54.6063 61.618 54.7543 62.0034 54.7543 62.4754C54.7543 62.8623 54.6429 63.2081 54.4202 63.513C54.2004 63.8178 53.8925 64.0581 53.4969 64.234C53.1012 64.4099 52.641 64.4978 52.1163 64.4978C51.4275 64.4978 50.8574 64.3483 50.4061 64.0493C49.9546 63.7504 49.6688 63.3136 49.5487 62.7392L50.5335 62.4929C50.6273 62.8564 50.8046 63.129 51.0655 63.3107C51.3293 63.4924 51.6737 63.5833 52.0988 63.5833C52.5824 63.5833 52.9664 63.4807 53.2507 63.2755C53.5379 63.0674 53.6815 62.8182 53.6815 62.5281C53.6815 62.2936 53.5995 62.0972 53.4353 61.939C53.2712 61.7777 53.0191 61.6575 52.6791 61.5784L51.5535 61.3147C50.9351 61.1681 50.4808 60.9409 50.1906 60.6332C49.9033 60.3225 49.7597 59.9341 49.7597 59.468C49.7597 59.087 49.8667 58.7499 50.0807 58.4568C50.2976 58.1637 50.5922 57.9336 50.9644 57.7665C51.3396 57.5994 51.7646 57.5159 52.2394 57.5159C52.9077 57.5159 53.4324 57.6625 53.8134 57.9556C54.1974 58.2487 54.47 58.6356 54.6312 59.1163ZM61.0998 59.1163L60.1677 59.3801C60.1091 59.2248 60.0226 59.0738 59.9083 58.9272C59.7969 58.7777 59.6445 58.6547 59.451 58.558C59.2576 58.4612 59.0099 58.4129 58.708 58.4129C58.2947 58.4129 57.9503 58.5081 57.6748 58.6986C57.4022 58.8862 57.2659 59.1251 57.2659 59.4153C57.2659 59.6732 57.3597 59.8769 57.5473 60.0264C57.7349 60.1759 58.028 60.3004 58.4266 60.4001L59.4291 60.6463C60.0329 60.7929 60.4828 61.0171 60.7788 61.319C61.0749 61.618 61.2229 62.0034 61.2229 62.4754C61.2229 62.8623 61.1115 63.2081 60.8887 63.513C60.6689 63.8178 60.3611 64.0581 59.9655 64.234C59.5697 64.4099 59.1096 64.4978 58.5849 64.4978C57.8961 64.4978 57.326 64.3483 56.8746 64.0493C56.4232 63.7504 56.1374 63.3136 56.0173 62.7392L57.0021 62.4929C57.0959 62.8564 57.2732 63.129 57.5341 63.3107C57.7979 63.4924 58.1423 63.5833 58.5673 63.5833C59.0509 63.5833 59.4349 63.4807 59.7192 63.2755C60.0065 63.0674 60.1501 62.8182 60.1501 62.5281C60.1501 62.2936 60.068 62.0972 59.9039 61.939C59.7397 61.7777 59.4876 61.6575 59.1476 61.5784L58.0221 61.3147C57.4037 61.1681 56.9493 60.9409 56.6591 60.6332C56.3719 60.3225 56.2283 59.9341 56.2283 59.468C56.2283 59.087 56.3353 58.7499 56.5493 58.4568C56.7662 58.1637 57.0607 57.9336 57.4329 57.7665C57.8082 57.5994 58.2331 57.5159 58.708 57.5159C59.3763 57.5159 59.9009 57.6625 60.282 57.9556C60.666 58.2487 60.9385 58.6356 61.0998 59.1163ZM62.7848 64.3571V57.6039H63.8224V64.3571H62.7848ZM63.3123 56.4784C63.1101 56.4784 62.9357 56.4094 62.7892 56.2717C62.6456 56.1339 62.5737 55.9683 62.5737 55.7749C62.5737 55.5814 62.6456 55.4158 62.7892 55.278C62.9357 55.1403 63.1101 55.0714 63.3123 55.0714C63.5146 55.0714 63.6876 55.1403 63.8312 55.278C63.9777 55.4158 64.051 55.5814 64.051 55.7749C64.051 55.9683 63.9777 56.1339 63.8312 56.2717C63.6876 56.4094 63.5146 56.4784 63.3123 56.4784ZM68.4664 64.4978C67.8567 64.4978 67.3218 64.3527 66.8616 64.0625C66.4043 63.7724 66.0468 63.3664 65.7888 62.8446C65.5338 62.3229 65.4063 61.7132 65.4063 61.0157C65.4063 60.3122 65.5338 59.6981 65.7888 59.1734C66.0468 58.6488 66.4043 58.2414 66.8616 57.9512C67.3218 57.661 67.8567 57.5159 68.4664 57.5159C69.076 57.5159 69.6095 57.661 70.0667 57.9512C70.5269 58.2414 70.8845 58.6488 71.1395 59.1734C71.3974 59.6981 71.5264 60.3122 71.5264 61.0157C71.5264 61.7132 71.3974 62.3229 71.1395 62.8446C70.8845 63.3664 70.5269 63.7724 70.0667 64.0625C69.6095 64.3527 69.076 64.4978 68.4664 64.4978ZM68.4664 63.5657C68.9294 63.5657 69.3105 63.447 69.6095 63.2096C69.9085 62.9722 70.1298 62.66 70.2734 62.2731C70.417 61.8862 70.4888 61.467 70.4888 61.0157C70.4888 60.5643 70.417 60.1437 70.2734 59.7538C70.1298 59.364 69.9085 59.0489 69.6095 58.8085C69.3105 58.5682 68.9294 58.448 68.4664 58.448C68.0033 58.448 67.6222 58.5682 67.3232 58.8085C67.0242 59.0489 66.8029 59.364 66.6593 59.7538C66.5157 60.1437 66.4439 60.5643 66.4439 61.0157C66.4439 61.467 66.5157 61.8862 66.6593 62.2731C66.8029 62.66 67.0242 62.9722 67.3232 63.2096C67.6222 63.447 68.0033 63.5657 68.4664 63.5657ZM74.1479 60.2946V64.3571H73.1103V57.6039H74.1127V58.659H74.2007C74.3589 58.3161 74.5993 58.0406 74.9217 57.8325C75.2441 57.6214 75.6603 57.5159 76.1704 57.5159C76.6276 57.5159 77.0277 57.6097 77.3707 57.7973C77.7136 57.9819 77.9804 58.2634 78.1708 58.6415C78.3612 59.0167 78.4563 59.4915 78.4563 60.066V64.3571H77.419V60.1363C77.419 59.6058 77.2812 59.1925 77.0058 58.8965C76.7302 58.5975 76.3521 58.448 75.8714 58.448C75.5402 58.448 75.2441 58.5198 74.9832 58.6634C74.7253 58.8071 74.5216 59.0167 74.3722 59.2922C74.2227 59.5677 74.1479 59.9018 74.1479 60.2946ZM18.0028 77.0194H19.1986L20.2011 78.3387L20.4649 78.69L21.9597 80.6772H20.7638L19.779 79.3586L19.5328 79.0243L18.0028 77.0194ZM22.3291 75.3311C22.3291 76.2808 22.1576 77.1015 21.8146 77.7932C21.4717 78.4849 21.0013 79.0181 20.4033 79.3934C19.8054 79.7687 19.1224 79.9567 18.3545 79.9567C17.5865 79.9567 16.9036 79.7687 16.3057 79.3934C15.7077 79.0181 15.2373 78.4849 14.8943 77.7932C14.5514 77.1015 14.3799 76.2808 14.3799 75.3311C14.3799 74.3814 14.5514 73.5607 14.8943 72.869C15.2373 72.1772 15.7077 71.6438 16.3057 71.2686C16.9036 70.8934 17.5865 70.7058 18.3545 70.7058C19.1224 70.7058 19.8054 70.8934 20.4033 71.2686C21.0013 71.6438 21.4717 72.1772 21.8146 72.869C22.1576 73.5607 22.3291 74.3814 22.3291 75.3311ZM21.2738 75.3311C21.2738 74.5514 21.1434 73.8934 20.8826 73.3571C20.6246 72.8207 20.2744 72.4147 19.8318 72.1392C19.3921 71.8636 18.8997 71.7259 18.3545 71.7259C17.8093 71.7259 17.3154 71.8636 16.8728 72.1392C16.4332 72.4147 16.0829 72.8207 15.822 73.3571C15.564 73.8934 15.4351 74.5514 15.4351 75.3311C15.4351 76.1108 15.564 76.7688 15.822 77.3049C16.0829 77.8419 16.4332 78.2474 16.8728 78.5229C17.3154 78.7983 17.8093 78.9361 18.3545 78.9361C18.8997 78.9361 19.3921 78.7983 19.8318 78.5229C20.2744 78.2474 20.6246 77.8419 20.8826 77.3049C21.1434 76.7688 21.2738 76.1108 21.2738 75.3311ZM28.2777 77.0722V73.08H29.3153V79.8329H28.2777V78.69H28.2074C28.0491 79.0328 27.8028 79.3245 27.4687 79.5652C27.1346 79.8027 26.7125 79.9211 26.2025 79.9211C25.7804 79.9211 25.4053 79.8291 25.0769 79.6441C24.7487 79.4569 24.4907 79.1752 24.3031 78.7999C24.1156 78.4223 24.0218 77.9456 24.0218 77.3714V73.08H25.0594V77.301C25.0594 77.7932 25.1971 78.1863 25.4727 78.4788C25.7511 78.772 26.1058 78.9191 26.5367 78.9191C26.7946 78.9191 27.0569 78.8525 27.3236 78.721C27.5933 78.5894 27.819 78.3867 28.0007 78.1143C28.1854 77.8419 28.2777 77.4945 28.2777 77.0722ZM34.0472 79.9738C33.3965 79.9738 32.8352 79.8306 32.3633 79.5427C31.8943 79.2526 31.5323 78.8486 31.2773 78.3294C31.0252 77.8079 30.8992 77.2012 30.8992 76.5094C30.8992 75.8177 31.0252 75.208 31.2773 74.6804C31.5323 74.1499 31.887 73.7366 32.3413 73.4406C32.7986 73.1416 33.332 72.9921 33.9417 72.9921C34.2934 72.9921 34.6408 73.0507 34.9837 73.168C35.3266 73.2853 35.6388 73.4758 35.9202 73.7396C36.2015 74.0004 36.4258 74.3463 36.5929 74.7772C36.7599 75.208 36.8435 75.7385 36.8435 76.3687V76.8084H31.6378V75.9115H35.7883C35.7883 75.5305 35.7121 75.1905 35.5597 74.8915C35.4102 74.5925 35.1962 74.3565 34.9177 74.1836C34.6422 74.0107 34.3169 73.9242 33.9417 73.9242C33.5284 73.9242 33.1708 74.0268 32.8689 74.2319C32.5699 74.4342 32.3398 74.698 32.1787 75.0234C32.0174 75.3487 31.9368 75.6975 31.9368 76.0697V76.6677C31.9368 77.1778 32.0248 77.6098 32.2006 77.9649C32.3794 78.3163 32.6271 78.5848 32.9436 78.7689C33.2602 78.9508 33.6281 79.0421 34.0472 79.0421C34.3198 79.0421 34.566 79.0042 34.7859 78.9276C35.0086 78.8486 35.2006 78.731 35.3618 78.5755C35.523 78.4176 35.6476 78.2211 35.7356 77.9866L36.7379 78.2683C36.6324 78.608 36.4551 78.9074 36.206 79.1651C35.9568 79.4197 35.649 79.6194 35.2826 79.7633C34.9162 79.9033 34.5044 79.9738 34.0472 79.9738ZM43.2055 74.5925L42.2733 74.8563C42.2147 74.7009 42.1282 74.55 42.0139 74.4034C41.9026 74.2539 41.7501 74.1309 41.5567 74.0342C41.3632 73.9374 41.1155 73.8891 40.8137 73.8891C40.4004 73.8891 40.056 73.9843 39.7804 74.1748C39.5079 74.3624 39.3715 74.6013 39.3715 74.8915C39.3715 75.1494 39.4653 75.3531 39.653 75.5026C39.8405 75.6521 40.1337 75.7766 40.5322 75.8763L41.5347 76.1225C42.1385 76.2691 42.5884 76.4933 42.8845 76.7952C43.1805 77.0942 43.3286 77.4798 43.3286 77.9518C43.3286 78.3387 43.2171 78.6846 42.9944 78.9895C42.7745 79.2944 42.4668 79.5342 42.0711 79.7099C41.6754 79.8863 41.2152 79.9738 40.6906 79.9738C40.0017 79.9738 39.4317 79.8244 38.9802 79.5257C38.5289 79.2263 38.2431 78.7898 38.1229 78.2157L39.1077 77.9688C39.2015 78.3325 39.3789 78.6049 39.6397 78.7867C39.9035 78.9686 40.2479 79.0591 40.6729 79.0591C41.1566 79.0591 41.5406 78.957 41.8249 78.7519C42.1121 78.5438 42.2558 78.2946 42.2558 78.0044C42.2558 77.77 42.1737 77.5734 42.0095 77.4148C41.8454 77.2538 41.5933 77.1337 41.2533 77.0546L40.1278 76.7908C39.5093 76.6443 39.055 76.4171 38.7648 76.1094C38.4775 75.7987 38.3339 75.4103 38.3339 74.9442C38.3339 74.5632 38.4409 74.2261 38.6549 73.933C38.8718 73.6399 39.1664 73.4098 39.5386 73.2427C39.9138 73.0756 40.3388 72.9921 40.8137 72.9921C41.4819 72.9921 42.0066 73.1387 42.3876 73.4317C42.7717 73.7249 43.0442 74.1118 43.2055 74.5925ZM47.8274 73.08V73.9594H44.3276V73.08H47.8274ZM45.3477 71.4621H46.3853V77.8984C46.3853 78.1917 46.4278 78.4114 46.5128 78.5585C46.6008 78.7016 46.7121 78.7983 46.8469 78.8486C46.9847 78.8951 47.1298 78.9191 47.2822 78.9191C47.3966 78.9191 47.4903 78.9129 47.5636 78.9013C47.6369 78.8866 47.6955 78.8749 47.7394 78.8657L47.9505 79.7981C47.8802 79.8244 47.782 79.8507 47.6559 79.877C47.5299 79.9064 47.3702 79.9211 47.1767 79.9211C46.8836 79.9211 46.5964 79.8585 46.3149 79.7323C46.0365 79.6062 45.8049 79.4143 45.6203 79.1558C45.4386 78.8982 45.3477 78.5732 45.3477 78.1801V71.4621ZM49.3882 79.8329V73.08H50.4258V79.8329H49.3882ZM49.9158 71.9545C49.7136 71.9545 49.5392 71.8856 49.3926 71.7479C49.249 71.6101 49.1772 71.4445 49.1772 71.2511C49.1772 71.0576 49.249 70.8919 49.3926 70.7542C49.5392 70.6165 49.7136 70.5476 49.9158 70.5476C50.118 70.5476 50.291 70.6165 50.4346 70.7542C50.5812 70.8919 50.6544 71.0576 50.6544 71.2511C50.6544 71.4445 50.5812 71.6101 50.4346 71.7479C50.291 71.8856 50.118 71.9545 49.9158 71.9545ZM55.0698 79.9738C54.4601 79.9738 53.9252 79.8291 53.465 79.5389C53.0078 79.2487 52.6502 78.8424 52.3922 78.3209C52.1372 77.7994 52.0097 77.1894 52.0097 76.4918C52.0097 75.7884 52.1372 75.1743 52.3922 74.6496C52.6502 74.125 53.0078 73.7176 53.465 73.4274C53.9252 73.1372 54.4601 72.9921 55.0698 72.9921C55.6794 72.9921 56.2129 73.1372 56.6701 73.4274C57.1303 73.7176 57.488 74.125 57.7429 74.6496C58.0008 75.1743 58.1298 75.7884 58.1298 76.4918C58.1298 77.1894 58.0008 77.7994 57.7429 78.3209C57.488 78.8424 57.1303 79.2487 56.6701 79.5389C56.2129 79.8291 55.6794 79.9738 55.0698 79.9738ZM55.0698 79.0421C55.5329 79.0421 55.914 78.9229 56.2129 78.6861C56.5119 78.4486 56.7332 78.136 56.8768 77.7491C57.0204 77.3622 57.0922 76.9432 57.0922 76.4918C57.0922 76.0405 57.0204 75.6198 56.8768 75.23C56.7332 74.8401 56.5119 74.5251 56.2129 74.2847C55.914 74.0444 55.5329 73.9242 55.0698 73.9242C54.6067 73.9242 54.2256 74.0444 53.9267 74.2847C53.6277 74.5251 53.4063 74.8401 53.2627 75.23C53.1191 75.6198 53.0473 76.0405 53.0473 76.4918C53.0473 76.9432 53.1191 77.3622 53.2627 77.7491C53.4063 78.136 53.6277 78.4486 53.9267 78.6861C54.2256 78.9229 54.6067 79.0421 55.0698 79.0421ZM60.7513 75.7708V79.8329H59.7137V73.08H60.7161V74.1352H60.8041C60.9624 73.7923 61.2027 73.5168 61.5252 73.3087C61.8475 73.0976 62.2638 72.9921 62.7738 72.9921C63.231 72.9921 63.6312 73.0859 63.9741 73.2735C64.317 73.4581 64.5837 73.7396 64.7742 74.1176C64.9648 74.4929 65.0601 74.9677 65.0601 75.5422V79.8329H64.0225V75.6125C64.0225 75.082 63.8847 74.6687 63.6092 74.3727C63.3336 74.0737 62.9555 73.9242 62.4749 73.9242C62.1436 73.9242 61.8475 73.996 61.5867 74.1396C61.3288 74.2832 61.125 74.4929 60.9756 74.7683C60.8261 75.0439 60.7513 75.378 60.7513 75.7708ZM67.9937 75.7708V79.8329H66.9561V73.08H67.9585V74.1352H68.0464C68.2048 73.7923 68.4451 73.5168 68.7675 73.3087C69.0899 73.0976 69.5061 72.9921 70.0162 72.9921C70.4734 72.9921 70.8735 73.0859 71.2164 73.2735C71.5594 73.4581 71.8261 73.7396 72.0166 74.1176C72.2071 74.4929 72.3024 74.9677 72.3024 75.5422V79.8329H71.2648V75.6125C71.2648 75.082 71.127 74.6687 70.8515 74.3727C70.576 74.0737 70.1979 73.9242 69.7172 73.9242C69.386 73.9242 69.0899 73.996 68.8291 74.1396C68.5712 74.2832 68.3674 74.4929 68.2179 74.7683C68.0684 75.0439 67.9937 75.378 67.9937 75.7708ZM76.1857 79.9916C75.7578 79.9916 75.3695 79.9111 75.0206 79.7501C74.6719 79.5853 74.3948 79.3493 74.1897 79.0421C73.9845 78.731 73.8819 78.3557 73.8819 77.9162C73.8819 77.5293 73.9581 77.2158 74.1105 76.9755C74.263 76.7322 74.4667 76.5417 74.7217 76.4039C74.9767 76.2661 75.258 76.1635 75.5658 76.0961C75.8765 76.0258 76.1887 75.9701 76.5023 75.9291C76.9127 75.8763 77.2453 75.8367 77.5004 75.8104C77.7583 75.781 77.9456 75.7327 78.0632 75.6653C78.1832 75.5979 78.2435 75.4806 78.2435 75.3136V75.2784C78.2435 74.8446 78.1244 74.5075 77.8876 74.2671C77.6527 74.0268 77.2966 73.9066 76.8189 73.9066C76.3235 73.9066 75.9351 74.015 75.6538 74.2319C75.3724 74.4488 75.1745 74.6804 75.0602 74.9267L74.0753 74.5749C74.2512 74.1645 74.4857 73.845 74.7788 73.6164C75.0749 73.3848 75.3973 73.2237 75.7461 73.1328C76.0978 73.039 76.4437 72.9921 76.7837 72.9921C77.0006 72.9921 77.2497 73.0185 77.5311 73.0712C77.8155 73.1211 78.0896 73.2251 78.3534 73.3834C78.6204 73.5417 78.8417 73.7806 79.0173 74.1001C79.193 74.4196 79.2812 74.8475 79.2812 75.3839V79.8329H78.2435V78.9191H78.1909C78.1205 79.0653 78.0029 79.2224 77.8389 79.3895C77.6747 79.5567 77.4564 79.6983 77.1838 79.8159C76.9112 79.9327 76.5785 79.9916 76.1857 79.9916ZM76.344 79.0591C76.7544 79.0591 77.1002 78.9786 77.3817 78.8177C77.666 78.6567 77.8799 78.4486 78.0238 78.1932C78.17 77.9386 78.2435 77.6701 78.2435 77.3885V76.4391C78.1994 76.4918 78.1027 76.5402 77.9534 76.5842C77.8066 76.6252 77.6366 76.6619 77.4432 76.6941C77.2527 76.7234 77.0666 76.7498 76.8848 76.7732C76.7061 76.7937 76.561 76.8114 76.4495 76.826C76.1799 76.8612 75.9278 76.9183 75.6933 76.9975C75.4618 77.0737 75.2742 77.1894 75.1306 77.3451C74.9899 77.4976 74.9195 77.705 74.9195 77.9688C74.9195 78.3294 75.0529 78.6026 75.3196 78.7867C75.5893 78.9686 75.9308 79.0591 76.344 79.0591ZM81.1747 79.8329V73.08H82.2124V79.8329H81.1747ZM81.7025 71.9545C81.5005 71.9545 81.3256 71.8856 81.1794 71.7479C81.0354 71.6101 80.9635 71.4445 80.9635 71.2511C80.9635 71.0576 81.0354 70.8919 81.1794 70.7542C81.3256 70.6165 81.5005 70.5476 81.7025 70.5476C81.9044 70.5476 82.0778 70.6165 82.2209 70.7542C82.3679 70.8919 82.4415 71.0576 82.4415 71.2511C82.4415 71.4445 82.3679 71.6101 82.2209 71.7479C82.0778 71.8856 81.9044 71.9545 81.7025 71.9545ZM84.1129 79.8329V73.08H85.115V74.1001H85.1854C85.3084 73.7659 85.5313 73.4948 85.854 73.2867C86.1766 73.0786 86.5396 72.9745 86.9443 72.9745C87.0209 72.9745 87.116 72.976 87.2298 72.9789C87.3443 72.9818 87.431 72.9863 87.4898 72.9921V74.0473C87.4542 74.0385 87.3737 74.0253 87.2476 74.0078C87.1246 73.9872 86.9946 73.977 86.856 73.977C86.5279 73.977 86.2347 74.0458 85.977 74.1836C85.7224 74.3185 85.5197 74.506 85.3703 74.7464C85.2241 74.9838 85.1506 75.2549 85.1506 75.5597V79.8329H84.1129ZM91.3457 79.9738C90.6949 79.9738 90.1331 79.8306 89.6611 79.5427C89.1922 79.2526 88.8308 78.8486 88.5754 78.3294C88.3232 77.8079 88.1971 77.2012 88.1971 76.5094C88.1971 75.8177 88.3232 75.208 88.5754 74.6804C88.8308 74.1499 89.1852 73.7366 89.6394 73.4406C90.0968 73.1416 90.6299 72.9921 91.2397 72.9921C91.5918 72.9921 91.9392 73.0507 92.282 73.168C92.6248 73.2853 92.9366 73.4758 93.2183 73.7396C93.5 74.0004 93.7236 74.3463 93.8907 74.7772C94.0579 75.208 94.1415 75.7385 94.1415 76.3687V76.8084H88.936V75.9115H93.0868C93.0868 75.5305 93.0101 75.1905 92.8577 74.8915C92.7084 74.5925 92.494 74.3565 92.2162 74.1836C91.9407 74.0107 91.615 73.9242 91.2397 73.9242C90.8265 73.9242 90.469 74.0268 90.1672 74.2319C89.8685 74.4342 89.6379 74.698 89.4769 75.0234C89.316 75.3487 89.2347 75.6975 89.2347 76.0697V76.6677C89.2347 77.1778 89.3229 77.6098 89.4986 77.9649C89.6774 78.3163 89.925 78.5848 90.2415 78.7689C90.5587 78.9508 90.9263 79.0421 91.3457 79.0421C91.6181 79.0421 91.8641 79.0042 92.0839 78.9276C92.3068 78.8486 92.4987 78.731 92.6596 78.5755C92.8213 78.4176 92.9459 78.2211 93.0334 77.9866L94.0362 78.2683C93.931 78.608 93.753 78.9074 93.5038 79.1651C93.2547 79.4197 92.9475 79.6194 92.5807 79.7633C92.2147 79.9033 91.803 79.9738 91.3457 79.9738Z" fill="black"/>
<mask id="mask1_449_515" style="mask-type:luminance" maskUnits="userSpaceOnUse" x="5" y="106" width="264" height="42">
<path d="M261.26 106.142H13.6414C9.36778 106.142 5.90332 109.607 5.90332 113.88V139.416C5.90332 143.69 9.36778 147.154 13.6414 147.154H261.26C265.534 147.154 268.999 143.69 268.999 139.416V113.88C268.999 109.607 265.534 106.142 261.26 106.142Z" fill="white"/>
</mask>
<g mask="url(#mask1_449_515)">
<path d="M261.26 106.142H13.6414C9.36778 106.142 5.90332 109.607 5.90332 113.88V139.416C5.90332 143.69 9.36778 147.154 13.6414 147.154H261.26C265.534 147.154 268.999 143.69 268.999 139.416V113.88C268.999 109.607 265.534 106.142 261.26 106.142Z" fill="#E1DFDF"/>
<path d="M17.142 125.232C16.5342 125.229 16.0149 125.069 15.584 124.751C15.1531 124.433 14.8235 123.97 14.5953 123.362C14.3671 122.755 14.2529 122.022 14.2529 121.166C14.2529 120.312 14.3671 119.582 14.5953 118.977C14.8262 118.372 15.157 117.91 15.5878 117.592C16.0213 117.274 16.5394 117.114 17.142 117.114C17.7447 117.114 18.2616 117.275 18.6924 117.596C19.1233 117.914 19.4529 118.375 19.6811 118.981C19.912 119.583 20.0273 120.312 20.0273 121.166C20.0273 122.025 19.9133 122.758 19.685 123.366C19.4567 123.971 19.1272 124.434 18.6963 124.755C18.2654 125.073 17.7473 125.232 17.142 125.232ZM17.142 124.205C17.6755 124.205 18.0923 123.945 18.3923 123.424C18.695 122.903 18.8463 122.15 18.8463 121.166C18.8463 120.511 18.7771 119.959 18.6386 119.508C18.5026 119.053 18.3065 118.71 18.0499 118.476C17.796 118.24 17.4934 118.122 17.142 118.122C16.6112 118.122 16.1944 118.384 15.8918 118.907C15.5891 119.43 15.4365 120.183 15.434 121.166C15.434 121.822 15.5019 122.378 15.6379 122.831C15.7763 123.283 15.9726 123.625 16.2265 123.859C16.4803 124.089 16.7855 124.205 17.142 124.205ZM23.9927 125.209C23.5106 125.209 23.0771 125.116 22.6924 124.932C22.3103 124.745 22.0051 124.488 21.7768 124.162C21.5486 123.836 21.4268 123.465 21.4114 123.047H22.5654C22.5937 123.385 22.7437 123.664 23.0155 123.881C23.2875 124.099 23.6132 124.208 23.9927 124.208C24.2954 124.208 24.5634 124.14 24.7968 124.001C25.0327 123.859 25.2173 123.666 25.3508 123.42C25.4866 123.174 25.5547 122.893 25.5547 122.577C25.5547 122.257 25.4854 121.971 25.3469 121.719C25.2084 121.468 25.0173 121.27 24.7736 121.127C24.5326 120.983 24.2556 120.911 23.9427 120.907C23.7042 120.907 23.4644 120.948 23.2233 121.031C22.9822 121.113 22.7873 121.221 22.6385 121.354L21.5498 121.192L21.9923 117.223H26.324V118.242H22.981L22.7309 120.446H22.7771C22.9309 120.298 23.1348 120.173 23.3888 120.073C23.6452 119.973 23.9196 119.923 24.212 119.923C24.6916 119.923 25.1186 120.037 25.4931 120.265C25.8701 120.493 26.1663 120.805 26.3818 121.2C26.5998 121.592 26.7075 122.044 26.7049 122.554C26.7075 123.065 26.592 123.52 26.3586 123.92C26.1278 124.32 25.8072 124.636 25.3969 124.866C24.9891 125.095 24.5211 125.209 23.9927 125.209ZM31.1262 116.853L28.5871 126.286H27.5599L30.099 116.853H31.1262ZM32.0879 125.101V124.239L34.7539 121.477C35.0386 121.177 35.2733 120.914 35.4579 120.688C35.6451 120.46 35.785 120.243 35.8773 120.038C35.9696 119.833 36.0158 119.615 36.0158 119.385C36.0158 119.123 35.9542 118.897 35.8311 118.707C35.708 118.515 35.54 118.368 35.3272 118.265C35.1143 118.16 34.8745 118.107 34.6078 118.107C34.3256 118.107 34.0794 118.165 33.8691 118.28C33.6588 118.396 33.4972 118.558 33.3844 118.769C33.2715 118.979 33.2151 119.225 33.2151 119.508H32.0802C32.0802 119.028 32.1905 118.608 32.4111 118.249C32.6316 117.89 32.9342 117.612 33.319 117.414C33.7036 117.215 34.141 117.114 34.6308 117.114C35.1258 117.114 35.5618 117.213 35.9388 117.411C36.3184 117.606 36.6146 117.873 36.8275 118.211C37.0404 118.547 37.1468 118.926 37.1468 119.35C37.1468 119.642 37.0917 119.928 36.9813 120.208C36.8736 120.487 36.6851 120.799 36.4158 121.143C36.1466 121.484 35.7721 121.898 35.2925 122.385L33.7268 124.024V124.082H37.2738V125.101H32.0879ZM41.4748 125.232C40.8669 125.229 40.3476 125.069 39.9167 124.751C39.4858 124.433 39.1562 123.97 38.928 123.362C38.6997 122.755 38.5856 122.022 38.5856 121.166C38.5856 120.312 38.6997 119.582 38.928 118.977C39.1588 118.372 39.4896 117.91 39.9205 117.592C40.354 117.274 40.8721 117.114 41.4748 117.114C42.0774 117.114 42.5942 117.275 43.0251 117.596C43.456 117.914 43.7855 118.375 44.0138 118.981C44.2446 119.583 44.3601 120.312 44.3601 121.166C44.3601 122.025 44.2459 122.758 44.0177 123.366C43.7894 123.971 43.4598 124.434 43.029 124.755C42.5981 125.073 42.08 125.232 41.4748 125.232ZM41.4748 124.205C42.0082 124.205 42.4249 123.945 42.725 123.424C43.0277 122.903 43.179 122.15 43.179 121.166C43.179 120.511 43.1098 119.959 42.9712 119.508C42.8353 119.053 42.6391 118.71 42.3827 118.476C42.1287 118.24 41.8261 118.122 41.4748 118.122C40.9439 118.122 40.5271 118.384 40.2245 118.907C39.9218 119.43 39.7692 120.183 39.7667 121.166C39.7667 121.822 39.8346 122.378 39.9706 122.831C40.109 123.283 40.3052 123.625 40.5591 123.859C40.813 124.089 41.1183 124.205 41.4748 124.205ZM51.5964 122.546H52.7659L53.5891 123.62L53.9777 124.097L55.2895 125.809H54.0739L53.1967 124.667L52.8967 124.251L51.5964 122.546ZM55.5435 121.162C55.5435 122.003 55.3896 122.726 55.0818 123.332C54.7741 123.934 54.3521 124.398 53.8161 124.724C53.2826 125.047 52.6761 125.209 51.9965 125.209C51.3142 125.209 50.7052 125.047 50.1691 124.724C49.6357 124.398 49.215 123.933 48.9073 123.328C48.5995 122.722 48.4456 122 48.4456 121.162C48.4456 120.32 48.5995 119.598 48.9073 118.996C49.215 118.39 49.6357 117.926 50.1691 117.603C50.7052 117.277 51.3142 117.114 51.9965 117.114C52.6761 117.114 53.2826 117.277 53.8161 117.603C54.3521 117.926 54.7741 118.39 55.0818 118.996C55.3896 119.598 55.5435 120.32 55.5435 121.162ZM54.3663 121.162C54.3663 120.521 54.2624 119.98 54.0547 119.542C53.8495 119.101 53.5673 118.768 53.2083 118.542C52.8518 118.314 52.4479 118.199 51.9965 118.199C51.5425 118.199 51.1373 118.314 50.7808 118.542C50.4243 118.768 50.1422 119.101 49.9344 119.542C49.7292 119.98 49.6267 120.521 49.6267 121.162C49.6267 121.803 49.7292 122.344 49.9344 122.785C50.1422 123.223 50.4243 123.557 50.7808 123.785C51.1373 124.011 51.5425 124.124 51.9965 124.124C52.4479 124.124 52.8518 124.011 53.2083 123.785C53.5673 123.557 53.8495 123.223 54.0547 122.785C54.2624 122.344 54.3663 121.803 54.3663 121.162ZM60.6764 122.651V119.192H61.8305V125.101H60.6994V124.078H60.6379C60.502 124.393 60.284 124.656 59.9839 124.866C59.6865 125.074 59.3158 125.178 58.8721 125.178C58.4925 125.178 58.1566 125.094 57.8642 124.928C57.5744 124.759 57.3461 124.509 57.1794 124.178C57.0153 123.847 56.9332 123.438 56.9332 122.95V119.192H58.0835V122.812C58.0835 123.215 58.195 123.535 58.4182 123.774C58.6413 124.013 58.9311 124.132 59.2876 124.132C59.5031 124.132 59.7172 124.078 59.93 123.97C60.1455 123.863 60.3238 123.699 60.4648 123.481C60.6084 123.264 60.6789 122.987 60.6764 122.651ZM65.9228 125.221C65.3407 125.221 64.8393 125.096 64.4186 124.847C64.0006 124.596 63.6775 124.243 63.4492 123.789C63.2235 123.333 63.1106 122.798 63.1106 122.185C63.1106 121.58 63.2235 121.046 63.4492 120.585C63.6775 120.123 63.9955 119.763 64.4032 119.504C64.8136 119.245 65.2932 119.115 65.842 119.115C66.1755 119.115 66.4986 119.17 66.8115 119.28C67.1244 119.391 67.4052 119.564 67.654 119.8C67.9028 120.036 68.099 120.343 68.2426 120.719C68.3862 121.094 68.458 121.549 68.458 122.085V122.493H63.7608V121.631H67.3308C67.3308 121.328 67.2693 121.061 67.1462 120.827C67.0231 120.591 66.85 120.405 66.6268 120.269C66.4063 120.133 66.1472 120.066 65.8498 120.066C65.5266 120.066 65.2445 120.144 65.0034 120.304C64.7649 120.46 64.5802 120.665 64.4494 120.919C64.3212 121.171 64.257 121.444 64.257 121.738V122.412C64.257 122.807 64.3263 123.143 64.4648 123.42C64.6059 123.697 64.802 123.908 65.0534 124.055C65.3048 124.198 65.5984 124.27 65.9343 124.27C66.1524 124.27 66.3511 124.239 66.5306 124.178C66.7102 124.113 66.8654 124.019 66.9962 123.893C67.1269 123.767 67.227 123.612 67.2962 123.428L68.3849 123.623C68.2977 123.945 68.1413 124.226 67.9156 124.466C67.6925 124.705 67.4116 124.891 67.0731 125.024C66.7371 125.155 66.3537 125.221 65.9228 125.221ZM74.1623 120.634L73.1197 120.819C73.0762 120.686 73.0069 120.559 72.912 120.438C72.8196 120.318 72.694 120.22 72.5349 120.142C72.376 120.066 72.1772 120.027 71.9386 120.027C71.6129 120.027 71.3411 120.1 71.1231 120.246C70.9051 120.39 70.7961 120.575 70.7961 120.804C70.7961 121.001 70.8692 121.16 71.0154 121.281C71.1616 121.401 71.3975 121.5 71.7232 121.577L72.6619 121.793C73.2057 121.918 73.6109 122.112 73.8776 122.374C74.1443 122.635 74.2777 122.975 74.2777 123.393C74.2777 123.747 74.1751 124.062 73.9699 124.339C73.7673 124.614 73.4839 124.829 73.1197 124.985C72.7581 125.142 72.3388 125.221 71.8617 125.221C71.2001 125.221 70.6602 125.079 70.2421 124.797C69.8241 124.513 69.5676 124.109 69.4727 123.586L70.5845 123.416C70.6537 123.706 70.7961 123.925 71.0115 124.074C71.227 124.22 71.5078 124.293 71.8541 124.293C72.2311 124.293 72.5324 124.215 72.7581 124.058C72.9838 123.9 73.0967 123.706 73.0967 123.477C73.0967 123.293 73.0274 123.138 72.8889 123.012C72.753 122.886 72.5439 122.792 72.2619 122.727L71.2616 122.508C70.7102 122.382 70.3024 122.183 70.0382 121.908C69.7766 121.633 69.6459 121.286 69.6459 120.866C69.6459 120.517 69.7433 120.212 69.9382 119.95C70.1331 119.688 70.4024 119.484 70.7461 119.338C71.0898 119.19 71.4834 119.115 71.9271 119.115C72.5657 119.115 73.0684 119.254 73.4352 119.531C73.802 119.805 74.0443 120.173 74.1623 120.634ZM78.3008 119.192V120.115H75.073V119.192H78.3008ZM75.9387 117.777H77.089V123.366C77.089 123.589 77.1223 123.757 77.1889 123.87C77.2556 123.98 77.3415 124.056 77.4467 124.097C77.5544 124.136 77.6711 124.154 77.7968 124.154C77.8891 124.154 77.9696 124.148 78.0392 124.136C78.1081 124.123 78.1622 124.113 78.2009 124.105L78.4083 125.055C78.3418 125.081 78.2466 125.106 78.1236 125.132C78.0005 125.16 77.8468 125.176 77.6621 125.178C77.3595 125.183 77.0774 125.129 76.8158 125.016C76.5542 124.903 76.3426 124.729 76.1811 124.493C76.0195 124.257 75.9387 123.961 75.9387 123.605V117.777ZM79.5729 125.101V119.192H80.7235V125.101H79.5729ZM80.154 118.28C79.9544 118.28 79.7818 118.214 79.6387 118.08C79.4978 117.945 79.4267 117.783 79.4267 117.596C79.4267 117.406 79.4978 117.244 79.6387 117.11C79.7818 116.975 79.9544 116.907 80.154 116.907C80.3544 116.907 80.5247 116.975 80.6655 117.11C80.8094 117.244 80.8814 117.406 80.8814 117.596C80.8814 117.783 80.8094 117.945 80.6655 118.08C80.5247 118.214 80.3544 118.28 80.154 118.28ZM84.7597 125.221C84.2057 125.221 83.7228 125.094 83.3096 124.839C82.8964 124.585 82.576 124.23 82.3478 123.774C82.1195 123.317 82.0058 122.784 82.0058 122.173C82.0058 121.561 82.1195 121.024 82.3478 120.565C82.576 120.107 82.8964 119.75 83.3096 119.496C83.7228 119.242 84.2057 119.115 84.7597 119.115C85.3138 119.115 85.7974 119.242 86.2106 119.496C86.6231 119.75 86.9442 120.107 87.1725 120.565C87.4 121.024 87.5145 121.561 87.5145 122.173C87.5145 122.784 87.4 123.317 87.1725 123.774C86.9442 124.23 86.6231 124.585 86.2106 124.839C85.7974 125.094 85.3138 125.221 84.7597 125.221ZM84.7636 124.255C85.1227 124.255 85.4206 124.16 85.6566 123.97C85.8926 123.781 86.0667 123.528 86.1797 123.212C86.295 122.897 86.353 122.549 86.353 122.17C86.353 121.793 86.295 121.446 86.1797 121.131C86.0667 120.813 85.8926 120.558 85.6566 120.365C85.4206 120.173 85.1227 120.077 84.7636 120.077C84.4022 120.077 84.102 120.173 83.8637 120.365C83.6277 120.558 83.452 120.813 83.3367 121.131C83.2237 121.446 83.1672 121.793 83.1672 122.17C83.1672 122.549 83.2237 122.897 83.3367 123.212C83.452 123.528 83.6277 123.781 83.8637 123.97C84.102 124.16 84.4022 124.255 84.7636 124.255ZM89.9489 121.592V125.101H88.7982V119.192H89.9025V120.154H89.976C90.1114 119.841 90.3242 119.59 90.6144 119.4C90.9069 119.21 91.2744 119.115 91.7186 119.115C92.121 119.115 92.4739 119.2 92.7764 119.369C93.079 119.535 93.3134 119.785 93.4806 120.115C93.6469 120.446 93.7305 120.855 93.7305 121.342V125.101H92.5799V121.481C92.5799 121.053 92.4684 120.718 92.2456 120.477C92.0219 120.233 91.7155 120.111 91.3263 120.111C91.0593 120.111 90.8218 120.169 90.6144 120.285C90.4093 120.4 90.2461 120.569 90.1253 120.792C90.0077 121.013 89.9489 121.28 89.9489 121.592ZM99.7012 120.634L98.6581 120.819C98.6148 120.686 98.5459 120.559 98.4508 120.438C98.3587 120.318 98.2325 120.22 98.0739 120.142C97.9145 120.066 97.7156 120.027 97.4773 120.027C97.1515 120.027 96.8799 120.1 96.6617 120.246C96.4435 120.39 96.3352 120.575 96.3352 120.804C96.3352 121.001 96.4079 121.16 96.5542 121.281C96.7004 121.401 96.9364 121.5 97.2622 121.577L98.2008 121.793C98.744 121.918 99.1495 122.112 99.4165 122.374C99.6834 122.635 99.8165 122.975 99.8165 123.393C99.8165 123.747 99.7136 124.062 99.5086 124.339C99.3058 124.614 99.0226 124.829 98.6581 124.985C98.2968 125.142 97.8774 125.221 97.4007 125.221C96.7391 125.221 96.199 125.079 95.7811 124.797C95.3625 124.513 95.1064 124.109 95.0112 123.586L96.1231 123.416C96.1928 123.706 96.3352 123.925 96.5503 124.074C96.7654 124.22 97.0463 124.293 97.393 124.293C97.7698 124.293 98.0708 124.215 98.2968 124.058C98.5227 123.9 98.6357 123.706 98.6357 123.477C98.6357 123.293 98.566 123.138 98.4275 123.012C98.2913 122.886 98.0824 122.792 97.8008 122.727L96.8002 122.508C96.2493 122.382 95.8415 122.183 95.5768 121.908C95.3153 121.633 95.1845 121.286 95.1845 120.866C95.1845 120.517 95.282 120.212 95.477 119.95C95.672 119.688 95.9413 119.484 96.2849 119.338C96.6284 119.19 97.0223 119.115 97.4657 119.115C98.1049 119.115 98.6071 119.254 98.9739 119.531C99.3406 119.805 99.5828 120.173 99.7012 120.634Z" fill="black"/>
<path d="M186.201 132.839H15.1892C14.3345 132.839 13.6416 133.532 13.6416 134.386C13.6416 135.241 14.3345 135.934 15.1892 135.934H186.201C187.056 135.934 187.749 135.241 187.749 134.386C187.749 133.532 187.056 132.839 186.201 132.839Z" fill="white"/>
<path d="M36.2755 132.839H15.1892C14.3345 132.839 13.6416 133.532 13.6416 134.386C13.6416 135.241 14.3345 135.934 15.1892 135.934H36.2755C37.1303 135.934 37.8231 135.241 37.8231 134.386C37.8231 133.532 37.1303 132.839 36.2755 132.839Z" fill="#00A886"/>
<path d="M196.261 106.142H265.13C267.266 106.142 268.999 107.875 268.999 110.011V143.285C268.999 145.422 267.266 147.154 265.13 147.154H196.261V106.142Z" fill="#00A886"/>
<path d="M211.408 125.201H210.208C210.162 124.944 210.076 124.719 209.95 124.524C209.825 124.329 209.671 124.164 209.488 124.027C209.307 123.892 209.103 123.789 208.877 123.72C208.654 123.651 208.417 123.616 208.165 123.616C207.712 123.616 207.305 123.73 206.946 123.959C206.59 124.187 206.307 124.521 206.099 124.962C205.894 125.404 205.792 125.943 205.792 126.579C205.792 127.219 205.894 127.76 206.099 128.202C206.307 128.643 206.591 128.977 206.95 129.202C207.309 129.428 207.713 129.541 208.161 129.541C208.411 129.541 208.647 129.508 208.869 129.44C209.095 129.371 209.299 129.27 209.481 129.137C209.663 129.003 209.817 128.841 209.943 128.648C210.071 128.453 210.159 128.23 210.208 127.978L211.408 127.982C211.344 128.37 211.22 128.726 211.035 129.052C210.853 129.375 210.618 129.655 210.331 129.891C210.046 130.124 209.721 130.305 209.354 130.433C208.987 130.561 208.587 130.626 208.154 130.626C207.472 130.626 206.864 130.464 206.331 130.141C205.797 129.815 205.376 129.35 205.068 128.745C204.764 128.139 204.61 127.417 204.61 126.579C204.61 125.737 204.764 125.015 205.072 124.413C205.38 123.807 205.8 123.343 206.334 123.02C206.868 122.694 207.474 122.531 208.154 122.531C208.572 122.531 208.961 122.591 209.324 122.712C209.687 122.83 210.015 123.004 210.304 123.235C210.594 123.463 210.834 123.743 211.024 124.074C211.213 124.402 211.342 124.778 211.408 125.201ZM215.228 130.637C214.674 130.637 214.19 130.51 213.778 130.256C213.364 130.002 213.044 129.647 212.816 129.19C212.588 128.734 212.473 128.201 212.473 127.59C212.473 126.977 212.588 126.441 212.816 125.982C213.044 125.523 213.364 125.166 213.778 124.913C214.19 124.659 214.674 124.532 215.228 124.532C215.782 124.532 216.265 124.659 216.678 124.913C217.091 125.166 217.411 125.523 217.64 125.982C217.868 126.441 217.982 126.977 217.982 127.59C217.982 128.201 217.868 128.734 217.64 129.19C217.411 129.647 217.091 130.002 216.678 130.256C216.265 130.51 215.782 130.637 215.228 130.637ZM215.232 129.672C215.591 129.672 215.888 129.576 216.124 129.387C216.36 129.197 216.535 128.944 216.647 128.628C216.762 128.314 216.82 127.966 216.82 127.586C216.82 127.209 216.762 126.863 216.647 126.548C216.535 126.23 216.36 125.974 216.124 125.782C215.888 125.59 215.591 125.494 215.232 125.494C214.87 125.494 214.57 125.59 214.331 125.782C214.096 125.974 213.919 126.23 213.804 126.548C213.692 126.863 213.635 127.209 213.635 127.586C213.635 127.966 213.692 128.314 213.804 128.628C213.919 128.944 214.096 129.197 214.331 129.387C214.57 129.576 214.87 129.672 215.232 129.672ZM220.416 127.009V130.517H219.266V124.609H220.371V125.57H220.443C220.579 125.258 220.792 125.006 221.082 124.817C221.374 124.626 221.742 124.532 222.186 124.532C222.589 124.532 222.941 124.616 223.244 124.786C223.546 124.952 223.781 125.201 223.948 125.532C224.115 125.863 224.198 126.271 224.198 126.759V130.517H223.048V126.897C223.048 126.47 222.936 126.134 222.713 125.894C222.49 125.65 222.184 125.528 221.794 125.528C221.527 125.528 221.29 125.586 221.082 125.701C220.877 125.816 220.714 125.986 220.593 126.209C220.475 126.429 220.416 126.696 220.416 127.009ZM228.499 124.609V125.532H225.271V124.609H228.499ZM226.137 123.193H227.288V128.782C227.288 129.006 227.321 129.174 227.387 129.287C227.454 129.397 227.54 129.473 227.645 129.514C227.753 129.552 227.87 129.571 227.995 129.571C228.088 129.571 228.168 129.565 228.238 129.552C228.307 129.539 228.361 129.529 228.399 129.521L228.607 130.472C228.54 130.497 228.445 130.523 228.322 130.548C228.199 130.577 228.045 130.592 227.86 130.595C227.558 130.6 227.276 130.546 227.014 130.433C226.752 130.32 226.541 130.146 226.379 129.91C226.217 129.674 226.137 129.378 226.137 129.022V123.193ZM229.772 130.517V124.609H230.921V130.517H229.772ZM230.353 123.697C230.152 123.697 229.98 123.63 229.837 123.497C229.696 123.361 229.625 123.199 229.625 123.012C229.625 122.823 229.696 122.661 229.837 122.527C229.98 122.392 230.152 122.323 230.353 122.323C230.552 122.323 230.723 122.392 230.864 122.527C231.007 122.661 231.079 122.823 231.079 123.012C231.079 123.199 231.007 123.361 230.864 123.497C230.723 123.63 230.552 123.697 230.353 123.697ZM233.62 127.009V130.517H232.469V124.609H233.573V125.57H233.647C233.782 125.258 233.995 125.006 234.285 124.817C234.578 124.626 234.945 124.532 235.389 124.532C235.792 124.532 236.145 124.616 236.447 124.786C236.75 124.952 236.984 125.201 237.151 125.532C237.318 125.863 237.401 126.271 237.401 126.759V130.517H236.251V126.897C236.251 126.47 236.139 126.134 235.916 125.894C235.693 125.65 235.386 125.528 234.997 125.528C234.73 125.528 234.493 125.586 234.285 125.701C234.08 125.816 233.917 125.986 233.796 126.209C233.678 126.429 233.62 126.696 233.62 127.009ZM242.687 128.067V124.609H243.841V130.517H242.71V129.494H242.648C242.512 129.81 242.295 130.072 241.995 130.283C241.697 130.491 241.327 130.595 240.883 130.595C240.504 130.595 240.167 130.511 239.875 130.345C239.585 130.175 239.357 129.925 239.19 129.594C239.026 129.264 238.943 128.854 238.943 128.367V124.609H240.094V128.228C240.094 128.632 240.206 128.952 240.428 129.19C240.652 129.429 240.941 129.549 241.298 129.549C241.513 129.549 241.728 129.494 241.94 129.387C242.156 129.279 242.334 129.116 242.475 128.898C242.619 128.68 242.69 128.403 242.687 128.067ZM247.934 130.637C247.351 130.637 246.85 130.513 246.429 130.264C246.011 130.013 245.688 129.66 245.46 129.206C245.234 128.749 245.122 128.214 245.122 127.602C245.122 126.997 245.234 126.463 245.46 126.001C245.688 125.539 246.006 125.18 246.414 124.92C246.824 124.661 247.304 124.532 247.852 124.532C248.186 124.532 248.509 124.587 248.822 124.697C249.135 124.807 249.416 124.981 249.665 125.217C249.914 125.453 250.11 125.759 250.253 126.136C250.397 126.511 250.469 126.966 250.469 127.502V127.91H245.772V127.048H249.341C249.341 126.745 249.28 126.477 249.157 126.244C249.034 126.008 248.861 125.822 248.638 125.686C248.417 125.549 248.158 125.482 247.86 125.482C247.537 125.482 247.255 125.561 247.014 125.721C246.775 125.877 246.591 126.082 246.46 126.336C246.332 126.587 246.268 126.86 246.268 127.155V127.828C246.268 128.224 246.337 128.56 246.476 128.837C246.617 129.114 246.812 129.325 247.064 129.471C247.315 129.615 247.609 129.687 247.945 129.687C248.163 129.687 248.362 129.656 248.541 129.594C248.721 129.53 248.876 129.436 249.007 129.309C249.138 129.184 249.237 129.029 249.307 128.844L250.396 129.04C250.308 129.361 250.152 129.642 249.926 129.883C249.703 130.121 249.422 130.308 249.083 130.441C248.748 130.572 248.365 130.637 247.934 130.637Z" fill="white"/>
<path d="M255.135 126.648H259.648" stroke="white" stroke-width="0.773809" stroke-linecap="round" stroke-linejoin="round"/>
<path d="M257.392 124.392L259.649 126.649L257.392 128.905" stroke="white" stroke-width="0.773809" stroke-linecap="round" stroke-linejoin="round"/>
</g>
</g>
</g>
<defs>
<filter id="filter0_d_449_515" x="0.719773" y="0.363095" width="273.465" height="153.524" filterUnits="userSpaceOnUse" color-interpolation-filters="sRGB">
<feFlood flood-opacity="0" result="BackgroundImageFix"/>
<feColorMatrix in="SourceAlpha" type="matrix" values="0 0 0 0 0 0 0 0 0 0 0 0 0 0 0 0 0 0 127 0" result="hardAlpha"/>
<feOffset dy="1.54762"/>
<feGaussianBlur stdDeviation="2.59226"/>
<feComposite in2="hardAlpha" operator="out"/>
<feColorMatrix type="matrix" values="0 0 0 0 0 0 0 0 0 0.458246 0 0 0 0 0.365506 0 0 0 0.1 0"/>
<feBlend mode="normal" in2="BackgroundImageFix" result="effect1_dropShadow_449_515"/>
<feBlend mode="normal" in="SourceGraphic" in2="effect1_dropShadow_449_515" result="shape"/>
</filter>
</defs>
</svg>
