<svg width="216" height="211" viewBox="0 0 216 211" fill="none" xmlns="http://www.w3.org/2000/svg">
<g filter="url(#filter0_d_449_614)">
<path d="M196.215 5H19.7848C12.724 5 7 10.724 7 17.7848V189.101C7 196.162 12.724 201.886 19.7848 201.886H196.215C203.276 201.886 209 196.162 209 189.101V17.7848C209 10.724 203.276 5 196.215 5Z" fill="#E8F9F5"/>
<path d="M24.7539 48.4684H22.8652L28.3278 33.5914H30.1875L35.65 48.4684H33.7613L29.3157 35.945H29.1995L24.7539 48.4684ZM25.4512 42.657H33.0641V44.2551H25.4512V42.657ZM41.948 48.7008C41.0183 48.7008 40.1973 48.4659 39.4855 47.9962C38.7736 47.5216 38.2167 46.8533 37.8148 45.9913C37.4128 45.1245 37.2118 44.1002 37.2118 42.9186C37.2118 41.7466 37.4128 40.7297 37.8148 39.8676C38.2167 39.0057 38.7761 38.3398 39.4928 37.87C40.2095 37.4003 41.0376 37.1654 41.9771 37.1654C42.7034 37.1654 43.2773 37.2865 43.6986 37.5287C44.1248 37.7659 44.4493 38.0371 44.672 38.3421C44.8996 38.6425 45.0764 38.8895 45.2023 39.0832H45.3476V33.5914H47.0619V48.4684H45.4057V46.754H45.2023C45.0764 46.9575 44.8972 47.214 44.6647 47.5241C44.4323 47.8291 44.1005 48.1027 43.6696 48.3449C43.2386 48.5821 42.6647 48.7008 41.948 48.7008ZM42.1804 47.1609C42.8681 47.1609 43.4493 46.9816 43.9239 46.6233C44.3984 46.26 44.7592 45.7589 45.0062 45.1196C45.2532 44.4755 45.3766 43.7322 45.3766 42.8896C45.3766 42.0565 45.2555 41.3278 45.0135 40.703C44.7714 40.0735 44.413 39.5843 43.9383 39.2357C43.4637 38.8822 42.8778 38.7054 42.1804 38.7054C41.4541 38.7054 40.8487 38.8919 40.3644 39.2647C39.885 39.6328 39.5242 40.1341 39.2821 40.7685C39.0448 41.398 38.9262 42.105 38.9262 42.8896C38.9262 43.6838 39.0472 44.4053 39.2894 45.0542C39.5364 45.6983 39.8996 46.2116 40.379 46.5942C40.8632 46.9719 41.4637 47.1609 42.1804 47.1609ZM50.4398 48.4684V37.3107H52.0959V38.996H52.2121C52.4155 38.4439 52.7836 37.9959 53.3163 37.6522C53.849 37.3082 54.4495 37.1364 55.1179 37.1364C55.2437 37.1364 55.4012 37.1388 55.59 37.1436C55.7788 37.1484 55.9218 37.1557 56.0185 37.1654V38.9088C55.9605 38.8943 55.8273 38.8725 55.619 38.8434C55.4156 38.8096 55.2002 38.7926 54.9725 38.7926C54.4302 38.7926 53.9459 38.9063 53.5198 39.134C53.0984 39.3568 52.7643 39.6667 52.5173 40.0638C52.2752 40.4561 52.1541 40.904 52.1541 41.4077V48.4684H50.4398ZM58.0507 48.4684V37.3107H59.765V48.4684H58.0507ZM58.9224 35.4511C58.5883 35.4511 58.3001 35.3373 58.058 35.1096C57.8207 34.8821 57.702 34.6085 57.702 34.2889C57.702 33.9692 57.8207 33.6956 58.058 33.4679C58.3001 33.2404 58.5883 33.1266 58.9224 33.1266C59.2565 33.1266 59.5423 33.2404 59.7796 33.4679C60.0217 33.6956 60.1428 33.9692 60.1428 34.2889C60.1428 34.6085 60.0217 34.8821 59.7796 35.1096C59.5423 35.3373 59.2565 35.4511 58.9224 35.4511ZM66.1877 48.7298C65.4807 48.7298 64.8402 48.5967 64.2636 48.3303C63.687 48.0591 63.2293 47.6693 62.8905 47.1609C62.5517 46.6475 62.3817 46.0276 62.3817 45.3012C62.3817 44.6619 62.5082 44.1438 62.7601 43.7467C63.012 43.3447 63.3482 43.03 63.7688 42.8024C64.1907 42.5748 64.6561 42.4053 65.1637 42.2939C65.6776 42.1776 66.1928 42.0857 66.7119 42.0178C67.3895 41.9307 67.9392 41.8653 68.3599 41.8217C68.7869 41.7733 69.0963 41.6934 69.2906 41.582C69.4887 41.4706 69.5885 41.2769 69.5885 41.0009V40.9427C69.5885 40.226 69.3916 39.6691 68.9991 39.272C68.6117 38.8749 68.0236 38.6763 67.2348 38.6763C66.4153 38.6763 65.7748 38.8556 65.3094 39.2139C64.844 39.5723 64.518 39.9548 64.3288 40.3616L62.7013 39.7804C62.9915 39.1025 63.3789 38.5747 63.8634 38.1969C64.3531 37.8144 64.8862 37.548 65.4615 37.3979C66.0432 37.2429 66.6147 37.1654 67.176 37.1654C67.534 37.1654 67.9456 37.209 68.411 37.2962C68.8815 37.3786 69.3341 37.5504 69.77 37.812C70.2098 38.0734 70.5755 38.4681 70.867 38.996C71.1572 39.5238 71.3016 40.2309 71.3016 41.1171V48.4684H69.5885V46.9574H69.5003C69.3839 47.1996 69.1909 47.4586 68.9198 47.7346C68.6488 48.0107 68.2883 48.2457 67.8369 48.4393C67.3869 48.633 66.8372 48.7298 66.1877 48.7298ZM66.4498 47.1899C67.1274 47.1899 67.6989 47.0567 68.1642 46.7904C68.6334 46.524 68.9876 46.1801 69.2241 45.7589C69.467 45.3375 69.5885 44.8944 69.5885 44.4295V42.8604C69.5156 42.9476 69.3558 43.0275 69.109 43.1001C68.8661 43.168 68.5849 43.2285 68.2652 43.2818C67.9507 43.3303 67.6439 43.3739 67.3435 43.4126C67.0481 43.4465 66.8078 43.4755 66.6237 43.4997C66.1788 43.5578 65.762 43.6523 65.3746 43.783C64.9923 43.9089 64.6817 44.1002 64.4451 44.3569C64.2125 44.6088 64.0961 44.9525 64.0961 45.3884C64.0961 45.984 64.316 46.4344 64.7571 46.7395C65.2033 47.0398 65.7671 47.1899 66.4498 47.1899ZM76.1458 41.7563V48.4684H74.4314V37.3107H76.087V39.0541H76.2327C76.4948 38.4875 76.8912 38.0322 77.4243 37.6885C77.9561 37.3398 78.6439 37.1654 79.4865 37.1654C80.2421 37.1654 80.903 37.3204 81.4707 37.6303C82.037 37.9355 82.4768 38.4003 82.7926 39.025C83.1071 39.6449 83.2644 40.4294 83.2644 41.3785V48.4684H81.5499V41.4949C81.5499 40.6182 81.3224 39.9355 80.8672 39.4464C80.4121 38.9524 79.7869 38.7054 78.993 38.7054C78.4458 38.7054 77.9561 38.824 77.5253 39.0613C77.0995 39.2987 76.7633 39.6449 76.5166 40.1001C76.2685 40.5553 76.1458 41.1074 76.1458 41.7563ZM92.3825 48.4684V33.5914H97.4095C98.5716 33.5914 99.5254 33.79 100.272 34.1871C101.017 34.5795 101.57 35.1194 101.928 35.8071C102.286 36.4947 102.465 37.2768 102.465 38.1533C102.465 39.0298 102.286 39.8072 101.928 40.4851C101.57 41.1631 101.02 41.6959 100.278 42.0832C99.5382 42.4658 98.5908 42.657 97.4389 42.657H93.3708V41.0299H97.3801C98.174 41.0299 98.8133 40.9137 99.2978 40.6813C99.7875 40.4488 100.14 40.1195 100.359 39.6934C100.581 39.2623 100.693 38.749 100.693 38.1533C100.693 37.5577 100.581 37.0371 100.359 36.5915C100.135 36.146 99.7798 35.8022 99.2914 35.56C98.8018 35.313 98.1548 35.1895 97.3507 35.1895H94.1839V48.4684H92.3825ZM99.3848 41.7854L103.046 48.4684H100.955L97.3507 41.7854H99.3848ZM112.267 43.9065V37.3107H113.981V48.4684H112.267V46.5797H112.15C111.888 47.1463 111.482 47.6281 110.929 48.0252C110.377 48.4175 109.68 48.6136 108.838 48.6136C108.14 48.6136 107.521 48.4611 106.978 48.156C106.436 47.8461 106.01 47.3811 105.699 46.7613C105.39 46.1365 105.235 45.3496 105.235 44.4005V37.3107H106.95V44.2843C106.95 45.0978 107.177 45.7467 107.632 46.231C108.091 46.7153 108.678 46.9574 109.39 46.9574C109.816 46.9574 110.249 46.8485 110.69 46.6305C111.135 46.4126 111.509 46.0785 111.809 45.6281C112.113 45.1777 112.267 44.6039 112.267 43.9065ZM125.023 39.8096L123.484 40.2454C123.387 39.9887 123.244 39.7393 123.056 39.4973C122.872 39.2503 122.62 39.0468 122.3 38.887C121.981 38.7272 121.572 38.6473 121.072 38.6473C120.389 38.6473 119.82 38.8047 119.365 39.1195C118.915 39.4294 118.69 39.824 118.69 40.3035C118.69 40.7297 118.845 41.0662 119.154 41.3132C119.465 41.5602 119.949 41.766 120.608 41.9307L122.263 42.3374C123.262 42.5795 124.004 42.95 124.494 43.4489C124.982 43.9428 125.227 44.5796 125.227 45.3593C125.227 45.9986 125.043 46.5701 124.676 47.0737C124.313 47.5773 123.804 47.9743 123.149 48.2649C122.496 48.5555 121.735 48.7008 120.868 48.7008C119.73 48.7008 118.788 48.4538 118.043 47.9599C117.298 47.4659 116.825 46.7443 116.626 45.7952L118.254 45.3884C118.409 45.9889 118.701 46.4393 119.132 46.7395C119.568 47.0398 120.137 47.1899 120.84 47.1899C121.639 47.1899 122.273 47.0204 122.743 46.6814C123.217 46.3375 123.455 45.926 123.455 45.4465C123.455 45.059 123.319 44.7346 123.048 44.4731C122.777 44.2068 122.36 44.0083 121.799 43.8775L119.939 43.4416C118.917 43.1995 118.167 42.8241 117.687 42.3157C117.212 41.8024 116.975 41.1607 116.975 40.3907C116.975 39.7611 117.152 39.2042 117.506 38.7199C117.864 38.2357 118.351 37.8556 118.966 37.5795C119.586 37.3034 120.288 37.1654 121.072 37.1654C122.176 37.1654 123.043 37.4076 123.673 37.8919C124.307 38.3762 124.757 39.0154 125.023 39.8096ZM129.522 41.7563V48.4684H127.808V33.5914H129.522V39.0541H129.667C129.929 38.4778 130.321 38.0202 130.844 37.6812C131.372 37.3374 132.074 37.1654 132.951 37.1654C133.711 37.1654 134.377 37.318 134.948 37.623C135.52 37.9233 135.963 38.3857 136.278 39.0105C136.597 39.6304 136.757 40.4197 136.757 41.3785V48.4684H135.043V41.4949C135.043 40.6086 134.813 39.9234 134.352 39.4391C133.897 38.9499 133.266 38.7054 132.456 38.7054C131.895 38.7054 131.392 38.824 130.945 39.0613C130.506 39.2987 130.157 39.6449 129.9 40.1001C129.648 40.5553 129.522 41.1074 129.522 41.7563Z" fill="black"/>
<path d="M23.5801 72.7595V62.5317H24.8185V67.0863H30.272V62.5317H31.5106V72.7595H30.272V68.185H24.8185V72.7595H23.5801ZM37.0466 72.9193C36.3074 72.9193 35.6698 72.7562 35.1338 72.4299C34.6011 72.1003 34.1899 71.6409 33.9002 71.0516C33.614 70.4589 33.4708 69.7698 33.4708 68.984C33.4708 68.1983 33.614 67.5057 33.9002 66.9065C34.1899 66.3038 34.5928 65.8344 35.1088 65.4981C35.6282 65.1586 36.2341 64.9888 36.9267 64.9888C37.3262 64.9888 37.7207 65.0554 38.1103 65.1885C38.4998 65.3217 38.8543 65.5382 39.174 65.8377C39.4936 66.1341 39.7483 66.5269 39.9381 67.0163C40.1278 67.5057 40.2227 68.1084 40.2227 68.8242V69.3236H34.3097V68.3048H39.0241C39.0241 67.872 38.9376 67.4858 38.7645 67.1462C38.5947 66.8065 38.3516 66.5386 38.0353 66.3422C37.7224 66.1457 37.3528 66.0475 36.9267 66.0475C36.4572 66.0475 36.051 66.164 35.7081 66.397C35.3686 66.6268 35.1071 66.9265 34.924 67.2961C34.741 67.6655 34.6494 68.0617 34.6494 68.4845V69.1638C34.6494 69.7431 34.7493 70.2341 34.949 70.637C35.1521 71.0365 35.4334 71.3412 35.793 71.551C36.1525 71.7573 36.5705 71.8606 37.0466 71.8606C37.3561 71.8606 37.6358 71.8173 37.8855 71.7307C38.1385 71.6409 38.3566 71.5076 38.5397 71.3312C38.7229 71.1514 38.8643 70.9284 38.9643 70.662L40.1029 70.9817C39.983 71.3679 39.7816 71.7075 39.4986 72.0004C39.2156 72.2901 38.866 72.5165 38.4498 72.6796C38.0337 72.8394 37.5659 72.9193 37.0466 72.9193ZM45.6313 62.0522L42.3353 74.2977H41.2565L44.5525 62.0522H45.6313ZM47.1882 72.7595V62.5317H48.4267V67.0863H53.8802V62.5317H55.1188V72.7595H53.8802V68.185H48.4267V72.7595H47.1882ZM57.4385 72.7595V65.0886H58.6171V72.7595H57.4385ZM58.0378 63.8102C57.8081 63.8102 57.61 63.7319 57.4436 63.5754C57.2804 63.4189 57.1988 63.2309 57.1988 63.0111C57.1988 62.7913 57.2804 62.6033 57.4436 62.4468C57.61 62.2903 57.8081 62.2121 58.0378 62.2121C58.2676 62.2121 58.4639 62.2903 58.6271 62.4468C58.7935 62.6033 58.8768 62.7913 58.8768 63.0111C58.8768 63.2309 58.7935 63.4189 58.6271 63.5754C58.4639 63.7319 58.2676 63.8102 58.0378 63.8102ZM60.7765 72.7595V65.0886H61.9143V66.2872H62.014C62.1738 65.8777 62.4321 65.5598 62.7888 65.3333C63.1442 65.1036 63.5725 64.9888 64.0724 64.9888C64.5774 64.9888 64.9993 65.1036 65.3355 65.3333C65.6756 65.5598 65.9402 65.8777 66.1295 66.2872H66.21C66.4056 65.891 66.7009 65.5764 67.0934 65.3433C67.4859 65.1069 67.9577 64.9888 68.5062 64.9888C69.1927 64.9888 69.754 65.2034 70.1899 65.633C70.6259 66.0591 70.8445 66.7233 70.8445 67.6257V72.7595H69.6657V67.6257C69.6657 67.0597 69.511 66.6552 69.2004 66.4121C68.891 66.1691 68.5266 66.0475 68.1073 66.0475C67.5677 66.0475 67.1497 66.2106 66.8531 66.5369C66.5578 66.8598 66.4094 67.2693 66.4094 67.7654V72.7595H65.2102V67.5057C65.2102 67.0696 65.0696 66.7183 64.7858 66.452C64.5032 66.1824 64.1389 66.0475 63.6927 66.0475C63.3858 66.0475 63.0995 66.1291 62.8335 66.2922C62.5702 66.4553 62.3567 66.6818 62.1943 66.9715C62.0345 67.2577 61.9539 67.589 61.9539 67.9652V72.7595H60.7765Z" fill="black"/>
<path d="M184.709 45.9114C189.652 45.9114 193.659 41.9047 193.659 36.9621C193.659 32.0195 189.652 28.0127 184.709 28.0127C179.767 28.0127 175.76 32.0195 175.76 36.9621C175.76 41.9047 179.767 45.9114 184.709 45.9114Z" stroke="black" stroke-linecap="round" stroke-linejoin="round"/>
<path d="M184.709 40.7975V36.962" stroke="black" stroke-width="1.5" stroke-linecap="round" stroke-linejoin="round"/>
<path d="M184.709 33.3826H184.719" stroke="black" stroke-width="1.5" stroke-linecap="round" stroke-linejoin="round"/>
<path d="M23.58 156.5V146.272H29.7126V147.37H24.8185V150.826H29.2533V151.926H24.8185V156.5H23.58ZM34.2273 156.66C33.5348 156.66 32.9271 156.495 32.4045 156.165C31.885 155.835 31.4788 155.375 31.1859 154.782C30.8962 154.19 30.7514 153.497 30.7514 152.704C30.7514 151.905 30.8962 151.208 31.1859 150.613C31.4788 150.016 31.885 149.553 32.4045 149.224C32.9271 148.894 33.5348 148.729 34.2273 148.729C34.9197 148.729 35.5257 148.894 36.0452 149.224C36.5678 149.553 36.974 150.016 37.2637 150.613C37.5566 151.208 37.7031 151.905 37.7031 152.704C37.7031 153.497 37.5566 154.19 37.2637 154.782C36.974 155.375 36.5678 155.835 36.0452 156.165C35.5257 156.495 34.9197 156.66 34.2273 156.66ZM34.2273 155.601C34.7533 155.601 35.1862 155.466 35.5257 155.196C35.8653 154.928 36.1166 154.572 36.2798 154.132C36.4429 153.694 36.5246 153.217 36.5246 152.704C36.5246 152.192 36.4429 151.715 36.2798 151.271C36.1166 150.829 35.8653 150.471 35.5257 150.197C35.1862 149.925 34.7533 149.788 34.2273 149.788C33.7012 149.788 33.2685 149.925 32.9289 150.197C32.5892 150.471 32.3378 150.829 32.1747 151.271C32.0116 151.715 31.93 152.192 31.93 152.704C31.93 153.217 32.0116 153.694 32.1747 154.132C32.3378 154.572 32.5892 154.928 32.9289 155.196C33.2685 155.466 33.7012 155.601 34.2273 155.601ZM40.6808 146.272V156.5H39.5023V146.272H40.6808ZM44.0182 146.272V156.5H42.8395V146.272H44.0182ZM49.2932 156.66C48.6006 156.66 47.993 156.495 47.4703 156.165C46.9509 155.835 46.5447 155.375 46.2517 154.782C45.9621 154.19 45.8172 153.497 45.8172 152.704C45.8172 151.905 45.9621 151.208 46.2517 150.613C46.5447 150.016 46.9509 149.553 47.4703 149.224C47.993 148.894 48.6006 148.729 49.2932 148.729C49.9856 148.729 50.5916 148.894 51.1109 149.224C51.6337 149.553 52.0399 150.016 52.3296 150.613C52.6225 151.208 52.769 151.905 52.769 152.704C52.769 153.497 52.6225 154.19 52.3296 154.782C52.0399 155.375 51.6337 155.835 51.1109 156.165C50.5916 156.495 49.9856 156.66 49.2932 156.66ZM49.2932 155.601C49.8192 155.601 50.2521 155.466 50.5916 155.196C50.9312 154.928 51.1825 154.572 51.3457 154.132C51.5088 153.694 51.5904 153.217 51.5904 152.704C51.5904 152.192 51.5088 151.715 51.3457 151.271C51.1825 150.829 50.9312 150.471 50.5916 150.197C50.2521 149.925 49.8192 149.788 49.2932 149.788C48.7671 149.788 48.3343 149.925 47.9946 150.197C47.6551 150.471 47.4037 150.829 47.2406 151.271C47.0775 151.715 46.9959 152.192 46.9959 152.704C46.9959 153.217 47.0775 153.694 47.2406 154.132C47.4037 154.572 47.6551 154.928 47.9946 155.196C48.3343 155.466 48.7671 155.601 49.2932 155.601ZM56.0451 156.5L53.7079 148.829H54.9464L56.6044 154.703H56.6843L58.3225 148.829H59.5809L61.1996 154.682H61.2788L62.937 148.829H64.1759L61.8388 156.5H60.6796L59.0016 150.608H58.8818L57.2038 156.5H56.0451ZM70.5683 153.364V148.829H71.747V156.5H70.5683V155.201H70.4877C70.3087 155.591 70.0287 155.922 69.649 156.196C69.2693 156.466 68.7899 156.6 68.2107 156.6C67.7313 156.6 67.3056 156.495 66.9323 156.285C66.5589 156.072 66.2662 155.752 66.0527 155.326C65.8404 154.897 65.7331 154.356 65.7331 153.703V148.829H66.9118V153.623C66.9118 154.182 67.0691 154.628 67.381 154.962C67.6981 155.294 68.1008 155.461 68.5905 155.461C68.8832 155.461 69.1811 155.387 69.4841 155.237C69.7909 155.087 70.0466 154.857 70.2538 154.548C70.4634 154.237 70.5683 153.843 70.5683 153.364ZM73.9051 159.377V148.829H75.0442V150.048H75.1836C75.2705 149.915 75.3894 149.745 75.5428 149.539C75.7001 149.329 75.9225 149.142 76.2128 148.979C76.5055 148.813 76.9019 148.729 77.4005 148.729C78.0474 148.729 78.6163 148.891 79.1085 149.214C79.602 149.536 79.9868 149.994 80.263 150.587C80.5391 151.18 80.6772 151.878 80.6772 152.685C80.6772 153.497 80.5391 154.201 80.263 154.797C79.9868 155.39 79.6033 155.849 79.1136 156.175C78.624 156.499 78.0602 156.66 77.4209 156.66C76.9287 156.66 76.5337 156.578 76.237 156.416C75.9404 156.248 75.7129 156.06 75.5531 155.851C75.3933 155.638 75.2705 155.461 75.1836 155.321H75.0839V159.377H73.9051ZM75.0634 152.665C75.0634 153.244 75.1491 153.755 75.3178 154.198C75.4879 154.637 75.7359 154.981 76.0632 155.232C76.3892 155.479 76.7881 155.601 77.2611 155.601C77.7533 155.601 78.165 155.471 78.4948 155.211C78.8272 154.948 79.0778 154.595 79.244 154.153C79.4141 153.707 79.4985 153.211 79.4985 152.665C79.4985 152.125 79.4154 151.639 79.2491 151.206C79.0855 150.77 78.8375 150.426 78.5051 150.173C78.1752 149.916 77.761 149.788 77.2611 149.788C76.7817 149.788 76.379 149.91 76.0529 150.152C75.7269 150.393 75.4802 150.729 75.314 151.161C75.1465 151.591 75.0634 152.092 75.0634 152.665ZM26.3167 170.723C25.6775 170.723 25.1132 170.562 24.6237 170.239C24.1342 169.913 23.7514 169.454 23.475 168.86C23.1988 168.265 23.0605 167.56 23.0605 166.748C23.0605 165.942 23.1988 165.244 23.475 164.65C23.7514 164.057 24.1359 163.599 24.6287 163.277C25.1215 162.954 25.6908 162.793 26.3367 162.793C26.836 162.793 27.2306 162.876 27.5203 163.042C27.8132 163.206 28.0363 163.392 28.1894 163.602C28.3459 163.808 28.4675 163.978 28.554 164.111H28.6539V160.336H29.8325V170.563H28.6939V169.385H28.554C28.4675 169.524 28.3442 169.702 28.1844 169.914C28.0246 170.124 27.7966 170.312 27.5003 170.479C27.204 170.641 26.8094 170.723 26.3167 170.723ZM26.4765 169.665C26.9493 169.665 27.3488 169.542 27.6751 169.295C28.0014 169.045 28.2494 168.701 28.4192 168.261C28.589 167.818 28.6738 167.307 28.6738 166.728C28.6738 166.155 28.5906 165.654 28.4242 165.224C28.2577 164.792 28.0113 164.456 27.6851 164.216C27.3588 163.973 26.9559 163.851 26.4765 163.851C25.9771 163.851 25.5609 163.979 25.228 164.236C24.8984 164.489 24.6503 164.833 24.4839 165.269C24.3207 165.703 24.2392 166.188 24.2392 166.728C24.2392 167.274 24.3224 167.77 24.4889 168.216C24.6587 168.658 24.9083 169.011 25.2379 169.275C25.5708 169.534 25.9838 169.665 26.4765 169.665ZM35.2711 170.723C34.5785 170.723 33.971 170.558 33.4482 170.228C32.9289 169.899 32.5226 169.438 32.2297 168.845C31.94 168.253 31.7951 167.56 31.7951 166.768C31.7951 165.969 31.94 165.272 32.2297 164.676C32.5226 164.079 32.9289 163.616 33.4482 163.288C33.971 162.958 34.5785 162.793 35.2711 162.793C35.9635 162.793 36.5695 162.958 37.0889 163.288C37.6116 163.616 38.0177 164.079 38.3075 164.676C38.6004 165.272 38.7469 165.969 38.7469 166.768C38.7469 167.56 38.6004 168.253 38.3075 168.845C38.0177 169.438 37.6116 169.899 37.0889 170.228C36.5695 170.558 35.9635 170.723 35.2711 170.723ZM35.2711 169.665C35.797 169.665 36.2299 169.529 36.5695 169.259C36.9091 168.991 37.1604 168.635 37.3237 168.196C37.4868 167.757 37.5684 167.28 37.5684 166.768C37.5684 166.255 37.4868 165.778 37.3237 165.334C37.1604 164.892 36.9091 164.534 36.5695 164.26C36.2299 163.988 35.797 163.851 35.2711 163.851C34.745 163.851 34.3122 163.988 33.9726 164.26C33.6329 164.534 33.3816 164.892 33.2185 165.334C33.0553 165.778 32.9738 166.255 32.9738 166.768C32.9738 167.28 33.0553 167.757 33.2185 168.196C33.3816 168.635 33.6329 168.991 33.9726 169.259C34.3122 169.529 34.745 169.665 35.2711 169.665ZM41.7246 165.949V170.563H40.5461V162.892H41.6847V164.09H41.7845C41.9643 163.702 42.2374 163.389 42.6035 163.152C42.9698 162.913 43.4426 162.793 44.0219 162.793C44.5413 162.793 44.9957 162.899 45.3853 163.112C45.7748 163.322 46.0778 163.642 46.2943 164.071C46.5106 164.497 46.6189 165.036 46.6189 165.69V170.563H45.4402V165.769C45.4402 165.167 45.2837 164.696 44.9708 164.36C44.6578 164.021 44.2284 163.851 43.6823 163.851C43.3061 163.851 42.9698 163.933 42.6735 164.096C42.3806 164.259 42.1492 164.497 41.9794 164.81C41.8095 165.123 41.7246 165.503 41.7246 165.949ZM51.9887 170.723C51.2495 170.723 50.6119 170.56 50.076 170.234C49.5433 169.904 49.1321 169.445 48.8424 168.855C48.5561 168.263 48.413 167.573 48.413 166.788C48.413 166.002 48.5561 165.31 48.8424 164.71C49.1321 164.108 49.5349 163.638 50.0509 163.302C50.5704 162.963 51.1763 162.793 51.8688 162.793C52.2683 162.793 52.6629 162.859 53.0524 162.992C53.442 163.125 53.7965 163.342 54.1161 163.642C54.4357 163.938 54.6904 164.331 54.8803 164.82C55.07 165.31 55.1649 165.912 55.1649 166.628V167.127H49.2519V166.109H53.9663C53.9663 165.676 53.8797 165.29 53.7066 164.95C53.5369 164.611 53.2938 164.342 52.9775 164.145C52.6645 163.95 52.2949 163.851 51.8688 163.851C51.3994 163.851 50.9932 163.968 50.6503 164.2C50.3107 164.43 50.0493 164.73 49.8662 165.1C49.6831 165.47 49.5916 165.866 49.5916 166.288V166.968C49.5916 167.547 49.6914 168.038 49.8911 168.441C50.0943 168.84 50.3755 169.146 50.7352 169.355C51.0947 169.561 51.5126 169.665 51.9887 169.665C52.2983 169.665 52.578 169.621 52.8277 169.534C53.0807 169.445 53.2988 169.312 53.4819 169.135C53.6651 168.955 53.8065 168.733 53.9065 168.465L55.0451 168.785C54.9252 169.171 54.7238 169.511 54.4407 169.804C54.1578 170.094 53.8081 170.32 53.392 170.483C52.9759 170.644 52.5081 170.723 51.9887 170.723ZM64.2487 162.892V163.891H60.2738V162.892H64.2487ZM61.4322 161.054H62.611V168.366C62.611 168.699 62.6596 168.949 62.7555 169.115C62.8552 169.278 62.9818 169.388 63.1352 169.445C63.2924 169.498 63.4573 169.524 63.6299 169.524C63.7591 169.524 63.8665 169.518 63.9496 169.505C64.0327 169.488 64.0991 169.474 64.149 169.465L64.3894 170.524C64.3088 170.553 64.1976 170.584 64.0544 170.613C63.9112 170.646 63.7297 170.663 63.5098 170.663C63.1774 170.663 62.8513 170.591 62.5317 170.448C62.2147 170.305 61.9513 170.088 61.7416 169.794C61.5358 169.501 61.4322 169.131 61.4322 168.685V161.054ZM69.0558 170.723C68.3629 170.723 67.7556 170.558 67.2327 170.228C66.7136 169.899 66.3071 169.438 66.0143 168.845C65.7254 168.253 65.5796 167.56 65.5796 166.768C65.5796 165.969 65.7254 165.272 66.0143 164.676C66.3071 164.079 66.7136 163.616 67.2327 163.288C67.7556 162.958 68.3629 162.793 69.0558 162.793C69.7488 162.793 70.3548 162.958 70.8738 163.288C71.3967 163.616 71.8033 164.079 72.0922 164.676C72.385 165.272 72.532 165.969 72.532 166.768C72.532 167.56 72.385 168.253 72.0922 168.845C71.8033 169.438 71.3967 169.899 70.8738 170.228C70.3548 170.558 69.7488 170.723 69.0558 170.723ZM69.0558 169.665C69.5826 169.665 70.0147 169.529 70.3548 169.259C70.6936 168.991 70.9454 168.635 71.1091 168.196C71.2714 167.757 71.3532 167.28 71.3532 166.768C71.3532 166.255 71.2714 165.778 71.1091 165.334C70.9454 164.892 70.6936 164.534 70.3548 164.26C70.0147 163.988 69.5826 163.851 69.0558 163.851C68.5304 163.851 68.097 163.988 67.7569 164.26C67.4181 164.534 67.1662 164.892 67.0039 165.334C66.8402 165.778 66.7584 166.255 66.7584 166.768C66.7584 167.28 66.8402 167.757 67.0039 168.196C67.1662 168.635 67.4181 168.991 67.7569 169.259C68.097 169.529 68.5304 169.665 69.0558 169.665ZM77.2279 170.723C76.5886 170.723 76.0235 170.562 75.5339 170.239C75.0455 169.913 74.662 169.454 74.3858 168.86C74.1097 168.265 73.9716 167.56 73.9716 166.748C73.9716 165.942 74.1097 165.244 74.3858 164.65C74.662 164.057 75.0468 163.599 75.539 163.277C76.0325 162.954 76.6014 162.793 77.247 162.793C77.7469 162.793 78.142 162.876 78.4309 163.042C78.7237 163.206 78.9474 163.392 79.1008 163.602C79.2568 163.808 79.3783 163.978 79.4652 164.111H79.5649V160.336H80.7437V170.563H79.6046V169.385H79.4652C79.3783 169.524 79.2555 169.702 79.0957 169.914C78.9359 170.124 78.7071 170.312 78.4105 170.479C78.1151 170.641 77.7201 170.723 77.2279 170.723ZM77.3877 169.665C77.8594 169.665 78.2596 169.542 78.5856 169.295C78.9116 169.045 79.1596 168.701 79.3297 168.261C79.4997 167.818 79.5841 167.307 79.5841 166.728C79.5841 166.155 79.501 165.654 79.3348 165.224C79.1686 164.792 78.9219 164.456 78.5958 164.216C78.2698 163.973 77.8671 163.851 77.3877 163.851C76.8878 163.851 76.4723 163.979 76.1386 164.236C75.8088 164.489 75.5607 164.833 75.3945 165.269C75.2309 165.703 75.1503 166.188 75.1503 166.728C75.1503 167.274 75.2334 167.77 75.3996 168.216C75.5697 168.658 75.819 169.011 76.1488 169.275C76.4812 169.534 76.8942 169.665 77.3877 169.665ZM85.3232 170.744C84.8361 170.744 84.395 170.652 84 170.469C83.6036 170.282 83.2891 170.014 83.0552 169.665C82.8225 169.312 82.7062 168.885 82.7062 168.386C82.7062 167.946 82.7931 167.59 82.9657 167.317C83.1383 167.041 83.3697 166.825 83.6599 166.668C83.9488 166.512 84.2685 166.396 84.6188 166.319C84.9716 166.238 85.3258 166.176 85.6825 166.128C86.1491 166.068 86.5263 166.023 86.8165 165.994C87.1092 165.961 87.3215 165.906 87.4557 165.829C87.5912 165.752 87.6603 165.619 87.6603 165.429V165.389C87.6603 164.897 87.5248 164.514 87.255 164.241C86.9891 163.968 86.5851 163.831 86.0417 163.831C85.4792 163.831 85.0381 163.955 84.7185 164.2C84.3989 164.447 84.1739 164.71 84.0447 164.99L82.9261 164.59C83.1255 164.125 83.3914 163.762 83.7251 163.502C84.0614 163.239 84.427 163.056 84.8233 162.953C85.2235 162.846 85.616 162.793 86.0021 162.793C86.2488 162.793 86.5314 162.822 86.851 162.882C87.1745 162.939 87.4851 163.057 87.7843 163.238C88.0873 163.417 88.3391 163.688 88.5386 164.051C88.7393 164.414 88.839 164.9 88.839 165.51V170.563H87.6603V169.524H87.6002C87.5196 169.691 87.3867 169.869 87.2 170.058C87.0146 170.249 86.7666 170.41 86.4559 170.543C86.1466 170.677 85.7694 170.744 85.3232 170.744ZM85.5022 169.684C85.9688 169.684 86.3613 169.593 86.681 169.41C87.0044 169.226 87.2473 168.991 87.411 168.701C87.5772 168.41 87.6603 168.106 87.6603 167.787V166.707C87.6104 166.768 87.5005 166.823 87.3304 166.872C87.1642 166.92 86.9712 166.961 86.7513 166.998C86.5352 167.031 86.323 167.06 86.1172 167.087C85.9139 167.11 85.7489 167.131 85.6224 167.147C85.3155 167.187 85.0304 167.252 84.7632 167.342C84.4999 167.429 84.2876 167.56 84.124 167.737C83.9642 167.909 83.8849 168.146 83.8849 168.446C83.8849 168.855 84.0358 169.165 84.3388 169.374C84.6456 169.581 85.033 169.684 85.5022 169.684ZM91.474 173.44C91.2745 173.44 91.0968 173.423 90.9396 173.39C90.7836 173.361 90.6749 173.33 90.6148 173.301L90.9153 172.261C91.2017 172.334 91.4548 172.361 91.6734 172.342C91.8933 172.321 92.0889 172.223 92.259 172.046C92.4316 171.874 92.5901 171.593 92.7333 171.203L92.9519 170.603L90.1162 162.892H91.3947L93.5119 169.005H93.5911L95.7096 162.892H96.9881L93.7318 171.682C93.5847 172.078 93.4032 172.406 93.1871 172.666C92.9711 172.929 92.7192 173.124 92.4328 173.251C92.1503 173.377 91.8307 173.44 91.474 173.44Z" fill="black"/>
<path d="M172.564 178.873C184.214 178.873 193.659 169.429 193.659 157.779C193.659 146.128 184.214 136.684 172.564 136.684C160.913 136.684 151.469 146.128 151.469 157.779C151.469 169.429 160.913 178.873 172.564 178.873Z" fill="black"/>
<path d="M177.2 149.494C177.439 149.254 177.723 149.064 178.036 148.934C178.349 148.805 178.684 148.738 179.023 148.738C179.362 148.738 179.697 148.805 180.01 148.934C180.323 149.064 180.607 149.254 180.847 149.494C181.087 149.733 181.277 150.017 181.406 150.33C181.535 150.643 181.603 150.978 181.603 151.317C181.603 151.656 181.535 151.991 181.406 152.304C181.277 152.617 181.087 152.901 180.847 153.141L168.537 165.452L163.521 166.82L164.889 161.804L177.2 149.494Z" fill="black" stroke="white" stroke-width="1.5" stroke-linecap="round" stroke-linejoin="round"/>
</g>
<defs>
<filter id="filter0_d_449_614" x="0.3" y="0.3" width="215.4" height="210.286" filterUnits="userSpaceOnUse" color-interpolation-filters="sRGB">
<feFlood flood-opacity="0" result="BackgroundImageFix"/>
<feColorMatrix in="SourceAlpha" type="matrix" values="0 0 0 0 0 0 0 0 0 0 0 0 0 0 0 0 0 0 127 0" result="hardAlpha"/>
<feOffset dy="2"/>
<feGaussianBlur stdDeviation="3.35"/>
<feComposite in2="hardAlpha" operator="out"/>
<feColorMatrix type="matrix" values="0 0 0 0 0 0 0 0 0 0.458246 0 0 0 0 0.365506 0 0 0 0.1 0"/>
<feBlend mode="normal" in2="BackgroundImageFix" result="effect1_dropShadow_449_614"/>
<feBlend mode="normal" in="SourceGraphic" in2="effect1_dropShadow_449_614" result="shape"/>
</filter>
</defs>
</svg>
