<svg width="225" height="85" viewBox="0 0 225 85" fill="none" xmlns="http://www.w3.org/2000/svg">
<path d="M7.79688 5.77666H6.77697C6.71666 5.48399 6.6111 5.22689 6.46031 5.00534C6.31226 4.78379 6.1313 4.5978 5.91746 4.44736C5.70634 4.29419 5.47193 4.17931 5.21421 4.10273C4.95649 4.02615 4.68781 3.98785 4.40816 3.98785C3.8982 3.98785 3.43623 4.1164 3.02223 4.37351C2.61098 4.63062 2.28335 5.00944 2.03934 5.50998C1.79807 6.01052 1.67744 6.62456 1.67744 7.35212C1.67744 8.07968 1.79807 8.69373 2.03934 9.19424C2.28335 9.69483 2.61098 10.0736 3.02223 10.3308C3.43623 10.5878 3.8982 10.7164 4.40816 10.7164C4.68781 10.7164 4.95649 10.6781 5.21421 10.6015C5.47193 10.5249 5.70634 10.4114 5.91746 10.2609C6.1313 10.1078 6.31226 9.92045 6.46031 9.69887C6.6111 9.47465 6.71666 9.21751 6.77697 8.9276H7.79688C7.72011 9.35697 7.58029 9.74129 7.3774 10.0805C7.17452 10.4196 6.92229 10.7082 6.6207 10.9461C6.31911 11.1813 5.98051 11.3605 5.6049 11.4836C5.23203 11.6067 4.83312 11.6682 4.40816 11.6682C3.68983 11.6682 3.05102 11.4932 2.49171 11.143C1.93242 10.793 1.49238 10.2952 1.17159 9.64969C0.850819 9.00418 0.69043 8.23832 0.69043 7.35212C0.69043 6.46593 0.850819 5.70008 1.17159 5.05457C1.49238 4.40907 1.93242 3.91126 2.49171 3.56116C3.05102 3.21106 3.68983 3.03601 4.40816 3.03601C4.83312 3.03601 5.23203 3.09755 5.6049 3.22063C5.98051 3.34372 6.31911 3.52424 6.6207 3.7622C6.92229 3.99743 7.17452 4.28462 7.3774 4.62378C7.58029 4.9602 7.72011 5.3445 7.79688 5.77666ZM10.2839 7.7624V11.5534H9.31337V3.15088H10.2839V6.23617H10.3662C10.5142 5.91069 10.7363 5.6522 11.0324 5.46075C11.3313 5.26655 11.7288 5.16944 12.225 5.16944C12.6555 5.16944 13.0325 5.25561 13.356 5.42792C13.6795 5.59751 13.9304 5.85871 14.1086 6.21155C14.2895 6.56165 14.38 7.00749 14.38 7.54906V11.5534H13.4094V7.6147C13.4094 7.11416 13.2792 6.72713 13.0188 6.45361C12.7611 6.17736 12.4032 6.03923 11.9454 6.03923C11.6274 6.03923 11.3423 6.10624 11.09 6.24027C10.8405 6.37429 10.6431 6.56986 10.4978 6.82697C10.3552 7.08407 10.2839 7.39588 10.2839 7.7624ZM18.0145 11.7011C17.6142 11.7011 17.2509 11.6258 16.9247 11.4754C16.5984 11.3222 16.3393 11.102 16.1474 10.8148C15.9554 10.5249 15.8595 10.1748 15.8595 9.76456C15.8595 9.40352 15.9308 9.1108 16.0734 8.88659C16.2159 8.65956 16.4065 8.48172 16.645 8.35323C16.8835 8.22464 17.1467 8.12891 17.4346 8.06601C17.7252 8.00036 18.0172 7.94839 18.3106 7.9101C18.6944 7.86087 19.0056 7.82394 19.2441 7.79932C19.4854 7.77197 19.6608 7.72684 19.7705 7.66393C19.8829 7.60102 19.9392 7.49161 19.9392 7.33571V7.30289C19.9392 6.89808 19.8281 6.58354 19.606 6.35925C19.3867 6.13497 19.0536 6.02283 18.6067 6.02283C18.1433 6.02283 17.7801 6.12403 17.5169 6.32643C17.2536 6.52883 17.0686 6.74492 16.9616 6.97466L16.0405 6.64645C16.205 6.26352 16.4243 5.96538 16.6984 5.75204C16.9754 5.53596 17.277 5.38553 17.6032 5.30074C17.9322 5.21321 18.2557 5.16944 18.5738 5.16944C18.7767 5.16944 19.0097 5.19406 19.2729 5.2433C19.5389 5.2898 19.7952 5.3869 20.0419 5.5346C20.2915 5.68229 20.4984 5.90521 20.663 6.20335C20.8274 6.50148 20.9097 6.90082 20.9097 7.40135V11.5534H19.9392V10.7H19.8898C19.824 10.8367 19.7143 10.983 19.5608 11.139C19.4073 11.2949 19.2029 11.4275 18.948 11.5369C18.6931 11.6464 18.3819 11.7011 18.0145 11.7011ZM18.1625 10.8313C18.5463 10.8313 18.8698 10.7561 19.133 10.6056C19.399 10.4552 19.5992 10.2609 19.7335 10.023C19.8706 9.78503 19.9392 9.53481 19.9392 9.27222V8.38599C19.898 8.43526 19.8075 8.4804 19.6677 8.52142C19.5306 8.55971 19.3716 8.59387 19.1906 8.62399C19.0124 8.65131 18.8383 8.67598 18.6683 8.69785C18.5011 8.717 18.3654 8.73342 18.2612 8.74704C18.009 8.77988 17.7732 8.83319 17.5538 8.90705C17.3373 8.97819 17.1618 9.08621 17.0275 9.23121C16.8959 9.3734 16.83 9.56758 16.83 9.81375C16.83 10.1502 16.9548 10.4046 17.2043 10.5769C17.4565 10.7465 17.7759 10.8313 18.1625 10.8313ZM23.6517 7.7624V11.5534H22.6812V5.25151H23.6188V6.23617H23.701C23.8491 5.91615 24.0739 5.65904 24.3755 5.46485C24.6771 5.26791 25.0664 5.16944 25.5435 5.16944C25.9711 5.16944 26.3455 5.25698 26.6662 5.43203C26.9869 5.60434 27.2364 5.86692 27.4147 6.21976C27.5929 6.56986 27.682 7.01296 27.682 7.54906V11.5534H26.7114V7.6147C26.7114 7.11963 26.5825 6.73397 26.3249 6.45771C26.0671 6.17873 25.7135 6.03923 25.2638 6.03923C24.954 6.03923 24.6771 6.10624 24.4331 6.24027C24.1918 6.37429 24.0012 6.56986 23.8614 6.82697C23.7216 7.08407 23.6517 7.39588 23.6517 7.7624ZM32.0053 14.0478C31.5364 14.0478 31.1334 13.9877 30.7962 13.8673C30.459 13.7497 30.178 13.5938 29.9531 13.3996C29.731 13.2081 29.5542 13.003 29.4226 12.7842L30.1958 12.2426C30.2835 12.3575 30.3945 12.4888 30.5289 12.6365C30.6632 12.7869 30.8469 12.9168 31.08 13.0262C31.3157 13.1384 31.6242 13.1944 32.0053 13.1944C32.5152 13.1944 32.9361 13.0714 33.2678 12.8252C33.5996 12.5791 33.7654 12.1934 33.7654 11.6682V10.3882H33.6832C33.6119 10.5031 33.5105 10.6453 33.3789 10.8148C33.25 10.9817 33.0636 11.1308 32.8196 11.262C32.5783 11.3906 32.252 11.4549 31.8407 11.4549C31.3309 11.4549 30.873 11.3345 30.4672 11.0939C30.0642 10.8531 29.7448 10.5031 29.509 10.0436C29.2759 9.584 29.1594 9.02605 29.1594 8.36957C29.1594 7.72411 29.2732 7.16203 29.5007 6.68337C29.7283 6.20198 30.045 5.82999 30.4507 5.56742C30.8565 5.3021 31.3253 5.16944 31.8572 5.16944C32.2685 5.16944 32.5947 5.23782 32.836 5.37458C33.08 5.50861 33.2664 5.66178 33.3953 5.8341C33.5269 6.00367 33.6283 6.14317 33.6996 6.25258H33.7983V5.25151H34.736V11.7339C34.736 12.2754 34.6126 12.7158 34.3659 13.055C34.1219 13.3969 33.7929 13.6472 33.3789 13.8058C32.9676 13.9672 32.5098 14.0478 32.0053 14.0478ZM31.9724 10.5851C32.3617 10.5851 32.6907 10.4962 32.9594 10.3185C33.2281 10.1406 33.4323 9.88488 33.5722 9.55124C33.712 9.21751 33.7819 8.81817 33.7819 8.35323C33.7819 7.89916 33.7134 7.49845 33.5763 7.15108C33.4392 6.80371 33.2363 6.53157 32.9677 6.33464C32.6989 6.1377 32.3672 6.03923 31.9724 6.03923C31.5612 6.03923 31.2184 6.14317 30.9442 6.35104C30.6728 6.55892 30.4686 6.8379 30.3315 7.18801C30.1972 7.53811 30.13 7.92651 30.13 8.35323C30.13 8.79086 30.1985 9.17781 30.3356 9.51427C30.4754 9.84799 30.6811 10.1106 30.9525 10.302C31.2266 10.4908 31.5666 10.5851 31.9724 10.5851ZM39.1611 11.6847C38.5524 11.6847 38.0274 11.5506 37.586 11.2826C37.1474 11.0118 36.8087 10.6344 36.5702 10.1502C36.3344 9.66339 36.2165 9.09719 36.2165 8.45168C36.2165 7.80616 36.3344 7.23725 36.5702 6.74492C36.8087 6.24984 37.1405 5.86418 37.5654 5.58793C37.9931 5.30894 38.4921 5.16944 39.0624 5.16944C39.3914 5.16944 39.7162 5.22415 40.037 5.33356C40.3578 5.44296 40.6498 5.62075 40.913 5.86692C41.1763 6.11035 41.386 6.4331 41.5422 6.83517C41.6985 7.23725 41.7766 7.73231 41.7766 8.32039V8.73061H36.9074V7.89369H40.7896C40.7896 7.53811 40.7184 7.22083 40.5758 6.94184C40.436 6.66285 40.2358 6.44267 39.9753 6.2813C39.7177 6.11993 39.4133 6.03923 39.0624 6.03923C38.6758 6.03923 38.3413 6.13497 38.0589 6.32643C37.7793 6.51516 37.564 6.76132 37.4132 7.06493C37.2625 7.36854 37.1871 7.69402 37.1871 8.04139V8.5994C37.1871 9.07532 37.2693 9.4787 37.4338 9.8097C37.6011 10.1379 37.8328 10.3882 38.1288 10.5605C38.425 10.7301 38.769 10.8148 39.1611 10.8148C39.416 10.8148 39.6463 10.7793 39.852 10.7082C40.0604 10.6344 40.2399 10.5249 40.3907 10.3799C40.5415 10.2322 40.658 10.049 40.7403 9.83017L41.678 10.0928C41.5793 10.4101 41.4133 10.6891 41.1803 10.9297C40.9473 11.1677 40.6594 11.3536 40.3167 11.4878C39.974 11.619 39.5888 11.6847 39.1611 11.6847ZM53.3206 3.15088V11.5534H52.3335L47.7439 4.9561H47.6617V11.5534H46.6418V3.15088H47.6288L52.2348 9.76456H52.3171V3.15088H53.3206ZM57.8782 11.6847C57.2696 11.6847 56.7445 11.5506 56.3031 11.2826C55.8645 11.0118 55.5259 10.6344 55.2873 10.1502C55.0516 9.66339 54.9337 9.09719 54.9337 8.45168C54.9337 7.80616 55.0516 7.23725 55.2873 6.74492C55.5259 6.24984 55.8576 5.86418 56.2826 5.58793C56.7103 5.30894 57.2093 5.16944 57.7795 5.16944C58.1085 5.16944 58.4334 5.22415 58.7542 5.33356C59.075 5.44296 59.3669 5.62075 59.6301 5.86692C59.8934 6.11035 60.1031 6.4331 60.2594 6.83517C60.4157 7.23725 60.4938 7.73231 60.4938 8.32039V8.73061H55.6246V7.89369H59.5068C59.5068 7.53811 59.4355 7.22083 59.293 6.94184C59.1531 6.66285 58.953 6.44267 58.6925 6.2813C58.4348 6.11993 58.1305 6.03923 57.7795 6.03923C57.393 6.03923 57.0584 6.13497 56.776 6.32643C56.4964 6.51516 56.2812 6.76132 56.1304 7.06493C55.9796 7.36854 55.9043 7.69402 55.9043 8.04139V8.5994C55.9043 9.07532 55.9865 9.4787 56.151 9.8097C56.3182 10.1379 56.5499 10.3882 56.846 10.5605C57.1421 10.7301 57.4862 10.8148 57.8782 10.8148C58.1332 10.8148 58.3635 10.7793 58.5692 10.7082C58.7775 10.6344 58.9571 10.5249 59.1079 10.3799C59.2587 10.2322 59.3752 10.049 59.4574 9.83017L60.3951 10.0928C60.2964 10.4101 60.1305 10.6891 59.8975 10.9297C59.6645 11.1677 59.3765 11.3536 59.0338 11.4878C58.6911 11.619 58.306 11.6847 57.8782 11.6847ZM63.4014 11.5534L61.4767 5.25151H62.4966L63.862 10.0763H63.9277L65.2767 5.25151H66.3131L67.6455 10.0599H67.7113L69.0767 5.25151H70.0965L68.1719 11.5534H67.2178L65.836 6.71209H65.7372L64.3555 11.5534H63.4014ZM74.7684 11.5534V3.15088H77.6143C78.275 3.15088 78.8151 3.26987 79.2346 3.50783C79.6568 3.74305 79.9694 4.0617 80.1722 4.46377C80.3752 4.86585 80.4766 5.31441 80.4766 5.80948C80.4766 6.30455 80.3752 6.75449 80.1722 7.1593C79.9721 7.5641 79.6623 7.88684 79.2428 8.12754C78.8233 8.36553 78.286 8.48445 77.6307 8.48445H75.5909V7.58188H77.5978C78.0502 7.58188 78.4134 7.50392 78.6877 7.34802C78.9618 7.19211 79.1606 6.9815 79.284 6.71619C79.41 6.44814 79.4732 6.1459 79.4732 5.80948C79.4732 5.47305 79.41 5.17218 79.284 4.90687C79.1606 4.64156 78.9605 4.43368 78.6835 4.28325C78.4066 4.13008 78.0392 4.05349 77.5813 4.05349H75.7883V11.5534H74.7684ZM83.8468 11.7011C83.4464 11.7011 83.0833 11.6258 82.7573 11.4754C82.4308 11.3222 82.1716 11.102 81.9797 10.8148C81.7878 10.5249 81.6918 10.1748 81.6918 9.76456C81.6918 9.40352 81.7631 9.1108 81.9056 8.88659C82.0483 8.65956 82.2388 8.48172 82.4773 8.35323C82.7159 8.22464 82.979 8.12891 83.2669 8.06601C83.5573 8.00036 83.8493 7.94839 84.1429 7.9101C84.5267 7.86087 84.8378 7.82394 85.0768 7.79932C85.3175 7.77197 85.4929 7.72684 85.6029 7.66393C85.7154 7.60102 85.7717 7.49161 85.7717 7.33571V7.30289C85.7717 6.89808 85.6608 6.58354 85.4383 6.35925C85.2191 6.13497 84.8857 6.02283 84.439 6.02283C83.9758 6.02283 83.6127 6.12403 83.3488 6.32643C83.0857 6.52883 82.9013 6.74492 82.7937 6.97466L81.8728 6.64645C82.0373 6.26352 82.2566 5.96538 82.5308 5.75204C82.8078 5.53596 83.1089 5.38553 83.4356 5.30074C83.7649 5.21321 84.0883 5.16944 84.406 5.16944C84.6086 5.16944 84.8419 5.19406 85.1049 5.2433C85.3713 5.2898 85.6277 5.3869 85.8743 5.5346C86.1241 5.68229 86.3309 5.90521 86.4955 6.20335C86.6601 6.50148 86.742 6.90082 86.742 7.40135V11.5534H85.7717V10.7H85.722C85.6567 10.8367 85.5467 10.983 85.3928 11.139C85.2398 11.2949 85.0355 11.4275 84.7807 11.5369C84.5251 11.6464 84.2141 11.7011 83.8468 11.7011ZM83.9948 10.8313C84.3787 10.8313 84.7021 10.7561 84.9651 10.6056C85.2315 10.4552 85.4317 10.2609 85.5657 10.023C85.703 9.78503 85.7717 9.53481 85.7717 9.27222V8.38599C85.7303 8.43526 85.6402 8.4804 85.5004 8.52142C85.363 8.55971 85.2042 8.59387 85.023 8.62399C84.8444 8.65131 84.6707 8.67598 84.5011 8.69785C84.3332 8.717 84.1975 8.73342 84.0933 8.74704C83.841 8.77988 83.6052 8.83319 83.386 8.90705C83.1693 8.97819 82.9939 9.08621 82.8599 9.23121C82.7284 9.3734 82.6624 9.56758 82.6624 9.81375C82.6624 10.1502 82.7871 10.4046 83.0369 10.5769C83.2892 10.7465 83.6085 10.8313 83.9948 10.8313ZM92.9882 6.66285L92.1163 6.90902C92.0609 6.76406 91.9807 6.62319 91.8731 6.48644C91.7689 6.34694 91.6266 6.23207 91.4455 6.1418C91.2651 6.05155 91.0327 6.00641 90.7506 6.00641C90.3643 6.00641 90.0417 6.09531 89.7845 6.27309C89.5297 6.44814 89.4015 6.67106 89.4015 6.94184C89.4015 7.18254 89.4891 7.37264 89.6653 7.51213C89.8407 7.65163 90.1145 7.76787 90.4876 7.86087L91.4248 8.09062C91.9898 8.22738 92.4108 8.43658 92.688 8.71832C92.9642 8.99733 93.1032 9.35697 93.1032 9.79741C93.1032 10.1584 92.999 10.4812 92.7905 10.7657C92.5845 11.0501 92.2967 11.2743 91.9269 11.4385C91.5572 11.6026 91.1262 11.6847 90.6357 11.6847C89.9913 11.6847 89.4577 11.5452 89.0358 11.2662C88.614 10.9872 88.3459 10.5797 88.2334 10.0436L89.1549 9.81375C89.2426 10.1529 89.4089 10.4073 89.6529 10.5769C89.8994 10.7465 90.2212 10.8313 90.6191 10.8313C91.0716 10.8313 91.4306 10.7355 91.697 10.5441C91.965 10.3499 92.0998 10.1174 92.0998 9.84659C92.0998 9.62782 92.0229 9.44453 91.869 9.29681C91.716 9.14637 91.4802 9.03422 91.1618 8.96044L90.1095 8.71427C89.5305 8.57745 89.1053 8.36553 88.834 8.07831C88.566 7.78839 88.4311 7.42597 88.4311 6.99108C88.4311 6.6355 88.5312 6.32096 88.7314 6.04744C88.9341 5.77393 89.2095 5.55921 89.5578 5.4033C89.9094 5.2474 90.3064 5.16944 90.7506 5.16944C91.376 5.16944 91.8665 5.3062 92.2231 5.57972C92.5821 5.85324 92.8368 6.21428 92.9882 6.66285ZM99.0384 6.66285L98.1665 6.90902C98.1119 6.76406 98.0309 6.62319 97.9242 6.48644C97.8199 6.34694 97.6768 6.23207 97.4965 6.1418C97.3153 6.05155 97.0837 6.00641 96.8016 6.00641C96.4145 6.00641 96.0927 6.09531 95.8346 6.27309C95.5799 6.44814 95.4525 6.67106 95.4525 6.94184C95.4525 7.18254 95.5402 7.37264 95.7155 7.51213C95.8909 7.65163 96.1655 7.76787 96.5378 7.86087L97.4758 8.09062C98.0408 8.22738 98.461 8.43658 98.7381 8.71832C99.0152 8.99733 99.1534 9.35697 99.1534 9.79741C99.1534 10.1584 99.0492 10.4812 98.8407 10.7657C98.6356 11.0501 98.3477 11.2743 97.9771 11.4385C97.6073 11.6026 97.1772 11.6847 96.6858 11.6847C96.0414 11.6847 95.5087 11.5452 95.086 11.2662C94.6641 10.9872 94.397 10.5797 94.2845 10.0436L95.206 9.81375C95.2936 10.1529 95.4591 10.4073 95.7031 10.5769C95.9496 10.7465 96.2722 10.8313 96.6693 10.8313C97.1218 10.8313 97.4816 10.7355 97.7471 10.5441C98.016 10.3499 98.15 10.1174 98.15 9.84659C98.15 9.62782 98.0731 9.44453 97.92 9.29681C97.7662 9.14637 97.5304 9.03422 97.2128 8.96044L96.1597 8.71427C95.5815 8.57745 95.1563 8.36553 94.885 8.07831C94.6162 7.78839 94.4822 7.42597 94.4822 6.99108C94.4822 6.6355 94.5822 6.32096 94.7816 6.04744C94.9851 5.77393 95.2606 5.55921 95.6088 5.4033C95.9595 5.2474 96.3574 5.16944 96.8016 5.16944C97.4262 5.16944 97.9175 5.3062 98.2732 5.57972C98.6331 5.85324 98.8878 6.21428 99.0384 6.66285ZM102.046 11.5534L100.121 5.25151H101.141L102.506 10.0763H102.572L103.921 5.25151H104.957L106.29 10.0599H106.356L107.721 5.25151H108.741L106.817 11.5534H105.862L104.481 6.71209H104.381L103 11.5534H102.046ZM112.375 11.6847C111.806 11.6847 111.305 11.5492 110.874 11.2785C110.446 11.0077 110.112 10.6288 109.871 10.142C109.632 9.65513 109.513 9.08621 109.513 8.43526C109.513 7.77881 109.632 7.20579 109.871 6.71619C110.112 6.2266 110.446 5.84641 110.874 5.57562C111.305 5.30484 111.806 5.16944 112.375 5.16944C112.945 5.16944 113.445 5.30484 113.873 5.57562C114.303 5.84641 114.637 6.2266 114.876 6.71619C115.117 7.20579 115.238 7.77881 115.238 8.43526C115.238 9.08621 115.117 9.65513 114.876 10.142C114.637 10.6288 114.303 11.0077 113.873 11.2785C113.445 11.5492 112.945 11.6847 112.375 11.6847ZM112.375 10.8148C112.809 10.8148 113.165 10.7041 113.445 10.4825C113.725 10.2609 113.931 9.96972 114.065 9.60867C114.2 9.24763 114.267 8.85646 114.267 8.43526C114.267 8.01403 114.2 7.62154 114.065 7.25775C113.931 6.89398 113.725 6.59995 113.445 6.37566C113.165 6.15138 112.809 6.03923 112.375 6.03923C111.942 6.03923 111.585 6.15138 111.306 6.37566C111.026 6.59995 110.819 6.89398 110.685 7.25775C110.551 7.62154 110.484 8.01403 110.484 8.43526C110.484 8.85646 110.551 9.24763 110.685 9.60867C110.819 9.96972 111.026 10.2609 111.306 10.4825C111.585 10.7041 111.942 10.8148 112.375 10.8148ZM116.719 11.5534V5.25151H117.657V6.20335H117.723C117.837 5.89153 118.046 5.63853 118.348 5.44433C118.65 5.25014 118.99 5.15304 119.368 5.15304C119.439 5.15304 119.528 5.1544 119.635 5.15714C119.742 5.15987 119.823 5.16398 119.877 5.16944V6.15412C119.845 6.1459 119.769 6.1336 119.652 6.11719C119.537 6.09804 119.414 6.08847 119.285 6.08847C118.978 6.08847 118.704 6.15275 118.463 6.2813C118.225 6.40712 118.035 6.58217 117.895 6.80645C117.758 7.02801 117.69 7.28101 117.69 7.56546V11.5534H116.719ZM123.221 11.6847C122.695 11.6847 122.23 11.552 121.827 11.2866C121.424 11.0186 121.109 10.6411 120.881 10.1543C120.653 9.66471 120.54 9.08621 120.54 8.41884C120.54 7.75693 120.653 7.18254 120.881 6.69568C121.109 6.20881 121.425 5.83273 121.831 5.56742C122.237 5.3021 122.706 5.16944 123.237 5.16944C123.649 5.16944 123.974 5.23782 124.212 5.37458C124.453 5.50861 124.637 5.66178 124.764 5.8341C124.892 6.00367 124.992 6.14317 125.064 6.25258H125.146V3.15088H126.116V11.5534H125.179V10.5851H125.064C124.992 10.7 124.891 10.845 124.76 11.02C124.628 11.1923 124.44 11.3469 124.196 11.4836C123.952 11.6176 123.627 11.6847 123.221 11.6847ZM123.352 10.8148C123.742 10.8148 124.071 10.7137 124.34 10.5112C124.608 10.3061 124.812 10.023 124.952 9.66198C125.092 9.29822 125.162 8.87833 125.162 8.40242C125.162 7.93198 125.094 7.52034 124.956 7.1675C124.82 6.81193 124.616 6.53567 124.348 6.33874C124.08 6.13907 123.748 6.03923 123.352 6.03923C122.941 6.03923 122.599 6.14454 122.324 6.35514C122.053 6.56302 121.849 6.84612 121.712 7.20442C121.577 7.55999 121.51 7.95933 121.51 8.40242C121.51 8.85102 121.579 9.25852 121.716 9.62509C121.856 9.98886 122.061 10.2788 122.333 10.4948C122.607 10.7082 122.947 10.8148 123.352 10.8148Z" fill="black"/>
<path d="M0 32.1845C0 28.0826 3.33318 24.7573 7.44485 24.7573H217.555C221.667 24.7573 225 28.0826 225 32.1845V56.9418C225 61.0437 221.667 64.369 217.555 64.369H7.44485C3.33317 64.369 0 61.0437 0 56.9418V32.1845Z" fill="#EEF2F1"/>
<path d="M16.6602 49.637C16.0743 49.637 15.5573 49.491 15.1092 49.1987C14.6655 48.9021 14.3165 48.4895 14.0623 47.9608C13.8124 47.4279 13.6875 46.8111 13.6875 46.1104C13.6875 45.4098 13.8124 44.7952 14.0623 44.2665C14.3165 43.7379 14.6677 43.3253 15.1157 43.0287C15.5638 42.7321 16.0786 42.5839 16.6602 42.5839C17.1729 42.5839 17.6361 42.7106 18.0497 42.9642C18.4676 43.2135 18.7713 43.5552 18.9609 43.9893H18.9674V39.9083H19.801V49.5146H18.9867V48.2251H18.9738C18.7627 48.6679 18.4525 49.0138 18.0432 49.2631C17.6339 49.5124 17.1729 49.637 16.6602 49.637ZM16.7701 48.8763C17.4552 48.8763 18.0023 48.627 18.4116 48.1284C18.8252 47.6255 19.032 46.9529 19.032 46.1104C19.032 45.268 18.8252 44.5954 18.4116 44.0925C18.0023 43.5896 17.4552 43.3381 16.7701 43.3381C16.1239 43.3381 15.5875 43.5788 15.1609 44.0602C14.7387 44.5417 14.5276 45.225 14.5276 46.1104C14.5276 46.9958 14.7387 47.6792 15.1609 48.1607C15.5875 48.6378 16.1239 48.8763 16.7701 48.8763ZM21.4878 42.7063H22.315V50.501C22.315 50.9996 22.1556 51.4079 21.8367 51.726C21.5222 52.0483 21.1 52.2095 20.5701 52.2095H20.2082V51.4681H20.499C20.8049 51.4681 21.0462 51.3778 21.2228 51.1973C21.3995 51.0168 21.4878 50.746 21.4878 50.385V42.7063ZM21.9014 41.2299C21.7376 41.2299 21.5955 41.1719 21.4748 41.0558C21.3585 40.9398 21.3004 40.7979 21.3004 40.6303C21.3004 40.4627 21.3585 40.3209 21.4748 40.2048C21.5955 40.0887 21.7376 40.0307 21.9014 40.0307C22.0651 40.0307 22.2052 40.0887 22.3215 40.2048C22.4421 40.3209 22.5024 40.4627 22.5024 40.6303C22.5024 40.7979 22.4421 40.9398 22.3215 41.0558C22.2052 41.1719 22.0651 41.2299 21.9014 41.2299ZM23.7109 49.5146V48.7667L27.1231 45.5624C27.5626 45.1455 27.918 44.7802 28.1894 44.4664C28.4608 44.1526 28.659 43.8539 28.784 43.5703C28.9089 43.2823 28.9714 42.9706 28.9714 42.6354C28.9714 42.0078 28.7754 41.5029 28.3833 41.1203C27.9912 40.7378 27.4635 40.5465 26.8 40.5465C26.1106 40.5465 25.5656 40.7571 25.165 41.1783C24.7643 41.5996 24.5639 42.154 24.5639 42.8417H23.7367C23.7367 42.2443 23.8639 41.7135 24.118 41.2493C24.3766 40.7851 24.7341 40.4219 25.1908 40.1597C25.6518 39.8932 26.1882 39.76 26.8 39.76C27.3859 39.76 27.9051 39.8824 28.3574 40.1274C28.8098 40.3725 29.1631 40.7098 29.4173 41.1397C29.6758 41.5652 29.805 42.0551 29.805 42.6096C29.805 43.0051 29.7318 43.3811 29.5853 43.7379C29.4388 44.0946 29.2105 44.46 28.9003 44.8339C28.5901 45.2078 28.1916 45.6226 27.7048 46.0782L24.9065 48.7151V48.728H29.902V49.5146H23.7109ZM34.3159 49.6629C33.6783 49.6629 33.1117 49.5382 32.6163 49.289C32.1208 49.0354 31.7309 48.6872 31.4465 48.2444C31.1665 47.7975 31.0265 47.2839 31.0265 46.7036H31.9118C31.9118 47.3741 32.1294 47.9049 32.5646 48.296C32.9997 48.6872 33.577 48.8828 34.2965 48.8828C35.016 48.8828 35.5977 48.6979 36.0414 48.3283C36.4852 47.9544 36.7071 47.4708 36.7071 46.8777C36.7071 46.4995 36.5951 46.1685 36.3711 45.8848C36.1513 45.5968 35.8432 45.3733 35.4469 45.2143C35.0548 45.0553 34.6024 44.9757 34.0897 44.9757H33.5275V44.1828H34.0897C34.7661 44.1828 35.3198 44.0237 35.7507 43.7056C36.1858 43.3833 36.4033 42.9556 36.4033 42.4226C36.4033 41.8553 36.2051 41.3997 35.8088 41.0558C35.4167 40.712 34.8997 40.5401 34.2578 40.5401C33.6029 40.5401 33.0773 40.7249 32.6809 41.0945C32.2889 41.4599 32.0928 41.952 32.0928 42.5709H31.2462C31.2462 42.0208 31.3755 41.5351 31.634 41.1139C31.8925 40.6926 32.2479 40.3617 32.7002 40.121C33.1569 39.8803 33.6783 39.76 34.2642 39.76C34.8373 39.76 35.35 39.8738 35.8023 40.1017C36.2547 40.3252 36.6101 40.6346 36.8686 41.0301C37.1314 41.4255 37.2629 41.8746 37.2629 42.3775C37.2629 42.889 37.0992 43.3403 36.7717 43.7314C36.4443 44.1182 35.9962 44.3912 35.4275 44.5502V44.5631C36.0781 44.6791 36.5972 44.95 36.9849 45.3755C37.3727 45.7967 37.5666 46.2974 37.5666 46.8777C37.5666 47.4149 37.4266 47.8942 37.1465 48.3154C36.8665 48.7323 36.4809 49.0611 35.9897 49.3018C35.4986 49.5425 34.9407 49.6629 34.3159 49.6629ZM41.4312 49.637C40.9616 49.637 40.5372 49.536 40.1581 49.334C39.7789 49.1321 39.4774 48.8355 39.2533 48.4443C39.0336 48.0489 38.9237 47.5696 38.9237 47.0066V42.7063H39.7509V46.955C39.7509 47.5653 39.9146 48.036 40.2421 48.367C40.5695 48.6979 41.0133 48.8634 41.5734 48.8634C42.1292 48.8634 42.5966 48.6936 42.9757 48.3541C43.3592 48.0145 43.5509 47.5095 43.5509 46.839V42.7063H44.3845V49.5146H43.5703V48.425C43.3419 48.8376 43.0426 49.1428 42.672 49.3405C42.3015 49.5382 41.8879 49.637 41.4312 49.637ZM48.7662 39.9083V49.5146H47.9196V40.8044H47.9067L45.606 42.326V41.4233L47.8808 39.9083H48.7662ZM54.4984 44.3826V45.1692H50.4917V44.3826H54.4984ZM59.1515 49.65C58.4622 49.65 57.8611 49.4458 57.3484 49.0375C56.84 48.6292 56.4437 48.0554 56.1593 47.316C55.8793 46.5768 55.7393 45.7107 55.7393 44.7178C55.7393 43.7207 55.8793 42.8525 56.1593 42.1131C56.4437 41.3696 56.84 40.7937 57.3484 40.3853C57.8611 39.977 58.4622 39.7728 59.1515 39.7728C59.8365 39.7728 60.4332 39.977 60.9416 40.3853C61.4543 40.7937 61.8507 41.3696 62.1307 42.1131C62.4108 42.8525 62.5508 43.7207 62.5508 44.7178C62.5508 45.7107 62.4108 46.5768 62.1307 47.316C61.8507 48.0554 61.4543 48.6292 60.9416 49.0375C60.4332 49.4458 59.8365 49.65 59.1515 49.65ZM59.1515 48.8634C59.6728 48.8634 60.1252 48.6936 60.5086 48.3541C60.8921 48.0145 61.1894 47.5353 61.4005 46.9164C61.6159 46.2932 61.7236 45.5603 61.7236 44.7178C61.7236 43.8712 61.6159 43.1361 61.4005 42.5129C61.1894 41.8897 60.8921 41.4083 60.5086 41.0687C60.1252 40.7292 59.6728 40.5594 59.1515 40.5594C58.6302 40.5594 58.1756 40.7292 57.7879 41.0687C57.4001 41.4083 57.1007 41.8897 56.8896 42.5129C56.6785 43.1361 56.5729 43.8712 56.5729 44.7178C56.5729 45.5603 56.6785 46.2932 56.8896 46.9164C57.1007 47.5353 57.4001 48.0145 57.7879 48.3541C58.1756 48.6936 58.6302 48.8634 59.1515 48.8634ZM63.9208 49.5146V42.7063H64.748V49.5146H63.9208ZM64.3344 41.2299C64.1707 41.2299 64.0285 41.1719 63.9079 41.0558C63.7916 40.9398 63.7335 40.7979 63.7335 40.6303C63.7335 40.4627 63.7916 40.3209 63.9079 40.2048C64.0285 40.0887 64.1707 40.0307 64.3344 40.0307C64.4982 40.0307 64.6382 40.0887 64.7545 40.2048C64.8752 40.3209 64.9355 40.4627 64.9355 40.6303C64.9355 40.7979 64.8752 40.9398 64.7545 41.0558C64.6382 41.1719 64.4982 41.2299 64.3344 41.2299ZM66.4154 49.5146V42.7063H67.2103V43.841H67.2296C67.3718 43.4757 67.5981 43.1812 67.9083 42.9578C68.2228 42.7343 68.604 42.6225 69.0521 42.6225C69.134 42.6225 69.2029 42.6268 69.2589 42.6354C69.3192 42.6397 69.3709 42.644 69.414 42.6483V43.48C69.3753 43.4714 69.3128 43.4607 69.2266 43.4477C69.1404 43.4348 69.037 43.4284 68.9164 43.4284C68.4511 43.4284 68.0547 43.5853 67.7273 43.899C67.4042 44.2128 67.2426 44.6663 67.2426 45.2595V49.5146H66.4154ZM75.5017 49.5146V50.3011H69.5885V49.5146H75.5017ZM81.9578 50.6686C81.1005 50.6686 80.312 50.5204 79.5926 50.2238C78.8774 49.9272 78.257 49.5124 77.7314 48.9795C77.2057 48.4422 76.7985 47.8125 76.5099 47.0904C76.2212 46.364 76.0769 45.5732 76.0769 44.7178C76.0769 43.8582 76.2212 43.0652 76.5099 42.3388C76.7985 41.6125 77.2057 40.9828 77.7314 40.4498C78.257 39.9125 78.8774 39.4956 79.5926 39.199C80.312 38.9024 81.1005 38.7542 81.9578 38.7542C82.794 38.7542 83.5608 38.8982 84.2582 39.1862C84.9563 39.4698 85.5619 39.8738 86.0747 40.3982C86.5868 40.9183 86.9838 41.5351 87.2634 42.2486C87.548 42.9621 87.6903 43.7486 87.6903 44.6083C87.6903 45.614 87.481 46.4049 87.0632 46.9808C86.6455 47.5568 86.0532 47.8448 85.2864 47.8448C84.9026 47.8448 84.599 47.7781 84.3748 47.6449C84.1548 47.5116 83.9959 47.3462 83.8967 47.1484C83.7974 46.9464 83.7395 46.7423 83.7221 46.5359H83.7155C83.5774 46.9056 83.3433 47.2172 83.0116 47.4708C82.6838 47.7201 82.2594 47.8448 81.7381 47.8448C81.1823 47.8448 80.7019 47.7008 80.2969 47.4128C79.8962 47.1248 79.586 46.7423 79.3663 46.2652C79.1466 45.7881 79.0368 45.2702 79.0368 44.7114C79.0368 44.1096 79.1574 43.5746 79.3987 43.1061C79.6399 42.6333 79.9674 42.2614 80.381 41.9907C80.7946 41.7156 81.2599 41.578 81.7769 41.578C82.2551 41.578 82.6493 41.6855 82.9595 41.9004C83.2738 42.111 83.5021 42.3646 83.6444 42.6612H83.651V41.7199H84.4393V46.0137C84.4393 46.7315 84.7371 47.0904 85.3311 47.0904C85.8307 47.0904 86.2145 46.8777 86.4817 46.4522C86.753 46.0266 86.8887 45.4228 86.8887 44.6405C86.8887 43.6133 86.6794 42.7149 86.2617 41.9455C85.8481 41.1762 85.2707 40.5788 84.5303 40.1532C83.7892 39.7277 82.9313 39.5149 81.9578 39.5149C80.954 39.5149 80.0729 39.7341 79.3146 40.1726C78.5563 40.6067 77.9661 41.2149 77.5439 41.9971C77.1217 42.7751 76.9106 43.682 76.9106 44.7178C76.9106 45.7494 77.1217 46.6563 77.5439 47.4386C77.9661 48.2165 78.5563 48.8226 79.3146 49.2567C80.0729 49.6908 80.954 49.9079 81.9578 49.9079C82.5438 49.9079 83.0711 49.8433 83.541 49.7144C84.0108 49.5855 84.4153 49.4415 84.7561 49.2825L85.0275 49.9916C84.704 50.155 84.2755 50.3075 83.7412 50.4494C83.2118 50.5956 82.617 50.6686 81.9578 50.6686ZM81.8221 47.0969C82.4296 47.0969 82.8908 46.882 83.2051 46.4522C83.5236 46.0223 83.6833 45.4421 83.6833 44.7114C83.6833 43.9807 83.5236 43.4004 83.2051 42.9706C82.8908 42.5409 82.4296 42.326 81.8221 42.326C81.2232 42.326 80.7472 42.5409 80.3939 42.9706C80.0449 43.4004 79.8704 43.9807 79.8704 44.7114C79.8704 45.4421 80.0449 46.0223 80.3939 46.4522C80.7472 46.882 81.2232 47.0969 81.8221 47.0969ZM92.1166 49.6629C91.4797 49.6629 90.913 49.5382 90.4175 49.289C89.9221 49.0354 89.5316 48.6872 89.2479 48.2444C88.9675 47.7975 88.8277 47.2839 88.8277 46.7036H89.7128C89.7128 47.3741 89.9303 47.9049 90.3654 48.296C90.8005 48.6872 91.3779 48.8828 92.0976 48.8828C92.8173 48.8828 93.3988 48.6979 93.8422 48.3283C94.2864 47.9544 94.5081 47.4708 94.5081 46.8777C94.5081 46.4995 94.3964 46.1685 94.1722 45.8848C93.9522 45.5968 93.6445 45.3733 93.2482 45.2143C92.8561 45.0553 92.4037 44.9757 91.8908 44.9757H91.3283V44.1828H91.8908C92.5675 44.1828 93.1209 44.0237 93.5518 43.7056C93.9869 43.3833 94.2045 42.9556 94.2045 42.4226C94.2045 41.8553 94.006 41.3997 93.6097 41.0558C93.2176 40.712 92.7006 40.5401 92.0587 40.5401C91.4036 40.5401 90.8783 40.7249 90.4821 41.0945C90.09 41.4599 89.8939 41.952 89.8939 42.5709H89.0469C89.0469 42.0208 89.1767 41.5351 89.4348 41.1139C89.6937 40.6926 90.0486 40.3617 90.5011 40.121C90.9577 39.8803 91.4797 39.76 92.0653 39.76C92.6386 39.76 93.1506 39.8738 93.6031 40.1017C94.0556 40.3252 94.4113 40.6346 94.6694 41.0301C94.9324 41.4255 95.064 41.8746 95.064 42.3775C95.064 42.889 94.9002 43.3403 94.5726 43.7314C94.245 44.1182 93.7975 44.3912 93.2284 44.5502V44.5631C93.8794 44.6791 94.3981 44.95 94.786 45.3755C95.174 45.7967 95.3676 46.2974 95.3676 46.8777C95.3676 47.4149 95.2278 47.8942 94.9473 48.3154C94.6677 48.7323 94.2823 49.0611 93.7909 49.3018C93.2995 49.5425 92.742 49.6629 92.1166 49.6629ZM99.4324 39.9083V49.5146H98.5862V40.8044H98.573L96.2725 42.326V41.4233L98.5473 39.9083H99.4324ZM100.802 47.0582V46.349L105.514 39.9083H106.593V46.2716H108.086V47.0582H106.593V49.5146H105.753V47.0582H100.802ZM105.753 46.2716V40.8947H105.746L101.824 46.2652V46.2716H105.753ZM112.164 49.65C111.556 49.65 111.012 49.536 110.529 49.3083C110.05 49.0762 109.672 48.7602 109.391 48.3606C109.116 47.9565 108.978 47.4988 108.978 46.9873C108.978 46.5661 109.07 46.1792 109.256 45.8267C109.445 45.4743 109.7 45.182 110.018 44.95C110.337 44.7178 110.699 44.5717 111.103 44.5115C110.561 44.3955 110.128 44.1355 109.805 43.7314C109.482 43.3231 109.32 42.8439 109.32 42.2937C109.32 41.8123 109.445 41.3825 109.695 41.0043C109.945 40.6218 110.283 40.3209 110.71 40.1017C111.141 39.8824 111.625 39.7728 112.164 39.7728C112.698 39.7728 113.178 39.8824 113.605 40.1017C114.036 40.3209 114.376 40.6218 114.626 41.0043C114.881 41.3825 115.007 41.8123 115.007 42.2937C115.007 42.8439 114.843 43.3231 114.517 43.7314C114.193 44.1355 113.765 44.3955 113.23 44.5115C113.631 44.5717 113.99 44.7178 114.31 44.95C114.628 45.182 114.881 45.4743 115.066 45.8267C115.255 46.1792 115.35 46.5661 115.35 46.9873C115.35 47.4988 115.212 47.9565 114.936 48.3606C114.66 48.7602 114.282 49.0762 113.799 49.3083C113.32 49.536 112.775 49.65 112.164 49.65ZM112.164 48.8634C112.849 48.8634 113.406 48.6872 113.837 48.3347C114.268 47.978 114.483 47.5159 114.483 46.9486C114.483 46.5661 114.383 46.2243 114.18 45.9234C113.982 45.6183 113.706 45.3776 113.353 45.2014C113.004 45.0252 112.607 44.937 112.164 44.937C111.72 44.937 111.322 45.0252 110.968 45.2014C110.62 45.3776 110.343 45.6183 110.141 45.9234C109.939 46.2243 109.837 46.5661 109.837 46.9486C109.837 47.5159 110.053 47.978 110.483 48.3347C110.919 48.6872 111.479 48.8634 112.164 48.8634ZM112.164 44.1762C112.741 44.1762 113.217 44.0043 113.592 43.6605C113.966 43.3167 114.154 42.8782 114.154 42.3453C114.154 41.8166 113.966 41.3846 113.592 41.0494C113.221 40.7141 112.745 40.5465 112.164 40.5465C111.587 40.5465 111.11 40.7141 110.735 41.0494C110.361 41.3846 110.174 41.8166 110.174 42.3453C110.174 42.8782 110.361 43.3167 110.735 43.6605C111.11 44.0043 111.587 44.1762 112.164 44.1762ZM116.448 49.5146V48.7667L119.86 45.5624C120.3 45.1455 120.655 44.7802 120.927 44.4664C121.199 44.1526 121.396 43.8539 121.521 43.5703C121.646 43.2823 121.709 42.9706 121.709 42.6354C121.709 42.0078 121.513 41.5029 121.121 41.1203C120.729 40.7378 120.201 40.5465 119.538 40.5465C118.848 40.5465 118.303 40.7571 117.902 41.1783C117.502 41.5996 117.302 42.154 117.302 42.8417H116.475C116.475 42.2443 116.601 41.7135 116.856 41.2493C117.114 40.7851 117.471 40.4219 117.928 40.1597C118.39 39.8932 118.926 39.76 119.538 39.76C120.123 39.76 120.643 39.8824 121.095 40.1274C121.548 40.3725 121.901 40.7098 122.155 41.1397C122.413 41.5652 122.543 42.0551 122.543 42.6096C122.543 43.0051 122.469 43.3811 122.323 43.7379C122.176 44.0946 121.948 44.46 121.638 44.8339C121.328 45.2078 120.929 45.6226 120.443 46.0782L117.644 48.7151V48.728H122.64V49.5146H116.448Z" fill="black"/>
<path d="M203.079 46.0072C203.879 46.0072 204.527 45.3607 204.527 44.5631C204.527 43.7655 203.879 43.1189 203.079 43.1189C202.28 43.1189 201.632 43.7655 201.632 44.5631C201.632 45.3607 202.28 46.0072 203.079 46.0072Z" stroke="#8B8E8C" stroke-linecap="round" stroke-linejoin="round"/>
<path d="M209.593 44.5631C208.226 46.7229 205.77 48.8956 203.079 48.8956C200.387 48.8956 197.931 46.7229 196.564 44.5631C198.228 42.5111 200.178 40.2306 203.079 40.2306C205.98 40.2306 207.929 42.5111 209.593 44.5631Z" stroke="#8B8E8C" stroke-linecap="round" stroke-linejoin="round"/>
<path d="M7.58958 79.7505C7.49457 79.7507 7.40045 79.7322 7.31263 79.696C7.22482 79.6598 7.14503 79.6067 7.07785 79.5397L4.00747 76.4759C3.93829 76.4093 3.8831 76.3296 3.8451 76.2416C3.8071 76.1535 3.78707 76.0588 3.78616 75.9629C3.78526 75.867 3.80351 75.7719 3.83984 75.6831C3.87617 75.5943 3.92986 75.5137 3.99777 75.4459C4.06569 75.3781 4.14646 75.3243 4.23539 75.288C4.32431 75.2516 4.41961 75.2333 4.51571 75.234C4.61182 75.2348 4.70681 75.2547 4.79515 75.2924C4.88348 75.3302 4.96339 75.3851 5.0302 75.4541L7.58886 78.0067L12.1959 73.412C12.3316 73.2765 12.5157 73.2004 12.7077 73.2003C12.8997 73.2002 13.0839 73.2762 13.2197 73.4117C13.3555 73.5471 13.4318 73.7307 13.4319 73.9222C13.432 74.1139 13.3558 74.2976 13.2201 74.4331L8.10131 79.5397C8.03412 79.6067 7.95434 79.6598 7.86652 79.696C7.77871 79.7322 7.68459 79.7507 7.58958 79.7505Z" fill="#00A886"/>
<path d="M22.2764 80.8737V72.4682H25.4826C26.3836 72.4682 27.098 72.7033 27.6257 73.1733C28.1535 73.6435 28.4174 74.281 28.4174 75.0857C28.4174 75.6725 28.2666 76.1727 27.965 76.5864C27.6635 76.9963 27.2506 77.2952 26.7267 77.4833L28.5474 80.8737H27.1338L25.4543 77.692C25.4355 77.692 25.4166 77.692 25.3977 77.692H23.5317V80.8737H22.2764ZM23.5317 76.6258H25.4317C25.9746 76.6258 26.4006 76.4886 26.7097 76.214C27.0225 75.9357 27.179 75.5596 27.179 75.0857C27.179 74.6119 27.0225 74.2377 26.7097 73.9632C26.3968 73.6886 25.9689 73.5514 25.426 73.5514H23.5317V76.6258ZM29.5766 80.8737V74.9165H30.7698V80.8737H29.5766ZM30.1704 73.8898C29.9592 73.8898 29.7802 73.8202 29.6331 73.6811C29.4899 73.5382 29.4183 73.3652 29.4183 73.1621C29.4183 72.9552 29.4899 72.7822 29.6331 72.6431C29.7802 72.5002 29.9592 72.4287 30.1704 72.4287C30.3815 72.4287 30.5605 72.5002 30.7076 72.6431C30.8546 72.7822 30.9281 72.9552 30.9281 73.1621C30.9281 73.3652 30.8546 73.5382 30.7076 73.6811C30.5605 73.8202 30.3815 73.8898 30.1704 73.8898ZM34.728 83.3107C33.9967 83.3107 33.3992 83.1489 32.9355 82.8254C32.4718 82.5022 32.2004 82.0491 32.1213 81.4661H33.3144C33.3898 81.7557 33.5537 81.9738 33.8064 82.1204C34.0589 82.2672 34.3661 82.3405 34.728 82.3405C35.2106 82.3405 35.5876 82.2107 35.859 81.9513C36.1304 81.6917 36.2662 81.3213 36.2662 80.8399V79.9373H36.2605C36.0531 80.2833 35.7912 80.539 35.4745 80.7045C35.1616 80.87 34.8091 80.9527 34.417 80.9527C33.8968 80.9527 33.4426 80.823 33.0543 80.5635C32.666 80.3002 32.3644 79.9392 32.1495 79.4803C31.9347 79.0178 31.8272 78.4837 31.8272 77.8782C31.8272 77.2727 31.9347 76.7387 32.1495 76.2761C32.3682 75.8135 32.6716 75.4525 33.0599 75.1929C33.4482 74.9297 33.8987 74.7981 34.4114 74.7981C34.7997 74.7981 35.156 74.8808 35.4801 75.0463C35.8043 75.2118 36.0664 75.4713 36.2662 75.8247H36.2718V74.9165H37.448V80.7948C37.448 81.3965 37.3255 81.8817 37.0805 82.2503C36.8354 82.6191 36.5075 82.8873 36.0965 83.0573C35.6856 83.2265 35.2294 83.3107 34.728 83.3107ZM34.6602 79.9317C35.1691 79.9317 35.5744 79.7455 35.876 79.3731C36.1814 78.9971 36.334 78.4969 36.334 77.8726C36.334 77.2483 36.1814 76.7499 35.876 76.3777C35.5744 76.0015 35.1691 75.8135 34.6602 75.8135C34.1777 75.8135 33.7856 75.9903 33.484 76.3437C33.1862 76.6936 33.0373 77.2031 33.0373 77.8726C33.0373 78.542 33.1862 79.0535 33.484 79.407C33.7856 79.7568 34.1777 79.9317 34.6602 79.9317ZM39.9869 77.4439V80.8737H38.7938V72.4682H39.9869V75.774C40.3979 75.1234 40.9916 74.7981 41.7682 74.7981C42.1791 74.7981 42.5466 74.8883 42.8709 75.0688C43.1989 75.2456 43.4571 75.5088 43.6456 75.8587C43.8341 76.2084 43.9283 76.6427 43.9283 77.1618V80.8737H42.7352V77.3085C42.7352 76.8308 42.6202 76.4717 42.3902 76.2309C42.1602 75.9865 41.8399 75.8643 41.4289 75.8643C41.0218 75.8643 40.6787 75.9903 40.3998 76.2422C40.1246 76.4905 39.9869 76.891 39.9869 77.4439ZM48.1524 74.9165V75.8981H46.9422V79.2998C46.9422 79.5218 46.9875 79.6759 47.078 79.7624C47.1685 79.8489 47.3324 79.8921 47.5699 79.8921H48.1524V80.8737H47.4003C46.2958 80.8737 45.7435 80.3999 45.7435 79.4521V75.8981H44.6917V74.9165H45.7435V73.2918H46.9422V74.9165H48.1524ZM51.9524 80.8737V72.4682H57.4374V73.5683H53.2077V76.0843H57.1151V77.1674H53.2077V80.8737H51.9524ZM60.8472 81.0092C60.278 81.0092 59.7785 80.8775 59.3488 80.6142C58.919 80.351 58.5835 79.9862 58.3422 79.5199C58.1047 79.0535 57.9859 78.5157 57.9859 77.9064C57.9859 77.2896 58.1047 76.7481 58.3422 76.2817C58.5835 75.8116 58.919 75.4449 59.3488 75.1816C59.7785 74.9147 60.278 74.7811 60.8472 74.7811C61.4165 74.7811 61.9141 74.9147 62.3401 75.1816C62.7698 75.4449 63.1035 75.8116 63.341 76.2817C63.5822 76.7481 63.7029 77.2896 63.7029 77.9064C63.7029 78.5157 63.5822 79.0535 63.341 79.5199C63.1035 79.9862 62.7698 80.351 62.3401 80.6142C61.9141 80.8775 61.4165 81.0092 60.8472 81.0092ZM60.8472 79.9824C61.3599 79.9824 61.7633 79.7944 62.0574 79.4183C62.3514 79.0422 62.4984 78.5382 62.4984 77.9064C62.4984 77.2671 62.3495 76.7574 62.0517 76.3777C61.7577 75.9978 61.3562 75.8078 60.8472 75.8078C60.3383 75.8078 59.935 75.9978 59.6371 76.3777C59.3431 76.7537 59.1961 77.2633 59.1961 77.9064C59.1961 78.542 59.3431 79.0478 59.6371 79.424C59.9312 79.7962 60.3345 79.9824 60.8472 79.9824ZM64.7603 80.8737V74.9165H65.9025V75.8812H65.9252C66.0346 75.554 66.206 75.3001 66.4398 75.1196C66.6773 74.9353 66.9864 74.8432 67.3672 74.8432C67.4576 74.8432 67.5406 74.8469 67.6159 74.8545C67.6914 74.862 67.7536 74.8676 67.8025 74.8714V75.9827C67.7573 75.9715 67.6763 75.9602 67.5594 75.9489C67.4425 75.9338 67.3144 75.9263 67.1749 75.9263C66.8394 75.9263 66.551 76.0429 66.3097 76.2761C66.0722 76.5093 65.9535 76.8684 65.9535 77.3536V80.8737H64.7603ZM68.7299 80.8737V74.9165H69.8892V75.915C70.0739 75.5465 70.3245 75.2682 70.6413 75.0801C70.9579 74.8921 71.301 74.7981 71.6704 74.7981C72.0775 74.7981 72.4338 74.9015 72.7391 75.1084C73.0483 75.3152 73.265 75.5784 73.3894 75.8981C73.5515 75.5747 73.7966 75.3114 74.1245 75.1084C74.4563 74.9015 74.8427 74.7981 75.2838 74.7981C75.6532 74.7981 75.9887 74.8789 76.2903 75.0406C76.5919 75.2024 76.8313 75.4431 77.0084 75.7627C77.1856 76.0787 77.2742 76.4754 77.2742 76.953V80.8737H76.0754V77.0546C76.0754 76.6296 75.9566 76.3212 75.7192 76.1294C75.4817 75.9376 75.2008 75.8417 74.8766 75.8417C74.477 75.8417 74.1623 75.9658 73.9323 76.214C73.7023 76.4585 73.5874 76.7706 73.5874 77.1505V80.8737H72.4112V76.9756C72.4112 76.6334 72.3 76.3588 72.0775 76.152C71.8589 75.9451 71.5799 75.8417 71.2407 75.8417C70.8938 75.8417 70.5866 75.964 70.3189 76.2084C70.055 76.4528 69.9231 76.8101 69.9231 77.2802V80.8737H68.7299ZM80.4466 80.9696C79.8509 80.9696 79.357 80.8192 78.965 80.5183C78.5729 80.2137 78.3769 79.7643 78.3769 79.17C78.3769 78.7188 78.4881 78.3728 78.7105 78.132C78.9367 77.8876 79.2289 77.7127 79.587 77.6074C79.9489 77.5021 80.3316 77.4251 80.7349 77.3761C81.1082 77.331 81.404 77.2934 81.6228 77.2633C81.8414 77.2332 81.9959 77.1881 82.0864 77.1279C82.1806 77.0677 82.2278 76.9643 82.2278 76.8177V76.7668C82.2278 76.4773 82.1222 76.2403 81.9111 76.0561C81.7 75.868 81.404 75.774 81.0233 75.774C80.6426 75.774 80.3316 75.8662 80.0903 76.0504C79.849 76.2309 79.717 76.4585 79.6945 76.733H78.524C78.5504 76.1652 78.7897 75.7006 79.2421 75.3396C79.6945 74.9785 80.2939 74.7981 81.0403 74.7981C81.7754 74.7981 82.3541 74.9785 82.776 75.3396C83.1987 75.7006 83.4096 76.184 83.4096 76.7895V80.8737H82.2334V80.0275H82.2108C82.0864 80.2683 81.8885 80.4864 81.6171 80.682C81.3494 80.8737 80.9593 80.9696 80.4466 80.9696ZM80.6897 80.0106C81.2174 80.0106 81.6057 79.8752 81.8545 79.6044C82.1072 79.3299 82.2334 79.0103 82.2334 78.6454V77.9459C82.1542 78.0098 81.9752 78.0682 81.6962 78.1208C81.4173 78.1697 81.1195 78.2167 80.8028 78.2619C80.4748 78.3107 80.1864 78.4029 79.9376 78.5382C79.6888 78.6737 79.5644 78.8918 79.5644 79.1926C79.5644 79.4484 79.6643 79.6496 79.8641 79.7962C80.0677 79.9392 80.3429 80.0106 80.6897 80.0106ZM87.6333 74.9165V75.8981H86.4239V79.2998C86.4239 79.5218 86.4686 79.6759 86.5596 79.7624C86.6498 79.8489 86.8136 79.8921 87.051 79.8921H87.6333V80.8737H86.8814C85.7771 80.8737 85.2245 80.3999 85.2245 79.4521V75.8981H84.1731V74.9165H85.2245V73.2918H86.4239V74.9165H87.6333Z" fill="#00A886"/>
</svg>
