<svg width="107" height="40" viewBox="0 0 107 40" fill="none" xmlns="http://www.w3.org/2000/svg">
<g clip-path="url(#clip0_449_852)">
<path d="M41.3613 0H9.89076C4.42824 0 0 4.37766 0 9.77778V30.2222C0 35.6223 4.42824 40 9.89076 40H41.3613C46.8239 40 51.2521 35.6223 51.2521 30.2222V9.77778C51.2521 4.37766 46.8239 0 41.3613 0Z" fill="black"/>
<path d="M24.277 13.7778L19.7812 17.3334H16.1846V22.6667H19.7812L24.277 26.2223V13.7778Z" stroke="white" stroke-width="1.5" stroke-linecap="round" stroke-linejoin="round"/>
<path d="M31.5334 13.7157C33.2191 15.3825 34.1661 17.6431 34.1661 20.0001C34.1661 22.3571 33.2191 24.6177 31.5334 26.2846M28.3594 16.8535C29.2022 17.6869 29.6757 18.8171 29.6757 19.9957C29.6757 21.1742 29.2022 22.3044 28.3594 23.1379" stroke="white" stroke-width="1.5" stroke-linecap="round" stroke-linejoin="round"/>
<path d="M55.748 9.77778C55.748 4.37766 60.1763 0 65.6388 0H107V40H65.6388C60.1763 40 55.748 35.6223 55.748 30.2222V9.77778Z" fill="black"/>
<path d="M76.5839 17.6565L78.0993 20.2992L79.6281 17.6565H81.0898L78.9487 21.0505L81.1077 24.4444H79.646L78.0993 21.9078L76.5571 24.4444H75.0908L77.2276 21.0505L75.1176 17.6565H76.5839ZM85.9178 15.3939V24.4444H84.532V16.7639H84.4783L82.2879 18.178V16.8699L84.5722 15.3939H85.9178Z" fill="white"/>
</g>
<defs>
<clipPath id="clip0_449_852">
<rect width="107" height="40" fill="white"/>
</clipPath>
</defs>
</svg>
