<svg width="162" height="162" viewBox="0 0 162 162" fill="none" xmlns="http://www.w3.org/2000/svg">
<g clip-path="url(#clip0_507_575)">
<path d="M139 0.5H23C10.2975 0.5 0 10.7975 0 23.5V138.5C0 151.203 10.2975 161.5 23 161.5H139C151.703 161.5 162 151.203 162 138.5V23.5C162 10.7975 151.703 0.5 139 0.5Z" fill="#EEEEEE"/>
<mask id="mask0_507_575" style="mask-type:alpha" maskUnits="userSpaceOnUse" x="0" y="0" width="162" height="162">
<path d="M139 0.5H23C10.2975 0.5 0 10.7975 0 23.5V138.5C0 151.203 10.2975 161.5 23 161.5H139C151.703 161.5 162 151.203 162 138.5V23.5C162 10.7975 151.703 0.5 139 0.5Z" fill="#D05FCC"/>
</mask>
<g mask="url(#mask0_507_575)">
<path d="M27.9996 58.0342C11.2949 53.2614 -5.31091 64.4094 -10.9057 83.2125C-10.9688 83.4246 -10.9948 83.6479 -10.9839 83.869L-5.5946 192.634C-5.54184 193.699 -4.66316 194.535 -3.59706 194.535H177C178.105 194.535 179 193.64 179 192.535V59.3435C179 58.5483 178.52 57.8203 177.782 57.524C150.774 46.6802 126.512 68.111 93.9996 73.0366C56.6341 78.6974 48.9996 64.0342 27.9996 58.0342Z" fill="#FFE03F"/>
</g>
<path d="M19.7041 28.5V11.34H31.6081V13.62H22.3441V18.78H29.8321V21.06H22.3441V28.5H19.7041ZM37.2663 28.836C33.8583 28.836 31.9383 26.892 31.9383 24.324C31.9383 21.732 33.9063 20.388 35.8743 19.26C34.6983 17.796 33.8823 16.62 33.8823 15.06C33.8823 13.02 35.3223 11.004 38.1783 11.004C40.9143 10.98 42.4503 12.852 42.4503 15.036C42.4503 17.1 41.0823 18.204 38.8503 19.548L42.0903 23.436C42.5943 22.428 42.9063 21.252 43.0983 20.1H45.3543C45.1143 21.828 44.5623 23.676 43.5783 25.26L46.2903 28.5H43.4343L42.1863 26.964C40.9623 28.092 39.3543 28.836 37.2663 28.836ZM34.3623 24.012C34.3623 25.524 35.4663 26.604 37.4583 26.604C38.8503 26.604 39.9303 26.076 40.7703 25.26L36.9783 20.628C35.3703 21.612 34.3623 22.62 34.3623 24.012ZM36.1863 15.084C36.1863 16.092 36.8343 17.076 37.7223 18.204C39.3303 17.244 40.1463 16.404 40.1463 15.204C40.1463 14.028 39.4263 13.092 38.1783 13.092C36.8823 13.092 36.1863 14.052 36.1863 15.084ZM55.46 28.836C50.324 28.836 47.036 25.068 47.036 19.908C47.036 14.748 50.324 11.004 55.46 11.004C60.596 11.004 63.884 14.748 63.884 19.908C63.884 25.068 60.596 28.836 55.46 28.836ZM49.796 19.908C49.796 23.436 51.404 26.556 55.46 26.556C59.516 26.556 61.124 23.436 61.124 19.908C61.124 16.38 59.516 13.284 55.46 13.284C51.404 13.284 49.796 16.38 49.796 19.908ZM19.7041 52.5V35.34H23.1841L28.1281 48.828H28.1761L33.1441 35.34H36.6241V52.5H34.0321V39.18H33.9841L29.2561 52.5H27.0721L22.3441 39.18H22.2961V52.5H19.7041ZM42.79 52.836C40.342 52.836 38.782 51.42 38.782 49.332C38.782 46.596 40.846 45.78 43.894 45.204C45.814 44.844 46.99 44.604 46.99 43.404C46.99 42.516 46.462 41.772 44.662 41.772C42.526 41.772 41.878 42.444 41.758 44.076H39.358C39.478 41.724 41.014 39.876 44.758 39.876C47.278 39.876 49.294 40.932 49.294 44.1V49.716C49.294 50.604 49.414 51.06 49.87 51.06C49.942 51.06 50.014 51.06 50.158 51.036V52.476C49.75 52.572 49.342 52.62 48.958 52.62C47.782 52.62 47.158 52.164 47.014 50.772H46.966C46.174 52.044 44.782 52.836 42.79 52.836ZM41.23 49.164C41.23 50.316 41.854 50.94 43.318 50.94C45.43 50.94 46.99 49.86 46.99 47.724V45.972C46.606 46.332 45.55 46.596 44.302 46.86C42.142 47.292 41.23 47.892 41.23 49.164ZM54.508 46.164V52.5H52.156V40.26H54.508V42.588H54.556C55.204 41.052 56.188 39.972 57.844 39.972C58.276 39.972 58.612 39.996 58.972 40.044V42.3C58.684 42.252 58.468 42.228 58.18 42.228C56.044 42.228 54.508 43.836 54.508 46.164ZM60.4998 52.5V35.34H62.8518V45.444L68.2038 40.26H70.9158L66.2118 44.748L71.4198 52.5H68.6358L64.6278 46.236L62.8518 47.94V52.5H60.4998ZM77.1972 52.86C73.3092 52.86 71.1492 50.1 71.1492 46.356C71.1492 42.516 73.4532 39.876 77.1972 39.876C80.9172 39.876 83.0052 42.324 83.0052 46.116C83.0052 46.452 83.0052 46.812 82.9812 47.004H73.5732C73.6212 49.044 74.8212 50.94 77.2452 50.94C79.4052 50.94 80.2452 49.548 80.4612 48.732H82.8612C82.2132 51.084 80.4132 52.86 77.1972 52.86ZM73.5732 45.156H80.5572C80.5572 43.236 79.2132 41.796 77.1252 41.796C75.1572 41.796 73.7172 43.14 73.5732 45.156ZM88.8365 52.644C86.8205 52.644 85.5965 51.876 85.5965 49.044V42.204H83.8205V40.26H85.5965V36.324H87.9485V40.26H90.3005V42.204H87.9485V49.116C87.9485 50.412 88.3085 50.7 89.3165 50.7C89.7245 50.7 89.9165 50.676 90.3245 50.604V52.5C89.7245 52.62 89.3405 52.644 88.8365 52.644Z" fill="black"/>
<path d="M20.0599 141.76C18.3811 141.76 17.2979 140.47 17.2979 138.692C17.2979 136.906 18.3895 135.616 20.0682 135.616C21.5485 135.616 22.4664 136.559 22.607 137.741H21.656C21.5485 137.162 21.1846 136.402 20.0517 136.402C18.7451 136.402 18.2488 137.51 18.2488 138.684C18.2488 139.867 18.7451 140.975 20.0517 140.975C21.1929 140.975 21.5981 140.214 21.656 139.494H22.607C22.4747 140.809 21.5484 141.76 20.0599 141.76ZM25.1632 141.769C23.8483 141.769 23.0543 140.859 23.0543 139.536C23.0543 138.221 23.8483 137.295 25.1715 137.295C26.4781 137.295 27.2719 138.213 27.2719 139.527C27.2719 140.851 26.4781 141.769 25.1632 141.769ZM23.8979 139.536C23.8979 140.412 24.2949 141.099 25.1715 141.099C26.0315 141.099 26.4285 140.412 26.4285 139.536C26.4285 138.651 26.0315 137.973 25.1715 137.973C24.2949 137.973 23.8979 138.651 23.8979 139.536ZM30.4922 138.94C30.4922 138.378 30.3764 137.998 29.7562 137.998C29.1525 137.998 28.7721 138.419 28.7721 139.056V141.645H27.9617V137.427H28.7721V137.956H28.7887C29.0119 137.634 29.4006 137.303 30.0374 137.303C30.6245 137.303 30.9884 137.568 31.1538 138.039H31.1702C31.4762 137.634 31.9063 137.303 32.5514 137.303C33.4031 137.303 33.8332 137.816 33.8332 138.717V141.645H33.0226V138.94C33.0226 138.378 32.9069 137.998 32.2866 137.998C31.683 137.998 31.3026 138.419 31.3026 139.056V141.645H30.4922V138.94ZM36.8464 141.76C36.1848 141.76 35.7797 141.463 35.5481 141.124H35.5315V143.108H34.7212V137.427H35.5315V137.923H35.5481C35.7797 137.625 36.1848 137.303 36.8464 137.303C37.9214 137.303 38.7402 138.146 38.7402 139.536C38.7402 140.925 37.9214 141.76 36.8464 141.76ZM35.5399 139.536C35.5399 140.487 35.9864 141.09 36.7142 141.09C37.5081 141.09 37.8885 140.363 37.8885 139.536C37.8885 138.709 37.5081 137.981 36.7142 137.981C35.9864 137.981 35.5399 138.576 35.5399 139.536ZM39.4375 141.645V135.732H40.2479V141.645H39.4375ZM43.0266 141.769C41.6869 141.769 40.9426 140.818 40.9426 139.527C40.9426 138.204 41.7365 137.295 43.0266 137.295C44.3084 137.295 45.0278 138.138 45.0278 139.445C45.0278 139.561 45.0278 139.685 45.0196 139.751H41.7778C41.7943 140.454 42.2079 141.107 43.0431 141.107C43.7874 141.107 44.0768 140.627 44.1512 140.346H44.9782C44.7549 141.157 44.1347 141.769 43.0266 141.769ZM41.7778 139.114H44.1843C44.1843 138.452 43.7211 137.956 43.0017 137.956C42.3236 137.956 41.8274 138.419 41.7778 139.114ZM47.0371 141.694C46.3424 141.694 45.9207 141.43 45.9207 140.454V138.097H45.3086V137.427H45.9207V136.071H46.7311V137.427H47.5416V138.097H46.7311V140.479C46.7311 140.925 46.8552 141.024 47.2025 141.024C47.3431 141.024 47.4091 141.016 47.5497 140.991V141.645C47.343 141.686 47.2108 141.694 47.0371 141.694ZM49.9959 141.769C48.6562 141.769 47.9121 140.818 47.9121 139.527C47.9121 138.204 48.7059 137.295 49.9959 137.295C51.2777 137.295 51.9973 138.138 51.9973 139.445C51.9973 139.561 51.9973 139.685 51.989 139.751H48.7473C48.7638 140.454 49.1773 141.107 50.0126 141.107C50.7568 141.107 51.0463 140.627 51.1207 140.346H51.9476C51.7243 141.157 51.1041 141.769 49.9959 141.769ZM48.7473 139.114H51.1537C51.1537 138.452 50.6907 137.956 49.9712 137.956C49.2931 137.956 48.7969 138.419 48.7473 139.114ZM54.3605 141.76C53.2854 141.76 52.4668 140.925 52.4668 139.536C52.4668 138.146 53.2854 137.303 54.3605 137.303C55.0221 137.303 55.4274 137.609 55.6589 137.94H55.6755V135.732H56.4858V141.645H55.6755V141.148H55.6589C55.4274 141.446 55.0221 141.76 54.3605 141.76ZM53.3103 139.536C53.3103 140.363 53.699 141.09 54.4929 141.09C55.2206 141.09 55.6672 140.487 55.6672 139.536C55.6672 138.576 55.2206 137.981 54.4929 137.981C53.699 137.981 53.3103 138.709 53.3103 139.536Z" fill="black"/>
<path d="M27.7574 129.5V124.712H17.7881V121.682L27.7574 108.562H31.03V121.894H33.9692V124.712H31.03V129.5H27.7574ZM20.8183 121.894H27.7574V112.773L20.8183 121.894ZM45.6306 129.5V124.712H35.6614V121.682L45.6306 108.562H48.9032V121.894H51.8425V124.712H48.9032V129.5H45.6306ZM38.6915 121.894H45.6306V112.773L38.6915 121.894ZM58.1144 129.5L69.7502 108.562H72.3562L60.7204 129.5H58.1144ZM53.2056 114.137C53.2056 110.804 54.9327 108.137 58.4477 108.137C61.8718 108.137 63.6596 110.804 63.6596 114.137C63.6596 117.501 61.9324 120.167 58.4477 120.167C54.9933 120.167 53.2056 117.501 53.2056 114.137ZM55.963 114.137C55.963 116.44 56.7508 117.894 58.4477 117.894C60.1143 117.894 60.9022 116.44 60.9022 114.137C60.9022 111.834 60.1143 110.38 58.4477 110.38C56.7508 110.38 55.963 111.834 55.963 114.137ZM66.8413 123.924C66.8413 120.561 68.5685 117.894 72.0532 117.894C75.5076 117.894 77.2651 120.561 77.2651 123.924C77.2651 127.258 75.5379 129.924 72.0532 129.924C68.5988 129.924 66.8413 127.258 66.8413 123.924ZM69.5684 123.924C69.5684 126.227 70.3866 127.682 72.0532 127.682C73.7198 127.682 74.5379 126.227 74.5379 123.924C74.5379 121.622 73.7198 120.167 72.0532 120.167C70.3866 120.167 69.5684 121.622 69.5684 123.924Z" fill="black"/>
</g>
<defs>
<clipPath id="clip0_507_575">
<rect width="162" height="161" fill="white" transform="translate(0 0.5)"/>
</clipPath>
</defs>
</svg>
