<svg width="430" height="932" viewBox="0 0 430 932" fill="none" xmlns="http://www.w3.org/2000/svg">
    <g clip-path="url(#clip0_656_368)">
    <rect width="430" height="932" fill="#1C1C1C"/>
    <path d="M41.44 76H36.68L29.56 47.4H34.16L39.2 69.92H39.28L45.2 47.4H49.84L55.8 69.92H55.88L60.92 47.4H65.52L58.36 76H53.64L47.56 53H47.48L41.44 76ZM72.0744 76.56C67.9944 76.56 65.3944 74.2 65.3944 70.72C65.3944 66.16 68.8344 64.8 73.9144 63.84C77.1144 63.24 79.0744 62.84 79.0744 60.84C79.0744 59.36 78.1944 58.12 75.1944 58.12C71.6344 58.12 70.5544 59.24 70.3544 61.96H66.3544C66.5544 58.04 69.1144 54.96 75.3544 54.96C79.5544 54.96 82.9144 56.72 82.9144 62V71.36C82.9144 72.84 83.1144 73.6 83.8744 73.6C83.9944 73.6 84.1144 73.6 84.3544 73.56V75.96C83.6744 76.12 82.9944 76.2 82.3544 76.2C80.3944 76.2 79.3544 75.44 79.1144 73.12H79.0344C77.7144 75.24 75.3944 76.56 72.0744 76.56ZM72.9544 73.4C76.4744 73.4 79.0744 71.6 79.0744 68.04V65.12C78.4344 65.72 76.6744 66.16 74.5944 66.6C70.9944 67.32 69.4744 68.32 69.4744 70.44C69.4744 72.36 70.5144 73.4 72.9544 73.4ZM94.8138 73C95.4938 73 95.8138 72.96 96.4938 72.84V76C95.4938 76.2 94.8538 76.24 94.0138 76.24C90.6538 76.24 88.6138 74.96 88.6138 70.24V58.84H85.6538V55.6H88.6138V49.04H92.5338V55.6H96.4538V58.84H92.5338V70.36C92.5338 72.52 93.1338 73 94.8138 73ZM108.246 76.6C102.166 76.6 98.2059 72.2 98.2059 65.8C98.2059 59.4 102.166 55 108.206 55C113.446 55 116.926 58.4 117.406 63H113.366C113.166 60.88 111.966 58.24 108.246 58.24C103.886 58.24 102.286 61.96 102.286 65.8C102.286 69.64 103.886 73.32 108.246 73.32C112.006 73.32 113.166 70.76 113.366 68.44H117.406C117.126 73.12 113.486 76.6 108.246 76.6ZM131.256 55C135.016 55 138.056 57.16 138.056 61.84V76H134.136V62.92C134.136 60.2 132.936 58.36 129.976 58.36C126.616 58.36 124.456 60.4 124.456 63.48V76H120.536V47.4H124.456V58.16H124.536C125.616 56.6 127.736 55 131.256 55ZM146.214 76H142.294V47.4H146.214V76ZM154.814 51.96H150.374V47.72H154.814V51.96ZM154.534 76H150.614V55.6H154.534V76ZM166.974 76.56C160.774 76.56 157.694 73.36 157.574 69.2H161.534C161.694 71.56 163.134 73.4 166.934 73.4C170.374 73.4 171.294 71.88 171.294 70.4C171.294 67.84 168.574 67.56 165.934 67C162.374 66.16 158.294 65.12 158.294 60.88C158.294 57.36 161.134 55 166.054 55C171.654 55 174.334 58 174.614 61.52H170.654C170.374 59.96 169.534 58.16 166.134 58.16C163.494 58.16 162.374 59.2 162.374 60.72C162.374 62.84 164.654 63.04 167.534 63.68C171.294 64.56 175.374 65.64 175.374 70.2C175.374 74.16 172.334 76.56 166.974 76.56ZM185.751 73C186.431 73 186.751 72.96 187.431 72.84V76C186.431 76.2 185.791 76.24 184.951 76.24C181.591 76.24 179.551 74.96 179.551 70.24V58.84H176.591V55.6H179.551V49.04H183.471V55.6H187.391V58.84H183.471V70.36C183.471 72.52 184.071 73 185.751 73Z" fill="#FF9447"/>
    <path d="M399 74L393 68M381 63C381 63.9193 381.181 64.8295 381.533 65.6788C381.885 66.5281 382.4 67.2997 383.05 67.9497C383.7 68.5998 384.472 69.1154 385.321 69.4672C386.17 69.8189 387.081 70 388 70C388.919 70 389.83 69.8189 390.679 69.4672C391.528 69.1154 392.3 68.5998 392.95 67.9497C393.6 67.2997 394.115 66.5281 394.467 65.6788C394.819 64.8295 395 63.9193 395 63C395 62.0807 394.819 61.1705 394.467 60.3212C394.115 59.4719 393.6 58.7003 392.95 58.0503C392.3 57.4002 391.528 56.8846 390.679 56.5328C389.83 56.1811 388.919 56 388 56C387.081 56 386.17 56.1811 385.321 56.5328C384.472 56.8846 383.7 57.4002 383.05 58.0503C382.4 58.7003 381.885 59.4719 381.533 60.3212C381.181 61.1705 381 62.0807 381 63Z" stroke="#FF9447" stroke-width="2.5" stroke-linecap="round" stroke-linejoin="round"/>
    <path d="M-13 144H443.5" stroke="#FF9447" stroke-linecap="round"/>
    <path d="M32.58 116H30.42V101.7H33.32L37.44 112.94H37.48L41.62 101.7H44.52V116H42.36V104.9H42.32L38.38 116H36.56L32.62 104.9H32.58V116ZM48.2169 119.58C47.7769 119.58 47.4769 119.54 46.9569 119.44V117.84C47.2969 117.88 47.4769 117.9 47.7969 117.9C48.5769 117.9 49.4969 117.5 49.8969 115.9L45.7769 105.8H47.9169L50.8969 113.6H50.9369L53.7369 105.8H55.7969L51.7569 116.24C50.7769 118.76 49.7969 119.58 48.2169 119.58ZM63.2059 116H61.0059V101.7H70.9259V103.6H63.2059V107.9H69.4459V109.8H63.2059V116ZM73.9747 116.28C71.9347 116.28 70.6347 115.1 70.6347 113.36C70.6347 111.08 72.3547 110.4 74.8947 109.92C76.4947 109.62 77.4747 109.42 77.4747 108.42C77.4747 107.68 77.0347 107.06 75.5347 107.06C73.7547 107.06 73.2147 107.62 73.1147 108.98H71.1147C71.2147 107.02 72.4947 105.48 75.6147 105.48C77.7147 105.48 79.3947 106.36 79.3947 109V113.68C79.3947 114.42 79.4947 114.8 79.8747 114.8C79.9347 114.8 79.9947 114.8 80.1147 114.78V115.98C79.7747 116.06 79.4347 116.1 79.1147 116.1C78.1347 116.1 77.6147 115.72 77.4947 114.56H77.4547C76.7947 115.62 75.6347 116.28 73.9747 116.28ZM74.4147 114.7C76.1747 114.7 77.4747 113.8 77.4747 112.02V110.56C77.1547 110.86 76.2747 111.08 75.2347 111.3C73.4347 111.66 72.6747 112.16 72.6747 113.22C72.6747 114.18 73.1947 114.7 74.4147 114.7ZM86.2886 116H84.0886L80.4486 105.8H82.5486L85.2286 113.98H85.2486L87.8886 105.8H89.9286L86.2886 116ZM95.4022 116.3C92.2222 116.3 90.3022 114.1 90.3022 110.9C90.3022 107.72 92.2222 105.48 95.4222 105.48C98.5822 105.48 100.502 107.7 100.502 110.88C100.502 114.08 98.5822 116.3 95.4022 116.3ZM95.4222 114.68C97.5022 114.68 98.4622 113.02 98.4622 110.9C98.4622 108.76 97.5022 107.12 95.4222 107.12C93.3022 107.12 92.3422 108.76 92.3422 110.9C92.3422 113.02 93.3022 114.68 95.4222 114.68ZM106.91 105.56C107.27 105.56 107.55 105.58 107.85 105.62V107.5C107.61 107.46 107.43 107.44 107.19 107.44C105.41 107.44 104.13 108.78 104.13 110.72V116H102.17V105.8H104.13V107.74H104.17C104.71 106.46 105.53 105.56 106.91 105.56ZM111.223 103.98H109.003V101.86H111.223V103.98ZM111.083 116H109.123V105.8H111.083V116ZM117.044 114.5C117.384 114.5 117.544 114.48 117.884 114.42V116C117.384 116.1 117.064 116.12 116.644 116.12C114.964 116.12 113.944 115.48 113.944 113.12V107.42H112.464V105.8H113.944V102.52H115.904V105.8H117.864V107.42H115.904V113.18C115.904 114.26 116.204 114.5 117.044 114.5ZM128.64 110.68C128.64 110.96 128.64 111.26 128.62 111.42H120.78C120.82 113.12 121.82 114.7 123.84 114.7C125.64 114.7 126.34 113.54 126.52 112.86H128.52C127.98 114.82 126.48 116.3 123.8 116.3C120.56 116.3 118.76 114 118.76 110.88C118.76 107.68 120.68 105.48 123.8 105.48C126.9 105.48 128.64 107.52 128.64 110.68ZM120.78 109.88H126.6C126.6 108.28 125.48 107.08 123.74 107.08C122.1 107.08 120.9 108.2 120.78 109.88ZM134.315 116.28C131.215 116.28 129.675 114.68 129.615 112.6H131.595C131.675 113.78 132.395 114.7 134.295 114.7C136.015 114.7 136.475 113.94 136.475 113.2C136.475 111.92 135.115 111.78 133.795 111.5C132.015 111.08 129.975 110.56 129.975 108.44C129.975 106.68 131.395 105.5 133.855 105.5C136.655 105.5 137.995 107 138.135 108.76H136.155C136.015 107.98 135.595 107.08 133.895 107.08C132.575 107.08 132.015 107.6 132.015 108.36C132.015 109.42 133.155 109.52 134.595 109.84C136.475 110.28 138.515 110.82 138.515 113.1C138.515 115.08 136.995 116.28 134.315 116.28ZM146.301 116V105.74C145.701 106.3 144.641 106.4 143.401 106.4V104.64C145.841 104.58 146.561 103.84 146.741 102.18H148.461V116H146.301Z" fill="white"/>
    <path d="M163 105L171.5 113L180 105" stroke="white" stroke-width="2" stroke-linecap="round" stroke-linejoin="round"/>
    <rect x="-1" y="144" width="431" height="77" fill="#2B2B2B"/>
    <rect x="-1" y="298" width="431" height="77" fill="#2B2B2B"/>
    <rect x="-1" y="452" width="431" height="77" fill="#2B2B2B"/>
    <rect x="-1" y="221" width="431" height="77" fill="#1C1C1C"/>
    <rect x="-1" y="375" width="431" height="77" fill="#1C1C1C"/>
    <path d="M31.8363 177H30.125V165.671H32.4226L35.6868 174.576H35.7185L38.9985 165.671H41.296V177H39.5847V168.206H39.553L36.4315 177H34.9896L31.868 168.206H31.8363V177ZM48.1045 177.222C44.8403 177.222 43.0023 174.75 43.0023 171.327C43.0023 167.921 45.078 165.449 48.3105 165.449C51.2419 165.449 52.7947 167.017 53.1592 169.172H51.337C51.0359 167.746 49.9742 166.954 48.2946 166.954C45.7911 166.954 44.8245 169.204 44.8245 171.327C44.8245 173.466 45.5534 175.717 48.1996 175.717C50.0693 175.717 51.5588 174.417 51.5746 172.532H48.2313V171.074H53.3493V177H52.1451L51.7172 175.431H51.6856C50.8933 176.588 49.8316 177.222 48.1045 177.222ZM62.7029 177H55.2239V165.671H56.9669V175.495H62.7029V177Z" fill="white"/>
    <path d="M353.158 177L349.023 165.671H350.274L353.76 175.827H353.776L357.231 165.671H358.435L354.362 177H353.158ZM349.023 170.186V169.172H358.435V170.186H349.023ZM349.91 172.738V171.723H357.532V172.738H349.91ZM363.5 169.505C363.5 171.153 364.451 172.135 365.909 172.135C367.43 172.135 368.634 171.137 368.634 169.394C368.634 167.984 367.715 166.859 366.02 166.859C364.388 166.859 363.5 167.921 363.5 169.505ZM365.925 177.206C364.023 177.206 362.74 175.923 362.597 174.275H363.786C363.928 175.447 364.657 176.192 365.925 176.192C368.191 176.192 368.888 174.084 368.888 171.549V171.232L368.856 171.216C368.349 172.532 367.113 173.165 365.814 173.165C363.722 173.165 362.296 171.708 362.296 169.569C362.296 167.509 363.69 165.845 366.02 165.845C368.856 165.845 370.029 167.952 370.029 171.391C370.029 175.067 368.571 177.206 365.925 177.206ZM372.428 177C372.428 173.53 374.377 169.188 376.833 167.097V167.065H370.701V166.051H378.148V166.938C375.233 169.299 373.632 173.657 373.632 177H372.428ZM377.85 177V175.669H379.181V177H377.85ZM384.367 177.206C381.468 177.206 380.247 174.639 380.247 171.533C380.247 168.428 381.468 165.845 384.367 165.845C387.267 165.845 388.503 168.428 388.503 171.533C388.503 174.639 387.267 177.206 384.367 177.206ZM381.452 171.533C381.452 174.021 382.212 176.192 384.367 176.192C386.538 176.192 387.299 174.021 387.299 171.533C387.299 169.03 386.538 166.859 384.367 166.859C382.212 166.859 381.452 169.03 381.452 171.533ZM394.116 177.206C391.216 177.206 389.996 174.639 389.996 171.533C389.996 168.428 391.216 165.845 394.116 165.845C397.016 165.845 398.252 168.428 398.252 171.533C398.252 174.639 397.016 177.206 394.116 177.206ZM391.2 171.533C391.2 174.021 391.961 176.192 394.116 176.192C396.287 176.192 397.047 174.021 397.047 171.533C397.047 169.03 396.287 166.859 394.116 166.859C391.961 166.859 391.2 169.03 391.2 171.533Z" fill="#FF5353"/>
    <path opacity="0.3" d="M29.7875 194V186.069H31.1851L34.8676 192.17H34.8897V186.069H36.1209V194H34.7234L31.0298 187.9H31.0076V194H29.7875ZM40.6784 194.155C38.6708 194.155 37.2622 193.113 37.1734 191.327H38.4379C38.5266 192.392 39.1589 193.113 40.6452 193.113C41.9207 193.113 42.3089 192.558 42.3089 191.837C42.3089 190.828 41.5325 190.684 40.0906 190.318C38.8483 189.985 37.484 189.585 37.484 188.077C37.484 186.702 38.5488 185.914 40.257 185.914C42.0649 185.914 43.2406 186.835 43.3627 188.432H42.0982C41.9651 187.478 41.4216 186.957 40.268 186.957C39.2698 186.957 38.7596 187.323 38.7596 188.01C38.7596 188.898 39.5914 189.086 40.6119 189.341C42.1426 189.73 43.5845 190.096 43.5845 191.771C43.5845 193.135 42.6639 194.155 40.6784 194.155ZM44.7029 194V186.069H50.3154V187.123H45.923V189.375H49.7719V190.428H45.923V192.946H50.4263V194H44.7029Z" fill="white"/>
    <path opacity="0.3" d="M330.162 190.92V189.99H332.842V190.92H330.162ZM336.388 193.14C334.408 193.14 333.698 191.67 333.698 189.56C333.698 187.29 334.688 185.95 336.398 185.95C337.698 185.95 338.548 186.81 338.668 187.84H337.558C337.468 187.27 337.138 186.85 336.398 186.85C335.108 186.85 334.778 188.05 334.778 189.24V189.34L334.808 189.35C335.168 188.77 335.798 188.44 336.588 188.44C337.928 188.44 338.858 189.38 338.858 190.74C338.858 192.08 337.918 193.14 336.388 193.14ZM334.898 190.82C334.898 191.66 335.418 192.24 336.358 192.24C337.268 192.24 337.758 191.67 337.758 190.8C337.758 189.89 337.228 189.35 336.428 189.35C335.478 189.35 334.898 189.95 334.898 190.82ZM342.794 193V191.42H339.504V190.42L342.794 186.09H343.874V190.49H344.844V191.42H343.874V193H342.794ZM340.504 190.49H342.794V187.48L340.504 190.49ZM345.339 193V191.91H346.429V193H345.339ZM347.669 193C347.669 190.71 349.089 188.13 350.319 187.04V187.02H346.639V186.09H351.499V186.92C349.929 188.23 348.809 190.79 348.809 193H347.669ZM354.528 193.14C352.878 193.14 351.978 192.14 351.938 190.98H353.038C353.108 191.61 353.468 192.21 354.468 192.21C355.348 192.21 355.928 191.67 355.928 190.64C355.928 189.67 355.398 189.23 354.538 189.23C353.978 189.23 353.468 189.42 353.138 189.85H352.028L352.768 186.09H356.698V187.02H353.598L353.218 188.93V188.95C353.578 188.58 354.088 188.35 354.828 188.35C356.138 188.35 357.048 189.32 357.048 190.64C357.048 192.17 355.948 193.14 354.528 193.14ZM361.218 194.22C360.468 193.21 359.828 191.64 359.828 189.83C359.828 187.96 360.468 186.43 361.218 185.42H362.078C361.428 186.63 360.918 187.98 360.918 189.83C360.918 191.64 361.428 193.01 362.078 194.22H361.218ZM365.411 193V191.42H362.121V190.42L365.411 186.09H366.491V190.49H367.461V191.42H366.491V193H365.411ZM363.121 190.49H365.411V187.48L363.121 190.49ZM370.94 193.14C369.01 193.14 368.19 191.53 368.19 189.55C368.19 187.57 369.01 185.95 370.94 185.95C372.87 185.95 373.68 187.57 373.68 189.55C373.68 191.53 372.87 193.14 370.94 193.14ZM369.32 189.55C369.32 190.97 369.69 192.21 370.94 192.21C372.18 192.21 372.55 190.97 372.55 189.55C372.55 188.13 372.18 186.88 370.94 186.88C369.69 186.88 369.32 188.13 369.32 189.55ZM374.274 193V191.91H375.364V193H374.274ZM378.713 193.14C376.783 193.14 375.963 191.53 375.963 189.55C375.963 187.57 376.783 185.95 378.713 185.95C380.643 185.95 381.453 187.57 381.453 189.55C381.453 191.53 380.643 193.14 378.713 193.14ZM377.093 189.55C377.093 190.97 377.463 192.21 378.713 192.21C379.953 192.21 380.323 190.97 380.323 189.55C380.323 188.13 379.953 186.88 378.713 186.88C377.463 186.88 377.093 188.13 377.093 189.55ZM384.981 193.14C383.201 193.14 382.201 192.22 382.201 190.64H383.301C383.301 191.59 383.701 192.21 384.911 192.21C386.001 192.21 386.371 191.77 386.371 191.03C386.371 190.08 385.691 189.85 384.991 189.85H384.341V188.96H384.951C385.641 188.96 386.131 188.65 386.131 187.9C386.131 187.36 385.801 186.88 384.951 186.88C383.781 186.88 383.491 187.5 383.491 188.17H382.391C382.391 186.89 383.261 185.95 384.961 185.95C386.191 185.95 387.251 186.63 387.251 187.85C387.251 188.59 386.871 189.05 386.211 189.33V189.35C387.121 189.64 387.491 190.24 387.491 191.05C387.491 192.39 386.501 193.14 384.981 193.14ZM389.726 193L393.566 186.09H394.426L390.586 193H389.726ZM388.106 187.93C388.106 186.83 388.676 185.95 389.836 185.95C390.966 185.95 391.556 186.83 391.556 187.93C391.556 189.04 390.986 189.92 389.836 189.92C388.696 189.92 388.106 189.04 388.106 187.93ZM389.016 187.93C389.016 188.69 389.276 189.17 389.836 189.17C390.386 189.17 390.646 188.69 390.646 187.93C390.646 187.17 390.386 186.69 389.836 186.69C389.276 186.69 389.016 187.17 389.016 187.93ZM392.606 191.16C392.606 190.05 393.176 189.17 394.326 189.17C395.466 189.17 396.046 190.05 396.046 191.16C396.046 192.26 395.476 193.14 394.326 193.14C393.186 193.14 392.606 192.26 392.606 191.16ZM393.506 191.16C393.506 191.92 393.776 192.4 394.326 192.4C394.876 192.4 395.146 191.92 395.146 191.16C395.146 190.4 394.876 189.92 394.326 189.92C393.776 189.92 393.506 190.4 393.506 191.16ZM396.416 194.22C397.066 193.01 397.586 191.65 397.586 189.8C397.586 187.99 397.066 186.63 396.416 185.42H397.276C398.026 186.43 398.666 187.99 398.666 189.8C398.666 191.67 398.026 193.21 397.276 194.22H396.416Z" fill="white"/>
    <path d="M34.3874 254.706C31.5194 254.706 29.5071 253.217 29.3803 250.666H31.1867C31.3134 252.187 32.2166 253.217 34.3399 253.217C36.1621 253.217 36.7167 252.424 36.7167 251.395C36.7167 249.953 35.6075 249.747 33.5476 249.224C31.7729 248.748 29.824 248.178 29.824 246.023C29.824 244.058 31.3451 242.933 33.7853 242.933C36.3681 242.933 38.0477 244.248 38.222 246.53H36.4157C36.2255 245.167 35.4491 244.423 33.8012 244.423C32.3751 244.423 31.6462 244.945 31.6462 245.928C31.6462 247.195 32.8346 247.465 34.2924 247.829C36.479 248.384 38.5389 248.907 38.5389 251.299C38.5389 253.248 37.2238 254.706 34.3874 254.706ZM40.1367 254.484V243.155H41.8797V254.484H40.1367ZM44.129 254.484V243.155H52.1468V244.66H45.872V247.877H51.3704V249.382H45.872V252.979H52.3053V254.484H44.129ZM53.9396 254.484V243.155H56.2371L59.5013 252.06H59.533L62.813 243.155H65.1106V254.484H63.3993V245.69H63.3676L60.246 254.484H58.8041L55.6826 245.69H55.6509V254.484H53.9396ZM67.3556 254.484V243.155H75.3733V244.66H69.0985V247.877H74.5969V249.382H69.0985V252.979H75.5318V254.484H67.3556ZM77.1661 254.484V243.155H79.1626L84.4233 251.87H84.455V243.155H86.2138V254.484H84.2173L78.9408 245.769H78.9091V254.484H77.1661ZM92.7246 254.706C89.8565 254.706 87.8442 253.217 87.7174 250.666H89.5238C89.6505 252.187 90.5537 253.217 92.677 253.217C94.4992 253.217 95.0538 252.424 95.0538 251.395C95.0538 249.953 93.9446 249.747 91.8847 249.224C90.1101 248.748 88.1611 248.178 88.1611 246.023C88.1611 244.058 89.6822 242.933 92.1224 242.933C94.7052 242.933 96.3848 244.248 96.5591 246.53H94.7528C94.5626 245.167 93.7862 244.423 92.1383 244.423C90.7122 244.423 89.9833 244.945 89.9833 245.928C89.9833 247.195 91.1717 247.465 92.6295 247.829C94.8161 248.384 96.8761 248.907 96.8761 251.299C96.8761 253.248 95.5609 254.706 92.7246 254.706Z" fill="white"/>
    <path d="M347.263 254L343.127 242.671H344.379L347.865 252.827H347.881L351.335 242.671H352.539L348.467 254H347.263ZM343.127 247.186V246.172H352.539V247.186H343.127ZM344.014 249.738V248.723H351.636V249.738H344.014ZM358.191 245.364C357.668 245.919 356.892 245.998 355.909 245.998V245.031C357.827 244.984 358.286 244.382 358.413 243.051H359.332V254H358.191V245.364ZM365.394 254.206C362.732 254.206 361.179 252.764 361.179 250.34H362.384C362.384 252.019 363.208 253.192 365.315 253.192C367.216 253.192 367.977 252.336 367.977 250.974C367.977 249.31 366.709 248.787 365.584 248.787H364.412V247.773H365.521C366.709 247.773 367.565 247.123 367.565 245.808C367.565 244.826 366.947 243.859 365.378 243.859C363.176 243.859 362.685 245.111 362.685 246.283H361.48C361.48 244.318 362.764 242.845 365.378 242.845C367.169 242.845 368.769 243.922 368.769 245.808C368.769 247.028 368.167 247.757 367.058 248.201V248.232C368.532 248.692 369.181 249.674 369.181 250.974C369.181 253.033 367.66 254.206 365.394 254.206ZM371.763 246.505C371.763 248.153 372.714 249.135 374.172 249.135C375.693 249.135 376.897 248.137 376.897 246.394C376.897 244.984 375.978 243.859 374.283 243.859C372.651 243.859 371.763 244.921 371.763 246.505ZM374.188 254.206C372.286 254.206 371.003 252.923 370.86 251.275H372.049C372.191 252.447 372.92 253.192 374.188 253.192C376.454 253.192 377.151 251.084 377.151 248.549V248.232L377.119 248.216C376.612 249.532 375.376 250.165 374.077 250.165C371.985 250.165 370.559 248.708 370.559 246.569C370.559 244.509 371.954 242.845 374.283 242.845C377.119 242.845 378.292 244.952 378.292 248.391C378.292 252.067 376.834 254.206 374.188 254.206ZM379.366 254V252.669H380.697V254H379.366ZM381.975 254C381.975 251.972 383.226 250.466 385.207 249.357C387.204 248.216 388.297 247.741 388.297 246.077C388.297 245 387.774 243.859 386.094 243.859C384.193 243.859 383.48 245.19 383.48 246.743H382.292C382.292 244.62 383.527 242.845 386.11 242.845C387.98 242.845 389.501 244.017 389.501 246.061C389.501 248.137 387.869 249.088 386.269 249.991C384.938 250.752 383.559 251.496 383.353 252.954V252.986H389.39V254H381.975ZM394.585 254.206C392.097 254.206 390.814 252.606 390.766 250.91H391.954C392.065 252.13 392.778 253.192 394.537 253.192C396.09 253.192 397.199 252.225 397.199 250.292C397.199 248.486 396.154 247.725 394.68 247.725C393.523 247.725 392.652 248.216 392.16 248.882H390.925L392.081 243.051H397.833V244.065H393.016L392.271 247.725V247.757C392.874 247.076 393.777 246.711 394.933 246.711C397.025 246.711 398.404 248.264 398.404 250.292C398.404 252.637 396.787 254.206 394.585 254.206Z" fill="#39FC94"/>
    <path opacity="0.3" d="M29.7875 271.293V263.362H33.1261C34.7566 263.362 35.7105 264.094 35.7105 265.359C35.7105 266.335 35.1338 266.79 34.4793 267.012V267.034C35.3112 267.178 36.0211 267.788 36.0211 268.975C36.0211 270.494 34.9674 271.293 33.3258 271.293H29.7875ZM31.0076 270.239H33.2371C34.4128 270.239 34.7455 269.674 34.7455 268.93C34.7455 268.099 34.2353 267.622 33.4034 267.622H31.0076V270.239ZM31.0076 266.657H33.0929C34.0911 266.657 34.435 266.246 34.435 265.536C34.435 264.838 34.0135 264.416 33.1816 264.416H31.0076V266.657ZM40.1693 271.448C38.1617 271.448 36.7531 270.406 36.6643 268.62H37.9288C38.0175 269.685 38.6498 270.406 40.1361 270.406C41.4116 270.406 41.7998 269.851 41.7998 269.13C41.7998 268.121 41.0234 267.977 39.5815 267.61C38.3392 267.278 36.9749 266.878 36.9749 265.37C36.9749 263.995 38.0397 263.207 39.7479 263.207C41.5558 263.207 42.7315 264.128 42.8536 265.725H41.5891C41.456 264.771 40.9125 264.25 39.7589 264.25C38.7607 264.25 38.2505 264.616 38.2505 265.303C38.2505 266.191 39.0823 266.379 40.1028 266.634C41.6335 267.023 43.0754 267.389 43.0754 269.064C43.0754 270.428 42.1548 271.448 40.1693 271.448ZM44.1938 271.293V263.362H49.8063V264.416H45.4139V266.668H49.2628V267.721H45.4139V270.239H49.9172V271.293H44.1938Z" fill="white"/>
    <path opacity="0.3" d="M330.998 269.584V267.684H329.158V266.754H330.998V264.854H331.928V266.754H333.768V267.684H331.928V269.584H330.998ZM337.174 270.624C335.524 270.624 334.624 269.624 334.584 268.464H335.684C335.754 269.094 336.114 269.694 337.114 269.694C337.994 269.694 338.574 269.154 338.574 268.124C338.574 267.154 338.044 266.714 337.184 266.714C336.624 266.714 336.114 266.904 335.784 267.334H334.674L335.414 263.574H339.344V264.504H336.244L335.864 266.414V266.434C336.224 266.064 336.734 265.834 337.474 265.834C338.784 265.834 339.694 266.804 339.694 268.124C339.694 269.654 338.594 270.624 337.174 270.624ZM343.085 270.624C341.585 270.624 340.435 269.934 340.435 268.534C340.435 267.584 341.065 267.104 341.725 266.814V266.794C341.235 266.534 340.775 266.094 340.775 265.314C340.775 264.124 341.745 263.434 343.085 263.434C344.435 263.434 345.405 264.124 345.405 265.314C345.405 266.094 344.935 266.534 344.455 266.794V266.814C345.105 267.104 345.745 267.584 345.745 268.534C345.745 269.934 344.595 270.624 343.085 270.624ZM341.555 268.474C341.555 269.264 342.125 269.724 343.085 269.724C344.045 269.724 344.615 269.264 344.615 268.474C344.615 267.704 344.045 267.244 343.085 267.244C342.125 267.244 341.555 267.704 341.555 268.474ZM341.855 265.354C341.855 266.054 342.315 266.384 343.085 266.384C343.865 266.384 344.325 266.054 344.325 265.354C344.325 264.664 343.865 264.314 343.085 264.314C342.315 264.314 341.855 264.664 341.855 265.354ZM346.579 270.484V269.394H347.669V270.484H346.579ZM351.221 270.624C349.441 270.624 348.441 269.704 348.441 268.124H349.541C349.541 269.074 349.941 269.694 351.151 269.694C352.241 269.694 352.611 269.254 352.611 268.514C352.611 267.564 351.931 267.334 351.231 267.334H350.581V266.444H351.191C351.881 266.444 352.371 266.134 352.371 265.384C352.371 264.844 352.041 264.364 351.191 264.364C350.021 264.364 349.731 264.984 349.731 265.654H348.631C348.631 264.374 349.501 263.434 351.201 263.434C352.431 263.434 353.491 264.114 353.491 265.334C353.491 266.074 353.111 266.534 352.451 266.814V266.834C353.361 267.124 353.731 267.724 353.731 268.534C353.731 269.874 352.741 270.624 351.221 270.624ZM357.317 270.624C355.387 270.624 354.567 269.014 354.567 267.034C354.567 265.054 355.387 263.434 357.317 263.434C359.247 263.434 360.057 265.054 360.057 267.034C360.057 269.014 359.247 270.624 357.317 270.624ZM355.697 267.034C355.697 268.454 356.067 269.694 357.317 269.694C358.557 269.694 358.927 268.454 358.927 267.034C358.927 265.614 358.557 264.364 357.317 264.364C356.067 264.364 355.697 265.614 355.697 267.034ZM364.294 271.704C363.544 270.694 362.904 269.124 362.904 267.314C362.904 265.444 363.544 263.914 364.294 262.904H365.154C364.504 264.114 363.994 265.464 363.994 267.314C363.994 269.124 364.504 270.494 365.154 271.704H364.294ZM365.598 270.484C365.598 269.184 366.388 268.284 367.708 267.464C368.878 266.754 369.468 266.464 369.468 265.544C369.468 264.974 369.238 264.364 368.298 264.364C367.218 264.364 366.878 265.064 366.878 266.014H365.778C365.778 264.544 366.578 263.434 368.328 263.434C369.578 263.434 370.588 264.184 370.588 265.504C370.588 266.844 369.498 267.534 368.508 268.144C367.828 268.544 367.188 268.924 366.988 269.534V269.554H370.508V270.484H365.598ZM373.862 270.624C372.572 270.624 371.722 269.764 371.592 268.734H372.712C372.792 269.304 373.132 269.724 373.872 269.724C375.152 269.724 375.492 268.524 375.492 267.334V267.234L375.462 267.224C375.102 267.804 374.462 268.134 373.682 268.134C372.342 268.134 371.412 267.194 371.412 265.834C371.412 264.494 372.342 263.434 373.882 263.434C375.862 263.434 376.572 264.904 376.572 267.014C376.572 269.284 375.582 270.624 373.862 270.624ZM372.512 265.774C372.512 266.684 373.042 267.224 373.842 267.224C374.782 267.224 375.372 266.624 375.372 265.754C375.372 264.914 374.852 264.334 373.902 264.334C373.002 264.334 372.512 264.904 372.512 265.774ZM377.184 270.484V269.394H378.274V270.484H377.184ZM381.657 270.624C380.007 270.624 379.107 269.624 379.067 268.464H380.167C380.237 269.094 380.597 269.694 381.597 269.694C382.477 269.694 383.057 269.154 383.057 268.124C383.057 267.154 382.527 266.714 381.667 266.714C381.107 266.714 380.597 266.904 380.267 267.334H379.157L379.897 263.574H383.827V264.504H380.727L380.347 266.414V266.434C380.707 266.064 381.217 265.834 381.957 265.834C383.267 265.834 384.177 266.804 384.177 268.124C384.177 269.654 383.077 270.624 381.657 270.624ZM386.068 265.354C385.768 265.634 385.238 265.684 384.618 265.684V264.804C385.838 264.774 386.198 264.404 386.288 263.574H387.148V270.484H386.068V265.354ZM389.726 270.484L393.566 263.574H394.426L390.586 270.484H389.726ZM388.106 265.414C388.106 264.314 388.676 263.434 389.836 263.434C390.966 263.434 391.556 264.314 391.556 265.414C391.556 266.524 390.986 267.404 389.836 267.404C388.696 267.404 388.106 266.524 388.106 265.414ZM389.016 265.414C389.016 266.174 389.276 266.654 389.836 266.654C390.386 266.654 390.646 266.174 390.646 265.414C390.646 264.654 390.386 264.174 389.836 264.174C389.276 264.174 389.016 264.654 389.016 265.414ZM392.606 268.644C392.606 267.534 393.176 266.654 394.326 266.654C395.466 266.654 396.046 267.534 396.046 268.644C396.046 269.744 395.476 270.624 394.326 270.624C393.186 270.624 392.606 269.744 392.606 268.644ZM393.506 268.644C393.506 269.404 393.776 269.884 394.326 269.884C394.876 269.884 395.146 269.404 395.146 268.644C395.146 267.884 394.876 267.404 394.326 267.404C393.776 267.404 393.506 267.884 393.506 268.644ZM396.416 271.704C397.066 270.494 397.586 269.134 397.586 267.284C397.586 265.474 397.066 264.114 396.416 262.904H397.276C398.026 263.914 398.666 265.474 398.666 267.284C398.666 269.154 398.026 270.694 397.276 271.704H396.416Z" fill="white"/>
    <path d="M34.8628 331.222C31.6462 331.222 29.5704 328.75 29.5704 325.343C29.5704 321.921 31.662 319.449 34.8786 319.449C37.715 319.449 39.4738 321.255 39.7432 323.521H37.921C37.715 322.412 37.0178 320.954 34.847 320.954C32.3434 320.954 31.3927 323.077 31.3927 325.327C31.3927 327.593 32.3434 329.717 34.847 329.717C37.0336 329.717 37.81 328.259 37.921 326.88H39.7432C39.4897 329.4 37.715 331.222 34.8628 331.222ZM41.3128 331V319.671H46.0347C48.5383 319.671 49.8851 320.843 49.8851 322.935C49.8851 324.377 49.0136 325.422 47.7618 325.708V325.739C50.3922 326.231 49.4256 330.699 50.0436 330.889V331H48.1738C47.6668 330.525 48.7442 326.563 45.9713 326.563H43.0557V331H41.3128ZM43.0557 325.058H45.6544C47.2548 325.058 48.1263 324.361 48.1263 323.061C48.1263 321.841 47.4291 321.176 45.6861 321.176H43.0557V325.058ZM51.7113 331V319.671H53.4543V331H51.7113ZM59.966 331.222C57.098 331.222 55.0856 329.732 54.9589 327.181H56.7652C56.892 328.702 57.7952 329.732 59.9185 329.732C61.7407 329.732 62.2953 328.94 62.2953 327.91C62.2953 326.468 61.1861 326.262 59.1262 325.739C57.3515 325.264 55.4025 324.694 55.4025 322.539C55.4025 320.574 56.9237 319.449 59.3639 319.449C61.9467 319.449 63.6263 320.764 63.8006 323.046H61.9942C61.8041 321.683 61.0277 320.938 59.3797 320.938C57.9537 320.938 57.2248 321.461 57.2248 322.443C57.2248 323.711 58.4132 323.98 59.8709 324.345C62.0576 324.9 64.1175 325.422 64.1175 327.815C64.1175 329.764 62.8023 331.222 59.966 331.222ZM65.7153 331V319.671H67.4583V331H65.7153ZM69.7076 331V319.671H71.4506V329.495H77.1866V331H69.7076Z" fill="white"/>
    <path d="M347.077 331.031L342.941 319.702H344.193L347.679 329.859H347.695L351.149 319.702H352.353L348.281 331.031H347.077ZM342.941 324.218V323.204H352.353V324.218H342.941ZM343.829 326.769V325.755H351.45V326.769H343.829ZM356.025 331.031C356.025 329.003 357.276 327.498 359.257 326.389C361.254 325.248 362.347 324.772 362.347 323.109C362.347 322.031 361.824 320.89 360.144 320.89C358.243 320.89 357.53 322.221 357.53 323.774H356.342C356.342 321.651 357.577 319.876 360.16 319.876C362.03 319.876 363.551 321.049 363.551 323.093C363.551 325.168 361.919 326.119 360.319 327.022C358.988 327.783 357.609 328.528 357.403 329.985V330.017H363.44V331.031H356.025ZM366.702 322.396C366.179 322.95 365.402 323.029 364.42 323.029V322.063C366.337 322.015 366.797 321.413 366.924 320.082H367.843V331.031H366.702V322.396ZM374.872 321.714L370.704 327.355H374.872V321.714ZM376.012 331.031H374.872V328.369H369.516V327.355L374.872 320.082H376.012V327.355H377.565V328.369H376.012V331.031ZM378.283 331.031V329.7H379.614V331.031H378.283ZM381.945 323.536C381.945 325.184 382.896 326.167 384.354 326.167C385.875 326.167 387.079 325.168 387.079 323.425C387.079 322.015 386.16 320.89 384.465 320.89C382.833 320.89 381.945 321.952 381.945 323.536ZM384.37 331.237C382.468 331.237 381.185 329.954 381.042 328.306H382.231C382.373 329.478 383.102 330.223 384.37 330.223C386.636 330.223 387.333 328.116 387.333 325.58V325.264L387.301 325.248C386.794 326.563 385.558 327.197 384.259 327.197C382.167 327.197 380.741 325.739 380.741 323.6C380.741 321.54 382.136 319.876 384.465 319.876C387.301 319.876 388.474 321.984 388.474 325.422C388.474 329.098 387.016 331.237 384.37 331.237ZM394.116 331.237C391.216 331.237 389.996 328.67 389.996 325.565C389.996 322.459 391.216 319.876 394.116 319.876C397.016 319.876 398.252 322.459 398.252 325.565C398.252 328.67 397.016 331.237 394.116 331.237ZM391.2 325.565C391.2 328.052 391.961 330.223 394.116 330.223C396.287 330.223 397.047 328.052 397.047 325.565C397.047 323.061 396.287 320.89 394.116 320.89C391.961 320.89 391.2 323.061 391.2 325.565Z" fill="#FF5353"/>
    <path opacity="0.3" d="M29.7875 347.809V339.878H31.1851L34.8676 345.978H34.8897V339.878H36.1209V347.809H34.7234L31.0298 341.708H31.0076V347.809H29.7875ZM40.6784 347.964C38.6708 347.964 37.2622 346.921 37.1734 345.135H38.4379C38.5266 346.2 39.1589 346.921 40.6452 346.921C41.9207 346.921 42.3089 346.367 42.3089 345.646C42.3089 344.636 41.5325 344.492 40.0906 344.126C38.8483 343.793 37.484 343.394 37.484 341.886C37.484 340.51 38.5488 339.723 40.257 339.723C42.0649 339.723 43.2406 340.643 43.3627 342.241H42.0982C41.9651 341.287 41.4216 340.765 40.268 340.765C39.2698 340.765 38.7596 341.131 38.7596 341.819C38.7596 342.706 39.5914 342.895 40.6119 343.15C42.1426 343.538 43.5845 343.904 43.5845 345.579C43.5845 346.943 42.6639 347.964 40.6784 347.964ZM44.7029 347.809V339.878H50.3154V340.932H45.923V343.183H49.7719V344.237H45.923V346.755H50.4263V347.809H44.7029Z" fill="white"/>
    <path opacity="0.3" d="M336.549 344.92V343.99H339.229V344.92H336.549ZM340.286 347C340.286 344.71 341.706 342.13 342.936 341.04V341.02H339.256V340.09H344.116V340.92C342.546 342.23 341.426 344.79 341.426 347H340.286ZM344.553 347C344.553 345.7 345.343 344.8 346.663 343.98C347.833 343.27 348.423 342.98 348.423 342.06C348.423 341.49 348.193 340.88 347.253 340.88C346.173 340.88 345.833 341.58 345.833 342.53H344.733C344.733 341.06 345.533 339.95 347.283 339.95C348.533 339.95 349.543 340.7 349.543 342.02C349.543 343.36 348.453 344.05 347.463 344.66C346.783 345.06 346.143 345.44 345.943 346.05V346.07H349.463V347H344.553ZM350.417 347V345.91H351.507V347H350.417ZM353.021 341.87C352.721 342.15 352.191 342.2 351.571 342.2V341.32C352.791 341.29 353.151 340.92 353.241 340.09H354.101V347H353.021V341.87ZM357.78 347.14C356.13 347.14 355.23 346.14 355.19 344.98H356.29C356.36 345.61 356.72 346.21 357.72 346.21C358.6 346.21 359.18 345.67 359.18 344.64C359.18 343.67 358.65 343.23 357.79 343.23C357.23 343.23 356.72 343.42 356.39 343.85H355.28L356.02 340.09H359.95V341.02H356.85L356.47 342.93V342.95C356.83 342.58 357.34 342.35 358.08 342.35C359.39 342.35 360.3 343.32 360.3 344.64C360.3 346.17 359.2 347.14 357.78 347.14ZM364.47 348.22C363.72 347.21 363.08 345.64 363.08 343.83C363.08 341.96 363.72 340.43 364.47 339.42H365.33C364.68 340.63 364.17 341.98 364.17 343.83C364.17 345.64 364.68 347.01 365.33 348.22H364.47ZM365.774 347C365.774 345.7 366.564 344.8 367.884 343.98C369.054 343.27 369.644 342.98 369.644 342.06C369.644 341.49 369.414 340.88 368.474 340.88C367.394 340.88 367.054 341.58 367.054 342.53H365.954C365.954 341.06 366.754 339.95 368.504 339.95C369.754 339.95 370.764 340.7 370.764 342.02C370.764 343.36 369.674 344.05 368.684 344.66C368.004 345.06 367.364 345.44 367.164 346.05V346.07H370.684V347H365.774ZM374.118 347.14C372.468 347.14 371.568 346.14 371.528 344.98H372.628C372.698 345.61 373.058 346.21 374.058 346.21C374.938 346.21 375.518 345.67 375.518 344.64C375.518 343.67 374.988 343.23 374.127 343.23C373.568 343.23 373.058 343.42 372.728 343.85H371.618L372.358 340.09H376.288V341.02H373.188L372.808 342.93V342.95C373.168 342.58 373.678 342.35 374.418 342.35C375.728 342.35 376.638 343.32 376.638 344.64C376.638 346.17 375.538 347.14 374.118 347.14ZM377.448 347V345.91H378.538V347H377.448ZM380.053 341.87C379.753 342.15 379.223 342.2 378.603 342.2V341.32C379.823 341.29 380.183 340.92 380.273 340.09H381.133V347H380.053V341.87ZM384.981 347.14C383.201 347.14 382.201 346.22 382.201 344.64H383.301C383.301 345.59 383.701 346.21 384.911 346.21C386.001 346.21 386.371 345.77 386.371 345.03C386.371 344.08 385.691 343.85 384.991 343.85H384.341V342.96H384.951C385.641 342.96 386.131 342.65 386.131 341.9C386.131 341.36 385.801 340.88 384.951 340.88C383.781 340.88 383.491 341.5 383.491 342.17H382.391C382.391 340.89 383.261 339.95 384.961 339.95C386.191 339.95 387.251 340.63 387.251 341.85C387.251 342.59 386.871 343.05 386.211 343.33V343.35C387.121 343.64 387.491 344.24 387.491 345.05C387.491 346.39 386.501 347.14 384.981 347.14ZM389.726 347L393.566 340.09H394.426L390.586 347H389.726ZM388.106 341.93C388.106 340.83 388.676 339.95 389.836 339.95C390.966 339.95 391.556 340.83 391.556 341.93C391.556 343.04 390.986 343.92 389.836 343.92C388.696 343.92 388.106 343.04 388.106 341.93ZM389.016 341.93C389.016 342.69 389.276 343.17 389.836 343.17C390.386 343.17 390.646 342.69 390.646 341.93C390.646 341.17 390.386 340.69 389.836 340.69C389.276 340.69 389.016 341.17 389.016 341.93ZM392.606 345.16C392.606 344.05 393.176 343.17 394.326 343.17C395.466 343.17 396.046 344.05 396.046 345.16C396.046 346.26 395.476 347.14 394.326 347.14C393.186 347.14 392.606 346.26 392.606 345.16ZM393.506 345.16C393.506 345.92 393.776 346.4 394.326 346.4C394.876 346.4 395.146 345.92 395.146 345.16C395.146 344.4 394.876 343.92 394.326 343.92C393.776 343.92 393.506 344.4 393.506 345.16ZM396.416 348.22C397.066 347.01 397.586 345.65 397.586 343.8C397.586 341.99 397.066 340.63 396.416 339.42H397.276C398.026 340.43 398.666 341.99 398.666 343.8C398.666 345.67 398.026 347.21 397.276 348.22H396.416Z" fill="white"/>
    <path d="M30.125 408.453V397.124H31.868V408.453H30.125ZM34.1173 408.453V397.124H36.1138L41.3745 405.839H41.4062V397.124H43.1651V408.453H41.1685L35.892 399.738H35.8603V408.453H34.1173ZM45.4134 408.453V397.124H53.2727V398.629H47.1564V402.036H52.1001V403.541H47.1564V408.453H45.4134ZM57.7092 408.453V403.921L53.6527 397.124H55.5383L58.5807 402.543H58.6124L61.6547 397.124H63.5244L59.468 403.921V408.453H57.7092Z" fill="white"/>
    <path d="M342.404 408L338.268 396.671H339.52L343.006 406.827H343.022L346.476 396.671H347.68L343.608 408H342.404ZM338.268 401.186V400.172H347.68V401.186H338.268ZM339.155 403.738V402.723H346.777V403.738H339.155ZM351.351 408C351.351 405.972 352.603 404.466 354.584 403.357C356.58 402.216 357.674 401.741 357.674 400.077C357.674 399 357.151 397.859 355.471 397.859C353.57 397.859 352.857 399.19 352.857 400.743H351.668C351.668 398.62 352.904 396.845 355.487 396.845C357.357 396.845 358.878 398.017 358.878 400.061C358.878 402.137 357.246 403.088 355.646 403.991C354.315 404.752 352.936 405.496 352.73 406.954V406.986H358.767V408H351.351ZM360.048 408C360.048 405.972 361.3 404.466 363.28 403.357C365.277 402.216 366.37 401.741 366.37 400.077C366.37 399 365.847 397.859 364.168 397.859C362.266 397.859 361.553 399.19 361.553 400.743H360.365C360.365 398.62 361.601 396.845 364.184 396.845C366.053 396.845 367.574 398.017 367.574 400.061C367.574 402.137 365.942 403.088 364.342 403.991C363.011 404.752 361.632 405.496 361.426 406.954V406.986H367.464V408H360.048ZM372.658 408.206C370.17 408.206 368.887 406.606 368.839 404.91H370.028C370.139 406.13 370.852 407.192 372.611 407.192C374.163 407.192 375.273 406.225 375.273 404.292C375.273 402.486 374.227 401.725 372.753 401.725C371.596 401.725 370.725 402.216 370.234 402.882H368.998L370.155 397.051H375.906V398.065H371.089L370.345 401.725V401.757C370.947 401.076 371.85 400.711 373.007 400.711C375.098 400.711 376.477 402.264 376.477 404.292C376.477 406.637 374.861 408.206 372.658 408.206ZM377.85 408V406.669H379.181V408H377.85ZM384.367 408.206C381.468 408.206 380.247 405.639 380.247 402.533C380.247 399.428 381.468 396.845 384.367 396.845C387.267 396.845 388.503 399.428 388.503 402.533C388.503 405.639 387.267 408.206 384.367 408.206ZM381.452 402.533C381.452 405.021 382.212 407.192 384.367 407.192C386.538 407.192 387.299 405.021 387.299 402.533C387.299 400.03 386.538 397.859 384.367 397.859C382.212 397.859 381.452 400.03 381.452 402.533ZM394.116 408.206C391.216 408.206 389.996 405.639 389.996 402.533C389.996 399.428 391.216 396.845 394.116 396.845C397.016 396.845 398.252 399.428 398.252 402.533C398.252 405.639 397.016 408.206 394.116 408.206ZM391.2 402.533C391.2 405.021 391.961 407.192 394.116 407.192C396.287 407.192 397.047 405.021 397.047 402.533C397.047 400.03 396.287 397.859 394.116 397.859C391.961 397.859 391.2 400.03 391.2 402.533Z" fill="#39FC94"/>
    <path opacity="0.3" d="M29.7875 425.262V417.331H31.1851L34.8676 423.432H34.8897V417.331H36.1209V425.262H34.7234L31.0298 419.161H31.0076V425.262H29.7875ZM40.6784 425.417C38.6708 425.417 37.2622 424.374 37.1734 422.589H38.4379C38.5266 423.653 39.1589 424.374 40.6452 424.374C41.9207 424.374 42.3089 423.82 42.3089 423.099C42.3089 422.089 41.5325 421.945 40.0906 421.579C38.8483 421.246 37.484 420.847 37.484 419.339C37.484 417.963 38.5488 417.176 40.257 417.176C42.0649 417.176 43.2406 418.096 43.3627 419.694H42.0982C41.9651 418.74 41.4216 418.218 40.268 418.218C39.2698 418.218 38.7596 418.584 38.7596 419.272C38.7596 420.159 39.5914 420.348 40.6119 420.603C42.1426 420.991 43.5845 421.357 43.5845 423.032C43.5845 424.397 42.6639 425.417 40.6784 425.417ZM44.7029 425.262V417.331H50.3154V418.385H45.923V420.636H49.7719V421.69H45.923V424.208H50.4263V425.262H44.7029Z" fill="white"/>
    <path opacity="0.3" d="M331.213 423.553V421.653H329.373V420.723H331.213V418.823H332.143V420.723H333.983V421.653H332.143V423.553H331.213ZM337.589 424.593C335.609 424.593 334.899 423.123 334.899 421.013C334.899 418.743 335.889 417.403 337.599 417.403C338.899 417.403 339.749 418.263 339.869 419.293H338.759C338.669 418.723 338.339 418.303 337.599 418.303C336.309 418.303 335.979 419.503 335.979 420.693V420.793L336.009 420.803C336.369 420.223 336.999 419.893 337.789 419.893C339.129 419.893 340.059 420.833 340.059 422.193C340.059 423.533 339.119 424.593 337.589 424.593ZM336.099 422.273C336.099 423.113 336.619 423.693 337.559 423.693C338.469 423.693 338.959 423.123 338.959 422.253C338.959 421.343 338.429 420.803 337.629 420.803C336.679 420.803 336.099 421.403 336.099 422.273ZM343.625 424.593C341.695 424.593 340.875 422.983 340.875 421.003C340.875 419.023 341.695 417.403 343.625 417.403C345.555 417.403 346.365 419.023 346.365 421.003C346.365 422.983 345.555 424.593 343.625 424.593ZM342.005 421.003C342.005 422.423 342.375 423.663 343.625 423.663C344.865 423.663 345.235 422.423 345.235 421.003C345.235 419.583 344.865 418.333 343.625 418.333C342.375 418.333 342.005 419.583 342.005 421.003ZM346.96 424.453V423.363H348.05V424.453H346.96ZM351.378 424.593C349.398 424.593 348.688 423.123 348.688 421.013C348.688 418.743 349.678 417.403 351.388 417.403C352.688 417.403 353.538 418.263 353.658 419.293H352.548C352.458 418.723 352.128 418.303 351.388 418.303C350.098 418.303 349.768 419.503 349.768 420.693V420.793L349.798 420.803C350.158 420.223 350.788 419.893 351.578 419.893C352.918 419.893 353.848 420.833 353.848 422.193C353.848 423.533 352.908 424.593 351.378 424.593ZM349.888 422.273C349.888 423.113 350.408 423.693 351.348 423.693C352.258 423.693 352.748 423.123 352.748 422.253C352.748 421.343 352.218 420.803 351.418 420.803C350.468 420.803 349.888 421.403 349.888 422.273ZM357.414 424.593C355.484 424.593 354.664 422.983 354.664 421.003C354.664 419.023 355.484 417.403 357.414 417.403C359.344 417.403 360.154 419.023 360.154 421.003C360.154 422.983 359.344 424.593 357.414 424.593ZM355.794 421.003C355.794 422.423 356.164 423.663 357.414 423.663C358.654 423.663 359.024 422.423 359.024 421.003C359.024 419.583 358.654 418.333 357.414 418.333C356.164 418.333 355.794 419.583 355.794 421.003ZM364.392 425.673C363.642 424.663 363.002 423.093 363.002 421.283C363.002 419.413 363.642 417.883 364.392 416.873H365.252C364.602 418.083 364.092 419.433 364.092 421.283C364.092 423.093 364.602 424.463 365.252 425.673H364.392ZM365.696 424.453C365.696 423.153 366.486 422.253 367.806 421.433C368.976 420.723 369.566 420.433 369.566 419.513C369.566 418.943 369.336 418.333 368.396 418.333C367.316 418.333 366.976 419.033 366.976 419.983H365.876C365.876 418.513 366.676 417.403 368.426 417.403C369.676 417.403 370.686 418.153 370.686 419.473C370.686 420.813 369.596 421.503 368.606 422.113C367.926 422.513 367.286 422.893 367.086 423.503V423.523H370.606V424.453H365.696ZM372.689 419.323C372.389 419.603 371.859 419.653 371.239 419.653V418.773C372.459 418.743 372.819 418.373 372.909 417.543H373.769V424.453H372.689V419.323ZM374.968 424.453V423.363H376.058V424.453H374.968ZM376.79 424.453C376.79 423.153 377.58 422.253 378.9 421.433C380.07 420.723 380.66 420.433 380.66 419.513C380.66 418.943 380.43 418.333 379.49 418.333C378.41 418.333 378.07 419.033 378.07 419.983H376.97C376.97 418.513 377.77 417.403 379.52 417.403C380.77 417.403 381.78 418.153 381.78 419.473C381.78 420.813 380.69 421.503 379.7 422.113C379.02 422.513 378.38 422.893 378.18 423.503V423.523H381.7V424.453H376.79ZM382.483 424.453C382.483 423.153 383.273 422.253 384.593 421.433C385.763 420.723 386.353 420.433 386.353 419.513C386.353 418.943 386.123 418.333 385.183 418.333C384.103 418.333 383.763 419.033 383.763 419.983H382.663C382.663 418.513 383.463 417.403 385.213 417.403C386.463 417.403 387.473 418.153 387.473 419.473C387.473 420.813 386.383 421.503 385.393 422.113C384.713 422.513 384.073 422.893 383.873 423.503V423.523H387.393V424.453H382.483ZM389.726 424.453L393.566 417.543H394.426L390.586 424.453H389.726ZM388.106 419.383C388.106 418.283 388.676 417.403 389.836 417.403C390.966 417.403 391.556 418.283 391.556 419.383C391.556 420.493 390.986 421.373 389.836 421.373C388.696 421.373 388.106 420.493 388.106 419.383ZM389.016 419.383C389.016 420.143 389.276 420.623 389.836 420.623C390.386 420.623 390.646 420.143 390.646 419.383C390.646 418.623 390.386 418.143 389.836 418.143C389.276 418.143 389.016 418.623 389.016 419.383ZM392.606 422.613C392.606 421.503 393.176 420.623 394.326 420.623C395.466 420.623 396.046 421.503 396.046 422.613C396.046 423.713 395.476 424.593 394.326 424.593C393.186 424.593 392.606 423.713 392.606 422.613ZM393.506 422.613C393.506 423.373 393.776 423.853 394.326 423.853C394.876 423.853 395.146 423.373 395.146 422.613C395.146 421.853 394.876 421.373 394.326 421.373C393.776 421.373 393.506 421.853 393.506 422.613ZM396.416 425.673C397.066 424.463 397.586 423.103 397.586 421.253C397.586 419.443 397.066 418.083 396.416 416.873H397.276C398.026 417.883 398.666 419.443 398.666 421.253C398.666 423.123 398.026 424.663 397.276 425.673H396.416Z" fill="white"/>
    <path d="M30.125 485V473.671H31.868V478.408H37.4298V473.671H39.1886V485H37.4298V479.914H31.868V485H30.125ZM45.7627 485.222C42.657 485.222 41.3418 483.59 41.3418 481.15V473.671H43.0848V481.15C43.0848 482.908 43.9722 483.717 45.7627 483.717C47.5691 483.717 48.4406 482.908 48.4406 481.15V473.671H50.1994V481.15C50.1994 483.59 48.8843 485.222 45.7627 485.222ZM52.3767 485V473.671H56.6866C59.824 473.671 61.7255 475.699 61.7255 479.343C61.7255 482.988 59.8557 485 56.7183 485H52.3767ZM54.1197 483.495H56.6074C59.2377 483.495 59.9191 481.53 59.9191 479.343C59.9191 477.157 59.2377 475.176 56.6074 475.176H54.1197V483.495ZM68.1939 485.222C64.9773 485.222 62.9015 482.75 62.9015 479.343C62.9015 475.921 64.9931 473.449 68.2097 473.449C71.046 473.449 72.8049 475.255 73.0743 477.521H71.252C71.046 476.412 70.3488 474.954 68.178 474.954C65.6745 474.954 64.7237 477.077 64.7237 479.327C64.7237 481.593 65.6745 483.717 68.178 483.717C70.3647 483.717 71.1411 482.259 71.252 480.88H73.0743C72.8207 483.4 71.046 485.222 68.1939 485.222ZM79.651 485.222C76.2601 485.222 74.0892 482.734 74.0892 479.327C74.0892 475.921 76.2601 473.449 79.651 473.449C83.0419 473.449 85.2127 475.921 85.2127 479.327C85.2127 482.734 83.0419 485.222 79.651 485.222ZM75.9115 479.327C75.9115 481.657 76.9731 483.717 79.651 483.717C82.3288 483.717 83.3905 481.657 83.3905 479.327C83.3905 476.998 82.3288 474.954 79.651 474.954C76.9731 474.954 75.9115 476.998 75.9115 479.327Z" fill="white"/>
    <path d="M353.592 485.062L349.456 473.733H350.708L354.194 483.89H354.209L357.664 473.733H358.868L354.796 485.062H353.592ZM349.456 478.249V477.235H358.868V478.249H349.456ZM350.343 480.8V479.786H357.965V480.8H350.343ZM364.203 481.719C364.203 483.129 365.122 484.254 366.817 484.254C368.45 484.254 369.337 483.193 369.337 481.608C369.337 479.96 368.402 478.962 366.928 478.962C365.407 478.962 364.203 479.976 364.203 481.719ZM366.817 485.268C363.997 485.268 362.809 483.161 362.809 479.723C362.809 476.046 364.266 473.907 366.913 473.907C368.814 473.907 370.097 475.191 370.24 476.839H369.052C368.925 475.65 368.18 474.921 366.913 474.921C364.647 474.921 363.965 477.029 363.965 479.564V479.881L363.981 479.897C364.488 478.582 365.74 477.948 367.023 477.948C369.115 477.948 370.541 479.406 370.541 481.545C370.541 483.605 369.147 485.268 366.817 485.268ZM372.954 485.062C372.954 481.592 374.903 477.251 377.359 475.159V475.127H371.227V474.113H378.674V475.001C375.759 477.362 374.158 481.719 374.158 485.062H372.954ZM378.376 485.062V483.731H379.707V485.062H378.376ZM382.23 481.719C382.23 483.129 383.149 484.254 384.845 484.254C386.477 484.254 387.364 483.193 387.364 481.608C387.364 479.96 386.429 478.962 384.956 478.962C383.434 478.962 382.23 479.976 382.23 481.719ZM384.845 485.268C382.024 485.268 380.836 483.161 380.836 479.723C380.836 476.046 382.294 473.907 384.94 473.907C386.841 473.907 388.125 475.191 388.267 476.839H387.079C386.952 475.65 386.207 474.921 384.94 474.921C382.674 474.921 381.993 477.029 381.993 479.564V479.881L382.008 479.897C382.515 478.582 383.767 477.948 385.051 477.948C387.142 477.948 388.568 479.406 388.568 481.545C388.568 483.605 387.174 485.268 384.845 485.268ZM394.116 485.268C391.216 485.268 389.996 482.702 389.996 479.596C389.996 476.49 391.216 473.907 394.116 473.907C397.016 473.907 398.252 476.49 398.252 479.596C398.252 482.702 397.016 485.268 394.116 485.268ZM391.2 479.596C391.2 482.084 391.961 484.254 394.116 484.254C396.287 484.254 397.047 482.084 397.047 479.596C397.047 477.092 396.287 474.921 394.116 474.921C391.961 474.921 391.2 477.092 391.2 479.596Z" fill="#FF5353"/>
    <path opacity="0.3" d="M29.7875 501.809V493.878H33.1261C34.7566 493.878 35.7105 494.61 35.7105 495.874C35.7105 496.851 35.1338 497.305 34.4793 497.527V497.549C35.3112 497.694 36.0211 498.304 36.0211 499.49C36.0211 501.01 34.9674 501.809 33.3258 501.809H29.7875ZM31.0076 500.755H33.2371C34.4128 500.755 34.7455 500.189 34.7455 499.446C34.7455 498.614 34.2353 498.137 33.4034 498.137H31.0076V500.755ZM31.0076 497.172H33.0929C34.0911 497.172 34.435 496.762 34.435 496.052C34.435 495.353 34.0135 494.932 33.1816 494.932H31.0076V497.172ZM40.1693 501.964C38.1617 501.964 36.7531 500.921 36.6643 499.135H37.9288C38.0175 500.2 38.6498 500.921 40.1361 500.921C41.4116 500.921 41.7998 500.367 41.7998 499.646C41.7998 498.636 41.0234 498.492 39.5815 498.126C38.3392 497.793 36.9749 497.394 36.9749 495.886C36.9749 494.51 38.0397 493.723 39.7479 493.723C41.5558 493.723 42.7315 494.643 42.8536 496.241H41.5891C41.456 495.287 40.9125 494.765 39.7589 494.765C38.7607 494.765 38.2505 495.131 38.2505 495.819C38.2505 496.706 39.0823 496.895 40.1028 497.15C41.6335 497.538 43.0754 497.904 43.0754 499.579C43.0754 500.943 42.1548 501.964 40.1693 501.964ZM44.1938 501.809V493.878H49.8063V494.932H45.4139V497.183H49.2628V498.237H45.4139V500.755H49.9172V501.809H44.1938Z" fill="white"/>
    <path opacity="0.3" d="M331.295 498.92V497.99H333.975V498.92H331.295ZM337.491 501.14C335.711 501.14 334.711 500.22 334.711 498.64H335.811C335.811 499.59 336.211 500.21 337.421 500.21C338.511 500.21 338.881 499.77 338.881 499.03C338.881 498.08 338.201 497.85 337.501 497.85H336.851V496.96H337.461C338.151 496.96 338.641 496.65 338.641 495.9C338.641 495.36 338.311 494.88 337.461 494.88C336.291 494.88 336.001 495.5 336.001 496.17H334.901C334.901 494.89 335.771 493.95 337.471 493.95C338.701 493.95 339.761 494.63 339.761 495.85C339.761 496.59 339.381 497.05 338.721 497.33V497.35C339.631 497.64 340.001 498.24 340.001 499.05C340.001 500.39 339.011 501.14 337.491 501.14ZM341.487 501C341.487 498.71 342.907 496.13 344.137 495.04V495.02H340.457V494.09H345.317V494.92C343.747 496.23 342.627 498.79 342.627 501H341.487ZM345.055 501V499.91H346.145V501H345.055ZM349.786 501V499.42H346.496V498.42L349.786 494.09H350.866V498.49H351.836V499.42H350.866V501H349.786ZM347.496 498.49H349.786V495.48L347.496 498.49ZM355.065 501.14C353.415 501.14 352.515 500.14 352.475 498.98H353.575C353.645 499.61 354.005 500.21 355.005 500.21C355.885 500.21 356.465 499.67 356.465 498.64C356.465 497.67 355.935 497.23 355.075 497.23C354.515 497.23 354.005 497.42 353.675 497.85H352.565L353.305 494.09H357.235V495.02H354.135L353.755 496.93V496.95C354.115 496.58 354.625 496.35 355.365 496.35C356.675 496.35 357.585 497.32 357.585 498.64C357.585 500.17 356.485 501.14 355.065 501.14ZM361.755 502.22C361.005 501.21 360.365 499.64 360.365 497.83C360.365 495.96 361.005 494.43 361.755 493.42H362.615C361.965 494.63 361.455 495.98 361.455 497.83C361.455 499.64 361.965 501.01 362.615 502.22H361.755ZM365.635 501.14C363.855 501.14 362.855 500.22 362.855 498.64H363.955C363.955 499.59 364.355 500.21 365.565 500.21C366.655 500.21 367.025 499.77 367.025 499.03C367.025 498.08 366.345 497.85 365.645 497.85H364.995V496.96H365.605C366.295 496.96 366.785 496.65 366.785 495.9C366.785 495.36 366.455 494.88 365.605 494.88C364.435 494.88 364.145 495.5 364.145 496.17H363.045C363.045 494.89 363.915 493.95 365.615 493.95C366.845 493.95 367.905 494.63 367.905 495.85C367.905 496.59 367.525 497.05 366.865 497.33V497.35C367.775 497.64 368.145 498.24 368.145 499.05C368.145 500.39 367.155 501.14 365.635 501.14ZM371.481 501.14C369.831 501.14 368.931 500.14 368.891 498.98H369.991C370.061 499.61 370.421 500.21 371.421 500.21C372.301 500.21 372.881 499.67 372.881 498.64C372.881 497.67 372.351 497.23 371.491 497.23C370.931 497.23 370.421 497.42 370.091 497.85H368.981L369.721 494.09H373.651V495.02H370.551L370.171 496.93V496.95C370.531 496.58 371.041 496.35 371.781 496.35C373.091 496.35 374.001 497.32 374.001 498.64C374.001 500.17 372.901 501.14 371.481 501.14ZM374.811 501V499.91H375.901V501H374.811ZM379.23 501.14C377.25 501.14 376.54 499.67 376.54 497.56C376.54 495.29 377.53 493.95 379.24 493.95C380.54 493.95 381.39 494.81 381.51 495.84H380.4C380.31 495.27 379.98 494.85 379.24 494.85C377.95 494.85 377.62 496.05 377.62 497.24V497.34L377.65 497.35C378.01 496.77 378.64 496.44 379.43 496.44C380.77 496.44 381.7 497.38 381.7 498.74C381.7 500.08 380.76 501.14 379.23 501.14ZM377.74 498.82C377.74 499.66 378.26 500.24 379.2 500.24C380.11 500.24 380.6 499.67 380.6 498.8C380.6 497.89 380.07 497.35 379.27 497.35C378.32 497.35 377.74 497.95 377.74 498.82ZM385.016 501.14C383.366 501.14 382.466 500.14 382.426 498.98H383.526C383.596 499.61 383.956 500.21 384.956 500.21C385.836 500.21 386.416 499.67 386.416 498.64C386.416 497.67 385.886 497.23 385.026 497.23C384.466 497.23 383.956 497.42 383.626 497.85H382.516L383.256 494.09H387.186V495.02H384.086L383.706 496.93V496.95C384.066 496.58 384.576 496.35 385.316 496.35C386.626 496.35 387.536 497.32 387.536 498.64C387.536 500.17 386.436 501.14 385.016 501.14ZM389.726 501L393.566 494.09H394.426L390.586 501H389.726ZM388.106 495.93C388.106 494.83 388.676 493.95 389.836 493.95C390.966 493.95 391.556 494.83 391.556 495.93C391.556 497.04 390.986 497.92 389.836 497.92C388.696 497.92 388.106 497.04 388.106 495.93ZM389.016 495.93C389.016 496.69 389.276 497.17 389.836 497.17C390.386 497.17 390.646 496.69 390.646 495.93C390.646 495.17 390.386 494.69 389.836 494.69C389.276 494.69 389.016 495.17 389.016 495.93ZM392.606 499.16C392.606 498.05 393.176 497.17 394.326 497.17C395.466 497.17 396.046 498.05 396.046 499.16C396.046 500.26 395.476 501.14 394.326 501.14C393.186 501.14 392.606 500.26 392.606 499.16ZM393.506 499.16C393.506 499.92 393.776 500.4 394.326 500.4C394.876 500.4 395.146 499.92 395.146 499.16C395.146 498.4 394.876 497.92 394.326 497.92C393.776 497.92 393.506 498.4 393.506 499.16ZM396.416 502.22C397.066 501.01 397.586 499.65 397.586 497.8C397.586 495.99 397.066 494.63 396.416 493.42H397.276C398.026 494.43 398.666 495.99 398.666 497.8C398.666 499.67 398.026 501.21 397.276 502.22H396.416Z" fill="white"/>
    <g filter="url(#filter0_d_656_368)">
    <path d="M0 864C0 856.268 6.26801 850 14 850H416C423.732 850 430 856.268 430 864V932H0V864Z" fill="#272727"/>
    <path d="M357.455 900.547C357.455 898.859 358.126 897.241 359.319 896.047C360.512 894.854 362.131 894.184 363.819 894.184H376.546C378.234 894.184 379.852 894.854 381.046 896.047C382.239 897.241 382.91 898.859 382.91 900.547C382.91 901.391 382.574 902.2 381.978 902.797C381.381 903.394 380.572 903.729 379.728 903.729H360.637C359.793 903.729 358.984 903.394 358.387 902.797C357.79 902.2 357.455 901.391 357.455 900.547Z" stroke="white" stroke-width="2" stroke-linejoin="round"/>
    <path d="M370.183 887.819C372.819 887.819 374.956 885.682 374.956 883.046C374.956 880.41 372.819 878.273 370.183 878.273C367.547 878.273 365.41 880.41 365.41 883.046C365.41 885.682 367.547 887.819 370.183 887.819Z" stroke="white" stroke-width="2"/>
    <path d="M294.727 903.728C301.756 903.728 307.455 898.03 307.455 891.001C307.455 883.972 301.756 878.273 294.727 878.273C287.698 878.273 282 883.972 282 891.001C282 898.03 287.698 903.728 294.727 903.728Z" stroke="white" stroke-width="2" stroke-linecap="round" stroke-linejoin="round"/>
    <path d="M282 891.001H307.455M294.727 878.273C291.459 881.705 289.636 886.262 289.636 891.001C289.636 895.739 291.459 900.297 294.727 903.728C297.995 900.297 299.818 895.739 299.818 891.001C299.818 886.262 297.995 881.705 294.727 878.273Z" stroke="white" stroke-width="2" stroke-linecap="round" stroke-linejoin="round"/>
    <path d="M229.651 881.667H223.777V880.5C223.777 879.572 223.405 878.682 222.744 878.025C222.083 877.369 221.187 877 220.252 877H213.203C212.269 877 211.372 877.369 210.711 878.025C210.05 878.682 209.679 879.572 209.679 880.5V881.667H203.805C203.182 881.667 202.584 881.912 202.143 882.35C201.703 882.788 201.455 883.381 201.455 884V902.667C201.455 903.286 201.703 903.879 202.143 904.317C202.584 904.754 203.182 905 203.805 905H229.651C230.274 905 230.872 904.754 231.312 904.317C231.753 903.879 232.001 903.286 232.001 902.667V884C232.001 883.381 231.753 882.788 231.312 882.35C230.872 881.912 230.274 881.667 229.651 881.667ZM212.029 880.5C212.029 880.191 212.152 879.894 212.373 879.675C212.593 879.456 212.892 879.333 213.203 879.333H220.252C220.564 879.333 220.863 879.456 221.083 879.675C221.303 879.894 221.427 880.191 221.427 880.5V881.667H212.029V880.5ZM221.427 884V902.667H212.029V884H221.427ZM203.805 884H209.679V902.667H203.805V884ZM229.651 902.667H223.777V884H229.651V902.667Z" fill="white"/>
    <path d="M130.694 877.25H146.306V880.111V880.361H146.556H149.778C150.6 880.361 151.296 880.641 151.881 881.206C152.465 881.77 152.751 882.437 152.75 883.222V883.222V884.778C152.75 886.684 152.096 888.342 150.782 889.761C149.466 891.182 147.837 892.004 145.882 892.229L145.735 892.246L145.679 892.384C145.213 893.535 144.482 894.491 143.484 895.255C142.481 896.023 141.34 896.546 140.058 896.822L139.861 896.865V897.067V901.889V902.139H140.111H146.306V904.75H130.694V902.139H136.889H137.139V901.889V897.067V896.865L136.942 896.822C135.661 896.545 134.52 896.022 133.517 895.255C132.519 894.492 131.788 893.536 131.321 892.384L131.265 892.246L131.118 892.229C129.162 892.003 127.533 891.181 126.218 889.762C124.905 888.343 124.251 886.685 124.25 884.778C124.25 884.778 124.25 884.778 124.25 884.778L124.25 883.222C124.25 882.436 124.537 881.769 125.121 881.206C125.705 880.642 126.401 880.362 127.222 880.361C127.222 880.361 127.222 880.361 127.223 880.361L130.444 880.361H130.694V880.111V877.25ZM130.362 889.369L130.694 889.485V889.133V883.222V882.972H130.444H127.222H126.972V883.222V884.778C126.972 885.817 127.285 886.758 127.908 887.592C128.53 888.425 129.35 889.018 130.362 889.369ZM143.583 880.111V879.861H143.333H133.667H133.417V880.111V889.444C133.417 890.809 133.915 891.976 134.903 892.93C135.891 893.884 137.095 894.361 138.5 894.361C139.905 894.361 141.109 893.884 142.097 892.93C143.085 891.976 143.583 890.809 143.583 889.444V880.111ZM146.306 889.133V889.485L146.638 889.369C147.65 889.017 148.47 888.423 149.092 887.59C149.715 886.756 150.028 885.816 150.028 884.778V883.222V882.972H149.778H146.556H146.306V883.222V889.133ZM138.5 889.194H138.5C137.679 889.195 136.983 888.916 136.399 888.351C135.815 887.788 135.528 887.119 135.528 886.334C135.529 885.549 135.816 884.881 136.399 884.317C136.982 883.752 137.678 883.472 138.5 883.472C139.323 883.473 140.02 883.754 140.603 884.317C141.186 884.88 141.472 885.547 141.472 886.333V886.334C141.473 887.12 141.187 887.789 140.603 888.351C140.019 888.915 139.322 889.194 138.5 889.194Z" fill="white" stroke="#272727" stroke-width="0.5"/>
    <path d="M42.5963 888.004L42.6033 887.966C42.6037 887.964 42.604 887.962 42.6045 887.96C42.6155 887.899 42.6572 887.671 42.8453 887.248C43.0584 886.769 43.3994 886.175 43.8825 885.495L43.8826 885.494C44.8492 884.135 46.2899 882.571 48.107 881.089C51.7613 878.102 56.6886 875.657 62 875.657C67.3114 875.657 72.2387 878.102 75.8928 881.084C77.71 882.566 79.1506 884.13 80.1172 885.489L42.5963 888.004ZM42.5963 888.004L42.6038 888.041M42.5963 888.004L42.6038 888.041M42.6038 888.041C42.6535 888.291 42.7355 888.533 42.8476 888.762C43.1357 889.378 43.4826 889.964 43.8834 890.512L42.6038 888.041ZM81.4 887.979V887.998V888V888.018L81.3967 888.036L81.3955 888.042C81.3845 888.103 81.3428 888.332 81.1547 888.754L81.1532 888.758L81.1531 888.758C80.8646 889.374 80.5174 889.961 80.1166 890.509C79.15 891.868 77.7096 893.432 75.893 894.914C72.2411 897.898 67.3138 900.343 62 900.343C56.6886 900.343 51.7613 897.898 48.1072 894.916L81.4 887.979ZM81.4 887.979L81.3967 887.961M81.4 887.979L81.3967 887.961M81.3967 887.961L81.3955 887.955C81.3845 887.894 81.3429 887.666 81.1547 887.244M81.3967 887.961L81.1547 887.244M81.1547 887.244C80.9418 886.765 80.6033 886.171 80.1174 885.49L81.1547 887.244ZM45.3479 877.613L45.348 877.613C49.5084 874.219 55.3811 871.2 62 871.2C68.6189 871.2 74.4916 874.219 78.652 877.613C80.7443 879.319 82.4668 881.169 83.6866 882.885L83.6879 882.887C84.2631 883.677 84.7595 884.523 85.1697 885.413C85.5168 886.197 85.8 887.098 85.8 888C85.8 888.905 85.5166 889.804 85.1669 890.588L85.1669 890.588C84.8039 891.403 84.2977 892.259 83.6868 893.115L83.6866 893.115C82.4668 894.831 80.7443 896.683 78.6521 898.387L78.652 898.387C74.4916 901.781 68.6189 904.8 62 904.8C55.3811 904.8 49.5084 901.781 45.348 898.387C43.2557 896.681 41.5332 894.831 40.3134 893.115L40.3133 893.115C39.7048 892.261 39.1961 891.403 38.8307 890.588C38.4834 889.803 38.2 888.903 38.2 888C38.2 887.095 38.4831 886.2 38.8327 885.413C39.2415 884.523 39.7372 883.677 40.3121 882.887L40.3121 882.887L40.3134 882.885C41.5332 881.169 43.2557 879.317 45.3479 877.613ZM60.1607 886.142C59.6734 886.635 59.4 887.304 59.4 888C59.4 888.696 59.6734 889.365 60.1607 889.858C60.6481 890.351 61.3097 890.629 62 890.629C62.6903 890.629 63.3519 890.351 63.8393 889.858C64.3266 889.365 64.6 888.696 64.6 888C64.6 887.304 64.3266 886.635 63.8393 886.142C63.3519 885.649 62.6903 885.371 62 885.371C61.3097 885.371 60.6481 885.649 60.1607 886.142ZM57.0511 882.989C58.364 881.66 60.1443 880.914 62 880.914C63.8557 880.914 65.636 881.66 66.9489 882.989C68.2619 884.317 69 886.12 69 888C69 889.88 68.2619 891.683 66.9489 893.011C65.636 894.34 63.8557 895.086 62 895.086C60.1443 895.086 58.364 894.34 57.0511 893.011C55.7381 891.683 55 889.88 55 888C55 886.12 55.7381 884.317 57.0511 882.989Z" fill="#FF9447" stroke="#272727" stroke-width="0.4"/>
    <path d="M46 932.262L54.4853 923.777C58.781 919.481 65.7459 919.481 70.0416 923.777L78.5269 932.262H46Z" fill="#FF9447"/>
    </g>
    </g>
    <defs>
    <filter id="filter0_d_656_368" x="-18.1" y="824.9" width="466.2" height="118.462" filterUnits="userSpaceOnUse" color-interpolation-filters="sRGB">
    <feFlood flood-opacity="0" result="BackgroundImageFix"/>
    <feColorMatrix in="SourceAlpha" type="matrix" values="0 0 0 0 0 0 0 0 0 0 0 0 0 0 0 0 0 0 127 0" result="hardAlpha"/>
    <feOffset dy="-7"/>
    <feGaussianBlur stdDeviation="9.05"/>
    <feComposite in2="hardAlpha" operator="out"/>
    <feColorMatrix type="matrix" values="0 0 0 0 0 0 0 0 0 0 0 0 0 0 0 0 0 0 0.25 0"/>
    <feBlend mode="normal" in2="BackgroundImageFix" result="effect1_dropShadow_656_368"/>
    <feBlend mode="normal" in="SourceGraphic" in2="effect1_dropShadow_656_368" result="shape"/>
    </filter>
    <clipPath id="clip0_656_368">
    <rect width="430" height="932" fill="white"/>
    </clipPath>
    </defs>
    </svg>
    