<svg width="301" height="64" viewBox="0 0 301 64" fill="none" xmlns="http://www.w3.org/2000/svg">
<g clip-path="url(#clip0_507_463)">
<path d="M301 0H0V64H301V0Z" fill="#2B2B2B"/>
<path d="M19.1494 22.2609V12.313H23.3536C25.4069 12.313 26.6081 13.2313 26.6081 14.8174C26.6081 16.0417 25.8818 16.6122 25.0577 16.8904V16.9183C26.1052 17.0991 26.9992 17.8643 26.9992 19.353C26.9992 21.2591 25.6722 22.2609 23.6051 22.2609H19.1494ZM20.6858 20.9391H23.4933C24.9739 20.9391 25.3929 20.2296 25.3929 19.2974C25.3929 18.2539 24.7504 17.6556 23.7028 17.6556H20.6858V20.9391ZM20.6858 16.4452H23.3117C24.5688 16.4452 25.0018 15.9304 25.0018 15.04C25.0018 14.1635 24.471 13.6348 23.4235 13.6348H20.6858V16.4452ZM28.4656 22.2609V12.313H32.6279C34.5135 12.313 35.8963 13.1896 35.8963 15.2765C35.8963 17.3635 34.5135 18.2261 32.6279 18.2261H30.002V22.2609H28.4656ZM30.002 16.9043H32.5581C33.7174 16.9043 34.304 16.3896 34.304 15.2765C34.304 14.1496 33.7174 13.6348 32.5581 13.6348H30.002V16.9043ZM41.3034 22.4556C38.468 22.4556 36.6383 20.2852 36.6383 17.2939C36.6383 14.2887 38.482 12.1183 41.3174 12.1183C43.8176 12.1183 45.368 13.7043 45.6054 15.6939H43.9992C43.8176 14.72 43.203 13.44 41.2895 13.44C39.0826 13.44 38.2445 15.3043 38.2445 17.28C38.2445 19.2696 39.0826 21.1339 41.2895 21.1339C43.217 21.1339 43.9014 19.8539 43.9992 18.6435H45.6054C45.382 20.8556 43.8176 22.4556 41.3034 22.4556ZM46.989 22.2609V12.313H48.5254V20.9391H53.5816V22.2609H46.989ZM57.3145 22.2609V12.313H64.3821V13.6348H58.851V16.4591H63.6977V17.7809H58.851V20.9391H64.5218V22.2609H57.3145ZM70.1309 22.4556C67.1416 22.4556 65.228 20.2713 65.228 17.28C65.228 14.2887 67.1416 12.1183 70.1309 12.1183C73.1199 12.1183 75.0335 14.2887 75.0335 17.28C75.0335 18.6713 74.6284 19.8817 73.8881 20.7861L75.0893 21.9826L74.1954 22.887L72.9523 21.6348C72.1841 22.1635 71.2343 22.4556 70.1309 22.4556ZM66.8343 17.28C66.8343 19.3252 67.7701 21.1339 70.1309 21.1339C70.8711 21.1339 71.4717 20.953 71.9466 20.647L70.6477 19.3391L71.5416 18.4348L72.8266 19.7287C73.2456 19.047 73.4272 18.1843 73.4272 17.28C73.4272 15.2348 72.4914 13.44 70.1309 13.44C67.7701 13.44 66.8343 15.2348 66.8343 17.28Z" fill="white"/>
<path d="M72.6177 39.5425L73.2741 40.1959L72.786 40.6897L72.1064 40.0059C71.6874 40.2946 71.1685 40.4542 70.5658 40.4542C68.9336 40.4542 67.8887 39.2613 67.8887 37.6277C67.8887 35.9942 68.9336 34.809 70.5658 34.809C72.1986 34.809 73.2434 35.9942 73.2434 37.6277C73.2434 38.3875 73.022 39.0485 72.6177 39.5425ZM70.5658 39.7324C70.9702 39.7324 71.2984 39.6336 71.5575 39.4664L70.848 38.7523L71.3361 38.2584L72.038 38.965C72.2671 38.5927 72.3662 38.1217 72.3662 37.6277C72.3662 36.5109 71.855 35.5308 70.5658 35.5308C69.2769 35.5308 68.7658 36.5109 68.7658 37.6277C68.7658 38.7447 69.2769 39.7324 70.5658 39.7324ZM76.4587 38.851V36.4729H77.206V40.3478H76.4587V39.8616H76.4434C76.2373 40.1579 75.833 40.4542 75.1618 40.4542C74.4453 40.4542 73.8656 40.0439 73.8656 39.1549V36.4729H74.6129V38.9498C74.6129 39.4741 74.842 39.8236 75.4063 39.8236C76.0467 39.8236 76.4587 39.4361 76.4587 38.851ZM79.1202 40.4542C78.3422 40.4542 77.8464 40.0059 77.8464 39.3449C77.8464 38.4787 78.5029 38.2204 79.4715 38.038C80.0812 37.9241 80.4555 37.8481 80.4555 37.4682C80.4555 37.1871 80.2872 36.9516 79.7152 36.9516C79.0364 36.9516 78.8304 37.1643 78.7927 37.681H78.0294C78.0678 36.9363 78.5559 36.3513 79.746 36.3513C80.547 36.3513 81.1874 36.6856 81.1874 37.6885V39.4664C81.1874 39.7476 81.2258 39.892 81.3704 39.892C81.3934 39.892 81.4165 39.892 81.4619 39.8844V40.3402C81.3327 40.3706 81.2028 40.3858 81.0806 40.3858C80.7069 40.3858 80.5086 40.2414 80.4625 39.8008H80.4478C80.1957 40.2035 79.7537 40.4542 79.1202 40.4542ZM79.2885 39.854C79.9597 39.854 80.4555 39.5121 80.4555 38.8358V38.2812C80.3333 38.3951 79.9974 38.4787 79.6007 38.5623C78.9142 38.699 78.6244 38.889 78.6244 39.2917C78.6244 39.6564 78.8227 39.854 79.2885 39.854ZM84.1416 36.3589C84.8581 36.3589 85.4377 36.7692 85.4377 37.6581V40.3478H84.6905V37.8633C84.6905 37.3466 84.4614 36.9971 83.8971 36.9971C83.2567 36.9971 82.8447 37.3846 82.8447 37.9697V40.3478H82.0974V36.4729H82.8447V36.9592H82.86C83.0661 36.6628 83.4697 36.3589 84.1416 36.3589ZM87.6425 39.778C87.7724 39.778 87.8339 39.7704 87.9631 39.7476V40.3478C87.7724 40.3858 87.6502 40.3934 87.4903 40.3934C86.8499 40.3934 86.4609 40.1502 86.4609 39.2537V37.0883H85.8959V36.4729H86.4609V35.2268H87.2081V36.4729H87.9554V37.0883H87.2081V39.2765C87.2081 39.6868 87.3227 39.778 87.6425 39.778ZM89.3787 35.7815H88.5315V34.9761H89.3787V35.7815ZM89.3249 40.3478H88.5776V36.4729H89.3249V40.3478ZM91.5981 39.778C91.728 39.778 91.7888 39.7704 91.9187 39.7476V40.3478C91.728 40.3858 91.6058 40.3934 91.4459 40.3934C90.8048 40.3934 90.4158 40.1502 90.4158 39.2537V37.0883H89.8515V36.4729H90.4158V35.2268H91.1637V36.4729H91.911V37.0883H91.1637V39.2765C91.1637 39.6868 91.2776 39.778 91.5981 39.778ZM93.0361 41.7078C92.8685 41.7078 92.7539 41.6926 92.5556 41.6547V41.0468C92.6855 41.062 92.7539 41.0696 92.8761 41.0696C93.1736 41.0696 93.5242 40.9176 93.6772 40.3098L92.1058 36.4729H92.9222L94.0585 39.4361H94.0739L95.1417 36.4729H95.9273L94.3867 40.439C94.0124 41.3963 93.6388 41.7078 93.0361 41.7078Z" fill="white"/>
<path d="M70.7682 53.7035C68.8541 53.7035 68.041 52.1133 68.041 50.1575C68.041 48.2018 68.8541 46.6016 70.7682 46.6016C72.6817 46.6016 73.4849 48.2018 73.4849 50.1575C73.4849 52.1133 72.6817 53.7035 70.7682 53.7035ZM70.7682 52.7849C71.9973 52.7849 72.3647 51.5601 72.3647 50.1575C72.3647 48.7549 71.9973 47.5202 70.7682 47.5202C69.5284 47.5202 69.1615 48.7549 69.1615 50.1575C69.1615 51.5601 69.5284 52.7849 70.7682 52.7849ZM76.8147 53.7035C75.1784 53.7035 74.2859 52.7158 74.2461 51.57H75.3369C75.4061 52.1923 75.763 52.7849 76.7546 52.7849C77.6276 52.7849 78.2024 52.2516 78.2024 51.2342C78.2024 50.2761 77.6772 49.8415 76.8245 49.8415C76.2693 49.8415 75.763 50.0291 75.4361 50.4539H74.3355L75.0695 46.7399H78.9664V47.6585H75.8922L75.5157 49.5451V49.5649C75.8726 49.1994 76.3782 48.9723 77.1122 48.9723C78.4112 48.9723 79.3135 49.9303 79.3135 51.2342C79.3135 52.7454 78.2226 53.7035 76.8147 53.7035Z" fill="white"/>
<path d="M19.5382 40.3478H18.6992V34.9153H19.5382V40.3478ZM22.4761 36.359C23.1931 36.359 23.7729 36.7692 23.7729 37.6582V40.3478H23.0253V37.8633C23.0253 37.3466 22.7965 36.9972 22.232 36.9972C21.5913 36.9972 21.1794 37.3846 21.1794 37.9697V40.3478H20.4319V36.4729H21.1794V36.9592H21.1947C21.4006 36.6628 21.8049 36.359 22.4761 36.359ZM26.3601 40.3478H25.5211L24.1329 36.4729H24.9338L25.9559 39.5805H25.9635L26.9704 36.4729H27.7484L26.3601 40.3478ZM31.6665 38.3268C31.6665 38.4332 31.6665 38.5471 31.6589 38.6079H28.6689C28.6842 39.2537 29.0656 39.854 29.8359 39.854C30.5224 39.854 30.7894 39.4133 30.858 39.1549H31.6208C31.4148 39.8996 30.8428 40.4618 29.8206 40.4618C28.585 40.4618 27.8985 39.588 27.8985 38.4028C27.8985 37.1871 28.6308 36.3513 29.8206 36.3513C31.0029 36.3513 31.6665 37.1263 31.6665 38.3268ZM28.6689 38.0229H30.8885C30.8885 37.415 30.4614 36.9592 29.7978 36.9592C29.1723 36.9592 28.7146 37.3846 28.6689 38.0229ZM33.8311 40.4542C32.6489 40.4542 32.0615 39.8463 32.0386 39.0562H32.7938C32.8243 39.5045 33.0989 39.854 33.8235 39.854C34.4795 39.854 34.6549 39.5652 34.6549 39.2841C34.6549 38.7978 34.1363 38.7447 33.6328 38.6383C32.954 38.4788 32.1759 38.2812 32.1759 37.4758C32.1759 36.8072 32.7175 36.359 33.6557 36.359C34.7236 36.359 35.2346 36.9288 35.288 37.5974H34.5329C34.4795 37.3011 34.3193 36.9592 33.6709 36.9592C33.1675 36.9592 32.954 37.1567 32.954 37.4454C32.954 37.8481 33.3887 37.8861 33.9379 38.0077C34.6549 38.1748 35.4329 38.38 35.4329 39.2461C35.4329 39.9983 34.8532 40.4542 33.8311 40.4542ZM37.4117 39.778C37.5414 39.778 37.6024 39.7704 37.7321 39.7476V40.3478C37.5414 40.3858 37.4193 40.3934 37.2592 40.3934C36.6184 40.3934 36.2294 40.1503 36.2294 39.2537V37.0884H35.665V36.4729H36.2294V35.2269H36.977V36.4729H37.7244V37.0884H36.977V39.2765C36.977 39.6868 37.0914 39.778 37.4117 39.778ZM41.8342 38.3268C41.8342 38.4332 41.8342 38.5471 41.8266 38.6079H38.8366C38.8518 39.2537 39.2332 39.854 40.0037 39.854C40.6901 39.854 40.9571 39.4133 41.0257 39.1549H41.7885C41.5826 39.8996 41.0105 40.4618 39.9884 40.4618C38.7527 40.4618 38.0662 39.588 38.0662 38.4028C38.0662 37.1871 38.7985 36.3513 39.9884 36.3513C41.1707 36.3513 41.8342 37.1263 41.8342 38.3268ZM38.8366 38.0229H41.0563C41.0563 37.415 40.6291 36.9592 39.9655 36.9592C39.3401 36.9592 38.8824 37.3846 38.8366 38.0229ZM45.2269 36.944V34.9153H45.9744V40.3478H45.2269V39.892H45.2117C44.9981 40.1655 44.6243 40.4542 44.0141 40.4542C43.0225 40.4542 42.2674 39.6868 42.2674 38.4104C42.2674 37.1339 43.0225 36.359 44.0141 36.359C44.6243 36.359 44.9981 36.6401 45.2117 36.944H45.2269ZM44.1362 39.8388C44.8074 39.8388 45.2193 39.2841 45.2193 38.4104C45.2193 37.529 44.8074 36.982 44.1362 36.982C43.4039 36.982 43.0454 37.6506 43.0454 38.4104C43.0454 39.1702 43.4039 39.8388 44.1362 39.8388Z" fill="white"/>
<path d="M32.1673 53.5652V48.4981C31.8699 48.7747 31.3443 48.8241 30.7295 48.8241V47.9549C31.9392 47.9252 32.2962 47.5597 32.3855 46.7399H33.2383V53.5652H32.1673ZM34.4463 54.9085V54.3752C34.8131 54.2665 34.9718 54.0788 34.9619 53.5652H34.4463V52.4886H35.5271V53.5652C35.5271 54.2073 35.2395 54.711 34.4463 54.9085ZM38.8998 53.7035C37.2636 53.7035 36.3712 52.7158 36.3315 51.57H37.4223C37.4917 52.1923 37.8487 52.7849 38.8403 52.7849C39.7129 52.7849 40.2881 52.2516 40.2881 51.2342C40.2881 50.2761 39.7625 49.8415 38.9097 49.8415C38.3544 49.8415 37.8487 50.0291 37.5215 50.4539H36.4208L37.1546 46.7399H41.0516V47.6585H37.9776L37.6008 49.5451V49.5649C37.9578 49.1994 38.4635 48.9723 39.1973 48.9723C40.4963 48.9723 41.3987 49.9303 41.3987 51.2342C41.3987 52.7454 40.3079 53.7035 38.8998 53.7035ZM44.9095 53.7035C42.9957 53.7035 42.1826 52.1133 42.1826 50.1575C42.1826 48.2018 42.9957 46.6016 44.9095 46.6016C46.8233 46.6016 47.6265 48.2018 47.6265 50.1575C47.6265 52.1133 46.8233 53.7035 44.9095 53.7035ZM44.9095 52.7849C46.1391 52.7849 46.506 51.5601 46.506 50.1575C46.506 48.7549 46.1391 47.5202 44.9095 47.5202C43.67 47.5202 43.3031 48.7549 43.3031 50.1575C43.3031 51.5601 43.67 52.7849 44.9095 52.7849ZM51.2039 53.7035C49.2901 53.7035 48.477 52.1133 48.477 50.1575C48.477 48.2018 49.2901 46.6016 51.2039 46.6016C53.1177 46.6016 53.9209 48.2018 53.9209 50.1575C53.9209 52.1133 53.1177 53.7035 51.2039 53.7035ZM51.2039 52.7849C52.4335 52.7849 52.8004 51.5601 52.8004 50.1575C52.8004 48.7549 52.4335 47.5202 51.2039 47.5202C49.9644 47.5202 49.5975 48.7549 49.5975 50.1575C49.5975 51.5601 49.9644 52.7849 51.2039 52.7849Z" fill="white"/>
<path d="M25.0712 49.1591L26.239 45.8261H25.154L24.0663 49.1591H21.5098L20.4137 45.8261H19.2708L20.469 49.1591H18.1582V49.9842H20.7644L21.057 50.7954H18.9588V51.6204H21.3552L22.2248 54.0432H23.3568L24.2071 51.6204H25.9298V50.7954H24.4969L24.7813 49.9842H27.3544V49.1591H25.0712ZM22.8018 53.0449H22.7908L22.3215 51.6231H23.2656L22.8018 53.0449ZM23.5335 50.7954H22.0482L21.7803 49.9842H23.7985L23.5335 50.7954Z" fill="white"/>
<path d="M109.733 40.3478H108.849L110.877 34.9153H111.785L113.829 40.3478H112.915L112.464 39.041H110.183L109.733 40.3478ZM111.32 35.6903L110.435 38.3344H112.228L111.336 35.6903H111.32ZM115.837 40.3478H114.997L113.609 36.4729H114.41L115.432 39.5805H115.44L116.446 36.4729H117.224L115.837 40.3478ZM121.143 38.3268C121.143 38.4332 121.143 38.5471 121.135 38.6079H118.145C118.16 39.2537 118.541 39.854 119.312 39.854C119.999 39.854 120.266 39.4133 120.334 39.1549H121.097C120.891 39.8996 120.319 40.4618 119.297 40.4618C118.061 40.4618 117.374 39.588 117.374 38.4028C117.374 37.1871 118.107 36.3513 119.297 36.3513C120.479 36.3513 121.143 37.1263 121.143 38.3268ZM118.145 38.0229H120.365C120.365 37.415 119.937 36.9592 119.274 36.9592C118.648 36.9592 118.191 37.3846 118.145 38.0229ZM123.582 36.3817C123.719 36.3817 123.826 36.3893 123.941 36.4045V37.1188C123.849 37.1035 123.78 37.0959 123.688 37.0959C123.01 37.0959 122.521 37.605 122.521 38.342V40.3478H121.774V36.4729H122.521V37.2099H122.537C122.743 36.7236 123.056 36.3817 123.582 36.3817ZM125.367 40.4542C124.589 40.4542 124.093 40.0059 124.093 39.3449C124.093 38.4788 124.749 38.2204 125.719 38.0381C126.328 37.9241 126.702 37.8481 126.702 37.4682C126.702 37.1871 126.534 36.9516 125.962 36.9516C125.284 36.9516 125.077 37.1643 125.039 37.681H124.276C124.315 36.9364 124.803 36.3513 125.993 36.3513C126.794 36.3513 127.435 36.6856 127.435 37.6886V39.4664C127.435 39.7476 127.473 39.892 127.617 39.892C127.641 39.892 127.664 39.892 127.709 39.8844V40.3402C127.579 40.3706 127.45 40.3858 127.328 40.3858C126.954 40.3858 126.756 40.2415 126.71 39.8008H126.695C126.443 40.2035 126.001 40.4542 125.367 40.4542ZM125.535 39.854C126.207 39.854 126.702 39.5121 126.702 38.8358V38.2812C126.58 38.3951 126.244 38.4788 125.848 38.5623C125.161 38.6991 124.871 38.889 124.871 39.2917C124.871 39.6564 125.07 39.854 125.535 39.854ZM131.045 36.9288V36.4729H131.793V40.0439C131.793 41.214 131.084 41.7382 129.97 41.7382C128.856 41.7382 128.299 41.2064 128.223 40.5074H129.001C129.077 40.8569 129.337 41.1304 129.97 41.1304C130.679 41.1304 131.045 40.8189 131.045 40.0895V39.5652H131.03C130.817 39.8767 130.458 40.1503 129.833 40.1503C128.864 40.1503 128.116 39.4968 128.116 38.2584C128.116 37.0123 128.864 36.359 129.833 36.359C130.458 36.359 130.817 36.6552 131.03 36.9288H131.045ZM129.97 39.5348C130.641 39.5348 131.037 39.1018 131.037 38.2584C131.037 37.4074 130.641 36.982 129.97 36.982C129.238 36.982 128.894 37.529 128.894 38.2584C128.894 38.9878 129.238 39.5348 129.97 39.5348ZM136.197 38.3268C136.197 38.4332 136.197 38.5471 136.189 38.6079H133.2C133.214 39.2537 133.596 39.854 134.367 39.854C135.053 39.854 135.32 39.4133 135.388 39.1549H136.151C135.945 39.8996 135.373 40.4618 134.351 40.4618C133.115 40.4618 132.429 39.588 132.429 38.4028C132.429 37.1871 133.161 36.3513 134.351 36.3513C135.534 36.3513 136.197 37.1263 136.197 38.3268ZM133.2 38.0229H135.419C135.419 37.415 134.992 36.9592 134.328 36.9592C133.702 36.9592 133.245 37.3846 133.2 38.0229Z" fill="white"/>
<path d="M124.335 53.7035C122.57 53.7035 121.578 52.7948 121.578 51.2342H122.669C122.669 52.1725 123.066 52.7849 124.265 52.7849C125.347 52.7849 125.713 52.3503 125.713 51.6194C125.713 50.6811 125.039 50.4539 124.345 50.4539H123.7V49.5748H124.305C124.99 49.5748 125.475 49.2685 125.475 48.5277C125.475 47.9944 125.148 47.5202 124.305 47.5202C123.145 47.5202 122.858 48.1327 122.858 48.7945H121.767C121.767 47.5301 122.629 46.6016 124.315 46.6016C125.534 46.6016 126.586 47.2733 126.586 48.4784C126.586 49.2093 126.209 49.6637 125.555 49.9402V49.96C126.457 50.2464 126.824 50.8391 126.824 51.6391C126.824 52.9627 125.842 53.7035 124.335 53.7035ZM130.379 53.7035C128.466 53.7035 127.653 52.1133 127.653 50.1575C127.653 48.2018 128.466 46.6016 130.379 46.6016C132.293 46.6016 133.096 48.2018 133.096 50.1575C133.096 52.1133 132.293 53.7035 130.379 53.7035ZM130.379 52.7849C131.609 52.7849 131.976 51.5601 131.976 50.1575C131.976 48.7549 131.609 47.5202 130.379 47.5202C129.14 47.5202 128.773 48.7549 128.773 50.1575C128.773 51.5601 129.14 52.7849 130.379 52.7849ZM136.674 53.7035C134.76 53.7035 133.947 52.1133 133.947 50.1575C133.947 48.2018 134.76 46.6016 136.674 46.6016C138.588 46.6016 139.391 48.2018 139.391 50.1575C139.391 52.1133 138.588 53.7035 136.674 53.7035ZM136.674 52.7849C137.903 52.7849 138.27 51.5601 138.27 50.1575C138.27 48.7549 137.903 47.5202 136.674 47.5202C135.435 47.5202 135.067 48.7549 135.067 50.1575C135.067 51.5601 135.435 52.7849 136.674 52.7849Z" fill="white"/>
<path d="M115.732 49.1591L116.899 45.8261H115.815L114.727 49.1591H112.171L111.074 45.8261H109.932L111.129 49.1591H108.818V49.9842H111.425L111.717 50.7954H109.619V51.6204H112.016L112.885 54.0432H114.017L114.868 51.6204H116.591V50.7954H115.158L115.442 49.9842H118.015V49.1591H115.732ZM113.463 53.0449H113.451L112.982 51.6231H113.926L113.463 53.0449ZM114.194 50.7954H112.708L112.441 49.9842H114.459L114.194 50.7954Z" fill="white"/>
<path d="M157.528 40.3478H153.928V34.9153H154.767V39.626H157.528V40.3478ZM159.424 40.3478H158.578V35.6372H156.816V34.9153H161.186V35.6372H159.424V40.3478ZM162.678 40.3478H161.839V34.9153H164.111C165.142 34.9153 165.897 35.394 165.897 36.5337C165.897 37.6734 165.142 38.1444 164.111 38.1444H162.678V40.3478ZM162.678 37.4226H164.074C164.706 37.4226 165.027 37.1415 165.027 36.5337C165.027 35.9183 164.706 35.6372 164.074 35.6372H162.678V37.4226Z" fill="white"/>
<path d="M168.933 53.7035C166.97 53.7035 166.266 52.2516 166.266 50.1674C166.266 47.9252 167.248 46.6016 168.943 46.6016C170.232 46.6016 171.075 47.4511 171.194 48.4685H170.093C170.004 47.9055 169.676 47.4906 168.943 47.4906C167.664 47.4906 167.336 48.6759 167.336 49.8514V49.9501L167.366 49.96C167.723 49.3871 168.348 49.0611 169.131 49.0611C170.46 49.0611 171.383 49.9896 171.383 51.333C171.383 52.6565 170.45 53.7035 168.933 53.7035ZM168.903 52.8146C169.806 52.8146 170.292 52.2516 170.292 51.3922C170.292 50.4934 169.766 49.96 168.973 49.96C168.03 49.96 167.456 50.5527 167.456 51.412C167.456 52.2417 167.971 52.8146 168.903 52.8146ZM174.919 53.7035C173.005 53.7035 172.192 52.1133 172.192 50.1575C172.192 48.2018 173.005 46.6016 174.919 46.6016C176.833 46.6016 177.636 48.2018 177.636 50.1575C177.636 52.1133 176.833 53.7035 174.919 53.7035ZM174.919 52.7849C176.148 52.7849 176.515 51.5601 176.515 50.1575C176.515 48.7549 176.148 47.5202 174.919 47.5202C173.679 47.5202 173.312 48.7549 173.312 50.1575C173.312 51.5601 173.679 52.7849 174.919 52.7849ZM181.213 53.7035C179.299 53.7035 178.486 52.1133 178.486 50.1575C178.486 48.2018 179.299 46.6016 181.213 46.6016C183.127 46.6016 183.93 48.2018 183.93 50.1575C183.93 52.1133 183.127 53.7035 181.213 53.7035ZM181.213 52.7849C182.443 52.7849 182.809 51.5601 182.809 50.1575C182.809 48.7549 182.443 47.5202 181.213 47.5202C179.973 47.5202 179.607 48.7549 179.607 50.1575C179.607 51.5601 179.973 52.7849 181.213 52.7849Z" fill="white"/>
<path d="M160.3 49.1591L161.468 45.8261H160.382L159.295 49.1591H156.738L155.642 45.8261H154.499L155.698 49.1591H153.387V49.9842H155.993L156.286 50.7954H154.187V51.6204H156.584L157.453 54.0432H158.585L159.435 51.6204H161.158V50.7954H159.725L160.009 49.9842H162.583V49.1591H160.3ZM158.03 53.0449H158.019L157.55 51.6231H158.494L158.03 53.0449ZM158.762 50.7954H157.277L157.008 49.9842H159.027L158.762 50.7954Z" fill="white"/>
<path d="M247.893 23.8588C245.254 23.8588 243.772 22.5007 243.772 20.168H245.402C245.402 21.5705 245.995 22.4858 247.789 22.4858C249.404 22.4858 249.952 21.8362 249.952 20.7438C249.952 19.3412 248.945 19.0017 247.908 19.0017H246.944V17.6877H247.848C248.871 17.6877 249.597 17.23 249.597 16.1228C249.597 15.3256 249.108 14.617 247.848 14.617C246.114 14.617 245.684 15.5323 245.684 16.5215H244.054C244.054 14.6317 245.343 13.244 247.863 13.244C249.686 13.244 251.257 14.2479 251.257 16.049C251.257 17.1415 250.694 17.8206 249.716 18.234V18.2635C251.064 18.6917 251.612 19.5775 251.612 20.7733C251.612 22.7516 250.145 23.8588 247.893 23.8588ZM252.911 25.66V24.8627C253.459 24.7004 253.696 24.4199 253.681 23.6522H252.911V22.043H254.526V23.6522C254.526 24.6118 254.096 25.3647 252.911 25.66ZM259.518 23.8588C256.657 23.8588 255.442 21.4819 255.442 18.5588C255.442 15.6356 256.657 13.244 259.518 13.244C262.379 13.244 263.579 15.6356 263.579 18.5588C263.579 21.4819 262.379 23.8588 259.518 23.8588ZM259.518 22.4858C261.355 22.4858 261.904 20.6552 261.904 18.5588C261.904 16.4624 261.355 14.617 259.518 14.617C257.665 14.617 257.117 16.4624 257.117 18.5588C257.117 20.6552 257.665 22.4858 259.518 22.4858ZM268.926 23.8588C266.065 23.8588 264.85 21.4819 264.85 18.5588C264.85 15.6356 266.065 13.244 268.926 13.244C271.786 13.244 272.987 15.6356 272.987 18.5588C272.987 21.4819 271.786 23.8588 268.926 23.8588ZM268.926 22.4858C270.764 22.4858 271.312 20.6552 271.312 18.5588C271.312 16.4624 270.764 14.617 268.926 14.617C267.073 14.617 266.525 16.4624 266.525 18.5588C266.525 20.6552 267.073 22.4858 268.926 22.4858ZM278.334 23.8588C275.473 23.8588 274.258 21.4819 274.258 18.5588C274.258 15.6356 275.473 13.244 278.334 13.244C281.194 13.244 282.395 15.6356 282.395 18.5588C282.395 21.4819 281.194 23.8588 278.334 23.8588ZM278.334 22.4858C280.172 22.4858 280.72 20.6552 280.72 18.5588C280.72 16.4624 280.172 14.617 278.334 14.617C276.481 14.617 275.933 16.4624 275.933 18.5588C275.933 20.6552 276.481 22.4858 278.334 22.4858Z" fill="#14AE5C"/>
<path d="M227.692 37.0174H226.835V35.2745H225.141V34.4214H226.835V32.6784H227.692V34.4214H229.386V35.2745H227.692V37.0174ZM233.205 37.843V33.1371C232.928 33.3939 232.44 33.4398 231.869 33.4398V32.6325C232.992 32.6051 233.324 32.2656 233.407 31.5043H234.199V37.843H233.205ZM235.321 39.0906V38.5952C235.662 38.4944 235.809 38.32 235.8 37.843H235.321V36.8432H236.325V37.843C236.325 38.4394 236.058 38.9072 235.321 39.0906ZM239.457 37.9715C237.938 37.9715 237.109 37.0542 237.072 35.99H238.085C238.149 36.568 238.481 37.1184 239.402 37.1184C240.212 37.1184 240.747 36.623 240.747 35.6781C240.747 34.7883 240.258 34.3847 239.466 34.3847C238.951 34.3847 238.481 34.559 238.177 34.9534H237.155L237.836 31.5043H241.455V32.3573H238.6L238.251 34.1095V34.1278C238.582 33.7884 239.052 33.5774 239.733 33.5774C240.94 33.5774 241.778 34.4672 241.778 35.6781C241.778 37.0816 240.765 37.9715 239.457 37.9715ZM245.039 37.9715C243.261 37.9715 242.506 36.4946 242.506 34.6782C242.506 32.8619 243.261 31.3758 245.039 31.3758C246.816 31.3758 247.562 32.8619 247.562 34.6782C247.562 36.4946 246.816 37.9715 245.039 37.9715ZM245.039 37.1184C246.181 37.1184 246.521 35.9808 246.521 34.6782C246.521 33.3756 246.181 32.2289 245.039 32.2289C243.887 32.2289 243.546 33.3756 243.546 34.6782C243.546 35.9808 243.887 37.1184 245.039 37.1184ZM250.884 37.9715C249.107 37.9715 248.352 36.4946 248.352 34.6782C248.352 32.8619 249.107 31.3758 250.884 31.3758C252.662 31.3758 253.407 32.8619 253.407 34.6782C253.407 36.4946 252.662 37.9715 250.884 37.9715ZM250.884 37.1184C252.026 37.1184 252.367 35.9808 252.367 34.6782C252.367 33.3756 252.026 32.2289 250.884 32.2289C249.733 32.2289 249.392 33.3756 249.392 34.6782C249.392 35.9808 249.733 37.1184 250.884 37.1184ZM258.102 38.9622H257.31C256.619 38.0357 256.03 36.5955 256.03 34.9351C256.03 33.2197 256.619 31.8161 257.31 30.8896H258.102C257.503 31.9996 257.034 33.238 257.034 34.9351C257.034 36.5955 257.503 37.8522 258.102 38.9622ZM259.538 37.843V33.1371C259.261 33.3939 258.773 33.4398 258.202 33.4398V32.6325C259.325 32.6051 259.657 32.2656 259.74 31.5043H260.532V37.843H259.538ZM264.15 37.9715C262.372 37.9715 261.617 36.4946 261.617 34.6782C261.617 32.8619 262.372 31.3758 264.15 31.3758C265.927 31.3758 266.673 32.8619 266.673 34.6782C266.673 36.4946 265.927 37.9715 264.15 37.9715ZM264.15 37.1184C265.292 37.1184 265.632 35.9808 265.632 34.6782C265.632 33.3756 265.292 32.2289 264.15 32.2289C262.998 32.2289 262.658 33.3756 262.658 34.6782C262.658 35.9808 262.998 37.1184 264.15 37.1184ZM269.995 37.9715C268.218 37.9715 267.463 36.4946 267.463 34.6782C267.463 32.8619 268.218 31.3758 269.995 31.3758C271.773 31.3758 272.518 32.8619 272.518 34.6782C272.518 36.4946 271.773 37.9715 269.995 37.9715ZM269.995 37.1184C271.137 37.1184 271.478 35.9808 271.478 34.6782C271.478 33.3756 271.137 32.2289 269.995 32.2289C268.844 32.2289 268.503 33.3756 268.503 34.6782C268.503 35.9808 268.844 37.1184 269.995 37.1184ZM274.699 35.0176C273.649 35.0176 273.106 34.2104 273.106 33.1921C273.106 32.1831 273.631 31.3758 274.699 31.3758C275.74 31.3758 276.283 32.1831 276.283 33.1921C276.283 34.2104 275.758 35.0176 274.699 35.0176ZM275.39 37.843H274.598L278.134 31.5043H278.926L275.39 37.843ZM274.699 34.3296C275.206 34.3296 275.445 33.8893 275.445 33.1921C275.445 32.4949 275.206 32.0547 274.699 32.0547C274.183 32.0547 273.944 32.4949 273.944 33.1921C273.944 33.8893 274.183 34.3296 274.699 34.3296ZM278.835 37.9715C277.784 37.9715 277.25 37.1642 277.25 36.1552C277.25 35.1369 277.775 34.3296 278.835 34.3296C279.884 34.3296 280.418 35.1369 280.418 36.1552C280.418 37.1642 279.893 37.9715 278.835 37.9715ZM278.835 37.2926C279.341 37.2926 279.589 36.8523 279.589 36.1552C279.589 35.458 279.341 35.0176 278.835 35.0176C278.328 35.0176 278.079 35.458 278.079 36.1552C278.079 36.8523 278.328 37.2926 278.835 37.2926ZM281.551 38.9622H280.759C281.357 37.8522 281.836 36.6046 281.836 34.9076C281.836 33.2472 281.357 31.9996 280.759 30.8896H281.551C282.241 31.8161 282.831 33.2472 282.831 34.9076C282.831 36.623 282.241 38.0357 281.551 38.9622Z" fill="#14AE5C"/>
<path d="M235.032 17.3567L236.777 12.375H235.155L233.529 17.3567H229.709L228.07 12.375H226.362L228.153 17.3567H224.699V18.5898H228.595L229.032 19.8024H225.896V21.0356H229.478L230.777 24.6568H232.469L233.74 21.0356H236.315V19.8024H234.173L234.599 18.5898H238.444V17.3567H235.032ZM231.64 23.1647H231.623L230.922 21.0397H232.333L231.64 23.1647ZM232.733 19.8024H230.513L230.113 18.5898H233.129L232.733 19.8024Z" fill="#14AE5C"/>
</g>
<defs>
<clipPath id="clip0_507_463">
<rect width="301" height="64" fill="white"/>
</clipPath>
</defs>
</svg>
