<svg width="142" height="309" viewBox="0 0 142 309" fill="none" xmlns="http://www.w3.org/2000/svg">
<g clip-path="url(#clip0_504_332)">
<mask id="mask0_504_332" style="mask-type:luminance" maskUnits="userSpaceOnUse" x="0" y="0" width="142" height="309">
<path d="M142 0H0V309H142V0Z" fill="white"/>
</mask>
<g mask="url(#mask0_504_332)">
<path d="M142 0H0V309H142V0Z" fill="#3AEE6C"/>
<path d="M13.8164 222.467V212.985H15.2694V222.467H13.8164ZM21.3083 218.13C21.3083 217.228 20.912 216.618 19.9345 216.618C18.8249 216.618 18.1116 217.295 18.1116 218.316V222.467H16.8171V215.703H18.1116V216.552H18.138C18.4947 216.035 19.1948 215.504 20.3572 215.504C21.5989 215.504 22.6028 216.22 22.6028 217.772V222.467H21.3083V218.13ZM26.1569 222.546C25.0473 222.546 24.3736 222.122 24.3736 220.557V216.777H23.3962V215.703H24.3736V213.528H25.6682V215.703H26.9627V216.777H25.6682V220.597C25.6682 221.313 25.8663 221.472 26.4211 221.472C26.6456 221.472 26.7513 221.459 26.9759 221.419V222.467C26.6456 222.533 26.4343 222.546 26.1569 222.546ZM29.3343 218.966V222.467H28.0398V215.703H29.3343V216.99H29.3607C29.7174 216.141 30.259 215.544 31.1704 215.544C31.4082 215.544 31.5931 215.557 31.7913 215.584V216.83C31.6327 216.804 31.5139 216.791 31.3554 216.791C30.1797 216.791 29.3343 217.679 29.3343 218.966ZM35.3601 222.666C33.2598 222.666 31.9917 221.207 31.9917 219.085C31.9917 216.976 33.2598 215.491 35.3733 215.491C37.4604 215.491 38.7285 216.963 38.7285 219.072C38.7285 221.194 37.4604 222.666 35.3601 222.666ZM33.3391 219.085C33.3391 220.491 33.9731 221.591 35.3733 221.591C36.7471 221.591 37.3811 220.491 37.3811 219.085C37.3811 217.666 36.7471 216.579 35.3733 216.579C33.9731 216.579 33.3391 217.666 33.3391 219.085ZM42.5116 222.652C40.7944 222.652 39.4867 221.313 39.4867 219.085C39.4867 216.857 40.7944 215.504 42.5116 215.504C43.5684 215.504 44.2156 215.995 44.5855 216.525H44.6119V212.985H45.9064V222.467H44.6119V221.671H44.5855C44.2156 222.148 43.5684 222.652 42.5116 222.652ZM40.8341 219.085C40.8341 220.411 41.4549 221.578 42.723 221.578C43.8854 221.578 44.5987 220.61 44.5987 219.085C44.5987 217.547 43.8854 216.592 42.723 216.592C41.4549 216.592 40.8341 217.759 40.8341 219.085ZM49.5565 222.652C48.3148 222.652 47.3109 221.936 47.3109 220.385V215.703H48.6054V220.027C48.6054 220.942 49.0017 221.552 49.9792 221.552C51.0888 221.552 51.8021 220.875 51.8021 219.854V215.703H53.0966V222.467H51.8021V221.618H51.7757C51.419 222.135 50.7189 222.652 49.5565 222.652ZM57.5075 222.666C55.4997 222.666 54.192 221.207 54.192 219.085C54.192 216.963 55.4997 215.504 57.4943 215.504C59.2247 215.504 60.3739 216.632 60.5324 218.157H59.1983C59.1322 217.454 58.736 216.579 57.5075 216.579C56.0677 216.579 55.5393 217.812 55.5393 219.085C55.5393 220.358 56.0677 221.578 57.5075 221.578C58.7492 221.578 59.1322 220.729 59.1983 219.96H60.5324C60.44 221.512 59.2379 222.666 57.5075 222.666ZM61.5661 222.467V215.703H62.8606V222.467H61.5661ZM61.4868 214.496V213.091H62.953V214.496H61.4868ZM68.8051 218.13C68.8051 217.228 68.4088 216.618 67.4313 216.618C66.3217 216.618 65.6084 217.295 65.6084 218.316V222.467H64.3139V215.703H65.6084V216.552H65.6349C65.9915 216.035 66.6916 215.504 67.854 215.504C69.0957 215.504 70.0996 216.22 70.0996 217.772V222.467H68.8051V218.13ZM74.392 224.894C72.4634 224.894 71.4991 223.965 71.367 222.745H72.714C72.8465 223.355 73.2956 223.833 74.392 223.833C75.6204 223.833 76.2545 223.289 76.2545 222.016V221.101H76.228C75.8582 221.645 75.2374 222.122 74.1542 222.122C72.4766 222.122 71.1821 220.981 71.1821 218.82C71.1821 216.645 72.4766 215.504 74.1542 215.504C75.2374 215.504 75.8582 216.022 76.228 216.499H76.2545V215.703H77.549V221.936C77.549 223.979 76.3205 224.894 74.392 224.894ZM72.5294 218.82C72.5294 220.093 73.1239 221.048 74.392 221.048C75.5544 221.048 76.2413 220.292 76.2413 218.82C76.2413 217.334 75.5544 216.592 74.392 216.592C73.1239 216.592 72.5294 217.547 72.5294 218.82Z" fill="black"/>
<path d="M12.9383 242.359L14.7017 237.618H15.2433L17.02 242.359H16.5048L16.0293 241.047H13.9092L13.4336 242.359H12.9383ZM14.0677 240.616H15.8774L14.9791 238.076H14.9659L14.0677 240.616ZM18.2644 242.386C17.7757 242.386 17.4719 242.22 17.4719 241.484V239.356H16.9765V238.978H17.4719V237.85H17.9012V238.978H18.5814V239.356H17.9012V241.491C17.9012 241.909 17.9936 242.008 18.3239 242.008C18.4295 242.008 18.4824 242.001 18.5814 241.995V242.359C18.4493 242.379 18.3701 242.386 18.2644 242.386ZM20.6885 242.359V237.618H21.1706V242.359H20.6885ZM22.172 242.359V237.618H22.7598L25.3158 241.676H25.329V237.618H25.8111V242.359H25.2233L22.6673 238.301H22.6541V242.359H22.172ZM28.1038 242.359L26.3799 237.618H26.9017L28.3547 241.869H28.3613L29.8012 237.618H30.3031L28.6057 242.359H28.1038ZM32.4348 242.446C31.2988 242.446 30.4798 241.856 30.4137 240.788H30.9157C30.9817 241.524 31.4309 242.021 32.415 242.021C33.2869 242.021 33.5841 241.604 33.5841 241.08C33.5907 240.377 33.102 240.257 32.1309 240.039C31.3582 239.86 30.6119 239.621 30.6119 238.752C30.6119 237.996 31.2129 237.532 32.1838 237.532C33.2076 237.532 33.8549 238.056 33.9275 238.984H33.4256C33.3463 238.328 32.983 237.957 32.1838 237.957C31.4903 237.957 31.1138 238.242 31.1138 238.732C31.1138 239.369 31.6752 239.502 32.3687 239.654C33.3397 239.866 34.0861 240.105 34.0861 241.066C34.0861 241.836 33.5577 242.446 32.4348 242.446ZM35.7835 242.359V238.043H34.1785V237.618H37.8705V238.043H36.259V242.359H35.7835ZM37.712 242.877C37.9234 242.797 37.9894 242.678 37.9828 242.359H37.712V241.802H38.2668V242.359C38.2668 242.731 38.1611 243.023 37.712 243.162V242.877ZM40.8918 242.359L39.8219 238.978H40.2974L41.1362 241.869H41.1494L41.9354 238.978H42.4175L43.2035 241.869H43.2167L44.0621 238.978H44.5244L43.4478 242.359H42.9657L42.1731 239.502H42.1599L41.3674 242.359H40.8918ZM46.3512 242.452C45.3209 242.452 44.7463 241.696 44.7463 240.669C44.7463 239.588 45.3803 238.891 46.3512 238.891C47.3221 238.891 47.8703 239.574 47.8703 240.516C47.8703 240.609 47.8703 240.702 47.8637 240.755H45.1954C45.202 241.438 45.5653 242.081 46.3578 242.081C47.0513 242.081 47.3221 241.604 47.3882 241.325H47.8241C47.6589 241.942 47.1966 242.452 46.3512 242.452ZM45.1954 240.377H47.4146C47.4146 239.773 47.0249 239.263 46.3314 239.263C45.6776 239.263 45.2284 239.747 45.1954 240.377ZM50.8942 242.386C50.4055 242.386 50.1017 242.22 50.1017 241.484V239.356H49.6063V238.978H50.1017V237.85H50.531V238.978H51.2113V239.356H50.531V241.491C50.531 241.909 50.6234 242.008 50.9537 242.008C51.0594 242.008 51.1122 242.001 51.2113 241.995V242.359C51.0792 242.379 50.9999 242.386 50.8942 242.386ZM52.197 240.47V242.359H51.768V238.978H52.197V239.667H52.2105C52.3823 239.223 52.6927 238.898 53.1682 238.898C53.2871 238.898 53.3796 238.905 53.4588 238.918V239.342C53.3928 239.329 53.3201 239.323 53.2541 239.323C52.6465 239.323 52.197 239.813 52.197 240.47ZM54.6985 242.446C54.0248 242.446 53.5955 242.068 53.5955 241.504C53.5955 240.775 54.1107 240.543 54.9825 240.39C55.5373 240.291 55.894 240.251 55.894 239.846C55.894 239.502 55.6694 239.269 55.1278 239.269C54.474 239.269 54.2428 239.502 54.2098 239.999H53.754C53.7871 239.402 54.1635 238.891 55.141 238.891C55.7619 238.891 56.31 239.157 56.31 239.966V241.657C56.31 241.928 56.3497 242.054 56.5016 242.054C56.528 242.054 56.5544 242.054 56.594 242.048V242.359C56.5214 242.373 56.4487 242.386 56.3695 242.386C56.0855 242.386 55.9204 242.273 55.894 241.849H55.8807C55.6496 242.233 55.2467 242.446 54.6985 242.446ZM54.0447 241.464C54.0447 241.855 54.2626 242.068 54.7514 242.068C55.4382 242.068 55.894 241.703 55.894 241.093V240.463C55.7949 240.602 55.4382 240.682 55.0354 240.748C54.3815 240.867 54.0447 241.033 54.0447 241.464ZM58.4351 242.446C57.6164 242.446 56.9557 241.783 56.9557 240.669C56.9557 239.561 57.6164 238.898 58.4351 238.898C59.0232 238.898 59.3733 239.19 59.5714 239.548H59.5846V237.618H60.0139V242.359H59.5846V241.809H59.5714C59.3799 242.141 59.0232 242.446 58.4351 242.446ZM57.4051 240.669C57.4051 241.431 57.7882 242.068 58.4883 242.068C59.1355 242.068 59.5846 241.524 59.5846 240.669C59.5846 239.82 59.1355 239.276 58.4883 239.276C57.7882 239.276 57.4051 239.913 57.4051 240.669ZM62.2371 242.452C61.2067 242.452 60.6321 241.696 60.6321 240.669C60.6321 239.588 61.2662 238.891 62.2371 238.891C63.2079 238.891 63.7561 239.574 63.7561 240.516C63.7561 240.609 63.7561 240.702 63.7495 240.755H61.0812C61.0879 241.438 61.4511 242.081 62.2437 242.081C62.9372 242.081 63.2079 241.604 63.274 241.325H63.7099C63.5448 241.942 63.0825 242.452 62.2371 242.452ZM61.0812 240.377H63.3004C63.3004 239.773 62.9107 239.263 62.2172 239.263C61.5634 239.263 61.1143 239.747 61.0812 240.377ZM66.4396 242.359L65.3697 238.978H65.8452L66.684 241.869H66.6972L67.4831 238.978H67.9653L68.7512 241.869H68.7644L69.6098 238.978H70.0722L68.9956 242.359H68.5135L67.7209 239.502H67.7077L66.9151 242.359H66.4396ZM70.55 242.359V238.978H70.9793V242.359H70.55ZM70.484 238.301V237.744H71.0388V238.301H70.484ZM72.7464 242.386C72.2576 242.386 71.9538 242.22 71.9538 241.484V239.356H71.4585V238.978H71.9538V237.85H72.3831V238.978H73.0634V239.356H72.3831V241.491C72.3831 241.909 72.4756 242.008 72.8058 242.008C72.9115 242.008 72.9643 242.001 73.0634 241.995V242.359C72.9313 242.379 72.8521 242.386 72.7464 242.386ZM75.8918 240.078C75.8918 239.647 75.6937 239.276 75.1125 239.276C74.4718 239.276 74.0492 239.727 74.0492 240.224V242.359H73.6199V237.618H74.0492V239.462H74.0624C74.2539 239.183 74.6172 238.898 75.2182 238.898C75.8192 238.898 76.3212 239.236 76.3212 239.986V242.359H75.8918V240.078ZM79.4594 242.446C78.7857 242.446 78.3564 242.068 78.3564 241.504C78.3564 240.775 78.8715 240.543 79.7434 240.39C80.2981 240.291 80.6548 240.251 80.6548 239.846C80.6548 239.502 80.4302 239.269 79.8887 239.269C79.2348 239.269 79.0036 239.502 78.9706 239.999H78.5149C78.5479 239.402 78.9244 238.891 79.9019 238.891C80.5227 238.891 81.0709 239.157 81.0709 239.966V241.657C81.0709 241.928 81.1105 242.054 81.2624 242.054C81.2888 242.054 81.3153 242.054 81.3549 242.048V242.359C81.2822 242.373 81.2096 242.386 81.1303 242.386C80.8463 242.386 80.6812 242.273 80.6548 241.849H80.6416C80.4104 242.233 80.0075 242.446 79.4594 242.446ZM78.8055 241.464C78.8055 241.855 79.0234 242.068 79.5122 242.068C80.1991 242.068 80.6548 241.703 80.6548 241.093V240.463C80.5557 240.602 80.1991 240.682 79.7962 240.748C79.1423 240.867 78.8055 241.033 78.8055 241.464ZM84.1285 242.359L82.8934 238.978H83.369L84.3795 241.922H84.3861L85.39 238.978H85.8523L84.6173 242.359H84.1285ZM86.3133 242.359V238.978H86.7426V242.359H86.3133ZM86.2473 238.301V237.744H86.8021V238.301H86.2473ZM87.9615 240.47V242.359H87.5322V238.978H87.9615V239.667H87.9747C88.1465 239.223 88.4569 238.898 88.9324 238.898C89.0513 238.898 89.1438 238.905 89.223 238.918V239.342C89.157 239.329 89.0843 239.323 89.0183 239.323C88.4106 239.323 87.9615 239.813 87.9615 240.47ZM90.6575 242.386C90.1688 242.386 89.865 242.22 89.865 241.484V239.356H89.3696V238.978H89.865V237.85H90.2943V238.978H90.9746V239.356H90.2943V241.491C90.2943 241.909 90.3867 242.008 90.717 242.008C90.8227 242.008 90.8755 242.001 90.9746 241.995V242.359C90.8425 242.379 90.7632 242.386 90.6575 242.386ZM92.6079 242.439C92.0069 242.439 91.5049 242.101 91.5049 241.352V238.978H91.9342V241.259C91.9342 241.69 92.1324 242.061 92.7136 242.061C93.3542 242.061 93.7769 241.61 93.7769 241.113V238.978H94.2062V242.359H93.7769V241.882H93.7637C93.5722 242.161 93.2089 242.439 92.6079 242.439ZM95.9257 242.446C95.2521 242.446 94.8228 242.068 94.8228 241.504C94.8228 240.775 95.3379 240.543 96.2097 240.39C96.7645 240.291 97.1212 240.251 97.1212 239.846C97.1212 239.502 96.8966 239.269 96.355 239.269C95.7012 239.269 95.47 239.502 95.437 239.999H94.9813C95.0143 239.402 95.3908 238.891 96.3683 238.891C96.9891 238.891 97.5373 239.157 97.5373 239.966V241.657C97.5373 241.928 97.5769 242.054 97.7288 242.054C97.7552 242.054 97.7817 242.054 97.8213 242.048V242.359C97.7486 242.373 97.676 242.386 97.5967 242.386C97.3127 242.386 97.1476 242.273 97.1212 241.849H97.108C96.8768 242.233 96.4739 242.446 95.9257 242.446ZM95.2719 241.464C95.2719 241.855 95.4898 242.068 95.9786 242.068C96.6655 242.068 97.1212 241.703 97.1212 241.093V240.463C97.0221 240.602 96.6655 240.682 96.2626 240.748C95.6087 240.867 95.2719 241.033 95.2719 241.464ZM98.3939 242.359V237.618H98.8232V242.359H98.3939ZM102.484 242.446C101.52 242.446 100.873 241.73 100.873 240.669C100.873 239.614 101.52 238.898 102.484 238.898C103.303 238.898 103.858 239.448 103.931 240.165H103.481C103.455 239.787 103.184 239.276 102.484 239.276C101.659 239.276 101.322 239.979 101.322 240.669C101.322 241.365 101.659 242.074 102.484 242.074C103.191 242.074 103.455 241.564 103.481 241.153H103.931C103.884 241.882 103.303 242.446 102.484 242.446ZM105.585 242.439C104.984 242.439 104.482 242.101 104.482 241.352V238.978H104.911V241.259C104.911 241.69 105.109 242.061 105.691 242.061C106.331 242.061 106.754 241.61 106.754 241.113V238.978H107.183V242.359H106.754V241.882H106.741C106.549 242.161 106.186 242.439 105.585 242.439ZM108.408 240.47V242.359H107.978V238.978H108.408V239.667H108.421C108.592 239.223 108.903 238.898 109.378 238.898C109.497 238.898 109.59 238.905 109.669 238.918V239.342C109.603 239.329 109.53 239.323 109.464 239.323C108.857 239.323 108.408 239.813 108.408 240.47ZM110.555 240.47V242.359H110.126V238.978H110.555V239.667H110.569C110.74 239.223 111.051 238.898 111.526 238.898C111.645 238.898 111.738 238.905 111.817 238.918V239.342C111.751 239.329 111.678 239.323 111.612 239.323C111.004 239.323 110.555 239.813 110.555 240.47ZM113.514 242.452C112.483 242.452 111.909 241.696 111.909 240.669C111.909 239.588 112.543 238.891 113.514 238.891C114.484 238.891 115.033 239.574 115.033 240.516C115.033 240.609 115.033 240.702 115.026 240.755H112.358C112.364 241.438 112.728 242.081 113.52 242.081C114.214 242.081 114.484 241.604 114.551 241.325H114.986C114.821 241.942 114.359 242.452 113.514 242.452ZM112.358 240.377H114.577C114.577 239.773 114.187 239.263 113.494 239.263C112.84 239.263 112.391 239.747 112.358 240.377ZM117.906 240.078C117.906 239.647 117.708 239.276 117.127 239.276C116.486 239.276 116.064 239.727 116.064 240.224V242.359H115.634V238.978H116.064V239.462H116.077C116.268 239.183 116.632 238.898 117.233 238.898C117.834 238.898 118.336 239.236 118.336 239.986V242.359H117.906V240.078ZM120.531 242.446C119.567 242.446 118.919 241.73 118.919 240.669C118.919 239.614 119.567 238.898 120.531 238.898C121.35 238.898 121.905 239.448 121.977 240.165H121.528C121.502 239.787 121.231 239.276 120.531 239.276C119.705 239.276 119.369 239.979 119.369 240.669C119.369 241.365 119.705 242.074 120.531 242.074C121.238 242.074 121.502 241.564 121.528 241.153H121.977C121.931 241.882 121.35 242.446 120.531 242.446ZM122.794 243.546C122.688 243.546 122.609 243.54 122.47 243.52V243.149C122.57 243.162 122.622 243.168 122.728 243.168C123.045 243.168 123.303 242.963 123.488 242.34L122.127 238.978H122.603L123.699 241.796H123.712L124.756 238.978H125.218L123.871 242.459C123.54 243.301 123.243 243.546 122.794 243.546ZM14.2526 251.338C13.7639 251.338 13.4601 251.172 13.4601 250.436V248.307H12.9647V247.929H13.4601V246.802H13.8894V247.929H14.5696V248.307H13.8894V250.443C13.8894 250.86 13.9818 250.96 14.3121 250.96C14.4177 250.96 14.4706 250.953 14.5696 250.946V251.311C14.4376 251.331 14.3583 251.338 14.2526 251.338ZM16.4821 251.404C15.4715 251.404 14.8639 250.675 14.8639 249.627C14.8639 248.573 15.4715 247.843 16.4821 247.843C17.4926 247.843 18.1002 248.573 18.1002 249.627C18.1002 250.675 17.4926 251.404 16.4821 251.404ZM15.313 249.627C15.313 250.403 15.6961 251.026 16.4821 251.026C17.268 251.026 17.6511 250.403 17.6511 249.627C17.6511 248.844 17.268 248.221 16.4821 248.221C15.6961 248.221 15.313 248.844 15.313 249.627ZM18.7059 251.311V246.57H19.1352V249.521L20.8062 247.929H21.3346L20.007 249.169L21.4997 251.311H20.9911L19.7164 249.441L19.1352 249.985V251.311H18.7059ZM23.0672 251.404C22.0369 251.404 21.4623 250.648 21.4623 249.62C21.4623 248.539 22.0963 247.843 23.0672 247.843C24.0381 247.843 24.5863 248.526 24.5863 249.468C24.5863 249.561 24.5863 249.653 24.5797 249.706H21.9114C21.918 250.389 22.2812 251.033 23.0738 251.033C23.7673 251.033 24.0381 250.555 24.1041 250.277H24.54C24.3749 250.893 23.9126 251.404 23.0672 251.404ZM21.9114 249.329H24.1305C24.1305 248.725 23.7409 248.215 23.0474 248.215C22.3935 248.215 21.9444 248.699 21.9114 249.329ZM27.46 249.03C27.46 248.599 27.2619 248.228 26.6807 248.228C26.04 248.228 25.6173 248.679 25.6173 249.176V251.311H25.188V247.929H25.6173V248.413H25.6305C25.8221 248.135 26.1853 247.85 26.7863 247.85C27.3874 247.85 27.8893 248.188 27.8893 248.937V251.311H27.46V249.03ZM37.0799 251.311V250.754H37.6347V251.311H37.0799ZM40.7435 251.311V246.994H39.1386V246.57H42.8306V246.994H41.2191V251.311H40.7435ZM45.5778 249.03C45.5778 248.599 45.3797 248.228 44.7985 248.228C44.1578 248.228 43.7351 248.679 43.7351 249.176V251.311H43.3058V246.57H43.7351V248.413H43.7483C43.9399 248.135 44.3031 247.85 44.9041 247.85C45.5052 247.85 46.0071 248.188 46.0071 248.937V251.311H45.5778V249.03ZM46.7756 251.311V247.929H47.2049V251.311H46.7756ZM46.7095 247.253V246.696H47.2643V247.253H46.7095ZM49.2365 251.397C48.292 251.397 47.7768 250.88 47.757 250.204H48.2061C48.2326 250.668 48.5364 251.019 49.2431 251.019C49.8837 251.019 50.1017 250.721 50.1017 250.389C50.1017 249.892 49.5997 249.839 49.1308 249.726C48.51 249.567 47.8825 249.415 47.8825 248.758C47.8825 248.208 48.3184 247.85 49.078 247.85C49.9564 247.85 50.3659 248.321 50.4253 248.878H49.9762C49.9167 248.579 49.7384 248.228 49.0846 248.228C48.6024 248.228 48.3316 248.413 48.3316 248.732C48.3316 249.156 48.7873 249.216 49.2959 249.342C49.93 249.494 50.5574 249.673 50.5574 250.376C50.5574 250.993 50.0687 251.397 49.2365 251.397ZM53.9812 251.404C52.9509 251.404 52.3763 250.648 52.3763 249.62C52.3763 248.539 53.0104 247.843 53.9812 247.843C54.9521 247.843 55.5003 248.526 55.5003 249.468C55.5003 249.561 55.5003 249.653 55.4937 249.706H52.8254C52.832 250.389 53.1953 251.033 53.9879 251.033C54.6813 251.033 54.9521 250.555 55.0182 250.277H55.4541C55.289 250.893 54.8266 251.404 53.9812 251.404ZM52.8254 249.329H55.0446C55.0446 248.725 54.6549 248.215 53.9614 248.215C53.3076 248.215 52.8585 248.699 52.8254 249.329ZM58.3743 249.03C58.3743 248.599 58.1762 248.228 57.595 248.228C56.9543 248.228 56.5316 248.679 56.5316 249.176V251.311H56.1023V247.929H56.5316V248.413H56.5448C56.7364 248.135 57.0996 247.85 57.7007 247.85C58.3017 247.85 58.8036 248.188 58.8036 248.937V251.311H58.3743V249.03ZM60.4967 251.397C59.8231 251.397 59.3938 251.019 59.3938 250.456C59.3938 249.726 59.9089 249.494 60.7807 249.342C61.3355 249.242 61.6922 249.203 61.6922 248.798C61.6922 248.453 61.4676 248.221 60.926 248.221C60.2722 248.221 60.041 248.453 60.008 248.951H59.5523C59.5853 248.354 59.9618 247.843 60.9393 247.843C61.5601 247.843 62.1083 248.108 62.1083 248.917V250.608C62.1083 250.88 62.1479 251.006 62.2998 251.006C62.3262 251.006 62.3526 251.006 62.3923 251V251.311C62.3196 251.324 62.247 251.338 62.1677 251.338C61.8837 251.338 61.7186 251.225 61.6922 250.801H61.679C61.4478 251.185 61.0449 251.397 60.4967 251.397ZM59.8429 250.416C59.8429 250.807 60.0608 251.019 60.5496 251.019C61.2365 251.019 61.6922 250.655 61.6922 250.045V249.415C61.5931 249.554 61.2365 249.634 60.8336 249.7C60.1797 249.819 59.8429 249.985 59.8429 250.416ZM64.5434 251.391C63.9556 251.391 63.6055 251.099 63.4074 250.734H63.3942V251.311H62.9649V246.57H63.3942V248.473H63.4074C63.6055 248.148 63.9556 247.843 64.5434 247.843C65.369 247.843 66.0295 248.506 66.0295 249.62C66.0295 250.728 65.369 251.391 64.5434 251.391ZM63.3942 249.62C63.3942 250.469 63.8499 251.013 64.4972 251.013C65.1973 251.013 65.5803 250.376 65.5803 249.62C65.5803 248.858 65.1973 248.215 64.4972 248.215C63.8499 248.215 63.3942 248.765 63.3942 249.62ZM66.6414 251.311V246.57H67.0707V251.311H66.6414ZM69.2869 251.404C68.2565 251.404 67.6819 250.648 67.6819 249.62C67.6819 248.539 68.316 247.843 69.2869 247.843C70.2578 247.843 70.8059 248.526 70.8059 249.468C70.8059 249.561 70.8059 249.653 70.7993 249.706H68.1311C68.1377 250.389 68.5009 251.033 69.2935 251.033C69.987 251.033 70.2578 250.555 70.3238 250.277H70.7597C70.5946 250.893 70.1323 251.404 69.2869 251.404ZM68.1311 249.329H70.3502C70.3502 248.725 69.9605 248.215 69.2671 248.215C68.6132 248.215 68.1641 248.699 68.1311 249.329ZM72.6493 251.397C71.7048 251.397 71.1897 250.88 71.1699 250.204H71.619C71.6454 250.668 71.9492 251.019 72.6559 251.019C73.2966 251.019 73.5145 250.721 73.5145 250.389C73.5145 249.892 73.0126 249.839 72.5436 249.726C71.9228 249.567 71.2953 249.415 71.2953 248.758C71.2953 248.208 71.7312 247.85 72.4908 247.85C73.3692 247.85 73.7787 248.321 73.8381 248.878H73.389C73.3296 248.579 73.1513 248.228 72.4974 248.228C72.0153 248.228 71.7445 248.413 71.7445 248.732C71.7445 249.156 72.2002 249.216 72.7087 249.342C73.3428 249.494 73.9702 249.673 73.9702 250.376C73.9702 250.993 73.4815 251.397 72.6493 251.397ZM76.1101 252.498C76.0045 252.498 75.9252 252.491 75.7865 252.472V252.1C75.8856 252.114 75.9384 252.12 76.0441 252.12C76.3611 252.12 76.6187 251.915 76.8036 251.291L75.4431 247.929H75.9186L77.015 250.748H77.0282L78.0717 247.929H78.534L77.1867 251.411C76.8565 252.253 76.5593 252.498 76.1101 252.498ZM80.3226 251.404C79.3121 251.404 78.7044 250.675 78.7044 249.627C78.7044 248.573 79.3121 247.843 80.3226 247.843C81.3331 247.843 81.9407 248.573 81.9407 249.627C81.9407 250.675 81.3331 251.404 80.3226 251.404ZM79.1536 249.627C79.1536 250.403 79.5366 251.026 80.3226 251.026C81.1085 251.026 81.4916 250.403 81.4916 249.627C81.4916 248.844 81.1085 248.221 80.3226 248.221C79.5366 248.221 79.1536 248.844 79.1536 249.627ZM83.6233 251.391C83.0222 251.391 82.5203 251.053 82.5203 250.303V247.929H82.9496V250.21C82.9496 250.641 83.1477 251.013 83.7289 251.013C84.3696 251.013 84.7923 250.562 84.7923 250.065V247.929H85.2216V251.311H84.7923V250.834H84.7791C84.5875 251.112 84.2243 251.391 83.6233 251.391ZM88.4387 251.338C87.95 251.338 87.6461 251.172 87.6461 250.436V248.307H87.1508V247.929H87.6461V246.802H88.0755V247.929H88.7557V248.307H88.0755V250.443C88.0755 250.86 88.1679 250.96 88.4981 250.96C88.6038 250.96 88.6567 250.953 88.7557 250.946V251.311C88.6236 251.331 88.5444 251.338 88.4387 251.338ZM90.6684 251.404C89.6579 251.404 89.0503 250.675 89.0503 249.627C89.0503 248.573 89.6579 247.843 90.6684 247.843C91.6789 247.843 92.2866 248.573 92.2866 249.627C92.2866 250.675 91.6789 251.404 90.6684 251.404ZM89.4994 249.627C89.4994 250.403 89.8825 251.026 90.6684 251.026C91.4544 251.026 91.8375 250.403 91.8375 249.627C91.8375 248.844 91.4544 248.221 90.6684 248.221C89.8825 248.221 89.4994 248.844 89.4994 249.627ZM95.7636 251.404C94.7333 251.404 94.1587 250.648 94.1587 249.62C94.1587 248.539 94.7927 247.843 95.7636 247.843C96.7345 247.843 97.2827 248.526 97.2827 249.468C97.2827 249.561 97.2827 249.653 97.2761 249.706H94.6078C94.6144 250.389 94.9776 251.033 95.7702 251.033C96.4637 251.033 96.7345 250.555 96.8005 250.277H97.2364C97.0713 250.893 96.609 251.404 95.7636 251.404ZM94.6078 249.329H96.8269C96.8269 248.725 96.4373 248.215 95.7438 248.215C95.0899 248.215 94.6408 248.699 94.6078 249.329ZM97.2873 251.311L98.6082 249.581L97.393 247.929H97.9147L98.8658 249.275H98.879L99.8235 247.929H100.339L99.13 249.581L100.458 251.311H99.9357L98.8724 249.872H98.8592L97.8025 251.311H97.2873ZM102.385 251.391C101.797 251.391 101.447 251.099 101.249 250.741H101.236V252.485H100.806V247.929H101.236V248.473H101.249C101.447 248.148 101.797 247.843 102.385 247.843C103.21 247.843 103.871 248.506 103.871 249.62C103.871 250.728 103.21 251.391 102.385 251.391ZM101.236 249.62C101.236 250.469 101.691 251.013 102.339 251.013C103.039 251.013 103.422 250.376 103.422 249.62C103.422 248.858 103.039 248.221 102.339 248.221C101.691 248.221 101.236 248.765 101.236 249.62ZM104.482 251.311V246.57H104.912V251.311H104.482ZM107.135 251.404C106.124 251.404 105.517 250.675 105.517 249.627C105.517 248.573 106.124 247.843 107.135 247.843C108.145 247.843 108.753 248.573 108.753 249.627C108.753 250.675 108.145 251.404 107.135 251.404ZM105.966 249.627C105.966 250.403 106.349 251.026 107.135 251.026C107.921 251.026 108.304 250.403 108.304 249.627C108.304 248.844 107.921 248.221 107.135 248.221C106.349 248.221 105.966 248.844 105.966 249.627ZM109.788 249.421V251.311H109.359V247.929H109.788V248.619H109.801C109.973 248.175 110.283 247.85 110.759 247.85C110.878 247.85 110.97 247.856 111.049 247.87V248.294C110.983 248.281 110.911 248.274 110.845 248.274C110.237 248.274 109.788 248.765 109.788 249.421ZM112.746 251.404C111.716 251.404 111.141 250.648 111.141 249.62C111.141 248.539 111.775 247.843 112.746 247.843C113.717 247.843 114.265 248.526 114.265 249.468C114.265 249.561 114.265 249.653 114.259 249.706H111.59C111.597 250.389 111.96 251.033 112.753 251.033C113.446 251.033 113.717 250.555 113.783 250.277H114.219C114.054 250.893 113.592 251.404 112.746 251.404ZM111.59 249.329H113.809C113.809 248.725 113.42 248.215 112.726 248.215C112.072 248.215 111.623 248.699 111.59 249.329ZM117.289 251.338C116.8 251.338 116.497 251.172 116.497 250.436V248.307H116.001V247.929H116.497V246.802H116.926V247.929H117.606V248.307H116.926V250.443C116.926 250.86 117.018 250.96 117.349 250.96C117.454 250.96 117.507 250.953 117.606 250.946V251.311C117.474 251.331 117.395 251.338 117.289 251.338ZM120.435 249.03C120.435 248.599 120.236 248.228 119.655 248.228C119.015 248.228 118.592 248.679 118.592 249.176V251.311H118.163V246.57H118.592V248.413H118.605C118.797 248.135 119.16 247.85 119.761 247.85C120.362 247.85 120.864 248.188 120.864 248.937V251.311H120.435V249.03ZM123.059 251.404C122.029 251.404 121.454 250.648 121.454 249.62C121.454 248.539 122.088 247.843 123.059 247.843C124.03 247.843 124.578 248.526 124.578 249.468C124.578 249.561 124.578 249.653 124.572 249.706H121.903C121.91 250.389 122.273 251.033 123.066 251.033C123.759 251.033 124.03 250.555 124.096 250.277H124.532C124.367 250.893 123.905 251.404 123.059 251.404ZM121.903 249.329H124.123C124.123 248.725 123.733 248.215 123.039 248.215C122.386 248.215 121.937 248.699 121.903 249.329ZM14.2526 260.289C13.7639 260.289 13.4601 260.124 13.4601 259.388V257.259H12.9647V256.881H13.4601V255.754H13.8894V256.881H14.5696V257.259H13.8894V259.394C13.8894 259.812 13.9818 259.911 14.3121 259.911C14.4177 259.911 14.4706 259.905 14.5696 259.898V260.263C14.4376 260.283 14.3583 260.289 14.2526 260.289ZM15.5556 258.373V260.263H15.1263V256.881H15.5556V257.571H15.5688C15.7405 257.126 16.0509 256.802 16.5264 256.802C16.6453 256.802 16.7378 256.808 16.817 256.821V257.246C16.751 257.233 16.6783 257.226 16.6123 257.226C16.0047 257.226 15.5556 257.717 15.5556 258.373ZM18.0568 260.349C17.3831 260.349 16.9538 259.971 16.9538 259.407C16.9538 258.678 17.469 258.446 18.3408 258.293C18.8956 258.194 19.2522 258.154 19.2522 257.75C19.2522 257.405 19.0277 257.173 18.4861 257.173C17.8322 257.173 17.6011 257.405 17.5681 257.902H17.1123C17.1454 257.305 17.5218 256.795 18.4993 256.795C19.1202 256.795 19.6683 257.06 19.6683 257.869V259.56C19.6683 259.832 19.708 259.958 19.8599 259.958C19.8863 259.958 19.9127 259.958 19.9523 259.951V260.263C19.8797 260.276 19.807 260.289 19.7278 260.289C19.4438 260.289 19.2787 260.177 19.2522 259.752H19.239C19.0079 260.137 18.605 260.349 18.0568 260.349ZM17.4029 259.368C17.4029 259.759 17.6209 259.971 18.1096 259.971C18.7965 259.971 19.2522 259.606 19.2522 258.996V258.366C19.1532 258.506 18.7965 258.585 18.3936 258.652C17.7398 258.771 17.4029 258.937 17.4029 259.368ZM21.7936 260.349C20.9747 260.349 20.3142 259.686 20.3142 258.572C20.3142 257.465 20.9747 256.802 21.7936 256.802C22.3815 256.802 22.7315 257.093 22.9296 257.451H22.9429V255.522H23.3722V260.263H22.9429V259.713H22.9296C22.7381 260.044 22.3815 260.349 21.7936 260.349ZM20.7633 258.572C20.7633 259.335 21.1464 259.971 21.8465 259.971C22.4937 259.971 22.9429 259.427 22.9429 258.572C22.9429 257.723 22.4937 257.18 21.8465 257.18C21.1464 257.18 20.7633 257.816 20.7633 258.572ZM24.1689 260.263V256.881H24.5982V260.263H24.1689ZM24.1029 256.205V255.648H24.6577V256.205H24.1029ZM27.66 257.982C27.66 257.551 27.4618 257.18 26.8806 257.18C26.24 257.18 25.8173 257.63 25.8173 258.128V260.263H25.388V256.881H25.8173V257.365H25.8305C26.022 257.087 26.3853 256.802 26.9863 256.802C27.5873 256.802 28.0893 257.14 28.0893 257.889V260.263H27.66V257.982ZM30.2317 261.476C29.3203 261.476 28.8382 261.032 28.7853 260.442H29.2344C29.3005 260.8 29.5845 261.098 30.2384 261.098C30.9186 261.098 31.3215 260.8 31.3215 260.11V259.48H31.3083C31.1102 259.832 30.7403 260.104 30.1723 260.104C29.3665 260.104 28.6929 259.573 28.6929 258.446C28.6929 257.332 29.3665 256.802 30.1723 256.802C30.7403 256.802 31.1102 257.073 31.3083 257.412H31.3215V256.881H31.7508V260.051C31.7508 261.006 31.1564 261.476 30.2317 261.476ZM29.142 258.446C29.142 259.222 29.5383 259.726 30.2317 259.726C30.8526 259.726 31.3215 259.315 31.3215 258.446C31.3215 257.591 30.8526 257.18 30.2317 257.18C29.5383 257.18 29.142 257.683 29.142 258.446ZM36.0133 257.982C36.0133 257.557 35.9142 257.18 35.3528 257.18C34.765 257.18 34.4084 257.637 34.4084 258.128V260.263H33.9791V256.881H34.4084V257.359H34.4216C34.5999 257.087 34.9169 256.802 35.4453 256.802C35.9208 256.802 36.2246 257.02 36.3501 257.425H36.3633C36.5813 257.087 36.9446 256.802 37.4795 256.802C38.1202 256.802 38.4702 257.186 38.4702 257.889V260.263H38.0409V257.982C38.0409 257.557 37.9419 257.18 37.3871 257.18C36.7926 257.18 36.4426 257.637 36.4426 258.128V260.263H36.0133V257.982ZM40.1604 260.349C39.4867 260.349 39.0574 259.971 39.0574 259.407C39.0574 258.678 39.5725 258.446 40.4444 258.293C40.9991 258.194 41.3558 258.154 41.3558 257.75C41.3558 257.405 41.1312 257.173 40.5897 257.173C39.9358 257.173 39.7046 257.405 39.6716 257.902H39.2159C39.2489 257.305 39.6254 256.795 40.6029 256.795C41.2237 256.795 41.7719 257.06 41.7719 257.869V259.56C41.7719 259.832 41.8115 259.958 41.9634 259.958C41.9898 259.958 42.0163 259.958 42.0559 259.951V260.263C41.9832 260.276 41.9106 260.289 41.8313 260.289C41.5473 260.289 41.3822 260.177 41.3558 259.752H41.3426C41.1114 260.137 40.7085 260.349 40.1604 260.349ZM39.5065 259.368C39.5065 259.759 39.7245 259.971 40.2132 259.971C40.9001 259.971 41.3558 259.606 41.3558 258.996V258.366C41.2567 258.506 40.9001 258.585 40.4972 258.652C39.8433 258.771 39.5065 258.937 39.5065 259.368ZM43.0578 258.373V260.263H42.6285V256.881H43.0578V257.571H43.071C43.2427 257.126 43.5532 256.802 44.0287 256.802C44.1476 256.802 44.2401 256.808 44.3193 256.821V257.246C44.2533 257.233 44.1806 257.226 44.1146 257.226C43.5069 257.226 43.0578 257.717 43.0578 258.373ZM44.7763 260.263V255.522H45.2057V258.473L46.8766 256.881H47.405L46.0775 258.121L47.5701 260.263H47.0616L45.7869 258.393L45.2057 258.937V260.263H44.7763ZM49.1374 260.356C48.1071 260.356 47.5325 259.6 47.5325 258.572C47.5325 257.491 48.1665 256.795 49.1374 256.795C50.1083 256.795 50.6565 257.478 50.6565 258.419C50.6565 258.512 50.6565 258.605 50.6499 258.658H47.9816C47.9882 259.341 48.3514 259.984 49.144 259.984C49.8375 259.984 50.1083 259.507 50.1743 259.228H50.6102C50.4451 259.845 49.9828 260.356 49.1374 260.356ZM47.9816 258.28H50.2007C50.2007 257.677 49.8111 257.166 49.1176 257.166C48.4637 257.166 48.0146 257.65 47.9816 258.28ZM52.1907 260.289C51.702 260.289 51.3982 260.124 51.3982 259.388V257.259H50.9028V256.881H51.3982V255.754H51.8275V256.881H52.5078V257.259H51.8275V259.394C51.8275 259.812 51.9199 259.911 52.2502 259.911C52.3558 259.911 52.4087 259.905 52.5078 259.898V260.263C52.3757 260.283 52.2964 260.289 52.1907 260.289ZM54.7137 256.384C54.7137 255.648 55.0043 255.482 55.4864 255.482C55.5789 255.482 55.6582 255.489 55.8101 255.509V255.873C55.6912 255.867 55.6384 255.86 55.5459 255.86C55.2223 255.86 55.143 255.959 55.143 256.377V256.881H55.8101V257.259H55.143V260.263H54.7137V257.259H54.2382V256.881H54.7137V256.384ZM56.667 258.373V260.263H56.2377V256.881H56.667V257.571H56.6802C56.852 257.126 57.1624 256.802 57.6379 256.802C57.7568 256.802 57.8493 256.808 57.9285 256.821V257.246C57.8625 257.233 57.7898 257.226 57.7238 257.226C57.1161 257.226 56.667 257.717 56.667 258.373ZM59.6249 260.356C58.5946 260.356 58.02 259.6 58.02 258.572C58.02 257.491 58.654 256.795 59.6249 256.795C60.5958 256.795 61.144 257.478 61.144 258.419C61.144 258.512 61.144 258.605 61.1374 258.658H58.4691C58.4757 259.341 58.839 259.984 59.6315 259.984C60.325 259.984 60.5958 259.507 60.6619 259.228H61.0978C60.9326 259.845 60.4703 260.356 59.6249 260.356ZM58.4691 258.28H60.6883C60.6883 257.677 60.2986 257.166 59.6051 257.166C58.9512 257.166 58.5021 257.65 58.4691 258.28ZM63.1723 260.356C62.142 260.356 61.5674 259.6 61.5674 258.572C61.5674 257.491 62.2014 256.795 63.1723 256.795C64.1432 256.795 64.6914 257.478 64.6914 258.419C64.6914 258.512 64.6914 258.605 64.6847 258.658H62.0165C62.0231 259.341 62.3863 259.984 63.1789 259.984C63.8724 259.984 64.1432 259.507 64.2092 259.228H64.6451C64.48 259.845 64.0177 260.356 63.1723 260.356ZM62.0165 258.28H64.2356C64.2356 257.677 63.846 257.166 63.1525 257.166C62.4986 257.166 62.0495 257.65 62.0165 258.28ZM68.1713 260.356C67.1608 260.356 66.5532 259.626 66.5532 258.579C66.5532 257.524 67.1608 256.795 68.1713 256.795C69.1819 256.795 69.7895 257.524 69.7895 258.579C69.7895 259.626 69.1819 260.356 68.1713 260.356ZM67.0023 258.579C67.0023 259.354 67.3854 259.978 68.1713 259.978C68.9573 259.978 69.3404 259.354 69.3404 258.579C69.3404 257.796 68.9573 257.173 68.1713 257.173C67.3854 257.173 67.0023 257.796 67.0023 258.579ZM70.5223 256.384C70.5223 255.648 70.8129 255.482 71.295 255.482C71.3875 255.482 71.4667 255.489 71.6186 255.509V255.873C71.4998 255.867 71.4469 255.86 71.3545 255.86C71.0308 255.86 70.9516 255.959 70.9516 256.377V256.881H71.6186V257.259H70.9516V260.263H70.5223V257.259H70.0467V256.881H70.5223V256.384ZM74.2995 260.349C73.6258 260.349 73.1965 259.971 73.1965 259.407C73.1965 258.678 73.7117 258.446 74.5835 258.293C75.1383 258.194 75.4949 258.154 75.4949 257.75C75.4949 257.405 75.2704 257.173 74.7288 257.173C74.0749 257.173 73.8437 257.405 73.8107 257.902H73.355C73.388 257.305 73.7645 256.795 74.742 256.795C75.3628 256.795 75.911 257.06 75.911 257.869V259.56C75.911 259.832 75.9506 259.958 76.1025 259.958C76.129 259.958 76.1554 259.958 76.195 259.951V260.263C76.1224 260.276 76.0497 260.289 75.9704 260.289C75.6864 260.289 75.5213 260.177 75.4949 259.752H75.4817C75.2505 260.137 74.8477 260.349 74.2995 260.349ZM73.6456 259.368C73.6456 259.759 73.8636 259.971 74.3523 259.971C75.0392 259.971 75.4949 259.606 75.4949 258.996V258.366C75.3958 258.506 75.0392 258.585 74.6363 258.652C73.9824 258.771 73.6456 258.937 73.6456 259.368ZM79.0396 257.982C79.0396 257.551 78.8415 257.18 78.2603 257.18C77.6196 257.18 77.1969 257.63 77.1969 258.128V260.263H76.7676V256.881H77.1969V257.365H77.2101C77.4017 257.087 77.7649 256.802 78.366 256.802C78.967 256.802 79.4689 257.14 79.4689 257.889V260.263H79.0396V257.982ZM80.4831 261.45C80.3774 261.45 80.2981 261.443 80.1594 261.423V261.052C80.2585 261.065 80.3114 261.072 80.417 261.072C80.734 261.072 80.9916 260.866 81.1766 260.243L79.816 256.881H80.2915L81.3879 259.699H81.4011L82.4447 256.881H82.907L81.5596 260.362C81.2294 261.204 80.9322 261.45 80.4831 261.45ZM85.0849 258.373V260.263H84.6556V256.881H85.0849V257.571H85.0981C85.2698 257.126 85.5802 256.802 86.0558 256.802C86.1746 256.802 86.2671 256.808 86.3463 256.821V257.246C86.2803 257.233 86.2077 257.226 86.1416 257.226C85.534 257.226 85.0849 257.717 85.0849 258.373ZM86.8034 260.263V256.881H87.2327V260.263H86.8034ZM86.7373 256.205V255.648H87.2921V256.205H86.7373ZM89.2643 260.349C88.3198 260.349 87.8047 259.832 87.7848 259.156H88.234C88.2604 259.62 88.5642 259.971 89.2709 259.971C89.9115 259.971 90.1295 259.673 90.1295 259.341C90.1295 258.844 89.6275 258.791 89.1586 258.678C88.5378 258.519 87.9103 258.366 87.9103 257.71C87.9103 257.16 88.3462 256.802 89.1058 256.802C89.9842 256.802 90.3937 257.272 90.4531 257.829H90.004C89.9446 257.531 89.7662 257.18 89.1124 257.18C88.6302 257.18 88.3594 257.365 88.3594 257.683C88.3594 258.108 88.8152 258.168 89.3237 258.293C89.9578 258.446 90.5852 258.625 90.5852 259.328C90.5852 259.945 90.0965 260.349 89.2643 260.349ZM91.1377 260.263V255.522H91.567V258.473L93.238 256.881H93.7664L92.4388 258.121L93.9315 260.263H93.4229L92.1482 258.393L91.567 258.937V260.263H91.1377ZM95.398 260.349C94.4536 260.349 93.9384 259.832 93.9186 259.156H94.3677C94.3941 259.62 94.6979 259.971 95.4046 259.971C96.0453 259.971 96.2632 259.673 96.2632 259.341C96.2632 258.844 95.7613 258.791 95.2924 258.678C94.6715 258.519 94.0441 258.366 94.0441 257.71C94.0441 257.16 94.48 256.802 95.2395 256.802C96.1179 256.802 96.5274 257.272 96.5869 257.829H96.1378C96.0783 257.531 95.9 257.18 95.2461 257.18C94.764 257.18 94.4932 257.365 94.4932 257.683C94.4932 258.108 94.9489 258.168 95.4575 258.293C96.0915 258.446 96.719 258.625 96.719 259.328C96.719 259.945 96.2302 260.349 95.398 260.349ZM99.6409 260.349C98.9672 260.349 98.5379 259.971 98.5379 259.407C98.5379 258.678 99.053 258.446 99.9249 258.293C100.48 258.194 100.836 258.154 100.836 257.75C100.836 257.405 100.612 257.173 100.07 257.173C99.4163 257.173 99.1851 257.405 99.1521 257.902H98.6964C98.7294 257.305 99.1059 256.795 100.083 256.795C100.704 256.795 101.252 257.06 101.252 257.869V259.56C101.252 259.832 101.292 259.958 101.444 259.958C101.47 259.958 101.497 259.958 101.536 259.951V260.263C101.464 260.276 101.391 260.289 101.312 260.289C101.028 260.289 100.863 260.177 100.836 259.752H100.823C100.592 260.137 100.189 260.349 99.6409 260.349ZM98.987 259.368C98.987 259.759 99.2049 259.971 99.6937 259.971C100.381 259.971 100.836 259.606 100.836 258.996V258.366C100.737 258.506 100.381 258.585 99.9777 258.652C99.3238 258.771 98.987 258.937 98.987 259.368ZM104.381 257.982C104.381 257.551 104.183 257.18 103.602 257.18C102.961 257.18 102.538 257.63 102.538 258.128V260.263H102.109V256.881H102.538V257.365H102.552C102.743 257.087 103.106 256.802 103.707 256.802C104.308 256.802 104.81 257.14 104.81 257.889V260.263H104.381V257.982ZM106.88 260.349C106.061 260.349 105.401 259.686 105.401 258.572C105.401 257.465 106.061 256.802 106.88 256.802C107.468 256.802 107.818 257.093 108.016 257.451H108.029V255.522H108.459V260.263H108.029V259.713H108.016C107.825 260.044 107.468 260.349 106.88 260.349ZM105.85 258.572C105.85 259.335 106.233 259.971 106.933 259.971C107.58 259.971 108.029 259.427 108.029 258.572C108.029 257.723 107.58 257.18 106.933 257.18C106.233 257.18 105.85 257.816 105.85 258.572ZM110.7 260.263V255.522H111.13V260.263H110.7ZM113.346 260.356C112.316 260.356 111.741 259.6 111.741 258.572C111.741 257.491 112.375 256.795 113.346 256.795C114.317 256.795 114.865 257.478 114.865 258.419C114.865 258.512 114.865 258.605 114.858 258.658H112.19C112.197 259.341 112.56 259.984 113.352 259.984C114.046 259.984 114.317 259.507 114.383 259.228H114.819C114.654 259.845 114.191 260.356 113.346 260.356ZM112.19 258.28H114.409C114.409 257.677 114.02 257.166 113.326 257.166C112.672 257.166 112.223 257.65 112.19 258.28ZM116.399 260.289C115.91 260.289 115.606 260.124 115.606 259.388V257.259H115.111V256.881H115.606V255.754H116.036V256.881H116.716V257.259H116.036V259.394C116.036 259.812 116.128 259.911 116.458 259.911C116.564 259.911 116.617 259.905 116.716 259.898V260.263C116.584 260.283 116.505 260.289 116.399 260.289ZM118.514 260.349C117.57 260.349 117.055 259.832 117.035 259.156H117.484C117.51 259.62 117.814 259.971 118.521 259.971C119.162 259.971 119.38 259.673 119.38 259.341C119.38 258.844 118.878 258.791 118.409 258.678C117.788 258.519 117.16 258.366 117.16 257.71C117.16 257.16 117.596 256.802 118.356 256.802C119.234 256.802 119.644 257.272 119.703 257.829H119.254C119.195 257.531 119.016 257.18 118.362 257.18C117.88 257.18 117.609 257.365 117.609 257.683C117.609 258.108 118.065 258.168 118.574 258.293C119.208 258.446 119.835 258.625 119.835 259.328C119.835 259.945 119.346 260.349 118.514 260.349ZM13.5723 270.402C13.4667 270.402 13.3874 270.395 13.2487 270.375V270.004C13.3478 270.017 13.4006 270.024 13.5063 270.024C13.8233 270.024 14.0809 269.818 14.2658 269.195L12.9053 265.833H13.3808L14.4772 268.651H14.4904L15.5339 265.833H15.9962L14.6489 269.314C14.3187 270.156 14.0215 270.402 13.5723 270.402ZM17.7849 269.307C16.7744 269.307 16.1668 268.578 16.1668 267.53C16.1668 266.476 16.7744 265.747 17.7849 265.747C18.7954 265.747 19.4031 266.476 19.4031 267.53C19.4031 268.578 18.7954 269.307 17.7849 269.307ZM16.6159 267.53C16.6159 268.306 16.999 268.929 17.7849 268.929C18.5709 268.929 18.9539 268.306 18.9539 267.53C18.9539 266.748 18.5709 266.125 17.7849 266.125C16.999 266.125 16.6159 266.748 16.6159 267.53ZM21.0853 269.294C20.4843 269.294 19.9824 268.956 19.9824 268.207V265.833H20.4117V268.114C20.4117 268.545 20.6098 268.916 21.191 268.916C21.8317 268.916 22.2544 268.465 22.2544 267.968V265.833H22.6837V269.215H22.2544V268.737H22.2411C22.0496 269.016 21.6864 269.294 21.0853 269.294ZM26.5021 269.294C25.9143 269.294 25.5642 269.002 25.3661 268.644H25.3529V270.388H24.9236V265.833H25.3529V266.377H25.3661C25.5642 266.052 25.9143 265.747 26.5021 265.747C27.3277 265.747 27.9881 266.41 27.9881 267.524C27.9881 268.631 27.3277 269.294 26.5021 269.294ZM25.3529 267.524C25.3529 268.372 25.8086 268.916 26.4558 268.916C27.1559 268.916 27.539 268.28 27.539 267.524C27.539 266.761 27.1559 266.125 26.4558 266.125C25.8086 266.125 25.3529 266.668 25.3529 267.524ZM29.0293 267.325V269.215H28.6V265.833H29.0293V266.522H29.0425C29.2142 266.078 29.5247 265.753 30.0002 265.753C30.1191 265.753 30.2115 265.76 30.2908 265.773V266.198C30.2247 266.184 30.1521 266.178 30.0861 266.178C29.4784 266.178 29.0293 266.668 29.0293 267.325ZM31.5306 269.301C30.8569 269.301 30.4276 268.923 30.4276 268.359C30.4276 267.63 30.9427 267.398 31.8146 267.245C32.3693 267.146 32.726 267.106 32.726 266.701C32.726 266.357 32.5014 266.125 31.9599 266.125C31.306 266.125 31.0748 266.357 31.0418 266.854H30.5861C30.6191 266.257 30.9956 265.747 31.9731 265.747C32.5939 265.747 33.1419 266.012 33.1419 266.821V268.512C33.1419 268.784 33.1816 268.91 33.3335 268.91C33.3599 268.91 33.3863 268.91 33.4259 268.903V269.215C33.3533 269.228 33.2806 269.241 33.2014 269.241C32.9175 269.241 32.7524 269.128 32.726 268.704H32.7128C32.4816 269.089 32.0787 269.301 31.5306 269.301ZM30.8767 268.319C30.8767 268.711 31.0946 268.923 31.5834 268.923C32.2703 268.923 32.726 268.558 32.726 267.948V267.318C32.6269 267.457 32.2703 267.537 31.8674 267.603C31.2135 267.723 30.8767 267.888 30.8767 268.319ZM35.3928 269.301C34.4285 269.301 33.7813 268.585 33.7813 267.524C33.7813 266.469 34.4285 265.753 35.3928 265.753C36.2118 265.753 36.7666 266.304 36.8392 267.02H36.3901C36.3637 266.642 36.0929 266.131 35.3928 266.131C34.5672 266.131 34.2304 266.834 34.2304 267.524C34.2304 268.22 34.5672 268.929 35.3928 268.929C36.0995 268.929 36.3637 268.419 36.3901 268.008H36.8392C36.793 268.737 36.2118 269.301 35.3928 269.301ZM38.3751 269.241C37.8864 269.241 37.5826 269.075 37.5826 268.339V266.211H37.0872V265.833H37.5826V264.706H38.0119V265.833H38.6921V266.211H38.0119V268.346C38.0119 268.764 38.1043 268.863 38.4346 268.863C38.5402 268.863 38.5931 268.857 38.6921 268.85V269.215C38.56 269.234 38.4808 269.241 38.3751 269.241ZM39.2486 269.215V265.833H39.6779V269.215H39.2486ZM39.1825 265.156V264.599H39.7373V265.156H39.1825ZM41.8944 269.301C40.9301 269.301 40.2829 268.585 40.2829 267.524C40.2829 266.469 40.9301 265.753 41.8944 265.753C42.7134 265.753 43.2682 266.304 43.3408 267.02H42.8917C42.8653 266.642 42.5945 266.131 41.8944 266.131C41.0688 266.131 40.732 266.834 40.732 267.524C40.732 268.22 41.0688 268.929 41.8944 268.929C42.6011 268.929 42.8653 268.419 42.8917 268.008H43.3408C43.2946 268.737 42.7134 269.301 41.8944 269.301ZM45.345 269.307C44.3147 269.307 43.7401 268.552 43.7401 267.524C43.7401 266.443 44.3741 265.747 45.345 265.747C46.3159 265.747 46.8641 266.43 46.8641 267.371C46.8641 267.464 46.8641 267.557 46.8575 267.61H44.1892C44.1958 268.293 44.5591 268.936 45.3516 268.936C46.0451 268.936 46.3159 268.459 46.3819 268.18H46.8178C46.6527 268.797 46.1904 269.307 45.345 269.307ZM44.1892 267.232H46.4084C46.4084 266.629 46.0187 266.118 45.3252 266.118C44.6713 266.118 44.2222 266.602 44.1892 267.232ZM49.0529 270.402C48.9472 270.402 48.8679 270.395 48.7292 270.375V270.004C48.8283 270.017 48.8811 270.024 48.9868 270.024C49.3038 270.024 49.5614 269.818 49.7463 269.195L48.3858 265.833H48.8613L49.9577 268.651H49.9709L51.0144 265.833H51.4768L50.1294 269.314C49.7992 270.156 49.502 270.402 49.0529 270.402ZM53.2656 269.307C52.2551 269.307 51.6475 268.578 51.6475 267.53C51.6475 266.476 52.2551 265.747 53.2656 265.747C54.2761 265.747 54.8838 266.476 54.8838 267.53C54.8838 268.578 54.2761 269.307 53.2656 269.307ZM52.0966 267.53C52.0966 268.306 52.4797 268.929 53.2656 268.929C54.0516 268.929 54.4347 268.306 54.4347 267.53C54.4347 266.748 54.0516 266.125 53.2656 266.125C52.4797 266.125 52.0966 266.748 52.0966 267.53ZM56.566 269.294C55.965 269.294 55.463 268.956 55.463 268.207V265.833H55.8923V268.114C55.8923 268.545 56.0904 268.916 56.6717 268.916C57.3123 268.916 57.735 268.465 57.735 267.968V265.833H58.1643V269.215H57.735V268.737H57.7218C57.5303 269.016 57.167 269.294 56.566 269.294ZM59.3888 267.325V269.215H58.9595V265.833H59.3888V266.522H59.402C59.5737 266.078 59.8842 265.753 60.3597 265.753C60.4786 265.753 60.571 265.76 60.6503 265.773V266.198C60.5843 266.184 60.5116 266.178 60.4456 266.178C59.8379 266.178 59.3888 266.668 59.3888 267.325ZM63.6389 269.301C62.6944 269.301 62.1793 268.784 62.1595 268.107H62.6086C62.635 268.571 62.9388 268.923 63.6455 268.923C64.2862 268.923 64.5041 268.624 64.5041 268.293C64.5041 267.796 64.0022 267.743 63.5332 267.63C62.9124 267.471 62.2849 267.318 62.2849 266.662C62.2849 266.111 62.7209 265.753 63.4804 265.753C64.3588 265.753 64.7683 266.224 64.8277 266.781H64.3786C64.3192 266.483 64.1409 266.131 63.487 266.131C63.0049 266.131 62.7341 266.317 62.7341 266.635C62.7341 267.06 63.1898 267.119 63.6983 267.245C64.3324 267.398 64.9598 267.577 64.9598 268.28C64.9598 268.896 64.4711 269.301 63.6389 269.301ZM66.4578 269.241C65.969 269.241 65.6652 269.075 65.6652 268.339V266.211H65.1699V265.833H65.6652V264.706H66.0945V265.833H66.7748V266.211H66.0945V268.346C66.0945 268.764 66.187 268.863 66.5172 268.863C66.6229 268.863 66.6757 268.857 66.7748 268.85V269.215C66.6427 269.234 66.5634 269.241 66.4578 269.241ZM67.7605 267.325V269.215H67.3312V265.833H67.7605V266.522H67.7737C67.9455 266.078 68.2559 265.753 68.7314 265.753C68.8503 265.753 68.9428 265.76 69.022 265.773V266.198C68.956 266.184 68.8833 266.178 68.8173 266.178C68.2097 266.178 67.7605 266.668 67.7605 267.325ZM70.262 269.301C69.5884 269.301 69.1591 268.923 69.1591 268.359C69.1591 267.63 69.6742 267.398 70.546 267.245C71.1008 267.146 71.4575 267.106 71.4575 266.701C71.4575 266.357 71.2329 266.125 70.6913 266.125C70.0375 266.125 69.8063 266.357 69.7733 266.854H69.3176C69.3506 266.257 69.7271 265.747 70.7046 265.747C71.3254 265.747 71.8736 266.012 71.8736 266.821V268.512C71.8736 268.784 71.9132 268.91 72.0651 268.91C72.0915 268.91 72.118 268.91 72.1576 268.903V269.215C72.0849 269.228 72.0123 269.241 71.933 269.241C71.649 269.241 71.4839 269.128 71.4575 268.704H71.4443C71.2131 269.089 70.8102 269.301 70.262 269.301ZM69.6082 268.319C69.6082 268.711 69.8261 268.923 70.3149 268.923C71.0018 268.923 71.4575 268.558 71.4575 267.948V267.318C71.3584 267.457 71.0018 267.537 70.5989 267.603C69.945 267.723 69.6082 267.888 69.6082 268.319ZM73.6492 269.241C73.1605 269.241 72.8567 269.075 72.8567 268.339V266.211H72.3613V265.833H72.8567V264.706H73.286V265.833H73.9663V266.211H73.286V268.346C73.286 268.764 73.3785 268.863 73.7087 268.863C73.8144 268.863 73.8672 268.857 73.9663 268.85V269.215C73.8342 269.234 73.7549 269.241 73.6492 269.241ZM75.872 269.307C74.8417 269.307 74.2671 268.552 74.2671 267.524C74.2671 266.443 74.9012 265.747 75.872 265.747C76.8429 265.747 77.3911 266.43 77.3911 267.371C77.3911 267.464 77.3911 267.557 77.3845 267.61H74.7162C74.7228 268.293 75.0861 268.936 75.8786 268.936C76.5721 268.936 76.8429 268.459 76.909 268.18H77.3449C77.1798 268.797 76.7174 269.307 75.872 269.307ZM74.7162 267.232H76.9354C76.9354 266.629 76.5457 266.118 75.8522 266.118C75.1984 266.118 74.7492 266.602 74.7162 267.232ZM79.3669 270.428C78.4554 270.428 77.9733 269.984 77.9205 269.394H78.3696C78.4356 269.752 78.7196 270.05 79.3735 270.05C80.0538 270.05 80.4567 269.752 80.4567 269.062V268.432H80.4434C80.2453 268.784 79.8754 269.055 79.3074 269.055C78.5017 269.055 77.828 268.525 77.828 267.398C77.828 266.284 78.5017 265.753 79.3074 265.753C79.8754 265.753 80.2453 266.025 80.4434 266.363H80.4567V265.833H80.886V269.002C80.886 269.957 80.2915 270.428 79.3669 270.428ZM78.2771 267.398C78.2771 268.174 78.6734 268.677 79.3669 268.677C79.9877 268.677 80.4567 268.266 80.4567 267.398C80.4567 266.542 79.9877 266.131 79.3669 266.131C78.6734 266.131 78.2771 266.635 78.2771 267.398ZM81.6693 269.215V265.833H82.0986V269.215H81.6693ZM81.6032 265.156V264.599H82.158V265.156H81.6032ZM84.3151 269.307C83.2848 269.307 82.7102 268.552 82.7102 267.524C82.7102 266.443 83.3442 265.747 84.3151 265.747C85.286 265.747 85.8342 266.43 85.8342 267.371C85.8342 267.464 85.8342 267.557 85.8276 267.61H83.1593C83.1659 268.293 83.5291 268.936 84.3217 268.936C85.0152 268.936 85.286 268.459 85.352 268.18H85.7879C85.6228 268.797 85.1605 269.307 84.3151 269.307ZM83.1593 267.232H85.3784C85.3784 266.629 84.9888 266.118 84.2953 266.118C83.6414 266.118 83.1923 266.602 83.1593 267.232ZM87.6775 269.301C86.7331 269.301 86.2179 268.784 86.1981 268.107H86.6472C86.6736 268.571 86.9774 268.923 87.6841 268.923C88.3248 268.923 88.5427 268.624 88.5427 268.293C88.5427 267.796 88.0408 267.743 87.5719 267.63C86.951 267.471 86.3236 267.318 86.3236 266.662C86.3236 266.111 86.7595 265.753 87.519 265.753C88.3974 265.753 88.8069 266.224 88.8664 266.781H88.4172C88.3578 266.483 88.1795 266.131 87.5256 266.131C87.0435 266.131 86.7727 266.317 86.7727 266.635C86.7727 267.06 87.2284 267.119 87.737 267.245C88.371 267.398 88.9984 267.577 88.9984 268.28C88.9984 268.896 88.5097 269.301 87.6775 269.301ZM89.5579 269.215V268.658H90.1127V269.215H89.5579ZM89.5909 265.906V264.474H90.0862V265.906L89.974 267.995H89.7032L89.5909 265.906Z" fill="black"/>
<path d="M88.5181 217.556L89.6924 214.178H88.6017L87.5079 217.556H84.9374L83.8354 214.178H82.6862L83.8909 217.556H81.5674V218.392H84.1878L84.482 219.214H82.3725V220.05H84.7819L85.6563 222.506H86.7943L87.6493 220.05H89.3817V219.214H87.9409L88.2268 218.392H90.8139V217.556H88.5181ZM86.2365 221.494H86.2253L85.7534 220.053H86.7028L86.2365 221.494ZM86.972 219.214H85.4787L85.2095 218.392H87.2385L86.972 219.214Z" fill="black"/>
<path d="M34.1694 248.34L34.8652 246.338H34.219L33.5707 248.34H32.0477L31.3947 246.338H30.7137L31.4276 248.34H30.0508V248.835H31.6036L31.7779 249.322H30.5278V249.818H31.9556L32.4737 251.272H33.148L33.6546 249.818H34.6813V249.322H33.8273L33.9967 248.835H35.53V248.34H34.1694ZM32.8175 250.673H32.8109L32.5313 249.819H33.0939L32.8175 250.673ZM33.2534 249.322H32.3684L32.2089 248.835H33.4112L33.2534 249.322Z" fill="black"/>
<path d="M99.4156 217.556L100.59 214.178H99.4991L98.4054 217.556H95.8349L94.7329 214.178H93.5837L94.7884 217.556H92.4648V218.392H95.0852L95.3795 219.214H93.2699V220.05H95.6793L96.5538 222.506H97.6918L98.5467 220.05H100.279V219.214H98.8383L99.1243 218.392H101.711V217.556H99.4156ZM97.134 221.494H97.1228L96.6509 220.053H97.6003L97.134 221.494ZM97.8694 219.214H96.3761L96.107 218.392H98.1359L97.8694 219.214Z" fill="black"/>
<path d="M110.313 217.556L111.487 214.178H110.397L109.303 217.556H106.732L105.63 214.178H104.481L105.686 217.556H103.362V218.392H105.983L106.277 219.214H104.167V220.05H106.577L107.451 222.506H108.589L109.444 220.05H111.177V219.214H109.736L110.022 218.392H112.609V217.556H110.313ZM108.031 221.494H108.02L107.548 220.053H108.498L108.031 221.494ZM108.767 219.214H107.274L107.004 218.392H109.033L108.767 219.214Z" fill="black"/>
<path d="M30.9443 288.444V282.755H31.943L34.5743 287.131H34.5901V282.755H35.4698V288.444H34.4712L31.832 284.068H31.8161V288.444H30.9443ZM38.1659 288.564C36.8819 288.564 36.1686 287.649 36.1686 286.407C36.1686 285.134 36.9295 284.259 38.1659 284.259C39.3943 284.259 40.0838 285.07 40.0838 286.328C40.0838 286.439 40.0839 286.558 40.0759 286.622H36.9691C36.9849 287.298 37.3812 287.927 38.1817 287.927C38.895 287.927 39.1724 287.465 39.2437 287.195H40.0363C39.8223 287.975 39.2279 288.564 38.1659 288.564ZM36.9691 286.009H39.2754C39.2754 285.373 38.8316 284.895 38.1421 284.895C37.4922 284.895 37.0167 285.341 36.9691 286.009ZM40.0472 288.444L41.5689 286.367L40.1819 284.386H41.0696L42.0365 285.834H42.0524L43.0034 284.386H43.8911L42.5041 286.367L44.0417 288.444H43.1302L42.0365 286.893H42.0207L40.9507 288.444H40.0472ZM45.7401 288.492C45.0743 288.492 44.6701 288.237 44.6701 287.298V285.031H44.0836V284.386H44.6701V283.081H45.4468V284.386H46.2235V285.031H45.4468V287.322C45.4468 287.752 45.5657 287.847 45.8986 287.847C46.0333 287.847 46.0967 287.839 46.2315 287.816V288.444C46.0333 288.484 45.9065 288.492 45.7401 288.492Z" fill="#015A2B"/>
<path d="M129.024 285.695C129.154 285.565 129.154 285.355 129.024 285.226L126.923 283.116C126.794 282.986 126.585 282.986 126.456 283.116C126.327 283.245 126.327 283.455 126.456 283.585L128.324 285.46L126.456 287.336C126.327 287.465 126.327 287.675 126.456 287.805C126.585 287.934 126.794 287.934 126.923 287.805L129.024 285.695ZM49.5352 285.792H128.791V285.129H49.5352V285.792Z" fill="#015A2B"/>
<path opacity="0.2" d="M21.1344 296.401C21.8639 296.401 22.4553 295.808 22.4553 295.075C22.4553 294.343 21.8639 293.749 21.1344 293.749C20.4049 293.749 19.8135 294.343 19.8135 295.075C19.8135 295.808 20.4049 296.401 21.1344 296.401Z" fill="#015A2B"/>
<path d="M38.6373 296.401C39.3669 296.401 39.9583 295.808 39.9583 295.075C39.9583 294.343 39.3669 293.749 38.6373 293.749C37.9078 293.749 37.3164 294.343 37.3164 295.075C37.3164 295.808 37.9078 296.401 38.6373 296.401Z" fill="#015A2B"/>
<path opacity="0.2" d="M56.1393 296.401C56.8688 296.401 57.4602 295.808 57.4602 295.075C57.4602 294.343 56.8688 293.749 56.1393 293.749C55.4098 293.749 54.8184 294.343 54.8184 295.075C54.8184 295.808 55.4098 296.401 56.1393 296.401Z" fill="#015A2B"/>
<path opacity="0.2" d="M73.6412 296.401C74.3708 296.401 74.9622 295.808 74.9622 295.075C74.9622 294.343 74.3708 293.749 73.6412 293.749C72.9117 293.749 72.3203 294.343 72.3203 295.075C72.3203 295.808 72.9117 296.401 73.6412 296.401Z" fill="#015A2B"/>
<path opacity="0.2" d="M91.1442 296.401C91.8737 296.401 92.4651 295.808 92.4651 295.075C92.4651 294.343 91.8737 293.749 91.1442 293.749C90.4146 293.749 89.8232 294.343 89.8232 295.075C89.8232 295.808 90.4146 296.401 91.1442 296.401Z" fill="#015A2B"/>
<path opacity="0.2" d="M108.646 296.401C109.376 296.401 109.967 295.808 109.967 295.075C109.967 294.343 109.376 293.749 108.646 293.749C107.917 293.749 107.325 294.343 107.325 295.075C107.325 295.808 107.917 296.401 108.646 296.401Z" fill="#015A2B"/>
<path opacity="0.2" d="M12.8789 285.46H26.4184" stroke="#015A2B" stroke-width="2"/>
<g filter="url(#filter0_d_504_332)">
<path d="M75.5548 42.6005C83.8505 31.6528 81.7359 16.0262 70.8315 7.69746C59.9272 -0.631267 44.3624 1.49181 36.0667 12.4395C27.7709 23.3872 29.8856 39.0138 40.7899 47.3425C51.6943 55.6712 67.259 53.5481 75.5548 42.6005Z" fill="url(#paint0_linear_504_332)" stroke="url(#paint1_linear_504_332)" stroke-width="6.75269"/>
<path d="M58.6378 20.4765L52.7092 11.4828L50.7178 14.1106L56.7935 22.9103L52.1019 29.1019L42.0185 25.5912L39.9209 28.3593L50.1915 31.6227L45.9506 37.2193L47.9489 38.7454L52.7316 32.4333L55.2335 33.2251L51.3826 38.3071L53.3808 39.8328L57.7786 34.0291L65.2421 36.4043L67.3193 33.6631L63.0127 27.122L66.1741 22.9497L64.1762 21.4237L61.5465 24.8939L60.1037 22.7046L64.826 16.4729L62.8281 14.9468L58.6378 20.4765ZM63.8836 33.1605L63.8631 33.1873L59.5585 31.694L61.2916 29.4072L63.8836 33.1605ZM59.7784 27.2275L57.0524 30.8248L54.5961 29.9727L58.3 25.085L59.7784 27.2275Z" fill="black"/>
</g>
<g filter="url(#filter1_d_504_332)">
<path d="M68.3562 96.7222C79.9064 104.121 95.2442 100.719 102.614 89.1232C109.984 77.5271 106.596 62.1282 95.0453 54.729C83.4951 47.3297 68.1573 50.7319 60.7873 62.328C53.4173 73.9241 56.806 89.3229 68.3562 96.7222Z" fill="url(#paint2_linear_504_332)" stroke="url(#paint3_linear_504_332)" stroke-width="6.75269"/>
<path d="M88.9245 77.9744L97.364 71.3021L94.5917 69.526L86.3566 76.3293L79.8243 72.1445L82.4791 61.7665L79.5588 59.8956L77.1646 70.4407L71.2601 66.6581L69.9097 68.783L76.5692 73.049L75.989 75.6175L70.6277 72.1827L69.2773 74.3075L75.4005 78.2304L73.6569 85.8934L76.5494 87.7464L82.6878 82.8985L87.0898 85.7187L88.4401 83.5938L84.7788 81.2484L86.8332 79.6245L93.4081 83.8365L94.7584 81.7116L88.9245 77.9744ZM76.7654 84.2672L76.737 84.2489L77.865 79.8191L80.2777 81.3645L76.7654 84.2672ZM82.3169 79.6713L78.5215 77.2397L79.1652 74.712L84.3221 78.0155L82.3169 79.6713Z" fill="black"/>
</g>
<g filter="url(#filter2_d_504_332)">
<path d="M42.417 152.734C49.0021 140.671 44.6003 125.533 32.5852 118.922C20.5702 112.311 5.49185 116.73 -1.09324 128.793C-7.67833 140.855 -3.27651 155.994 8.73851 162.605C20.7535 169.216 35.8319 164.797 42.417 152.734Z" fill="url(#paint4_linear_504_332)" stroke="url(#paint5_linear_504_332)" stroke-width="6.75269"/>
<path d="M22.4163 133.377L15.2236 125.366L13.643 128.262L20.9524 136.058L17.2281 142.881L6.73733 140.912L5.07227 143.961L15.7118 145.658L12.3455 151.825L14.547 153.036L18.3437 146.081L20.9348 146.491L17.8781 152.091L20.0796 153.302L23.5706 146.907L31.3026 148.144L32.9516 145.123L27.7253 139.296L30.235 134.699L28.0335 133.488L25.9461 137.311L24.1955 135.362L27.944 128.495L25.7425 127.283L22.4163 133.377ZM29.4794 145.138L29.4633 145.168L24.9857 144.332L26.3611 141.813L29.4794 145.138ZM24.5424 139.883L22.3786 143.846L19.8237 143.37L22.7637 137.984L24.5424 139.883Z" fill="black"/>
</g>
<g filter="url(#filter3_d_504_332)">
<path d="M62.9047 142.85C75.8502 138.344 82.7067 124.156 78.2191 111.159C73.7315 98.1621 59.5992 91.2783 46.6537 95.7837C33.7083 100.289 26.8518 114.478 31.3394 127.475C35.8269 140.472 49.9592 147.355 62.9047 142.85Z" fill="url(#paint6_linear_504_332)" stroke="url(#paint7_linear_504_332)" stroke-width="6.75269"/>
<path d="M61.0175 115.023L61.0403 104.238L57.9328 105.319L58.1395 116.025L50.8179 118.572L44.3573 110.044L41.084 111.183L47.8372 119.61L41.2194 121.913L42.0417 124.295L49.5056 121.697L51.1521 123.747L45.1432 125.838L45.9655 128.22L52.8284 125.831L57.7336 131.958L60.9752 130.83L60.9957 122.989L65.9297 121.272L65.1074 118.89L61.0039 120.318L61.0096 117.693L68.3787 115.129L67.5564 112.747L61.0175 115.023ZM58.3911 128.501L58.3594 128.512L55.5984 124.876L58.3023 123.935L58.3911 128.501ZM58.2445 121.279L53.9905 122.759L52.4153 120.684L58.195 118.673L58.2445 121.279Z" fill="black"/>
</g>
<g filter="url(#filter4_d_504_332)">
<path d="M90.4627 112.252C89.8407 125.994 100.432 137.64 114.119 138.264C127.806 138.888 139.406 128.255 140.028 114.513C140.65 100.772 130.059 89.126 116.372 88.5016C102.684 87.8771 91.0847 98.5106 90.4627 112.252Z" fill="url(#paint8_linear_504_332)" stroke="url(#paint9_linear_504_332)" stroke-width="6.75269"/>
<path d="M116.91 120.79L126.881 124.803L127.031 121.504L117.049 117.735L117.4 109.964L127.683 107.094L127.84 103.619L117.544 106.8L117.862 99.7748L115.354 99.6605L114.995 107.583L112.489 108.36L112.777 101.982L110.27 101.867L109.94 109.152L102.455 111.46L102.3 114.901L109.547 117.822L109.31 123.059L111.818 123.174L112.016 118.818L114.442 119.795L114.088 127.617L116.596 127.731L116.91 120.79ZM105.411 113.353L105.412 113.319L109.798 112.089L109.669 114.96L105.411 113.353ZM112.148 115.889L112.352 111.373L114.855 110.672L114.578 116.807L112.148 115.889Z" fill="black"/>
</g>
<g filter="url(#filter5_d_504_332)">
<path d="M90.8113 36.0493C102.361 43.4486 117.699 40.0464 125.069 28.4503C132.439 16.8542 129.051 1.45536 117.5 -5.94393C105.95 -13.3432 90.6123 -9.94103 83.2423 1.65508C75.8723 13.2512 79.2611 28.65 90.8113 36.0493Z" fill="url(#paint10_linear_504_332)" stroke="url(#paint11_linear_504_332)" stroke-width="6.75269"/>
<path d="M111.38 17.3015L119.819 10.6292L117.047 8.85318L108.812 15.6566L102.279 11.4718L104.934 1.09371L102.014 -0.777248L99.62 9.76802L93.7155 5.98545L92.3652 8.11019L99.0243 12.3763L98.4444 14.9447L93.0831 11.5101L91.7324 13.6348L97.8559 17.5575L96.1123 25.2207L99.0045 27.0736L105.143 22.2258L109.545 25.0458L110.895 22.9211L107.234 20.5756L109.289 18.9518L115.863 23.1637L117.214 21.0389L111.38 17.3015ZM99.2205 23.5943L99.1924 23.5762L100.32 19.1463L102.733 20.6919L99.2205 23.5943ZM104.772 18.9984L100.977 16.5671L101.621 14.0394L106.777 17.3429L104.772 18.9984Z" fill="black"/>
</g>
<g filter="url(#filter6_d_504_332)">
<path d="M37.2377 96.9427C50.8767 95.6337 60.8764 83.4719 59.5726 69.7786C58.2687 56.0854 46.1551 46.046 32.516 47.355C18.877 48.664 8.87729 60.8258 10.1811 74.5191C11.485 88.2123 23.5986 98.2517 37.2377 96.9427Z" fill="url(#paint12_linear_504_332)" stroke="url(#paint13_linear_504_332)" stroke-width="6.75269"/>
<path d="M41.9487 69.4554L44.5073 58.9805L41.2334 59.2948L38.9165 69.7461L31.2028 70.4865L26.9305 60.6678L23.4818 60.9987L28.0622 70.7879L21.0898 71.4572L21.3288 73.966L29.1925 73.2114L30.3104 75.5939L23.9794 76.2017L24.2183 78.7105L31.449 78.0165L34.7747 85.1328L38.19 84.8049L40.0541 77.1907L45.252 76.6917L45.0132 74.1829L40.6898 74.5976L41.313 72.0481L49.0768 71.3031L48.8377 68.7939L41.9487 69.4554ZM36.2264 81.9298L36.1931 81.9331L34.3652 77.745L37.2141 77.4715L36.2264 81.9298ZM37.7825 74.8768L33.3009 75.3068L32.258 72.9174L38.3475 72.3329L37.7825 74.8768Z" fill="black"/>
</g>
<g filter="url(#filter7_d_504_332)">
<path d="M106.948 183.974C116.078 173.717 115.197 157.971 104.98 148.806C94.764 139.64 79.0809 140.524 69.9514 150.781C60.8219 161.038 61.703 176.784 71.9194 185.95C82.1358 195.115 97.8188 194.231 106.948 183.974Z" fill="url(#paint14_linear_504_332)" stroke="url(#paint15_linear_504_332)" stroke-width="6.75269"/>
<path d="M91.8216 160.58L86.6175 151.145L84.426 153.607L89.792 162.86L84.6285 168.661L74.8523 164.363L72.5439 166.957L82.5265 171.023L77.8594 176.266L79.7311 177.946L84.995 172.032L87.4269 173.019L83.189 177.78L85.0611 179.46L89.901 174.022L97.1545 176.981L99.4407 174.412L95.6609 167.551L99.1402 163.642L97.2685 161.962L94.3743 165.214L93.1082 162.917L98.3047 157.078L96.433 155.399L91.8216 160.58ZM96.0549 173.639L96.0327 173.664L91.8589 171.835L93.7657 169.693L96.0549 173.639ZM92.4286 167.4L89.4284 170.77L87.0471 169.727L91.1228 165.147L92.4286 167.4Z" fill="black"/>
</g>
<g filter="url(#filter8_d_504_332)">
<path d="M125.104 92.2739C138.584 89.8139 147.526 76.8483 145.075 63.3144C142.625 49.7804 129.711 40.8032 116.231 43.2631C102.75 45.723 93.8085 58.6886 96.2587 72.2226C98.7089 85.7565 111.623 94.7338 125.104 92.2739Z" fill="url(#paint16_linear_504_332)" stroke="url(#paint17_linear_504_332)" stroke-width="6.75269"/>
<path d="M127.487 64.4852L129.156 53.8313L125.921 54.4215L124.49 65.0319L116.866 66.4234L111.784 57.0012L108.375 57.6232L113.762 66.9897L106.871 68.2472L107.32 70.7268L115.092 69.3088L116.407 71.5879L110.149 72.7297L110.598 75.2097L117.745 73.9054L121.657 80.7146L125.032 80.0986L126.249 72.3534L131.387 71.4158L130.938 68.9362L126.665 69.716L127.072 67.1226L134.745 65.7225L134.296 63.2426L127.487 64.4852ZM122.834 77.3999L122.801 77.4062L120.628 73.3878L123.443 72.8739L122.834 77.3999ZM123.792 70.2401L119.362 71.0484L118.122 68.7558L124.141 67.6574L123.792 70.2401Z" fill="black"/>
</g>
<g filter="url(#filter9_d_504_332)">
<path d="M4.95092 35.0547C16.5011 42.4539 31.839 39.0518 39.209 27.4556C46.579 15.8595 43.1903 0.460726 31.6401 -6.93856C20.0899 -14.3379 4.752 -10.9357 -2.618 0.660443C-9.988 12.2566 -6.59928 27.6554 4.95092 35.0547Z" fill="url(#paint18_linear_504_332)" stroke="url(#paint19_linear_504_332)" stroke-width="6.75269"/>
<path d="M25.5192 16.3069L33.9588 9.6346L31.1865 7.85855L22.9514 14.6619L16.419 10.4771L19.074 0.0990689L16.1535 -1.77188L13.7595 8.77338L7.85495 4.99082L6.50456 7.11555L13.1639 11.3817L12.5838 13.9501L7.22246 10.5154L5.87207 12.6402L11.9953 16.5629L10.2518 24.2261L13.1441 26.0789L19.2825 21.2312L23.6845 24.0512L25.0349 21.9265L21.3736 19.581L23.4281 17.9571L30.0029 22.169L31.3532 20.0443L25.5192 16.3069ZM13.3601 22.5996L13.3319 22.5816L14.4598 18.1517L16.8724 19.6972L13.3601 22.5996ZM18.9116 18.0038L15.1164 15.5724L15.76 13.0447L20.9167 16.3483L18.9116 18.0038Z" fill="black"/>
</g>
</g>
</g>
<defs>
<filter id="filter0_d_504_332" x="27.6309" y="-0.771065" width="56.3594" height="63.5821" filterUnits="userSpaceOnUse" color-interpolation-filters="sRGB">
<feFlood flood-opacity="0" result="BackgroundImageFix"/>
<feColorMatrix in="SourceAlpha" type="matrix" values="0 0 0 0 0 0 0 0 0 0 0 0 0 0 0 0 0 0 127 0" result="hardAlpha"/>
<feOffset dy="7"/>
<feComposite in2="hardAlpha" operator="out"/>
<feColorMatrix type="matrix" values="0 0 0 0 0 0 0 0 0 0 0 0 0 0 0 0 0 0 0.25 0"/>
<feBlend mode="normal" in2="BackgroundImageFix" result="effect1_dropShadow_504_332"/>
<feBlend mode="normal" in="SourceGraphic" in2="effect1_dropShadow_504_332" result="shape"/>
</filter>
<filter id="filter1_d_504_332" x="53.5186" y="47.4331" width="56.3643" height="63.5849" filterUnits="userSpaceOnUse" color-interpolation-filters="sRGB">
<feFlood flood-opacity="0" result="BackgroundImageFix"/>
<feColorMatrix in="SourceAlpha" type="matrix" values="0 0 0 0 0 0 0 0 0 0 0 0 0 0 0 0 0 0 127 0" result="hardAlpha"/>
<feOffset dy="7"/>
<feComposite in2="hardAlpha" operator="out"/>
<feColorMatrix type="matrix" values="0 0 0 0 0 0 0 0 0 0 0 0 0 0 0 0 0 0 0.25 0"/>
<feBlend mode="normal" in2="BackgroundImageFix" result="effect1_dropShadow_504_332"/>
<feBlend mode="normal" in="SourceGraphic" in2="effect1_dropShadow_504_332" result="shape"/>
</filter>
<filter id="filter2_d_504_332" x="-7.52344" y="112.47" width="56.3701" height="63.5871" filterUnits="userSpaceOnUse" color-interpolation-filters="sRGB">
<feFlood flood-opacity="0" result="BackgroundImageFix"/>
<feColorMatrix in="SourceAlpha" type="matrix" values="0 0 0 0 0 0 0 0 0 0 0 0 0 0 0 0 0 0 127 0" result="hardAlpha"/>
<feOffset dy="7"/>
<feComposite in2="hardAlpha" operator="out"/>
<feColorMatrix type="matrix" values="0 0 0 0 0 0 0 0 0 0 0 0 0 0 0 0 0 0 0.25 0"/>
<feBlend mode="normal" in2="BackgroundImageFix" result="effect1_dropShadow_504_332"/>
<feBlend mode="normal" in="SourceGraphic" in2="effect1_dropShadow_504_332" result="shape"/>
</filter>
<filter id="filter3_d_504_332" x="26.5898" y="91.0229" width="56.3789" height="63.5876" filterUnits="userSpaceOnUse" color-interpolation-filters="sRGB">
<feFlood flood-opacity="0" result="BackgroundImageFix"/>
<feColorMatrix in="SourceAlpha" type="matrix" values="0 0 0 0 0 0 0 0 0 0 0 0 0 0 0 0 0 0 127 0" result="hardAlpha"/>
<feOffset dy="7"/>
<feComposite in2="hardAlpha" operator="out"/>
<feColorMatrix type="matrix" values="0 0 0 0 0 0 0 0 0 0 0 0 0 0 0 0 0 0 0.25 0"/>
<feBlend mode="normal" in2="BackgroundImageFix" result="effect1_dropShadow_504_332"/>
<feBlend mode="normal" in="SourceGraphic" in2="effect1_dropShadow_504_332" result="shape"/>
</filter>
<filter id="filter4_d_504_332" x="87.0605" y="85.0989" width="56.3701" height="63.5677" filterUnits="userSpaceOnUse" color-interpolation-filters="sRGB">
<feFlood flood-opacity="0" result="BackgroundImageFix"/>
<feColorMatrix in="SourceAlpha" type="matrix" values="0 0 0 0 0 0 0 0 0 0 0 0 0 0 0 0 0 0 127 0" result="hardAlpha"/>
<feOffset dy="7"/>
<feComposite in2="hardAlpha" operator="out"/>
<feColorMatrix type="matrix" values="0 0 0 0 0 0 0 0 0 0 0 0 0 0 0 0 0 0 0.25 0"/>
<feBlend mode="normal" in2="BackgroundImageFix" result="effect1_dropShadow_504_332"/>
<feBlend mode="normal" in="SourceGraphic" in2="effect1_dropShadow_504_332" result="shape"/>
</filter>
<filter id="filter5_d_504_332" x="75.9736" y="-13.2398" width="56.3643" height="63.5849" filterUnits="userSpaceOnUse" color-interpolation-filters="sRGB">
<feFlood flood-opacity="0" result="BackgroundImageFix"/>
<feColorMatrix in="SourceAlpha" type="matrix" values="0 0 0 0 0 0 0 0 0 0 0 0 0 0 0 0 0 0 127 0" result="hardAlpha"/>
<feOffset dy="7"/>
<feComposite in2="hardAlpha" operator="out"/>
<feColorMatrix type="matrix" values="0 0 0 0 0 0 0 0 0 0 0 0 0 0 0 0 0 0 0.25 0"/>
<feBlend mode="normal" in2="BackgroundImageFix" result="effect1_dropShadow_504_332"/>
<feBlend mode="normal" in="SourceGraphic" in2="effect1_dropShadow_504_332" result="shape"/>
</filter>
<filter id="filter6_d_504_332" x="6.69043" y="43.8633" width="56.373" height="63.571" filterUnits="userSpaceOnUse" color-interpolation-filters="sRGB">
<feFlood flood-opacity="0" result="BackgroundImageFix"/>
<feColorMatrix in="SourceAlpha" type="matrix" values="0 0 0 0 0 0 0 0 0 0 0 0 0 0 0 0 0 0 127 0" result="hardAlpha"/>
<feOffset dy="7"/>
<feComposite in2="hardAlpha" operator="out"/>
<feColorMatrix type="matrix" values="0 0 0 0 0 0 0 0 0 0 0 0 0 0 0 0 0 0 0.25 0"/>
<feBlend mode="normal" in2="BackgroundImageFix" result="effect1_dropShadow_504_332"/>
<feBlend mode="normal" in="SourceGraphic" in2="effect1_dropShadow_504_332" result="shape"/>
</filter>
<filter id="filter7_d_504_332" x="60.2715" y="139.087" width="56.3564" height="63.5803" filterUnits="userSpaceOnUse" color-interpolation-filters="sRGB">
<feFlood flood-opacity="0" result="BackgroundImageFix"/>
<feColorMatrix in="SourceAlpha" type="matrix" values="0 0 0 0 0 0 0 0 0 0 0 0 0 0 0 0 0 0 127 0" result="hardAlpha"/>
<feOffset dy="7"/>
<feComposite in2="hardAlpha" operator="out"/>
<feColorMatrix type="matrix" values="0 0 0 0 0 0 0 0 0 0 0 0 0 0 0 0 0 0 0.25 0"/>
<feBlend mode="normal" in2="BackgroundImageFix" result="effect1_dropShadow_504_332"/>
<feBlend mode="normal" in="SourceGraphic" in2="effect1_dropShadow_504_332" result="shape"/>
</filter>
<filter id="filter8_d_504_332" x="92.4785" y="39.4793" width="56.377" height="63.5783" filterUnits="userSpaceOnUse" color-interpolation-filters="sRGB">
<feFlood flood-opacity="0" result="BackgroundImageFix"/>
<feColorMatrix in="SourceAlpha" type="matrix" values="0 0 0 0 0 0 0 0 0 0 0 0 0 0 0 0 0 0 127 0" result="hardAlpha"/>
<feOffset dy="7"/>
<feComposite in2="hardAlpha" operator="out"/>
<feColorMatrix type="matrix" values="0 0 0 0 0 0 0 0 0 0 0 0 0 0 0 0 0 0 0.25 0"/>
<feBlend mode="normal" in2="BackgroundImageFix" result="effect1_dropShadow_504_332"/>
<feBlend mode="normal" in="SourceGraphic" in2="effect1_dropShadow_504_332" result="shape"/>
</filter>
<filter id="filter9_d_504_332" x="-9.88672" y="-14.2344" width="56.3643" height="63.5849" filterUnits="userSpaceOnUse" color-interpolation-filters="sRGB">
<feFlood flood-opacity="0" result="BackgroundImageFix"/>
<feColorMatrix in="SourceAlpha" type="matrix" values="0 0 0 0 0 0 0 0 0 0 0 0 0 0 0 0 0 0 127 0" result="hardAlpha"/>
<feOffset dy="7"/>
<feComposite in2="hardAlpha" operator="out"/>
<feColorMatrix type="matrix" values="0 0 0 0 0 0 0 0 0 0 0 0 0 0 0 0 0 0 0.25 0"/>
<feBlend mode="normal" in2="BackgroundImageFix" result="effect1_dropShadow_504_332"/>
<feBlend mode="normal" in="SourceGraphic" in2="effect1_dropShadow_504_332" result="shape"/>
</filter>
<linearGradient id="paint0_linear_504_332" x1="35.1793" y1="11.7617" x2="76.562" y2="43.12" gradientUnits="userSpaceOnUse">
<stop stop-color="#FFD977"/>
<stop offset="1" stop-color="#F8FC32"/>
</linearGradient>
<linearGradient id="paint1_linear_504_332" x1="35.1793" y1="11.7617" x2="76.562" y2="43.12" gradientUnits="userSpaceOnUse">
<stop stop-color="#FFB342"/>
<stop offset="1" stop-color="#C78727"/>
</linearGradient>
<linearGradient id="paint2_linear_504_332" x1="95.6451" y1="53.7853" x2="67.599" y2="97.5649" gradientUnits="userSpaceOnUse">
<stop stop-color="#FFD977"/>
<stop offset="1" stop-color="#F8FC32"/>
</linearGradient>
<linearGradient id="paint3_linear_504_332" x1="95.6451" y1="53.7853" x2="67.599" y2="97.5649" gradientUnits="userSpaceOnUse">
<stop stop-color="#FFB342"/>
<stop offset="1" stop-color="#C78727"/>
</linearGradient>
<linearGradient id="paint4_linear_504_332" x1="-2.07098" y1="128.255" x2="43.4779" y2="153.12" gradientUnits="userSpaceOnUse">
<stop stop-color="#FFD977"/>
<stop offset="1" stop-color="#F8FC32"/>
</linearGradient>
<linearGradient id="paint5_linear_504_332" x1="-2.07098" y1="128.255" x2="43.4779" y2="153.12" gradientUnits="userSpaceOnUse">
<stop stop-color="#FFB342"/>
<stop offset="1" stop-color="#C78727"/>
</linearGradient>
<linearGradient id="paint6_linear_504_332" x1="46.2886" y1="94.7261" x2="63.3906" y2="143.865" gradientUnits="userSpaceOnUse">
<stop stop-color="#FFD977"/>
<stop offset="1" stop-color="#F8FC32"/>
</linearGradient>
<linearGradient id="paint7_linear_504_332" x1="46.2886" y1="94.7261" x2="63.3906" y2="143.865" gradientUnits="userSpaceOnUse">
<stop stop-color="#FFB342"/>
<stop offset="1" stop-color="#C78727"/>
</linearGradient>
<linearGradient id="paint8_linear_504_332" x1="141.142" y1="114.564" x2="89.3481" y2="112.22" gradientUnits="userSpaceOnUse">
<stop stop-color="#FFD977"/>
<stop offset="1" stop-color="#F8FC32"/>
</linearGradient>
<linearGradient id="paint9_linear_504_332" x1="141.142" y1="114.564" x2="89.3481" y2="112.22" gradientUnits="userSpaceOnUse">
<stop stop-color="#FFB342"/>
<stop offset="1" stop-color="#C78727"/>
</linearGradient>
<linearGradient id="paint10_linear_504_332" x1="118.1" y1="-6.88758" x2="90.054" y2="36.8922" gradientUnits="userSpaceOnUse">
<stop stop-color="#FFD977"/>
<stop offset="1" stop-color="#F8FC32"/>
</linearGradient>
<linearGradient id="paint11_linear_504_332" x1="118.1" y1="-6.88758" x2="90.054" y2="36.8922" gradientUnits="userSpaceOnUse">
<stop stop-color="#FFB342"/>
<stop offset="1" stop-color="#C78727"/>
</linearGradient>
<linearGradient id="paint12_linear_504_332" x1="32.4099" y1="46.2407" x2="37.3827" y2="98.0533" gradientUnits="userSpaceOnUse">
<stop stop-color="#FFD977"/>
<stop offset="1" stop-color="#F8FC32"/>
</linearGradient>
<linearGradient id="paint13_linear_504_332" x1="32.4099" y1="46.2407" x2="37.3827" y2="98.0533" gradientUnits="userSpaceOnUse">
<stop stop-color="#FFB342"/>
<stop offset="1" stop-color="#C78727"/>
</linearGradient>
<linearGradient id="paint14_linear_504_332" x1="69.12" y1="150.035" x2="107.916" y2="184.567" gradientUnits="userSpaceOnUse">
<stop stop-color="#FFD977"/>
<stop offset="1" stop-color="#F8FC32"/>
</linearGradient>
<linearGradient id="paint15_linear_504_332" x1="69.12" y1="150.035" x2="107.916" y2="184.567" gradientUnits="userSpaceOnUse">
<stop stop-color="#FFB342"/>
<stop offset="1" stop-color="#C78727"/>
</linearGradient>
<linearGradient id="paint16_linear_504_332" x1="116.031" y1="42.1617" x2="125.374" y2="93.3622" gradientUnits="userSpaceOnUse">
<stop stop-color="#FFD977"/>
<stop offset="1" stop-color="#F8FC32"/>
</linearGradient>
<linearGradient id="paint17_linear_504_332" x1="116.031" y1="42.1617" x2="125.374" y2="93.3622" gradientUnits="userSpaceOnUse">
<stop stop-color="#FFB342"/>
<stop offset="1" stop-color="#C78727"/>
</linearGradient>
<linearGradient id="paint18_linear_504_332" x1="32.2398" y1="-7.88222" x2="4.19361" y2="35.8975" gradientUnits="userSpaceOnUse">
<stop stop-color="#FFD977"/>
<stop offset="1" stop-color="#F8FC32"/>
</linearGradient>
<linearGradient id="paint19_linear_504_332" x1="32.2398" y1="-7.88222" x2="4.19361" y2="35.8975" gradientUnits="userSpaceOnUse">
<stop stop-color="#FFB342"/>
<stop offset="1" stop-color="#C78727"/>
</linearGradient>
<clipPath id="clip0_504_332">
<rect width="142" height="309" fill="white"/>
</clipPath>
</defs>
</svg>
