<svg width="196" height="243" viewBox="0 0 196 243" fill="none" xmlns="http://www.w3.org/2000/svg">
<g clip-path="url(#clip0_507_514)">
<mask id="mask0_507_514" style="mask-type:luminance" maskUnits="userSpaceOnUse" x="0" y="0" width="196" height="243">
<path d="M196 0H0V243H196V0Z" fill="white"/>
</mask>
<g mask="url(#mask0_507_514)">
<path d="M196 0H0V243H196V0Z" fill="#1C1C1C"/>
<mask id="mask1_507_514" style="mask-type:alpha" maskUnits="userSpaceOnUse" x="0" y="61" width="196" height="78">
<path d="M196 61.772H0V138.079H196V61.772Z" fill="#D9D9D9"/>
</mask>
<g mask="url(#mask1_507_514)">
<path d="M269.992 115.402L262.476 98.871C261.281 96.2439 258.108 95.1674 255.553 96.5232L231.703 109.175C229.836 110.166 227.546 109.882 225.979 108.466L196.29 81.638C193.992 79.5618 190.373 80.0415 188.7 82.6445L171.877 108.816C170.545 110.888 167.896 111.685 165.636 110.694L149.867 103.78C147.997 102.96 145.814 103.353 144.35 104.774L134.074 114.744C131.73 117.018 127.864 116.483 126.231 113.658L115.446 95.0003C114.103 92.677 111.159 91.824 108.775 93.0686L77.8696 109.2C75.9994 110.176 73.7162 109.88 72.1587 108.46L67.3909 104.114C65.4901 102.381 62.5802 102.366 60.6612 104.079L58.5294 105.982C55.9112 108.319 51.7555 107.316 50.5002 104.045L45.9476 92.1797C44.9813 89.6611 42.1838 88.3612 39.6263 89.2419L28.1529 93.1939C26.6446 93.7135 25.4745 94.9176 25.0019 96.4369L19.2427 114.949C18.8853 116.098 18.1239 117.08 17.0984 117.715L-0.561401 128.641C-4.84767 131.293 -2.96186 137.881 2.08338 137.881H461.968C464.739 137.881 466.982 135.645 466.982 132.885V78.1116C466.982 77.8172 466.954 77.5234 466.904 77.2336L466.471 74.8295C465.746 70.7689 460.673 69.2863 457.861 72.3123L452.464 78.1147C451.166 79.5105 449.185 80.0506 447.355 79.5078L423.528 72.439C421.672 71.8885 419.663 72.4522 418.369 73.8874L402.137 91.8781C400.941 93.2044 399.127 93.7944 397.376 93.4269L372.774 88.2662C370.996 87.8929 369.153 88.5083 367.96 89.8746L344.329 116.925C343.094 118.339 341.167 118.945 339.341 118.494L316.788 112.922C315.478 112.598 314.355 111.762 313.671 110.602L303.968 94.1355C302.155 91.0582 297.782 90.8125 295.633 93.6676L278.571 116.338C276.284 119.376 271.565 118.861 269.992 115.402Z" fill="url(#paint0_linear_507_514)" stroke="#C19CFF"/>
</g>
<path d="M14.5127 34.5196V21.5293H19.946C22.4074 21.5293 24.2124 22.6739 24.2124 25.3992C24.2124 28.1244 22.4074 29.2508 19.946 29.2508H16.5183V34.5196H14.5127ZM16.5183 27.5249H19.8548C21.3681 27.5249 22.1339 26.8526 22.1339 25.3992C22.1339 23.9275 21.3681 23.2553 19.8548 23.2553H16.5183V27.5249ZM29.2926 34.7921C26.3936 34.7921 24.6433 32.7936 24.6433 29.8867C24.6433 26.998 26.3936 24.9631 29.3108 24.9631C32.1916 24.9631 33.9419 26.9798 33.9419 29.8686C33.9419 32.7755 32.1916 34.7921 29.2926 34.7921ZM26.503 29.8867C26.503 31.8126 27.3782 33.3205 29.3108 33.3205C31.207 33.3205 32.0822 31.8126 32.0822 29.8867C32.0822 27.9427 31.207 26.4529 29.3108 26.4529C27.3782 26.4529 26.503 27.9427 26.503 29.8867ZM37.2494 29.7232V34.5196H35.4626V25.2538H37.2494V27.0161H37.2859C37.7782 25.8534 38.5257 25.0358 39.7838 25.0358C40.1119 25.0358 40.3672 25.054 40.6407 25.0903V26.7981C40.4219 26.7618 40.2578 26.7436 40.039 26.7436C38.4163 26.7436 37.2494 27.9609 37.2494 29.7232ZM44.8643 34.6286C43.3328 34.6286 42.4029 34.0472 42.4029 31.9034V26.7255H41.0537V25.2538H42.4029V22.2742H44.1897V25.2538H45.9766V26.7255H44.1897V31.9579C44.1897 32.939 44.4632 33.157 45.229 33.157C45.5389 33.157 45.6849 33.1388 45.9948 33.0843V34.5196C45.5389 34.6105 45.2472 34.6286 44.8643 34.6286ZM48.1199 24.1274C48.1199 21.9835 49.0133 21.4022 50.5266 21.4022C50.873 21.4022 51.1465 21.4385 51.657 21.5112V22.9465C51.2923 22.9101 51.1465 22.892 50.8912 22.892C50.1437 22.892 49.9249 23.11 49.9249 24.0911V25.2538H51.657V26.7255H49.9249V34.5196H48.1199V26.7255H46.8436V25.2538H48.1199V24.1274ZM56.7484 34.7921C53.8494 34.7921 52.0991 32.7936 52.0991 29.8867C52.0991 26.998 53.8494 24.9631 56.7666 24.9631C59.6474 24.9631 61.3977 26.9798 61.3977 29.8686C61.3977 32.7755 59.6474 34.7921 56.7484 34.7921ZM53.9588 29.8867C53.9588 31.8126 54.834 33.3205 56.7666 33.3205C58.6628 33.3205 59.538 31.8126 59.538 29.8867C59.538 27.9427 58.6628 26.4529 56.7666 26.4529C54.834 26.4529 53.9588 27.9427 53.9588 29.8867ZM62.9183 34.5196V21.5293H64.7051V34.5196H62.9183ZM66.7107 34.5196V25.2538H68.4975V34.5196H66.7107ZM66.6013 23.6005V21.6747H68.6251V23.6005H66.6013ZM74.6605 34.7921C71.7616 34.7921 70.0112 32.7936 70.0112 29.8867C70.0112 26.998 71.7616 24.9631 74.6788 24.9631C77.5595 24.9631 79.3098 26.9798 79.3098 29.8686C79.3098 32.7755 77.5595 34.7921 74.6605 34.7921ZM71.871 29.8867C71.871 31.8126 72.7461 33.3205 74.6788 33.3205C76.575 33.3205 77.4501 31.8126 77.4501 29.8867C77.4501 27.9427 76.575 26.4529 74.6788 26.4529C72.7461 26.4529 71.871 27.9427 71.871 29.8867Z" fill="#A774FF"/>
<path d="M181.87 33.6112L179.135 30.886M173.665 28.6149C173.665 29.0325 173.748 29.4459 173.908 29.8317C174.068 30.2174 174.303 30.5679 174.599 30.8631C174.896 31.1584 175.248 31.3926 175.635 31.5524C176.022 31.7121 176.437 31.7944 176.856 31.7944C177.275 31.7944 177.69 31.7121 178.077 31.5524C178.464 31.3926 178.816 31.1584 179.112 30.8631C179.408 30.5679 179.643 30.2174 179.803 29.8317C179.964 29.4459 180.046 29.0325 180.046 28.6149C180.046 28.1974 179.964 27.784 179.803 27.3982C179.643 27.0124 179.408 26.662 179.112 26.3667C178.816 26.0715 178.464 25.8373 178.077 25.6775C177.69 25.5177 177.275 25.4355 176.856 25.4355C176.437 25.4355 176.022 25.5177 175.635 25.6775C175.248 25.8373 174.896 26.0715 174.599 26.3667C174.303 26.662 174.068 27.0124 173.908 27.3982C173.748 27.784 173.665 28.1974 173.665 28.6149Z" stroke="#A774FF" stroke-width="2.5" stroke-linecap="round" stroke-linejoin="round"/>
<path d="M143.509 173.052H142.796V168.432H144.728C145.604 168.432 146.246 168.839 146.246 169.808C146.246 170.778 145.604 171.178 144.728 171.178H143.509V173.052ZM143.509 170.564H144.696C145.234 170.564 145.507 170.325 145.507 169.808C145.507 169.285 145.234 169.046 144.696 169.046H143.509V170.564ZM146.651 173.052H146.061L147.857 168.432H148.448L146.651 173.052ZM152.05 173.052H148.989V168.432H149.703V172.438H152.05V173.052Z" fill="white"/>
<path d="M145.967 186.748H144.928V184.633H142.872V183.598H144.928V181.482H145.967V183.598H148.023V184.633H145.967V186.748ZM152.018 187.906C150.03 187.906 148.913 186.882 148.913 185.123H150.141C150.141 186.18 150.589 186.871 151.94 186.871C153.158 186.871 153.571 186.381 153.571 185.557C153.571 184.499 152.812 184.243 152.029 184.243H151.303V183.252H151.985C152.756 183.252 153.303 182.907 153.303 182.072C153.303 181.471 152.935 180.937 151.985 180.937C150.678 180.937 150.354 181.627 150.354 182.373H149.125C149.125 180.948 150.097 179.901 151.996 179.901C153.37 179.901 154.555 180.658 154.555 182.017C154.555 182.84 154.13 183.352 153.393 183.664V183.687C154.409 184.01 154.823 184.677 154.823 185.579C154.823 187.071 153.717 187.906 152.018 187.906ZM158.46 187.906C157.019 187.906 156.069 186.949 155.924 185.802H157.175C157.264 186.436 157.645 186.904 158.471 186.904C159.901 186.904 160.281 185.568 160.281 184.243V184.132L160.248 184.121C159.846 184.766 159.13 185.134 158.259 185.134C156.762 185.134 155.723 184.087 155.723 182.573C155.723 181.081 156.762 179.901 158.482 179.901C160.694 179.901 161.488 181.538 161.488 183.887C161.488 186.414 160.382 187.906 158.46 187.906ZM158.438 184.121C159.488 184.121 160.147 183.453 160.147 182.484C160.147 181.549 159.566 180.903 158.505 180.903C157.499 180.903 156.952 181.538 156.952 182.507C156.952 183.52 157.544 184.121 158.438 184.121ZM163.39 187.75H162.172V186.537H163.39V187.75ZM167.28 187.906C165.605 187.906 164.32 187.138 164.32 185.579C164.32 184.521 165.024 183.987 165.761 183.664V183.642C165.214 183.352 164.7 182.863 164.7 181.994C164.7 180.669 165.784 179.901 167.28 179.901C168.789 179.901 169.873 180.669 169.873 181.994C169.873 182.863 169.348 183.352 168.811 183.642V183.664C169.538 183.987 170.252 184.521 170.252 185.579C170.252 187.138 168.967 187.906 167.28 187.906ZM167.28 183.186C168.152 183.186 168.666 182.818 168.666 182.039C168.666 181.271 168.152 180.881 167.28 180.881C166.42 180.881 165.906 181.271 165.906 182.039C165.906 182.818 166.42 183.186 167.28 183.186ZM167.28 186.904C168.353 186.904 168.99 186.392 168.99 185.513C168.99 184.655 168.353 184.143 167.28 184.143C166.208 184.143 165.571 184.655 165.571 185.513C165.571 186.392 166.208 186.904 167.28 186.904ZM175.184 184.321C173.91 184.321 173.251 183.341 173.251 182.106C173.251 180.881 173.888 179.901 175.184 179.901C176.446 179.901 177.106 180.881 177.106 182.106C177.106 183.341 176.469 184.321 175.184 184.321ZM176.022 187.75H175.061L179.351 180.057H180.312L176.022 187.75ZM175.184 183.486C175.799 183.486 176.089 182.952 176.089 182.106C176.089 181.259 175.799 180.725 175.184 180.725C174.558 180.725 174.268 181.259 174.268 182.106C174.268 182.952 174.558 183.486 175.184 183.486ZM180.201 187.906C178.927 187.906 178.279 186.926 178.279 185.702C178.279 184.466 178.916 183.486 180.201 183.486C181.474 183.486 182.122 184.466 182.122 185.702C182.122 186.926 181.485 187.906 180.201 187.906ZM180.201 187.082C180.815 187.082 181.117 186.548 181.117 185.702C181.117 184.855 180.815 184.321 180.201 184.321C179.586 184.321 179.284 184.855 179.284 185.702C179.284 186.548 179.586 187.082 180.201 187.082Z" fill="#14AE5C"/>
<path d="M15.6181 173.143C14.3017 173.143 13.4521 172.135 13.4521 170.745C13.4521 169.35 14.3082 168.341 15.6246 168.341C16.7854 168.341 17.5053 169.078 17.6155 170.002H16.8697C16.7854 169.55 16.5001 168.955 15.6117 168.955C14.587 168.955 14.1979 169.821 14.1979 170.739C14.1979 171.663 14.587 172.529 15.6117 172.529C16.5066 172.529 16.8244 171.935 16.8697 171.372H17.6155C17.5118 172.4 16.7854 173.143 15.6181 173.143ZM20.3268 171.779V169.757H20.9623V173.052H20.3268V172.639H20.3138C20.1387 172.891 19.795 173.143 19.2243 173.143C18.6147 173.143 18.1219 172.794 18.1219 172.038V169.757H18.7574V171.863C18.7574 172.309 18.952 172.606 19.4318 172.606C19.9766 172.606 20.3268 172.277 20.3268 171.779ZM23.2122 169.679C23.329 169.679 23.4198 169.686 23.517 169.698V170.306C23.4392 170.293 23.3809 170.287 23.303 170.287C22.7259 170.287 22.3108 170.72 22.3108 171.346V173.052H21.6753V169.757H22.3108V170.383H22.3238C22.4989 169.97 22.7648 169.679 23.2122 169.679ZM25.4668 169.679C25.5835 169.679 25.6743 169.686 25.7716 169.698V170.306C25.6938 170.293 25.6354 170.287 25.5576 170.287C24.9804 170.287 24.5654 170.72 24.5654 171.346V173.052H23.9299V169.757H24.5654V170.383H24.5783C24.7535 169.97 25.0193 169.679 25.4668 169.679ZM29.0801 171.334C29.0801 171.424 29.08 171.521 29.0736 171.573H26.5315C26.5444 172.122 26.8687 172.632 27.5237 172.632C28.1073 172.632 28.3343 172.257 28.3926 172.038H29.0412C28.866 172.671 28.3797 173.149 27.5107 173.149C26.4601 173.149 25.8765 172.406 25.8765 171.398C25.8765 170.364 26.499 169.653 27.5107 169.653C28.5158 169.653 29.0801 170.313 29.0801 171.334ZM26.5315 171.075H28.4186C28.4186 170.558 28.0554 170.17 27.4912 170.17C26.9595 170.17 26.5703 170.532 26.5315 171.075ZM31.3549 169.66C31.9645 169.66 32.4573 170.009 32.4573 170.765V173.052H31.8218V170.939C31.8218 170.5 31.6272 170.203 31.1473 170.203C30.6026 170.203 30.2525 170.532 30.2525 171.03V173.052H29.6169V169.757H30.2525V170.17H30.2654C30.4405 169.918 30.7842 169.66 31.3549 169.66ZM34.3319 172.568C34.4422 172.568 34.494 172.561 34.6043 172.542V173.052C34.4422 173.085 34.3384 173.091 34.2022 173.091C33.6575 173.091 33.3267 172.884 33.3267 172.122V170.28H32.8469V169.757H33.3267V168.697H33.9623V169.757H34.5978V170.28H33.9623V172.141C33.9623 172.49 34.0595 172.568 34.3319 172.568ZM37.299 173.052H36.5857V168.432H37.299V173.052ZM39.7968 169.66C40.4064 169.66 40.8993 170.009 40.8993 170.765V173.052H40.2637V170.939C40.2637 170.5 40.0692 170.203 39.5893 170.203C39.0446 170.203 38.6944 170.532 38.6944 171.03V173.052H38.0588V169.757H38.6944V170.17H38.7073C38.8824 169.918 39.2261 169.66 39.7968 169.66ZM43.099 173.052H42.3856L41.2054 169.757H41.8863L42.7553 172.4H42.7618L43.6178 169.757H44.2793L43.099 173.052ZM47.6103 171.334C47.6103 171.424 47.6103 171.521 47.6039 171.573H45.0619C45.0748 172.122 45.3991 172.632 46.0542 172.632C46.6376 172.632 46.8646 172.257 46.9229 172.038H47.5716C47.3965 172.671 46.9102 173.149 46.0409 173.149C44.9905 173.149 44.4069 172.406 44.4069 171.398C44.4069 170.364 45.0294 169.653 46.0409 169.653C47.0465 169.653 47.6103 170.313 47.6103 171.334ZM45.0619 171.075H46.9489C46.9489 170.558 46.5856 170.17 46.0218 170.17C45.4899 170.17 45.1008 170.532 45.0619 171.075ZM49.4509 173.143C48.4458 173.143 47.9462 172.626 47.9266 171.954H48.5689C48.5949 172.335 48.8282 172.632 49.4445 172.632C50.002 172.632 50.151 172.387 50.151 172.148C50.151 171.734 49.7102 171.689 49.2822 171.598C48.7052 171.463 48.0438 171.295 48.0438 170.61C48.0438 170.041 48.5042 169.66 49.3018 169.66C50.2094 169.66 50.6442 170.145 50.6893 170.713H50.0475C50.002 170.461 49.8657 170.17 49.3146 170.17C48.8866 170.17 48.7052 170.338 48.7052 170.584C48.7052 170.926 49.0748 170.958 49.5416 171.062C50.151 171.204 50.8128 171.379 50.8128 172.115C50.8128 172.755 50.3197 173.143 49.4509 173.143ZM52.4948 172.568C52.6051 172.568 52.6571 172.561 52.7674 172.542V173.052C52.6051 173.085 52.5016 173.091 52.3654 173.091C51.8207 173.091 51.4897 172.884 51.4897 172.122V170.28H51.0098V169.757H51.4897V168.697H52.1256V169.757H52.761V170.28H52.1256V172.141C52.1256 172.49 52.2227 172.568 52.4948 172.568ZM56.2553 171.334C56.2553 171.424 56.2553 171.521 56.2484 171.573H53.7064C53.7196 172.122 54.0437 172.632 54.6987 172.632C55.2821 172.632 55.5091 172.257 55.5674 172.038H56.2161C56.041 172.671 55.5547 173.149 54.6859 173.149C53.6352 173.149 53.0514 172.406 53.0514 171.398C53.0514 170.364 53.674 169.653 54.6859 169.653C55.691 169.653 56.2553 170.313 56.2553 171.334ZM53.7064 171.075H55.5934C55.5934 170.558 55.2306 170.17 54.6663 170.17C54.1344 170.17 53.7456 170.532 53.7064 171.075ZM59.1397 170.157V168.432H59.7751V173.052H59.1397V172.664H59.1264C58.945 172.897 58.6273 173.143 58.1082 173.143C57.2654 173.143 56.6231 172.49 56.6231 171.404C56.6231 170.319 57.2654 169.66 58.1082 169.66C58.6273 169.66 58.945 169.899 59.1264 170.157H59.1397ZM58.2121 172.619C58.7828 172.619 59.1328 172.148 59.1328 171.404C59.1328 170.655 58.7828 170.189 58.2121 170.189C57.5894 170.189 57.285 170.758 57.285 171.404C57.285 172.051 57.5894 172.619 58.2121 172.619Z" fill="white"/>
<path d="M29.0019 187.75V182.038C28.6667 182.35 28.0745 182.406 27.3818 182.406V181.426C28.7449 181.393 29.1471 180.981 29.2477 180.057H30.2085V187.75H29.0019ZM34.5079 187.906C32.5192 187.906 31.402 186.882 31.402 185.122H32.6309C32.6309 186.18 33.0778 186.87 34.4297 186.87C35.6475 186.87 36.0609 186.381 36.0609 185.557C36.0609 184.499 35.3011 184.243 34.5191 184.243H33.7929V183.252H34.4744C35.2453 183.252 35.7927 182.907 35.7927 182.072C35.7927 181.471 35.4241 180.936 34.4744 180.936C33.1672 180.936 32.8432 181.626 32.8432 182.373H31.6143C31.6143 180.947 32.5862 179.901 34.4856 179.901C35.8598 179.901 37.0441 180.658 37.0441 182.016C37.0441 182.84 36.6195 183.352 35.8821 183.664V183.686C36.8988 184.009 37.3122 184.677 37.3122 185.579C37.3122 187.071 36.2062 187.906 34.5079 187.906ZM38.2905 189.264V188.663C38.7039 188.54 38.8827 188.329 38.8715 187.75H38.2905V186.536H39.5083V187.75C39.5083 188.474 39.1843 189.041 38.2905 189.264ZM43.3084 187.906C41.4649 187.906 40.4594 186.792 40.4147 185.501H41.6437C41.7219 186.202 42.1241 186.87 43.2413 186.87C44.2245 186.87 44.8725 186.269 44.8725 185.122C44.8725 184.042 44.2804 183.553 43.3196 183.553C42.6939 183.553 42.1241 183.764 41.7554 184.243H40.5153L41.342 180.057H45.7326V181.092H42.2693L41.8448 183.218V183.241C42.247 182.829 42.8168 182.573 43.6435 182.573C45.1072 182.573 46.1237 183.653 46.1237 185.122C46.1237 186.826 44.8949 187.906 43.3084 187.906ZM50.0237 187.906C47.8116 187.906 47.0185 186.269 47.0185 183.92C47.0185 181.393 48.1243 179.901 50.0351 179.901C51.4873 179.901 52.4367 180.858 52.5712 182.005H51.3309C51.2302 181.371 50.8615 180.903 50.0351 180.903C48.5938 180.903 48.225 182.239 48.225 183.564V183.675L48.2583 183.686C48.6608 183.04 49.3646 182.673 50.247 182.673C51.7444 182.673 52.7832 183.719 52.7832 185.234C52.7832 186.725 51.733 187.906 50.0237 187.906ZM49.9899 186.904C51.0069 186.904 51.5543 186.269 51.5543 185.3C51.5543 184.287 50.9622 183.686 50.0683 183.686C49.0072 183.686 48.359 184.354 48.359 185.323C48.359 186.258 48.9397 186.904 49.9899 186.904ZM58.3879 187.75H57.1813V185.991H53.5052V184.878L57.1813 180.057H58.3879V184.955H59.4713V185.991H58.3879V187.75ZM57.1813 181.604L54.6228 184.955H57.1813V181.604Z" fill="white"/>
<path d="M21.0077 183.186L22.3235 179.429H21.101L19.8754 183.186H16.995L15.7601 179.429H14.4723L15.8223 183.186H13.2188V184.116H16.1551L16.4849 185.03H14.1208V185.96H16.8208L17.8006 188.691H19.076L20.0341 185.96H21.9751V185.03H20.3607L20.6811 184.116H23.5801V183.186H21.0077ZM18.4508 187.566H18.4383L17.9095 185.963H18.9734L18.4508 187.566ZM19.2751 185.03H17.6016L17.2998 184.116H19.5737L19.2751 185.03Z" fill="white"/>
<path d="M15.6437 208.523H14.9238V206.675L13.2637 203.902H14.0354L15.2805 206.113H15.2935L16.5386 203.902H17.3038L15.6437 206.675V208.523ZM18.4924 208.62C17.4613 208.62 16.8387 207.909 16.8387 206.875C16.8387 205.848 17.4613 205.124 18.4988 205.124C19.5235 205.124 20.1461 205.841 20.1461 206.869C20.1461 207.903 19.5235 208.62 18.4924 208.62ZM18.4988 208.097C19.1733 208.097 19.4846 207.56 19.4846 206.875C19.4846 206.183 19.1733 205.654 18.4988 205.654C17.8114 205.654 17.5001 206.183 17.5001 206.875C17.5001 207.56 17.8114 208.097 18.4988 208.097ZM22.8659 207.25V205.227H23.5014V208.523H22.8659V208.109H22.8529C22.6778 208.361 22.3341 208.613 21.7635 208.613C21.1539 208.613 20.661 208.265 20.661 207.508V205.227H21.2965V207.334C21.2965 207.78 21.4911 208.077 21.9709 208.077C22.5157 208.077 22.8659 207.747 22.8659 207.25ZM25.7514 205.15C25.8681 205.15 25.9589 205.156 26.0562 205.169V205.776C25.9783 205.764 25.92 205.757 25.8422 205.757C25.265 205.757 24.85 206.19 24.85 206.817V208.523H24.2144V205.227H24.85V205.854H24.8629C25.038 205.44 25.3039 205.15 25.7514 205.15ZM29.65 208.613C28.3141 208.613 27.5619 207.605 27.5619 206.209C27.5619 204.82 28.4114 203.812 29.7343 203.812C30.9341 203.812 31.5696 204.452 31.7188 205.33H30.973C30.8497 204.749 30.4153 204.426 29.7279 204.426C28.7032 204.426 28.3076 205.344 28.3076 206.209C28.3076 207.082 28.606 207.999 29.6889 207.999C30.4542 207.999 31.0638 207.47 31.0702 206.701H29.7019V206.106H31.7966V208.523H31.3037L31.1286 207.883H31.1156C30.7914 208.355 30.3569 208.613 29.65 208.613ZM33.9259 208.62C32.8948 208.62 32.2723 207.909 32.2723 206.875C32.2723 205.848 32.8948 205.124 33.9324 205.124C34.957 205.124 35.5796 205.841 35.5796 206.869C35.5796 207.903 34.957 208.62 33.9259 208.62ZM33.9324 208.097C34.6068 208.097 34.9182 207.56 34.9182 206.875C34.9182 206.183 34.6068 205.654 33.9324 205.654C33.245 205.654 32.9337 206.183 32.9337 206.875C32.9337 207.56 33.245 208.097 33.9324 208.097ZM37.0349 208.613C36.3734 208.613 35.9519 208.232 35.9519 207.67C35.9519 206.933 36.5096 206.713 37.3332 206.559C37.852 206.461 38.1698 206.397 38.1698 206.074C38.1698 205.835 38.0271 205.634 37.5407 205.634C36.9635 205.634 36.7885 205.816 36.756 206.255H36.1075C36.14 205.622 36.555 205.124 37.5667 205.124C38.2476 205.124 38.7923 205.408 38.7923 206.261V207.773C38.7923 208.013 38.8248 208.135 38.948 208.135C38.9674 208.135 38.9869 208.135 39.0258 208.129V208.517C38.9156 208.542 38.8053 208.555 38.7016 208.555C38.3838 208.555 38.2152 208.433 38.1762 208.057H38.1633C37.9493 208.4 37.5731 208.613 37.0349 208.613ZM37.1775 208.103C37.7482 208.103 38.1698 207.812 38.1698 207.237V206.765C38.066 206.862 37.7807 206.933 37.4435 207.004C36.8598 207.12 36.6134 207.282 36.6134 207.625C36.6134 207.935 36.782 208.103 37.1775 208.103ZM40.2012 208.523H39.5657V203.902H40.2012V208.523Z" fill="white"/>
<path d="M33.0355 223.22H27.5498C27.5498 221.773 28.4324 220.771 29.9072 219.858C31.2144 219.067 31.8736 218.745 31.8736 217.721C31.8736 217.086 31.6166 216.407 30.5664 216.407C29.3598 216.407 28.9799 217.186 28.9799 218.244H27.7509C27.7509 216.607 28.6447 215.372 30.5999 215.372C31.9965 215.372 33.1249 216.206 33.1249 217.676C33.1249 219.168 31.9071 219.936 30.801 220.615C30.0413 221.061 29.3262 221.483 29.1028 222.163V222.185H33.0355V223.22ZM36.8714 223.376C35.028 223.376 34.0225 222.263 33.9778 220.971H35.2068C35.285 221.673 35.6872 222.341 36.8044 222.341C37.7876 222.341 38.4356 221.74 38.4356 220.593C38.4356 219.513 37.8434 219.023 36.8826 219.023C36.2569 219.023 35.6872 219.235 35.3185 219.713H34.0783L34.9051 215.527H39.2959V216.563H35.8324L35.4079 218.689V218.711C35.8101 218.299 36.3799 218.043 37.2066 218.043C38.6702 218.043 39.6869 219.123 39.6869 220.593C39.6869 222.296 38.4579 223.376 36.8714 223.376ZM40.6148 224.735V224.133C41.0282 224.011 41.207 223.799 41.1958 223.22H40.6148V222.007H41.8326V223.22C41.8326 223.944 41.5087 224.512 40.6148 224.735ZM45.5958 223.376C43.4393 223.376 42.5232 221.584 42.5232 219.379C42.5232 217.175 43.4393 215.372 45.5958 215.372C47.7518 215.372 48.657 217.175 48.657 219.379C48.657 221.584 47.7518 223.376 45.5958 223.376ZM45.5958 222.341C46.981 222.341 47.3944 220.96 47.3944 219.379C47.3944 217.798 46.981 216.407 45.5958 216.407C44.199 216.407 43.7857 217.798 43.7857 219.379C43.7857 220.96 44.199 222.341 45.5958 222.341ZM52.6873 223.376C50.5313 223.376 49.6152 221.584 49.6152 219.379C49.6152 217.175 50.5313 215.372 52.6873 215.372C54.8438 215.372 55.7486 217.175 55.7486 219.379C55.7486 221.584 54.8438 223.376 52.6873 223.376ZM52.6873 222.341C54.073 222.341 54.4865 220.96 54.4865 219.379C54.4865 217.798 54.073 216.407 52.6873 216.407C51.2912 216.407 50.8778 217.798 50.8778 219.379C50.8778 220.96 51.2912 222.341 52.6873 222.341ZM59.7794 223.376C57.6234 223.376 56.7072 221.584 56.7072 219.379C56.7072 217.175 57.6234 215.372 59.7794 215.372C61.9358 215.372 62.8406 217.175 62.8406 219.379C62.8406 221.584 61.9358 223.376 59.7794 223.376ZM59.7794 222.341C61.165 222.341 61.5785 220.96 61.5785 219.379C61.5785 217.798 61.165 216.407 59.7794 216.407C58.3827 216.407 57.9693 217.798 57.9693 219.379C57.9693 220.96 58.3827 222.341 59.7794 222.341Z" fill="white"/>
<path d="M21.0077 218.658L22.3235 214.901H21.101L19.8754 218.658H16.995L15.7601 214.901H14.4723L15.8223 218.658H13.2188V219.588H16.1551L16.4849 220.502H14.1208V221.432H16.8208L17.8006 224.163H19.076L20.0341 221.432H21.9751V220.502H20.3607L20.6811 219.588H23.5801V218.658H21.0077ZM18.4508 223.037H18.4383L17.9095 221.435H18.9734L18.4508 223.037ZM19.2751 220.502H17.6016L17.2998 219.588H19.5737L19.2751 220.502Z" fill="white"/>
<path d="M80.3363 208.523H78.5596V203.902H80.3236C81.6076 203.902 82.3857 204.73 82.3857 206.216C82.3857 207.702 81.6204 208.523 80.3363 208.523ZM79.2729 207.909H80.2912C81.3674 207.909 81.6463 207.108 81.6463 206.216C81.6463 205.324 81.3674 204.517 80.2912 204.517H79.2729V207.909ZM86.0126 206.804C86.0126 206.894 86.0126 206.991 86.0062 207.043H83.4641C83.4769 207.592 83.801 208.103 84.456 208.103C85.0399 208.103 85.2669 207.728 85.3252 207.508H85.9738C85.7983 208.142 85.312 208.62 84.4432 208.62C83.3926 208.62 82.8091 207.877 82.8091 206.869C82.8091 205.835 83.4313 205.124 84.4432 205.124C85.4483 205.124 86.0126 205.783 86.0126 206.804ZM83.4641 206.545H85.3512C85.3512 206.029 84.9879 205.641 84.4236 205.641C83.8921 205.641 83.5029 206.003 83.4641 206.545ZM87.4639 208.613C86.8025 208.613 86.3809 208.232 86.3809 207.67C86.3809 206.933 86.9383 206.713 87.762 206.559C88.2807 206.461 88.5989 206.397 88.5989 206.074C88.5989 205.835 88.4562 205.634 87.9694 205.634C87.3923 205.634 87.2173 205.816 87.1849 206.255H86.5363C86.5687 205.622 86.9839 205.124 87.9954 205.124C88.6764 205.124 89.2211 205.408 89.2211 206.261V207.773C89.2211 208.013 89.2539 208.135 89.3769 208.135C89.3965 208.135 89.4157 208.135 89.4549 208.129V208.517C89.3446 208.542 89.2343 208.555 89.1303 208.555C88.8126 208.555 88.644 208.433 88.6053 208.057H88.592C88.3783 208.4 88.0022 208.613 87.4639 208.613ZM87.6066 208.103C88.1772 208.103 88.5989 207.812 88.5989 207.237V206.765C88.4949 206.862 88.2096 206.933 87.8723 207.004C87.2889 207.12 87.0423 207.282 87.0423 207.625C87.0423 207.935 87.2109 208.103 87.6066 208.103ZM92.3106 205.628V203.902H92.946V208.523H92.3106V208.135H92.2973C92.1159 208.368 91.7982 208.613 91.2795 208.613C90.4363 208.613 89.7945 207.961 89.7945 206.875C89.7945 205.79 90.4363 205.13 91.2795 205.13C91.7982 205.13 92.1159 205.369 92.2973 205.628H92.3106ZM91.383 208.09C91.9537 208.09 92.3042 207.618 92.3042 206.875C92.3042 206.125 91.9537 205.66 91.383 205.66C90.7603 205.66 90.4559 206.229 90.4559 206.875C90.4559 207.522 90.7603 208.09 91.383 208.09ZM94.297 208.523H93.6616V203.902H94.297V208.523ZM95.6913 204.639H94.9716V203.954H95.6913V204.639ZM95.6458 208.523H95.0103V205.227H95.6458V208.523ZM98.0971 205.13C98.707 205.13 99.1997 205.479 99.1997 206.235V208.523H98.5643V206.41C98.5643 205.97 98.3697 205.673 97.8897 205.673C97.345 205.673 96.995 206.003 96.995 206.5V208.523H96.3591V205.227H96.995V205.641H97.0077C97.1828 205.389 97.5264 205.13 98.0971 205.13ZM102.922 206.804C102.922 206.894 102.922 206.991 102.915 207.043H100.373C100.386 207.592 100.71 208.103 101.365 208.103C101.949 208.103 102.176 207.728 102.234 207.508H102.883C102.708 208.142 102.221 208.62 101.353 208.62C100.302 208.62 99.718 207.877 99.718 206.869C99.718 205.835 100.341 205.124 101.353 205.124C102.358 205.124 102.922 205.783 102.922 206.804ZM100.373 206.545H102.26C102.26 206.029 101.897 205.641 101.333 205.641C100.801 205.641 100.412 206.003 100.373 206.545Z" fill="white"/>
<path d="M81.2835 223.376C79.8422 223.376 78.8923 222.419 78.7469 221.272H79.9986C80.0879 221.907 80.4676 222.374 81.2945 222.374C82.7243 222.374 83.1045 221.038 83.1045 219.713V219.602L83.0708 219.591C82.6687 220.237 81.9536 220.604 81.082 220.604C79.5852 220.604 78.5459 219.558 78.5459 218.043C78.5459 216.552 79.5852 215.372 81.3058 215.372C83.5179 215.372 84.311 217.008 84.311 219.357C84.311 221.884 83.2048 223.376 81.2835 223.376ZM81.2607 219.591C82.3114 219.591 82.9705 218.923 82.9705 217.954C82.9705 217.019 82.3893 216.374 81.3282 216.374C80.3227 216.374 79.7752 217.008 79.7752 217.976C79.7752 218.99 80.3673 219.591 81.2607 219.591ZM91.8028 218.233V215.26H92.8981V223.22H91.8028V222.552H91.7805C91.4678 222.953 90.9203 223.376 90.0265 223.376C88.5743 223.376 87.468 222.252 87.468 220.381C87.468 218.511 88.5743 217.376 90.0265 217.376C90.9203 217.376 91.4678 217.788 91.7805 218.233H91.8028ZM90.2052 222.474C91.1884 222.474 91.7919 221.662 91.7919 220.381C91.7919 219.09 91.1884 218.289 90.2052 218.289C89.1326 218.289 88.6075 219.268 88.6075 220.381C88.6075 221.495 89.1326 222.474 90.2052 222.474ZM95.7059 223.376C94.5659 223.376 93.8398 222.719 93.8398 221.751C93.8398 220.481 94.8007 220.103 96.2196 219.836C97.1135 219.669 97.6609 219.558 97.6609 219.001C97.6609 218.589 97.4152 218.244 96.577 218.244C95.5829 218.244 95.2811 218.556 95.2255 219.313H94.1078C94.1639 218.222 94.8791 217.364 96.6217 217.364C97.7949 217.364 98.7334 217.854 98.7334 219.324V221.929C98.7334 222.341 98.7895 222.552 99.0015 222.552C99.0352 222.552 99.0685 222.552 99.1355 222.541V223.209C98.9458 223.254 98.7558 223.276 98.5771 223.276C98.0297 223.276 97.7393 223.064 97.6718 222.419H97.6495C97.2812 223.009 96.633 223.376 95.7059 223.376ZM95.9516 222.497C96.9348 222.497 97.6609 221.996 97.6609 221.005V220.192C97.4822 220.359 96.9904 220.481 96.4097 220.604C95.4042 220.804 94.9794 221.083 94.9794 221.673C94.9794 222.207 95.2702 222.497 95.9516 222.497ZM100.629 225.213C100.383 225.213 100.215 225.191 99.9249 225.135V224.245C100.115 224.267 100.215 224.278 100.394 224.278C100.83 224.278 101.343 224.055 101.567 223.165L99.2654 217.542H100.461L102.126 221.884H102.148L103.712 217.542H104.863L102.606 223.354C102.059 224.757 101.511 225.213 100.629 225.213ZM107.625 223.376C105.893 223.376 105.033 222.485 105 221.328H106.105C106.15 221.984 106.552 222.497 107.614 222.497C108.574 222.497 108.832 222.074 108.832 221.662C108.832 220.949 108.072 220.871 107.335 220.715C106.34 220.481 105.201 220.192 105.201 219.012C105.201 218.032 105.994 217.376 107.368 217.376C108.932 217.376 109.681 218.21 109.759 219.19H108.653C108.574 218.756 108.34 218.255 107.39 218.255C106.653 218.255 106.34 218.544 106.34 218.968C106.34 219.558 106.977 219.613 107.781 219.791C108.832 220.036 109.971 220.337 109.971 221.606C109.971 222.708 109.122 223.376 107.625 223.376Z" fill="white"/>
<path d="M143.387 208.523H142.674V203.902H144.606C145.482 203.902 146.124 204.31 146.124 205.279C146.124 206.248 145.482 206.649 144.606 206.649H143.387V208.523ZM143.387 206.035H144.574C145.112 206.035 145.385 205.796 145.385 205.279C145.385 204.755 145.112 204.516 144.574 204.516H143.387V206.035ZM148.109 205.15C148.226 205.15 148.317 205.156 148.414 205.169V205.776C148.336 205.764 148.278 205.757 148.2 205.757C147.623 205.757 147.208 206.19 147.208 206.817V208.523H146.572V205.227H147.208V205.854H147.221C147.396 205.44 147.662 205.15 148.109 205.15ZM150.166 208.62C149.135 208.62 148.513 207.909 148.513 206.875C148.513 205.848 149.135 205.124 150.173 205.124C151.198 205.124 151.82 205.841 151.82 206.869C151.82 207.903 151.198 208.62 150.166 208.62ZM150.173 208.097C150.847 208.097 151.159 207.56 151.159 206.875C151.159 206.183 150.847 205.654 150.173 205.654C149.486 205.654 149.174 206.183 149.174 206.875C149.174 207.56 149.486 208.097 150.173 208.097ZM154.028 205.13C154.87 205.13 155.513 205.79 155.513 206.875C155.513 207.961 154.87 208.613 154.028 208.613C153.509 208.613 153.191 208.381 153.009 208.116H152.997V208.523H152.361V203.902H152.997V205.615H153.009C153.191 205.382 153.509 205.13 154.028 205.13ZM153.924 208.09C154.546 208.09 154.845 207.522 154.845 206.875C154.845 206.229 154.546 205.66 153.924 205.66C153.353 205.66 153.003 206.125 153.003 206.875C153.003 207.618 153.353 208.09 153.924 208.09ZM156.974 208.613C156.312 208.613 155.891 208.232 155.891 207.67C155.891 206.933 156.449 206.713 157.272 206.559C157.791 206.461 158.109 206.397 158.109 206.074C158.109 205.835 157.966 205.634 157.48 205.634C156.903 205.634 156.727 205.816 156.695 206.255H156.046C156.079 205.622 156.494 205.124 157.506 205.124C158.187 205.124 158.731 205.408 158.731 206.261V207.773C158.731 208.013 158.764 208.135 158.887 208.135C158.906 208.135 158.926 208.135 158.965 208.129V208.517C158.854 208.542 158.744 208.555 158.641 208.555C158.323 208.555 158.154 208.433 158.115 208.057H158.102C157.888 208.4 157.512 208.613 156.974 208.613ZM157.117 208.103C157.687 208.103 158.109 207.812 158.109 207.237V206.765C158.005 206.862 157.72 206.933 157.382 207.004C156.799 207.12 156.552 207.282 156.552 207.625C156.552 207.935 156.721 208.103 157.117 208.103ZM161.171 205.13C162.014 205.13 162.656 205.79 162.656 206.875C162.656 207.961 162.014 208.613 161.171 208.613C160.652 208.613 160.335 208.381 160.153 208.116H160.14V208.523H159.505V203.902H160.14V205.615H160.153C160.335 205.382 160.652 205.13 161.171 205.13ZM161.068 208.09C161.69 208.09 161.988 207.522 161.988 206.875C161.988 206.229 161.69 205.66 161.068 205.66C160.497 205.66 160.147 206.125 160.147 206.875C160.147 207.618 160.497 208.09 161.068 208.09ZM163.884 204.639H163.164V203.954H163.884V204.639ZM163.839 208.523H163.203V205.227H163.839V208.523ZM165.187 208.523H164.552V203.902H165.187V208.523ZM166.582 204.639H165.862V203.954H166.582V204.639ZM166.537 208.523H165.901V205.227H166.537V208.523ZM168.469 208.038C168.58 208.038 168.631 208.032 168.741 208.013V208.523C168.58 208.555 168.476 208.562 168.339 208.562C167.795 208.562 167.464 208.355 167.464 207.592V205.751H166.984V205.227H167.464V204.168H168.1V205.227H168.735V205.751H168.1V207.612C168.1 207.961 168.197 208.038 168.469 208.038ZM169.692 209.679C169.549 209.679 169.452 209.667 169.283 209.634V209.118C169.394 209.13 169.452 209.137 169.555 209.137C169.808 209.137 170.107 209.008 170.236 208.491L168.9 205.227H169.595L170.561 207.747H170.574L171.482 205.227H172.149L170.839 208.6C170.522 209.415 170.204 209.679 169.692 209.679Z" fill="white"/>
<path d="M144.236 223.22H143.007V215.26H144.236V218.589H148.158V215.26H149.398V223.22H148.158V219.647H144.236V223.22ZM151.89 216.529H150.649V215.349H151.89V216.529ZM151.811 223.22H150.716V217.542H151.811V223.22ZM157.063 218.21V217.542H158.158V222.775C158.158 224.489 157.118 225.258 155.487 225.258C153.856 225.258 153.041 224.478 152.929 223.454H154.069C154.18 223.966 154.56 224.367 155.487 224.367C156.526 224.367 157.063 223.911 157.063 222.842V222.074H157.04C156.728 222.53 156.202 222.931 155.286 222.931C153.868 222.931 152.773 221.973 152.773 220.159C152.773 218.333 153.868 217.376 155.286 217.376C156.202 217.376 156.728 217.81 157.04 218.21H157.063ZM155.487 222.029C156.471 222.029 157.051 221.394 157.051 220.159C157.051 218.912 156.471 218.289 155.487 218.289C154.415 218.289 153.912 219.09 153.912 220.159C153.912 221.228 154.415 222.029 155.487 222.029ZM162.374 217.376C163.424 217.376 164.273 217.976 164.273 219.279V223.22H163.178V219.58C163.178 218.823 162.843 218.311 162.017 218.311C161.078 218.311 160.475 218.879 160.475 219.736V223.22H159.38V215.26H160.475V218.255H160.497C160.799 217.821 161.391 217.376 162.374 217.376Z" fill="white"/>
<path d="M80.4981 173.143C79.1817 173.143 78.332 172.135 78.332 170.745C78.332 169.35 79.188 168.341 80.5044 168.341C81.6654 168.341 82.3851 169.078 82.4954 170.002H81.7497C81.6654 169.55 81.3801 168.955 80.4917 168.955C79.467 168.955 79.0777 169.821 79.0777 170.739C79.0777 171.663 79.467 172.529 80.4917 172.529C81.3864 172.529 81.7041 171.935 81.7497 171.372H82.4954C82.3915 172.4 81.6654 173.143 80.4981 173.143ZM85.2066 171.779V169.757H85.842V173.052H85.2066V172.639H85.1939C85.0188 172.891 84.6747 173.143 84.104 173.143C83.4946 173.143 83.0018 172.794 83.0018 172.038V169.757H83.6372V171.863C83.6372 172.309 83.8319 172.606 84.3118 172.606C84.8565 172.606 85.2066 172.277 85.2066 171.779ZM88.0919 169.679C88.2091 169.679 88.2998 169.686 88.3969 169.698V170.306C88.3189 170.293 88.2606 170.287 88.1831 170.287C87.6056 170.287 87.1908 170.72 87.1908 171.346V173.052H86.5554V169.757H87.1908V170.383H87.2035C87.3786 169.97 87.6448 169.679 88.0919 169.679ZM90.3468 169.679C90.4635 169.679 90.5542 169.686 90.6513 169.698V170.306C90.5738 170.293 90.5155 170.287 90.4375 170.287C89.8605 170.287 89.4452 170.72 89.4452 171.346V173.052H88.8098V169.757H89.4452V170.383H89.4584C89.6335 169.97 89.8992 169.679 90.3468 169.679ZM93.9601 171.334C93.9601 171.424 93.9601 171.521 93.9537 171.573H91.4112C91.4244 172.122 91.7485 172.632 92.4035 172.632C92.9874 172.632 93.2144 172.257 93.2727 172.038H93.9209C93.7458 172.671 93.2595 173.149 92.3907 173.149C91.3401 173.149 90.7561 172.406 90.7561 171.398C90.7561 170.364 91.3788 169.653 92.3907 169.653C93.3958 169.653 93.9601 170.313 93.9601 171.334ZM91.4112 171.075H93.2987C93.2987 170.558 92.9354 170.17 92.3711 170.17C91.8392 170.17 91.4504 170.532 91.4112 171.075ZM96.2346 169.66C96.8445 169.66 97.3372 170.009 97.3372 170.765V173.052H96.7018V170.939C96.7018 170.5 96.5072 170.203 96.0272 170.203C95.4825 170.203 95.1324 170.532 95.1324 171.03V173.052H94.497V169.757H95.1324V170.17H95.1452C95.3202 169.918 95.6639 169.66 96.2346 169.66ZM99.212 172.568C99.3223 172.568 99.3738 172.561 99.4841 172.542V173.052C99.3223 173.085 99.2183 173.091 99.082 173.091C98.5373 173.091 98.2064 172.884 98.2064 172.122V170.28H97.7269V169.757H98.2064V168.697H98.8423V169.757H99.4777V170.28H98.8423V172.141C98.8423 172.49 98.9394 172.568 99.212 172.568ZM103.26 173.052H102.488L100.854 168.432H101.639L102.871 172.303H102.878L104.103 168.432H104.855L103.26 173.052ZM105.759 173.143C105.098 173.143 104.676 172.762 104.676 172.199C104.676 171.463 105.234 171.243 106.058 171.088C106.577 170.991 106.894 170.926 106.894 170.603C106.894 170.364 106.752 170.164 106.265 170.164C105.688 170.164 105.513 170.345 105.48 170.784H104.832C104.865 170.151 105.279 169.653 106.291 169.653C106.972 169.653 107.517 169.937 107.517 170.79V172.303C107.517 172.542 107.549 172.664 107.672 172.664C107.692 172.664 107.712 172.664 107.75 172.658V173.046C107.64 173.072 107.53 173.085 107.426 173.085C107.108 173.085 106.94 172.962 106.901 172.587H106.888C106.674 172.93 106.298 173.143 105.759 173.143ZM105.902 172.632C106.473 172.632 106.894 172.342 106.894 171.766V171.295C106.79 171.392 106.505 171.463 106.168 171.534C105.584 171.65 105.338 171.811 105.338 172.154C105.338 172.464 105.506 172.632 105.902 172.632ZM108.926 173.052H108.29V168.432H108.926V173.052ZM111.818 171.779V169.757H112.453V173.052H111.818V172.639H111.805C111.63 172.891 111.286 173.143 110.716 173.143C110.106 173.143 109.613 172.794 109.613 172.038V169.757H110.249V171.863C110.249 172.309 110.443 172.606 110.923 172.606C111.468 172.606 111.818 172.277 111.818 171.779ZM116.202 171.334C116.202 171.424 116.202 171.521 116.195 171.573H113.653C113.666 172.122 113.99 172.632 114.645 172.632C115.229 172.632 115.456 172.257 115.514 172.038H116.163C115.988 172.671 115.501 173.149 114.632 173.149C113.581 173.149 112.998 172.406 112.998 171.398C112.998 170.364 113.621 169.653 114.632 169.653C115.637 169.653 116.202 170.313 116.202 171.334ZM113.653 171.075H115.54C115.54 170.558 115.177 170.17 114.613 170.17C114.081 170.17 113.692 170.532 113.653 171.075Z" fill="white"/>
<path d="M93.8817 187.75V182.038C93.5462 182.35 92.9541 182.406 92.2617 182.406V181.426C93.6246 181.393 94.0266 180.981 94.1274 180.057H95.0882V187.75H93.8817ZM99.3095 187.906C97.6335 187.906 96.3485 187.137 96.3485 185.579C96.3485 184.521 97.0523 183.987 97.7898 183.664V183.642C97.2424 183.352 96.7287 182.862 96.7287 181.994C96.7287 180.669 97.8122 179.901 99.3095 179.901C100.818 179.901 101.901 180.669 101.901 181.994C101.901 182.862 101.376 183.352 100.84 183.642V183.664C101.566 183.987 102.281 184.521 102.281 185.579C102.281 187.137 100.996 187.906 99.3095 187.906ZM99.3095 183.185C100.181 183.185 100.695 182.818 100.695 182.038C100.695 181.27 100.181 180.881 99.3095 180.881C98.4489 180.881 97.9352 181.27 97.9352 182.038C97.9352 182.818 98.4489 183.185 99.3095 183.185ZM99.3095 186.904C100.382 186.904 101.019 186.391 101.019 185.512C101.019 184.655 100.382 184.143 99.3095 184.143C98.237 184.143 97.5998 184.655 97.5998 185.512C97.5998 186.391 98.237 186.904 99.3095 186.904ZM103.235 189.264V188.663C103.649 188.54 103.828 188.329 103.817 187.75H103.235V186.536H104.453V187.75C104.453 188.474 104.129 189.041 103.235 189.264ZM107.924 187.906C106.483 187.906 105.533 186.948 105.388 185.801H106.639C106.729 186.436 107.108 186.904 107.935 186.904C109.365 186.904 109.745 185.568 109.745 184.243V184.131L109.712 184.12C109.31 184.766 108.594 185.133 107.723 185.133C106.226 185.133 105.187 184.087 105.187 182.573C105.187 181.081 106.226 179.901 107.946 179.901C110.159 179.901 110.952 181.537 110.952 183.887C110.952 186.414 109.846 187.906 107.924 187.906ZM107.902 184.12C108.952 184.12 109.611 183.452 109.611 182.484C109.611 181.549 109.03 180.903 107.969 180.903C106.963 180.903 106.416 181.537 106.416 182.506C106.416 183.519 107.008 184.12 107.902 184.12ZM114.947 187.906C112.735 187.906 111.941 186.269 111.941 183.92C111.941 181.393 113.048 179.901 114.958 179.901C116.411 179.901 117.36 180.858 117.494 182.005H116.254C116.154 181.371 115.785 180.903 114.958 180.903C113.517 180.903 113.148 182.239 113.148 183.564V183.675L113.182 183.686C113.584 183.04 114.288 182.673 115.17 182.673C116.667 182.673 117.707 183.719 117.707 185.234C117.707 186.725 116.656 187.906 114.947 187.906ZM114.913 186.904C115.93 186.904 116.478 186.269 116.478 185.3C116.478 184.287 115.886 183.686 114.992 183.686C113.93 183.686 113.282 184.354 113.282 185.323C113.282 186.258 113.863 186.904 114.913 186.904ZM121.412 187.906C119.568 187.906 118.563 186.792 118.518 185.501H119.747C119.825 186.202 120.227 186.87 121.345 186.87C122.328 186.87 122.976 186.269 122.976 185.122C122.976 184.042 122.384 183.553 121.423 183.553C120.797 183.553 120.227 183.764 119.859 184.243H118.619L119.446 180.057H123.836V181.092H120.373L119.948 183.218V183.241C120.35 182.829 120.92 182.573 121.747 182.573C123.211 182.573 124.227 183.653 124.227 185.122C124.227 186.826 122.998 187.906 121.412 187.906Z" fill="white"/>
<path d="M85.8876 183.186L87.2031 179.429H85.981L84.7553 183.186H81.8751L80.6398 179.429H79.3521L80.7022 183.186H78.0986V184.116H81.035L81.3645 185.03H79.0007V185.96H81.7005L82.6805 188.691H83.9558L84.914 185.96H86.8548V185.03H85.2403L85.5608 184.116H88.4597V183.186H85.8876ZM83.3305 187.566H83.3182L82.7894 185.963H83.8533L83.3305 187.566ZM84.155 185.03H82.4813L82.1795 184.116H84.4536L84.155 185.03Z" fill="white"/>
<path opacity="0.19" d="M-3.64648 109.918H208.535" stroke="#A774FF" stroke-dasharray="2 2"/>
<path d="M15.3641 148.525V144.797C15.1453 145.001 14.7588 145.037 14.3066 145.037V144.397C15.1964 144.376 15.4589 144.107 15.5246 143.504H16.1518V148.525H15.3641ZM19.2135 148.525H17.2152V143.329H19.1989C20.643 143.329 21.5181 144.259 21.5181 145.931C21.5181 147.602 20.6575 148.525 19.2135 148.525ZM18.0175 147.835H19.1625C20.3731 147.835 20.6867 146.934 20.6867 145.931C20.6867 144.928 20.3731 144.019 19.1625 144.019H18.0175V147.835Z" fill="#A774FF"/>
<path opacity="0.15" d="M40.5155 148.525V144.797C40.2967 145.001 39.9102 145.037 39.458 145.037V144.397C40.3478 144.376 40.6103 144.107 40.6759 143.504H41.3031V148.525H40.5155ZM44.1169 148.525H43.2491L41.9509 143.329H42.7896L43.7085 147.421H43.7231L44.8025 143.329H45.6487L46.7354 147.421H46.7499L47.6689 143.329H48.5076L47.2021 148.525H46.3415L45.2328 144.347H45.2182L44.1169 148.525Z" fill="#A774FF"/>
<path opacity="0.15" d="M67.245 148.525V144.797C67.0262 145.001 66.6397 145.037 66.1875 145.037V144.397C67.0772 144.376 67.3398 144.107 67.4054 143.504H68.0326V148.525H67.245ZM69.8837 148.525H69.0961V143.329H70.1535L71.6559 147.413H71.6705L73.1801 143.329H74.2376V148.525H73.45V144.492H73.4354L71.9987 148.525H71.335L69.8983 144.492H69.8837V148.525Z" fill="#A774FF"/>
<path opacity="0.15" d="M92.913 148.525V144.797C92.6942 145.001 92.3076 145.037 91.8555 145.037V144.397C92.7452 144.376 93.0078 144.107 93.0734 143.504H93.7006V148.525H92.913ZM96.8526 148.525H96.043V146.447L94.176 143.329H95.0439L96.4441 145.815H96.4587L97.859 143.329H98.7196L96.8526 146.447V148.525Z" fill="#A774FF"/>
<path opacity="0.15" d="M120.056 148.525H116.476C116.476 147.58 117.052 146.926 118.014 146.33C118.868 145.815 119.298 145.604 119.298 144.935C119.298 144.521 119.13 144.078 118.445 144.078C117.657 144.078 117.409 144.586 117.409 145.277H116.607C116.607 144.208 117.19 143.402 118.467 143.402C119.378 143.402 120.115 143.947 120.115 144.906C120.115 145.88 119.32 146.381 118.598 146.825C118.102 147.115 117.635 147.392 117.489 147.835V147.849H120.056V148.525ZM122.938 148.525H122.128V146.447L120.261 143.329H121.129L122.529 145.815H122.544L123.944 143.329H124.805L122.938 146.447V148.525Z" fill="#A774FF"/>
<path opacity="0.15" d="M144.219 148.627C142.92 148.627 142.191 147.958 142.191 146.81H142.994C142.994 147.501 143.285 147.951 144.168 147.951C144.963 147.951 145.233 147.631 145.233 147.094C145.233 146.403 144.737 146.236 144.226 146.236H143.752V145.589H144.197C144.7 145.589 145.058 145.364 145.058 144.819C145.058 144.426 144.817 144.078 144.197 144.078C143.344 144.078 143.132 144.528 143.132 145.015H142.33C142.33 144.085 142.964 143.402 144.204 143.402C145.101 143.402 145.874 143.896 145.874 144.783C145.874 145.32 145.597 145.655 145.116 145.858V145.873C145.78 146.083 146.049 146.519 146.049 147.108C146.049 148.082 145.327 148.627 144.219 148.627ZM148.759 148.525H147.95V146.447L146.083 143.329H146.951L148.351 145.815H148.365L149.766 143.329H150.626L148.759 146.447V148.525Z" fill="#A774FF"/>
<path opacity="0.15" d="M169.661 148.525H168.815L170.755 143.329H171.623L173.578 148.525H172.703L172.272 147.275H170.092L169.661 148.525ZM171.178 144.07L170.332 146.599H172.046L171.193 144.07H171.178ZM177.561 148.525H174.118V143.329H174.921V147.835H177.561V148.525ZM181.627 148.525H178.185V143.329H178.987V147.835H181.627V148.525Z" fill="#A774FF"/>
<path d="M-5.92578 243H201.925" stroke="#A774FF" stroke-linecap="round"/>
<path d="M15.7801 52.2337H14.7773V45.7385H15.7801V48.4547H18.9799V45.7385H19.9919V52.2337H18.9799V49.3177H15.7801V52.2337ZM23.1021 52.3699C21.6526 52.3699 20.7774 51.3707 20.7774 49.9172C20.7774 48.4728 21.6526 47.4554 23.1112 47.4554C24.5515 47.4554 25.4267 48.4638 25.4267 49.9081C25.4267 51.3616 24.5515 52.3699 23.1021 52.3699ZM23.1112 51.6341C24.0593 51.6341 24.4968 50.8801 24.4968 49.9172C24.4968 48.9452 24.0593 48.2003 23.1112 48.2003C22.1448 48.2003 21.7073 48.9452 21.7073 49.9172C21.7073 50.8801 22.1448 51.6341 23.1112 51.6341ZM27.0805 52.2337H26.1871V45.7385H27.0805V52.2337ZM31.3834 48.164V45.7385H32.2768V52.2337H31.3834V51.6886H31.3652C31.1099 52.0156 30.6632 52.3608 29.9339 52.3608C28.7488 52.3608 27.8463 51.4433 27.8463 49.9172C27.8463 48.3911 28.7488 47.4645 29.9339 47.4645C30.6632 47.4645 31.1099 47.8006 31.3652 48.164H31.3834ZM30.0798 51.625C30.882 51.625 31.3743 50.9619 31.3743 49.9172C31.3743 48.8635 30.882 48.2094 30.0798 48.2094C29.2046 48.2094 28.7762 49.0088 28.7762 49.9172C28.7762 50.8256 29.2046 51.625 30.0798 51.625ZM34.2397 46.7741H33.2278V45.8112H34.2397V46.7741ZM34.1759 52.2337H33.2825V47.6008H34.1759V52.2337ZM37.6219 47.4645C38.4788 47.4645 39.1716 47.955 39.1716 49.0179V52.2337H38.2782V49.2632C38.2782 48.6454 38.0048 48.2276 37.3302 48.2276C36.5644 48.2276 36.0721 48.6909 36.0721 49.3903V52.2337H35.1787V47.6008H36.0721V48.1822H36.0903C36.3365 47.8279 36.8196 47.4645 37.6219 47.4645ZM43.4193 48.1458V47.6008H44.3127V51.8703C44.3127 53.2693 43.4649 53.8961 42.1339 53.8961C40.803 53.8961 40.1375 53.2602 40.0463 52.4244H40.9762C41.0673 52.8423 41.3773 53.1693 42.1339 53.1693C42.9817 53.1693 43.4193 52.7969 43.4193 51.9248V51.298H43.4011C43.1458 51.6705 42.7174 51.9975 41.9698 51.9975C40.8121 51.9975 39.9187 51.2162 39.9187 49.7355C39.9187 48.2457 40.8121 47.4645 41.9698 47.4645C42.7174 47.4645 43.1458 47.8188 43.4011 48.1458H43.4193ZM42.1339 51.2617C42.9362 51.2617 43.4102 50.7439 43.4102 49.7355C43.4102 48.7181 42.9362 48.2094 42.1339 48.2094C41.2588 48.2094 40.8485 48.8635 40.8485 49.7355C40.8485 50.6076 41.2588 51.2617 42.1339 51.2617ZM47.1424 52.3608C45.7294 52.3608 45.0273 51.6341 45 50.6894H45.9026C45.9391 51.2253 46.2673 51.6432 47.1333 51.6432C47.9173 51.6432 48.127 51.298 48.127 50.9619C48.127 50.3805 47.5071 50.3169 46.9054 50.1897C46.094 49.999 45.164 49.7628 45.164 48.7999C45.164 48.0005 45.8114 47.4645 46.9327 47.4645C48.209 47.4645 48.8198 48.1458 48.8836 48.9452H47.9811C47.9173 48.5909 47.7259 48.1822 46.951 48.1822C46.3493 48.1822 46.094 48.4183 46.094 48.7635C46.094 49.245 46.6137 49.2904 47.27 49.4358C48.127 49.6356 49.0568 49.8809 49.0568 50.9165C49.0568 51.8158 48.364 52.3608 47.1424 52.3608Z" fill="#A774FF"/>
<path opacity="0.5" d="M62.7294 52.2337H61.7266V45.7385H64.4432C65.6739 45.7385 66.5764 46.3108 66.5764 47.6734C66.5764 49.0361 65.6739 49.5993 64.4432 49.5993H62.7294V52.2337ZM62.7294 48.7363H64.3976C65.1543 48.7363 65.5372 48.4002 65.5372 47.6734C65.5372 46.9376 65.1543 46.6015 64.3976 46.6015H62.7294V48.7363ZM69.1167 52.3699C67.6672 52.3699 66.792 51.3707 66.792 49.9172C66.792 48.4728 67.6672 47.4554 69.1258 47.4554C70.5662 47.4554 71.4413 48.4638 71.4413 49.9081C71.4413 51.3616 70.5662 52.3699 69.1167 52.3699ZM69.1258 51.6341C70.0739 51.6341 70.5115 50.8801 70.5115 49.9172C70.5115 48.9452 70.0739 48.2003 69.1258 48.2003C68.1595 48.2003 67.7219 48.9452 67.7219 49.9172C67.7219 50.8801 68.1595 51.6341 69.1258 51.6341ZM74.034 52.3608C72.621 52.3608 71.919 51.6341 71.8917 50.6894H72.7942C72.8306 51.2253 73.1588 51.6432 74.0249 51.6432C74.8089 51.6432 75.0186 51.298 75.0186 50.9619C75.0186 50.3805 74.3986 50.3169 73.797 50.1897C72.9856 49.999 72.0558 49.7628 72.0558 48.7999C72.0558 48.0005 72.703 47.4645 73.8243 47.4645C75.1006 47.4645 75.7114 48.1458 75.7752 48.9452H74.8727C74.8089 48.5909 74.6174 48.1822 73.8426 48.1822C73.2409 48.1822 72.9856 48.4183 72.9856 48.7635C72.9856 49.245 73.5053 49.2904 74.1616 49.4358C75.0186 49.6356 75.9484 49.8809 75.9484 50.9165C75.9484 51.8158 75.2556 52.3608 74.034 52.3608ZM77.6099 46.7741H76.598V45.8112H77.6099V46.7741ZM77.546 52.2337H76.6526V47.6008H77.546V52.2337ZM80.2632 51.5524C80.4181 51.5524 80.4911 51.5433 80.646 51.516V52.2337C80.4181 52.2791 80.2723 52.2882 80.0808 52.2882C79.3151 52.2882 78.8501 51.9975 78.8501 50.9256V48.3366H78.1755V47.6008H78.8501V46.111H79.7435V47.6008H80.6369V48.3366H79.7435V50.9528C79.7435 51.4433 79.8803 51.5524 80.2632 51.5524ZM82.3376 46.7741H81.3257V45.8112H82.3376V46.7741ZM82.2737 52.2337H81.3803V47.6008H82.2737V52.2337ZM85.355 52.3699C83.9056 52.3699 83.0304 51.3707 83.0304 49.9172C83.0304 48.4728 83.9056 47.4554 85.3642 47.4554C86.8045 47.4554 87.6797 48.4638 87.6797 49.9081C87.6797 51.3616 86.8045 52.3699 85.355 52.3699ZM85.3642 51.6341C86.3123 51.6341 86.7498 50.8801 86.7498 49.9172C86.7498 48.9452 86.3123 48.2003 85.3642 48.2003C84.3978 48.2003 83.9603 48.9452 83.9603 49.9172C83.9603 50.8801 84.3978 51.6341 85.3642 51.6341ZM90.8832 47.4645C91.7401 47.4645 92.4329 47.955 92.4329 49.0179V52.2337H91.5395V49.2632C91.5395 48.6454 91.266 48.2276 90.5914 48.2276C89.8257 48.2276 89.3334 48.6909 89.3334 49.3903V52.2337H88.44V47.6008H89.3334V48.1822H89.3516C89.5978 47.8279 90.0809 47.4645 90.8832 47.4645ZM95.2312 52.3608C93.8181 52.3608 93.1162 51.6341 93.0888 50.6894H93.9914C94.0278 51.2253 94.356 51.6432 95.2221 51.6432C96.0061 51.6432 96.2157 51.298 96.2157 50.9619C96.2157 50.3805 95.5958 50.3169 94.9941 50.1897C94.1828 49.999 93.2529 49.7628 93.2529 48.7999C93.2529 48.0005 93.9002 47.4645 95.0215 47.4645C96.2978 47.4645 96.9086 48.1458 96.9724 48.9452H96.0699C96.0061 48.5909 95.8146 48.1822 95.0397 48.1822C94.4381 48.1822 94.1828 48.4183 94.1828 48.7635C94.1828 49.245 94.7024 49.2904 95.3588 49.4358C96.2157 49.6356 97.1456 49.8809 97.1456 50.9165C97.1456 51.8158 96.4528 52.3608 95.2312 52.3608Z" fill="#A774FF"/>
<path d="M27.8047 56.3215H36.0093" stroke="#A774FF" stroke-width="2" stroke-linecap="round"/>
</g>
</g>
<defs>
<linearGradient id="paint0_linear_507_514" x1="363.626" y1="64.9514" x2="363.626" y2="137.881" gradientUnits="userSpaceOnUse">
<stop stop-color="#A774FF"/>
<stop offset="1" stop-color="#644599" stop-opacity="0"/>
</linearGradient>
<clipPath id="clip0_507_514">
<rect width="196" height="243" fill="white"/>
</clipPath>
</defs>
</svg>
