<svg width="301" height="54" viewBox="0 0 301 54" fill="none" xmlns="http://www.w3.org/2000/svg">
<g clip-path="url(#clip0_507_480)">
<path d="M301 0H-0.700195V54H301V0Z" fill="#2B2B2B"/>
<path d="M22.2858 23.1428H21.0879V15.1975H22.6962L24.9811 21.4427H25.0033L27.2993 15.1975H28.9076V23.1428H27.7097V16.9755H27.6875L25.5024 23.1428H24.4931L22.308 16.9755H22.2858V23.1428ZM33.6735 23.2984C31.3886 23.2984 30.102 21.5649 30.102 19.1646C30.102 16.7755 31.555 15.0419 33.8177 15.0419C35.8697 15.0419 36.9567 16.1421 37.2118 17.6534H35.9363C35.7255 16.6532 34.9823 16.0976 33.8066 16.0976C32.0542 16.0976 31.3775 17.6756 31.3775 19.1646C31.3775 20.6648 31.8878 22.2427 33.7401 22.2427C35.0489 22.2427 36.0916 21.3315 36.1026 20.0092H33.7623V18.9868H37.3449V23.1428H36.502L36.2024 22.0427H36.1803C35.6257 22.8539 34.8825 23.2984 33.6735 23.2984ZM43.8924 23.1428H38.6571V15.1975H39.8772V22.0872H43.8924V23.1428Z" fill="white"/>
<path d="M247.211 23.1429L244.316 15.1975H245.192L247.632 22.3205H247.643L250.062 15.1975H250.905L248.054 23.1429H247.211ZM244.316 18.3646V17.6534H250.905V18.3646H244.316ZM244.937 20.1537V19.4425H250.273V20.1537H244.937ZM254.45 17.8867C254.45 19.0424 255.116 19.7314 256.137 19.7314C257.201 19.7314 258.044 19.0313 258.044 17.8089C258.044 16.82 257.401 16.0309 256.214 16.0309C255.072 16.0309 254.45 16.7755 254.45 17.8867ZM256.148 23.2873C254.816 23.2873 253.918 22.3872 253.818 21.2316H254.651C254.75 22.0538 255.26 22.5762 256.148 22.5762C257.734 22.5762 258.222 21.0982 258.222 19.3202V19.098L258.199 19.0868C257.845 20.0092 256.979 20.4537 256.07 20.4537C254.606 20.4537 253.607 19.4313 253.607 17.9312C253.607 16.4866 254.583 15.3197 256.214 15.3197C258.199 15.3197 259.021 16.7977 259.021 19.2091C259.021 21.7872 258 23.2873 256.148 23.2873ZM260.7 23.1429C260.7 20.7093 262.064 17.6645 263.783 16.1976V16.1754H259.491V15.4642H264.704V16.0865C262.663 17.7422 261.543 20.7982 261.543 23.1429H260.7ZM264.495 23.1429V22.2094H265.427V23.1429H264.495ZM269.057 23.2873C267.028 23.2873 266.173 21.4871 266.173 19.3091C266.173 17.1311 267.028 15.3197 269.057 15.3197C271.087 15.3197 271.952 17.1311 271.952 19.3091C271.952 21.4871 271.087 23.2873 269.057 23.2873ZM267.017 19.3091C267.017 21.0538 267.549 22.5762 269.057 22.5762C270.577 22.5762 271.11 21.0538 271.11 19.3091C271.11 17.5534 270.577 16.0309 269.057 16.0309C267.549 16.0309 267.017 17.5534 267.017 19.3091ZM275.881 23.2873C273.851 23.2873 272.998 21.4871 272.998 19.3091C272.998 17.1311 273.851 15.3197 275.881 15.3197C277.911 15.3197 278.777 17.1311 278.777 19.3091C278.777 21.4871 277.911 23.2873 275.881 23.2873ZM273.84 19.3091C273.84 21.0538 274.373 22.5762 275.881 22.5762C277.401 22.5762 277.933 21.0538 277.933 19.3091C277.933 17.5534 277.401 16.0309 275.881 16.0309C274.373 16.0309 273.84 17.5534 273.84 19.3091Z" fill="#FF5353"/>
<path opacity="0.3" d="M20.8516 35.0649V29.5032H21.8299L24.4076 33.7815H24.4231V29.5032H25.2849V35.0649H24.3067L21.7212 30.7866H21.7056V35.0649H20.8516ZM28.4752 35.1738C27.0699 35.1738 26.0839 34.4427 26.0217 33.1903H26.9068C26.9689 33.937 27.4115 34.4427 28.452 34.4427C29.3448 34.4427 29.6165 34.0537 29.6165 33.5481C29.6165 32.8402 29.0731 32.7391 28.0637 32.4824C27.1941 32.2491 26.2391 31.969 26.2391 30.9111C26.2391 29.9466 26.9845 29.3943 28.1802 29.3943C29.4457 29.3943 30.2687 30.0399 30.3542 31.16H29.4691C29.3759 30.491 28.9954 30.1255 28.1879 30.1255C27.4892 30.1255 27.132 30.3821 27.132 30.8644C27.132 31.4868 27.7143 31.6189 28.4286 31.7978C29.5001 32.0702 30.5095 32.3268 30.5095 33.5014C30.5095 34.4582 29.865 35.1738 28.4752 35.1738ZM31.2923 35.0649V29.5032H35.2211V30.2422H32.1464V31.8212H34.8406V32.5602H32.1464V34.326H35.2987V35.0649H31.2923Z" fill="white"/>
<path opacity="0.3" d="M231.113 32.9049V32.2527H232.989V32.9049H231.113ZM235.471 34.4618C234.085 34.4618 233.588 33.4309 233.588 31.9512C233.588 30.3592 234.281 29.4195 235.478 29.4195C236.388 29.4195 236.983 30.0226 237.067 30.7449H236.291C236.228 30.3452 235.996 30.0506 235.478 30.0506C234.575 30.0506 234.345 30.8922 234.345 31.7268V31.7969L234.366 31.8039C234.618 31.3971 235.058 31.1657 235.611 31.1657C236.549 31.1657 237.2 31.8249 237.2 32.7787C237.2 33.7184 236.542 34.4618 235.471 34.4618ZM234.428 32.8348C234.428 33.4239 234.792 33.8307 235.45 33.8307C236.087 33.8307 236.43 33.4309 236.43 32.8208C236.43 32.1826 236.059 31.8039 235.499 31.8039C234.834 31.8039 234.428 32.2247 234.428 32.8348ZM239.956 34.3636V33.2556H237.653V32.5543L239.956 29.5177H240.712V32.6034H241.391V33.2556H240.712V34.3636H239.956ZM238.353 32.6034H239.956V30.4925L238.353 32.6034ZM241.737 34.3636V33.5992H242.5V34.3636H241.737ZM243.368 34.3636C243.368 32.7577 244.362 30.9483 245.223 30.1839V30.1699H242.647V29.5177H246.049V30.0997C244.95 31.0184 244.166 32.8138 244.166 34.3636H243.368ZM248.17 34.4618C247.015 34.4618 246.384 33.7605 246.356 32.947H247.126C247.175 33.3888 247.427 33.8096 248.127 33.8096C248.743 33.8096 249.149 33.4309 249.149 32.7086C249.149 32.0283 248.778 31.7197 248.176 31.7197C247.784 31.7197 247.427 31.853 247.196 32.1545H246.42L246.937 29.5177H249.688V30.1699H247.518L247.252 31.5094V31.5234C247.504 31.2639 247.861 31.1026 248.379 31.1026C249.296 31.1026 249.933 31.7829 249.933 32.7086C249.933 33.7816 249.164 34.4618 248.17 34.4618ZM252.852 35.2192C252.327 34.5109 251.879 33.4099 251.879 32.1405C251.879 30.8291 252.327 29.7561 252.852 29.0478H253.454C252.999 29.8964 252.642 30.8431 252.642 32.1405C252.642 33.4099 252.999 34.3706 253.454 35.2192H252.852ZM255.788 34.3636V33.2556H253.485V32.5543L255.788 29.5177H256.544V32.6034H257.223V33.2556H256.544V34.3636H255.788ZM254.185 32.6034H255.788V30.4925L254.185 32.6034ZM259.658 34.4618C258.307 34.4618 257.733 33.3327 257.733 31.9442C257.733 30.5556 258.307 29.4195 259.658 29.4195C261.009 29.4195 261.576 30.5556 261.576 31.9442C261.576 33.3327 261.009 34.4618 259.658 34.4618ZM258.524 31.9442C258.524 32.94 258.783 33.8096 259.658 33.8096C260.526 33.8096 260.785 32.94 260.785 31.9442C260.785 30.9483 260.526 30.0717 259.658 30.0717C258.783 30.0717 258.524 30.9483 258.524 31.9442ZM261.992 34.3636V33.5992H262.755V34.3636H261.992ZM265.099 34.4618C263.748 34.4618 263.174 33.3327 263.174 31.9442C263.174 30.5556 263.748 29.4195 265.099 29.4195C266.45 29.4195 267.017 30.5556 267.017 31.9442C267.017 33.3327 266.45 34.4618 265.099 34.4618ZM263.965 31.9442C263.965 32.94 264.224 33.8096 265.099 33.8096C265.967 33.8096 266.226 32.94 266.226 31.9442C266.226 30.9483 265.967 30.0717 265.099 30.0717C264.224 30.0717 263.965 30.9483 263.965 31.9442ZM269.487 34.4618C268.241 34.4618 267.541 33.8166 267.541 32.7086H268.311C268.311 33.3748 268.591 33.8096 269.438 33.8096C270.201 33.8096 270.46 33.501 270.46 32.9821C270.46 32.3158 269.984 32.1545 269.494 32.1545H269.039V31.5304H269.466C269.949 31.5304 270.292 31.313 270.292 30.787C270.292 30.4083 270.061 30.0717 269.466 30.0717C268.647 30.0717 268.444 30.5065 268.444 30.9764H267.674C267.674 30.0787 268.283 29.4195 269.473 29.4195C270.334 29.4195 271.076 29.8964 271.076 30.7519C271.076 31.2709 270.81 31.5935 270.348 31.7899V31.8039C270.985 32.0073 271.244 32.4281 271.244 32.9961C271.244 33.9358 270.551 34.4618 269.487 34.4618ZM272.808 34.3636L275.496 29.5177H276.098L273.41 34.3636H272.808ZM271.674 30.8081C271.674 30.0366 272.073 29.4195 272.885 29.4195C273.676 29.4195 274.089 30.0366 274.089 30.8081C274.089 31.5865 273.69 32.2036 272.885 32.2036C272.087 32.2036 271.674 31.5865 271.674 30.8081ZM272.311 30.8081C272.311 31.341 272.493 31.6777 272.885 31.6777C273.27 31.6777 273.452 31.341 273.452 30.8081C273.452 30.2751 273.27 29.9384 272.885 29.9384C272.493 29.9384 272.311 30.2751 272.311 30.8081ZM274.824 33.0732C274.824 32.2948 275.223 31.6777 276.028 31.6777C276.826 31.6777 277.232 32.2948 277.232 33.0732C277.232 33.8447 276.833 34.4618 276.028 34.4618C275.23 34.4618 274.824 33.8447 274.824 33.0732ZM275.454 33.0732C275.454 33.6062 275.643 33.9429 276.028 33.9429C276.413 33.9429 276.602 33.6062 276.602 33.0732C276.602 32.5403 276.413 32.2036 276.028 32.2036C275.643 32.2036 275.454 32.5403 275.454 33.0732ZM277.491 35.2192C277.946 34.3706 278.31 33.4169 278.31 32.1195C278.31 30.8501 277.946 29.8964 277.491 29.0478H278.093C278.618 29.7561 279.066 30.8501 279.066 32.1195C279.066 33.4309 278.618 34.5109 278.093 35.2192H277.491Z" fill="white"/>
</g>
<defs>
<clipPath id="clip0_507_480">
<rect width="301" height="54" fill="white"/>
</clipPath>
</defs>
</svg>
