<svg width="142" height="309" viewBox="0 0 142 309" fill="none" xmlns="http://www.w3.org/2000/svg">
<g clip-path="url(#clip0_504_383)">
<mask id="mask0_504_383" style="mask-type:luminance" maskUnits="userSpaceOnUse" x="0" y="0" width="142" height="309">
<path d="M142 0H0V309H142V0Z" fill="white"/>
</mask>
<g mask="url(#mask0_504_383)">
<path d="M142 0H0V309H142V0Z" fill="#FFF239"/>
<path d="M70.505 196.275C115.645 196.275 152.238 159.536 152.238 114.217C152.238 68.8982 115.645 32.1599 70.505 32.1599C25.3654 32.1599 -11.2275 68.8982 -11.2275 114.217C-11.2275 159.536 25.3654 196.275 70.505 196.275Z" fill="url(#paint0_linear_504_383)"/>
<path d="M13.8174 222.467V212.985H15.2704V221.207H20.0522V222.467H13.8174ZM23.6088 222.666C21.4689 222.666 20.28 221.141 20.28 219.072C20.28 216.95 21.5481 215.491 23.6088 215.491C25.6562 215.491 26.8054 216.844 26.8054 218.939C26.8054 219.125 26.8054 219.324 26.7922 219.43H21.6142C21.6406 220.557 22.3011 221.605 23.6352 221.605C24.824 221.605 25.2864 220.836 25.4052 220.385H26.7262C26.3695 221.684 25.3788 222.666 23.6088 222.666ZM21.6142 218.409H25.4581C25.4581 217.348 24.7184 216.552 23.5692 216.552C22.486 216.552 21.6934 217.295 21.6142 218.409ZM29.7614 222.652C28.4141 222.652 27.5555 221.87 27.5555 220.716C27.5555 219.204 28.6915 218.753 30.3691 218.435C31.4258 218.236 32.0731 218.104 32.0731 217.441C32.0731 216.95 31.7825 216.539 30.7918 216.539C29.6161 216.539 29.2595 216.91 29.1934 217.812H27.8725C27.9386 216.512 28.784 215.491 30.8446 215.491C32.2316 215.491 33.3411 216.075 33.3411 217.825V220.928C33.3411 221.419 33.4071 221.671 33.6581 221.671C33.6977 221.671 33.7373 221.671 33.8166 221.658V222.454C33.592 222.507 33.3675 222.533 33.1561 222.533C32.509 222.533 32.1655 222.281 32.0863 221.512H32.0599C31.624 222.215 30.8578 222.652 29.7614 222.652ZM28.9028 220.623C28.9028 221.26 29.2463 221.605 30.052 221.605C31.2145 221.605 32.0731 221.008 32.0731 219.828V218.86C31.8617 219.058 31.2805 219.204 30.5936 219.35C29.4048 219.589 28.9028 219.92 28.9028 220.623ZM37.5334 222.652C35.8162 222.652 34.5084 221.313 34.5084 219.085C34.5084 216.857 35.8162 215.504 37.5334 215.504C38.5901 215.504 39.2374 215.995 39.6072 216.525H39.6336V212.985H40.9282V222.467H39.6336V221.671H39.6072C39.2374 222.148 38.5901 222.652 37.5334 222.652ZM35.8558 219.085C35.8558 220.411 36.4766 221.578 37.7447 221.578C38.9071 221.578 39.6204 220.61 39.6204 219.085C39.6204 217.547 38.9071 216.592 37.7447 216.592C36.4766 216.592 35.8558 217.759 35.8558 219.085ZM45.3704 222.666C43.2305 222.666 42.0417 221.141 42.0417 219.072C42.0417 216.95 43.3098 215.491 45.3704 215.491C47.4179 215.491 48.5671 216.844 48.5671 218.939C48.5671 219.125 48.5671 219.324 48.5539 219.43H43.3758C43.4023 220.557 44.0627 221.605 45.3969 221.605C46.5857 221.605 47.048 220.836 47.1669 220.385H48.4878C48.1312 221.684 47.1405 222.666 45.3704 222.666ZM43.3758 218.409H47.2197C47.2197 217.348 46.48 216.552 45.3308 216.552C44.2477 216.552 43.4551 217.295 43.3758 218.409ZM50.9553 218.966V222.467H49.6608V215.703H50.9553V216.99H50.9818C51.3384 216.141 51.88 215.544 52.7914 215.544C53.0292 215.544 53.2141 215.557 53.4123 215.584V216.83C53.2538 216.804 53.1349 216.791 52.9764 216.791C51.8007 216.791 50.9553 217.679 50.9553 218.966ZM57.6478 222.652C56.5911 222.652 55.9438 222.175 55.574 221.631H55.5475V222.467H54.253V212.985H55.5475V216.499H55.574C55.9438 216.022 56.5911 215.504 57.6478 215.504C59.365 215.504 60.6728 216.857 60.6728 219.085C60.6728 221.313 59.365 222.652 57.6478 222.652ZM55.5608 219.085C55.5608 220.61 56.2741 221.578 57.4365 221.578C58.7046 221.578 59.3122 220.411 59.3122 219.085C59.3122 217.759 58.7046 216.592 57.4365 216.592C56.2741 216.592 55.5608 217.547 55.5608 219.085ZM64.798 222.666C62.6977 222.666 61.4297 221.207 61.4297 219.085C61.4297 216.976 62.6977 215.491 64.8112 215.491C66.8983 215.491 68.1664 216.963 68.1664 219.072C68.1664 221.194 66.8983 222.666 64.798 222.666ZM62.777 219.085C62.777 220.491 63.411 221.591 64.8112 221.591C66.185 221.591 66.819 220.491 66.819 219.085C66.819 217.666 66.185 216.579 64.8112 216.579C63.411 216.579 62.777 217.666 62.777 219.085ZM71.1309 222.652C69.7835 222.652 68.9249 221.87 68.9249 220.716C68.9249 219.204 70.0609 218.753 71.7385 218.435C72.7953 218.236 73.4425 218.104 73.4425 217.441C73.4425 216.95 73.1519 216.539 72.1612 216.539C70.9856 216.539 70.6289 216.91 70.5629 217.812H69.242C69.308 216.512 70.1534 215.491 72.2141 215.491C73.601 215.491 74.7106 216.075 74.7106 217.825V220.928C74.7106 221.419 74.7767 221.671 75.0276 221.671C75.0673 221.671 75.1069 221.671 75.1862 221.658V222.454C74.9616 222.507 74.737 222.533 74.5257 222.533C73.8784 222.533 73.535 222.281 73.4557 221.512H73.4293C72.9934 222.215 72.2273 222.652 71.1309 222.652ZM70.2723 220.623C70.2723 221.26 70.6157 221.605 71.4215 221.605C72.5839 221.605 73.4425 221.008 73.4425 219.828V218.86C73.2312 219.058 72.65 219.204 71.9631 219.35C70.7742 219.589 70.2723 219.92 70.2723 220.623ZM77.5803 218.966V222.467H76.2858V215.703H77.5803V216.99H77.6068C77.9634 216.141 78.505 215.544 79.4164 215.544C79.6542 215.544 79.8391 215.557 80.0373 215.584V216.83C79.8788 216.804 79.7599 216.791 79.6014 216.791C78.4257 216.791 77.5803 217.679 77.5803 218.966ZM83.3016 222.652C81.5844 222.652 80.2767 221.313 80.2767 219.085C80.2767 216.857 81.5844 215.504 83.3016 215.504C84.3584 215.504 85.0056 215.995 85.3755 216.525H85.4019V212.985H86.6964V222.467H85.4019V221.671H85.3755C85.0056 222.148 84.3584 222.652 83.3016 222.652ZM81.624 219.085C81.624 220.411 82.2449 221.578 83.513 221.578C84.6754 221.578 85.3887 220.61 85.3887 219.085C85.3887 217.547 84.6754 216.592 83.513 216.592C82.2449 216.592 81.624 217.759 81.624 219.085ZM90.8085 222.652C88.761 222.652 87.7439 221.591 87.7043 220.212H89.012C89.0648 220.995 89.5404 221.605 90.7952 221.605C91.9312 221.605 92.2351 221.101 92.2351 220.61C92.2351 219.761 91.3368 219.669 90.465 219.483C89.2894 219.204 87.942 218.86 87.942 217.454C87.942 216.287 88.8799 215.504 90.5047 215.504C92.354 215.504 93.239 216.499 93.3314 217.666H92.0237C91.9313 217.149 91.6539 216.552 90.5311 216.552C89.6593 216.552 89.2894 216.897 89.2894 217.401C89.2894 218.104 90.0423 218.17 90.9934 218.382C92.2351 218.674 93.5824 219.032 93.5824 220.544C93.5824 221.857 92.5785 222.652 90.8085 222.652Z" fill="black"/>
<path d="M14.1802 242.359L12.9913 237.618H13.4999L14.4642 241.67H14.4774L15.5869 237.618H16.1219L17.2315 241.67H17.2513L18.2156 237.618H18.7175L17.5353 242.359H17.0003L15.8643 238.189H15.8445L14.7085 242.359H14.1802ZM20.3907 242.452C19.3604 242.452 18.7858 241.696 18.7858 240.669C18.7858 239.588 19.4198 238.891 20.3907 238.891C21.3616 238.891 21.9098 239.574 21.9098 240.516C21.9098 240.609 21.9098 240.702 21.9032 240.755H19.2349C19.2415 241.438 19.6047 242.081 20.3973 242.081C21.0908 242.081 21.3616 241.604 21.4276 241.325H21.8635C21.6984 241.942 21.2361 242.452 20.3907 242.452ZM19.2349 240.377H21.4541C21.4541 239.773 21.0644 239.263 20.3709 239.263C19.717 239.263 19.2679 239.747 19.2349 240.377ZM25.5348 242.439C24.947 242.439 24.5969 242.147 24.3988 241.783H24.3856V242.359H23.9563V237.618H24.3856V239.521H24.3988C24.5969 239.197 24.947 238.891 25.5348 238.891C26.3604 238.891 27.0208 239.555 27.0208 240.669C27.0208 241.776 26.3604 242.439 25.5348 242.439ZM24.3856 240.669C24.3856 241.517 24.8413 242.061 25.4886 242.061C26.1887 242.061 26.5717 241.425 26.5717 240.669C26.5717 239.906 26.1887 239.263 25.4886 239.263C24.8413 239.263 24.3856 239.813 24.3856 240.669ZM29.0593 242.452C28.029 242.452 27.4544 241.696 27.4544 240.669C27.4544 239.588 28.0884 238.891 29.0593 238.891C30.0302 238.891 30.5784 239.574 30.5784 240.516C30.5784 240.609 30.5784 240.702 30.5718 240.755H27.9035C27.9101 241.438 28.2734 242.081 29.0659 242.081C29.7594 242.081 30.0302 241.604 30.0962 241.325H30.5321C30.367 241.942 29.9047 242.452 29.0593 242.452ZM27.9035 240.377H30.1227C30.1227 239.773 29.733 239.263 29.0395 239.263C28.3856 239.263 27.9365 239.747 27.9035 240.377ZM31.1801 242.359V237.618H31.6094V242.359H31.1801ZM32.3991 242.359V238.978H32.8285V242.359H32.3991ZM32.3331 238.301V237.744H32.8879V238.301H32.3331ZM35.0449 242.452C34.0146 242.452 33.44 241.696 33.44 240.669C33.44 239.588 34.074 238.891 35.0449 238.891C36.0158 238.891 36.564 239.574 36.564 240.516C36.564 240.609 36.564 240.702 36.5574 240.755H33.8891C33.8957 241.438 34.259 242.081 35.0515 242.081C35.745 242.081 36.0158 241.604 36.0818 241.325H36.5177C36.3526 241.942 35.8903 242.452 35.0449 242.452ZM33.8891 240.377H36.1083C36.1083 239.773 35.7186 239.263 35.0251 239.263C34.3712 239.263 33.9221 239.747 33.8891 240.377ZM37.9866 242.359L36.7515 238.978H37.2271L38.2376 241.922H38.2442L39.2481 238.978H39.7104L38.4754 242.359H37.9866ZM41.501 242.452C40.4706 242.452 39.896 241.696 39.896 240.669C39.896 239.588 40.5301 238.891 41.501 238.891C42.4718 238.891 43.02 239.574 43.02 240.516C43.02 240.609 43.02 240.702 43.0134 240.755H40.3451C40.3517 241.438 40.715 242.081 41.5076 242.081C42.201 242.081 42.4718 241.604 42.5379 241.325H42.9738C42.8087 241.942 42.3463 242.452 41.501 242.452ZM40.3451 240.377H42.5643C42.5643 239.773 42.1746 239.263 41.4811 239.263C40.8273 239.263 40.3782 239.747 40.3451 240.377ZM47.3388 240.078C47.3388 239.647 47.1407 239.276 46.5595 239.276C45.9188 239.276 45.4961 239.727 45.4961 240.224V242.359H45.0668V237.618H45.4961V239.462H45.5093C45.7008 239.183 46.0641 238.898 46.6651 238.898C47.2662 238.898 47.7681 239.236 47.7681 239.986V242.359H47.3388V240.078ZM49.9632 242.452C48.9328 242.452 48.3582 241.696 48.3582 240.669C48.3582 239.588 48.9923 238.891 49.9632 238.891C50.934 238.891 51.4822 239.574 51.4822 240.516C51.4822 240.609 51.4822 240.702 51.4756 240.755H48.8073C48.814 241.438 49.1772 242.081 49.9698 242.081C50.6633 242.081 50.934 241.604 51.0001 241.325H51.436C51.2709 241.942 50.8086 242.452 49.9632 242.452ZM48.8073 240.377H51.0265C51.0265 239.773 50.6368 239.263 49.9433 239.263C49.2895 239.263 48.8404 239.747 48.8073 240.377ZM53.0089 242.446C52.3352 242.446 51.9059 242.068 51.9059 241.504C51.9059 240.775 52.4211 240.543 53.2929 240.39C53.8477 240.291 54.2043 240.251 54.2043 239.846C54.2043 239.502 53.9798 239.269 53.4382 239.269C52.7843 239.269 52.5532 239.502 52.5201 239.999H52.0644C52.0975 239.402 52.4739 238.891 53.4514 238.891C54.0722 238.891 54.6204 239.157 54.6204 239.966V241.657C54.6204 241.928 54.6601 242.054 54.812 242.054C54.8384 242.054 54.8648 242.054 54.9044 242.048V242.359C54.8318 242.373 54.7591 242.386 54.6799 242.386C54.3959 242.386 54.2308 242.273 54.2043 241.849H54.1911C53.96 242.233 53.5571 242.446 53.0089 242.446ZM52.355 241.464C52.355 241.856 52.573 242.068 53.0617 242.068C53.7486 242.068 54.2043 241.703 54.2043 241.093V240.463C54.1053 240.602 53.7486 240.682 53.3457 240.748C52.6919 240.868 52.355 241.033 52.355 241.464ZM55.4767 242.359V237.618H55.906V242.359H55.4767ZM57.6731 242.386C57.1844 242.386 56.8805 242.22 56.8805 241.484V239.356H56.3852V238.978H56.8805V237.85H57.3098V238.978H57.9901V239.356H57.3098V241.491C57.3098 241.909 57.4023 242.008 57.7325 242.008C57.8382 242.008 57.8911 242.001 57.9901 241.995V242.359C57.858 242.379 57.7788 242.386 57.6731 242.386ZM60.8189 240.078C60.8189 239.647 60.6208 239.276 60.0395 239.276C59.3989 239.276 58.9762 239.727 58.9762 240.224V242.359H58.5469V237.618H58.9762V239.462H58.9894C59.1809 239.183 59.5442 238.898 60.1452 238.898C60.7462 238.898 61.2482 239.236 61.2482 239.986V242.359H60.8189V240.078ZM62.2623 243.546C62.1567 243.546 62.0774 243.54 61.9387 243.52V243.149C62.0378 243.162 62.0906 243.168 62.1963 243.168C62.5133 243.168 62.7709 242.963 62.9558 242.34L61.5953 238.978H62.0708L63.1672 241.796H63.1804L64.2239 238.978H64.6862L63.3389 242.459C63.0087 243.301 62.7115 243.546 62.2623 243.546ZM67.8618 242.446C66.8975 242.446 66.2502 241.73 66.2502 240.669C66.2502 239.614 66.8975 238.898 67.8618 238.898C68.6807 238.898 69.2355 239.448 69.3082 240.165H68.8591C68.8327 239.787 68.5619 239.276 67.8618 239.276C67.0362 239.276 66.6993 239.979 66.6993 240.669C66.6993 241.365 67.0362 242.074 67.8618 242.074C68.5685 242.074 68.8327 241.564 68.8591 241.153H69.3082C69.2619 241.882 68.6807 242.446 67.8618 242.446ZM71.319 242.452C70.3085 242.452 69.7008 241.723 69.7008 240.675C69.7008 239.621 70.3085 238.891 71.319 238.891C72.3295 238.891 72.9371 239.621 72.9371 240.675C72.9371 241.723 72.3295 242.452 71.319 242.452ZM70.1499 240.675C70.1499 241.451 70.533 242.074 71.319 242.074C72.1049 242.074 72.488 241.451 72.488 240.675C72.488 239.893 72.1049 239.269 71.319 239.269C70.533 239.269 70.1499 239.893 70.1499 240.675ZM75.577 240.078C75.577 239.654 75.4779 239.276 74.9165 239.276C74.3287 239.276 73.9721 239.734 73.9721 240.224V242.359H73.5428V238.978H73.9721V239.455H73.9853C74.1636 239.183 74.4806 238.898 75.009 238.898C75.4845 238.898 75.7883 239.117 75.9138 239.521H75.927C76.145 239.183 76.5082 238.898 77.0432 238.898C77.6839 238.898 78.0339 239.283 78.0339 239.986V242.359H77.6046V240.078C77.6046 239.654 77.5055 239.276 76.9508 239.276C76.3563 239.276 76.0063 239.734 76.0063 240.224V242.359H75.577V240.078ZM80.3779 242.439C79.7901 242.439 79.44 242.147 79.2419 241.789H79.2287V243.533H78.7994V238.978H79.2287V239.521H79.2419C79.44 239.197 79.7901 238.891 80.3779 238.891C81.2035 238.891 81.864 239.555 81.864 240.669C81.864 241.776 81.2035 242.439 80.3779 242.439ZM79.2287 240.669C79.2287 241.517 79.6844 242.061 80.3317 242.061C81.0318 242.061 81.4148 241.425 81.4148 240.669C81.4148 239.906 81.0318 239.269 80.3317 239.269C79.6844 239.269 79.2287 239.813 79.2287 240.669ZM83.9025 242.452C82.8722 242.452 82.2976 241.696 82.2976 240.669C82.2976 239.588 82.9316 238.891 83.9025 238.891C84.8734 238.891 85.4216 239.574 85.4216 240.516C85.4216 240.609 85.4216 240.702 85.4149 240.755H82.7467C82.7533 241.438 83.1165 242.081 83.9091 242.081C84.6026 242.081 84.8734 241.604 84.9394 241.325H85.3753C85.2102 241.942 84.7479 242.452 83.9025 242.452ZM82.7467 240.377H84.9658C84.9658 239.773 84.5762 239.263 83.8827 239.263C83.2288 239.263 82.7797 239.747 82.7467 240.377ZM86.9555 242.386C86.4667 242.386 86.1629 242.22 86.1629 241.484V239.356H85.6676V238.978H86.1629V237.85H86.5922V238.978H87.2725V239.356H86.5922V241.491C86.5922 241.909 86.6847 242.008 87.0149 242.008C87.1206 242.008 87.1734 242.001 87.2725 241.995V242.359C87.1404 242.379 87.0612 242.386 86.9555 242.386ZM87.8293 242.359V238.978H88.2586V242.359H87.8293ZM87.7632 238.301V237.744H88.318V238.301H87.7632ZM90.0257 242.386C89.5369 242.386 89.2331 242.22 89.2331 241.484V239.356H88.7378V238.978H89.2331V237.85H89.6624V238.978H90.3427V239.356H89.6624V241.491C89.6624 241.909 89.7549 242.008 90.0851 242.008C90.1908 242.008 90.2436 242.001 90.3427 241.995V242.359C90.2106 242.379 90.1313 242.386 90.0257 242.386ZM90.8995 242.359V238.978H91.3288V242.359H90.8995ZM90.8334 238.301V237.744H91.3882V238.301H90.8334ZM93.5516 242.452C92.541 242.452 91.9334 241.723 91.9334 240.675C91.9334 239.621 92.541 238.891 93.5516 238.891C94.5621 238.891 95.1697 239.621 95.1697 240.675C95.1697 241.723 94.5621 242.452 93.5516 242.452ZM92.3825 240.675C92.3825 241.451 92.7656 242.074 93.5516 242.074C94.3375 242.074 94.7206 241.451 94.7206 240.675C94.7206 239.893 94.3375 239.269 93.5516 239.269C92.7656 239.269 92.3825 239.893 92.3825 240.675ZM98.0473 240.078C98.0473 239.647 97.8492 239.276 97.268 239.276C96.6273 239.276 96.2046 239.727 96.2046 240.224V242.359H95.7753V238.978H96.2046V239.462H96.2179C96.4094 239.183 96.7726 238.898 97.3737 238.898C97.9747 238.898 98.4766 239.236 98.4766 239.986V242.359H98.0473V240.078ZM102.724 240.078C102.724 239.654 102.625 239.276 102.064 239.276C101.476 239.276 101.119 239.734 101.119 240.224V242.359H100.69V238.978H101.119V239.455H101.133C101.311 239.183 101.628 238.898 102.156 238.898C102.632 238.898 102.936 239.117 103.061 239.521H103.074C103.292 239.183 103.656 238.898 104.191 238.898C104.831 238.898 105.181 239.283 105.181 239.986V242.359H104.752V240.078C104.752 239.654 104.653 239.276 104.098 239.276C103.504 239.276 103.154 239.734 103.154 240.224V242.359H102.724V240.078ZM106.871 242.446C106.198 242.446 105.769 242.068 105.769 241.504C105.769 240.775 106.284 240.543 107.155 240.39C107.71 240.291 108.067 240.251 108.067 239.846C108.067 239.502 107.842 239.269 107.301 239.269C106.647 239.269 106.416 239.502 106.383 239.999H105.927C105.96 239.402 106.337 238.891 107.314 238.891C107.935 238.891 108.483 239.157 108.483 239.966V241.657C108.483 241.928 108.523 242.054 108.675 242.054C108.701 242.054 108.727 242.054 108.767 242.048V242.359C108.694 242.373 108.622 242.386 108.542 242.386C108.258 242.386 108.093 242.273 108.067 241.849H108.054C107.823 242.233 107.42 242.446 106.871 242.446ZM106.218 241.464C106.218 241.856 106.436 242.068 106.924 242.068C107.611 242.068 108.067 241.703 108.067 241.093V240.463C107.968 240.602 107.611 240.682 107.208 240.748C106.554 240.868 106.218 241.033 106.218 241.464ZM109.339 242.359V237.618H109.769V240.569L111.44 238.978H111.968L110.64 240.218L112.133 242.359H111.625L110.35 240.49L109.769 241.033V242.359H109.339ZM113.701 242.452C112.67 242.452 112.096 241.696 112.096 240.669C112.096 239.588 112.73 238.891 113.701 238.891C114.672 238.891 115.22 239.574 115.22 240.516C115.22 240.609 115.22 240.702 115.213 240.755H112.545C112.551 241.438 112.915 242.081 113.707 242.081C114.401 242.081 114.672 241.604 114.738 241.325H115.174C115.008 241.942 114.546 242.452 113.701 242.452ZM112.545 240.377H114.764C114.764 239.773 114.374 239.263 113.681 239.263C113.027 239.263 112.578 239.747 112.545 240.377ZM117.063 242.446C116.119 242.446 115.603 241.928 115.584 241.252H116.033C116.059 241.716 116.363 242.068 117.07 242.068C117.71 242.068 117.928 241.769 117.928 241.438C117.928 240.94 117.426 240.887 116.957 240.775C116.337 240.616 115.709 240.463 115.709 239.807C115.709 239.256 116.145 238.898 116.905 238.898C117.783 238.898 118.193 239.369 118.252 239.926H117.803C117.743 239.628 117.565 239.276 116.911 239.276C116.429 239.276 116.158 239.462 116.158 239.78C116.158 240.204 116.614 240.264 117.123 240.39C117.757 240.543 118.384 240.722 118.384 241.424C118.384 242.041 117.895 242.446 117.063 242.446ZM14.2528 251.338C13.7641 251.338 13.4602 251.172 13.4602 250.436V248.307H12.9649V247.929H13.4602V246.802H13.8895V247.929H14.5698V248.307H13.8895V250.443C13.8895 250.86 13.982 250.96 14.3122 250.96C14.4179 250.96 14.4708 250.953 14.5698 250.946V251.311C14.4377 251.331 14.3585 251.338 14.2528 251.338ZM17.3984 249.03C17.3984 248.599 17.2003 248.228 16.6191 248.228C15.9784 248.228 15.5557 248.679 15.5557 249.176V251.311H15.1264V246.57H15.5557V248.413H15.5689C15.7605 248.135 16.1237 247.85 16.7248 247.85C17.3258 247.85 17.8277 248.188 17.8277 248.937V251.311H17.3984V249.03ZM20.0231 251.404C18.9927 251.404 18.4181 250.648 18.4181 249.62C18.4181 248.539 19.0522 247.843 20.0231 247.843C20.9939 247.843 21.5421 248.526 21.5421 249.468C21.5421 249.561 21.5421 249.653 21.5355 249.706H18.8672C18.8738 250.389 19.2371 251.033 20.0297 251.033C20.7231 251.033 20.9939 250.555 21.06 250.277H21.4959C21.3308 250.893 20.8685 251.404 20.0231 251.404ZM18.8672 249.329H21.0864C21.0864 248.725 20.6967 248.215 20.0032 248.215C19.3494 248.215 18.9003 248.699 18.8672 249.329ZM23.5886 251.311V246.57H24.0179V251.311H23.5886ZM26.2343 251.404C25.2039 251.404 24.6293 250.648 24.6293 249.62C24.6293 248.539 25.2634 247.843 26.2343 247.843C27.2052 247.843 27.7533 248.526 27.7533 249.468C27.7533 249.561 27.7533 249.653 27.7467 249.706H25.0785C25.0851 250.389 25.4483 251.033 26.2409 251.033C26.9344 251.033 27.2052 250.555 27.2712 250.277H27.7071C27.542 250.893 27.0797 251.404 26.2343 251.404ZM25.0785 249.329H27.2976C27.2976 248.725 26.9079 248.215 26.2145 248.215C25.5606 248.215 25.1115 248.699 25.0785 249.329ZM29.2797 251.397C28.6061 251.397 28.1768 251.019 28.1768 250.456C28.1768 249.726 28.6919 249.494 29.5637 249.342C30.1185 249.242 30.4752 249.203 30.4752 248.798C30.4752 248.453 30.2506 248.221 29.709 248.221C29.0552 248.221 28.824 248.453 28.791 248.951H28.3353C28.3683 248.354 28.7448 247.843 29.7222 247.843C30.3431 247.843 30.8913 248.108 30.8913 248.917V250.608C30.8913 250.88 30.9309 251.006 31.0828 251.006C31.1092 251.006 31.1356 251.006 31.1753 251V251.311C31.1026 251.324 31.03 251.338 30.9507 251.338C30.6667 251.338 30.5016 251.225 30.4752 250.801H30.462C30.2308 251.185 29.8279 251.397 29.2797 251.397ZM28.6259 250.416C28.6259 250.807 28.8438 251.019 29.3326 251.019C30.0195 251.019 30.4752 250.655 30.4752 250.045V249.415C30.3761 249.554 30.0195 249.634 29.6166 249.7C28.9627 249.819 28.6259 249.985 28.6259 250.416ZM32.177 249.421V251.311H31.7477V247.929H32.177V248.619H32.1902C32.3619 248.175 32.6723 247.85 33.148 247.85C33.2669 247.85 33.3594 247.856 33.4387 247.87V248.294C33.3726 248.281 33.3 248.274 33.2339 248.274C32.6261 248.274 32.177 248.765 32.177 249.421ZM36.1674 249.03C36.1674 248.599 35.9692 248.228 35.388 248.228C34.7474 248.228 34.3247 248.679 34.3247 249.176V251.311H33.8954V247.929H34.3247V248.413H34.3379C34.5294 248.135 34.8927 247.85 35.4937 247.85C36.0947 247.85 36.5967 248.188 36.5967 248.937V251.311H36.1674V249.03ZM37.3654 251.311V247.929H37.7948V251.311H37.3654ZM37.2994 247.253V246.696H37.8542V247.253H37.2994ZM40.8567 249.03C40.8567 248.599 40.6585 248.228 40.0773 248.228C39.4367 248.228 39.014 248.679 39.014 249.176V251.311H38.5847V247.929H39.014V248.413H39.0272C39.2187 248.135 39.582 247.85 40.183 247.85C40.784 247.85 41.286 248.188 41.286 248.937V251.311H40.8567V249.03ZM43.4282 252.525C42.5167 252.525 42.0346 252.08 41.9818 251.49H42.4309C42.4969 251.848 42.7809 252.147 43.4348 252.147C44.1151 252.147 44.518 251.848 44.518 251.159V250.529H44.5047C44.3066 250.88 43.9367 251.152 43.3687 251.152C42.563 251.152 41.8893 250.622 41.8893 249.494C41.8893 248.38 42.563 247.85 43.3687 247.85C43.9367 247.85 44.3066 248.122 44.5047 248.46H44.518V247.929H44.9473V251.099C44.9473 252.054 44.3528 252.525 43.4282 252.525ZM42.3384 249.494C42.3384 250.27 42.7347 250.774 43.4282 250.774C44.049 250.774 44.518 250.363 44.518 249.494C44.518 248.639 44.049 248.228 43.4282 248.228C42.7347 248.228 42.3384 248.732 42.3384 249.494ZM48.6023 251.404C47.5719 251.404 46.9973 250.648 46.9973 249.62C46.9973 248.539 47.6314 247.843 48.6023 247.843C49.5732 247.843 50.1213 248.526 50.1213 249.468C50.1213 249.561 50.1213 249.653 50.1147 249.706H47.4465C47.4531 250.389 47.8163 251.033 48.6089 251.033C49.3024 251.033 49.5732 250.555 49.6392 250.277H50.0751C49.91 250.893 49.4477 251.404 48.6023 251.404ZM47.4465 249.329H49.6656C49.6656 248.725 49.2759 248.215 48.5825 248.215C47.9286 248.215 47.4795 248.699 47.4465 249.329ZM50.126 251.311L51.4469 249.581L50.2316 247.929H50.7534L51.7045 249.275H51.7177L52.6622 247.929H53.1773L51.9687 249.581L53.2962 251.311H52.7744L51.7111 249.872H51.6979L50.6411 251.311H50.126ZM55.2234 251.391C54.6356 251.391 54.2856 251.099 54.0874 250.741H54.0742V252.485H53.6449V247.929H54.0742V248.473H54.0874C54.2856 248.148 54.6356 247.843 55.2234 247.843C56.049 247.843 56.7095 248.506 56.7095 249.62C56.7095 250.728 56.049 251.391 55.2234 251.391ZM54.0742 249.62C54.0742 250.469 54.5299 251.013 55.1772 251.013C55.8773 251.013 56.2604 250.376 56.2604 249.62C56.2604 248.858 55.8773 248.221 55.1772 248.221C54.5299 248.221 54.0742 248.765 54.0742 249.62ZM58.748 251.404C57.7177 251.404 57.1431 250.648 57.1431 249.62C57.1431 248.539 57.7771 247.843 58.748 247.843C59.7189 247.843 60.2671 248.526 60.2671 249.468C60.2671 249.561 60.2671 249.653 60.2605 249.706H57.5922C57.5988 250.389 57.9621 251.033 58.7546 251.033C59.4481 251.033 59.7189 250.555 59.7849 250.277H60.2208C60.0557 250.893 59.5934 251.404 58.748 251.404ZM57.5922 249.329H59.8114C59.8114 248.725 59.4217 248.215 58.7282 248.215C58.0743 248.215 57.6252 248.699 57.5922 249.329ZM61.2981 249.421V251.311H60.8688V247.929H61.2981V248.619H61.3113C61.483 248.175 61.7934 247.85 62.269 247.85C62.3878 247.85 62.4803 247.856 62.5595 247.87V248.294C62.4935 248.281 62.4209 248.274 62.3548 248.274C61.7472 248.274 61.2981 248.765 61.2981 249.421ZM63.0166 251.311V247.929H63.4459V251.311H63.0166ZM62.9505 247.253V246.696H63.5053V247.253H62.9505ZM65.6621 251.404C64.6318 251.404 64.0572 250.648 64.0572 249.62C64.0572 248.539 64.6912 247.843 65.6621 247.843C66.633 247.843 67.1812 248.526 67.1812 249.468C67.1812 249.561 67.1812 249.653 67.1745 249.706H64.5063C64.5129 250.389 64.8761 251.033 65.6687 251.033C66.3622 251.033 66.633 250.555 66.699 250.277H67.1349C66.9698 250.893 66.5075 251.404 65.6621 251.404ZM64.5063 249.329H66.7254C66.7254 248.725 66.3358 248.215 65.6423 248.215C64.9884 248.215 64.5393 248.699 64.5063 249.329ZM70.0552 249.03C70.0552 248.599 69.857 248.228 69.2758 248.228C68.6352 248.228 68.2125 248.679 68.2125 249.176V251.311H67.7832V247.929H68.2125V248.413H68.2257C68.4172 248.135 68.7805 247.85 69.3815 247.85C69.9825 247.85 70.4845 248.188 70.4845 248.937V251.311H70.0552V249.03ZM72.6795 251.397C71.7153 251.397 71.068 250.681 71.068 249.62C71.068 248.566 71.7153 247.85 72.6795 247.85C73.4985 247.85 74.0533 248.4 74.126 249.116H73.6768C73.6504 248.738 73.3796 248.228 72.6795 248.228C71.8539 248.228 71.5171 248.931 71.5171 249.62C71.5171 250.317 71.8539 251.026 72.6795 251.026C73.3862 251.026 73.6504 250.515 73.6768 250.104H74.126C74.0797 250.834 73.4985 251.397 72.6795 251.397ZM76.1305 251.404C75.1001 251.404 74.5255 250.648 74.5255 249.62C74.5255 248.539 75.1596 247.843 76.1305 247.843C77.1013 247.843 77.6495 248.526 77.6495 249.468C77.6495 249.561 77.6495 249.653 77.6429 249.706H74.9746C74.9812 250.389 75.3445 251.033 76.1371 251.033C76.8306 251.033 77.1013 250.555 77.1674 250.277H77.6033C77.4382 250.893 76.9758 251.404 76.1305 251.404ZM74.9746 249.329H77.1938C77.1938 248.725 76.8041 248.215 76.1106 248.215C75.4568 248.215 75.0077 248.699 74.9746 249.329ZM81.7302 249.03C81.7302 248.606 81.6311 248.228 81.0697 248.228C80.4819 248.228 80.1253 248.685 80.1253 249.176V251.311H79.696V247.929H80.1253V248.407H80.1385C80.3168 248.135 80.6338 247.85 81.1622 247.85C81.6377 247.85 81.9416 248.069 82.0671 248.473H82.0803C82.2982 248.135 82.6615 247.85 83.1964 247.85C83.8371 247.85 84.1871 248.234 84.1871 248.937V251.311H83.7578V249.03C83.7578 248.606 83.6588 248.228 83.104 248.228C82.5096 248.228 82.1595 248.685 82.1595 249.176V251.311H81.7302V249.03ZM86.3858 251.404C85.3753 251.404 84.7677 250.675 84.7677 249.627C84.7677 248.573 85.3753 247.843 86.3858 247.843C87.3963 247.843 88.004 248.573 88.004 249.627C88.004 250.675 87.3963 251.404 86.3858 251.404ZM85.2168 249.627C85.2168 250.403 85.5999 251.026 86.3858 251.026C87.1718 251.026 87.5549 250.403 87.5549 249.627C87.5549 248.844 87.1718 248.221 86.3858 248.221C85.5999 248.221 85.2168 248.844 85.2168 249.627ZM89.0389 249.421V251.311H88.6096V247.929H89.0389V248.619H89.0521C89.2239 248.175 89.5343 247.85 90.0098 247.85C90.1287 247.85 90.2212 247.856 90.3004 247.87V248.294C90.2344 248.281 90.1617 248.274 90.0957 248.274C89.488 248.274 89.0389 248.765 89.0389 249.421ZM91.9971 251.404C90.9668 251.404 90.3919 250.648 90.3919 249.62C90.3919 248.539 91.0263 247.843 91.9971 247.843C92.968 247.843 93.5162 248.526 93.5162 249.468C93.5162 249.561 93.5162 249.653 93.5093 249.706H90.8413C90.8479 250.389 91.2112 251.033 92.0037 251.033C92.6972 251.033 92.968 250.555 93.0341 250.277H93.47C93.3049 250.893 92.8425 251.404 91.9971 251.404ZM90.8413 249.329H93.0605C93.0605 248.725 92.6708 248.215 91.9773 248.215C91.3235 248.215 90.8744 248.699 90.8413 249.329ZM96.9893 251.404C95.9589 251.404 95.3843 250.648 95.3843 249.62C95.3843 248.539 96.0184 247.843 96.9893 247.843C97.9602 247.843 98.5083 248.526 98.5083 249.468C98.5083 249.561 98.5083 249.653 98.5017 249.706H95.8335C95.8401 250.389 96.2033 251.033 96.9959 251.033C97.6894 251.033 97.9602 250.555 98.0262 250.277H98.4621C98.297 250.893 97.8347 251.404 96.9893 251.404ZM95.8335 249.329H98.0526C98.0526 248.725 97.6629 248.215 96.9695 248.215C96.3156 248.215 95.8665 248.699 95.8335 249.329ZM98.513 251.311L99.8339 249.581L98.6186 247.929H99.1404L100.091 249.275H100.105L101.049 247.929H101.564L100.356 249.581L101.683 251.311H101.161L100.098 249.872H100.085L99.0281 251.311H98.513ZM103.297 251.397C102.333 251.397 101.686 250.681 101.686 249.62C101.686 248.566 102.333 247.85 103.297 247.85C104.116 247.85 104.671 248.4 104.743 249.116H104.294C104.268 248.738 103.997 248.228 103.297 248.228C102.471 248.228 102.135 248.931 102.135 249.62C102.135 250.317 102.471 251.026 103.297 251.026C104.004 251.026 104.268 250.515 104.294 250.104H104.743C104.697 250.834 104.116 251.397 103.297 251.397ZM105.321 251.311V247.929H105.75V251.311H105.321ZM105.255 247.253V246.696H105.81V247.253H105.255ZM107.518 251.338C107.029 251.338 106.725 251.172 106.725 250.436V248.307H106.23V247.929H106.725V246.802H107.154V247.929H107.835V248.307H107.154V250.443C107.154 250.86 107.247 250.96 107.577 250.96C107.683 250.96 107.736 250.953 107.835 250.946V251.311C107.703 251.331 107.623 251.338 107.518 251.338ZM108.391 251.311V247.929H108.821V251.311H108.391ZM108.325 247.253V246.696H108.88V247.253H108.325ZM111.882 249.03C111.882 248.599 111.684 248.228 111.103 248.228C110.462 248.228 110.04 248.679 110.04 249.176V251.311H109.61V247.929H110.04V248.413H110.053C110.244 248.135 110.608 247.85 111.209 247.85C111.81 247.85 112.312 248.188 112.312 248.937V251.311H111.882V249.03ZM114.454 252.525C113.543 252.525 113.061 252.08 113.008 251.49H113.457C113.523 251.848 113.807 252.147 114.461 252.147C115.141 252.147 115.544 251.848 115.544 251.159V250.529H115.531C115.333 250.88 114.963 251.152 114.395 251.152C113.589 251.152 112.915 250.622 112.915 249.494C112.915 248.38 113.589 247.85 114.395 247.85C114.963 247.85 115.333 248.122 115.531 248.46H115.544V247.929H115.973V251.099C115.973 252.054 115.379 252.525 114.454 252.525ZM113.365 249.494C113.365 250.27 113.761 250.774 114.454 250.774C115.075 250.774 115.544 250.363 115.544 249.494C115.544 248.639 115.075 248.228 114.454 248.228C113.761 248.228 113.365 248.732 113.365 249.494ZM116.763 251.311V250.754H117.318V251.311H116.763ZM116.796 248.002V246.57H117.292V248.002L117.179 250.091H116.909L116.796 248.002ZM12.9385 260.263L14.7019 255.522H15.2435L17.0202 260.263H16.505L16.0295 258.95H13.9094L13.4338 260.263H12.9385ZM14.0679 258.519H15.8775L14.9793 255.979H14.9661L14.0679 258.519ZM18.2646 260.289C17.7759 260.289 17.472 260.124 17.472 259.388V257.259H16.9767V256.881H17.472V255.754H17.9013V256.881H18.5816V257.259H17.9013V259.394C17.9013 259.812 17.9938 259.911 18.324 259.911C18.4297 259.911 18.4826 259.905 18.5816 259.898V260.263C18.4495 260.283 18.3703 260.289 18.2646 260.289ZM20.6887 260.263V255.522H21.1708V260.263H20.6887ZM22.1721 260.263V255.522H22.76L25.316 259.58H25.3292V255.522H25.8113V260.263H25.2235L22.6675 256.205H22.6543V260.263H22.1721ZM28.1039 260.263L26.3801 255.522H26.9019L28.3549 259.772H28.3615L29.8013 255.522H30.3033L28.6059 260.263H28.1039ZM32.4349 260.349C31.2989 260.349 30.48 259.759 30.4139 258.691H30.9159C30.9819 259.427 31.431 259.925 32.4151 259.925C33.2871 259.925 33.5843 259.507 33.5843 258.983C33.5909 258.28 33.1021 258.161 32.1311 257.942C31.3584 257.763 30.6121 257.524 30.6121 256.656C30.6121 255.9 31.2131 255.436 32.184 255.436C33.2078 255.436 33.8551 255.959 33.9277 256.888H33.4258C33.3465 256.231 32.9831 255.86 32.184 255.86C31.4905 255.86 31.114 256.145 31.114 256.636C31.114 257.272 31.6754 257.405 32.3689 257.557C33.3399 257.77 34.0862 258.008 34.0862 258.97C34.0862 259.739 33.5579 260.349 32.4349 260.349ZM35.7836 260.263V255.946H34.1787V255.522H37.8707V255.946H36.2592V260.263H35.7836ZM37.7122 260.78C37.9235 260.701 37.9896 260.581 37.983 260.263H37.7122V259.706H38.267V260.263C38.267 260.634 38.1613 260.926 37.7122 261.065V260.78ZM40.3973 261.45C40.2916 261.45 40.2124 261.443 40.0737 261.423V261.052C40.1728 261.065 40.2256 261.072 40.3313 261.072C40.6483 261.072 40.9059 260.866 41.0908 260.243L39.7302 256.881H40.2058L41.3022 259.699H41.3154L42.3589 256.881H42.8212L41.4739 260.362C41.1436 261.204 40.8464 261.45 40.3973 261.45ZM44.6101 260.356C43.5996 260.356 42.9919 259.626 42.9919 258.579C42.9919 257.524 43.5996 256.795 44.6101 256.795C45.6206 256.795 46.2282 257.524 46.2282 258.579C46.2282 259.626 45.6206 260.356 44.6101 260.356ZM43.4411 258.579C43.4411 259.354 43.8241 259.978 44.6101 259.978C45.396 259.978 45.7791 259.354 45.7791 258.579C45.7791 257.796 45.396 257.173 44.6101 257.173C43.8241 257.173 43.4411 257.796 43.4411 258.579ZM47.9104 260.342C47.3094 260.342 46.8075 260.004 46.8075 259.255V256.881H47.2368V259.162C47.2368 259.593 47.4349 259.964 48.0161 259.964C48.6568 259.964 49.0795 259.514 49.0795 259.016V256.881H49.5088V260.263H49.0795V259.785H49.0662C48.8747 260.064 48.5115 260.342 47.9104 260.342ZM53.1753 260.349C52.2111 260.349 51.5638 259.633 51.5638 258.572C51.5638 257.518 52.2111 256.802 53.1753 256.802C53.9943 256.802 54.5491 257.352 54.6218 258.068H54.1726C54.1462 257.69 53.8754 257.18 53.1753 257.18C52.3498 257.18 52.0129 257.882 52.0129 258.572C52.0129 259.268 52.3498 259.978 53.1753 259.978C53.882 259.978 54.1462 259.467 54.1726 259.056H54.6218C54.5755 259.785 53.9943 260.349 53.1753 260.349ZM56.124 260.349C55.4503 260.349 55.021 259.971 55.021 259.407C55.021 258.678 55.5362 258.446 56.408 258.294C56.9628 258.194 57.3194 258.154 57.3194 257.75C57.3194 257.405 57.0949 257.173 56.5533 257.173C55.8994 257.173 55.6683 257.405 55.6352 257.902H55.1795C55.2125 257.306 55.589 256.795 56.5665 256.795C57.1873 256.795 57.7355 257.06 57.7355 257.869V259.56C57.7355 259.832 57.7751 259.958 57.927 259.958C57.9535 259.958 57.9799 259.958 58.0195 259.951V260.263C57.9469 260.276 57.8742 260.289 57.795 260.289C57.511 260.289 57.3458 260.177 57.3194 259.752H57.3062C57.075 260.137 56.6722 260.349 56.124 260.349ZM55.4701 259.368C55.4701 259.759 55.6881 259.971 56.1768 259.971C56.8637 259.971 57.3194 259.606 57.3194 258.996V258.366C57.2204 258.506 56.8637 258.585 56.4608 258.652C55.807 258.771 55.4701 258.937 55.4701 259.368ZM60.8641 257.982C60.8641 257.551 60.666 257.18 60.0848 257.18C59.4441 257.18 59.0214 257.63 59.0214 258.128V260.263H58.5921V256.881H59.0214V257.365H59.0347C59.2262 257.087 59.5894 256.802 60.1905 256.802C60.7915 256.802 61.2934 257.14 61.2934 257.889V260.263H60.8641V257.982ZM64.9333 260.349C63.969 260.349 63.3217 259.633 63.3217 258.572C63.3217 257.518 63.969 256.802 64.9333 256.802C65.7522 256.802 66.307 257.352 66.3797 258.068H65.9306C65.9041 257.69 65.6334 257.18 64.9333 257.18C64.1077 257.18 63.7708 257.882 63.7708 258.572C63.7708 259.268 64.1077 259.978 64.9333 259.978C65.64 259.978 65.9041 259.467 65.9306 259.056H66.3797C66.3335 259.785 65.7522 260.349 64.9333 260.349ZM68.3908 260.356C67.3803 260.356 66.7727 259.626 66.7727 258.579C66.7727 257.524 67.3803 256.795 68.3908 256.795C69.4013 256.795 70.0089 257.524 70.0089 258.579C70.0089 259.626 69.4013 260.356 68.3908 260.356ZM67.2218 258.579C67.2218 259.354 67.6048 259.978 68.3908 259.978C69.1768 259.978 69.5598 259.354 69.5598 258.579C69.5598 257.796 69.1768 257.173 68.3908 257.173C67.6048 257.173 67.2218 257.796 67.2218 258.579ZM72.6488 257.982C72.6488 257.557 72.5497 257.18 71.9883 257.18C71.4005 257.18 71.0439 257.637 71.0439 258.128V260.263H70.6146V256.881H71.0439V257.359H71.0571C71.2354 257.087 71.5524 256.802 72.0808 256.802C72.5563 256.802 72.8602 257.02 72.9857 257.425H72.9989C73.2168 257.087 73.5801 256.802 74.115 256.802C74.7557 256.802 75.1057 257.186 75.1057 257.889V260.263H74.6764V257.982C74.6764 257.557 74.5774 257.18 74.0226 257.18C73.4282 257.18 73.0781 257.637 73.0781 258.128V260.263H72.6488V257.982ZM77.4497 260.342C76.8619 260.342 76.5119 260.051 76.3137 259.693H76.3005V261.437H75.8712V256.881H76.3005V257.425H76.3137C76.5119 257.1 76.8619 256.795 77.4497 256.795C78.2753 256.795 78.9358 257.458 78.9358 258.572C78.9358 259.679 78.2753 260.342 77.4497 260.342ZM76.3005 258.572C76.3005 259.421 76.7562 259.964 77.4035 259.964C78.1036 259.964 78.4867 259.328 78.4867 258.572C78.4867 257.809 78.1036 257.173 77.4035 257.173C76.7562 257.173 76.3005 257.717 76.3005 258.572ZM80.9743 260.356C79.944 260.356 79.3694 259.6 79.3694 258.572C79.3694 257.491 80.0034 256.795 80.9743 256.795C81.9452 256.795 82.4934 257.478 82.4934 258.419C82.4934 258.512 82.4934 258.605 82.4868 258.658H79.8185C79.8251 259.341 80.1884 259.984 80.9809 259.984C81.6744 259.984 81.9452 259.507 82.0112 259.228H82.4471C82.282 259.845 81.8197 260.356 80.9743 260.356ZM79.8185 258.28H82.0377C82.0377 257.677 81.648 257.166 80.9545 257.166C80.3006 257.166 79.8515 257.65 79.8185 258.28ZM84.0273 260.289C83.5386 260.289 83.2347 260.124 83.2347 259.388V257.259H82.7394V256.881H83.2347V255.754H83.6641V256.881H84.3443V257.259H83.6641V259.394C83.6641 259.812 83.7565 259.911 84.0868 259.911C84.1924 259.911 84.2453 259.905 84.3443 259.898V260.263C84.2122 260.283 84.133 260.289 84.0273 260.289ZM86.2501 260.356C85.2198 260.356 84.6452 259.6 84.6452 258.572C84.6452 257.491 85.2792 256.795 86.2501 256.795C87.221 256.795 87.7692 257.478 87.7692 258.419C87.7692 258.512 87.7692 258.605 87.7626 258.658H85.0943C85.1009 259.341 85.4642 259.984 86.2567 259.984C86.9502 259.984 87.221 259.507 87.287 259.228H87.7229C87.5578 259.845 87.0955 260.356 86.2501 260.356ZM85.0943 258.28H87.3135C87.3135 257.677 86.9238 257.166 86.2303 257.166C85.5764 257.166 85.1273 257.65 85.0943 258.28ZM90.4526 260.263L89.3827 256.881H89.8582L90.697 259.772H90.7102L91.4962 256.881H91.9783L92.7643 259.772H92.7775L93.6229 256.881H94.0852L93.0086 260.263H92.5265L91.734 257.405H91.7207L90.9282 260.263H90.4526ZM94.5627 260.263V256.881H94.992V260.263H94.5627ZM94.4967 256.205V255.648H95.0515V256.205H94.4967ZM96.7594 260.289C96.2707 260.289 95.9669 260.124 95.9669 259.388V257.259H95.4715V256.881H95.9669V255.754H96.3962V256.881H97.0764V257.259H96.3962V259.394C96.3962 259.812 96.4886 259.911 96.8189 259.911C96.9245 259.911 96.9774 259.905 97.0764 259.898V260.263C96.9444 260.283 96.8651 260.289 96.7594 260.289ZM99.9049 257.982C99.9049 257.551 99.7068 257.18 99.1255 257.18C98.4849 257.18 98.0622 257.63 98.0622 258.128V260.263H97.6329V255.522H98.0622V257.365H98.0754C98.2669 257.087 98.6302 256.802 99.2312 256.802C99.8322 256.802 100.334 257.14 100.334 257.889V260.263H99.9049V257.982ZM102.69 261.45C102.584 261.45 102.505 261.443 102.366 261.423V261.052C102.466 261.065 102.518 261.072 102.624 261.072C102.941 261.072 103.199 260.866 103.384 260.243L102.023 256.881H102.499L103.595 259.699H103.608L104.652 256.881H105.114L103.767 260.362C103.436 261.204 103.139 261.45 102.69 261.45ZM106.903 260.356C105.892 260.356 105.285 259.626 105.285 258.579C105.285 257.524 105.892 256.795 106.903 256.795C107.913 256.795 108.521 257.524 108.521 258.579C108.521 259.626 107.913 260.356 106.903 260.356ZM105.734 258.579C105.734 259.354 106.117 259.978 106.903 259.978C107.689 259.978 108.072 259.354 108.072 258.579C108.072 257.796 107.689 257.173 106.903 257.173C106.117 257.173 105.734 257.796 105.734 258.579ZM110.203 260.342C109.602 260.342 109.1 260.004 109.1 259.255V256.881H109.53V259.162C109.53 259.593 109.728 259.964 110.309 259.964C110.95 259.964 111.372 259.514 111.372 259.016V256.881H111.802V260.263H111.372V259.785H111.359C111.167 260.064 110.804 260.342 110.203 260.342ZM113.026 258.373V260.263H112.597V256.881H113.026V257.571H113.039C113.211 257.126 113.521 256.802 113.997 256.802C114.116 256.802 114.208 256.808 114.288 256.821V257.246C114.221 257.233 114.149 257.226 114.083 257.226C113.475 257.226 113.026 257.717 113.026 258.373ZM13.4801 265.336C13.4801 264.599 13.7707 264.434 14.2528 264.434C14.3453 264.434 14.4245 264.44 14.5764 264.46V264.825C14.4575 264.818 14.4047 264.812 14.3122 264.812C13.9886 264.812 13.9094 264.911 13.9094 265.329V265.833H14.5764V266.211H13.9094V269.215H13.4801V266.211H13.0045V265.833H13.4801V265.336ZM15.4332 267.325V269.215H15.0039V265.833H15.4332V266.522H15.4464C15.6181 266.078 15.9285 265.753 16.4041 265.753C16.523 265.753 16.6154 265.76 16.6947 265.773V266.198C16.6286 266.184 16.556 266.178 16.4899 266.178C15.8823 266.178 15.4332 266.668 15.4332 267.325ZM17.1517 269.215V265.833H17.581V269.215H17.1517ZM17.0856 265.156V264.6H17.6404V265.156H17.0856ZM19.7973 269.307C18.767 269.307 18.1924 268.552 18.1924 267.524C18.1924 266.443 18.8264 265.747 19.7973 265.747C20.7682 265.747 21.3164 266.43 21.3164 267.371C21.3164 267.464 21.3164 267.557 21.3098 267.61H18.6415C18.6481 268.293 19.0114 268.936 19.8039 268.936C20.4974 268.936 20.7682 268.459 20.8342 268.18H21.2701C21.105 268.797 20.6427 269.307 19.7973 269.307ZM18.6415 267.232H20.8607C20.8607 266.629 20.471 266.118 19.7775 266.118C19.1236 266.118 18.6745 266.602 18.6415 267.232ZM24.1901 266.934C24.1901 266.503 23.992 266.131 23.4108 266.131C22.7701 266.131 22.3474 266.582 22.3474 267.079V269.215H21.9181V265.833H22.3474V266.317H22.3606C22.5522 266.038 22.9154 265.753 23.5165 265.753C24.1175 265.753 24.6194 266.091 24.6194 266.841V269.215H24.1901V266.934ZM26.6893 269.301C25.8703 269.301 25.2098 268.638 25.2098 267.524C25.2098 266.416 25.8703 265.753 26.6893 265.753C27.2771 265.753 27.6271 266.045 27.8253 266.403H27.8385V264.474H28.2678V269.215H27.8385V268.664H27.8253C27.6337 268.996 27.2771 269.301 26.6893 269.301ZM25.6589 267.524C25.6589 268.286 26.042 268.923 26.7421 268.923C27.3894 268.923 27.8385 268.379 27.8385 267.524C27.8385 266.675 27.3894 266.131 26.7421 266.131C26.042 266.131 25.6589 266.768 25.6589 267.524ZM30.3062 269.301C29.3618 269.301 28.8466 268.784 28.8268 268.107H29.2759C29.3023 268.571 29.6061 268.923 30.3128 268.923C30.9535 268.923 31.1714 268.624 31.1714 268.293C31.1714 267.796 30.6695 267.743 30.2006 267.63C29.5797 267.471 28.9523 267.318 28.9523 266.662C28.9523 266.111 29.3882 265.753 30.1477 265.753C31.0261 265.753 31.4356 266.224 31.4951 266.781H31.046C30.9865 266.483 30.8082 266.131 30.1543 266.131C29.6722 266.131 29.4014 266.317 29.4014 266.635C29.4014 267.06 29.8571 267.119 30.3657 267.245C30.9997 267.398 31.6272 267.577 31.6272 268.28C31.6272 268.896 31.1384 269.301 30.3062 269.301ZM34.5492 269.301C33.8756 269.301 33.4462 268.923 33.4462 268.359C33.4462 267.63 33.9614 267.398 34.8332 267.245C35.388 267.146 35.7447 267.106 35.7447 266.701C35.7447 266.357 35.5201 266.125 34.9785 266.125C34.3247 266.125 34.0935 266.357 34.0605 266.854H33.6048C33.6378 266.257 34.0142 265.747 34.9917 265.747C35.6126 265.747 36.1608 266.012 36.1608 266.821V268.512C36.1608 268.784 36.2004 268.91 36.3523 268.91C36.3787 268.91 36.4051 268.91 36.4448 268.903V269.215C36.3721 269.228 36.2995 269.241 36.2202 269.241C35.9362 269.241 35.7711 269.128 35.7447 268.704H35.7315C35.5003 269.089 35.0974 269.301 34.5492 269.301ZM33.8954 268.319C33.8954 268.711 34.1133 268.923 34.6021 268.923C35.2889 268.923 35.7447 268.558 35.7447 267.948V267.318C35.6456 267.457 35.2889 267.537 34.8861 267.603C34.2322 267.723 33.8954 267.888 33.8954 268.319ZM39.2894 266.934C39.2894 266.503 39.0912 266.131 38.51 266.131C37.8694 266.131 37.4467 266.582 37.4467 267.079V269.215H37.0174V265.833H37.4467V266.317H37.4599C37.6514 266.038 38.0147 265.753 38.6157 265.753C39.2167 265.753 39.7187 266.091 39.7187 266.841V269.215H39.2894V266.934ZM41.7883 269.301C40.9693 269.301 40.3088 268.638 40.3088 267.524C40.3088 266.416 40.9693 265.753 41.7883 265.753C42.3761 265.753 42.7261 266.045 42.9243 266.403H42.9375V264.474H43.3668V269.215H42.9375V268.664H42.9243C42.7327 268.996 42.3761 269.301 41.7883 269.301ZM40.7579 267.524C40.7579 268.286 41.141 268.923 41.8411 268.923C42.4883 268.923 42.9375 268.379 42.9375 267.524C42.9375 266.675 42.4883 266.131 41.8411 266.131C41.141 266.131 40.7579 266.768 40.7579 267.524ZM47.035 269.301C46.0707 269.301 45.4235 268.585 45.4235 267.524C45.4235 266.469 46.0707 265.753 47.035 265.753C47.854 265.753 48.4088 266.304 48.4814 267.02H48.0323C48.0059 266.642 47.7351 266.131 47.035 266.131C46.2094 266.131 45.8726 266.834 45.8726 267.524C45.8726 268.22 46.2094 268.929 47.035 268.929C47.7417 268.929 48.0059 268.419 48.0323 268.008H48.4814C48.4352 268.737 47.854 269.301 47.035 269.301ZM50.4922 269.307C49.4817 269.307 48.8741 268.578 48.8741 267.53C48.8741 266.476 49.4817 265.747 50.4922 265.747C51.5027 265.747 52.1103 266.476 52.1103 267.53C52.1103 268.578 51.5027 269.307 50.4922 269.307ZM49.3232 267.53C49.3232 268.306 49.7062 268.929 50.4922 268.929C51.2781 268.929 51.6612 268.306 51.6612 267.53C51.6612 266.748 51.2781 266.125 50.4922 266.125C49.7062 266.125 49.3232 266.748 49.3232 267.53ZM54.7505 266.934C54.7505 266.509 54.6515 266.131 54.0901 266.131C53.5023 266.131 53.1456 266.589 53.1456 267.079V269.215H52.7163V265.833H53.1456V266.31H53.1588C53.3371 266.038 53.6542 265.753 54.1825 265.753C54.6581 265.753 54.9619 265.972 55.0874 266.377H55.1006C55.3185 266.038 55.6818 265.753 56.2168 265.753C56.8574 265.753 57.2075 266.138 57.2075 266.841V269.215H56.7782V266.934C56.7782 266.509 56.6791 266.131 56.1243 266.131C55.5299 266.131 55.1798 266.589 55.1798 267.079V269.215H54.7505V266.934ZM60.0072 266.934C60.0072 266.509 59.9081 266.131 59.3467 266.131C58.7589 266.131 58.4023 266.589 58.4023 267.079V269.215H57.973V265.833H58.4023V266.31H58.4155C58.5938 266.038 58.9108 265.753 59.4392 265.753C59.9147 265.753 60.2185 265.972 60.344 266.377H60.3572C60.5752 266.038 60.9384 265.753 61.4734 265.753C62.1141 265.753 62.4641 266.138 62.4641 266.841V269.215H62.0348V266.934C62.0348 266.509 61.9357 266.131 61.3809 266.131C60.7865 266.131 60.4365 266.589 60.4365 267.079V269.215H60.0072V266.934ZM64.3061 269.294C63.7051 269.294 63.2032 268.956 63.2032 268.207V265.833H63.6325V268.114C63.6325 268.545 63.8306 268.916 64.4118 268.916C65.0525 268.916 65.4752 268.465 65.4752 267.968V265.833H65.9045V269.215H65.4752V268.737H65.462C65.2704 269.016 64.9072 269.294 64.3061 269.294ZM68.9713 266.934C68.9713 266.503 68.7732 266.131 68.192 266.131C67.5513 266.131 67.1286 266.582 67.1286 267.079V269.215H66.6993V265.833H67.1286V266.317H67.1419C67.3334 266.038 67.6966 265.753 68.2977 265.753C68.8987 265.753 69.4006 266.091 69.4006 266.841V269.215H68.9713V266.934ZM70.1694 269.215V265.833H70.5987V269.215H70.1694ZM70.1034 265.156V264.6H70.6582V265.156H70.1034ZM72.3661 269.241C71.8774 269.241 71.5736 269.075 71.5736 268.339V266.211H71.0782V265.833H71.5736V264.706H72.0029V265.833H72.6832V266.211H72.0029V268.346C72.0029 268.764 72.0953 268.863 72.4256 268.863C72.5313 268.863 72.5841 268.857 72.6832 268.85V269.215C72.5511 269.234 72.4718 269.241 72.3661 269.241ZM73.5368 270.402C73.4311 270.402 73.3519 270.395 73.2132 270.375V270.004C73.3123 270.017 73.3651 270.024 73.4708 270.024C73.7878 270.024 74.0454 269.818 74.2303 269.195L72.8697 265.833H73.3453L74.4417 268.651H74.4549L75.4984 265.833H75.9607L74.6134 269.314C74.2831 270.156 73.9859 270.402 73.5368 270.402ZM76.426 269.215V268.658H76.9808V269.215H76.426ZM76.459 265.906V264.474H76.9544V265.906L76.8421 267.995H76.5713L76.459 265.906Z" fill="black"/>
<mask id="mask1_504_383" style="mask-type:alpha" maskUnits="userSpaceOnUse" x="-12" y="32" width="165" height="165">
<path d="M70.505 196.275C115.645 196.275 152.238 159.536 152.238 114.217C152.238 68.8982 115.645 32.1599 70.505 32.1599C25.3654 32.1599 -11.2275 68.8982 -11.2275 114.217C-11.2275 159.536 25.3654 196.275 70.505 196.275Z" fill="url(#paint1_linear_504_383)"/>
</mask>
<g mask="url(#mask1_504_383)">
<path d="M53.853 83.9764C53.0159 81.0339 51.0559 78.5417 48.3992 77.0418C45.7422 75.5419 42.603 75.1553 39.6639 75.9663C39.479 76.011 39.296 76.0631 39.1151 76.1218C30.7187 78.9316 30.0518 90.3706 37.5825 94.5497L54.3213 103.849C54.9983 104.224 55.7961 104.315 56.5398 104.1C57.2831 103.885 57.9109 103.382 58.2851 102.702C58.6595 102.022 58.7494 101.221 58.5354 100.475C58.3211 99.7284 57.8204 99.0982 57.1434 98.7225L40.4049 89.4237C37.0977 87.5876 37.633 82.81 40.9436 81.6874L40.9604 81.6804C41.039 81.6592 41.1176 81.639 41.1962 81.6198C44.2241 80.7743 47.3732 82.5325 48.2453 85.5927C48.351 85.9627 48.5283 86.3078 48.7671 86.6092C49.0055 86.9102 49.3011 87.1612 49.6363 87.3475C49.9715 87.5342 50.34 87.6526 50.7211 87.696C51.1018 87.7394 51.4872 87.7073 51.8558 87.6012C52.2243 87.4951 52.5681 87.317 52.8683 87.0777C53.1681 86.8379 53.4181 86.5415 53.6037 86.2047C53.7896 85.8682 53.9075 85.4982 53.9508 85.1159C53.994 84.7336 53.9587 84.3464 53.853 83.9764ZM94.0661 85.5927C94.2728 84.8613 94.6222 84.178 95.0935 83.5825C95.565 82.9874 96.1492 82.4917 96.8123 82.1247C97.4757 81.7574 98.2049 81.5256 98.9578 81.443C99.7111 81.3605 100.473 81.4285 101.199 81.6433L101.351 81.6804L101.374 81.6874C104.678 82.81 105.214 87.5876 101.907 89.4237L85.168 98.7225C84.8328 98.9088 84.5376 99.1598 84.2988 99.4609C84.06 99.7619 83.883 100.107 83.777 100.477C83.6714 100.847 83.6393 101.234 83.6826 101.617C83.7262 101.999 83.8441 102.369 84.0297 102.706C84.2156 103.042 84.4656 103.339 84.7654 103.578C85.0653 103.818 85.4094 103.996 85.7776 104.102C86.1461 104.208 86.5315 104.24 86.9126 104.197C87.2934 104.153 87.6619 104.035 87.9971 103.849L104.736 94.5497C112.263 90.3706 111.596 78.9316 103.2 76.1218C103.018 76.0631 102.833 76.011 102.648 75.9663C99.7081 75.1553 96.5683 75.5425 93.9115 77.0431C91.2545 78.5437 89.2949 81.0366 88.4584 83.9797C88.3531 84.3497 88.321 84.7369 88.3646 85.1192C88.4082 85.5015 88.5264 85.8712 88.7124 86.2077C89.0878 86.887 89.7166 87.389 90.4606 87.6028C91.205 87.8167 92.0031 87.7252 92.6798 87.3482C93.3564 86.9712 93.8564 86.3396 94.0694 85.5927M76.782 117.753V103.483H65.533V117.753C65.533 120.255 64.4214 122.655 62.5018 124.245L56.0355 129.655H86.2795L79.8129 124.245C78.8665 123.45 78.1046 122.457 77.5812 121.336C77.0575 120.214 76.7847 118.991 76.782 117.753Z" fill="url(#paint2_linear_504_383)"/>
<path d="M71.1549 114.479C64.929 114.479 58.9584 111.996 54.5561 107.576C50.1538 103.156 47.6807 97.1616 47.6807 90.911V67.7151C47.6807 66.3965 48.7582 65.3144 50.0719 65.3144H92.272C93.5853 65.3144 94.6632 66.3965 94.6632 67.7151V90.911C94.6632 103.929 84.1552 114.479 71.1549 114.479Z" fill="url(#paint3_linear_504_383)"/>
<path d="M95.1847 129.665H46.0296C43.4362 129.665 41.2372 131.389 40.7386 133.79L35.3029 157.764C35.0569 158.879 35.9426 159.928 37.1519 159.928H104.1C105.309 159.928 106.194 158.879 105.949 157.764L100.513 133.79C99.9806 131.389 97.778 129.665 95.1847 129.665Z" fill="url(#paint4_linear_504_383)"/>
<path d="M80.3352 139.571H60.9155C60.6385 139.576 60.3647 139.636 60.1107 139.748C59.8568 139.86 59.6273 140.02 59.4354 140.222C59.2436 140.423 59.093 140.66 58.9929 140.92C58.8925 141.179 58.8443 141.456 58.8512 141.735V147.855C58.8512 149.038 59.7538 150.019 60.9155 150.019H80.3352C81.4636 150.019 82.3998 149.072 82.3998 147.855V141.735C82.3998 140.551 81.4969 139.571 80.3352 139.571Z" fill="url(#paint5_linear_504_383)"/>
</g>
<path d="M89.167 70.0074C93.1053 66.7699 93.4653 63.6958 90.1917 59.6821C93.4653 63.6958 96.5262 63.9577 100.476 60.7109C96.5262 63.9577 96.2175 67.0702 99.4514 71.0362C96.2175 67.0702 93.1053 66.7699 89.167 70.0074Z" fill="white"/>
<path fill-rule="evenodd" clip-rule="evenodd" d="M89.9813 59.4238C90.1233 59.3071 90.3327 59.3283 90.4489 59.4706C92.0615 61.4482 93.5723 62.4382 95.1122 62.5871C96.653 62.7363 98.3194 62.053 100.266 60.4526C100.408 60.3359 100.617 60.3571 100.733 60.4993C100.85 60.6419 100.829 60.8521 100.687 60.9688C98.7421 62.5675 97.7547 64.0847 97.6005 65.637C97.4462 67.1896 98.1163 68.8722 99.7087 70.8247C99.8249 70.9672 99.8041 71.1774 99.6621 71.2941C99.5201 71.4108 99.3107 71.3899 99.1945 71.2474C97.6024 69.2952 96.0887 68.3059 94.5409 68.1524C92.9927 67.9989 91.3165 68.6716 89.3777 70.2653C89.2357 70.382 89.0263 70.3612 88.9101 70.2186C88.7938 70.076 88.815 69.8658 88.9566 69.7491C90.8971 68.1541 91.8934 66.6488 92.0535 65.1015C92.2134 63.5549 91.5473 61.8703 89.9348 59.8933C89.8185 59.7507 89.8397 59.5405 89.9813 59.4238ZM92.1156 62.0424C92.6136 63.1172 92.8194 64.1526 92.7143 65.1702C92.6097 66.182 92.2008 67.1455 91.509 68.0868C92.5684 67.5951 93.5947 67.3882 94.6059 67.4886C95.6224 67.5894 96.5936 67.9976 97.542 68.6961C97.0463 67.6259 96.8383 66.5905 96.9393 65.571C97.0401 64.5565 97.4443 63.587 98.1341 62.6405C97.0777 63.1365 96.0563 63.3486 95.0484 63.2512C94.0349 63.153 93.066 62.7449 92.1156 62.0424Z" fill="white"/>
<path d="M53.1637 113.615C53.2951 108.506 51.212 106.224 46.0469 106.09C51.212 106.224 53.4094 104.069 53.5415 98.9453C53.4094 104.069 55.5549 106.337 60.6583 106.47C55.5549 106.337 53.2951 108.506 53.1637 113.615Z" fill="white"/>
<path fill-rule="evenodd" clip-rule="evenodd" d="M45.714 106.081C45.7189 105.897 45.8715 105.752 46.0548 105.757C48.5996 105.823 50.3329 105.322 51.4514 104.248C52.5703 103.175 53.1439 101.461 53.2089 98.9367C53.2136 98.7524 53.3661 98.6071 53.5494 98.6118C53.733 98.6164 53.8777 98.7696 53.873 98.9539C53.808 101.477 54.307 103.218 55.3769 104.349C56.4469 105.481 58.1535 106.071 60.6662 106.136C60.8495 106.141 60.9945 106.294 60.9899 106.478C60.9849 106.662 60.8324 106.808 60.6491 106.803C58.137 106.738 56.402 107.242 55.2749 108.318C54.1475 109.395 53.5596 111.109 53.4949 113.623C53.4903 113.807 53.3377 113.953 53.1544 113.948C52.9708 113.943 52.8262 113.79 52.8308 113.606C52.8955 111.089 52.4114 109.348 51.3491 108.216C50.287 107.084 48.5817 106.49 46.0376 106.424C45.8543 106.419 45.7094 106.266 45.714 106.081ZM49.0827 106.17C50.2187 106.494 51.1341 107.014 51.8325 107.758C52.5273 108.499 52.9867 109.439 53.2446 110.58C53.5662 109.454 54.0807 108.538 54.8168 107.835C55.5569 107.129 56.4994 106.657 57.6456 106.392C56.5146 106.07 55.5978 105.552 54.8951 104.809C54.1957 104.069 53.7291 103.129 53.4662 101.986C53.1498 103.113 52.6426 104.028 51.9105 104.73C51.1744 105.437 50.2335 105.907 49.0827 106.17Z" fill="white"/>
<path d="M83.4512 286.786V281.097H84.4498L87.0811 285.474H87.0969V281.097H87.9767V286.786H86.9781L84.3388 282.41H84.323V286.786H83.4512ZM90.6727 286.906C89.3888 286.906 88.6754 285.991 88.6754 284.749C88.6754 283.476 89.4363 282.601 90.6727 282.601C91.9012 282.601 92.5907 283.413 92.5907 284.67C92.5907 284.781 92.5907 284.901 92.5828 284.964H89.4759C89.4918 285.641 89.8881 286.269 90.6885 286.269C91.4019 286.269 91.6792 285.808 91.7506 285.537H92.5431C92.3291 286.317 91.7347 286.906 90.6727 286.906ZM89.4759 284.352H91.7823C91.7823 283.715 91.3384 283.238 90.6489 283.238C89.999 283.238 89.5235 283.683 89.4759 284.352ZM92.554 286.786L94.0758 284.71L92.6888 282.728H93.5764L94.5434 284.177H94.5592L95.5103 282.728H96.3979L95.011 284.71L96.5485 286.786H95.6371L94.5434 285.235H94.5275L93.4576 286.786H92.554ZM98.2469 286.834C97.5812 286.834 97.177 286.58 97.177 285.641V283.373H96.5905V282.728H97.177V281.423H97.9537V282.728H98.7304V283.373H97.9537V285.665C97.9537 286.094 98.0726 286.19 98.4054 286.19C98.5402 286.19 98.6036 286.182 98.7383 286.158V286.786C98.5402 286.826 98.4133 286.834 98.2469 286.834Z" fill="#827900"/>
<path d="M129.025 284.037C129.154 283.908 129.154 283.697 129.025 283.568L126.923 281.458C126.794 281.329 126.585 281.329 126.456 281.458C126.327 281.588 126.327 281.798 126.456 281.927L128.324 283.803L126.456 285.678C126.327 285.807 126.327 286.018 126.456 286.147C126.585 286.277 126.794 286.277 126.923 286.147L129.025 284.037ZM103.363 284.134H128.791V283.471H103.363V284.134Z" fill="#827900"/>
<path opacity="0.2" d="M21.1354 294.744C21.8649 294.744 22.4563 294.15 22.4563 293.417C22.4563 292.685 21.8649 292.091 21.1354 292.091C20.4059 292.091 19.8145 292.685 19.8145 293.417C19.8145 294.15 20.4059 294.744 21.1354 294.744Z" fill="#827900"/>
<path opacity="0.2" d="M38.6373 294.744C39.3669 294.744 39.9583 294.15 39.9583 293.417C39.9583 292.685 39.3669 292.091 38.6373 292.091C37.9078 292.091 37.3164 292.685 37.3164 293.417C37.3164 294.15 37.9078 294.744 38.6373 294.744Z" fill="#827900"/>
<path opacity="0.2" d="M56.1403 294.744C56.8698 294.744 57.4612 294.15 57.4612 293.417C57.4612 292.685 56.8698 292.091 56.1403 292.091C55.4107 292.091 54.8193 292.685 54.8193 293.417C54.8193 294.15 55.4107 294.744 56.1403 294.744Z" fill="#827900"/>
<path opacity="0.2" d="M73.6422 294.744C74.3717 294.744 74.9631 294.15 74.9631 293.417C74.9631 292.685 74.3717 292.091 73.6422 292.091C72.9127 292.091 72.3213 292.685 72.3213 293.417C72.3213 294.15 72.9127 294.744 73.6422 294.744Z" fill="#827900"/>
<path d="M91.1442 294.744C91.8737 294.744 92.4651 294.15 92.4651 293.417C92.4651 292.685 91.8737 292.091 91.1442 292.091C90.4146 292.091 89.8232 292.685 89.8232 293.417C89.8232 294.15 90.4146 294.744 91.1442 294.744Z" fill="#827900"/>
<path opacity="0.2" d="M108.647 294.744C109.377 294.744 109.968 294.15 109.968 293.417C109.968 292.685 109.377 292.091 108.647 292.091C107.918 292.091 107.326 292.685 107.326 293.417C107.326 294.15 107.918 294.744 108.647 294.744Z" fill="#827900"/>
<path opacity="0.2" d="M12.8799 283.803H77.6055" stroke="#827900" stroke-width="2"/>
</g>
</g>
<defs>
<linearGradient id="paint0_linear_504_383" x1="70.505" y1="32.1599" x2="70.505" y2="196.275" gradientUnits="userSpaceOnUse">
<stop stop-color="#AE46B7"/>
<stop offset="1" stop-color="#F440CD"/>
</linearGradient>
<linearGradient id="paint1_linear_504_383" x1="70.505" y1="32.1599" x2="70.505" y2="196.275" gradientUnits="userSpaceOnUse">
<stop stop-color="#AE46B7"/>
<stop offset="1" stop-color="#F440CD"/>
</linearGradient>
<linearGradient id="paint2_linear_504_383" x1="71.1579" y1="75.5512" x2="71.1579" y2="129.655" gradientUnits="userSpaceOnUse">
<stop stop-color="#FF9839"/>
<stop offset="1" stop-color="#D3883E"/>
</linearGradient>
<linearGradient id="paint3_linear_504_383" x1="71.1718" y1="65.3144" x2="71.1718" y2="114.479" gradientUnits="userSpaceOnUse">
<stop stop-color="#FB9C00"/>
<stop offset="1" stop-color="#FCFF60"/>
</linearGradient>
<linearGradient id="paint4_linear_504_383" x1="70.6256" y1="129.665" x2="70.6256" y2="159.928" gradientUnits="userSpaceOnUse">
<stop stop-color="#66280E"/>
<stop offset="1" stop-color="#933710"/>
</linearGradient>
<linearGradient id="paint5_linear_504_383" x1="70.625" y1="139.571" x2="70.625" y2="150.019" gradientUnits="userSpaceOnUse">
<stop stop-color="#FB9C00"/>
<stop offset="1" stop-color="#FCFF60"/>
</linearGradient>
<clipPath id="clip0_504_383">
<rect width="142" height="309" fill="white"/>
</clipPath>
</defs>
</svg>
