<svg width="162" height="162" viewBox="0 0 162 162" fill="none" xmlns="http://www.w3.org/2000/svg">
<g clip-path="url(#clip0_507_555)">
<path d="M139 0.5H23C10.2975 0.5 0 10.7975 0 23.5V138.5C0 151.203 10.2975 161.5 23 161.5H139C151.703 161.5 162 151.203 162 138.5V23.5C162 10.7975 151.703 0.5 139 0.5Z" fill="#EEEEEE"/>
<mask id="mask0_507_555" style="mask-type:alpha" maskUnits="userSpaceOnUse" x="0" y="0" width="162" height="162">
<path d="M139 0.5H23C10.2975 0.5 0 10.7975 0 23.5V138.5C0 151.203 10.2975 161.5 23 161.5H139C151.703 161.5 162 151.203 162 138.5V23.5C162 10.7975 151.703 0.5 139 0.5Z" fill="#D05FCC"/>
</mask>
<g mask="url(#mask0_507_555)">
<path d="M27.9996 34.499C11.2949 29.7263 -5.31091 40.8742 -10.9057 59.6773C-10.9688 59.8895 -10.9948 60.1128 -10.9839 60.3339L-5.5946 169.099C-5.54184 170.164 -4.66316 171 -3.59706 171H177C178.105 171 179 170.104 179 169V35.8084C179 35.0131 178.52 34.2851 177.782 33.9888C150.774 23.1451 126.512 44.5758 93.9996 49.5014C56.6341 55.1623 48.9996 40.499 27.9996 34.499Z" fill="#B881FF"/>
</g>
<path d="M26.1597 28.836C21.8157 28.836 18.7677 26.58 18.5757 22.716H21.3117C21.5037 25.02 22.8717 26.58 26.0877 26.58C28.8477 26.58 29.6877 25.38 29.6877 23.82C29.6877 21.636 28.0077 21.324 24.8877 20.532C22.1997 19.812 19.2477 18.948 19.2477 15.684C19.2477 12.708 21.5517 11.004 25.2477 11.004C29.1597 11.004 31.7037 12.996 31.9677 16.452H29.2317C28.9437 14.388 27.7677 13.26 25.2717 13.26C23.1117 13.26 22.0077 14.052 22.0077 15.54C22.0077 17.46 23.8077 17.868 26.0157 18.42C29.3277 19.26 32.4477 20.052 32.4477 23.676C32.4477 26.628 30.4557 28.836 26.1597 28.836ZM38.3517 28.644C36.3357 28.644 35.1117 27.876 35.1117 25.044V18.204H33.3357V16.26H35.1117V12.324H37.4637V16.26H39.8157V18.204H37.4637V25.116C37.4637 26.412 37.8237 26.7 38.8317 26.7C39.2397 26.7 39.4317 26.676 39.8397 26.604V28.5C39.2397 28.62 38.8557 28.644 38.3517 28.644ZM46.987 28.86C43.171 28.86 40.867 26.22 40.867 22.38C40.867 18.564 43.171 15.876 47.011 15.876C50.803 15.876 53.107 18.54 53.107 22.356C53.107 26.196 50.803 28.86 46.987 28.86ZM43.315 22.38C43.315 24.924 44.467 26.916 47.011 26.916C49.507 26.916 50.659 24.924 50.659 22.38C50.659 19.812 49.507 17.844 47.011 17.844C44.467 17.844 43.315 19.812 43.315 22.38ZM60.4848 28.86C56.8368 28.86 54.4608 26.22 54.4608 22.38C54.4608 18.54 56.8368 15.9 60.4608 15.9C63.6048 15.9 65.6928 17.94 65.9808 20.7H63.5568C63.4368 19.428 62.7168 17.844 60.4848 17.844C57.8688 17.844 56.9088 20.076 56.9088 22.38C56.9088 24.684 57.8688 26.892 60.4848 26.892C62.7408 26.892 63.4368 25.356 63.5568 23.964H65.9808C65.8128 26.772 63.6288 28.86 60.4848 28.86ZM67.8588 28.5V11.34H70.2108V21.444L75.5628 16.26H78.2748L73.5708 20.748L78.7788 28.5H75.9948L71.9868 22.236L70.2108 23.94V28.5H67.8588ZM18.0957 52.5L24.4797 35.34H27.3357L33.7677 52.5H30.8877L29.4717 48.372H22.2957L20.8797 52.5H18.0957ZM23.0877 46.14H28.7277L25.9197 37.788H25.8717L23.0877 46.14ZM43.3235 44.652C43.3235 43.02 42.6035 41.916 40.8275 41.916C38.8115 41.916 37.5155 43.14 37.5155 44.988V52.5H35.1635V40.26H37.5155V41.796H37.5635C38.2115 40.86 39.4835 39.9 41.5955 39.9C43.8515 39.9 45.6755 41.196 45.6755 44.004V52.5H43.3235V44.652ZM51.6021 52.836C49.1541 52.836 47.5941 51.42 47.5941 49.332C47.5941 46.596 49.6581 45.78 52.7061 45.204C54.6261 44.844 55.8021 44.604 55.8021 43.404C55.8021 42.516 55.2741 41.772 53.4741 41.772C51.3381 41.772 50.6901 42.444 50.5701 44.076H48.1701C48.2901 41.724 49.8261 39.876 53.5701 39.876C56.0901 39.876 58.1061 40.932 58.1061 44.1V49.716C58.1061 50.604 58.2261 51.06 58.6821 51.06C58.7541 51.06 58.8261 51.06 58.9701 51.036V52.476C58.5621 52.572 58.1541 52.62 57.7701 52.62C56.5941 52.62 55.9701 52.164 55.8261 50.772H55.7781C54.9861 52.044 53.5941 52.836 51.6021 52.836ZM50.0421 49.164C50.0421 50.316 50.6661 50.94 52.1301 50.94C54.2421 50.94 55.8021 49.86 55.8021 47.724V45.972C55.4181 46.332 54.3621 46.596 53.1141 46.86C50.9541 47.292 50.0421 47.892 50.0421 49.164ZM60.9681 52.5V35.34H63.3201V52.5H60.9681ZM67.5443 56.796C67.0163 56.796 66.6563 56.748 66.0323 56.628V54.708C66.4403 54.756 66.6563 54.78 67.0403 54.78C67.9763 54.78 69.0803 54.3 69.5603 52.38L64.6163 40.26H67.1843L70.7603 49.62H70.8083L74.1683 40.26H76.6403L71.7923 52.788C70.6163 55.812 69.4403 56.796 67.5443 56.796ZM82.5734 52.836C78.8534 52.836 77.0054 50.916 76.9334 48.42H79.3094C79.4054 49.836 80.2694 50.94 82.5494 50.94C84.6134 50.94 85.1654 50.028 85.1654 49.14C85.1654 47.604 83.5334 47.436 81.9494 47.1C79.8134 46.596 77.3654 45.972 77.3654 43.428C77.3654 41.316 79.0694 39.9 82.0214 39.9C85.3814 39.9 86.9894 41.7 87.1574 43.812H84.7814C84.6134 42.876 84.1094 41.796 82.0694 41.796C80.4854 41.796 79.8134 42.42 79.8134 43.332C79.8134 44.604 81.1814 44.724 82.9094 45.108C85.1654 45.636 87.6134 46.284 87.6134 49.02C87.6134 51.396 85.7894 52.836 82.5734 52.836ZM89.4681 52.5V40.26H91.8201V52.5H89.4681ZM89.3241 38.076V35.532H91.9881V38.076H89.3241ZM99.2843 52.836C95.5643 52.836 93.7163 50.916 93.6443 48.42H96.0203C96.1163 49.836 96.9803 50.94 99.2603 50.94C101.325 50.94 101.877 50.028 101.877 49.14C101.877 47.604 100.245 47.436 98.6603 47.1C96.5243 46.596 94.0763 45.972 94.0763 43.428C94.0763 41.316 95.7803 39.9 98.7323 39.9C102.093 39.9 103.701 41.7 103.869 43.812H101.493C101.325 42.876 100.821 41.796 98.7803 41.796C97.1963 41.796 96.5243 42.42 96.5243 43.332C96.5243 44.604 97.8923 44.724 99.6203 45.108C101.877 45.636 104.325 46.284 104.325 49.02C104.325 51.396 102.501 52.836 99.2843 52.836Z" fill="black"/>
<path d="M20.0599 141.76C18.3811 141.76 17.2979 140.47 17.2979 138.692C17.2979 136.906 18.3895 135.616 20.0682 135.616C21.5485 135.616 22.4664 136.559 22.607 137.741H21.656C21.5485 137.162 21.1846 136.402 20.0517 136.402C18.7451 136.402 18.2488 137.51 18.2488 138.684C18.2488 139.867 18.7451 140.975 20.0517 140.975C21.1929 140.975 21.5981 140.214 21.656 139.494H22.607C22.4747 140.809 21.5484 141.76 20.0599 141.76ZM25.1632 141.769C23.8483 141.769 23.0543 140.859 23.0543 139.536C23.0543 138.221 23.8483 137.295 25.1715 137.295C26.4781 137.295 27.2719 138.213 27.2719 139.527C27.2719 140.851 26.4781 141.769 25.1632 141.769ZM23.8979 139.536C23.8979 140.412 24.2949 141.099 25.1715 141.099C26.0315 141.099 26.4285 140.412 26.4285 139.536C26.4285 138.651 26.0315 137.973 25.1715 137.973C24.2949 137.973 23.8979 138.651 23.8979 139.536ZM30.4922 138.94C30.4922 138.378 30.3764 137.998 29.7562 137.998C29.1525 137.998 28.7721 138.419 28.7721 139.056V141.645H27.9617V137.427H28.7721V137.956H28.7887C29.0119 137.634 29.4006 137.303 30.0374 137.303C30.6245 137.303 30.9884 137.568 31.1538 138.039H31.1702C31.4762 137.634 31.9063 137.303 32.5514 137.303C33.4031 137.303 33.8332 137.816 33.8332 138.717V141.645H33.0226V138.94C33.0226 138.378 32.9069 137.998 32.2866 137.998C31.683 137.998 31.3026 138.419 31.3026 139.056V141.645H30.4922V138.94ZM36.8464 141.76C36.1848 141.76 35.7797 141.463 35.5481 141.124H35.5315V143.108H34.7212V137.427H35.5315V137.923H35.5481C35.7797 137.625 36.1848 137.303 36.8464 137.303C37.9214 137.303 38.7402 138.146 38.7402 139.536C38.7402 140.925 37.9214 141.76 36.8464 141.76ZM35.5399 139.536C35.5399 140.487 35.9864 141.09 36.7142 141.09C37.5081 141.09 37.8885 140.363 37.8885 139.536C37.8885 138.709 37.5081 137.981 36.7142 137.981C35.9864 137.981 35.5399 138.576 35.5399 139.536ZM39.4375 141.645V135.732H40.2479V141.645H39.4375ZM43.0266 141.769C41.6869 141.769 40.9426 140.818 40.9426 139.527C40.9426 138.204 41.7365 137.295 43.0266 137.295C44.3084 137.295 45.0278 138.138 45.0278 139.445C45.0278 139.561 45.0278 139.685 45.0196 139.751H41.7778C41.7943 140.454 42.2079 141.107 43.0431 141.107C43.7874 141.107 44.0768 140.627 44.1512 140.346H44.9782C44.7549 141.157 44.1347 141.769 43.0266 141.769ZM41.7778 139.114H44.1843C44.1843 138.452 43.7211 137.956 43.0017 137.956C42.3236 137.956 41.8274 138.419 41.7778 139.114ZM47.0371 141.694C46.3424 141.694 45.9207 141.43 45.9207 140.454V138.097H45.3086V137.427H45.9207V136.071H46.7311V137.427H47.5416V138.097H46.7311V140.479C46.7311 140.925 46.8552 141.024 47.2025 141.024C47.3431 141.024 47.4091 141.016 47.5497 140.991V141.645C47.343 141.686 47.2108 141.694 47.0371 141.694ZM49.9959 141.769C48.6562 141.769 47.9121 140.818 47.9121 139.527C47.9121 138.204 48.7059 137.295 49.9959 137.295C51.2777 137.295 51.9973 138.138 51.9973 139.445C51.9973 139.561 51.9973 139.685 51.989 139.751H48.7473C48.7638 140.454 49.1773 141.107 50.0126 141.107C50.7568 141.107 51.0463 140.627 51.1207 140.346H51.9476C51.7243 141.157 51.1041 141.769 49.9959 141.769ZM48.7473 139.114H51.1537C51.1537 138.452 50.6907 137.956 49.9712 137.956C49.2931 137.956 48.7969 138.419 48.7473 139.114ZM54.3605 141.76C53.2854 141.76 52.4668 140.925 52.4668 139.536C52.4668 138.146 53.2854 137.303 54.3605 137.303C55.0221 137.303 55.4274 137.609 55.6589 137.94H55.6755V135.732H56.4858V141.645H55.6755V141.148H55.6589C55.4274 141.446 55.0221 141.76 54.3605 141.76ZM53.3103 139.536C53.3103 140.363 53.699 141.09 54.4929 141.09C55.2206 141.09 55.6672 140.487 55.6672 139.536C55.6672 138.576 55.2206 137.981 54.4929 137.981C53.699 137.981 53.3103 138.709 53.3103 139.536Z" fill="black"/>
<path d="M26.1813 129.924C21.6361 129.924 18.1514 127.833 18.1514 123.591C18.1514 120.713 20.0604 119.258 22.0603 118.379V118.319C20.5755 117.531 19.1816 116.198 19.1816 113.834C19.1816 110.228 22.1209 108.137 26.1813 108.137C30.272 108.137 33.2113 110.228 33.2113 113.834C33.2113 116.198 31.7871 117.531 30.3326 118.319V118.379C32.3022 119.258 34.2415 120.713 34.2415 123.591C34.2415 127.833 30.7568 129.924 26.1813 129.924ZM21.5451 123.409C21.5451 125.803 23.2723 127.197 26.1813 127.197C29.0903 127.197 30.8174 125.803 30.8174 123.409C30.8174 121.076 29.0903 119.682 26.1813 119.682C23.2723 119.682 21.5451 121.076 21.5451 123.409ZM22.4542 113.955C22.4542 116.076 23.8481 117.076 26.1813 117.076C28.5448 117.076 29.9387 116.076 29.9387 113.955C29.9387 111.864 28.5448 110.804 26.1813 110.804C23.8481 110.804 22.4542 111.864 22.4542 113.955ZM40.1934 113.955C39.2844 114.804 37.6784 114.955 35.7997 114.955V112.289C39.4965 112.198 40.5874 111.077 40.8601 108.562H43.466V129.5H40.1934V113.955ZM51.2784 129.5L62.9142 108.562H65.5202L53.8843 129.5H51.2784ZM46.3695 114.137C46.3695 110.804 48.0967 108.137 51.6117 108.137C55.0358 108.137 56.8236 110.804 56.8236 114.137C56.8236 117.501 55.0964 120.167 51.6117 120.167C48.1573 120.167 46.3695 117.501 46.3695 114.137ZM49.127 114.137C49.127 116.44 49.9148 117.894 51.6117 117.894C53.2783 117.894 54.0661 116.44 54.0661 114.137C54.0661 111.834 53.2783 110.38 51.6117 110.38C49.9148 110.38 49.127 111.834 49.127 114.137ZM60.0053 123.924C60.0053 120.561 61.7325 117.894 65.2171 117.894C68.6715 117.894 70.429 120.561 70.429 123.924C70.429 127.258 68.7018 129.924 65.2171 129.924C61.7628 129.924 60.0053 127.258 60.0053 123.924ZM62.7324 123.924C62.7324 126.227 63.5506 127.682 65.2171 127.682C66.8837 127.682 67.7019 126.227 67.7019 123.924C67.7019 121.622 66.8837 120.167 65.2171 120.167C63.5506 120.167 62.7324 121.622 62.7324 123.924Z" fill="black"/>
</g>
<defs>
<clipPath id="clip0_507_555">
<rect width="162" height="161" fill="white" transform="translate(0 0.5)"/>
</clipPath>
</defs>
</svg>
