<svg width="168" height="134" viewBox="0 0 168 134" fill="none" xmlns="http://www.w3.org/2000/svg">
<g clip-path="url(#clip0_507_786)">
<mask id="mask0_507_786" style="mask-type:luminance" maskUnits="userSpaceOnUse" x="0" y="0" width="168" height="134">
<path d="M168 0H0V134H168V0Z" fill="white"/>
</mask>
<g mask="url(#mask0_507_786)">
<path d="M168 0H0V134H168V0Z" fill="#1C1C1C"/>
<path d="M12.4395 29.6047V18.464H16.6902C19.7846 18.464 21.6599 20.4584 21.6599 24.0421C21.6599 27.6258 19.8158 29.6047 16.7215 29.6047H12.4395ZM14.1585 28.1245H16.6121C19.2063 28.1245 19.8783 26.1924 19.8783 24.0421C19.8783 21.8919 19.2063 19.9442 16.6121 19.9442H14.1585V28.1245ZM23.0099 29.6047V21.6582H24.5414V29.6047H23.0099ZM22.9161 20.2403V18.5886H24.6508V20.2403H22.9161ZM29.4018 29.8228C26.9795 29.8228 25.7762 28.5763 25.7293 26.9558H27.2764C27.3389 27.8752 27.9015 28.5919 29.3862 28.5919C30.7302 28.5919 31.0896 27.9998 31.0896 27.4233C31.0896 26.4261 30.0269 26.317 28.9955 26.0989C27.6046 25.7717 26.0106 25.3665 26.0106 23.7149C26.0106 22.3438 27.1202 21.4245 29.0424 21.4245C31.2303 21.4245 32.2774 22.5931 32.3868 23.9642H30.8396C30.7302 23.3565 30.402 22.6554 29.0736 22.6554C28.0422 22.6554 27.6046 23.0605 27.6046 23.6526C27.6046 24.4784 28.4954 24.5563 29.6206 24.8056C31.0896 25.1484 32.6837 25.5691 32.6837 27.3454C32.6837 28.8879 31.496 29.8228 29.4018 29.8228ZM37.3921 29.8384C35.0167 29.8384 33.4695 28.1245 33.4695 25.6314C33.4695 23.1384 35.0167 21.4245 37.3765 21.4245C39.4238 21.4245 40.7834 22.7489 40.9709 24.5407H39.3925C39.3144 23.7149 38.8455 22.6865 37.3921 22.6865C35.6887 22.6865 35.0635 24.1356 35.0635 25.6314C35.0635 27.1272 35.6887 28.5607 37.3921 28.5607C38.8611 28.5607 39.3144 27.5635 39.3925 26.6598H40.9709C40.8615 28.4828 39.4394 29.8384 37.3921 29.8384ZM45.757 29.8384C43.2721 29.8384 41.7719 28.1245 41.7719 25.6314C41.7719 23.154 43.2721 21.4089 45.7726 21.4089C48.2418 21.4089 49.7421 23.1384 49.7421 25.6159C49.7421 28.1089 48.2418 29.8384 45.757 29.8384ZM43.3659 25.6314C43.3659 27.2831 44.116 28.5763 45.7726 28.5763C47.3979 28.5763 48.148 27.2831 48.148 25.6314C48.148 23.9642 47.3979 22.6865 45.7726 22.6865C44.116 22.6865 43.3659 23.9642 43.3659 25.6314ZM52.8802 29.6047L50.0359 21.6582H51.6768L53.771 28.031H53.7866L55.8495 21.6582H57.4435L54.5992 29.6047H52.8802ZM61.6892 29.8384C59.1575 29.8384 57.751 28.0465 57.751 25.6159C57.751 23.1228 59.2513 21.4089 61.6892 21.4089C64.1116 21.4089 65.4712 22.9982 65.4712 25.46C65.4712 25.6782 65.4712 25.9119 65.4556 26.0365H59.3294C59.3607 27.361 60.1421 28.5919 61.7205 28.5919C63.127 28.5919 63.674 27.6882 63.8146 27.1584H65.3774C64.9555 28.6854 63.7834 29.8384 61.6892 29.8384ZM59.3294 24.8368H63.8771C63.8771 23.5903 63.002 22.6554 61.6424 22.6554C60.3609 22.6554 59.4232 23.5279 59.3294 24.8368ZM68.2967 25.4912V29.6047H66.7652V21.6582H68.2967V23.1696H68.328C68.7499 22.1724 69.3907 21.4712 70.469 21.4712C70.7503 21.4712 70.9691 21.4868 71.2035 21.5179V22.9826C71.016 22.9514 70.8753 22.9358 70.6878 22.9358C69.2969 22.9358 68.2967 23.9798 68.2967 25.4912Z" fill="#FFF239"/>
<path d="M155.888 28.8256L153.544 26.4884M148.855 24.5407C148.855 24.8988 148.926 25.2534 149.064 25.5842C149.201 25.915 149.402 26.2156 149.656 26.4688C149.91 26.722 150.212 26.9229 150.544 27.0599C150.875 27.1969 151.231 27.2675 151.59 27.2675C151.949 27.2675 152.305 27.1969 152.637 27.0599C152.969 26.9229 153.27 26.722 153.524 26.4688C153.778 26.2156 153.979 25.915 154.117 25.5842C154.255 25.2534 154.325 24.8988 154.325 24.5407C154.325 24.1826 154.255 23.8281 154.117 23.4972C153.979 23.1664 153.778 22.8658 153.524 22.6126C153.27 22.3594 152.969 22.1585 152.637 22.0215C152.305 21.8845 151.949 21.814 151.59 21.814C151.231 21.814 150.875 21.8845 150.544 22.0215C150.212 22.1585 149.91 22.3594 149.656 22.6126C149.402 22.8658 149.201 23.1664 149.064 23.4972C148.926 23.8281 148.855 24.1826 148.855 24.5407Z" stroke="#FFF239" stroke-width="2.5" stroke-linecap="round" stroke-linejoin="round"/>
<path d="M122.903 109.849H122.292V105.886H123.949C124.827 105.886 125.299 106.296 125.299 107.028C125.299 107.532 124.994 107.898 124.555 107.998V108.009C125.477 108.181 125.138 109.744 125.355 109.81V109.849H124.699C124.521 109.683 124.899 108.297 123.926 108.297H122.903V109.849ZM122.903 107.771H123.815C124.376 107.771 124.682 107.527 124.682 107.072C124.682 106.646 124.438 106.413 123.826 106.413H122.903V107.771ZM128.393 108.375C128.393 108.452 128.393 108.535 128.387 108.58H126.208C126.219 109.051 126.497 109.489 127.058 109.489C127.559 109.489 127.754 109.167 127.804 108.979H128.359C128.209 109.522 127.792 109.932 127.048 109.932C126.147 109.932 125.647 109.295 125.647 108.43C125.647 107.543 126.18 106.934 127.048 106.934C127.909 106.934 128.393 107.499 128.393 108.375ZM126.208 108.153H127.826C127.826 107.71 127.514 107.377 127.031 107.377C126.575 107.377 126.242 107.687 126.208 108.153ZM129.854 109.433C129.949 109.433 129.993 109.428 130.088 109.411V109.849C129.949 109.877 129.86 109.882 129.743 109.882C129.276 109.882 128.993 109.705 128.993 109.051V107.471H128.581V107.022H128.993V106.114H129.537V107.022H130.082V107.471H129.537V109.067C129.537 109.367 129.621 109.433 129.854 109.433ZM132.403 108.757V107.022H132.948V109.849H132.403V109.494H132.392C132.242 109.71 131.947 109.926 131.458 109.926C130.936 109.926 130.513 109.627 130.513 108.979V107.022H131.058V108.829C131.058 109.212 131.225 109.466 131.636 109.466C132.103 109.466 132.403 109.184 132.403 108.757ZM134.876 106.956C134.976 106.956 135.055 106.962 135.138 106.973V107.493C135.071 107.482 135.021 107.477 134.955 107.477C134.459 107.477 134.104 107.848 134.104 108.386V109.849H133.559V107.022H134.104V107.56H134.115C134.265 107.205 134.493 106.956 134.876 106.956ZM136.981 106.939C137.504 106.939 137.926 107.239 137.926 107.887V109.849H137.382V108.037C137.382 107.66 137.215 107.405 136.803 107.405C136.336 107.405 136.036 107.687 136.036 108.114V109.849H135.492V107.022H136.036V107.377H136.047C136.198 107.161 136.492 106.939 136.981 106.939Z" fill="white"/>
<path d="M125.01 121.594H124.119V119.78H122.357V118.892H124.119V117.078H125.01V118.892H126.772V119.78H125.01V121.594ZM130.197 122.587C128.492 122.587 127.535 121.709 127.535 120.2H128.588C128.588 121.107 128.971 121.699 130.13 121.699C131.174 121.699 131.528 121.279 131.528 120.573C131.528 119.666 130.877 119.446 130.207 119.446H129.584V118.596H130.168C130.829 118.596 131.298 118.3 131.298 117.584C131.298 117.069 130.982 116.61 130.168 116.61C129.048 116.61 128.77 117.202 128.77 117.842H127.717C127.717 116.62 128.55 115.722 130.178 115.722C131.356 115.722 132.371 116.372 132.371 117.536C132.371 118.243 132.007 118.682 131.375 118.95V118.969C132.246 119.246 132.601 119.818 132.601 120.592C132.601 121.871 131.653 122.587 130.197 122.587ZM135.718 122.587C134.483 122.587 133.669 121.766 133.545 120.783H134.617C134.694 121.327 135.019 121.728 135.728 121.728C136.954 121.728 137.279 120.582 137.279 119.446V119.35L137.25 119.341C136.906 119.895 136.293 120.21 135.546 120.21C134.263 120.21 133.372 119.312 133.372 118.014C133.372 116.734 134.263 115.722 135.738 115.722C137.634 115.722 138.314 117.126 138.314 119.14C138.314 121.308 137.365 122.587 135.718 122.587ZM135.699 119.341C136.6 119.341 137.164 118.768 137.164 117.938C137.164 117.136 136.666 116.582 135.757 116.582C134.895 116.582 134.426 117.126 134.426 117.957C134.426 118.825 134.933 119.341 135.699 119.341ZM139.944 122.453H138.9V121.413H139.944V122.453ZM143.279 122.587C141.842 122.587 140.741 121.928 140.741 120.592C140.741 119.685 141.344 119.227 141.976 118.95V118.93C141.507 118.682 141.067 118.262 141.067 117.517C141.067 116.381 141.995 115.722 143.279 115.722C144.572 115.722 145.5 116.381 145.5 117.517C145.5 118.262 145.05 118.682 144.591 118.93V118.95C145.213 119.227 145.826 119.685 145.826 120.592C145.826 121.928 144.725 122.587 143.279 122.587ZM143.279 118.539C144.026 118.539 144.466 118.224 144.466 117.555C144.466 116.897 144.026 116.563 143.279 116.563C142.541 116.563 142.101 116.897 142.101 117.555C142.101 118.224 142.541 118.539 143.279 118.539ZM143.279 121.728C144.198 121.728 144.744 121.289 144.744 120.535C144.744 119.799 144.198 119.36 143.279 119.36C142.36 119.36 141.814 119.799 141.814 120.535C141.814 121.289 142.36 121.728 143.279 121.728ZM148.052 119.513C146.96 119.513 146.395 118.673 146.395 117.613C146.395 116.563 146.941 115.722 148.052 115.722C149.134 115.722 149.699 116.563 149.699 117.613C149.699 118.673 149.153 119.513 148.052 119.513ZM148.77 122.453H147.947L151.624 115.856H152.447L148.77 122.453ZM148.052 118.797C148.579 118.797 148.828 118.338 148.828 117.613C148.828 116.887 148.579 116.429 148.052 116.429C147.516 116.429 147.267 116.887 147.267 117.613C147.267 118.338 147.516 118.797 148.052 118.797ZM152.352 122.587C151.26 122.587 150.704 121.747 150.704 120.697C150.704 119.637 151.25 118.797 152.352 118.797C153.443 118.797 153.999 119.637 153.999 120.697C153.999 121.747 153.453 122.587 152.352 122.587ZM152.352 121.881C152.878 121.881 153.137 121.422 153.137 120.697C153.137 119.971 152.878 119.513 152.352 119.513C151.825 119.513 151.566 119.971 151.566 120.697C151.566 121.422 151.825 121.881 152.352 121.881Z" fill="#14AE5C"/>
<path d="M13.3868 109.926C12.2585 109.926 11.5303 109.062 11.5303 107.87C11.5303 106.673 12.264 105.809 13.3924 105.809C14.3874 105.809 15.0044 106.44 15.0989 107.233H14.4596C14.3874 106.845 14.1428 106.335 13.3813 106.335C12.503 106.335 12.1695 107.078 12.1695 107.865C12.1695 108.657 12.503 109.4 13.3813 109.4C14.1484 109.4 14.4207 108.89 14.4596 108.408H15.0989C15.0099 109.289 14.3874 109.926 13.3868 109.926ZM17.4228 108.757V107.022H17.9675V109.849H17.4228V109.494H17.4117C17.2616 109.71 16.967 109.926 16.4778 109.926C15.9553 109.926 15.5329 109.627 15.5329 108.979V107.022H16.0776V108.829C16.0776 109.212 16.2444 109.466 16.6557 109.466C17.1226 109.466 17.4228 109.184 17.4228 108.757ZM19.896 106.956C19.9961 106.956 20.0739 106.962 20.1573 106.973V107.493C20.0906 107.482 20.0406 107.477 19.9739 107.477C19.4792 107.477 19.1234 107.848 19.1234 108.386V109.849H18.5787V107.022H19.1234V107.56H19.1345C19.2846 107.205 19.5125 106.956 19.896 106.956ZM21.8286 106.956C21.9286 106.956 22.0064 106.962 22.0898 106.973V107.493C22.0231 107.482 21.9731 107.477 21.9063 107.477C21.4116 107.477 21.0559 107.848 21.0559 108.386V109.849H20.5112V107.022H21.0559V107.56H21.067C21.2171 107.205 21.445 106.956 21.8286 106.956ZM24.9256 108.375C24.9256 108.452 24.9256 108.535 24.9201 108.58H22.7411C22.7522 109.051 23.0301 109.489 23.5916 109.489C24.0918 109.489 24.2864 109.167 24.3364 108.979H24.8923C24.7422 109.522 24.3253 109.932 23.5804 109.932C22.68 109.932 22.1797 109.295 22.1797 108.43C22.1797 107.543 22.7133 106.934 23.5804 106.934C24.442 106.934 24.9256 107.499 24.9256 108.375ZM22.7411 108.153H24.3586C24.3586 107.71 24.0474 107.377 23.5638 107.377C23.108 107.377 22.7744 107.687 22.7411 108.153ZM26.8755 106.939C27.398 106.939 27.8204 107.239 27.8204 107.887V109.849H27.2757V108.037C27.2757 107.66 27.1089 107.405 26.6976 107.405C26.2307 107.405 25.9305 107.687 25.9305 108.114V109.849H25.3858V107.022H25.9305V107.377H25.9416C26.0917 107.161 26.3863 106.939 26.8755 106.939ZM29.4272 109.433C29.5217 109.433 29.5662 109.428 29.6607 109.411V109.849C29.5217 109.877 29.4328 109.882 29.316 109.882C28.8491 109.882 28.5656 109.705 28.5656 109.051V107.471H28.1543V107.022H28.5656V106.114H29.1104V107.022H29.6551V107.471H29.1104V109.067C29.1104 109.367 29.1938 109.433 29.4272 109.433ZM31.9704 109.849H31.359V105.886H31.9704V109.849ZM34.1114 106.939C34.6339 106.939 35.0564 107.239 35.0564 107.887V109.849H34.5116V108.037C34.5116 107.66 34.3449 107.405 33.9335 107.405C33.4666 107.405 33.1664 107.687 33.1664 108.114V109.849H32.6217V107.022H33.1664V107.377H33.1775C33.3276 107.161 33.6222 106.939 34.1114 106.939ZM36.9418 109.849H36.3304L35.3188 107.022H35.9024L36.6472 109.289H36.6528L37.3865 107.022H37.9535L36.9418 109.849ZM40.8087 108.375C40.8087 108.452 40.8087 108.535 40.8032 108.58H38.6243C38.6354 109.051 38.9134 109.489 39.4748 109.489C39.9749 109.489 40.1695 109.167 40.2195 108.979H40.7755C40.6254 109.522 40.2086 109.932 39.4635 109.932C38.5632 109.932 38.0629 109.295 38.0629 108.43C38.0629 107.543 38.5965 106.934 39.4635 106.934C40.3254 106.934 40.8087 107.499 40.8087 108.375ZM38.6243 108.153H40.2418C40.2418 107.71 39.9304 107.377 39.4471 107.377C38.9912 107.377 38.6577 107.687 38.6243 108.153ZM42.3863 109.926C41.5248 109.926 41.0966 109.483 41.0798 108.907H41.6303C41.6526 109.234 41.8526 109.489 42.3809 109.489C42.8587 109.489 42.9864 109.278 42.9864 109.073C42.9864 108.718 42.6086 108.679 42.2418 108.602C41.7471 108.485 41.1802 108.341 41.1802 107.754C41.1802 107.266 41.5748 106.939 42.2586 106.939C43.0364 106.939 43.4092 107.355 43.4479 107.843H42.8977C42.8587 107.627 42.7419 107.377 42.2695 107.377C41.9026 107.377 41.7471 107.521 41.7471 107.732C41.7471 108.025 42.064 108.053 42.4641 108.142C42.9864 108.264 43.5537 108.413 43.5537 109.045C43.5537 109.594 43.131 109.926 42.3863 109.926ZM44.9954 109.433C45.09 109.433 45.1345 109.428 45.229 109.411V109.849C45.09 109.877 45.0013 109.882 44.8844 109.882C44.4176 109.882 44.1339 109.705 44.1339 109.051V107.471H43.7225V107.022H44.1339V106.114H44.6789V107.022H45.2236V107.471H44.6789V109.067C44.6789 109.367 44.7622 109.433 44.9954 109.433ZM48.2187 108.375C48.2187 108.452 48.2187 108.535 48.2128 108.58H46.0339C46.0452 109.051 46.323 109.489 46.8844 109.489C47.3845 109.489 47.5791 109.167 47.6291 108.979H48.1851C48.035 109.522 47.6182 109.932 46.8735 109.932C45.9729 109.932 45.4724 109.295 45.4724 108.43C45.4724 107.543 46.0061 106.934 46.8735 106.934C47.735 106.934 48.2187 107.499 48.2187 108.375ZM46.0339 108.153H47.6514C47.6514 107.71 47.3404 107.377 46.8567 107.377C46.4007 107.377 46.0675 107.687 46.0339 108.153ZM50.691 107.366V105.886H51.2356V109.849H50.691V109.516H50.6797C50.5242 109.716 50.2519 109.926 49.8068 109.926C49.0844 109.926 48.534 109.367 48.534 108.436C48.534 107.505 49.0844 106.939 49.8068 106.939C50.2519 106.939 50.5242 107.144 50.6797 107.366H50.691ZM49.8959 109.478C50.3851 109.478 50.6851 109.073 50.6851 108.436C50.6851 107.793 50.3851 107.394 49.8959 107.394C49.3622 107.394 49.1012 107.881 49.1012 108.436C49.1012 108.99 49.3622 109.478 49.8959 109.478Z" fill="white"/>
<path d="M24.8593 122.453V117.555C24.572 117.823 24.0644 117.871 23.4707 117.871V117.03C24.639 117.002 24.9838 116.649 25.07 115.856H25.8935V122.453H24.8593ZM29.5788 122.587C27.8742 122.587 26.9165 121.709 26.9165 120.2H27.9699C27.9699 121.107 28.353 121.699 29.5117 121.699C30.5556 121.699 30.9099 121.279 30.9099 120.573C30.9099 119.666 30.2587 119.446 29.5883 119.446H28.9659V118.596H29.55C30.2108 118.596 30.6801 118.3 30.6801 117.584C30.6801 117.069 30.364 116.61 29.55 116.61C28.4296 116.61 28.1519 117.202 28.1519 117.842H27.0984C27.0984 116.62 27.9316 115.722 29.5596 115.722C30.7375 115.722 31.7526 116.372 31.7526 117.536C31.7526 118.243 31.3887 118.682 30.7567 118.95V118.969C31.6281 119.246 31.9824 119.818 31.9824 120.592C31.9824 121.871 31.0344 122.587 29.5788 122.587ZM32.821 123.752V123.236C33.1753 123.132 33.3286 122.95 33.319 122.453H32.821V121.413H33.8648V122.453C33.8648 123.074 33.5871 123.561 32.821 123.752ZM37.122 122.587C35.5419 122.587 34.68 121.632 34.6417 120.525H35.6951C35.7622 121.126 36.1069 121.699 37.0646 121.699C37.9073 121.699 38.4627 121.184 38.4627 120.2C38.4627 119.274 37.9552 118.854 37.1316 118.854C36.5953 118.854 36.1069 119.035 35.7909 119.446H34.7279L35.4366 115.856H39.2V116.744H36.2314L35.8675 118.567V118.587C36.2123 118.233 36.7007 118.014 37.4093 118.014C38.6638 118.014 39.5352 118.94 39.5352 120.2C39.5352 121.661 38.4819 122.587 37.122 122.587ZM42.878 122.587C40.982 122.587 40.3018 121.184 40.3018 119.169C40.3018 117.002 41.25 115.722 42.8874 115.722C44.1326 115.722 44.9464 116.543 45.0612 117.527H43.9985C43.9122 116.983 43.5961 116.582 42.8874 116.582C41.652 116.582 41.3363 117.727 41.3363 118.863V118.959L41.3649 118.969C41.7098 118.415 42.3131 118.1 43.0695 118.1C44.3529 118.1 45.2433 118.997 45.2433 120.296C45.2433 121.575 44.3431 122.587 42.878 122.587ZM42.8491 121.728C43.7208 121.728 44.19 121.184 44.19 120.353C44.19 119.484 43.6825 118.969 42.9163 118.969C42.0064 118.969 41.4512 119.541 41.4512 120.372C41.4512 121.174 41.9489 121.728 42.8491 121.728ZM50.0473 122.453H49.0131V120.945H45.8622V119.99L49.0131 115.856H50.0473V120.057H50.976V120.945H50.0473V122.453ZM49.0131 117.183L46.8198 120.057H49.0131V117.183Z" fill="white"/>
<path d="M18.0063 118.54L19.1341 115.318H18.0863L17.0358 118.54H14.5669L13.5084 115.318H12.4046L13.5617 118.54H11.3301V119.337H13.847L14.1296 120.121H12.1033V120.919H14.4176L15.2574 123.26H16.3506L17.1718 120.919H18.8355V120.121H17.4517L17.7263 119.337H20.2113V118.54H18.0063ZM15.8147 122.296H15.804L15.3507 120.921H16.2626L15.8147 122.296ZM16.5212 120.121H15.0868L14.8282 119.337H16.7772L16.5212 120.121Z" fill="white"/>
<path d="M68.8664 109.926C67.738 109.926 67.0098 109.062 67.0098 107.87C67.0098 106.673 67.7435 105.809 68.8718 105.809C69.8669 105.809 70.4839 106.44 70.5784 107.233H69.9392C69.8669 106.845 69.6224 106.335 68.8609 106.335C67.9826 106.335 67.6489 107.078 67.6489 107.865C67.6489 108.657 67.9826 109.4 68.8609 109.4C69.6278 109.4 69.9001 108.89 69.9392 108.408H70.5784C70.4893 109.289 69.8669 109.926 68.8664 109.926ZM72.9023 108.757V107.022H73.4473V109.849H72.9023V109.494H72.8913C72.7413 109.71 72.4467 109.926 71.9576 109.926C71.4348 109.926 71.0125 109.627 71.0125 108.979V107.022H71.5571V108.829C71.5571 109.212 71.7239 109.466 72.1353 109.466C72.6022 109.466 72.9023 109.184 72.9023 108.757ZM75.3758 106.956C75.4758 106.956 75.5535 106.962 75.6368 106.973V107.493C75.5703 107.482 75.5203 107.477 75.4535 107.477C74.9589 107.477 74.603 107.848 74.603 108.386V109.849H74.0583V107.022H74.603V107.56H74.6139C74.7643 107.205 74.9921 106.956 75.3758 106.956ZM77.3082 106.956C77.4082 106.956 77.4859 106.962 77.5695 106.973V107.493C77.5027 107.482 77.4527 107.477 77.3859 107.477C76.8913 107.477 76.5354 107.848 76.5354 108.386V109.849H75.9907V107.022H76.5354V107.56H76.5467C76.6967 107.205 76.9245 106.956 77.3082 106.956ZM80.4052 108.375C80.4052 108.452 80.4052 108.535 80.3998 108.58H78.2208C78.2318 109.051 78.5096 109.489 79.071 109.489C79.5715 109.489 79.766 109.167 79.8161 108.979H80.372C80.2216 109.522 79.8047 109.932 79.0601 109.932C78.1595 109.932 77.6594 109.295 77.6594 108.43C77.6594 107.543 78.1927 106.934 79.0601 106.934C79.9215 106.934 80.4052 107.499 80.4052 108.375ZM78.2208 108.153H79.8383C79.8383 107.71 79.5269 107.377 79.0433 107.377C78.5877 107.377 78.254 107.687 78.2208 108.153ZM82.3552 106.939C82.8776 106.939 83.2999 107.239 83.2999 107.887V109.849H82.7553V108.037C82.7553 107.66 82.5884 107.405 82.177 107.405C81.7102 107.405 81.4101 107.687 81.4101 108.114V109.849H80.8655V107.022H81.4101V107.377H81.421C81.5715 107.161 81.866 106.939 82.3552 106.939ZM84.9068 109.433C85.0014 109.433 85.0459 109.428 85.1401 109.411V109.849C85.0014 109.877 84.9123 109.882 84.7955 109.882C84.3286 109.882 84.0454 109.705 84.0454 109.051V107.471H83.634V107.022H84.0454V106.114H84.59V107.022H85.1346V107.471H84.59V109.067C84.59 109.367 84.6732 109.433 84.9068 109.433ZM88.3766 109.849H87.7152L86.3145 105.886H86.9873L88.0434 109.206H88.0488L89.0994 105.886H89.7441L88.3766 109.849ZM90.5188 109.926C89.9519 109.926 89.5905 109.6 89.5905 109.117C89.5905 108.485 90.0687 108.297 90.7747 108.164C91.2194 108.081 91.4917 108.025 91.4917 107.748C91.4917 107.543 91.3694 107.371 90.9525 107.371C90.4579 107.371 90.3079 107.527 90.2801 107.904H89.7241C89.7519 107.361 90.1074 106.934 90.9748 106.934C91.5585 106.934 92.0254 107.177 92.0254 107.909V109.206C92.0254 109.411 92.0531 109.516 92.1586 109.516C92.1754 109.516 92.1922 109.516 92.2254 109.511V109.843C92.1308 109.866 92.0363 109.877 91.9476 109.877C91.6753 109.877 91.5307 109.771 91.4971 109.45H91.4862C91.3026 109.744 90.9802 109.926 90.5188 109.926ZM90.6411 109.489C91.1303 109.489 91.4917 109.239 91.4917 108.746V108.341C91.4026 108.425 91.158 108.485 90.8693 108.547C90.3688 108.646 90.1578 108.785 90.1578 109.078C90.1578 109.344 90.302 109.489 90.6411 109.489ZM93.233 109.849H92.6884V105.886H93.233V109.849ZM95.712 108.757V107.022H96.257V109.849H95.712V109.494H95.701C95.551 109.71 95.2564 109.926 94.7673 109.926C94.2445 109.926 93.8222 109.627 93.8222 108.979V107.022H94.3668V108.829C94.3668 109.212 94.5336 109.466 94.945 109.466C95.4119 109.466 95.712 109.184 95.712 108.757ZM99.4693 108.375C99.4693 108.452 99.4693 108.535 99.4638 108.58H97.2849C97.2959 109.051 97.574 109.489 98.1355 109.489C98.6356 109.489 98.8301 109.167 98.8802 108.979H99.4361C99.2861 109.522 98.8692 109.932 98.1241 109.932C97.2236 109.932 96.7235 109.295 96.7235 108.43C96.7235 107.543 97.2572 106.934 98.1241 106.934C98.9856 106.934 99.4693 107.499 99.4693 108.375ZM97.2849 108.153H98.9024C98.9024 107.71 98.591 107.377 98.1077 107.377C97.6518 107.377 97.3181 107.687 97.2849 108.153Z" fill="white"/>
<path d="M80.3378 122.453V117.555C80.0502 117.823 79.5427 117.871 78.9492 117.871V117.03C80.1174 117.002 80.462 116.649 80.5483 115.856H81.3719V122.453H80.3378ZM84.9902 122.587C83.5536 122.587 82.4522 121.928 82.4522 120.592C82.4522 119.685 83.0554 119.227 83.6876 118.95V118.93C83.2184 118.682 82.7781 118.262 82.7781 117.517C82.7781 116.381 83.7067 115.722 84.9902 115.722C86.283 115.722 87.2117 116.381 87.2117 117.517C87.2117 118.262 86.7616 118.682 86.3021 118.93V118.95C86.9245 119.227 87.5375 119.685 87.5375 120.592C87.5375 121.928 86.4362 122.587 84.9902 122.587ZM84.9902 118.539C85.7372 118.539 86.1775 118.224 86.1775 117.555C86.1775 116.897 85.7372 116.563 84.9902 116.563C84.2525 116.563 83.8122 116.897 83.8122 117.555C83.8122 118.224 84.2525 118.539 84.9902 118.539ZM84.9902 121.728C85.9095 121.728 86.4553 121.289 86.4553 120.535C86.4553 119.799 85.9095 119.36 84.9902 119.36C84.0709 119.36 83.5247 119.799 83.5247 120.535C83.5247 121.289 84.0709 121.728 84.9902 121.728ZM88.3553 123.752V123.236C88.7096 123.132 88.8632 122.95 88.8534 122.453H88.3553V121.413H89.3992V122.453C89.3992 123.074 89.1214 123.561 88.3553 123.752ZM92.374 122.587C91.1386 122.587 90.3248 121.766 90.2001 120.783H91.273C91.3496 121.327 91.675 121.728 92.3837 121.728C93.6094 121.728 93.9352 120.582 93.9352 119.446V119.35L93.9063 119.341C93.5617 119.895 92.9487 120.21 92.2017 120.21C90.9186 120.21 90.0278 119.312 90.0278 118.014C90.0278 116.734 90.9186 115.722 92.3931 115.722C94.2896 115.722 94.9694 117.126 94.9694 119.14C94.9694 121.308 94.0212 122.587 92.374 122.587ZM92.3548 119.341C93.255 119.341 93.8203 118.768 93.8203 117.938C93.8203 117.136 93.3222 116.582 92.4123 116.582C91.5504 116.582 91.0812 117.126 91.0812 117.957C91.0812 118.825 91.5887 119.341 92.3548 119.341ZM98.3939 122.587C96.4974 122.587 95.8176 121.184 95.8176 119.169C95.8176 117.002 96.7658 115.722 98.4032 115.722C99.6484 115.722 100.462 116.543 100.577 117.527H99.514C99.428 116.983 99.112 116.582 98.4032 116.582C97.1678 116.582 96.8518 117.727 96.8518 118.863V118.959L96.8807 118.969C97.2253 118.415 97.8289 118.1 98.5853 118.1C99.8683 118.1 100.759 118.997 100.759 120.296C100.759 121.575 99.859 122.587 98.3939 122.587ZM98.3649 121.728C99.2366 121.728 99.7058 121.184 99.7058 120.353C99.7058 119.484 99.1983 118.969 98.4321 118.969C97.5222 118.969 96.967 119.541 96.967 120.372C96.967 121.174 97.4648 121.728 98.3649 121.728ZM103.935 122.587C102.355 122.587 101.493 121.632 101.455 120.525H102.508C102.575 121.126 102.92 121.699 103.878 121.699C104.72 121.699 105.276 121.184 105.276 120.2C105.276 119.274 104.768 118.854 103.944 118.854C103.408 118.854 102.92 119.035 102.604 119.446H101.541L102.25 115.856H106.013V116.744H103.044L102.681 118.567V118.587C103.025 118.233 103.514 118.014 104.222 118.014C105.477 118.014 106.348 118.94 106.348 120.2C106.348 121.661 105.295 122.587 103.935 122.587Z" fill="white"/>
<path d="M73.4858 118.54L74.6138 115.318H73.5659L72.5153 118.54H70.0465L68.9877 115.318H67.884L69.0412 118.54H66.8096V119.337H69.3264L69.6089 120.121H67.5828V120.919H69.8969L70.7369 123.26H71.83L72.6513 120.919H74.3149V120.121H72.9314L73.2057 119.337H75.6909V118.54H73.4858ZM71.294 122.296H71.2835L70.8302 120.921H71.7421L71.294 122.296ZM72.0008 120.121H70.5661L70.3075 119.337H72.2567L72.0008 120.121Z" fill="white"/>
<path d="M13.3851 63.1047V60.8765L11.3848 57.5343H12.3146L13.8149 60.1987H13.8305L15.3308 57.5343H16.2529L14.2525 60.8765V63.1047H13.3851ZM17.685 63.2215C16.4425 63.2215 15.6924 62.3645 15.6924 61.118C15.6924 59.8793 16.4425 59.0067 17.6928 59.0067C18.9274 59.0067 19.6775 59.8715 19.6775 61.1102C19.6775 62.3567 18.9274 63.2215 17.685 63.2215ZM16.4894 61.118C16.4894 61.9438 16.8645 62.5905 17.6928 62.5905C18.5054 62.5905 18.8805 61.9438 18.8805 61.118C18.8805 60.2844 18.5054 59.6456 17.6928 59.6456C16.8645 59.6456 16.4894 60.2844 16.4894 61.118ZM21.6264 63.2137C20.8918 63.2137 20.298 62.793 20.298 61.8815V59.1314H21.0638V61.6712C21.0638 62.2087 21.2982 62.5671 21.8764 62.5671C22.5328 62.5671 22.9547 62.1698 22.9547 61.5699V59.1314H23.7205V63.1047H22.9547V62.606H22.9391C22.7281 62.9099 22.314 63.2137 21.6264 63.2137ZM27.3144 63.2137C26.5173 63.2137 26.0094 62.7541 26.0094 62.0763C26.0094 61.1881 26.6814 60.9233 27.6738 60.7363C28.2989 60.6194 28.6818 60.5415 28.6818 60.152C28.6818 59.8637 28.5099 59.6222 27.9239 59.6222C27.2284 59.6222 27.0174 59.8403 26.9784 60.3701H26.197C26.236 59.6066 26.7361 59.0067 27.9551 59.0067C28.7756 59.0067 29.4319 59.3495 29.4319 60.3779V62.2009C29.4319 62.4892 29.471 62.6372 29.6195 62.6372C29.6429 62.6372 29.6664 62.6372 29.7133 62.6294V63.0969C29.5804 63.128 29.4476 63.1436 29.3226 63.1436C28.9397 63.1436 28.7365 62.9956 28.6896 62.5437H28.674C28.4161 62.9566 27.9629 63.2137 27.3144 63.2137ZM26.8065 62.0217C26.8065 62.3957 27.0096 62.5983 27.4863 62.5983C28.1739 62.5983 28.6818 62.2477 28.6818 61.5543V60.9856C28.5568 61.1024 28.213 61.1881 27.8066 61.2738C27.1034 61.4141 26.8065 61.6088 26.8065 62.0217ZM31.1295 61.0479V63.1047H30.3638V59.1314H31.1295V59.8871H31.1452C31.3561 59.3885 31.6765 59.0379 32.2157 59.0379C32.3563 59.0379 32.4657 59.0457 32.5829 59.0613V59.7936C32.4892 59.778 32.4188 59.7702 32.3251 59.7702C31.6296 59.7702 31.1295 60.2922 31.1295 61.0479ZM34.6784 63.2215C33.4125 63.2215 32.7093 62.3256 32.7093 61.1102C32.7093 59.8637 33.4594 59.0067 34.6784 59.0067C35.8896 59.0067 36.5694 59.8014 36.5694 61.0323C36.5694 61.1414 36.5694 61.2583 36.5616 61.3206H33.4985C33.5141 61.9828 33.9048 62.5983 34.694 62.5983C35.3973 62.5983 35.6708 62.1464 35.7411 61.8815H36.5225C36.3115 62.645 35.7255 63.2215 34.6784 63.2215ZM33.4985 60.7207H35.7723C35.7723 60.0974 35.3348 59.63 34.655 59.63C34.0142 59.63 33.5454 60.0663 33.4985 60.7207Z" fill="white"/>
<path d="M20.1678 93.4883L21.4303 87.227H17.7399L16.4774 93.4883H13.8552L15.1177 87.227H12.1719L12.6574 84.6124H15.6357L16.6068 79.8679H13.3049L13.8228 77.2214H17.1248L18.3549 71.1859H20.9771L19.747 77.2214H23.4374L24.6351 71.1859H27.2896L26.0595 77.2214H29.1996L28.6816 79.8679H25.5415L24.5704 84.6124H28.0342L27.581 87.227H24.0524L22.7899 93.4883H20.1678ZM18.2578 84.6124H21.9482L22.887 79.8679H19.229L18.2578 84.6124ZM40.0492 93.9402C34.2868 93.9402 31.0496 90.9708 31.0496 85.8714H34.6105C34.6105 88.9374 35.9054 90.9384 39.8226 90.9384C43.351 90.9384 44.5489 89.5186 44.5489 87.13C44.5489 84.0639 42.3473 83.3215 40.0812 83.3215H37.9772V80.4491H39.9519C42.1855 80.4491 43.7718 79.4483 43.7718 77.0278C43.7718 75.285 42.7036 73.7354 39.9519 73.7354C36.1644 73.7354 35.2256 75.7369 35.2256 77.8992H31.6647C31.6647 73.7678 34.4811 70.7341 39.9844 70.7341C43.966 70.7341 47.3975 72.9287 47.3975 76.8665C47.3975 79.2547 46.1675 80.7393 44.0308 81.643V81.7076C46.9767 82.6437 48.1745 84.5801 48.1745 87.1946C48.1745 91.5196 44.9697 93.9402 40.0492 93.9402ZM55.8826 93.4883L64.8495 70.4111H67.7954L58.8285 93.4883H55.8826ZM75.0838 93.4883C75.0838 89.2927 77.6414 86.3875 81.9144 83.741C85.7022 81.4494 87.612 80.5133 87.612 77.5443C87.612 75.7045 86.8673 73.7354 83.8245 73.7354C80.3282 73.7354 79.2276 75.9947 79.2276 79.0611H75.6668C75.6668 74.3166 78.2563 70.7341 83.9214 70.7341C87.9683 70.7341 91.2376 73.1546 91.2376 77.415C91.2376 81.74 87.7092 83.9669 84.5044 85.9357C82.3032 87.227 80.2313 88.4532 79.5839 90.4223V90.4866H90.9786V93.4883H75.0838ZM102.741 93.9402C96.3308 93.9402 94.0327 89.1957 94.0327 82.3854C94.0327 75.0591 97.2372 70.7341 102.773 70.7341C106.981 70.7341 109.733 73.5095 110.122 76.8342H106.528C106.237 74.9944 105.168 73.6388 102.773 73.6388C98.5968 73.6388 97.5286 77.512 97.5286 81.3528V81.6753L97.6259 81.7076C98.7914 79.8355 100.831 78.7705 103.388 78.7705C107.726 78.7705 110.737 81.8046 110.737 86.1939C110.737 90.5189 107.693 93.9402 102.741 93.9402ZM97.917 86.4522C97.917 89.1633 99.6005 91.0354 102.644 91.0354C105.59 91.0354 107.176 89.1957 107.176 86.3875C107.176 83.4504 105.46 81.7076 102.87 81.7076C99.7947 81.7076 97.917 83.6444 97.917 86.4522Z" fill="#FFF239"/>
<path d="M-5.86035 134H172.493" stroke="#F8FC32" stroke-linecap="round"/>
<path opacity="0.5" d="M12.7287 47.1337H11.8848V41.5634H13.0178L14.6275 45.9417H14.6431L16.2606 41.5634H17.3936V47.1337H16.5497V42.8099H16.5341L14.9947 47.1337H14.2836L12.7443 42.8099H12.7287V47.1337ZM19.4011 47.2428C18.6041 47.2428 18.0962 46.7831 18.0962 46.1053C18.0962 45.2172 18.7682 44.9523 19.7606 44.7653C20.3857 44.6485 20.7686 44.5706 20.7686 44.181C20.7686 43.8928 20.5967 43.6513 20.0106 43.6513C19.3152 43.6513 19.1042 43.8694 19.0651 44.3992H18.2837C18.3228 43.6357 18.8229 43.0358 20.0419 43.0358C20.8623 43.0358 21.5187 43.3786 21.5187 44.407V46.23C21.5187 46.5182 21.5578 46.6663 21.7062 46.6663C21.7297 46.6663 21.7531 46.6663 21.8 46.6585V47.1259C21.6672 47.1571 21.5343 47.1727 21.4093 47.1727C21.0264 47.1727 20.8233 47.0246 20.7764 46.5728H20.7608C20.5029 46.9857 20.0497 47.2428 19.4011 47.2428ZM19.573 46.6273C20.2607 46.6273 20.7686 46.2767 20.7686 45.5834V45.0146C20.6435 45.1315 20.2997 45.2172 19.8934 45.3029C19.1901 45.4431 18.8932 45.6379 18.8932 46.0508C18.8932 46.4248 19.0964 46.6273 19.573 46.6273ZM24.3024 43.067C24.4431 43.067 24.5525 43.0748 24.6697 43.0903V43.8227C24.5759 43.8071 24.5056 43.7993 24.4118 43.7993C23.7164 43.7993 23.2163 44.3213 23.2163 45.077V47.1337H22.4505V43.1604H23.2163V43.9161H23.2319C23.4429 43.4175 23.7633 43.067 24.3024 43.067ZM28.7224 47.1337H27.816L26.5111 45.1003L25.9329 45.6535V47.1337H25.1671V41.5634H25.9329V44.8432L27.6754 43.1604H28.5583L27.0268 44.6173L28.7224 47.1337ZM32.4944 45.0614C32.4944 45.1704 32.4944 45.2873 32.4866 45.3496H29.4235C29.4392 46.0118 29.8299 46.6273 30.6191 46.6273C31.3223 46.6273 31.5958 46.1754 31.6661 45.9106H32.4475C32.2366 46.6741 31.6505 47.2506 30.6034 47.2506C29.3376 47.2506 28.6343 46.3546 28.6343 45.1393C28.6343 43.8928 29.3845 43.0358 30.6034 43.0358C31.8146 43.0358 32.4944 43.8304 32.4944 45.0614ZM29.4235 44.7497H31.6974C31.6974 44.1265 31.2598 43.6591 30.58 43.6591C29.9393 43.6591 29.4704 44.0953 29.4235 44.7497ZM34.5493 46.5494C34.6821 46.5494 34.7446 46.5416 34.8774 46.5182V47.1337C34.6821 47.1727 34.5571 47.1804 34.393 47.1804C33.7366 47.1804 33.3381 46.9311 33.3381 46.0118V43.7915H32.7599V43.1604H33.3381V41.8828H34.1039V43.1604H34.8696V43.7915H34.1039V46.0352C34.1039 46.4559 34.2211 46.5494 34.5493 46.5494Z" fill="#FFF239"/>
<path opacity="0.5" d="M50.736 47.1337H47.0479V41.5634H47.9074V46.3936H50.736V47.1337ZM54.7309 45.0614C54.7309 45.1704 54.7309 45.2873 54.7231 45.3496H51.66C51.6757 46.0118 52.0664 46.6273 52.8556 46.6273C53.5588 46.6273 53.8323 46.1754 53.9026 45.9106H54.684C54.4731 46.6741 53.887 47.2506 52.8399 47.2506C51.5741 47.2506 50.8708 46.3546 50.8708 45.1393C50.8708 43.8928 51.621 43.0358 52.8399 43.0358C54.0511 43.0358 54.7309 43.8304 54.7309 45.0614ZM51.66 44.7497H53.9339C53.9339 44.1265 53.4963 43.6591 52.8165 43.6591C52.1758 43.6591 51.7069 44.0953 51.66 44.7497ZM56.4797 47.2428C55.6827 47.2428 55.1748 46.7831 55.1748 46.1053C55.1748 45.2172 55.8468 44.9523 56.8391 44.7653C57.4642 44.6485 57.8471 44.5706 57.8471 44.181C57.8471 43.8928 57.6752 43.6513 57.0892 43.6513C56.3937 43.6513 56.1828 43.8694 56.1437 44.3992H55.3623C55.4014 43.6357 55.9015 43.0358 57.1204 43.0358C57.9409 43.0358 58.5973 43.3786 58.5973 44.407V46.23C58.5973 46.5182 58.6363 46.6663 58.7848 46.6663C58.8082 46.6663 58.8317 46.6663 58.8786 46.6585V47.1259C58.7457 47.1571 58.6129 47.1727 58.4879 47.1727C58.105 47.1727 57.9018 47.0246 57.8549 46.5728H57.8393C57.5815 46.9857 57.1282 47.2428 56.4797 47.2428ZM56.6516 46.6273C57.3392 46.6273 57.8471 46.2767 57.8471 45.5834V45.0146C57.7221 45.1315 57.3783 45.2172 56.972 45.3029C56.2687 45.4431 55.9718 45.6379 55.9718 46.0508C55.9718 46.4248 56.1749 46.6273 56.6516 46.6273ZM61.381 43.067C61.5216 43.067 61.631 43.0748 61.7482 43.0903V43.8227C61.6545 43.8071 61.5841 43.7993 61.4904 43.7993C60.7949 43.7993 60.2948 44.3213 60.2948 45.077V47.1337H59.5291V43.1604H60.2948V43.9161H60.3105C60.5215 43.4175 60.8418 43.067 61.381 43.067ZM64.3397 43.0436C65.0743 43.0436 65.6681 43.4643 65.6681 44.3758V47.1337H64.9023V44.5861C64.9023 44.0564 64.6679 43.698 64.0897 43.698C63.4333 43.698 63.0114 44.0953 63.0114 44.6952V47.1337H62.2456V43.1604H63.0114V43.6591H63.027C63.238 43.3552 63.6521 43.0436 64.3397 43.0436Z" fill="#FFF239"/>
<path d="M79.1632 47.1337H78.3037V41.5634H80.6323C81.8669 41.5634 82.5311 42.1399 82.5311 43.1682C82.5311 43.8772 82.1013 44.3914 81.484 44.5316V44.5472C82.7811 44.7887 82.3045 46.9857 82.6092 47.0792V47.1337H81.6872C81.4371 46.9 81.9685 44.9523 80.601 44.9523H79.1632V47.1337ZM79.1632 44.2122H80.4447C81.2339 44.2122 81.6637 43.8694 81.6637 43.2306C81.6637 42.6307 81.3199 42.3035 80.4604 42.3035H79.1632V44.2122ZM84.3853 47.2428C83.5883 47.2428 83.0804 46.7831 83.0804 46.1053C83.0804 45.2172 83.7524 44.9523 84.7448 44.7653C85.3699 44.6485 85.7528 44.5706 85.7528 44.181C85.7528 43.8928 85.5808 43.6513 84.9948 43.6513C84.2994 43.6513 84.0884 43.8694 84.0493 44.3992H83.2679C83.307 43.6357 83.8071 43.0358 85.0261 43.0358C85.8465 43.0358 86.5029 43.3786 86.5029 44.407V46.23C86.5029 46.5182 86.542 46.6663 86.6904 46.6663C86.7139 46.6663 86.7373 46.6663 86.7842 46.6585V47.1259C86.6514 47.1571 86.5185 47.1727 86.3935 47.1727C86.0106 47.1727 85.8075 47.0246 85.7606 46.5728H85.7449C85.4871 46.9857 85.0339 47.2428 84.3853 47.2428ZM84.5572 46.6273C85.2448 46.6273 85.7528 46.2767 85.7528 45.5834V45.0146C85.6277 45.1315 85.2839 45.2172 84.8776 45.3029C84.1743 45.4431 83.8774 45.6379 83.8774 46.0508C83.8774 46.4248 84.0806 46.6273 84.5572 46.6273ZM89.5288 43.0436C90.2634 43.0436 90.8572 43.4643 90.8572 44.3758V47.1337H90.0915V44.5861C90.0915 44.0564 89.857 43.698 89.2788 43.698C88.6224 43.698 88.2005 44.0953 88.2005 44.6952V47.1337H87.4347V43.1604H88.2005V43.6591H88.2161C88.4271 43.3552 88.8412 43.0436 89.5288 43.0436ZM95.2405 47.1337H94.334L93.0291 45.1003L92.4509 45.6535V47.1337H91.6851V41.5634H92.4509V44.8432L94.1934 43.1604H95.0764L93.5448 44.6173L95.2405 47.1337ZM96.3747 42.4515H95.5073V41.6257H96.3747V42.4515ZM96.32 47.1337H95.5542V43.1604H96.32V47.1337ZM99.2736 43.0436C100.008 43.0436 100.602 43.4643 100.602 44.3758V47.1337H99.8362V44.5861C99.8362 44.0564 99.6018 43.698 99.0236 43.698C98.3672 43.698 97.9453 44.0953 97.9453 44.6952V47.1337H97.1795V43.1604H97.9453V43.6591H97.9609C98.1719 43.3552 98.586 43.0436 99.2736 43.0436ZM104.243 43.6279V43.1604H105.009V46.8221C105.009 48.0218 104.282 48.5594 103.141 48.5594C102 48.5594 101.43 48.0141 101.352 47.2973H102.149C102.227 47.6557 102.493 47.9361 103.141 47.9361C103.868 47.9361 104.243 47.6167 104.243 46.8688V46.3313H104.227C104.008 46.6507 103.641 46.9311 103 46.9311C102.008 46.9311 101.242 46.2611 101.242 44.9913C101.242 43.7136 102.008 43.0436 103 43.0436C103.641 43.0436 104.008 43.3474 104.227 43.6279H104.243ZM103.141 46.3001C103.829 46.3001 104.235 45.856 104.235 44.9913C104.235 44.1187 103.829 43.6824 103.141 43.6824C102.391 43.6824 102.039 44.2434 102.039 44.9913C102.039 45.7392 102.391 46.3001 103.141 46.3001Z" fill="#FFF239"/>
<path opacity="0.5" d="M119.709 47.2428C118.123 47.2428 117.1 46.0275 117.1 44.3525C117.1 42.6697 118.131 41.4543 119.717 41.4543C121.116 41.4543 121.983 42.3425 122.116 43.4566H121.218C121.116 42.9112 120.772 42.1945 119.702 42.1945C118.467 42.1945 117.998 43.2384 117.998 44.3447C117.998 45.4588 118.467 46.5027 119.702 46.5027C120.78 46.5027 121.163 45.786 121.218 45.1082H122.116C121.991 46.3469 121.116 47.2428 119.709 47.2428ZM124.531 47.2506C123.289 47.2506 122.539 46.3936 122.539 45.1471C122.539 43.9084 123.289 43.0359 124.539 43.0359C125.774 43.0359 126.524 43.9006 126.524 45.1393C126.524 46.3859 125.774 47.2506 124.531 47.2506ZM124.539 46.6196C125.352 46.6196 125.727 45.973 125.727 45.1471C125.727 44.3135 125.352 43.6747 124.539 43.6747C123.711 43.6747 123.336 44.3135 123.336 45.1471C123.336 45.973 123.711 46.6196 124.539 46.6196ZM131.512 43.0436C132.317 43.0436 132.724 43.5267 132.724 44.3759V47.1338H131.958V44.5862C131.958 44.0564 131.848 43.6981 131.262 43.6981C130.692 43.6981 130.333 44.0954 130.333 44.6953V47.1338H129.567V44.5862C129.567 44.0564 129.457 43.6981 128.871 43.6981C128.301 43.6981 127.941 44.0954 127.941 44.6953V47.1338H127.176V43.1605H127.941V43.6591H127.957C128.168 43.3553 128.535 43.0436 129.137 43.0436C129.692 43.0436 130.036 43.293 130.192 43.737H130.208C130.497 43.3553 130.903 43.0436 131.512 43.0436ZM137.9 43.0436C138.704 43.0436 139.111 43.5267 139.111 44.3759V47.1338H138.345V44.5862C138.345 44.0564 138.236 43.6981 137.65 43.6981C137.079 43.6981 136.72 44.0954 136.72 44.6953V47.1338H135.954V44.5862C135.954 44.0564 135.845 43.6981 135.258 43.6981C134.688 43.6981 134.329 44.0954 134.329 44.6953V47.1338H133.563V43.1605H134.329V43.6591H134.344C134.555 43.3553 134.922 43.0436 135.524 43.0436C136.079 43.0436 136.423 43.293 136.579 43.737H136.595C136.884 43.3553 137.29 43.0436 137.9 43.0436ZM142.575 45.599V43.1605H143.341V47.1338H142.575V46.6352H142.559C142.348 46.939 141.934 47.2428 141.247 47.2428C140.512 47.2428 139.918 46.8221 139.918 45.9106V43.1605H140.684V45.7003C140.684 46.2378 140.918 46.5962 141.497 46.5962C142.153 46.5962 142.575 46.1989 142.575 45.599ZM146.294 43.0436C147.029 43.0436 147.622 43.4643 147.622 44.3759V47.1338H146.857V44.5862C146.857 44.0564 146.622 43.6981 146.044 43.6981C145.388 43.6981 144.966 44.0954 144.966 44.6953V47.1338H144.2V43.1605H144.966V43.6591H144.981C145.192 43.3553 145.606 43.0436 146.294 43.0436ZM149.271 42.4516H148.403V41.6257H149.271V42.4516ZM149.216 47.1338H148.45V43.1605H149.216V47.1338ZM151.545 46.5495C151.678 46.5495 151.74 46.5417 151.873 46.5183V47.1338C151.678 47.1727 151.553 47.1805 151.388 47.1805C150.732 47.1805 150.334 46.9312 150.334 46.0119V43.7916H149.755V43.1605H150.334V41.8828H151.099V43.1605H151.865V43.7916H151.099V46.0353C151.099 46.456 151.216 46.5495 151.545 46.5495ZM153.018 48.5283C152.846 48.5283 152.729 48.5127 152.526 48.4738V47.8505C152.659 47.8661 152.729 47.8739 152.854 47.8739C153.159 47.8739 153.518 47.7181 153.674 47.0948L152.065 43.1605H152.901L154.065 46.1989H154.081L155.175 43.1605H155.979L154.401 47.2273C154.018 48.2089 153.635 48.5283 153.018 48.5283Z" fill="#FFF239"/>
<path d="M88.2979 50.6395H95.3304" stroke="#F8FC32" stroke-width="2" stroke-linecap="round"/>
</g>
</g>
<defs>
<clipPath id="clip0_507_786">
<rect width="168" height="134" fill="white"/>
</clipPath>
</defs>
</svg>
