<svg width="142" height="309" viewBox="0 0 142 309" fill="none" xmlns="http://www.w3.org/2000/svg">
<g clip-path="url(#clip0_504_413)">
<mask id="mask0_504_413" style="mask-type:luminance" maskUnits="userSpaceOnUse" x="0" y="0" width="142" height="309">
<path d="M142 0H0V309H142V0Z" fill="white"/>
</mask>
<g mask="url(#mask0_504_413)">
<path d="M142 0H0V309H142V0Z" fill="#FF6969"/>
<path d="M13.8174 222.467V212.985H17.7538C19.8408 212.985 20.9636 213.966 20.9636 215.716C20.9636 216.923 20.2371 217.799 19.1936 218.037V218.064C21.3863 218.475 20.5805 222.215 21.0957 222.374V222.467H19.537C19.1143 222.069 20.0125 218.753 17.7009 218.753H15.2704V222.467H13.8174ZM15.2704 217.494H17.4367C18.7709 217.494 19.4974 216.91 19.4974 215.823C19.4974 214.801 18.9162 214.244 17.4632 214.244H15.2704V217.494ZM25.118 222.666C22.9781 222.666 21.7893 221.141 21.7893 219.072C21.7893 216.95 23.0574 215.491 25.118 215.491C27.1655 215.491 28.3147 216.844 28.3147 218.939C28.3147 219.125 28.3147 219.324 28.3015 219.43H23.1234C23.1499 220.557 23.8103 221.605 25.1445 221.605C26.3333 221.605 26.7956 220.836 26.9145 220.385H28.2354C27.8788 221.684 26.8881 222.666 25.118 222.666ZM23.1234 218.409H26.9673C26.9673 217.348 26.2276 216.552 25.0784 216.552C23.9952 216.552 23.2027 217.295 23.1234 218.409ZM30.7457 222.467L28.6587 215.703H30.0588L31.4855 220.942H31.5119L32.9121 215.703H34.2198L35.62 220.942H35.6464L37.0862 215.703H38.4336L36.3465 222.467H35.0124L33.5593 217.255H33.5329L32.0799 222.467H30.7457ZM40.9453 222.652C39.598 222.652 38.7394 221.87 38.7394 220.716C38.7394 219.204 39.8754 218.753 41.553 218.435C42.6097 218.236 43.257 218.104 43.257 217.441C43.257 216.95 42.9664 216.539 41.9757 216.539C40.8 216.539 40.4434 216.91 40.3773 217.812H39.0564C39.1224 216.512 39.9678 215.491 42.0285 215.491C43.4155 215.491 44.5251 216.075 44.5251 217.825V220.928C44.5251 221.419 44.5911 221.671 44.8421 221.671C44.8817 221.671 44.9213 221.671 45.0006 221.658V222.453C44.776 222.507 44.5515 222.533 44.3401 222.533C43.6929 222.533 43.3494 222.281 43.2702 221.512H43.2437C42.8078 222.215 42.0417 222.652 40.9453 222.652ZM40.0867 220.623C40.0867 221.26 40.4302 221.605 41.2359 221.605C42.3984 221.605 43.257 221.008 43.257 219.828V218.86C43.0456 219.058 42.4644 219.204 41.7775 219.35C40.5887 219.589 40.0867 219.92 40.0867 220.623ZM47.3948 218.966V222.467H46.1003V215.703H47.3948V216.99H47.4212C47.7778 216.141 48.3194 215.544 49.2309 215.544C49.4686 215.544 49.6536 215.557 49.8517 215.584V216.83C49.6932 216.804 49.5743 216.791 49.4158 216.791C48.2402 216.791 47.3948 217.679 47.3948 218.966ZM53.1161 222.652C51.3988 222.652 50.0911 221.313 50.0911 219.085C50.0911 216.857 51.3988 215.504 53.1161 215.504C54.1728 215.504 54.82 215.995 55.1899 216.525H55.2163V212.985H56.5108V222.467H55.2163V221.671H55.1899C54.82 222.148 54.1728 222.652 53.1161 222.652ZM51.4385 219.085C51.4385 220.411 52.0593 221.578 53.3274 221.578C54.4898 221.578 55.2031 220.61 55.2031 219.085C55.2031 217.547 54.4898 216.592 53.3274 216.592C52.0593 216.592 51.4385 217.759 51.4385 219.085ZM60.6232 222.652C58.5758 222.652 57.5587 221.591 57.519 220.212H58.8268C58.8796 220.995 59.3551 221.605 60.61 221.605C61.746 221.605 62.0498 221.101 62.0498 220.61C62.0498 219.761 61.1516 219.668 60.2798 219.483C59.1042 219.204 57.7568 218.86 57.7568 217.454C57.7568 216.287 58.6947 215.504 60.3194 215.504C62.1687 215.504 63.0537 216.499 63.1462 217.666H61.8385C61.746 217.149 61.4686 216.552 60.3458 216.552C59.474 216.552 59.1042 216.897 59.1042 217.401C59.1042 218.104 59.8571 218.17 60.8082 218.382C62.0498 218.674 63.3972 219.032 63.3972 220.544C63.3972 221.857 62.3933 222.652 60.6232 222.652Z" fill="black"/>
<path d="M14.1801 242.359L12.9913 237.618H13.4998L14.4641 241.67H14.4773L15.5869 237.618H16.1219L17.2314 241.67H17.2513L18.2155 237.618H18.7175L17.5353 242.359H17.0003L15.8643 238.189H15.8445L14.7085 242.359H14.1801ZM19.2285 242.359V238.978H19.6578V242.359H19.2285ZM19.1624 238.301V237.744H19.7172V238.301H19.1624ZM21.425 242.386C20.9363 242.386 20.6324 242.22 20.6324 241.484V239.356H20.1371V238.978H20.6324V237.85H21.0618V238.978H21.742V239.356H21.0618V241.491C21.0618 241.909 21.1542 242.008 21.4844 242.008C21.5901 242.008 21.643 242.001 21.742 241.995V242.359C21.6099 242.379 21.5307 242.386 21.425 242.386ZM24.5706 240.078C24.5706 239.647 24.3725 239.276 23.7913 239.276C23.1506 239.276 22.7279 239.727 22.7279 240.224V242.359H22.2986V237.618H22.7279V239.462H22.7411C22.9326 239.183 23.2959 238.898 23.8969 238.898C24.498 238.898 24.9999 239.236 24.9999 239.986V242.359H24.5706V240.078ZM27.3191 242.359V237.618H27.8012V242.359H27.3191ZM28.8025 242.359V237.618H29.3903L31.9463 241.676H31.9596V237.618H32.4417V242.359H31.8539L29.2979 238.301H29.2847V242.359H28.8025ZM34.7344 242.359L33.0105 237.618H33.5324L34.9854 241.869H34.992L36.4318 237.618H36.9338L35.2364 242.359H34.7344ZM39.0654 242.446C37.9294 242.446 37.1105 241.855 37.0444 240.788H37.5464C37.6124 241.524 38.0615 242.021 39.0456 242.021C39.9174 242.021 40.2146 241.604 40.2146 241.08C40.2212 240.377 39.7325 240.257 38.7616 240.039C37.9889 239.86 37.2426 239.621 37.2426 238.752C37.2426 237.996 37.8436 237.532 38.8145 237.532C39.8382 237.532 40.4854 238.056 40.5581 238.984H40.0561C39.9769 238.328 39.6136 237.957 38.8145 237.957C38.121 237.957 37.7445 238.242 37.7445 238.732C37.7445 239.369 38.3059 239.502 38.9994 239.654C39.9703 239.866 40.7166 240.105 40.7166 241.066C40.7166 241.836 40.1882 242.446 39.0654 242.446ZM42.414 242.359V238.043H40.8091V237.618H44.5011V238.043H42.8895V242.359H42.414ZM44.3426 242.877C44.5539 242.797 44.6199 242.678 44.6133 242.359H44.3426V241.802H44.8973V242.359C44.8973 242.731 44.7917 243.023 44.3426 243.162V242.877ZM47.028 243.546C46.9223 243.546 46.8431 243.54 46.7044 243.52V243.149C46.8034 243.162 46.8563 243.168 46.962 243.168C47.279 243.168 47.5366 242.963 47.7215 242.34L46.3609 238.978H46.8365L47.9328 241.796H47.946L48.9896 238.978H49.4519L48.1046 242.459C47.7743 243.301 47.4771 243.546 47.028 243.546ZM51.2404 242.452C50.2299 242.452 49.6223 241.723 49.6223 240.675C49.6223 239.621 50.2299 238.891 51.2404 238.891C52.251 238.891 52.8586 239.621 52.8586 240.675C52.8586 241.723 52.251 242.452 51.2404 242.452ZM50.0714 240.675C50.0714 241.451 50.4545 242.074 51.2404 242.074C52.0264 242.074 52.4095 241.451 52.4095 240.675C52.4095 239.893 52.0264 239.269 51.2404 239.269C50.4545 239.269 50.0714 239.893 50.0714 240.675ZM54.5408 242.439C53.9398 242.439 53.4378 242.101 53.4378 241.352V238.978H53.8671V241.259C53.8671 241.69 54.0653 242.061 54.6465 242.061C55.2871 242.061 55.7098 241.61 55.7098 241.113V238.978H56.1391V242.359H55.7098V241.882H55.6966C55.5051 242.161 55.1418 242.439 54.5408 242.439ZM59.8057 242.446C58.8414 242.446 58.1942 241.73 58.1942 240.669C58.1942 239.614 58.8414 238.898 59.8057 238.898C60.6247 238.898 61.1795 239.448 61.2521 240.165H60.803C60.7766 239.787 60.5058 239.276 59.8057 239.276C58.9801 239.276 58.6433 239.979 58.6433 240.669C58.6433 241.365 58.9801 242.074 59.8057 242.074C60.5124 242.074 60.7766 241.564 60.803 241.153H61.2521C61.2059 241.882 60.6247 242.446 59.8057 242.446ZM62.7543 242.446C62.0807 242.446 61.6514 242.068 61.6514 241.504C61.6514 240.775 62.1665 240.543 63.0383 240.39C63.5931 240.291 63.9498 240.251 63.9498 239.846C63.9498 239.502 63.7252 239.269 63.1836 239.269C62.5298 239.269 62.2986 239.502 62.2656 239.999H61.8099C61.8429 239.402 62.2194 238.891 63.1969 238.891C63.8177 238.891 64.3659 239.157 64.3659 239.966V241.657C64.3659 241.928 64.4055 242.054 64.5574 242.054C64.5838 242.054 64.6102 242.054 64.6499 242.048V242.359C64.5772 242.373 64.5046 242.386 64.4253 242.386C64.1413 242.386 63.9762 242.273 63.9498 241.849H63.9366C63.7054 242.233 63.3025 242.446 62.7543 242.446ZM62.1005 241.464C62.1005 241.855 62.3184 242.068 62.8072 242.068C63.4941 242.068 63.9498 241.703 63.9498 241.093V240.463C63.8507 240.602 63.4941 240.682 63.0912 240.748C62.4373 240.867 62.1005 241.033 62.1005 241.464ZM67.4945 240.078C67.4945 239.647 67.2964 239.276 66.7151 239.276C66.0745 239.276 65.6518 239.727 65.6518 240.224V242.359H65.2225V238.978H65.6518V239.462H65.665C65.8565 239.183 66.2198 238.898 66.8208 238.898C67.4218 238.898 67.9238 239.236 67.9238 239.986V242.359H67.4945V240.078ZM72.4094 240.078C72.4094 239.647 72.2112 239.276 71.63 239.276C70.9893 239.276 70.5667 239.727 70.5667 240.224V242.359H70.1373V238.978H70.5667V239.462H70.5799C70.7714 239.183 71.1346 238.898 71.7357 238.898C72.3367 238.898 72.8386 239.236 72.8386 239.986V242.359H72.4094V240.078ZM75.0403 242.452C74.0298 242.452 73.4222 241.723 73.4222 240.675C73.4222 239.621 74.0298 238.891 75.0403 238.891C76.0508 238.891 76.6584 239.621 76.6584 240.675C76.6584 241.723 76.0508 242.452 75.0403 242.452ZM73.8713 240.675C73.8713 241.451 74.2544 242.074 75.0403 242.074C75.8263 242.074 76.2093 241.451 76.2093 240.675C76.2093 239.893 75.8263 239.269 75.0403 239.269C74.2544 239.269 73.8713 239.893 73.8713 240.675ZM77.9464 242.359L76.8764 238.978H77.3519L78.1907 241.869H78.2039L78.9899 238.978H79.472L80.258 241.869H80.2712L81.1166 238.978H81.5789L80.5024 242.359H80.0202L79.2277 239.502H79.2145L78.4219 242.359H77.9464ZM83.3787 242.359V237.618H83.808V242.359H83.3787ZM86.0245 242.452C84.9942 242.452 84.4196 241.696 84.4196 240.669C84.4196 239.588 85.0536 238.891 86.0245 238.891C86.9954 238.891 87.5436 239.574 87.5436 240.516C87.5436 240.609 87.5436 240.702 87.537 240.755H84.8687C84.8753 241.438 85.2386 242.081 86.0311 242.081C86.7246 242.081 86.9954 241.604 87.0614 241.325H87.4973C87.3322 241.942 86.8699 242.452 86.0245 242.452ZM84.8687 240.377H87.0879C87.0879 239.773 86.6982 239.263 86.0047 239.263C85.3508 239.263 84.9017 239.747 84.8687 240.377ZM89.0699 242.446C88.3962 242.446 87.9669 242.068 87.9669 241.504C87.9669 240.775 88.4821 240.543 89.3539 240.39C89.9087 240.291 90.2653 240.251 90.2653 239.846C90.2653 239.502 90.0408 239.269 89.4992 239.269C88.8454 239.269 88.6142 239.502 88.5812 239.999H88.1254C88.1585 239.402 88.5349 238.891 89.5124 238.891C90.1333 238.891 90.6814 239.157 90.6814 239.966V241.657C90.6814 241.928 90.7211 242.054 90.873 242.054C90.8994 242.054 90.9258 242.054 90.9655 242.048V242.359C90.8928 242.373 90.8201 242.386 90.7409 242.386C90.4569 242.386 90.2918 242.273 90.2653 241.849H90.2521C90.021 242.233 89.6181 242.446 89.0699 242.446ZM88.4161 241.464C88.4161 241.855 88.634 242.068 89.1227 242.068C89.8096 242.068 90.2653 241.703 90.2653 241.093V240.463C90.1663 240.602 89.8096 240.682 89.4068 240.748C88.7529 240.867 88.4161 241.033 88.4161 241.464ZM91.967 240.47V242.359H91.5377V238.978H91.967V239.667H91.9803C92.152 239.223 92.4624 238.898 92.9379 238.898C93.0568 238.898 93.1493 238.905 93.2285 238.918V239.342C93.1625 239.329 93.0898 239.322 93.0238 239.322C92.4162 239.322 91.967 239.813 91.967 240.47ZM95.9576 240.078C95.9576 239.647 95.7594 239.276 95.1782 239.276C94.5376 239.276 94.1149 239.727 94.1149 240.224V242.359H93.6856V238.978H94.1149V239.462H94.1281C94.3196 239.183 94.6829 238.898 95.2839 238.898C95.8849 238.898 96.3869 239.236 96.3869 239.986V242.359H95.9576V240.078ZM99.5779 242.386C99.0892 242.386 98.7854 242.22 98.7854 241.484V239.356H98.29V238.978H98.7854V237.85H99.2146V238.978H99.8949V239.356H99.2146V241.491C99.2146 241.909 99.3071 242.008 99.6373 242.008C99.743 242.008 99.7959 242.001 99.8949 241.995V242.359C99.7628 242.379 99.6836 242.386 99.5779 242.386ZM100.881 240.47V242.359H100.451V238.978H100.881V239.667H100.894C101.066 239.223 101.376 238.898 101.852 238.898C101.97 238.898 102.063 238.905 102.142 238.918V239.342C102.076 239.329 102.003 239.322 101.937 239.322C101.33 239.322 100.881 239.813 100.881 240.47ZM103.382 242.446C102.709 242.446 102.279 242.068 102.279 241.504C102.279 240.775 102.794 240.543 103.666 240.39C104.221 240.291 104.578 240.251 104.578 239.846C104.578 239.502 104.353 239.269 103.811 239.269C103.158 239.269 102.926 239.502 102.893 239.999H102.438C102.471 239.402 102.847 238.891 103.825 238.891C104.446 238.891 104.994 239.157 104.994 239.966V241.657C104.994 241.928 105.033 242.054 105.185 242.054C105.212 242.054 105.238 242.054 105.278 242.048V242.359C105.205 242.373 105.132 242.386 105.053 242.386C104.769 242.386 104.604 242.273 104.578 241.849H104.564C104.333 242.233 103.93 242.446 103.382 242.446ZM102.728 241.464C102.728 241.855 102.946 242.068 103.435 242.068C104.122 242.068 104.578 241.703 104.578 241.093V240.463C104.479 240.602 104.122 240.682 103.719 240.748C103.065 240.867 102.728 241.033 102.728 241.464ZM107.119 242.446C106.3 242.446 105.639 241.783 105.639 240.669C105.639 239.561 106.3 238.898 107.119 238.898C107.707 238.898 108.057 239.19 108.255 239.548H108.268V237.618H108.697V242.359H108.268V241.809H108.255C108.063 242.141 107.707 242.446 107.119 242.446ZM106.088 240.669C106.088 241.431 106.472 242.068 107.172 242.068C107.819 242.068 108.268 241.524 108.268 240.669C108.268 239.82 107.819 239.276 107.172 239.276C106.472 239.276 106.088 239.913 106.088 240.669ZM109.494 242.359V238.978H109.923V242.359H109.494ZM109.428 238.301V237.744H109.983V238.301H109.428ZM112.985 240.078C112.985 239.647 112.787 239.276 112.206 239.276C111.565 239.276 111.143 239.727 111.143 240.224V242.359H110.713V238.978H111.143V239.462H111.156C111.347 239.183 111.711 238.898 112.312 238.898C112.913 238.898 113.415 239.236 113.415 239.986V242.359H112.985V240.078ZM115.557 243.573C114.645 243.573 114.163 243.129 114.11 242.538H114.56C114.626 242.897 114.91 243.195 115.563 243.195C116.244 243.195 116.647 242.897 116.647 242.207V241.577H116.633C116.435 241.928 116.065 242.2 115.497 242.2C114.692 242.2 114.018 241.67 114.018 240.543C114.018 239.429 114.692 238.898 115.497 238.898C116.065 238.898 116.435 239.17 116.633 239.508H116.647V238.978H117.076V242.147C117.076 243.102 116.482 243.573 115.557 243.573ZM114.467 240.543C114.467 241.318 114.863 241.822 115.557 241.822C116.178 241.822 116.647 241.411 116.647 240.543C116.647 239.687 116.178 239.276 115.557 239.276C114.863 239.276 114.467 239.78 114.467 240.543ZM14.1999 251.397C13.5262 251.397 13.0969 251.019 13.0969 250.456C13.0969 249.726 13.6121 249.494 14.4839 249.342C15.0387 249.242 15.3954 249.203 15.3954 248.798C15.3954 248.453 15.1708 248.221 14.6292 248.221C13.9754 248.221 13.7442 248.453 13.7112 248.951H13.2554C13.2885 248.354 13.6649 247.843 14.6424 247.843C15.2633 247.843 15.8114 248.108 15.8114 248.917V250.608C15.8114 250.88 15.8511 251.006 16.003 251.006C16.0294 251.006 16.0558 251.006 16.0954 250.999V251.311C16.0228 251.324 15.9501 251.338 15.8709 251.338C15.5869 251.338 15.4218 251.225 15.3954 250.801H15.3821C15.151 251.185 14.7481 251.397 14.1999 251.397ZM13.5461 250.416C13.5461 250.807 13.764 251.019 14.2528 251.019C14.9396 251.019 15.3954 250.655 15.3954 250.045V249.415C15.2963 249.554 14.9396 249.634 14.5368 249.7C13.8829 249.819 13.5461 249.985 13.5461 250.416ZM16.6679 251.311V246.57H17.0972V251.311H16.6679ZM19.3201 251.404C18.3096 251.404 17.702 250.675 17.702 249.627C17.702 248.573 18.3096 247.843 19.3201 247.843C20.3306 247.843 20.9382 248.573 20.9382 249.627C20.9382 250.675 20.3306 251.404 19.3201 251.404ZM18.1511 249.627C18.1511 250.403 18.5341 251.026 19.3201 251.026C20.1061 251.026 20.4891 250.403 20.4891 249.627C20.4891 248.844 20.1061 248.221 19.3201 248.221C18.5341 248.221 18.1511 248.844 18.1511 249.627ZM23.816 249.03C23.816 248.599 23.6179 248.228 23.0366 248.228C22.396 248.228 21.9733 248.679 21.9733 249.176V251.311H21.544V247.929H21.9733V248.413H21.9865C22.178 248.135 22.5413 247.85 23.1423 247.85C23.7433 247.85 24.2453 248.188 24.2453 248.937V251.311H23.816V249.03ZM26.3878 252.525C25.4763 252.525 24.9942 252.08 24.9414 251.49H25.3905C25.4565 251.848 25.7405 252.147 26.3944 252.147C27.0747 252.147 27.4775 251.848 27.4775 251.159V250.529H27.4643C27.2662 250.88 26.8963 251.152 26.3283 251.152C25.5226 251.152 24.8489 250.622 24.8489 249.494C24.8489 248.38 25.5226 247.85 26.3283 247.85C26.8963 247.85 27.2662 248.122 27.4643 248.46H27.4775V247.929H27.9068V251.099C27.9068 252.054 27.3124 252.525 26.3878 252.525ZM25.298 249.494C25.298 250.27 25.6943 250.774 26.3878 250.774C27.0086 250.774 27.4775 250.363 27.4775 249.494C27.4775 248.639 27.0086 248.228 26.3878 248.228C25.6943 248.228 25.298 248.732 25.298 249.494ZM30.7722 251.311L29.7022 247.929H30.1778L31.0165 250.82H31.0298L31.8157 247.929H32.2978L33.0839 250.82H33.0971L33.9425 247.929H34.4049L33.3283 251.311H32.846L32.0535 248.453H32.0403L31.2477 251.311H30.7722ZM34.8824 251.311V247.929H35.3117V251.311H34.8824ZM34.8163 247.253V246.696H35.3711V247.253H34.8163ZM37.0788 251.338C36.59 251.338 36.2862 251.172 36.2862 250.436V248.307H35.7908V247.929H36.2862V246.802H36.7155V247.929H37.3958V248.307H36.7155V250.443C36.7155 250.86 36.808 250.96 37.1382 250.96C37.2439 250.96 37.2967 250.953 37.3958 250.946V251.311C37.2637 251.331 37.1844 251.338 37.0788 251.338ZM40.2245 249.03C40.2245 248.599 40.0264 248.228 39.4452 248.228C38.8045 248.228 38.3819 248.679 38.3819 249.176V251.311H37.9526V246.57H38.3819V248.413H38.3951C38.5866 248.135 38.9499 247.85 39.5509 247.85C40.1519 247.85 40.6539 248.188 40.6539 248.937V251.311H40.2245V249.03ZM43.5041 251.311L42.4341 247.929H42.9097L43.7485 250.82H43.7617L44.5476 247.929H45.0298L45.8157 250.82H45.8289L46.6743 247.929H47.1367L46.0601 251.311H45.578L44.7854 248.453H44.7722L43.9796 251.311H43.5041ZM47.6142 251.311V247.929H48.0435V251.311H47.6142ZM47.5481 247.253V246.696H48.1029V247.253H47.5481ZM51.1054 249.03C51.1054 248.599 50.9072 248.228 50.326 248.228C49.6854 248.228 49.2627 248.679 49.2627 249.176V251.311H48.8334V247.929H49.2627V248.413H49.2759C49.4674 248.135 49.8307 247.85 50.4317 247.85C51.0327 247.85 51.5347 248.188 51.5347 248.937V251.311H51.1054V249.03ZM54.5755 249.03C54.5755 248.599 54.3773 248.228 53.7961 248.228C53.1555 248.228 52.7328 248.679 52.7328 249.176V251.311H52.3035V247.929H52.7328V248.413H52.746C52.9375 248.135 53.3008 247.85 53.9018 247.85C54.5028 247.85 55.0048 248.188 55.0048 248.937V251.311H54.5755V249.03ZM55.7732 251.311V247.929H56.2025V251.311H55.7732ZM55.7072 247.253V246.696H56.262V247.253H55.7072ZM59.2644 249.03C59.2644 248.599 59.0663 248.228 58.4851 248.228C57.8444 248.228 57.4217 248.679 57.4217 249.176V251.311H56.9924V247.929H57.4217V248.413H57.435C57.6265 248.135 57.9897 247.85 58.5908 247.85C59.1918 247.85 59.6937 248.188 59.6937 248.937V251.311H59.2644V249.03ZM61.8363 252.525C60.9249 252.525 60.4427 252.08 60.3899 251.49H60.839C60.905 251.848 61.189 252.147 61.8429 252.147C62.5232 252.147 62.9261 251.848 62.9261 251.159V250.529H62.9129C62.7147 250.88 62.3449 251.152 61.7769 251.152C60.9711 251.152 60.2974 250.622 60.2974 249.494C60.2974 248.38 60.9711 247.85 61.7769 247.85C62.3449 247.85 62.7147 248.122 62.9129 248.46H62.9261V247.929H63.3554V251.099C63.3554 252.054 62.7609 252.525 61.8363 252.525ZM60.7465 249.494C60.7465 250.27 61.1428 250.774 61.8363 250.774C62.4571 250.774 62.9261 250.363 62.9261 249.494C62.9261 248.639 62.4571 248.228 61.8363 248.228C61.1428 248.228 60.7465 248.732 60.7465 249.494ZM67.01 251.404C65.9797 251.404 65.4051 250.648 65.4051 249.62C65.4051 248.539 66.0392 247.843 67.01 247.843C67.9809 247.843 68.5291 248.526 68.5291 249.468C68.5291 249.561 68.5291 249.653 68.5225 249.706H65.8542C65.8608 250.389 66.2241 251.033 67.0167 251.033C67.7101 251.033 67.9809 250.555 68.047 250.277H68.4829C68.3178 250.893 67.8554 251.404 67.01 251.404ZM65.8542 249.329H68.0734C68.0734 248.725 67.6837 248.215 66.9902 248.215C66.3364 248.215 65.8873 248.699 65.8542 249.329ZM68.5337 251.311L69.8547 249.58L68.6394 247.929H69.1612L70.1122 249.275H70.1255L71.0699 247.929H71.5851L70.3764 249.58L71.704 251.311H71.1822L70.1189 249.872H70.1056L69.0489 251.311H68.5337ZM73.3181 251.397C72.3539 251.397 71.7066 250.681 71.7066 249.62C71.7066 248.566 72.3539 247.85 73.3181 247.85C74.1371 247.85 74.6919 248.4 74.7646 249.116H74.3154C74.289 248.738 74.0182 248.228 73.3181 248.228C72.4926 248.228 72.1557 248.931 72.1557 249.62C72.1557 250.317 72.4926 251.026 73.3181 251.026C74.0248 251.026 74.289 250.515 74.3154 250.104H74.7646C74.7183 250.834 74.1371 251.397 73.3181 251.397ZM75.3421 251.311V247.929H75.7714V251.311H75.3421ZM75.2761 247.253V246.696H75.8309V247.253H75.2761ZM77.5388 251.338C77.0501 251.338 76.7463 251.172 76.7463 250.436V248.307H76.2509V247.929H76.7463V246.802H77.1756V247.929H77.8559V248.307H77.1756V250.443C77.1756 250.86 77.2681 250.96 77.5983 250.96C77.704 250.96 77.7568 250.953 77.8559 250.946V251.311C77.7238 251.331 77.6445 251.338 77.5388 251.338ZM78.4123 251.311V247.929H78.8416V251.311H78.4123ZM78.3463 247.253V246.696H78.9011V247.253H78.3463ZM81.9035 249.03C81.9035 248.599 81.7054 248.228 81.1242 248.228C80.4835 248.228 80.0608 248.679 80.0608 249.176V251.311H79.6315V247.929H80.0608V248.413H80.074C80.2656 248.135 80.6288 247.85 81.2299 247.85C81.8309 247.85 82.3328 248.188 82.3328 248.937V251.311H81.9035V249.03ZM84.4751 252.525C83.5636 252.525 83.0815 252.08 83.0286 251.49H83.4778C83.5438 251.848 83.8278 252.147 84.4817 252.147C85.1619 252.147 85.5648 251.848 85.5648 251.159V250.529H85.5516C85.3535 250.88 84.9836 251.152 84.4156 251.152C83.6098 251.152 82.9362 250.622 82.9362 249.494C82.9362 248.38 83.6098 247.85 84.4156 247.85C84.9836 247.85 85.3535 248.122 85.5516 248.46H85.5648V247.929H85.9941V251.099C85.9941 252.054 85.3997 252.525 84.4751 252.525ZM83.3853 249.494C83.3853 250.27 83.7816 250.774 84.4751 250.774C85.0959 250.774 85.5648 250.363 85.5648 249.494C85.5648 248.639 85.0959 248.228 84.4751 248.228C83.7816 248.228 83.3853 248.732 83.3853 249.494ZM89.6491 251.397C88.6849 251.397 88.0376 250.681 88.0376 249.62C88.0376 248.566 88.6849 247.85 89.6491 247.85C90.4681 247.85 91.0229 248.4 91.0956 249.116H90.6464C90.62 248.738 90.3492 248.228 89.6491 248.228C88.8236 248.228 88.4867 248.931 88.4867 249.62C88.4867 250.317 88.8236 251.026 89.6491 251.026C90.3558 251.026 90.62 250.515 90.6464 250.104H91.0956C91.0493 250.834 90.4681 251.397 89.6491 251.397ZM93.9451 249.03C93.9451 248.599 93.747 248.228 93.1658 248.228C92.5251 248.228 92.1024 248.679 92.1024 249.176V251.311H91.6731V246.57H92.1024V248.413H92.1156C92.3072 248.135 92.6704 247.85 93.2715 247.85C93.8725 247.85 94.3744 248.188 94.3744 248.937V251.311H93.9451V249.03ZM96.0679 251.397C95.3942 251.397 94.9649 251.019 94.9649 250.456C94.9649 249.726 95.4801 249.494 96.3519 249.342C96.9067 249.242 97.2633 249.203 97.2633 248.798C97.2633 248.453 97.0388 248.221 96.4972 248.221C95.8433 248.221 95.6121 248.453 95.5791 248.951H95.1234C95.1564 248.354 95.5329 247.843 96.5104 247.843C97.1312 247.843 97.6794 248.108 97.6794 248.917V250.608C97.6794 250.88 97.719 251.006 97.8709 251.006C97.8974 251.006 97.9238 251.006 97.9634 250.999V251.311C97.8907 251.324 97.8181 251.338 97.7388 251.338C97.4548 251.338 97.2897 251.225 97.2633 250.801H97.2501C97.0189 251.185 96.6161 251.397 96.0679 251.397ZM95.414 250.416C95.414 250.807 95.632 251.019 96.1207 251.019C96.8076 251.019 97.2633 250.655 97.2633 250.045V249.415C97.1642 249.554 96.8076 249.634 96.4047 249.7C95.7508 249.819 95.414 249.985 95.414 250.416ZM98.536 251.311V246.57H98.9653V251.311H98.536ZM99.7549 251.311V246.57H100.184V251.311H99.7549ZM102.4 251.404C101.37 251.404 100.795 250.648 100.795 249.62C100.795 248.539 101.43 247.843 102.4 247.843C103.371 247.843 103.919 248.526 103.919 249.468C103.919 249.561 103.919 249.653 103.913 249.706H101.245C101.251 250.389 101.614 251.033 102.407 251.033C103.1 251.033 103.371 250.555 103.437 250.277H103.873C103.708 250.893 103.246 251.404 102.4 251.404ZM101.245 249.329H103.464C103.464 248.725 103.074 248.215 102.381 248.215C101.727 248.215 101.278 248.699 101.245 249.329ZM106.793 249.03C106.793 248.599 106.595 248.228 106.014 248.228C105.373 248.228 104.951 248.679 104.951 249.176V251.311H104.521V247.929H104.951V248.413H104.964C105.156 248.135 105.519 247.85 106.12 247.85C106.721 247.85 107.223 248.188 107.223 248.937V251.311H106.793V249.03ZM109.365 252.525C108.454 252.525 107.971 252.08 107.919 251.49H108.368C108.434 251.848 108.718 252.147 109.372 252.147C110.052 252.147 110.455 251.848 110.455 251.159V250.529H110.442C110.243 250.88 109.874 251.152 109.306 251.152C108.5 251.152 107.826 250.622 107.826 249.494C107.826 248.38 108.5 247.85 109.306 247.85C109.874 247.85 110.243 248.122 110.442 248.46H110.455V247.929H110.884V251.099C110.884 252.054 110.29 252.525 109.365 252.525ZM108.275 249.494C108.275 250.27 108.672 250.774 109.365 250.774C109.986 250.774 110.455 250.363 110.455 249.494C110.455 248.639 109.986 248.228 109.365 248.228C108.672 248.228 108.275 248.732 108.275 249.494ZM113.094 251.404C112.064 251.404 111.489 250.648 111.489 249.62C111.489 248.539 112.123 247.843 113.094 247.843C114.065 247.843 114.613 248.526 114.613 249.468C114.613 249.561 114.613 249.653 114.607 249.706H111.939C111.945 250.389 112.308 251.033 113.101 251.033C113.794 251.033 114.065 250.555 114.131 250.277H114.567C114.402 250.893 113.94 251.404 113.094 251.404ZM111.939 249.329H114.158C114.158 248.725 113.768 248.215 113.075 248.215C112.421 248.215 111.972 248.699 111.939 249.329ZM116.457 251.397C115.512 251.397 114.997 250.88 114.977 250.204H115.426C115.453 250.668 115.757 251.019 116.463 251.019C117.104 251.019 117.322 250.721 117.322 250.389C117.322 249.892 116.82 249.839 116.351 249.726C115.73 249.567 115.103 249.415 115.103 248.758C115.103 248.208 115.539 247.85 116.298 247.85C117.177 247.85 117.586 248.321 117.646 248.878H117.196C117.137 248.579 116.959 248.228 116.305 248.228C115.823 248.228 115.552 248.413 115.552 248.732C115.552 249.156 116.008 249.216 116.516 249.342C117.15 249.494 117.778 249.673 117.778 250.376C117.778 250.993 117.289 251.397 116.457 251.397ZM118.258 251.311V250.754H118.813V251.311H118.258ZM15.0783 260.349C13.9423 260.349 13.1234 259.759 13.0573 258.691H13.5593C13.6253 259.427 14.0744 259.925 15.0585 259.925C15.9303 259.925 16.2275 259.507 16.2275 258.983C16.2341 258.28 15.7454 258.161 14.7745 257.942C14.0018 257.763 13.2554 257.524 13.2554 256.656C13.2554 255.9 13.8565 255.436 14.8274 255.436C15.8511 255.436 16.4983 255.959 16.571 256.888H16.069C15.9898 256.231 15.6265 255.86 14.8274 255.86C14.1339 255.86 13.7574 256.145 13.7574 256.636C13.7574 257.272 14.3188 257.405 15.0123 257.557C15.9832 257.77 16.7295 258.008 16.7295 258.97C16.7295 259.739 16.2011 260.349 15.0783 260.349ZM17.3451 260.263V256.881H17.7744V260.263H17.3451ZM17.2791 256.205V255.648H17.8339V256.205H17.2791ZM20.5984 257.982C20.5984 257.557 20.4993 257.179 19.9379 257.179C19.3501 257.179 18.9934 257.637 18.9934 258.128V260.263H18.5641V256.881H18.9934V257.359H19.0066C19.185 257.087 19.502 256.802 20.0304 256.802C20.5059 256.802 20.8097 257.02 20.9352 257.425H20.9484C21.1664 257.087 21.5296 256.802 22.0646 256.802C22.7053 256.802 23.0553 257.186 23.0553 257.889V260.263H22.626V257.982C22.626 257.557 22.5269 257.179 21.9721 257.179C21.3777 257.179 21.0277 257.637 21.0277 258.128V260.263H20.5984V257.982ZM25.3993 260.342C24.8115 260.342 24.4614 260.051 24.2633 259.693H24.2501V261.437H23.8208V256.881H24.2501V257.425H24.2633C24.4614 257.1 24.8115 256.795 25.3993 256.795C26.2249 256.795 26.8853 257.458 26.8853 258.572C26.8853 259.679 26.2249 260.342 25.3993 260.342ZM24.2501 258.572C24.2501 259.421 24.7058 259.964 25.3531 259.964C26.0531 259.964 26.4362 259.328 26.4362 258.572C26.4362 257.809 26.0531 257.173 25.3531 257.173C24.7058 257.173 24.2501 257.717 24.2501 258.572ZM27.4972 260.263V255.522H27.9265V260.263H27.4972ZM29.0134 261.45C28.9077 261.45 28.8285 261.443 28.6898 261.423V261.052C28.7889 261.065 28.8417 261.072 28.9474 261.072C29.2644 261.072 29.522 260.866 29.7069 260.243L28.3464 256.881H28.8219L29.9183 259.699H29.9315L30.975 256.881H31.4373L30.09 260.362C29.7597 261.204 29.4625 261.45 29.0134 261.45ZM34.6126 260.349C33.6483 260.349 33.001 259.633 33.001 258.572C33.001 257.518 33.6483 256.802 34.6126 256.802C35.4316 256.802 35.9863 257.352 36.059 258.068H35.6099C35.5835 257.69 35.3127 257.179 34.6126 257.179C33.787 257.179 33.4502 257.882 33.4502 258.572C33.4502 259.268 33.787 259.978 34.6126 259.978C35.3193 259.978 35.5835 259.467 35.6099 259.056H36.059C36.0128 259.785 35.4316 260.349 34.6126 260.349ZM38.0698 260.356C37.0593 260.356 36.4516 259.626 36.4516 258.579C36.4516 257.524 37.0593 256.795 38.0698 256.795C39.0803 256.795 39.6879 257.524 39.6879 258.579C39.6879 259.626 39.0803 260.356 38.0698 260.356ZM36.9008 258.579C36.9008 259.354 37.2838 259.978 38.0698 259.978C38.8557 259.978 39.2388 259.354 39.2388 258.579C39.2388 257.796 38.8557 257.173 38.0698 257.173C37.2838 257.173 36.9008 257.796 36.9008 258.579ZM42.3278 257.982C42.3278 257.557 42.2287 257.179 41.6673 257.179C41.0795 257.179 40.7229 257.637 40.7229 258.128V260.263H40.2936V256.881H40.7229V257.359H40.7361C40.9144 257.087 41.2314 256.802 41.7598 256.802C42.2353 256.802 42.5392 257.02 42.6646 257.425H42.6778C42.8958 257.087 43.2591 256.802 43.794 256.802C44.4347 256.802 44.7847 257.186 44.7847 257.889V260.263H44.3554V257.982C44.3554 257.557 44.2564 257.179 43.7016 257.179C43.1072 257.179 42.7571 257.637 42.7571 258.128V260.263H42.3278V257.982ZM47.1287 260.342C46.5409 260.342 46.1909 260.051 45.9927 259.693H45.9795V261.437H45.5502V256.881H45.9795V257.425H45.9927C46.1909 257.1 46.5409 256.795 47.1287 256.795C47.9543 256.795 48.6148 257.458 48.6148 258.572C48.6148 259.679 47.9543 260.342 47.1287 260.342ZM45.9795 258.572C45.9795 259.421 46.4352 259.964 47.0825 259.964C47.7826 259.964 48.1657 259.328 48.1657 258.572C48.1657 257.809 47.7826 257.173 47.0825 257.173C46.4352 257.173 45.9795 257.717 45.9795 258.572ZM49.2267 260.263V255.522H49.656V260.263H49.2267ZM51.8725 260.356C50.8422 260.356 50.2676 259.6 50.2676 258.572C50.2676 257.491 50.9016 256.795 51.8725 256.795C52.8434 256.795 53.3916 257.478 53.3916 258.419C53.3916 258.512 53.3916 258.605 53.385 258.658H50.7167C50.7233 259.341 51.0866 259.984 51.8791 259.984C52.5726 259.984 52.8434 259.507 52.9094 259.228H53.3454C53.1802 259.845 52.7179 260.356 51.8725 260.356ZM50.7167 258.28H52.9359C52.9359 257.677 52.5462 257.166 51.8527 257.166C51.1988 257.166 50.7497 257.65 50.7167 258.28ZM54.9255 260.289C54.4368 260.289 54.133 260.124 54.133 259.388V257.259H53.6376V256.881H54.133V255.754H54.5623V256.881H55.2425V257.259H54.5623V259.394C54.5623 259.812 54.6547 259.911 54.985 259.911C55.0906 259.911 55.1435 259.905 55.2425 259.898V260.263C55.1104 260.283 55.0312 260.289 54.9255 260.289ZM57.1483 260.356C56.118 260.356 55.5434 259.6 55.5434 258.572C55.5434 257.491 56.1774 256.795 57.1483 256.795C58.1192 256.795 58.6674 257.478 58.6674 258.419C58.6674 258.512 58.6674 258.605 58.6608 258.658H55.9925C55.9991 259.341 56.3624 259.984 57.1549 259.984C57.8484 259.984 58.1192 259.507 58.1852 259.228H58.6211C58.456 259.845 57.9937 260.356 57.1483 260.356ZM55.9925 258.28H58.2117C58.2117 257.677 57.822 257.166 57.1285 257.166C56.4746 257.166 56.0255 257.65 55.9925 258.28ZM60.8565 261.45C60.7508 261.45 60.6716 261.443 60.5329 261.423V261.052C60.6319 261.065 60.6848 261.072 60.7904 261.072C61.1075 261.072 61.3651 260.866 61.55 260.243L60.1894 256.881H60.665L61.7613 259.699H61.7745L62.8181 256.881H63.2804L61.9331 260.362C61.6028 261.204 61.3056 261.45 60.8565 261.45ZM65.0689 260.356C64.0584 260.356 63.4508 259.626 63.4508 258.579C63.4508 257.524 64.0584 256.795 65.0689 256.795C66.0794 256.795 66.6871 257.524 66.6871 258.579C66.6871 259.626 66.0794 260.356 65.0689 260.356ZM63.8999 258.579C63.8999 259.354 64.283 259.978 65.0689 259.978C65.8549 259.978 66.238 259.354 66.238 258.579C66.238 257.796 65.8549 257.173 65.0689 257.173C64.283 257.173 63.8999 257.796 63.8999 258.579ZM68.3693 260.342C67.7683 260.342 67.2663 260.004 67.2663 259.255V256.881H67.6956V259.162C67.6956 259.593 67.8937 259.964 68.475 259.964C69.1156 259.964 69.5383 259.514 69.5383 259.016V256.881H69.9676V260.263H69.5383V259.785H69.5251C69.3336 260.064 68.9703 260.342 68.3693 260.342ZM71.1921 258.373V260.263H70.7628V256.881H71.1921V257.571H71.2053C71.377 257.126 71.6875 256.802 72.163 256.802C72.2819 256.802 72.3743 256.808 72.4536 256.821V257.246C72.3876 257.233 72.3149 257.226 72.2489 257.226C71.6412 257.226 71.1921 257.717 71.1921 258.373ZM75.6271 260.349C74.6629 260.349 74.0156 259.633 74.0156 258.572C74.0156 257.518 74.6629 256.802 75.6271 256.802C76.4461 256.802 77.0009 257.352 77.0736 258.068H76.6244C76.598 257.69 76.3272 257.179 75.6271 257.179C74.8016 257.179 74.4647 257.882 74.4647 258.572C74.4647 259.268 74.8016 259.978 75.6271 259.978C76.3338 259.978 76.598 259.467 76.6244 259.056H77.0736C77.0273 259.785 76.4461 260.349 75.6271 260.349ZM79.9231 257.982C79.9231 257.551 79.725 257.179 79.1438 257.179C78.5031 257.179 78.0804 257.63 78.0804 258.128V260.263H77.6511V255.522H78.0804V257.365H78.0936C78.2852 257.087 78.6484 256.802 79.2495 256.802C79.8505 256.802 80.3524 257.14 80.3524 257.889V260.263H79.9231V257.982ZM82.0459 260.349C81.3722 260.349 80.9429 259.971 80.9429 259.407C80.9429 258.678 81.4581 258.446 82.3299 258.293C82.8847 258.194 83.2413 258.154 83.2413 257.75C83.2413 257.405 83.0167 257.173 82.4752 257.173C81.8213 257.173 81.5901 257.405 81.5571 257.902H81.1014C81.1344 257.305 81.5109 256.795 82.4884 256.795C83.1092 256.795 83.6574 257.06 83.6574 257.869V259.56C83.6574 259.832 83.697 259.958 83.8489 259.958C83.8754 259.958 83.9018 259.958 83.9414 259.951V260.263C83.8687 260.276 83.7961 260.289 83.7168 260.289C83.4328 260.289 83.2677 260.177 83.2413 259.752H83.2281C82.9969 260.137 82.5941 260.349 82.0459 260.349ZM81.392 259.368C81.392 259.759 81.61 259.971 82.0987 259.971C82.7856 259.971 83.2413 259.606 83.2413 258.996V258.366C83.1422 258.506 82.7856 258.585 82.3827 258.652C81.7288 258.771 81.392 258.937 81.392 259.368ZM84.514 260.263V255.522H84.9433V260.263H84.514ZM85.7329 260.263V255.522H86.1622V260.263H85.7329ZM88.3784 260.356C87.3481 260.356 86.7735 259.6 86.7735 258.572C86.7735 257.491 87.4075 256.795 88.3784 256.795C89.3493 256.795 89.8975 257.478 89.8975 258.419C89.8975 258.512 89.8975 258.605 89.8909 258.658H87.2226C87.2292 259.341 87.5924 259.984 88.385 259.984C89.0785 259.984 89.3493 259.507 89.4153 259.228H89.8512C89.6861 259.845 89.2238 260.356 88.3784 260.356ZM87.2226 258.28H89.4418C89.4418 257.677 89.0521 257.166 88.3586 257.166C87.7047 257.166 87.2556 257.65 87.2226 258.28ZM92.7715 257.982C92.7715 257.551 92.5733 257.179 91.9921 257.179C91.3515 257.179 90.9288 257.63 90.9288 258.128V260.263H90.4995V256.881H90.9288V257.365H90.942C91.1335 257.087 91.4968 256.802 92.0978 256.802C92.6988 256.802 93.2008 257.14 93.2008 257.889V260.263H92.7715V257.982ZM95.343 261.476C94.4316 261.476 93.9494 261.032 93.8966 260.442H94.3457C94.4118 260.8 94.6957 261.098 95.3496 261.098C96.0299 261.098 96.4328 260.8 96.4328 260.11V259.48H96.4196C96.2214 259.832 95.8516 260.104 95.2836 260.104C94.4778 260.104 93.8041 259.573 93.8041 258.446C93.8041 257.332 94.4778 256.802 95.2836 256.802C95.8516 256.802 96.2214 257.073 96.4196 257.412H96.4328V256.881H96.8621V260.051C96.8621 261.006 96.2677 261.476 95.343 261.476ZM94.2532 258.446C94.2532 259.222 94.6495 259.726 95.343 259.726C95.9638 259.726 96.4328 259.315 96.4328 258.446C96.4328 257.591 95.9638 257.179 95.343 257.179C94.6495 257.179 94.2532 257.683 94.2532 258.446ZM99.0723 260.356C98.042 260.356 97.4674 259.6 97.4674 258.572C97.4674 257.491 98.1014 256.795 99.0723 256.795C100.043 256.795 100.591 257.478 100.591 258.419C100.591 258.512 100.591 258.605 100.585 258.658H97.9165C97.9231 259.341 98.2864 259.984 99.0789 259.984C99.7724 259.984 100.043 259.507 100.109 259.228H100.545C100.38 259.845 99.9177 260.356 99.0723 260.356ZM97.9165 258.28H100.136C100.136 257.677 99.746 257.166 99.0525 257.166C98.3986 257.166 97.9495 257.65 97.9165 258.28ZM102.435 260.349C101.49 260.349 100.975 259.832 100.955 259.155H101.404C101.431 259.62 101.735 259.971 102.441 259.971C103.082 259.971 103.3 259.673 103.3 259.341C103.3 258.844 102.798 258.791 102.329 258.678C101.708 258.519 101.081 258.366 101.081 257.71C101.081 257.16 101.517 256.802 102.276 256.802C103.155 256.802 103.564 257.272 103.624 257.829H103.174C103.115 257.531 102.937 257.179 102.283 257.179C101.801 257.179 101.53 257.365 101.53 257.683C101.53 258.108 101.986 258.167 102.494 258.293C103.128 258.446 103.756 258.625 103.756 259.328C103.756 259.945 103.267 260.349 102.435 260.349ZM106.731 260.289C106.242 260.289 105.938 260.124 105.938 259.388V257.259H105.443V256.881H105.938V255.754H106.367V256.881H107.048V257.259H106.367V259.394C106.367 259.812 106.46 259.911 106.79 259.911C106.896 259.911 106.949 259.905 107.048 259.898V260.263C106.916 260.283 106.836 260.289 106.731 260.289ZM108.96 260.356C107.95 260.356 107.342 259.626 107.342 258.579C107.342 257.524 107.95 256.795 108.96 256.795C109.971 256.795 110.578 257.524 110.578 258.579C110.578 259.626 109.971 260.356 108.96 260.356ZM107.791 258.579C107.791 259.354 108.174 259.978 108.96 259.978C109.746 259.978 110.129 259.354 110.129 258.579C110.129 257.796 109.746 257.173 108.96 257.173C108.174 257.173 107.791 257.796 107.791 258.579ZM113.87 260.349C112.926 260.349 112.411 259.832 112.391 259.155H112.84C112.866 259.62 113.17 259.971 113.877 259.971C114.518 259.971 114.736 259.673 114.736 259.341C114.736 258.844 114.234 258.791 113.765 258.678C113.144 258.519 112.516 258.366 112.516 257.71C112.516 257.16 112.952 256.802 113.712 256.802C114.59 256.802 115 257.272 115.059 257.829H114.61C114.551 257.531 114.372 257.179 113.718 257.179C113.236 257.179 112.966 257.365 112.966 257.683C112.966 258.108 113.421 258.167 113.93 258.293C114.564 258.446 115.191 258.625 115.191 259.328C115.191 259.945 114.703 260.349 113.87 260.349ZM116.689 260.289C116.2 260.289 115.897 260.124 115.897 259.388V257.259H115.401V256.881H115.897V255.754H116.326V256.881H117.006V257.259H116.326V259.394C116.326 259.812 116.418 259.911 116.749 259.911C116.854 259.911 116.907 259.905 117.006 259.898V260.263C116.874 260.283 116.795 260.289 116.689 260.289ZM118.488 260.349C117.814 260.349 117.385 259.971 117.385 259.407C117.385 258.678 117.9 258.446 118.772 258.293C119.326 258.194 119.683 258.154 119.683 257.75C119.683 257.405 119.459 257.173 118.917 257.173C118.263 257.173 118.032 257.405 117.999 257.902H117.543C117.576 257.305 117.953 256.795 118.93 256.795C119.551 256.795 120.099 257.06 120.099 257.869V259.56C120.099 259.832 120.139 259.958 120.291 259.958C120.317 259.958 120.344 259.958 120.383 259.951V260.263C120.311 260.276 120.238 260.289 120.159 260.289C119.875 260.289 119.71 260.177 119.683 259.752H119.67C119.439 260.137 119.036 260.349 118.488 260.349ZM117.834 259.368C117.834 259.759 118.052 259.971 118.541 259.971C119.227 259.971 119.683 259.606 119.683 258.996V258.366C119.584 258.506 119.227 258.585 118.825 258.652C118.171 258.771 117.834 258.937 117.834 259.368ZM121.385 258.373V260.263H120.956V256.881H121.385V257.571H121.398C121.57 257.126 121.88 256.802 122.356 256.802C122.475 256.802 122.567 256.808 122.646 256.821V257.246C122.58 257.233 122.508 257.226 122.442 257.226C121.834 257.226 121.385 257.717 121.385 258.373ZM124.081 260.289C123.592 260.289 123.288 260.124 123.288 259.388V257.259H122.793V256.881H123.288V255.754H123.718V256.881H124.398V257.259H123.718V259.394C123.718 259.812 123.81 259.911 124.14 259.911C124.246 259.911 124.299 259.905 124.398 259.898V260.263C124.266 260.283 124.187 260.289 124.081 260.289ZM14.0348 269.215L12.9648 265.833H13.4404L14.2792 268.724H14.2924L15.0783 265.833H15.5605L16.3464 268.724H16.3596L17.205 265.833H17.6674L16.5908 269.215H16.1087L15.3161 266.357H15.3029L14.5103 269.215H14.0348ZM18.1449 269.215V265.833H18.5742V269.215H18.1449ZM18.0789 265.156V264.599H18.6337V265.156H18.0789ZM21.6359 266.934C21.6359 266.503 21.4378 266.131 20.8566 266.131C20.2159 266.131 19.7932 266.582 19.7932 267.079V269.215H19.3639V265.833H19.7932V266.317H19.8064C19.998 266.038 20.3612 265.753 20.9623 265.753C21.5633 265.753 22.0652 266.091 22.0652 266.841V269.215H21.6359V266.934ZM25.1059 266.934C25.1059 266.503 24.9078 266.131 24.3266 266.131C23.6859 266.131 23.2632 266.582 23.2632 267.079V269.215H22.8339V265.833H23.2632V266.317H23.2765C23.468 266.038 23.8312 265.753 24.4323 265.753C25.0333 265.753 25.5352 266.091 25.5352 266.841V269.215H25.1059V266.934ZM26.304 269.215V265.833H26.7333V269.215H26.304ZM26.2379 265.156V264.599H26.7927V265.156H26.2379ZM29.795 266.934C29.795 266.503 29.5968 266.131 29.0156 266.131C28.375 266.131 27.9523 266.582 27.9523 267.079V269.215H27.523V265.833H27.9523V266.317H27.9655C28.157 266.038 28.5203 265.753 29.1213 265.753C29.7223 265.753 30.2243 266.091 30.2243 266.841V269.215H29.795V266.934ZM32.3668 270.428C31.4553 270.428 30.9732 269.984 30.9203 269.394H31.3695C31.4355 269.752 31.7195 270.05 32.3734 270.05C33.0536 270.05 33.4564 269.752 33.4564 269.062V268.432H33.4432C33.2451 268.784 32.8753 269.055 32.3073 269.055C31.5016 269.055 30.8279 268.525 30.8279 267.398C30.8279 266.284 31.5016 265.753 32.3073 265.753C32.8753 265.753 33.2451 266.025 33.4432 266.363H33.4564V265.833H33.8857V269.002C33.8857 269.957 33.2913 270.428 32.3668 270.428ZM31.277 267.398C31.277 268.174 31.6733 268.677 32.3668 268.677C32.9876 268.677 33.4564 268.266 33.4564 267.398C33.4564 266.542 32.9876 266.131 32.3668 266.131C31.6733 266.131 31.277 266.635 31.277 267.398ZM37.0916 269.241C36.6029 269.241 36.2991 269.075 36.2991 268.339V266.211H35.8037V265.833H36.2991V264.706H36.7284V265.833H37.4087V266.211H36.7284V268.346C36.7284 268.764 36.8208 268.863 37.1511 268.863C37.2568 268.863 37.3096 268.857 37.4087 268.85V269.215C37.2766 269.234 37.1973 269.241 37.0916 269.241ZM39.321 269.307C38.3105 269.307 37.7029 268.578 37.7029 267.53C37.7029 266.476 38.3105 265.747 39.321 265.747C40.3315 265.747 40.9392 266.476 40.9392 267.53C40.9392 268.578 40.3315 269.307 39.321 269.307ZM38.152 267.53C38.152 268.306 38.5351 268.929 39.321 268.929C40.107 268.929 40.4901 268.306 40.4901 267.53C40.4901 266.748 40.107 266.125 39.321 266.125C38.5351 266.125 38.152 266.748 38.152 267.53ZM42.8459 269.301C42.027 269.301 41.3665 268.638 41.3665 267.524C41.3665 266.416 42.027 265.753 42.8459 265.753C43.4338 265.753 43.7838 266.045 43.9819 266.403H43.9952V264.473H44.4244V269.215H43.9952V268.664H43.9819C43.7904 268.996 43.4338 269.301 42.8459 269.301ZM41.8156 267.524C41.8156 268.286 42.1987 268.923 42.8988 268.923C43.546 268.923 43.9952 268.379 43.9952 267.524C43.9952 266.675 43.546 266.131 42.8988 266.131C42.1987 266.131 41.8156 266.768 41.8156 267.524ZM46.146 269.301C45.4723 269.301 45.043 268.923 45.043 268.359C45.043 267.63 45.5581 267.398 46.43 267.245C46.9847 267.146 47.3414 267.106 47.3414 266.701C47.3414 266.357 47.1168 266.125 46.5753 266.125C45.9214 266.125 45.6902 266.357 45.6572 266.854H45.2015C45.2345 266.257 45.611 265.747 46.5885 265.747C47.2093 265.747 47.7575 266.012 47.7575 266.821V268.512C47.7575 268.784 47.7971 268.91 47.949 268.91C47.9754 268.91 48.0019 268.91 48.0415 268.903V269.215C47.9688 269.228 47.8962 269.241 47.8169 269.241C47.5329 269.241 47.3678 269.128 47.3414 268.704H47.3282C47.097 269.089 46.6941 269.301 46.146 269.301ZM45.4921 268.319C45.4921 268.711 45.71 268.923 46.1988 268.923C46.8857 268.923 47.3414 268.558 47.3414 267.948V267.318C47.2423 267.457 46.8857 267.537 46.4828 267.603C45.8289 267.723 45.4921 267.888 45.4921 268.319ZM48.8146 270.402C48.7089 270.402 48.6296 270.395 48.4909 270.375V270.004C48.59 270.017 48.6428 270.024 48.7485 270.024C49.0655 270.024 49.3231 269.818 49.5081 269.195L48.1475 265.833H48.623L49.7194 268.651H49.7326L50.7761 265.833H51.2385L49.8911 269.314C49.5609 270.156 49.2637 270.402 48.8146 270.402ZM51.7038 269.215V268.658H52.2586V269.215H51.7038ZM51.7368 265.906V264.473H52.2321V265.906L52.1199 267.994H51.8491L51.7368 265.906Z" fill="black"/>
<g filter="url(#filter0_d_504_413)">
<path d="M19.0982 82.4267C20.9027 79.5678 24.6741 78.7187 27.5218 80.5303L53.3035 96.9315L79.0854 113.333C81.933 115.145 82.7787 118.931 80.9744 121.79L64.6377 147.674L48.3015 173.559C46.4971 176.418 42.7258 177.267 39.8779 175.455L14.0961 159.054L-11.6856 142.652C-14.5333 140.841 -15.3792 137.054 -13.5746 134.195L2.7618 108.311L19.0982 82.4267Z" fill="url(#paint0_linear_504_413)"/>
<path d="M2.76172 108.312L64.6376 147.675" stroke="white" stroke-width="5" stroke-linecap="round" stroke-linejoin="round"/>
<path d="M14.0957 159.054L53.3031 96.9315" stroke="white" stroke-width="5" stroke-linecap="round" stroke-linejoin="round"/>
<path d="M33.6996 127.993C33.6996 127.993 51.1346 130.509 54.5086 129.75C57.8826 128.99 60.0043 125.628 59.2477 122.241C58.4912 118.854 55.1423 116.723 51.7683 117.483C48.3947 118.243 33.6996 127.993 33.6996 127.993ZM33.6996 127.993C33.6996 127.993 23.9874 113.24 23.2306 109.852L33.6996 127.993ZM33.6996 127.993C33.6996 127.993 36.2058 110.488 35.4489 107.101L33.6996 127.993ZM33.6996 127.993C33.6996 127.993 43.4108 142.747 44.1677 146.134L33.6996 127.993ZM33.6996 127.993C33.6996 127.993 31.1926 145.498 31.9494 148.885L33.6996 127.993ZM33.6996 127.993C33.6996 127.993 16.2642 125.477 12.8902 126.236C9.51628 126.996 7.3945 130.358 8.15113 133.745C8.90776 137.133 12.2565 139.263 15.6304 138.503C19.0044 137.744 33.6996 127.993 33.6996 127.993Z" fill="url(#paint1_linear_504_413)"/>
<path d="M33.6996 127.993C33.6996 127.993 51.1346 130.509 54.5086 129.75C57.8826 128.99 60.0043 125.628 59.2477 122.241C58.4912 118.854 55.1423 116.723 51.7683 117.483C48.3947 118.243 33.6996 127.993 33.6996 127.993ZM33.6996 127.993C33.6996 127.993 23.9874 113.24 23.2306 109.852M33.6996 127.993C33.6996 127.993 36.2058 110.488 35.4489 107.101M33.6996 127.993C33.6996 127.993 43.4108 142.747 44.1677 146.134M33.6996 127.993C33.6996 127.993 31.1926 145.498 31.9494 148.885M33.6996 127.993C33.6996 127.993 16.2642 125.477 12.8902 126.236C9.51628 126.996 7.3945 130.358 8.15113 133.745C8.90776 137.133 12.2565 139.263 15.6304 138.503C19.0044 137.744 33.6996 127.993 33.6996 127.993Z" stroke="white" stroke-width="5" stroke-linecap="round" stroke-linejoin="round"/>
</g>
<g filter="url(#filter1_d_504_413)">
<path d="M86.8016 165.984C86.6467 164.071 88.0664 162.393 89.9722 162.238L107.227 160.831L124.481 159.423C126.388 159.268 128.058 160.693 128.213 162.606L129.615 179.93L131.016 197.253C131.171 199.166 129.752 200.844 127.846 200.999L110.591 202.407L93.3366 203.814C91.4305 203.969 89.7601 202.544 89.6053 200.631L88.2034 183.307L86.8016 165.984Z" fill="url(#paint2_linear_504_413)"/>
<path d="M88.2031 183.308L129.614 179.93" stroke="white" stroke-width="2.83594" stroke-linecap="round" stroke-linejoin="round"/>
<path d="M110.591 202.406L107.227 160.831" stroke="white" stroke-width="2.83594" stroke-linecap="round" stroke-linejoin="round"/>
<path d="M108.909 181.619C108.909 181.619 117.661 176.783 118.931 175.282C120.201 173.782 120.019 171.532 118.525 170.257C117.03 168.982 114.789 169.165 113.519 170.665C112.249 172.166 108.909 181.619 108.909 181.619ZM108.909 181.619C108.909 181.619 99.4927 178.265 97.998 176.99L108.909 181.619ZM108.909 181.619C108.909 181.619 104.091 172.831 102.597 171.556L108.909 181.619ZM108.909 181.619C108.909 181.619 118.324 184.973 119.818 186.248L108.909 181.619ZM108.909 181.619C108.909 181.619 113.725 190.406 115.22 191.681L108.909 181.619ZM108.909 181.619C108.909 181.619 100.155 186.455 98.8857 187.955C97.6156 189.455 97.7979 191.706 99.2922 192.98C100.787 194.256 103.028 194.073 104.298 192.572C105.568 191.072 108.909 181.619 108.909 181.619Z" fill="url(#paint3_linear_504_413)"/>
<path d="M108.909 181.619C108.909 181.619 117.661 176.783 118.931 175.282C120.201 173.782 120.019 171.532 118.525 170.257C117.03 168.982 114.789 169.165 113.519 170.665C112.249 172.166 108.909 181.619 108.909 181.619ZM108.909 181.619C108.909 181.619 99.4927 178.265 97.998 176.99M108.909 181.619C108.909 181.619 104.091 172.831 102.597 171.556M108.909 181.619C108.909 181.619 118.324 184.973 119.818 186.248M108.909 181.619C108.909 181.619 113.725 190.406 115.22 191.681M108.909 181.619C108.909 181.619 100.155 186.455 98.8857 187.955C97.6156 189.455 97.7979 191.706 99.2922 192.98C100.787 194.256 103.028 194.073 104.298 192.572C105.568 191.072 108.909 181.619 108.909 181.619Z" stroke="white" stroke-width="2.83594" stroke-linecap="round" stroke-linejoin="round"/>
</g>
<g filter="url(#filter2_d_504_413)">
<path d="M75.9692 64.7057C74.6842 62.5775 75.3609 59.8068 77.4803 58.5167L96.6691 46.8384L115.858 35.1597C117.977 33.8696 120.737 34.549 122.022 36.6768L133.654 55.9419L145.287 75.2067C146.572 77.3349 145.895 80.1056 143.775 81.3953L124.587 93.074L105.398 104.753C103.278 106.043 100.519 105.363 99.2337 103.236L87.6016 83.9704L75.9692 64.7057Z" fill="url(#paint4_linear_504_413)"/>
<path d="M87.6006 83.9698L133.654 55.9413" stroke="white" stroke-width="3.67594" stroke-linecap="round" stroke-linejoin="round"/>
<path d="M124.586 93.0733L96.6689 46.8374" stroke="white" stroke-width="3.67594" stroke-linecap="round" stroke-linejoin="round"/>
<path d="M110.627 69.9553C110.627 69.9553 117.98 59.2527 118.585 56.7741C119.19 54.2951 117.68 51.7933 115.211 51.1856C112.742 50.5779 110.249 52.0947 109.644 54.5733C109.039 57.0523 110.627 69.9553 110.627 69.9553ZM110.627 69.9553C110.627 69.9553 97.7748 71.5501 95.3057 70.9424L110.627 69.9553ZM110.627 69.9553C110.627 69.9553 99.9669 62.5735 97.4981 61.9658L110.627 69.9553ZM110.627 69.9553C110.627 69.9553 123.479 68.3609 125.948 68.9687L110.627 69.9553ZM110.627 69.9553C110.627 69.9553 121.287 77.3375 123.756 77.9453L110.627 69.9553ZM110.627 69.9553C110.627 69.9553 103.275 80.658 102.669 83.1366C102.064 85.6156 103.575 88.1177 106.044 88.7254C108.513 89.3332 111.005 87.816 111.61 85.3374C112.216 82.8588 110.627 69.9553 110.627 69.9553Z" fill="url(#paint5_linear_504_413)"/>
<path d="M110.627 69.9553C110.627 69.9553 117.98 59.2527 118.585 56.7741C119.19 54.2951 117.68 51.7933 115.211 51.1856C112.742 50.5779 110.249 52.0947 109.644 54.5733C109.039 57.0523 110.627 69.9553 110.627 69.9553ZM110.627 69.9553C110.627 69.9553 97.7748 71.5501 95.3057 70.9424M110.627 69.9553C110.627 69.9553 99.9669 62.5735 97.4981 61.9658M110.627 69.9553C110.627 69.9553 123.479 68.3609 125.948 68.9687M110.627 69.9553C110.627 69.9553 121.287 77.3375 123.756 77.9453M110.627 69.9553C110.627 69.9553 103.275 80.658 102.669 83.1366C102.064 85.6156 103.575 88.1177 106.044 88.7254C108.513 89.3332 111.005 87.816 111.61 85.3374C112.216 82.8588 110.627 69.9553 110.627 69.9553Z" stroke="white" stroke-width="3.67594" stroke-linecap="round" stroke-linejoin="round"/>
</g>
<g filter="url(#filter3_d_504_413)">
<path d="M22.1232 -11.4573C23.151 -14.1009 26.1188 -15.4075 28.752 -14.3756L52.5906 -5.03348L76.4295 4.30866C79.0627 5.34059 80.3642 8.32019 79.3362 10.9638L70.0312 34.8974L60.7259 58.831C59.6982 61.4748 56.7304 62.781 54.0972 61.7493L30.2584 52.407L6.4196 43.0651C3.78643 42.033 2.48501 39.0534 3.51286 36.4096L12.818 12.4762L22.1232 -11.4573Z" fill="url(#paint6_linear_504_413)"/>
<path d="M12.8174 12.4745L70.0305 34.8958" stroke="white" stroke-width="4.19218" stroke-linecap="round" stroke-linejoin="round"/>
<path d="M30.2578 52.4053L52.5902 -5.03511" stroke="white" stroke-width="4.19218" stroke-linecap="round" stroke-linejoin="round"/>
<path d="M41.4251 23.6857C41.4251 23.6857 56.1752 22.9467 58.8303 21.7778C61.4854 20.6089 62.6937 17.5004 61.5296 14.8348C60.3652 12.1692 57.269 10.9558 54.6139 12.1247C51.9588 13.2935 41.4251 23.6857 41.4251 23.6857ZM41.4251 23.6857C41.4251 23.6857 31.0736 13.1097 29.9092 10.444L41.4251 23.6857ZM41.4251 23.6857C41.4251 23.6857 40.6883 8.87682 39.5243 6.21123L41.4251 23.6857ZM41.4251 23.6857C41.4251 23.6857 51.7756 34.2615 52.94 36.9272L41.4251 23.6857ZM41.4251 23.6857C41.4251 23.6857 42.1605 38.4944 43.3249 41.1603L41.4251 23.6857ZM41.4251 23.6857C41.4251 23.6857 26.6746 24.4249 24.0195 25.5938C21.3645 26.7626 20.1559 29.8711 21.3202 32.5367C22.4844 35.2025 25.5807 36.4159 28.2358 35.2469C30.8909 34.0782 41.4251 23.6857 41.4251 23.6857Z" fill="url(#paint7_linear_504_413)"/>
<path d="M41.4251 23.6857C41.4251 23.6857 56.1752 22.9467 58.8303 21.7778C61.4854 20.6089 62.6937 17.5004 61.5296 14.8348C60.3652 12.1692 57.269 10.9558 54.6139 12.1247C51.9588 13.2935 41.4251 23.6857 41.4251 23.6857ZM41.4251 23.6857C41.4251 23.6857 31.0736 13.1097 29.9092 10.444M41.4251 23.6857C41.4251 23.6857 40.6883 8.87682 39.5243 6.21123M41.4251 23.6857C41.4251 23.6857 51.7756 34.2615 52.94 36.9272M41.4251 23.6857C41.4251 23.6857 42.1605 38.4944 43.3249 41.1603M41.4251 23.6857C41.4251 23.6857 26.6746 24.4249 24.0195 25.5938C21.3645 26.7626 20.1559 29.8711 21.3202 32.5367C22.4844 35.2025 25.5807 36.4159 28.2358 35.2469C30.8909 34.0782 41.4251 23.6857 41.4251 23.6857Z" stroke="white" stroke-width="4.19218" stroke-linecap="round" stroke-linejoin="round"/>
</g>
<path d="M100.953 286.787V281.097H101.952L104.583 285.474H104.599V281.097H105.479V286.787H104.48L101.841 282.41H101.825V286.787H100.953ZM108.175 286.906C106.891 286.906 106.177 285.991 106.177 284.749C106.177 283.476 106.938 282.601 108.175 282.601C109.403 282.601 110.093 283.413 110.093 284.67C110.093 284.781 110.093 284.901 110.085 284.964H106.978C106.994 285.641 107.39 286.269 108.19 286.269C108.904 286.269 109.181 285.808 109.253 285.537H110.045C109.831 286.317 109.237 286.906 108.175 286.906ZM106.978 284.352H109.284C109.284 283.715 108.84 283.238 108.151 283.238C107.501 283.238 107.025 283.683 106.978 284.352ZM110.056 286.787L111.578 284.71L110.191 282.728H111.078L112.045 284.177H112.061L113.012 282.728H113.9L112.513 284.71L114.05 286.787H113.139L112.045 285.235H112.029L110.96 286.787H110.056ZM115.749 286.834C115.083 286.834 114.679 286.58 114.679 285.641V283.373H114.092V282.728H114.679V281.423H115.456V282.728H116.232V283.373H115.456V285.665C115.456 286.094 115.575 286.19 115.907 286.19C116.042 286.19 116.106 286.182 116.24 286.158V286.787C116.042 286.826 115.915 286.834 115.749 286.834Z" fill="#D30B0B"/>
<path d="M129.025 284.037C129.154 283.908 129.154 283.697 129.025 283.568L126.923 281.458C126.794 281.329 126.585 281.329 126.456 281.458C126.327 281.588 126.327 281.798 126.456 281.927L128.324 283.803L126.456 285.678C126.327 285.807 126.327 286.018 126.456 286.147C126.585 286.277 126.794 286.277 126.923 286.147L129.025 284.037ZM120.205 284.134H128.791V283.471H120.205V284.134Z" fill="#D30B0B"/>
<path opacity="0.2" d="M21.1344 294.744C21.8639 294.744 22.4553 294.15 22.4553 293.417C22.4553 292.685 21.8639 292.091 21.1344 292.091C20.4049 292.091 19.8135 292.685 19.8135 293.417C19.8135 294.15 20.4049 294.744 21.1344 294.744Z" fill="#D30B0B"/>
<path opacity="0.2" d="M38.6373 294.744C39.3669 294.744 39.9583 294.15 39.9583 293.417C39.9583 292.685 39.3669 292.091 38.6373 292.091C37.9078 292.091 37.3164 292.685 37.3164 293.417C37.3164 294.15 37.9078 294.744 38.6373 294.744Z" fill="#D30B0B"/>
<path opacity="0.2" d="M56.1393 294.744C56.8688 294.744 57.4602 294.15 57.4602 293.417C57.4602 292.685 56.8688 292.091 56.1393 292.091C55.4098 292.091 54.8184 292.685 54.8184 293.417C54.8184 294.15 55.4098 294.744 56.1393 294.744Z" fill="#D30B0B"/>
<path opacity="0.2" d="M73.6422 294.744C74.3717 294.744 74.9631 294.15 74.9631 293.417C74.9631 292.685 74.3717 292.091 73.6422 292.091C72.9127 292.091 72.3213 292.685 72.3213 293.417C72.3213 294.15 72.9127 294.744 73.6422 294.744Z" fill="#D30B0B"/>
<path opacity="0.2" d="M91.1442 294.744C91.8737 294.744 92.4651 294.15 92.4651 293.417C92.4651 292.685 91.8737 292.091 91.1442 292.091C90.4146 292.091 89.8232 292.685 89.8232 293.417C89.8232 294.15 90.4146 294.744 91.1442 294.744Z" fill="#D30B0B"/>
<path d="M108.646 294.744C109.376 294.744 109.967 294.15 109.967 293.417C109.967 292.685 109.376 292.091 108.646 292.091C107.917 292.091 107.325 292.685 107.325 293.417C107.325 294.15 107.917 294.744 108.646 294.744Z" fill="#D30B0B"/>
<path opacity="0.2" d="M12.8789 283.803H95.437" stroke="#D30B0B" stroke-width="2"/>
</g>
</g>
<defs>
<filter id="filter0_d_504_413" x="-14.5234" y="79.5778" width="114.446" height="107.83" filterUnits="userSpaceOnUse" color-interpolation-filters="sRGB">
<feFlood flood-opacity="0" result="BackgroundImageFix"/>
<feColorMatrix in="SourceAlpha" type="matrix" values="0 0 0 0 0 0 0 0 0 0 0 0 0 0 0 0 0 0 127 0" result="hardAlpha"/>
<feOffset dx="18" dy="11"/>
<feComposite in2="hardAlpha" operator="out"/>
<feColorMatrix type="matrix" values="0 0 0 0 0 0 0 0 0 0 0 0 0 0 0 0 0 0 0.25 0"/>
<feBlend mode="normal" in2="BackgroundImageFix" result="effect1_dropShadow_504_413"/>
<feBlend mode="normal" in="SourceGraphic" in2="effect1_dropShadow_504_413" result="shape"/>
</filter>
<filter id="filter1_d_504_413" x="86.7852" y="159.412" width="54.4565" height="50.6528" filterUnits="userSpaceOnUse" color-interpolation-filters="sRGB">
<feFlood flood-opacity="0" result="BackgroundImageFix"/>
<feColorMatrix in="SourceAlpha" type="matrix" values="0 0 0 0 0 0 0 0 0 0 0 0 0 0 0 0 0 0 127 0" result="hardAlpha"/>
<feOffset dx="10.2094" dy="6.23907"/>
<feComposite in2="hardAlpha" operator="out"/>
<feColorMatrix type="matrix" values="0 0 0 0 0 0 0 0 0 0 0 0 0 0 0 0 0 0 0.25 0"/>
<feBlend mode="normal" in2="BackgroundImageFix" result="effect1_dropShadow_504_413"/>
<feBlend mode="normal" in="SourceGraphic" in2="effect1_dropShadow_504_413" result="shape"/>
</filter>
<filter id="filter2_d_504_413" x="75.3184" y="34.5063" width="83.8525" height="78.9868" filterUnits="userSpaceOnUse" color-interpolation-filters="sRGB">
<feFlood flood-opacity="0" result="BackgroundImageFix"/>
<feColorMatrix in="SourceAlpha" type="matrix" values="0 0 0 0 0 0 0 0 0 0 0 0 0 0 0 0 0 0 127 0" result="hardAlpha"/>
<feOffset dx="13.2334" dy="8.08706"/>
<feComposite in2="hardAlpha" operator="out"/>
<feColorMatrix type="matrix" values="0 0 0 0 0 0 0 0 0 0 0 0 0 0 0 0 0 0 0.25 0"/>
<feBlend mode="normal" in2="BackgroundImageFix" result="effect1_dropShadow_504_413"/>
<feBlend mode="normal" in="SourceGraphic" in2="effect1_dropShadow_504_413" result="shape"/>
</filter>
<filter id="filter3_d_504_413" x="3.16113" y="-14.7287" width="91.6183" height="86.0539" filterUnits="userSpaceOnUse" color-interpolation-filters="sRGB">
<feFlood flood-opacity="0" result="BackgroundImageFix"/>
<feColorMatrix in="SourceAlpha" type="matrix" values="0 0 0 0 0 0 0 0 0 0 0 0 0 0 0 0 0 0 127 0" result="hardAlpha"/>
<feOffset dx="15.0919" dy="9.2228"/>
<feComposite in2="hardAlpha" operator="out"/>
<feColorMatrix type="matrix" values="0 0 0 0 0 0 0 0 0 0 0 0 0 0 0 0 0 0 0.25 0"/>
<feBlend mode="normal" in2="BackgroundImageFix" result="effect1_dropShadow_504_413"/>
<feBlend mode="normal" in="SourceGraphic" in2="effect1_dropShadow_504_413" result="shape"/>
</filter>
<linearGradient id="paint0_linear_504_413" x1="53.3035" y1="96.9315" x2="13.8738" y2="158.912" gradientUnits="userSpaceOnUse">
<stop stop-color="#FFC52F"/>
<stop offset="1" stop-color="#FF9E0C"/>
</linearGradient>
<linearGradient id="paint1_linear_504_413" x1="44.5904" y1="110.737" x2="22.685" y2="145.171" gradientUnits="userSpaceOnUse">
<stop stop-color="#FFC52F"/>
<stop offset="1" stop-color="#FF9E0C"/>
</linearGradient>
<linearGradient id="paint2_linear_504_413" x1="107.227" y1="160.831" x2="110.618" y2="202.404" gradientUnits="userSpaceOnUse">
<stop stop-color="#FFC52F"/>
<stop offset="1" stop-color="#FF9E0C"/>
</linearGradient>
<linearGradient id="paint3_linear_504_413" x1="107.974" y1="170.07" x2="109.858" y2="193.166" gradientUnits="userSpaceOnUse">
<stop stop-color="#FFC52F"/>
<stop offset="1" stop-color="#FF9E0C"/>
</linearGradient>
<linearGradient id="paint4_linear_504_413" x1="96.6691" y1="46.8384" x2="124.749" y2="92.9752" gradientUnits="userSpaceOnUse">
<stop stop-color="#FFC52F"/>
<stop offset="1" stop-color="#FF9E0C"/>
</linearGradient>
<linearGradient id="paint5_linear_504_413" x1="102.872" y1="57.112" x2="118.472" y2="82.7439" gradientUnits="userSpaceOnUse">
<stop stop-color="#FFC52F"/>
<stop offset="1" stop-color="#FF9E0C"/>
</linearGradient>
<linearGradient id="paint6_linear_504_413" x1="52.5906" y1="-5.03348" x2="30.1042" y2="52.3466" gradientUnits="userSpaceOnUse">
<stop stop-color="#FFC52F"/>
<stop offset="1" stop-color="#FF9E0C"/>
</linearGradient>
<linearGradient id="paint7_linear_504_413" x1="47.6282" y1="7.73007" x2="35.1357" y2="39.6079" gradientUnits="userSpaceOnUse">
<stop stop-color="#FFC52F"/>
<stop offset="1" stop-color="#FF9E0C"/>
</linearGradient>
<clipPath id="clip0_504_413">
<rect width="142" height="309" fill="white"/>
</clipPath>
</defs>
</svg>
