<svg width="301" height="102" viewBox="0 0 301 102" fill="none" xmlns="http://www.w3.org/2000/svg">
<g clip-path="url(#clip0_507_502)">
<mask id="mask0_507_502" style="mask-type:luminance" maskUnits="userSpaceOnUse" x="0" y="0" width="301" height="102">
<path d="M301 0H0V102H301V0Z" fill="white"/>
</mask>
<g mask="url(#mask0_507_502)">
<path d="M301 0H0V102H301V0Z" fill="#1C1C1C"/>
<path d="M29.0084 53.8333H25.6764L20.6924 33.575H23.9124L27.4404 49.5267H27.4964L31.6404 33.575H34.8884L39.0604 49.5267H39.1164L42.6444 33.575H45.8644L40.8524 53.8333H37.5484L33.2924 37.5417H33.2364L29.0084 53.8333ZM50.4525 54.23C47.5965 54.23 45.7765 52.5583 45.7765 50.0933C45.7765 46.8633 48.1845 45.9 51.7405 45.22C53.9805 44.795 55.3525 44.5117 55.3525 43.095C55.3525 42.0467 54.7365 41.1683 52.6365 41.1683C50.1445 41.1683 49.3885 41.9617 49.2485 43.8883H46.4485C46.5885 41.1117 48.3805 38.93 52.7485 38.93C55.6885 38.93 58.0405 40.1767 58.0405 43.9167V50.5467C58.0405 51.595 58.1805 52.1333 58.7125 52.1333C58.7965 52.1333 58.8805 52.1333 59.0485 52.105V53.805C58.5725 53.9183 58.0965 53.975 57.6485 53.975C56.2765 53.975 55.5485 53.4367 55.3805 51.7933H55.3245C54.4005 53.295 52.7765 54.23 50.4525 54.23ZM51.0685 51.9917C53.5325 51.9917 55.3525 50.7167 55.3525 48.195V46.1267C54.9045 46.5517 53.6725 46.8633 52.2165 47.175C49.6965 47.685 48.6325 48.3933 48.6325 49.895C48.6325 51.255 49.3605 51.9917 51.0685 51.9917ZM66.37 51.7083C66.846 51.7083 67.07 51.68 67.546 51.595V53.8333C66.846 53.975 66.398 54.0033 65.81 54.0033C63.458 54.0033 62.03 53.0967 62.03 49.7533V41.6783H59.958V39.3833H62.03V34.7367H64.774V39.3833H67.518V41.6783H64.774V49.8383C64.774 51.3683 65.194 51.7083 66.37 51.7083ZM75.7726 54.2583C71.5166 54.2583 68.7445 51.1417 68.7445 46.6083C68.7445 42.075 71.5166 38.9583 75.7446 38.9583C79.4126 38.9583 81.8486 41.3667 82.1846 44.625H79.3566C79.2166 43.1233 78.3766 41.2533 75.7726 41.2533C72.7206 41.2533 71.6006 43.8883 71.6006 46.6083C71.6006 49.3283 72.7206 51.935 75.7726 51.935C78.4046 51.935 79.2166 50.1217 79.3566 48.4783H82.1846C81.9886 51.7933 79.4406 54.2583 75.7726 54.2583ZM91.8796 38.9583C94.5116 38.9583 96.6396 40.4883 96.6396 43.8033V53.8333H93.8956V44.5683C93.8956 42.6417 93.0556 41.3383 90.9836 41.3383C88.6316 41.3383 87.1196 42.7833 87.1196 44.965V53.8333H84.3756V33.575H87.1196V41.1967H87.1756C87.9316 40.0917 89.4156 38.9583 91.8796 38.9583ZM102.35 53.8333H99.6062V33.575H102.35V53.8333ZM108.37 36.805H105.262V33.8017H108.37V36.805ZM108.174 53.8333H105.43V39.3833H108.174V53.8333ZM116.882 54.23C112.542 54.23 110.386 51.9633 110.302 49.0167H113.074C113.186 50.6883 114.194 51.9917 116.854 51.9917C119.262 51.9917 119.906 50.915 119.906 49.8667C119.906 48.0533 118.002 47.855 116.154 47.4583C113.662 46.8633 110.806 46.1267 110.806 43.1233C110.806 40.63 112.794 38.9583 116.238 38.9583C120.158 38.9583 122.034 41.0833 122.23 43.5767H119.458C119.262 42.4717 118.674 41.1967 116.294 41.1967C114.446 41.1967 113.662 41.9333 113.662 43.01C113.662 44.5117 115.258 44.6533 117.274 45.1067C119.906 45.73 122.762 46.495 122.762 49.725C122.762 52.53 120.634 54.23 116.882 54.23ZM130.026 51.7083C130.502 51.7083 130.726 51.68 131.202 51.595V53.8333C130.502 53.975 130.054 54.0033 129.466 54.0033C127.114 54.0033 125.686 53.0967 125.686 49.7533V41.6783H123.614V39.3833H125.686V34.7367H128.43V39.3833H131.174V41.6783H128.43V49.8383C128.43 51.3683 128.85 51.7083 130.026 51.7083Z" fill="#FF9447"/>
<path d="M279.3 52.4167L275.1 48.1667M266.7 44.625C266.7 45.2762 266.827 45.9209 267.073 46.5225C267.32 47.1241 267.68 47.6706 268.135 48.1311C268.59 48.5915 269.131 48.9568 269.725 49.206C270.319 49.4551 270.957 49.5834 271.6 49.5834C272.243 49.5834 272.881 49.4551 273.475 49.206C274.07 48.9568 274.61 48.5915 275.065 48.1311C275.52 47.6706 275.881 47.1241 276.127 46.5225C276.374 45.9209 276.5 45.2762 276.5 44.625C276.5 43.9738 276.374 43.3291 276.127 42.7275C275.881 42.126 275.52 41.5794 275.065 41.119C274.61 40.6585 274.07 40.2933 273.475 40.0441C272.881 39.795 272.243 39.6667 271.6 39.6667C270.957 39.6667 270.319 39.795 269.725 40.0441C269.131 40.2933 268.59 40.6585 268.135 41.119C267.68 41.5794 267.32 42.126 267.073 42.7275C266.827 43.3291 266.7 43.9738 266.7 44.625Z" stroke="#FF9447" stroke-width="2.5" stroke-linecap="round" stroke-linejoin="round"/>
<path d="M-9.09961 102H310.45" stroke="#FF9447" stroke-linecap="round"/>
<path d="M22.8059 82.1666H21.2939V72.0375H23.3239L26.2079 79.9991H26.2359L29.1339 72.0375H31.1639V82.1666H29.6519V74.3041H29.6239L26.8659 82.1666H25.5919L22.8339 74.3041H22.8059V82.1666ZM33.7518 84.7025C33.4438 84.7025 33.2338 84.6741 32.8698 84.6033V83.47C33.1078 83.4983 33.2338 83.5125 33.4578 83.5125C34.0038 83.5125 34.6478 83.2291 34.9278 82.0958L32.0438 74.9416H33.5418L35.6278 80.4666H35.6558L37.6158 74.9416H39.0578L36.2298 82.3366C35.5438 84.1216 34.8578 84.7025 33.7518 84.7025ZM44.2441 82.1666H42.7041V72.0375H49.6481V73.3833H44.2441V76.4291H48.6121V77.775H44.2441V82.1666ZM51.7822 82.365C50.3542 82.365 49.4442 81.5291 49.4442 80.2966C49.4442 78.6816 50.6482 78.2 52.4262 77.86C53.5462 77.6475 54.2322 77.5058 54.2322 76.7975C54.2322 76.2733 53.9242 75.8341 52.8742 75.8341C51.6282 75.8341 51.2502 76.2308 51.1802 77.1941H49.7802C49.8502 75.8058 50.7462 74.715 52.9302 74.715C54.4002 74.715 55.5762 75.3383 55.5762 77.2083V80.5233C55.5762 81.0475 55.6462 81.3166 55.9122 81.3166C55.9542 81.3166 55.9962 81.3166 56.0802 81.3025V82.1525C55.8422 82.2091 55.6042 82.2375 55.3802 82.2375C54.6942 82.2375 54.3302 81.9683 54.2462 81.1466H54.2182C53.7562 81.8975 52.9442 82.365 51.7822 82.365ZM52.0902 81.2458C53.3222 81.2458 54.2322 80.6083 54.2322 79.3475V78.3133C54.0082 78.5258 53.3922 78.6816 52.6642 78.8375C51.4042 79.0925 50.8722 79.4466 50.8722 80.1975C50.8722 80.8775 51.2362 81.2458 52.0902 81.2458ZM60.402 82.1666H58.862L56.314 74.9416H57.784L59.66 80.7358H59.674L61.522 74.9416H62.95L60.402 82.1666ZM66.7815 82.3791C64.5555 82.3791 63.2115 80.8208 63.2115 78.5541C63.2115 76.3016 64.5555 74.715 66.7955 74.715C69.0075 74.715 70.3513 76.2875 70.3513 78.54C70.3513 80.8066 69.0075 82.3791 66.7815 82.3791ZM66.7955 81.2316C68.2515 81.2316 68.9235 80.0558 68.9235 78.5541C68.9235 77.0383 68.2515 75.8766 66.7955 75.8766C65.3115 75.8766 64.6395 77.0383 64.6395 78.5541C64.6395 80.0558 65.3115 81.2316 66.7955 81.2316ZM74.8369 74.7716C75.0889 74.7716 75.2849 74.7858 75.4949 74.8141V76.1458C75.3269 76.1175 75.2009 76.1033 75.0329 76.1033C73.7869 76.1033 72.8909 77.0525 72.8909 78.4266V82.1666H71.5189V74.9416H72.8909V76.3158H72.9189C73.2969 75.4091 73.8709 74.7716 74.8369 74.7716ZM77.856 73.6525H76.302V72.1508H77.856V73.6525ZM77.758 82.1666H76.386V74.9416H77.758V82.1666ZM81.9307 81.1041C82.1687 81.1041 82.2807 81.09 82.5187 81.0475V82.1666C82.1687 82.2375 81.9447 82.2516 81.6507 82.2516C80.4747 82.2516 79.7607 81.7983 79.7607 80.1266V76.0891H78.7247V74.9416H79.7607V72.6183H81.1327V74.9416H82.5047V76.0891H81.1327V80.1691C81.1327 80.9341 81.3427 81.1041 81.9307 81.1041ZM90.0479 78.3983C90.0479 78.5966 90.0479 78.8091 90.0339 78.9225H84.5459C84.5739 80.1266 85.2739 81.2458 86.6879 81.2458C87.9479 81.2458 88.4379 80.4241 88.5639 79.9425H89.9639C89.5859 81.3308 88.5359 82.3791 86.6599 82.3791C84.3919 82.3791 83.1319 80.75 83.1319 78.54C83.1319 76.2733 84.4759 74.715 86.6599 74.715C88.8299 74.715 90.0479 76.16 90.0479 78.3983ZM84.5459 77.8316H88.6199C88.6199 76.6983 87.8359 75.8483 86.6179 75.8483C85.4699 75.8483 84.6299 76.6416 84.5459 77.8316ZM94.0204 82.365C91.8504 82.365 90.7724 81.2316 90.7304 79.7583H92.1164C92.1724 80.5941 92.6764 81.2458 94.0064 81.2458C95.2104 81.2458 95.5324 80.7075 95.5324 80.1833C95.5324 79.2766 94.5804 79.1775 93.6564 78.9791C92.4104 78.6816 90.9824 78.3133 90.9824 76.8116C90.9824 75.565 91.9764 74.7291 93.6984 74.7291C95.6584 74.7291 96.5964 75.7916 96.6944 77.0383H95.3084C95.2104 76.4858 94.9164 75.8483 93.7264 75.8483C92.8024 75.8483 92.4104 76.2166 92.4104 76.755C92.4104 77.5058 93.2084 77.5766 94.2164 77.8033C95.5324 78.115 96.9604 78.4975 96.9604 80.1125C96.9604 81.515 95.8964 82.365 94.0204 82.365ZM102.411 82.1666V74.8991C101.991 75.2958 101.249 75.3666 100.381 75.3666V74.12C102.089 74.0775 102.593 73.5533 102.719 72.3775H103.923V82.1666H102.411Z" fill="white"/>
<path d="M114.101 74.375L120.051 80.0417L126.001 74.375" stroke="white" stroke-width="2" stroke-linecap="round" stroke-linejoin="round"/>
</g>
</g>
<defs>
<clipPath id="clip0_507_502">
<rect width="301" height="102" fill="white"/>
</clipPath>
</defs>
</svg>
