<svg width="143" height="309" viewBox="0 0 143 309" fill="none" xmlns="http://www.w3.org/2000/svg">
<g clip-path="url(#clip0_504_310)">
<mask id="mask0_504_310" style="mask-type:luminance" maskUnits="userSpaceOnUse" x="0" y="0" width="143" height="309">
<path d="M142.667 0H0.666992V309H142.667V0Z" fill="white"/>
</mask>
<g mask="url(#mask0_504_310)">
<path d="M142.667 0H0.666992V309H142.667V0Z" fill="#5096FF"/>
<path d="M14.4834 222.467V212.985H15.9364V222.467H14.4834ZM17.8115 222.467V212.985H19.4759L23.8614 220.279H23.8878V212.985H25.354V222.467H23.6897L19.291 215.173H19.2645V222.467H17.8115ZM30.0023 222.467L26.6735 212.985H28.2719L30.7816 220.928H30.7948L33.2914 212.985H34.8237L31.5742 222.467H30.0023ZM26.7132 217.149V215.915H34.7841V217.149H26.7132ZM27.4529 219.284V218.051H34.0444V219.284H27.4529ZM39.3988 222.652C37.0079 222.652 35.3303 221.406 35.2246 219.271H36.7305C36.8362 220.544 37.5891 221.406 39.3592 221.406C40.8782 221.406 41.3406 220.743 41.3406 219.881C41.3406 218.674 40.4159 218.501 38.6987 218.064C37.2193 217.666 35.5945 217.189 35.5945 215.385C35.5945 213.74 36.8626 212.799 38.8968 212.799C41.0499 212.799 42.4501 213.9 42.5954 215.809H41.0896C40.9311 214.669 40.2838 214.045 38.91 214.045C37.7212 214.045 37.1136 214.483 37.1136 215.305C37.1136 216.366 38.1043 216.592 39.3195 216.897C41.1424 217.361 42.8596 217.799 42.8596 219.801C42.8596 221.432 41.7632 222.652 39.3988 222.652ZM46.0903 222.467V214.244H43.0389V212.985H50.6079V214.244H47.5565V222.467H46.0903ZM57.1062 214.337L55.5739 218.952H58.6781L57.1326 214.337H57.1062ZM54.3587 222.467H52.8264L56.34 212.985H57.912L61.452 222.467H59.8669L59.0876 220.186H55.138L54.3587 222.467ZM64.934 222.666C62.9262 222.666 61.6185 221.207 61.6185 219.085C61.6185 216.963 62.9262 215.504 64.9208 215.504C66.6512 215.504 67.8004 216.632 67.9589 218.157H66.6248C66.5588 217.454 66.1625 216.578 64.934 216.578C63.4942 216.578 62.9658 217.812 62.9658 219.085C62.9658 220.358 63.4942 221.578 64.934 221.578C66.1757 221.578 66.5588 220.729 66.6248 219.96H67.9589C67.8665 221.512 66.6644 222.666 64.934 222.666ZM69.9965 220.623C69.9965 221.26 70.3399 221.605 71.1457 221.605C72.3081 221.605 73.1667 221.008 73.1667 219.828V218.86C72.9554 219.058 72.3742 219.204 71.6873 219.35C70.4984 219.589 69.9965 219.92 69.9965 220.623ZM70.8551 222.652C69.5077 222.652 68.6491 221.87 68.6491 220.716C68.6491 219.204 69.7851 218.753 71.4627 218.435C72.5195 218.236 73.1667 218.104 73.1667 217.441C73.1667 216.95 72.8761 216.539 71.8854 216.539C70.7098 216.539 70.3531 216.91 70.2871 217.812H68.9662C69.0322 216.512 69.8776 215.491 71.9383 215.491C73.3252 215.491 74.4348 216.075 74.4348 217.825V220.928C74.4348 221.419 74.5009 221.671 74.7518 221.671C74.7915 221.671 74.8311 221.671 74.9103 221.658V222.453C74.6858 222.507 74.4612 222.533 74.2499 222.533C73.6026 222.533 73.2592 222.281 73.1799 221.512H73.1535C72.7176 222.215 71.9515 222.652 70.8551 222.652ZM76.9495 219.085C76.9495 220.411 77.5704 221.578 78.8385 221.578C80.0009 221.578 80.7142 220.61 80.7142 219.085C80.7142 217.547 80.0009 216.592 78.8385 216.592C77.5704 216.592 76.9495 217.759 76.9495 219.085ZM78.6271 222.652C76.9099 222.652 75.6022 221.313 75.6022 219.085C75.6022 216.857 76.9099 215.504 78.6271 215.504C79.6839 215.504 80.3311 215.995 80.701 216.525H80.7274V212.985H82.0219V222.467H80.7274V221.671H80.701C80.3311 222.148 79.6839 222.652 78.6271 222.652ZM84.4696 218.409H88.3135C88.3135 217.348 87.5738 216.552 86.4246 216.552C85.3414 216.552 84.5488 217.295 84.4696 218.409ZM86.4642 222.666C84.3243 222.666 83.1354 221.141 83.1354 219.072C83.1354 216.95 84.4035 215.491 86.4642 215.491C88.5116 215.491 89.6608 216.844 89.6608 218.939C89.6608 219.125 89.6608 219.324 89.6476 219.43H84.4696C84.496 220.557 85.1565 221.605 86.4906 221.605C87.6795 221.605 88.1418 220.836 88.2607 220.385H89.5816C89.2249 221.684 88.2342 222.666 86.4642 222.666ZM94.7966 218.13C94.7966 217.228 94.6117 216.618 93.621 216.618C92.6567 216.618 92.0491 217.295 92.0491 218.316V222.467H90.7546V215.703H92.0491V216.552H92.0755C92.4322 216.035 93.053 215.504 94.0701 215.504C95.008 215.504 95.5892 215.929 95.8534 216.685H95.8798C96.3685 216.035 97.0554 215.504 98.0857 215.504C99.4463 215.504 100.133 216.327 100.133 217.772V222.467H98.8387V218.13C98.8387 217.228 98.6537 216.618 97.663 216.618C96.6988 216.618 96.0911 217.295 96.0911 218.316V222.467H94.7966V218.13ZM102.307 224.841C102.016 224.841 101.818 224.814 101.475 224.748V223.687C101.699 223.713 101.818 223.727 102.03 223.727C102.545 223.727 103.152 223.461 103.417 222.4L100.696 215.703H102.109L104.077 220.875H104.104L105.953 215.703H107.313L104.645 222.626C103.998 224.297 103.351 224.841 102.307 224.841Z" fill="black"/>
<path d="M14.847 242.359L13.6582 237.618H14.1668L15.131 241.67H15.1442L16.2538 237.618H16.7888L17.8984 241.67H17.9182L18.8825 237.618H19.3844L18.2022 242.359H17.6672L16.5312 238.189H16.5114L15.3754 242.359H14.847ZM21.0576 242.452C20.0273 242.452 19.4527 241.696 19.4527 240.669C19.4527 239.588 20.0867 238.891 21.0576 238.891C22.0285 238.891 22.5767 239.574 22.5767 240.516C22.5767 240.609 22.5767 240.702 22.5701 240.755H19.9018C19.9084 241.438 20.2716 242.081 21.0642 242.081C21.7577 242.081 22.0285 241.604 22.0945 241.325H22.5304C22.3653 241.942 21.903 242.452 21.0576 242.452ZM19.9018 240.377H22.1209C22.1209 239.773 21.7313 239.263 21.0378 239.263C20.3839 239.263 19.9348 239.747 19.9018 240.377ZM26.8952 240.078C26.8952 239.647 26.697 239.276 26.1158 239.276C25.4752 239.276 25.0525 239.727 25.0525 240.224V242.359H24.6232V237.618H25.0525V239.462H25.0657C25.2572 239.183 25.6205 238.898 26.2215 238.898C26.8225 238.898 27.3245 239.236 27.3245 239.986V242.359H26.8952V240.078ZM29.0178 242.446C28.3442 242.446 27.9149 242.068 27.9149 241.504C27.9149 240.775 28.43 240.543 29.3018 240.39C29.8566 240.291 30.2133 240.251 30.2133 239.846C30.2133 239.502 29.9887 239.269 29.4471 239.269C28.7933 239.269 28.5621 239.502 28.5291 239.999H28.0734C28.1064 239.402 28.4829 238.891 29.4604 238.891C30.0812 238.891 30.6294 239.157 30.6294 239.966V241.657C30.6294 241.928 30.669 242.054 30.8209 242.054C30.8473 242.054 30.8738 242.054 30.9134 242.048V242.359C30.8407 242.373 30.7681 242.386 30.6888 242.386C30.4048 242.386 30.2397 242.273 30.2133 241.849H30.2001C29.9689 242.233 29.566 242.446 29.0178 242.446ZM28.364 241.464C28.364 241.856 28.5819 242.068 29.0707 242.068C29.7576 242.068 30.2133 241.703 30.2133 241.093V240.463C30.1142 240.602 29.7576 240.682 29.3547 240.748C28.7008 240.868 28.364 241.033 28.364 241.464ZM32.2745 242.359L31.0395 238.978H31.515L32.5255 241.922H32.5321L33.536 238.978H33.9982L32.7633 242.359H32.2745ZM35.7891 242.452C34.7587 242.452 34.1841 241.696 34.1841 240.669C34.1841 239.588 34.8182 238.891 35.7891 238.891C36.76 238.891 37.3081 239.574 37.3081 240.516C37.3081 240.609 37.3081 240.702 37.3015 240.755H34.6333C34.6399 241.438 35.0031 242.081 35.7957 242.081C36.4892 242.081 36.76 241.604 36.826 241.325H37.2619C37.0968 241.942 36.6345 242.452 35.7891 242.452ZM34.6333 240.377H36.8524C36.8524 239.773 36.4627 239.263 35.7693 239.263C35.1154 239.263 34.6663 239.747 34.6333 240.377ZM40.2792 242.446C39.6056 242.446 39.1763 242.068 39.1763 241.504C39.1763 240.775 39.6914 240.543 40.5632 240.39C41.118 240.291 41.4747 240.251 41.4747 239.846C41.4747 239.502 41.2501 239.269 40.7085 239.269C40.0547 239.269 39.8235 239.502 39.7905 239.999H39.3348C39.3678 239.402 39.7443 238.891 40.7218 238.891C41.3426 238.891 41.8908 239.157 41.8908 239.966V241.657C41.8908 241.928 41.9304 242.054 42.0823 242.054C42.1087 242.054 42.1351 242.054 42.1748 242.048V242.359C42.1021 242.373 42.0295 242.386 41.9502 242.386C41.6662 242.386 41.5011 242.273 41.4747 241.849H41.4615C41.2303 242.233 40.8274 242.446 40.2792 242.446ZM39.6254 241.464C39.6254 241.856 39.8433 242.068 40.3321 242.068C41.019 242.068 41.4747 241.703 41.4747 241.093V240.463C41.3756 240.602 41.019 240.682 40.6161 240.748C39.9622 240.868 39.6254 241.033 39.6254 241.464ZM44.1922 242.359V237.618H44.6215V242.359H44.1922ZM45.4111 242.359V238.978H45.8404V242.359H45.4111ZM45.345 238.301V237.744H45.8998V238.301H45.345ZM48.2085 242.439C47.6206 242.439 47.2706 242.147 47.0725 241.783H47.0592V242.359H46.6299V237.618H47.0592V239.521H47.0725C47.2706 239.197 47.6206 238.891 48.2085 238.891C49.034 238.891 49.6945 239.555 49.6945 240.669C49.6945 241.776 49.034 242.439 48.2085 242.439ZM47.0592 240.669C47.0592 241.517 47.515 242.061 48.1622 242.061C48.8623 242.061 49.2454 241.425 49.2454 240.669C49.2454 239.906 48.8623 239.263 48.1622 239.263C47.515 239.263 47.0592 239.813 47.0592 240.669ZM50.7357 240.47V242.359H50.3064V238.978H50.7357V239.667H50.7489C50.9207 239.223 51.2311 238.898 51.7066 238.898C51.8255 238.898 51.918 238.905 51.9972 238.918V239.342C51.9312 239.329 51.8585 239.323 51.7925 239.323C51.1848 239.323 50.7357 239.813 50.7357 240.47ZM53.2369 242.446C52.5632 242.446 52.1339 242.068 52.1339 241.504C52.1339 240.775 52.6491 240.543 53.5209 240.39C54.0757 240.291 54.4323 240.251 54.4323 239.846C54.4323 239.502 54.2078 239.269 53.6662 239.269C53.0123 239.269 52.7812 239.502 52.7482 239.999H52.2924C52.3255 239.402 52.7019 238.891 53.6794 238.891C54.3003 238.891 54.8484 239.157 54.8484 239.966V241.657C54.8484 241.928 54.8881 242.054 55.04 242.054C55.0664 242.054 55.0928 242.054 55.1324 242.048V242.359C55.0598 242.373 54.9871 242.386 54.9079 242.386C54.6239 242.386 54.4588 242.273 54.4323 241.849H54.4191C54.188 242.233 53.7851 242.446 53.2369 242.446ZM52.583 241.464C52.583 241.856 52.801 242.068 53.2897 242.068C53.9766 242.068 54.4323 241.703 54.4323 241.093V240.463C54.3333 240.602 53.9766 240.682 53.5737 240.748C52.9199 240.868 52.583 241.033 52.583 241.464ZM56.1344 240.47V242.359H55.7051V238.978H56.1344V239.667H56.1476C56.3193 239.223 56.6297 238.898 57.1052 238.898C57.2241 238.898 57.3166 238.905 57.3959 238.918V239.342C57.3298 239.329 57.2572 239.323 57.1911 239.323C56.5835 239.323 56.1344 239.813 56.1344 240.47ZM58.1501 243.546C58.0444 243.546 57.9652 243.54 57.8265 243.52V243.149C57.9255 243.162 57.9784 243.168 58.0841 243.168C58.4011 243.168 58.6587 242.963 58.8436 242.34L57.483 238.978H57.9586L59.0549 241.796H59.0681L60.1117 238.978H60.574L59.2267 242.459C58.8964 243.301 58.5992 243.546 58.1501 243.546ZM63.7558 242.452C62.7453 242.452 62.1377 241.723 62.1377 240.675C62.1377 239.621 62.7453 238.891 63.7558 238.891C64.7663 238.891 65.3739 239.621 65.3739 240.675C65.3739 241.723 64.7663 242.452 63.7558 242.452ZM62.5868 240.675C62.5868 241.451 62.9698 242.074 63.7558 242.074C64.5418 242.074 64.9248 241.451 64.9248 240.675C64.9248 239.893 64.5418 239.269 63.7558 239.269C62.9698 239.269 62.5868 239.893 62.5868 240.675ZM66.1071 238.48C66.1071 237.744 66.3977 237.579 66.8798 237.579C66.9723 237.579 67.0515 237.585 67.2034 237.605V237.97C67.0845 237.963 67.0317 237.957 66.9392 237.957C66.6156 237.957 66.5364 238.056 66.5364 238.474V238.978H67.2034V239.356H66.5364V242.359H66.1071V239.356H65.6315V238.978H66.1071V238.48ZM70.9938 240.078C70.9938 239.654 70.8948 239.276 70.3334 239.276C69.7456 239.276 69.3889 239.734 69.3889 240.224V242.359H68.9596V238.978H69.3889V239.455H69.4021C69.5804 239.183 69.8975 238.898 70.4258 238.898C70.9014 238.898 71.2052 239.117 71.3307 239.521H71.3439C71.5618 239.183 71.9251 238.898 72.4601 238.898C73.1007 238.898 73.4508 239.283 73.4508 239.986V242.359H73.0215V240.078C73.0215 239.654 72.9224 239.276 72.3676 239.276C71.7732 239.276 71.4231 239.734 71.4231 240.224V242.359H70.9938V240.078ZM75.6495 242.452C74.6389 242.452 74.0313 241.723 74.0313 240.675C74.0313 239.621 74.6389 238.891 75.6495 238.891C76.66 238.891 77.2676 239.621 77.2676 240.675C77.2676 241.723 76.66 242.452 75.6495 242.452ZM74.4804 240.675C74.4804 241.451 74.8635 242.074 75.6495 242.074C76.4354 242.074 76.8185 241.451 76.8185 240.675C76.8185 239.893 76.4354 239.269 75.6495 239.269C74.8635 239.269 74.4804 239.893 74.4804 240.675ZM79.1744 242.446C78.3554 242.446 77.6949 241.783 77.6949 240.669C77.6949 239.561 78.3554 238.898 79.1744 238.898C79.7622 238.898 80.1122 239.19 80.3104 239.548H80.3236V237.618H80.7529V242.359H80.3236V241.809H80.3104C80.1188 242.141 79.7622 242.446 79.1744 242.446ZM78.144 240.669C78.144 241.431 78.5271 242.068 79.2272 242.068C79.8744 242.068 80.3236 241.524 80.3236 240.669C80.3236 239.82 79.8744 239.276 79.2272 239.276C78.5271 239.276 78.144 239.913 78.144 240.669ZM82.6263 242.439C82.0253 242.439 81.5233 242.101 81.5233 241.352V238.978H81.9526V241.259C81.9526 241.69 82.1507 242.061 82.732 242.061C83.3726 242.061 83.7953 241.61 83.7953 241.113V238.978H84.2246V242.359H83.7953V241.882H83.7821C83.5906 242.161 83.2273 242.439 82.6263 242.439ZM85.0195 242.359V237.618H85.4488V242.359H85.0195ZM87.6653 242.452C86.635 242.452 86.0604 241.696 86.0604 240.669C86.0604 239.588 86.6944 238.891 87.6653 238.891C88.6362 238.891 89.1844 239.574 89.1844 240.516C89.1844 240.609 89.1844 240.702 89.1778 240.755H86.5095C86.5161 241.438 86.8793 242.081 87.6719 242.081C88.3654 242.081 88.6362 241.604 88.7022 241.325H89.1381C88.973 241.942 88.5107 242.452 87.6653 242.452ZM86.5095 240.377H88.7286C88.7286 239.773 88.339 239.263 87.6455 239.263C86.9916 239.263 86.5425 239.747 86.5095 240.377ZM91.0277 242.446C90.0833 242.446 89.5681 241.928 89.5483 241.252H89.9974C90.0238 241.716 90.3276 242.068 91.0343 242.068C91.675 242.068 91.8929 241.769 91.8929 241.438C91.8929 240.94 91.391 240.887 90.9221 240.775C90.3012 240.616 89.6738 240.463 89.6738 239.807C89.6738 239.256 90.1097 238.898 90.8692 238.898C91.7476 238.898 92.1571 239.369 92.2166 239.926H91.7674C91.708 239.628 91.5297 239.276 90.8758 239.276C90.3937 239.276 90.1229 239.462 90.1229 239.78C90.1229 240.204 90.5786 240.264 91.0872 240.39C91.7212 240.543 92.3487 240.722 92.3487 241.424C92.3487 242.041 91.8599 242.446 91.0277 242.446ZM95.3237 242.386C94.835 242.386 94.5312 242.22 94.5312 241.484V239.356H94.0358V238.978H94.5312V237.85H94.9605V238.978H95.6407V239.356H94.9605V241.491C94.9605 241.909 95.0529 242.008 95.3832 242.008C95.4888 242.008 95.5417 242.001 95.6407 241.995V242.359C95.5086 242.379 95.4294 242.386 95.3237 242.386ZM97.5531 242.452C96.5426 242.452 95.935 241.723 95.935 240.675C95.935 239.621 96.5426 238.891 97.5531 238.891C98.5636 238.891 99.1713 239.621 99.1713 240.675C99.1713 241.723 98.5636 242.452 97.5531 242.452ZM96.3841 240.675C96.3841 241.451 96.7672 242.074 97.5531 242.074C98.3391 242.074 98.7221 241.451 98.7221 240.675C98.7221 239.893 98.3391 239.269 97.5531 239.269C96.7672 239.269 96.3841 239.893 96.3841 240.675ZM102.595 243.573C101.684 243.573 101.202 243.129 101.149 242.538H101.598C101.664 242.897 101.948 243.195 102.602 243.195C103.282 243.195 103.685 242.897 103.685 242.207V241.577H103.672C103.474 241.928 103.104 242.2 102.536 242.2C101.73 242.2 101.057 241.67 101.057 240.543C101.057 239.429 101.73 238.898 102.536 238.898C103.104 238.898 103.474 239.17 103.672 239.508H103.685V238.978H104.115V242.147C104.115 243.102 103.52 243.573 102.595 243.573ZM101.506 240.543C101.506 241.318 101.902 241.822 102.595 241.822C103.216 241.822 103.685 241.411 103.685 240.543C103.685 239.687 103.216 239.276 102.595 239.276C101.902 239.276 101.506 239.78 101.506 240.543ZM106.325 242.452C105.294 242.452 104.72 241.696 104.72 240.669C104.72 239.588 105.354 238.891 106.325 238.891C107.296 238.891 107.844 239.574 107.844 240.516C107.844 240.609 107.844 240.702 107.837 240.755H105.169C105.176 241.438 105.539 242.081 106.331 242.081C107.025 242.081 107.296 241.604 107.362 241.325H107.798C107.632 241.942 107.17 242.452 106.325 242.452ZM105.169 240.377H107.388C107.388 239.773 106.998 239.263 106.305 239.263C105.651 239.263 105.202 239.747 105.169 240.377ZM109.378 242.386C108.889 242.386 108.585 242.22 108.585 241.484V239.356H108.09V238.978H108.585V237.85H109.014V238.978H109.695V239.356H109.014V241.491C109.014 241.909 109.107 242.008 109.437 242.008C109.543 242.008 109.596 242.001 109.695 241.995V242.359C109.563 242.379 109.483 242.386 109.378 242.386ZM111.839 243.546C111.733 243.546 111.654 243.54 111.515 243.52V243.149C111.614 243.162 111.667 243.168 111.773 243.168C112.09 243.168 112.347 242.963 112.532 242.34L111.172 238.978H111.647L112.743 241.796H112.757L113.8 238.978H114.263L112.915 242.459C112.585 243.301 112.288 243.546 111.839 243.546ZM116.051 242.452C115.041 242.452 114.433 241.723 114.433 240.675C114.433 239.621 115.041 238.891 116.051 238.891C117.062 238.891 117.669 239.621 117.669 240.675C117.669 241.723 117.062 242.452 116.051 242.452ZM114.882 240.675C114.882 241.451 115.265 242.074 116.051 242.074C116.837 242.074 117.22 241.451 117.22 240.675C117.22 239.893 116.837 239.269 116.051 239.269C115.265 239.269 114.882 239.893 114.882 240.675ZM119.352 242.439C118.75 242.439 118.249 242.101 118.249 241.352V238.978H118.678V241.259C118.678 241.69 118.876 242.061 119.457 242.061C120.098 242.061 120.521 241.61 120.521 241.113V238.978H120.95V242.359H120.521V241.882H120.508C120.316 242.161 119.953 242.439 119.352 242.439ZM15.1839 251.397C14.2394 251.397 13.7242 250.88 13.7044 250.204H14.1536C14.18 250.668 14.4838 251.019 15.1905 251.019C15.8311 251.019 16.0491 250.721 16.0491 250.389C16.0491 249.892 15.5471 249.839 15.0782 249.726C14.4574 249.567 13.8299 249.415 13.8299 248.758C13.8299 248.208 14.2658 247.85 15.0254 247.85C15.9038 247.85 16.3133 248.321 16.3727 248.878H15.9236C15.8642 248.579 15.6858 248.228 15.032 248.228C14.5498 248.228 14.279 248.413 14.279 248.732C14.279 249.156 14.7348 249.216 15.2433 249.342C15.8774 249.494 16.5048 249.673 16.5048 250.376C16.5048 250.993 16.0161 251.397 15.1839 251.397ZM18.0027 251.338C17.514 251.338 17.2102 251.172 17.2102 250.436V248.307H16.7148V247.929H17.2102V246.802H17.6395V247.929H18.3197V248.307H17.6395V250.443C17.6395 250.86 17.7319 250.96 18.0622 250.96C18.1678 250.96 18.2207 250.953 18.3197 250.946V251.311C18.1876 251.331 18.1084 251.338 18.0027 251.338ZM19.801 251.397C19.1273 251.397 18.698 251.019 18.698 250.456C18.698 249.726 19.2132 249.494 20.085 249.342C20.6398 249.242 20.9964 249.203 20.9964 248.798C20.9964 248.453 20.7719 248.221 20.2303 248.221C19.5764 248.221 19.3453 248.453 19.3122 248.951H18.8565C18.8895 248.354 19.266 247.843 20.2435 247.843C20.8643 247.843 21.4125 248.108 21.4125 248.917V250.608C21.4125 250.88 21.4522 251.006 21.6041 251.006C21.6305 251.006 21.6569 251.006 21.6965 251V251.311C21.6239 251.324 21.5512 251.338 21.472 251.338C21.188 251.338 21.0229 251.225 20.9964 250.801H20.9832C20.7521 251.185 20.3492 251.397 19.801 251.397ZM19.1471 250.416C19.1471 250.807 19.3651 251.019 19.8538 251.019C20.5407 251.019 20.9964 250.655 20.9964 250.045V249.415C20.8974 249.554 20.5407 249.634 20.1378 249.7C19.484 249.819 19.1471 249.985 19.1471 250.416ZM22.6983 249.421V251.311H22.269V247.929H22.6983V248.619H22.7115C22.8832 248.175 23.1936 247.85 23.6691 247.85C23.788 247.85 23.8805 247.856 23.9597 247.87V248.294C23.8937 248.281 23.821 248.274 23.755 248.274C23.1474 248.274 22.6983 248.765 22.6983 249.421ZM25.3943 251.338C24.9055 251.338 24.6017 251.172 24.6017 250.436V248.307H24.1064V247.929H24.6017V246.802H25.031V247.929H25.7113V248.307H25.031V250.443C25.031 250.86 25.1235 250.96 25.4537 250.96C25.5594 250.96 25.6122 250.953 25.7113 250.946V251.311C25.5792 251.331 25.4999 251.338 25.3943 251.338ZM27.6171 251.404C26.5867 251.404 26.0121 250.648 26.0121 249.62C26.0121 248.539 26.6462 247.843 27.6171 247.843C28.588 247.843 29.1361 248.526 29.1361 249.468C29.1361 249.561 29.1361 249.653 29.1295 249.706H26.4613C26.4679 250.389 26.8311 251.033 27.6237 251.033C28.3172 251.033 28.588 250.555 28.654 250.277H29.0899C28.9248 250.893 28.4625 251.404 27.6171 251.404ZM26.4613 249.329H28.6804C28.6804 248.725 28.2907 248.215 27.5973 248.215C26.9434 248.215 26.4943 248.699 26.4613 249.329ZM31.039 251.397C30.22 251.397 29.5596 250.734 29.5596 249.62C29.5596 248.513 30.22 247.85 31.039 247.85C31.6268 247.85 31.9769 248.142 32.175 248.5H32.1882V246.57H32.6175V251.311H32.1882V250.761H32.175C31.9835 251.092 31.6268 251.397 31.039 251.397ZM30.0087 249.62C30.0087 250.383 30.3917 251.019 31.0918 251.019C31.7391 251.019 32.1882 250.476 32.1882 249.62C32.1882 248.772 31.7391 248.228 31.0918 248.228C30.3917 248.228 30.0087 248.864 30.0087 249.62ZM35.4961 251.311L34.4262 247.929H34.9017L35.7405 250.82H35.7537L36.5397 247.929H37.0218L37.8078 250.82H37.821L38.6664 247.929H39.1287L38.0522 251.311H37.57L36.7775 248.453H36.7642L35.9717 251.311H35.4961ZM39.6062 251.311V247.929H40.0355V251.311H39.6062ZM39.5402 247.253V246.696H40.095V247.253H39.5402ZM41.8026 251.338C41.3139 251.338 41.01 251.172 41.01 250.436V248.307H40.5147V247.929H41.01V246.802H41.4393V247.929H42.1196V248.307H41.4393V250.443C41.4393 250.86 41.5318 250.96 41.862 250.96C41.9677 250.96 42.0206 250.953 42.1196 250.946V251.311C41.9875 251.331 41.9083 251.338 41.8026 251.338ZM44.9484 249.03C44.9484 248.599 44.7503 248.228 44.169 248.228C43.5284 248.228 43.1057 248.679 43.1057 249.176V251.311H42.6764V246.57H43.1057V248.413H43.1189C43.3104 248.135 43.6737 247.85 44.2747 247.85C44.8757 247.85 45.3777 248.188 45.3777 248.937V251.311H44.9484V249.03ZM47.7336 252.498C47.6279 252.498 47.5486 252.491 47.41 252.472V252.1C47.509 252.114 47.5619 252.12 47.6675 252.12C47.9846 252.12 48.2421 251.915 48.4271 251.291L47.0665 247.929H47.542L48.6384 250.748H48.6516L49.6952 247.929H50.1575L48.8101 251.411C48.4799 252.253 48.1827 252.498 47.7336 252.498ZM51.946 251.404C50.9355 251.404 50.3279 250.675 50.3279 249.627C50.3279 248.573 50.9355 247.843 51.946 247.843C52.9565 247.843 53.5642 248.573 53.5642 249.627C53.5642 250.675 52.9565 251.404 51.946 251.404ZM50.777 249.627C50.777 250.403 51.1601 251.026 51.946 251.026C52.732 251.026 53.115 250.403 53.115 249.627C53.115 248.844 52.732 248.221 51.946 248.221C51.1601 248.221 50.777 248.844 50.777 249.627ZM55.2464 251.391C54.6453 251.391 54.1434 251.053 54.1434 250.303V247.929H54.5727V250.21C54.5727 250.641 54.7708 251.013 55.352 251.013C55.9927 251.013 56.4154 250.562 56.4154 250.065V247.929H56.8447V251.311H56.4154V250.834H56.4022C56.2106 251.112 55.8474 251.391 55.2464 251.391ZM58.0692 249.421V251.311H57.6399V247.929H58.0692V248.619H58.0824C58.2541 248.175 58.5645 247.85 59.0401 247.85C59.159 247.85 59.2514 247.856 59.3307 247.87V248.294C59.2646 248.281 59.192 248.274 59.1259 248.274C58.5183 248.274 58.0692 248.765 58.0692 249.421ZM61.0776 251.311V247.929H61.5069V251.311H61.0776ZM61.0116 247.253V246.696H61.5664V247.253H61.0116ZM64.5688 249.03C64.5688 248.599 64.3707 248.228 63.7895 248.228C63.1488 248.228 62.7261 248.679 62.7261 249.176V251.311H62.2968V247.929H62.7261V248.413H62.7393C62.9309 248.135 63.2941 247.85 63.8952 247.85C64.4962 247.85 64.9981 248.188 64.9981 248.937V251.311H64.5688V249.03ZM66.607 251.311L65.372 247.929H65.8475L66.858 250.874H66.8646L67.8685 247.929H68.3308L67.0958 251.311H66.607ZM70.1217 251.404C69.0914 251.404 68.5168 250.648 68.5168 249.62C68.5168 248.539 69.1508 247.843 70.1217 247.843C71.0926 247.843 71.6408 248.526 71.6408 249.468C71.6408 249.561 71.6408 249.653 71.6342 249.706H68.9659C68.9725 250.389 69.3357 251.033 70.1283 251.033C70.8218 251.033 71.0926 250.555 71.1586 250.277H71.5945C71.4294 250.893 70.9671 251.404 70.1217 251.404ZM68.9659 249.329H71.185C71.185 248.725 70.7954 248.215 70.1019 248.215C69.448 248.215 68.9989 248.699 68.9659 249.329ZM73.4841 251.397C72.5397 251.397 72.0245 250.88 72.0047 250.204H72.4538C72.4802 250.668 72.784 251.019 73.4907 251.019C74.1314 251.019 74.3493 250.721 74.3493 250.389C74.3493 249.892 73.8474 249.839 73.3784 249.726C72.7576 249.567 72.1302 249.415 72.1302 248.758C72.1302 248.208 72.5661 247.85 73.3256 247.85C74.204 247.85 74.6135 248.321 74.673 248.878H74.2238C74.1644 248.579 73.9861 248.228 73.3322 248.228C72.8501 248.228 72.5793 248.413 72.5793 248.732C72.5793 249.156 73.035 249.216 73.5436 249.342C74.1776 249.494 74.8051 249.673 74.8051 250.376C74.8051 250.993 74.3163 251.397 73.4841 251.397ZM76.303 251.338C75.8142 251.338 75.5104 251.172 75.5104 250.436V248.307H75.0151V247.929H75.5104V246.802H75.9397V247.929H76.62V248.307H75.9397V250.443C75.9397 250.86 76.0322 250.96 76.3624 250.96C76.4681 250.96 76.5209 250.953 76.62 250.946V251.311C76.4879 251.331 76.4087 251.338 76.303 251.338ZM77.1765 251.311V247.929H77.6058V251.311H77.1765ZM77.1104 247.253V246.696H77.6652V247.253H77.1104ZM80.6677 249.03C80.6677 248.599 80.4695 248.228 79.8883 248.228C79.2477 248.228 78.825 248.679 78.825 249.176V251.311H78.3957V247.929H78.825V248.413H78.8382C79.0297 248.135 79.393 247.85 79.994 247.85C80.595 247.85 81.097 248.188 81.097 248.937V251.311H80.6677V249.03ZM83.2395 252.525C82.3281 252.525 81.8459 252.08 81.7931 251.49H82.2422C82.3083 251.848 82.5923 252.147 83.2461 252.147C83.9264 252.147 84.3293 251.848 84.3293 251.159V250.529H84.3161C84.1179 250.88 83.7481 251.152 83.1801 251.152C82.3743 251.152 81.7006 250.622 81.7006 249.494C81.7006 248.38 82.3743 247.85 83.1801 247.85C83.7481 247.85 84.1179 248.122 84.3161 248.46H84.3293V247.929H84.7586V251.099C84.7586 252.054 84.1642 252.525 83.2395 252.525ZM82.1498 249.494C82.1498 250.27 82.546 250.774 83.2395 250.774C83.8604 250.774 84.3293 250.363 84.3293 249.494C84.3293 248.639 83.8604 248.228 83.2395 248.228C82.546 248.228 82.1498 248.732 82.1498 249.494ZM86.7555 252.505C86.6432 252.505 86.564 252.498 86.4319 252.478V252.107C86.5309 252.12 86.5838 252.127 86.6829 252.127C86.9008 252.127 86.9867 252.001 86.9867 251.603V247.929H87.416V251.636C87.416 252.293 87.1122 252.505 86.7555 252.505ZM86.9206 247.253V246.696H87.4754V247.253H86.9206ZM89.6391 251.404C88.6286 251.404 88.021 250.675 88.021 249.627C88.021 248.573 88.6286 247.843 89.6391 247.843C90.6496 247.843 91.2572 248.573 91.2572 249.627C91.2572 250.675 90.6496 251.404 89.6391 251.404ZM88.4701 249.627C88.4701 250.403 88.8531 251.026 89.6391 251.026C90.4251 251.026 90.8081 250.403 90.8081 249.627C90.8081 248.844 90.4251 248.221 89.6391 248.221C88.8531 248.221 88.4701 248.844 88.4701 249.627ZM92.9394 251.391C92.3384 251.391 91.8365 251.053 91.8365 250.303V247.929H92.2658V250.21C92.2658 250.641 92.4639 251.013 93.0451 251.013C93.6858 251.013 94.1085 250.562 94.1085 250.065V247.929H94.5378V251.311H94.1085V250.834H94.0953C93.9037 251.112 93.5405 251.391 92.9394 251.391ZM95.7623 249.421V251.311H95.333V247.929H95.7623V248.619H95.7755C95.9472 248.175 96.2576 247.85 96.7332 247.85C96.852 247.85 96.9445 247.856 97.0238 247.87V248.294C96.9577 248.281 96.8851 248.274 96.819 248.274C96.2114 248.274 95.7623 248.765 95.7623 249.421ZM99.7528 249.03C99.7528 248.599 99.5547 248.228 98.9734 248.228C98.3328 248.228 97.9101 248.679 97.9101 249.176V251.311H97.4808V247.929H97.9101V248.413H97.9233C98.1148 248.135 98.4781 247.85 99.0791 247.85C99.6801 247.85 100.182 248.188 100.182 248.937V251.311H99.7528V249.03ZM102.377 251.404C101.347 251.404 100.773 250.648 100.773 249.62C100.773 248.539 101.407 247.843 102.377 247.843C103.348 247.843 103.897 248.526 103.897 249.468C103.897 249.561 103.897 249.653 103.89 249.706H101.222C101.228 250.389 101.592 251.033 102.384 251.033C103.078 251.033 103.348 250.555 103.414 250.277H103.85C103.685 250.893 103.223 251.404 102.377 251.404ZM101.222 249.329H103.441C103.441 248.725 103.051 248.215 102.358 248.215C101.704 248.215 101.255 248.699 101.222 249.329ZM104.731 252.498C104.625 252.498 104.546 252.491 104.407 252.472V252.1C104.506 252.114 104.559 252.12 104.665 252.12C104.982 252.12 105.239 251.915 105.424 251.291L104.064 247.929H104.539L105.636 250.748H105.649L106.692 247.929H107.155L105.807 251.411C105.477 252.253 105.18 252.498 104.731 252.498ZM107.141 251.311V250.754H107.696V251.311H107.141ZM110.804 251.311V246.994H109.199V246.57H112.891V246.994H111.28V251.311H110.804ZM115.639 249.03C115.639 248.599 115.44 248.228 114.859 248.228C114.219 248.228 113.796 248.679 113.796 249.176V251.311H113.367V246.57H113.796V248.413H113.809C114.001 248.135 114.364 247.85 114.965 247.85C115.566 247.85 116.068 248.188 116.068 248.937V251.311H115.639V249.03ZM118.263 251.404C117.233 251.404 116.658 250.648 116.658 249.62C116.658 248.539 117.292 247.843 118.263 247.843C119.234 247.843 119.782 248.526 119.782 249.468C119.782 249.561 119.782 249.653 119.776 249.706H117.108C117.114 250.389 117.477 251.033 118.27 251.033C118.963 251.033 119.234 250.555 119.3 250.277H119.736C119.571 250.893 119.109 251.404 118.263 251.404ZM117.108 249.329H119.327C119.327 248.725 118.937 248.215 118.244 248.215C117.59 248.215 117.141 248.699 117.108 249.329ZM15.9764 257.982C15.9764 257.557 15.8774 257.18 15.316 257.18C14.7282 257.18 14.3715 257.637 14.3715 258.128V260.263H13.9422V256.881H14.3715V257.359H14.3847C14.563 257.087 14.8801 256.802 15.4084 256.802C15.884 256.802 16.1878 257.02 16.3133 257.425H16.3265C16.5444 257.087 16.9077 256.802 17.4427 256.802C18.0833 256.802 18.4334 257.186 18.4334 257.889V260.263H18.0041V257.982C18.0041 257.557 17.905 257.18 17.3502 257.18C16.7558 257.18 16.4057 257.637 16.4057 258.128V260.263H15.9764V257.982ZM20.6321 260.356C19.6215 260.356 19.0139 259.626 19.0139 258.579C19.0139 257.524 19.6215 256.795 20.6321 256.795C21.6426 256.795 22.2502 257.524 22.2502 258.579C22.2502 259.626 21.6426 260.356 20.6321 260.356ZM19.463 258.579C19.463 259.354 19.8461 259.978 20.6321 259.978C21.418 259.978 21.8011 259.354 21.8011 258.579C21.8011 257.796 21.418 257.173 20.6321 257.173C19.8461 257.173 19.463 257.796 19.463 258.579ZM24.157 260.349C23.338 260.349 22.6776 259.686 22.6776 258.572C22.6776 257.465 23.338 256.802 24.157 256.802C24.7448 256.802 25.0949 257.093 25.293 257.451H25.3062V255.522H25.7355V260.263H25.3062V259.713H25.293C25.1015 260.044 24.7448 260.349 24.157 260.349ZM23.1267 258.572C23.1267 259.335 23.5098 259.971 24.2099 259.971C24.8571 259.971 25.3062 259.427 25.3062 258.572C25.3062 257.723 24.8571 257.18 24.2099 257.18C23.5098 257.18 23.1267 257.816 23.1267 258.572ZM27.6089 260.342C27.0079 260.342 26.5059 260.004 26.5059 259.255V256.881H26.9352V259.162C26.9352 259.593 27.1333 259.964 27.7146 259.964C28.3552 259.964 28.7779 259.514 28.7779 259.016V256.881H29.2072V260.263H28.7779V259.785H28.7647C28.5732 260.064 28.2099 260.342 27.6089 260.342ZM30.0023 260.263V255.522H30.4316V260.263H30.0023ZM32.648 260.356C31.6176 260.356 31.043 259.6 31.043 258.572C31.043 257.491 31.6771 256.795 32.648 256.795C33.6188 256.795 34.167 257.478 34.167 258.42C34.167 258.512 34.167 258.605 34.1604 258.658H31.4921C31.4988 259.341 31.862 259.984 32.6546 259.984C33.3481 259.984 33.6188 259.507 33.6849 259.228H34.1207C33.9556 259.845 33.4934 260.356 32.648 260.356ZM31.4921 258.28H33.7112C33.7112 257.677 33.3216 257.166 32.6281 257.166C31.9743 257.166 31.5252 257.65 31.4921 258.28ZM36.0103 260.349C35.0659 260.349 34.5507 259.832 34.5309 259.156H34.98C35.0064 259.62 35.3102 259.971 36.0169 259.971C36.6576 259.971 36.8755 259.673 36.8755 259.341C36.8755 258.844 36.3736 258.791 35.9046 258.678C35.2838 258.519 34.6564 258.366 34.6564 257.71C34.6564 257.16 35.0923 256.802 35.8518 256.802C36.7302 256.802 37.1397 257.272 37.1992 257.829H36.75C36.6906 257.531 36.5123 257.18 35.8584 257.18C35.3763 257.18 35.1055 257.365 35.1055 257.683C35.1055 258.108 35.5612 258.168 36.0698 258.294C36.7038 258.446 37.3313 258.625 37.3313 259.328C37.3313 259.945 36.8425 260.349 36.0103 260.349ZM40.2535 260.349C39.5798 260.349 39.1505 259.971 39.1505 259.407C39.1505 258.678 39.6657 258.446 40.5375 258.294C41.0923 258.194 41.4489 258.154 41.4489 257.75C41.4489 257.405 41.2244 257.173 40.6828 257.173C40.0289 257.173 39.7978 257.405 39.7647 257.902H39.309C39.342 257.306 39.7185 256.795 40.696 256.795C41.3168 256.795 41.865 257.06 41.865 257.869V259.56C41.865 259.832 41.9046 259.958 42.0565 259.958C42.083 259.958 42.1094 259.958 42.149 259.951V260.263C42.0764 260.276 42.0037 260.289 41.9245 260.289C41.6405 260.289 41.4753 260.177 41.4489 259.752H41.4357C41.2046 260.137 40.8017 260.349 40.2535 260.349ZM39.5996 259.368C39.5996 259.759 39.8176 259.971 40.3063 259.971C40.9932 259.971 41.4489 259.606 41.4489 258.996V258.366C41.3499 258.506 40.9932 258.585 40.5903 258.652C39.9365 258.771 39.5996 258.937 39.5996 259.368ZM43.1506 258.373V260.263H42.7213V256.881H43.1506V257.571H43.1638C43.3355 257.126 43.646 256.802 44.1215 256.802C44.2404 256.802 44.3328 256.808 44.4121 256.821V257.246C44.3461 257.233 44.2734 257.226 44.2074 257.226C43.5997 257.226 43.1506 257.717 43.1506 258.373ZM46.1088 260.356C45.0785 260.356 44.5039 259.6 44.5039 258.572C44.5039 257.491 45.138 256.795 46.1088 256.795C47.0797 256.795 47.6279 257.478 47.6279 258.42C47.6279 258.512 47.6279 258.605 47.6213 258.658H44.953C44.9596 259.341 45.3229 259.984 46.1154 259.984C46.8089 259.984 47.0797 259.507 47.1458 259.228H47.5817C47.4166 259.845 46.9542 260.356 46.1088 260.356ZM44.953 258.28H47.1722C47.1722 257.677 46.7825 257.166 46.089 257.166C45.4352 257.166 44.986 257.65 44.953 258.28ZM50.9755 260.349C50.1565 260.349 49.496 259.686 49.496 258.572C49.496 257.465 50.1565 256.802 50.9755 256.802C51.5633 256.802 51.9133 257.093 52.1115 257.451H52.1247V255.522H52.554V260.263H52.1247V259.713H52.1115C51.9199 260.044 51.5633 260.349 50.9755 260.349ZM49.9451 258.572C49.9451 259.335 50.3282 259.971 51.0283 259.971C51.6756 259.971 52.1247 259.427 52.1247 258.572C52.1247 257.723 51.6756 257.18 51.0283 257.18C50.3282 257.18 49.9451 257.816 49.9451 258.572ZM54.7774 260.356C53.7471 260.356 53.1725 259.6 53.1725 258.572C53.1725 257.491 53.8066 256.795 54.7774 256.795C55.7483 256.795 56.2965 257.478 56.2965 258.42C56.2965 258.512 56.2965 258.605 56.2899 258.658H53.6216C53.6282 259.341 53.9915 259.984 54.784 259.984C55.4775 259.984 55.7483 259.507 55.8144 259.228H56.2503C56.0852 259.845 55.6228 260.356 54.7774 260.356ZM53.6216 258.28H55.8408C55.8408 257.677 55.4511 257.166 54.7576 257.166C54.1038 257.166 53.6546 257.65 53.6216 258.28ZM58.1399 260.349C57.1954 260.349 56.6802 259.832 56.6604 259.156H57.1095C57.136 259.62 57.4398 259.971 58.1465 259.971C58.7871 259.971 59.0051 259.673 59.0051 259.341C59.0051 258.844 58.5031 258.791 58.0342 258.678C57.4134 258.519 56.7859 258.366 56.7859 257.71C56.7859 257.16 57.2218 256.802 57.9814 256.802C58.8598 256.802 59.2693 257.272 59.3287 257.829H58.8796C58.8201 257.531 58.6418 257.18 57.988 257.18C57.5058 257.18 57.235 257.365 57.235 257.683C57.235 258.108 57.6908 258.168 58.1993 258.294C58.8334 258.446 59.4608 258.625 59.4608 259.328C59.4608 259.945 58.972 260.349 58.1399 260.349ZM60.0136 260.263V256.881H60.4429V260.263H60.0136ZM59.9476 256.205V255.648H60.5023V256.205H59.9476ZM62.6063 261.476C61.6948 261.476 61.2127 261.032 61.1598 260.442H61.609C61.675 260.8 61.959 261.098 62.6129 261.098C63.2931 261.098 63.696 260.8 63.696 260.11V259.48H63.6828C63.4847 259.832 63.1148 260.104 62.5468 260.104C61.7411 260.104 61.0674 259.573 61.0674 258.446C61.0674 257.332 61.7411 256.802 62.5468 256.802C63.1148 256.802 63.4847 257.073 63.6828 257.412H63.696V256.881H64.1253V260.051C64.1253 261.006 63.5309 261.476 62.6063 261.476ZM61.5165 258.446C61.5165 259.222 61.9128 259.726 62.6063 259.726C63.2271 259.726 63.696 259.315 63.696 258.446C63.696 257.591 63.2271 257.18 62.6063 257.18C61.9128 257.18 61.5165 257.683 61.5165 258.446ZM67.181 257.982C67.181 257.551 66.9828 257.18 66.4016 257.18C65.761 257.18 65.3383 257.63 65.3383 258.128V260.263H64.909V256.881H65.3383V257.365H65.3515C65.543 257.087 65.9063 256.802 66.5073 256.802C67.1083 256.802 67.6103 257.14 67.6103 257.889V260.263H67.181V257.982ZM69.8057 260.356C68.7753 260.356 68.2007 259.6 68.2007 258.572C68.2007 257.491 68.8348 256.795 69.8057 256.795C70.7765 256.795 71.3247 257.478 71.3247 258.42C71.3247 258.512 71.3247 258.605 71.3181 258.658H68.6498C68.6565 259.341 69.0197 259.984 69.8123 259.984C70.5058 259.984 70.7765 259.507 70.8426 259.228H71.2785C71.1134 259.845 70.6511 260.356 69.8057 260.356ZM68.6498 258.28H70.869C70.869 257.677 70.4793 257.166 69.7858 257.166C69.132 257.166 68.6829 257.65 68.6498 258.28ZM73.2275 260.349C72.4086 260.349 71.7481 259.686 71.7481 258.572C71.7481 257.465 72.4086 256.802 73.2275 256.802C73.8153 256.802 74.1654 257.093 74.3635 257.451H74.3767V255.522H74.806V260.263H74.3767V259.713H74.3635C74.172 260.044 73.8153 260.349 73.2275 260.349ZM72.1972 258.572C72.1972 259.335 72.5803 259.971 73.2804 259.971C73.9276 259.971 74.3767 259.427 74.3767 258.572C74.3767 257.723 73.9276 257.18 73.2804 257.18C72.5803 257.18 72.1972 257.816 72.1972 258.572ZM78.0251 260.289C77.5364 260.289 77.2326 260.124 77.2326 259.388V257.259H76.7372V256.881H77.2326V255.754H77.6619V256.881H78.3422V257.259H77.6619V259.394C77.6619 259.812 77.7544 259.911 78.0846 259.911C78.1903 259.911 78.2431 259.905 78.3422 259.898V260.263C78.2101 260.283 78.1308 260.289 78.0251 260.289ZM80.2545 260.356C79.244 260.356 78.6364 259.626 78.6364 258.579C78.6364 257.524 79.244 256.795 80.2545 256.795C81.2651 256.795 81.8727 257.524 81.8727 258.579C81.8727 259.626 81.2651 260.356 80.2545 260.356ZM79.0855 258.579C79.0855 259.354 79.4686 259.978 80.2545 259.978C81.0405 259.978 81.4236 259.354 81.4236 258.579C81.4236 257.796 81.0405 257.173 80.2545 257.173C79.4686 257.173 79.0855 257.796 79.0855 258.579ZM85.5016 260.342C84.9138 260.342 84.5638 260.051 84.3656 259.693H84.3524V261.437H83.9231V256.881H84.3524V257.425H84.3656C84.5638 257.1 84.9138 256.795 85.5016 256.795C86.3272 256.795 86.9877 257.458 86.9877 258.572C86.9877 259.679 86.3272 260.342 85.5016 260.342ZM84.3524 258.572C84.3524 259.421 84.8081 259.964 85.4554 259.964C86.1555 259.964 86.5385 259.328 86.5385 258.572C86.5385 257.809 86.1555 257.173 85.4554 257.173C84.8081 257.173 84.3524 257.717 84.3524 258.572ZM88.0289 258.373V260.263H87.5996V256.881H88.0289V257.571H88.0421C88.2138 257.126 88.5242 256.802 88.9998 256.802C89.1186 256.802 89.2111 256.808 89.2904 256.821V257.246C89.2243 257.233 89.1517 257.226 89.0856 257.226C88.478 257.226 88.0289 257.717 88.0289 258.373ZM90.9934 260.356C89.9829 260.356 89.3752 259.626 89.3752 258.579C89.3752 257.524 89.9829 256.795 90.9934 256.795C92.0039 256.795 92.6115 257.524 92.6115 258.579C92.6115 259.626 92.0039 260.356 90.9934 260.356ZM89.8244 258.579C89.8244 259.354 90.2074 259.978 90.9934 259.978C91.7793 259.978 92.1624 259.354 92.1624 258.579C92.1624 257.796 91.7793 257.173 90.9934 257.173C90.2074 257.173 89.8244 257.796 89.8244 258.579ZM94.5913 261.476C93.6798 261.476 93.1977 261.032 93.1448 260.442H93.594C93.66 260.8 93.944 261.098 94.5979 261.098C95.2781 261.098 95.681 260.8 95.681 260.11V259.48H95.6678C95.4697 259.832 95.0998 260.104 94.5318 260.104C93.7261 260.104 93.0524 259.573 93.0524 258.446C93.0524 257.332 93.7261 256.802 94.5318 256.802C95.0998 256.802 95.4697 257.073 95.6678 257.412H95.681V256.881H96.1103V260.051C96.1103 261.006 95.5159 261.476 94.5913 261.476ZM93.5015 258.446C93.5015 259.222 93.8978 259.726 94.5913 259.726C95.2121 259.726 95.681 259.315 95.681 258.446C95.681 257.591 95.2121 257.18 94.5913 257.18C93.8978 257.18 93.5015 257.683 93.5015 258.446ZM97.3229 258.373V260.263H96.8936V256.881H97.3229V257.571H97.3362C97.5079 257.126 97.8183 256.802 98.2938 256.802C98.4127 256.802 98.5052 256.808 98.5844 256.821V257.246C98.5184 257.233 98.4457 257.226 98.3797 257.226C97.7721 257.226 97.3229 257.717 97.3229 258.373ZM100.281 260.356C99.2508 260.356 98.6762 259.6 98.6762 258.572C98.6762 257.491 99.3103 256.795 100.281 256.795C101.252 256.795 101.8 257.478 101.8 258.42C101.8 258.512 101.8 258.605 101.794 258.658H99.1254C99.132 259.341 99.4952 259.984 100.288 259.984C100.981 259.984 101.252 259.507 101.318 259.228H101.754C101.589 259.845 101.127 260.356 100.281 260.356ZM99.1254 258.28H101.345C101.345 257.677 100.955 257.166 100.261 257.166C99.6075 257.166 99.1584 257.65 99.1254 258.28ZM103.644 260.349C102.699 260.349 102.184 259.832 102.164 259.156H102.613C102.64 259.62 102.944 259.971 103.65 259.971C104.291 259.971 104.509 259.673 104.509 259.341C104.509 258.844 104.007 258.791 103.538 258.678C102.917 258.519 102.29 258.366 102.29 257.71C102.29 257.16 102.726 256.802 103.485 256.802C104.364 256.802 104.773 257.272 104.832 257.829H104.383C104.324 257.531 104.146 257.18 103.492 257.18C103.01 257.18 102.739 257.365 102.739 257.683C102.739 258.108 103.194 258.168 103.703 258.294C104.337 258.446 104.965 258.625 104.965 259.328C104.965 259.945 104.476 260.349 103.644 260.349ZM106.759 260.349C105.815 260.349 105.299 259.832 105.28 259.156H105.729C105.755 259.62 106.059 259.971 106.766 259.971C107.406 259.971 107.624 259.673 107.624 259.341C107.624 258.844 107.122 258.791 106.653 258.678C106.033 258.519 105.405 258.366 105.405 257.71C105.405 257.16 105.841 256.802 106.601 256.802C107.479 256.802 107.888 257.272 107.948 257.829H107.499C107.439 257.531 107.261 257.18 106.607 257.18C106.125 257.18 105.854 257.365 105.854 257.683C105.854 258.108 106.31 258.168 106.818 258.294C107.453 258.446 108.08 258.625 108.08 259.328C108.08 259.945 107.591 260.349 106.759 260.349ZM108.632 260.263V256.881H109.062V260.263H108.632ZM108.566 256.205V255.648H109.121V256.205H108.566ZM110.756 260.263L109.521 256.881H109.997L111.007 259.825H111.014L112.018 256.881H112.48L111.245 260.263H110.756ZM114.271 260.356C113.24 260.356 112.666 259.6 112.666 258.572C112.666 257.491 113.3 256.795 114.271 256.795C115.242 256.795 115.79 257.478 115.79 258.42C115.79 258.512 115.79 258.605 115.783 258.658H113.115C113.122 259.341 113.485 259.984 114.277 259.984C114.971 259.984 115.242 259.507 115.308 259.228H115.744C115.579 259.845 115.116 260.356 114.271 260.356ZM113.115 258.28H115.334C115.334 257.677 114.944 257.166 114.251 257.166C113.597 257.166 113.148 257.65 113.115 258.28ZM116.392 260.263V255.522H116.821V260.263H116.392ZM117.908 261.45C117.802 261.45 117.723 261.443 117.584 261.423V261.052C117.683 261.065 117.736 261.072 117.842 261.072C118.159 261.072 118.417 260.866 118.601 260.243L117.241 256.881H117.716L118.813 259.699H118.826L119.87 256.881H120.332L118.985 260.362C118.654 261.204 118.357 261.45 117.908 261.45ZM13.9422 269.215V265.833H14.3715V269.215H13.9422ZM13.8762 265.156V264.6H14.4309V265.156H13.8762ZM17.1955 266.934C17.1955 266.509 17.0964 266.131 16.535 266.131C15.9472 266.131 15.5905 266.589 15.5905 267.079V269.215H15.1612V265.833H15.5905V266.31H15.6037C15.7821 266.038 16.0991 265.753 16.6275 265.753C17.103 265.753 17.4068 265.972 17.5323 266.377H17.5455C17.7635 266.038 18.1267 265.753 18.6617 265.753C19.3023 265.753 19.6524 266.138 19.6524 266.841V269.215H19.2231V266.934C19.2231 266.509 19.124 266.131 18.5692 266.131C17.9748 266.131 17.6248 266.589 17.6248 267.079V269.215H17.1955V266.934ZM21.9964 269.294C21.4086 269.294 21.0585 269.002 20.8604 268.644H20.8472V270.388H20.4179V265.833H20.8472V266.377H20.8604C21.0585 266.052 21.4086 265.747 21.9964 265.747C22.822 265.747 23.4824 266.41 23.4824 267.524C23.4824 268.631 22.822 269.294 21.9964 269.294ZM20.8472 267.524C20.8472 268.372 21.3029 268.916 21.9501 268.916C22.6502 268.916 23.0333 268.28 23.0333 267.524C23.0333 266.761 22.6502 266.125 21.9501 266.125C21.3029 266.125 20.8472 266.668 20.8472 267.524ZM24.5236 267.325V269.215H24.0943V265.833H24.5236V266.522H24.5368C24.7085 266.078 25.0189 265.753 25.4945 265.753C25.6133 265.753 25.7058 265.76 25.7851 265.773V266.198C25.719 266.184 25.6464 266.178 25.5803 266.178C24.9727 266.178 24.5236 266.668 24.5236 267.325ZM27.4882 269.307C26.4777 269.307 25.8701 268.578 25.8701 267.53C25.8701 266.476 26.4777 265.747 27.4882 265.747C28.4988 265.747 29.1064 266.476 29.1064 267.53C29.1064 268.578 28.4988 269.307 27.4882 269.307ZM26.3192 267.53C26.3192 268.306 26.7023 268.929 27.4882 268.929C28.2742 268.929 28.6573 268.306 28.6573 267.53C28.6573 266.748 28.2742 266.125 27.4882 266.125C26.7023 266.125 26.3192 266.748 26.3192 267.53ZM30.5202 269.215L29.2851 265.833H29.7606L30.7711 268.777H30.7778L31.7817 265.833H32.244L31.0089 269.215H30.5202ZM34.0345 269.307C33.0043 269.307 32.4297 268.552 32.4297 267.524C32.4297 266.443 33.0638 265.747 34.0345 265.747C35.0054 265.747 35.5536 266.43 35.5536 267.371C35.5536 267.464 35.5536 267.557 35.547 267.61H32.8789C32.8855 268.293 33.2487 268.936 34.0411 268.936C34.7346 268.936 35.0054 268.459 35.0715 268.18H35.5074C35.3423 268.797 34.8799 269.307 34.0345 269.307ZM32.8789 267.232H35.0979C35.0979 266.629 34.7082 266.118 34.0147 266.118C33.361 266.118 32.9119 266.602 32.8789 267.232ZM37.7427 270.402C37.637 270.402 37.5578 270.395 37.4191 270.375V270.004C37.5182 270.017 37.571 270.024 37.6767 270.024C37.9937 270.024 38.2513 269.818 38.4362 269.195L37.0757 265.833H37.5512L38.6476 268.651H38.6608L39.7043 265.833H40.1666L38.8193 269.314C38.489 270.156 38.1918 270.402 37.7427 270.402ZM41.9552 269.307C40.9447 269.307 40.337 268.578 40.337 267.53C40.337 266.476 40.9447 265.747 41.9552 265.747C42.9657 265.747 43.5733 266.476 43.5733 267.53C43.5733 268.578 42.9657 269.307 41.9552 269.307ZM40.7861 267.53C40.7861 268.306 41.1692 268.929 41.9552 268.929C42.7411 268.929 43.1242 268.306 43.1242 267.53C43.1242 266.748 42.7411 266.125 41.9552 266.125C41.1692 266.125 40.7861 266.748 40.7861 267.53ZM45.2558 269.294C44.6545 269.294 44.1529 268.956 44.1529 268.207V265.833H44.5822V268.114C44.5822 268.545 44.7803 268.916 45.3615 268.916C46.0022 268.916 46.4249 268.465 46.4249 267.968V265.833H46.8542V269.215H46.4249V268.737H46.4117C46.2201 269.016 45.8569 269.294 45.2558 269.294ZM48.0783 267.325V269.215H47.649V265.833H48.0783V266.522H48.0916C48.2633 266.078 48.5737 265.753 49.0492 265.753C49.1681 265.753 49.2606 265.76 49.3398 265.773V266.198C49.2738 266.184 49.2011 266.178 49.1351 266.178C48.5275 266.178 48.0783 266.668 48.0783 267.325ZM52.0642 269.241C51.5755 269.241 51.2717 269.075 51.2717 268.339V266.211H50.7763V265.833H51.2717V264.706H51.701V265.833H52.3813V266.211H51.701V268.346C51.701 268.764 51.7935 268.863 52.1237 268.863C52.2294 268.863 52.2822 268.857 52.3813 268.85V269.215C52.2492 269.234 52.1699 269.241 52.0642 269.241ZM53.3673 267.325V269.215H52.938V265.833H53.3673V266.522H53.3806C53.5523 266.078 53.8627 265.753 54.3382 265.753C54.4571 265.753 54.5496 265.76 54.6288 265.773V266.198C54.5628 266.184 54.4901 266.178 54.4241 266.178C53.8165 266.178 53.3673 266.668 53.3673 267.325ZM55.8685 269.301C55.1949 269.301 54.7656 268.923 54.7656 268.359C54.7656 267.63 55.2807 267.398 56.1525 267.245C56.7073 267.146 57.064 267.106 57.064 266.701C57.064 266.357 56.8394 266.125 56.2978 266.125C55.644 266.125 55.4128 266.357 55.3798 266.854H54.9241C54.9571 266.257 55.3335 265.747 56.311 265.747C56.9319 265.747 57.4801 266.012 57.4801 266.821V268.512C57.4801 268.784 57.5197 268.91 57.6716 268.91C57.698 268.91 57.7244 268.91 57.7641 268.903V269.215C57.6914 269.228 57.6188 269.241 57.5395 269.241C57.2555 269.241 57.0904 269.128 57.064 268.704H57.0508C56.8196 269.089 56.4167 269.301 55.8685 269.301ZM55.2147 268.319C55.2147 268.711 55.4326 268.923 55.9214 268.923C56.6082 268.923 57.064 268.558 57.064 267.948V267.318C56.9649 267.457 56.6082 267.537 56.2054 267.603C55.5515 267.723 55.2147 267.888 55.2147 268.319ZM59.6054 269.301C58.7865 269.301 58.126 268.638 58.126 267.524C58.126 266.416 58.7865 265.753 59.6054 265.753C60.1933 265.753 60.5433 266.045 60.7414 266.403H60.7546V264.474H61.1839V269.215H60.7546V268.664H60.7414C60.5499 268.996 60.1933 269.301 59.6054 269.301ZM58.5751 267.524C58.5751 268.286 58.9582 268.923 59.6583 268.923C60.3055 268.923 60.7546 268.379 60.7546 267.524C60.7546 266.675 60.3055 266.131 59.6583 266.131C58.9582 266.131 58.5751 266.768 58.5751 267.524ZM61.9808 269.215V265.833H62.4101V269.215H61.9808ZM61.9148 265.156V264.6H62.4695V265.156H61.9148ZM65.4717 266.934C65.4717 266.503 65.2736 266.131 64.6923 266.131C64.0517 266.131 63.629 266.582 63.629 267.079V269.215H63.1997V265.833H63.629V266.317H63.6422C63.8337 266.038 64.197 265.753 64.798 265.753C65.399 265.753 65.901 266.091 65.901 266.841V269.215H65.4717V266.934ZM68.0435 270.428C67.1321 270.428 66.65 269.984 66.5971 269.394H67.0462C67.1123 269.752 67.3963 270.05 68.0501 270.05C68.7304 270.05 69.1333 269.752 69.1333 269.062V268.432H69.1201C68.922 268.784 68.5521 269.055 67.9841 269.055C67.1783 269.055 66.5047 268.525 66.5047 267.398C66.5047 266.284 67.1783 265.753 67.9841 265.753C68.5521 265.753 68.922 266.025 69.1201 266.363H69.1333V265.833H69.5626V269.002C69.5626 269.957 68.9682 270.428 68.0435 270.428ZM66.9538 267.398C66.9538 268.174 67.3501 268.678 68.0435 268.678C68.6644 268.678 69.1333 268.266 69.1333 267.398C69.1333 266.542 68.6644 266.131 68.0435 266.131C67.3501 266.131 66.9538 266.635 66.9538 267.398ZM73.0921 269.301C72.2732 269.301 71.6127 268.638 71.6127 267.524C71.6127 266.416 72.2732 265.753 73.0921 265.753C73.6799 265.753 74.03 266.045 74.2281 266.403H74.2413V264.474H74.6706V269.215H74.2413V268.664H74.2281C74.0366 268.996 73.6799 269.301 73.0921 269.301ZM72.0618 267.524C72.0618 268.286 72.4449 268.923 73.145 268.923C73.7922 268.923 74.2413 268.379 74.2413 267.524C74.2413 266.675 73.7922 266.131 73.145 266.131C72.4449 266.131 72.0618 266.768 72.0618 267.524ZM76.8941 269.307C75.8638 269.307 75.2892 268.552 75.2892 267.524C75.2892 266.443 75.9232 265.747 76.8941 265.747C77.865 265.747 78.4132 266.43 78.4132 267.371C78.4132 267.464 78.4132 267.557 78.4066 267.61H75.7383C75.7449 268.293 76.1081 268.936 76.9007 268.936C77.5942 268.936 77.865 268.459 77.931 268.18H78.3669C78.2018 268.797 77.7395 269.307 76.8941 269.307ZM75.7383 267.232H77.9574C77.9574 266.629 77.5678 266.118 76.8743 266.118C76.2204 266.118 75.7713 266.602 75.7383 267.232ZM80.4415 269.301C79.4772 269.301 78.8299 268.585 78.8299 267.524C78.8299 266.469 79.4772 265.753 80.4415 265.753C81.2604 265.753 81.8152 266.304 81.8879 267.02H81.4388C81.4123 266.642 81.1416 266.131 80.4415 266.131C79.6159 266.131 79.279 266.834 79.279 267.524C79.279 268.22 79.6159 268.929 80.4415 268.929C81.1482 268.929 81.4123 268.419 81.4388 268.008H81.8879C81.8416 268.737 81.2604 269.301 80.4415 269.301ZM82.4655 269.215V265.833H82.8948V269.215H82.4655ZM82.3994 265.156V264.6H82.9542V265.156H82.3994ZM84.926 269.301C83.9816 269.301 83.4664 268.784 83.4466 268.107H83.8957C83.9221 268.571 84.2259 268.923 84.9326 268.923C85.5733 268.923 85.7912 268.624 85.7912 268.293C85.7912 267.796 85.2893 267.743 84.8203 267.63C84.1995 267.471 83.5721 267.318 83.5721 266.662C83.5721 266.111 84.008 265.753 84.7675 265.753C85.6459 265.753 86.0554 266.224 86.1149 266.781H85.6657C85.6063 266.483 85.428 266.131 84.7741 266.131C84.292 266.131 84.0212 266.317 84.0212 266.635C84.0212 267.06 84.4769 267.119 84.9855 267.245C85.6195 267.398 86.2469 267.577 86.2469 268.28C86.2469 268.896 85.7582 269.301 84.926 269.301ZM86.7998 269.215V265.833H87.2291V269.215H86.7998ZM86.7337 265.156V264.6H87.2885V265.156H86.7337ZM89.4518 269.307C88.4413 269.307 87.8337 268.578 87.8337 267.53C87.8337 266.476 88.4413 265.747 89.4518 265.747C90.4624 265.747 91.07 266.476 91.07 267.53C91.07 268.578 90.4624 269.307 89.4518 269.307ZM88.2828 267.53C88.2828 268.306 88.6659 268.929 89.4518 268.929C90.2378 268.929 90.6209 268.306 90.6209 267.53C90.6209 266.748 90.2378 266.125 89.4518 266.125C88.6659 266.125 88.2828 266.748 88.2828 267.53ZM93.948 266.934C93.948 266.503 93.7498 266.131 93.1686 266.131C92.528 266.131 92.1053 266.582 92.1053 267.079V269.215H91.676V265.833H92.1053V266.317H92.1185C92.31 266.038 92.6733 265.753 93.2743 265.753C93.8753 265.753 94.3773 266.091 94.3773 266.841V269.215H93.948V266.934ZM96.3874 269.301C95.4429 269.301 94.9278 268.784 94.908 268.107H95.3571C95.3835 268.571 95.6873 268.923 96.394 268.923C97.0347 268.923 97.2526 268.624 97.2526 268.293C97.2526 267.796 96.7507 267.743 96.2817 267.63C95.6609 267.471 95.0334 267.318 95.0334 266.662C95.0334 266.111 95.4693 265.753 96.2289 265.753C97.1073 265.753 97.5168 266.224 97.5762 266.781H97.1271C97.0677 266.483 96.8894 266.131 96.2355 266.131C95.7534 266.131 95.4826 266.317 95.4826 266.635C95.4826 267.06 95.9383 267.119 96.4468 267.245C97.0809 267.398 97.7083 267.577 97.7083 268.28C97.7083 268.896 97.2196 269.301 96.3874 269.301ZM98.2677 269.215V268.658H98.8225V269.215H98.2677ZM98.3008 265.906V264.474H98.7961V265.906L98.6838 267.995H98.413L98.3008 265.906Z" fill="black"/>
<path d="M111.79 75.758L71.171 57.1915L33.6896 72.2768L31.2129 92.3353L40.7896 135.933L71.171 158.81L89.4989 150.687L109.643 122.34L111.79 75.758Z" fill="url(#paint0_linear_504_310)"/>
<path d="M85.4656 101.952L92.4269 81.9264H85.9593L79.4751 101.952H64.2359L57.7023 81.9264H50.8889L58.0315 101.952H44.2568V106.908H59.7923L61.5369 111.783H49.0294V116.739H63.3142L68.4982 131.296H75.2455L80.3143 116.739H90.5835V111.783H82.0424L83.7375 106.908H99.0754V101.952H85.4656ZM71.9376 125.298H71.8719L69.0741 116.756H74.7026L71.9376 125.298ZM76.299 111.783H67.4448L65.8484 106.908H77.8788L76.299 111.783Z" fill="url(#paint1_linear_504_310)"/>
<path d="M117.569 101.633C117.569 130.071 97.9842 156.664 71.667 163.12C45.3498 156.664 25.7646 130.071 25.7646 101.633V70.8903L71.667 50.3949L117.569 70.8903V101.633ZM71.667 152.872C90.7931 147.748 107.369 124.896 107.369 102.761V77.5514L71.667 61.5649L35.9652 77.5514V102.761C35.9652 124.896 52.5409 147.748 71.667 152.872Z" fill="url(#paint2_linear_504_310)"/>
<path opacity="0.1" d="M144.978 98.5594C144.978 144.059 113.698 186.608 71.6661 196.938C29.6341 186.608 -1.64551 144.059 -1.64551 98.5594V49.37L71.6661 16.5773L144.978 49.37V98.5594ZM71.6661 180.541C102.213 172.343 128.686 135.779 128.686 100.363V60.0279L71.6661 34.4492L14.646 60.0279V100.363C14.646 135.779 41.1196 172.343 71.6661 180.541Z" fill="url(#paint3_linear_504_310)"/>
<path opacity="0.05" d="M179.322 94.7314C179.322 161.476 133.389 223.891 71.6665 239.044C9.94388 223.891 -35.9893 161.476 -35.9893 94.7314V22.5752L71.6665 -25.529L179.322 22.5752V94.7314ZM71.6665 214.992C116.523 202.966 155.399 149.33 155.399 97.3771V38.2089L71.6665 0.687804L-12.0658 38.2089V97.3771C-12.0658 149.33 26.81 202.966 71.6665 214.992Z" fill="url(#paint4_linear_504_310)"/>
<path d="M66.6152 288.113V282.423H67.6139L70.2452 286.8H70.261V282.423H71.1407V288.113H70.1421L67.5029 283.736H67.487V288.113H66.6152ZM73.8368 288.232C72.5528 288.232 71.8395 287.317 71.8395 286.076C71.8395 284.803 72.6004 283.927 73.8368 283.927C75.0652 283.927 75.7548 284.739 75.7548 285.996C75.7548 286.107 75.7548 286.227 75.7468 286.291H72.64C72.6558 286.967 73.0521 287.595 73.8526 287.595C74.5659 287.595 74.8433 287.134 74.9146 286.863H75.7072C75.4932 287.643 74.8988 288.232 73.8368 288.232ZM72.64 285.678H74.9463C74.9463 285.041 74.5025 284.564 73.813 284.564C73.1631 284.564 72.6876 285.009 72.64 285.678ZM75.7181 288.113L77.2398 286.036L75.8528 284.055H76.7405L77.7074 285.503H77.7233L78.6743 284.055H79.562L78.175 286.036L79.7126 288.113H78.8011L77.7074 286.561H77.6916L76.6216 288.113H75.7181ZM81.411 288.16C80.7452 288.16 80.341 287.906 80.341 286.967V284.699H79.7545V284.055H80.341V282.75H81.1177V284.055H81.8944V284.699H81.1177V286.991C81.1177 287.42 81.2366 287.516 81.5695 287.516C81.7042 287.516 81.7676 287.508 81.9024 287.484V288.113C81.7042 288.152 81.5774 288.16 81.411 288.16Z" fill="#165ECA"/>
<path d="M129.69 285.363C129.82 285.234 129.82 285.024 129.69 284.894L127.589 282.784C127.46 282.655 127.251 282.655 127.122 282.784C126.993 282.914 126.993 283.124 127.122 283.253L128.99 285.129L127.122 287.004C126.993 287.134 126.993 287.344 127.122 287.473C127.251 287.603 127.46 287.603 127.589 287.473L129.69 285.363ZM85.8662 285.46H129.457V284.797H85.8662V285.46Z" fill="#165ECA"/>
<path opacity="0.2" d="M21.8014 296.07C22.5309 296.07 23.1223 295.476 23.1223 294.744C23.1223 294.011 22.5309 293.417 21.8014 293.417C21.0719 293.417 20.4805 294.011 20.4805 294.744C20.4805 295.476 21.0719 296.07 21.8014 296.07Z" fill="#165ECA"/>
<path opacity="0.2" d="M39.3034 296.07C40.0329 296.07 40.6243 295.476 40.6243 294.744C40.6243 294.011 40.0329 293.417 39.3034 293.417C38.5738 293.417 37.9824 294.011 37.9824 294.744C37.9824 295.476 38.5738 296.07 39.3034 296.07Z" fill="#165ECA"/>
<path opacity="0.2" d="M56.8063 296.07C57.5358 296.07 58.1272 295.476 58.1272 294.744C58.1272 294.011 57.5358 293.417 56.8063 293.417C56.0768 293.417 55.4854 294.011 55.4854 294.744C55.4854 295.476 56.0768 296.07 56.8063 296.07Z" fill="#165ECA"/>
<path d="M74.3082 296.07C75.0378 296.07 75.6292 295.476 75.6292 294.744C75.6292 294.011 75.0378 293.417 74.3082 293.417C73.5787 293.417 72.9873 294.011 72.9873 294.744C72.9873 295.476 73.5787 296.07 74.3082 296.07Z" fill="#165ECA"/>
<path opacity="0.2" d="M91.8112 296.07C92.5407 296.07 93.1321 295.476 93.1321 294.744C93.1321 294.011 92.5407 293.417 91.8112 293.417C91.0816 293.417 90.4902 294.011 90.4902 294.744C90.4902 295.476 91.0816 296.07 91.8112 296.07Z" fill="#165ECA"/>
<path opacity="0.2" d="M109.313 296.07C110.043 296.07 110.634 295.476 110.634 294.744C110.634 294.011 110.043 293.417 109.313 293.417C108.584 293.417 107.992 294.011 107.992 294.744C107.992 295.476 108.584 296.07 109.313 296.07Z" fill="#165ECA"/>
<path opacity="0.2" d="M13.5459 285.129H62.4203" stroke="#165ECA" stroke-width="2"/>
</g>
</g>
<defs>
<linearGradient id="paint0_linear_504_310" x1="71.5013" y1="57.1915" x2="71.5013" y2="158.81" gradientUnits="userSpaceOnUse">
<stop stop-color="#5096FF"/>
<stop offset="1" stop-color="#0056D8"/>
</linearGradient>
<linearGradient id="paint1_linear_504_310" x1="71.6661" y1="81.9264" x2="71.6661" y2="131.296" gradientUnits="userSpaceOnUse">
<stop stop-color="#FFC164"/>
<stop offset="1" stop-color="#E4FF77"/>
</linearGradient>
<linearGradient id="paint2_linear_504_310" x1="71.667" y1="50.3949" x2="71.667" y2="163.12" gradientUnits="userSpaceOnUse">
<stop stop-color="#103C7E"/>
<stop offset="1" stop-color="#1D6DE4"/>
</linearGradient>
<linearGradient id="paint3_linear_504_310" x1="71.6661" y1="16.5773" x2="71.6661" y2="196.938" gradientUnits="userSpaceOnUse">
<stop stop-color="#103C7E"/>
<stop offset="1" stop-color="#1D6DE4"/>
</linearGradient>
<linearGradient id="paint4_linear_504_310" x1="71.6665" y1="-25.529" x2="71.6665" y2="239.044" gradientUnits="userSpaceOnUse">
<stop stop-color="#103C7E"/>
<stop offset="1" stop-color="#1D6DE4"/>
</linearGradient>
<clipPath id="clip0_504_310">
<rect width="142" height="309" fill="white" transform="translate(0.666992)"/>
</clipPath>
</defs>
</svg>
