<svg width="159" height="227" viewBox="0 0 159 227" fill="none" xmlns="http://www.w3.org/2000/svg">
<g clip-path="url(#clip0_507_586)">
<mask id="mask0_507_586" style="mask-type:luminance" maskUnits="userSpaceOnUse" x="0" y="0" width="159" height="227">
<path d="M159 0H0V227H159V0Z" fill="white"/>
</mask>
<g mask="url(#mask0_507_586)">
<path d="M159 0H0V227H159V0Z" fill="#1C1C1C"/>
<path d="M27.7916 27.3934C26.1854 27.3934 25.0583 26.562 24.9873 25.1381H25.999C26.07 25.9871 26.5758 26.562 27.765 26.562C28.7856 26.562 29.0962 26.1198 29.0962 25.5449C29.0962 24.7401 28.475 24.6251 27.3213 24.3333C26.3273 24.0679 25.2358 23.7496 25.2358 22.5468C25.2358 21.4501 26.0877 20.8221 27.4544 20.8221C28.9009 20.8221 29.8416 21.5562 29.9392 22.8298H28.9275C28.8211 22.0692 28.3862 21.6535 27.4633 21.6535C26.6646 21.6535 26.2563 21.9454 26.2563 22.4937C26.2563 23.2012 26.9219 23.3516 27.7384 23.555C28.963 23.8645 30.1167 24.1564 30.1167 25.4919C30.1167 26.5797 29.3801 27.3934 27.7916 27.3934ZM32.2998 27.3226C31.5544 27.3226 31.1018 27.0396 31.1018 25.996V23.4754H30.4451V22.759H31.1018V21.3086H31.9715V22.759H32.8412V23.4754H31.9715V26.0225C31.9715 26.5001 32.1046 26.6062 32.4773 26.6062C32.6282 26.6062 32.6992 26.5974 32.85 26.5708V27.2695C32.6282 27.3138 32.4862 27.3226 32.2998 27.3226ZM35.4929 27.4022C34.0818 27.4022 33.2299 26.4293 33.2299 25.0143C33.2299 23.6081 34.0818 22.6175 35.5018 22.6175C36.9039 22.6175 37.7557 23.5992 37.7557 25.0054C37.7557 26.4205 36.9039 27.4022 35.4929 27.4022ZM34.1351 25.0143C34.1351 25.9518 34.5611 26.6858 35.5018 26.6858C36.4247 26.6858 36.8507 25.9518 36.8507 25.0143C36.8507 24.0679 36.4247 23.3427 35.5018 23.3427C34.5611 23.3427 34.1351 24.0679 34.1351 25.0143ZM40.4839 27.4022C39.135 27.4022 38.2564 26.4293 38.2564 25.0143C38.2564 23.5992 39.135 22.6264 40.475 22.6264C41.6376 22.6264 42.4096 23.3781 42.5161 24.3952H41.6198C41.5754 23.9264 41.3092 23.3427 40.4839 23.3427C39.5166 23.3427 39.1616 24.1652 39.1616 25.0143C39.1616 25.8633 39.5166 26.677 40.4839 26.677C41.3181 26.677 41.5754 26.1109 41.6198 25.598H42.5161C42.454 26.6328 41.6464 27.4022 40.4839 27.4022ZM43.2106 27.2695V20.946H44.0802V24.6694L46.0592 22.759H47.0621L45.3227 24.4129L47.2484 27.2695H46.219L44.737 24.9612L44.0802 25.5891V27.2695H43.2106ZM48.5907 27.2695L50.9513 20.946H52.0073L54.3857 27.2695H53.3207L52.7971 25.7483H50.1437L49.6201 27.2695H48.5907ZM50.4365 24.9258H52.522L51.4837 21.8481H51.466L50.4365 24.9258ZM57.9188 24.3775C57.9188 23.7761 57.6526 23.3693 56.9959 23.3693C56.2504 23.3693 55.7712 23.8203 55.7712 24.5013V27.2695H54.9015V22.759H55.7712V23.325H55.7889C56.0285 22.9801 56.4989 22.6264 57.2798 22.6264C58.114 22.6264 58.7885 23.1039 58.7885 24.1387V27.2695H57.9188V24.3775ZM60.9801 27.3934C60.0749 27.3934 59.4981 26.8715 59.4981 26.1021C59.4981 25.0939 60.2613 24.7932 61.3883 24.5809C62.0983 24.4482 62.5331 24.3598 62.5331 23.9176C62.5331 23.5904 62.3379 23.3162 61.6723 23.3162C60.8825 23.3162 60.6429 23.5638 60.5985 24.1652H59.7111C59.7554 23.2985 60.3234 22.6175 61.7078 22.6175C62.6396 22.6175 63.3851 23.0066 63.3851 24.1741V26.2436C63.3851 26.5708 63.4294 26.7389 63.598 26.7389C63.6247 26.7389 63.6513 26.7389 63.7045 26.73V27.2607C63.5537 27.2961 63.4028 27.3138 63.2608 27.3138C62.826 27.3138 62.5952 27.1457 62.542 26.6328H62.5242C62.2314 27.1015 61.7167 27.3934 60.9801 27.3934ZM60.4033 26.0402C60.4033 26.4647 60.634 26.6947 61.1753 26.6947C61.9563 26.6947 62.5331 26.2967 62.5331 25.5095V24.8639C62.3911 24.9966 62.0007 25.0939 61.5392 25.1912C60.7405 25.3504 60.4033 25.5715 60.4033 26.0402ZM64.4433 27.2695V20.946H65.313V27.2695H64.4433ZM66.8749 28.8526C66.6797 28.8526 66.5466 28.8349 66.3158 28.7907V28.0832C66.4667 28.1009 66.5466 28.1097 66.6886 28.1097C67.0347 28.1097 67.4429 27.9328 67.6204 27.2253L65.7923 22.759H66.7418L68.0641 26.2082H68.0819L69.3243 22.759H70.2383L68.4457 27.3757C68.0109 28.49 67.576 28.8526 66.8749 28.8526ZM72.4322 27.3934C71.0566 27.3934 70.3733 26.6858 70.3467 25.766H71.2252C71.2607 26.2878 71.5802 26.6947 72.4233 26.6947C73.1865 26.6947 73.3906 26.3586 73.3906 26.0314C73.3906 25.4653 72.7871 25.4034 72.2014 25.2796C71.4116 25.0939 70.5064 24.8639 70.5064 23.9264C70.5064 23.1482 71.1365 22.6264 72.2281 22.6264C73.4705 22.6264 74.0651 23.2897 74.1272 24.0679H73.2486C73.1865 23.723 73.0001 23.325 72.2458 23.325C71.6601 23.325 71.4116 23.555 71.4116 23.8911C71.4116 24.3598 71.9174 24.404 72.5564 24.5455C73.3906 24.7401 74.2958 24.9789 74.2958 25.9871C74.2958 26.8627 73.6213 27.3934 72.4322 27.3934ZM74.9817 27.2695V22.759H75.8514V27.2695H74.9817ZM74.9285 21.9542V21.0167H75.9135V21.9542H74.9285ZM78.6113 27.3934C77.2358 27.3934 76.5525 26.6858 76.5259 25.766H77.4044C77.4399 26.2878 77.7594 26.6947 78.6025 26.6947C79.3657 26.6947 79.5698 26.3586 79.5698 26.0314C79.5698 25.4653 78.9663 25.4034 78.3806 25.2796C77.5908 25.0939 76.6856 24.8639 76.6856 23.9264C76.6856 23.1482 77.3157 22.6264 78.4072 22.6264C79.6497 22.6264 80.2442 23.2897 80.3064 24.0679H79.4278C79.3657 23.723 79.1793 23.325 78.425 23.325C77.8393 23.325 77.5908 23.555 77.5908 23.8911C77.5908 24.3598 78.0966 24.404 78.7356 24.5455C79.5698 24.7401 80.475 24.9789 80.475 25.9871C80.475 26.8627 79.8005 27.3934 78.6113 27.3934Z" fill="#FFF239"/>
<path d="M14.7911 21.0049L11.833 24.1372L14.7911 27.2695" stroke="#F8FC32" stroke-width="2" stroke-linecap="round" stroke-linejoin="round"/>
<path d="M13.586 141.241C12.0034 141.241 10.9902 140.084 10.9902 138.499C10.9902 136.915 12.0034 135.765 13.586 135.765C15.1686 135.765 16.1818 136.915 16.1818 138.499C16.1818 140.084 15.1686 141.241 13.586 141.241ZM11.8407 138.499C11.8407 139.583 12.3362 140.541 13.586 140.541C14.8358 140.541 15.3313 139.583 15.3313 138.499C15.3313 137.416 14.8358 136.465 13.586 136.465C12.3362 136.465 11.8407 137.416 11.8407 138.499ZM18.7079 141.241C18.1162 141.241 17.7539 140.976 17.5468 140.674H17.532V141.138H16.8073V135.868H17.532V137.821H17.5468C17.7539 137.556 18.1162 137.269 18.7079 137.269C19.6693 137.269 20.4014 138.02 20.4014 139.259C20.4014 140.497 19.6693 141.241 18.7079 141.241ZM17.5394 139.259C17.5394 140.106 17.9388 140.644 18.5895 140.644C19.2995 140.644 19.6397 139.996 19.6397 139.259C19.6397 138.522 19.2995 137.873 18.5895 137.873C17.9388 137.873 17.5394 138.404 17.5394 139.259ZM20.8474 142.472C20.6921 142.472 20.5812 142.457 20.3963 142.428V141.831C20.5146 141.845 20.5738 141.853 20.6847 141.853C20.914 141.853 21.0249 141.728 21.0249 141.307V137.379H21.7497V141.337C21.7497 142.14 21.3799 142.472 20.8474 142.472ZM20.9805 136.709V135.927H21.8014V136.709H20.9805ZM24.2346 141.249C23.0365 141.249 22.3709 140.401 22.3709 139.251C22.3709 138.072 23.0809 137.261 24.2346 137.261C25.3808 137.261 26.0242 138.013 26.0242 139.177C26.0242 139.281 26.0242 139.391 26.0168 139.45H23.1179C23.1327 140.077 23.5024 140.659 24.2494 140.659C24.9149 140.659 25.1738 140.231 25.2403 139.981H25.9799C25.7802 140.703 25.2255 141.249 24.2346 141.249ZM23.1179 138.883H25.2699C25.2699 138.293 24.8558 137.851 24.2124 137.851C23.606 137.851 23.1622 138.264 23.1179 138.883ZM28.293 141.249C27.1689 141.249 26.4368 140.438 26.4368 139.259C26.4368 138.079 27.1689 137.269 28.2856 137.269C29.2544 137.269 29.8978 137.895 29.9865 138.743H29.2396C29.2026 138.352 28.9808 137.866 28.293 137.866C27.4869 137.866 27.1911 138.551 27.1911 139.259C27.1911 139.966 27.4869 140.644 28.293 140.644C28.9881 140.644 29.2026 140.172 29.2396 139.745H29.9865C29.9348 140.607 29.2618 141.249 28.293 141.249ZM31.7787 141.182C31.1575 141.182 30.7804 140.946 30.7804 140.077V137.976H30.2331V137.379H30.7804V136.17H31.5051V137.379H32.2299V137.976H31.5051V140.099C31.5051 140.497 31.616 140.585 31.9267 140.585C32.0524 140.585 32.1115 140.578 32.2373 140.556V141.138C32.0524 141.175 31.934 141.182 31.7787 141.182ZM32.8329 141.138V137.379H33.5577V141.138H32.8329ZM32.7885 136.709V135.927H33.6094V136.709H32.7885ZM35.3622 141.138L34.0162 137.379H34.7928L35.7837 140.394H35.7911L36.7673 137.379H37.5218L36.1757 141.138H35.3622ZM39.5307 141.249C38.3327 141.249 37.6671 140.401 37.6671 139.251C37.6671 138.072 38.3771 137.261 39.5307 137.261C40.677 137.261 41.3204 138.013 41.3204 139.177C41.3204 139.281 41.3204 139.391 41.313 139.45H38.414C38.4288 140.077 38.7986 140.659 39.5455 140.659C40.2111 140.659 40.4699 140.231 40.5365 139.981H41.276C41.0764 140.703 40.5217 141.249 39.5307 141.249ZM38.414 138.883H40.5661C40.5661 138.293 40.1519 137.851 39.5085 137.851C38.9021 137.851 38.4584 138.264 38.414 138.883Z" fill="white"/>
<path d="M11.249 193.834V188.565H13.4528C14.6213 188.565 15.2499 189.11 15.2499 190.083C15.2499 190.754 14.8432 191.24 14.2589 191.373V191.388C15.4866 191.616 15.0354 193.694 15.3239 193.783V193.834H14.4512C14.2146 193.613 14.7174 191.771 13.4233 191.771H12.0625V193.834H11.249ZM12.0625 191.071H13.2753C14.0223 191.071 14.429 190.746 14.429 190.142C14.429 189.575 14.1036 189.265 13.2901 189.265H12.0625V191.071ZM17.5758 193.945C16.3778 193.945 15.7122 193.097 15.7122 191.948C15.7122 190.768 16.4221 189.958 17.5758 189.958C18.7221 189.958 19.3655 190.71 19.3655 191.874C19.3655 191.977 19.3655 192.088 19.3581 192.147H16.4591C16.4739 192.773 16.8437 193.355 17.5906 193.355C18.2562 193.355 18.515 192.928 18.5816 192.677H19.3211C19.1214 193.4 18.5668 193.945 17.5758 193.945ZM16.4591 191.579H18.6112C18.6112 190.99 18.197 190.547 17.5536 190.547C16.9472 190.547 16.5035 190.96 16.4591 191.579ZM20.7265 193.834L19.558 190.076H20.3419L21.1406 192.987H21.1554L21.9393 190.076H22.6715L23.4554 192.987H23.4702L24.2763 190.076H25.0306L23.8621 193.834H23.1152L22.3017 190.938H22.2869L21.4734 193.834H20.7265ZM26.4369 193.938C25.6826 193.938 25.2019 193.503 25.2019 192.862C25.2019 192.021 25.8379 191.771 26.7771 191.594C27.3687 191.483 27.7311 191.41 27.7311 191.041C27.7311 190.768 27.5684 190.54 27.0138 190.54C26.3556 190.54 26.1559 190.746 26.1189 191.248H25.3794C25.4164 190.525 25.8897 189.958 27.0433 189.958C27.8199 189.958 28.4411 190.282 28.4411 191.255V192.98C28.4411 193.252 28.478 193.392 28.6186 193.392C28.6407 193.392 28.6629 193.392 28.7073 193.385V193.827C28.5816 193.857 28.4559 193.871 28.3375 193.871C27.9752 193.871 27.7829 193.731 27.7385 193.304H27.7237C27.4797 193.694 27.0507 193.938 26.4369 193.938ZM25.9562 192.81C25.9562 193.164 26.1485 193.355 26.5996 193.355C27.2504 193.355 27.7311 193.024 27.7311 192.368V191.83C27.6128 191.94 27.2874 192.021 26.9028 192.102C26.2373 192.235 25.9562 192.419 25.9562 192.81ZM30.0477 191.889V193.834H29.323V190.076H30.0477V190.791H30.0625C30.2622 190.319 30.5654 189.987 31.0757 189.987C31.2088 189.987 31.3123 189.995 31.4232 190.009V190.702C31.3345 190.687 31.2679 190.68 31.1792 190.68C30.521 190.68 30.0477 191.174 30.0477 191.889ZM33.2508 193.938C32.2894 193.938 31.5573 193.193 31.5573 191.955C31.5573 190.717 32.2894 189.965 33.2508 189.965C33.8424 189.965 34.2048 190.238 34.4119 190.533H34.4267V188.565H35.1514V193.834H34.4267V193.392H34.4119C34.2048 193.658 33.8424 193.938 33.2508 193.938ZM32.3116 191.955C32.3116 192.692 32.6592 193.341 33.3691 193.341C34.0199 193.341 34.4193 192.803 34.4193 191.955C34.4193 191.1 34.0199 190.569 33.3691 190.569C32.6592 190.569 32.3116 191.218 32.3116 191.955ZM37.4537 193.938C36.3074 193.938 35.738 193.348 35.7158 192.582H36.4479C36.4775 193.016 36.7437 193.355 37.4463 193.355C38.0823 193.355 38.2524 193.075 38.2524 192.803C38.2524 192.331 37.7495 192.279 37.2614 192.176C36.6032 192.021 35.8489 191.83 35.8489 191.049C35.8489 190.4 36.374 189.965 37.2836 189.965C38.319 189.965 38.8144 190.518 38.8662 191.166H38.1341C38.0823 190.879 37.927 190.547 37.2984 190.547C36.8103 190.547 36.6032 190.739 36.6032 191.019C36.6032 191.41 37.0248 191.447 37.5572 191.564C38.2524 191.727 39.0067 191.926 39.0067 192.766C39.0067 193.495 38.4447 193.938 37.4537 193.938Z" fill="white"/>
<path d="M16.3006 216.313L10.9297 201.65H12.5554L17.0826 214.796H17.1032L21.5893 201.65H23.1532L17.8646 216.313H16.3006ZM10.9297 207.495V206.182H23.1532V207.495H10.9297ZM12.0821 210.797V209.484H21.9803V210.797H12.0821ZM30.4933 205.136C29.8142 205.854 28.8059 205.957 27.53 205.957V204.706C30.02 204.644 30.6168 203.865 30.7814 202.142H31.9749V216.313H30.4933V205.136ZM39.9511 216.58C36.1851 216.58 34.6006 213.258 34.6006 209.238C34.6006 205.218 36.1851 201.876 39.9511 201.876C43.7168 201.876 45.3219 205.218 45.3219 209.238C45.3219 213.258 43.7168 216.58 39.9511 216.58ZM36.1645 209.238C36.1645 212.458 37.1523 215.267 39.9511 215.267C42.7702 215.267 43.7578 212.458 43.7578 209.238C43.7578 205.998 42.7702 203.188 39.9511 203.188C37.1523 203.188 36.1645 205.998 36.1645 209.238ZM46.6993 217.913C47.3579 217.667 47.5638 217.298 47.5431 216.313H46.6993V214.591H48.428V216.313C48.428 217.462 48.0989 218.364 46.6993 218.795V217.913ZM55.1437 216.58C51.3776 216.58 49.7932 213.258 49.7932 209.238C49.7932 205.218 51.3776 201.876 55.1437 201.876C58.9094 201.876 60.5146 205.218 60.5146 209.238C60.5146 213.258 58.9094 216.58 55.1437 216.58ZM51.3573 209.238C51.3573 212.458 52.3449 215.267 55.1437 215.267C57.9628 215.267 58.9505 212.458 58.9505 209.238C58.9505 205.998 57.9628 203.188 55.1437 203.188C52.3449 203.188 51.3573 205.998 51.3573 209.238ZM67.8042 216.58C64.0381 216.58 62.4536 213.258 62.4536 209.238C62.4536 205.218 64.0381 201.876 67.8042 201.876C71.5699 201.876 73.175 205.218 73.175 209.238C73.175 213.258 71.5699 216.58 67.8042 216.58ZM64.0178 209.238C64.0178 212.458 65.0054 215.267 67.8042 215.267C70.6233 215.267 71.6109 212.458 71.6109 209.238C71.6109 205.998 70.6233 203.188 67.8042 203.188C65.0054 203.188 64.0178 205.998 64.0178 209.238ZM80.4646 216.58C76.6989 216.58 75.1141 213.258 75.1141 209.238C75.1141 205.218 76.6989 201.876 80.4646 201.876C84.2303 201.876 85.8355 205.218 85.8355 209.238C85.8355 213.258 84.2303 216.58 80.4646 216.58ZM76.6782 209.238C76.6782 212.458 77.6659 215.267 80.4646 215.267C83.2837 215.267 84.2718 212.458 84.2718 209.238C84.2718 205.998 83.2837 203.188 80.4646 203.188C77.6659 203.188 76.6782 205.998 76.6782 209.238Z" fill="#FFF239"/>
<path d="M14.4549 149.479V152.785H15.298V153.299H13.096V152.785H13.8559V150.463C13.6895 150.618 13.3955 150.645 13.0517 150.645V150.159C13.7283 150.142 13.928 149.938 13.9779 149.479H14.4549ZM16.9434 153.299H16.3388V152.696H16.9434V153.299ZM20.9566 153.299H19.4368V149.346H20.9455C22.0437 149.346 22.7093 150.054 22.7093 151.325C22.7093 152.597 22.0548 153.299 20.9566 153.299ZM20.047 152.774H20.9178C21.8385 152.774 22.077 152.088 22.077 151.325C22.077 150.562 21.8385 149.872 20.9178 149.872H20.047V152.774ZM25.8113 151.828C25.8113 151.906 25.8113 151.989 25.8057 152.033H23.6315C23.6426 152.503 23.9199 152.939 24.4801 152.939C24.9793 152.939 25.1734 152.619 25.2233 152.431H25.778C25.6282 152.973 25.2122 153.382 24.469 153.382C23.5705 153.382 23.0713 152.746 23.0713 151.884C23.0713 150.999 23.6037 150.391 24.469 150.391C25.3287 150.391 25.8113 150.955 25.8113 151.828ZM23.6315 151.607H25.2455C25.2455 151.165 24.9349 150.833 24.4524 150.833C23.9975 150.833 23.6648 151.143 23.6315 151.607ZM26.4105 150.48V150.137C26.4105 149.485 26.6823 149.308 27.1426 149.308C27.248 149.308 27.3312 149.319 27.4865 149.341V149.778C27.3756 149.767 27.3312 149.761 27.2536 149.761C27.0262 149.761 26.9596 149.827 26.9596 150.126V150.48H27.4865V150.927H26.9596V153.299H26.4105V150.927H26.0222V150.48H26.4105ZM27.8193 149.977V149.391H28.4294V149.977H27.8193ZM28.3962 153.299H27.8526V150.48H28.3962V153.299ZM30.4922 150.397C31.0136 150.397 31.4351 150.695 31.4351 151.342V153.299H30.8916V151.491C30.8916 151.115 30.7252 150.861 30.3147 150.861C29.8488 150.861 29.5493 151.143 29.5493 151.569V153.299H29.0058V150.48H29.5493V150.833H29.5604C29.7102 150.618 30.0041 150.397 30.4922 150.397ZM34.6185 151.828C34.6185 151.906 34.6185 151.989 34.6129 152.033H32.4387C32.4498 152.503 32.7271 152.939 33.2873 152.939C33.7865 152.939 33.9806 152.619 34.0306 152.431H34.5852C34.4355 152.973 34.0195 153.382 33.2762 153.382C32.3777 153.382 31.8785 152.746 31.8785 151.884C31.8785 150.999 32.411 150.391 33.2762 150.391C34.1359 150.391 34.6185 150.955 34.6185 151.828ZM32.4387 151.607H34.0527C34.0527 151.165 33.7421 150.833 33.2596 150.833C32.8048 150.833 32.472 151.143 32.4387 151.607ZM37.0189 153.376C36.4531 153.376 36.0926 153.05 36.0926 152.569C36.0926 151.939 36.5696 151.751 37.274 151.618C37.7178 151.535 37.9895 151.48 37.9895 151.204C37.9895 150.999 37.8675 150.828 37.4515 150.828C36.9578 150.828 36.8081 150.983 36.7803 151.358H36.2257C36.2534 150.817 36.6084 150.391 37.4737 150.391C38.0561 150.391 38.522 150.634 38.522 151.364V152.657C38.522 152.862 38.5497 152.967 38.6551 152.967C38.6718 152.967 38.6884 152.967 38.7217 152.961V153.293C38.6274 153.315 38.5331 153.326 38.4444 153.326C38.1726 153.326 38.0284 153.221 37.9951 152.901H37.984C37.801 153.194 37.4793 153.376 37.0189 153.376ZM37.1409 152.939C37.629 152.939 37.9895 152.691 37.9895 152.199V151.795C37.9008 151.878 37.6568 151.939 37.3683 152C36.8691 152.099 36.6583 152.237 36.6583 152.53C36.6583 152.796 36.8025 152.939 37.1409 152.939ZM40.67 150.397C41.1914 150.397 41.6129 150.695 41.6129 151.342V153.299H41.0693V151.491C41.0693 151.115 40.9029 150.861 40.4925 150.861C40.0266 150.861 39.7271 151.143 39.7271 151.569V153.299H39.1835V150.48H39.7271V150.833H39.7382C39.8879 150.618 40.1819 150.397 40.67 150.397ZM44.2083 150.822V149.346H44.7519V153.299H44.2083V152.967H44.1972C44.0419 153.166 43.7701 153.376 43.3264 153.376C42.6054 153.376 42.0563 152.818 42.0563 151.889C42.0563 150.96 42.6054 150.397 43.3264 150.397C43.7701 150.397 44.0419 150.601 44.1972 150.822H44.2083ZM43.4151 152.928C43.9032 152.928 44.2028 152.525 44.2028 151.889C44.2028 151.248 43.9032 150.85 43.4151 150.85C42.8827 150.85 42.622 151.336 42.622 151.889C42.622 152.442 42.8827 152.928 43.4151 152.928ZM48.5305 150.822V149.346H49.0741V153.299H48.5305V152.967H48.5194C48.3641 153.166 48.0923 153.376 47.6486 153.376C46.9276 153.376 46.3785 152.818 46.3785 151.889C46.3785 150.96 46.9276 150.397 47.6486 150.397C48.0923 150.397 48.3641 150.601 48.5194 150.822H48.5305ZM47.7374 152.928C48.2254 152.928 48.525 152.525 48.525 151.889C48.525 151.248 48.2254 150.85 47.7374 150.85C47.2049 150.85 46.9442 151.336 46.9442 151.889C46.9442 152.442 47.2049 152.928 47.7374 152.928ZM50.2684 149.977H49.6528V149.391H50.2684V149.977ZM50.2296 153.299H49.686V150.48H50.2296V153.299ZM51.5885 153.299H51.0394V150.927H50.6511V150.48H51.0394V150.137C51.0394 149.485 51.3112 149.308 51.7715 149.308C51.8769 149.308 51.9601 149.319 52.1154 149.341V149.778C52.0045 149.767 51.9601 149.761 51.8825 149.761C51.655 149.761 51.5885 149.827 51.5885 150.126V150.48H52.487V150.137C52.487 149.485 52.7588 149.308 53.2192 149.308C53.3245 149.308 53.4077 149.319 53.563 149.341V149.778C53.4521 149.767 53.4077 149.761 53.3301 149.761C53.1027 149.761 53.0361 149.827 53.0361 150.126V150.48H53.563V150.927H53.0361V153.299H52.487V150.927H51.5885V153.299ZM56.4417 151.828C56.4417 151.906 56.4417 151.989 56.4361 152.033H54.2619C54.273 152.503 54.5503 152.939 55.1105 152.939C55.6097 152.939 55.8038 152.619 55.8538 152.431H56.4084C56.2586 152.973 55.8427 153.382 55.0994 153.382C54.2009 153.382 53.7017 152.746 53.7017 151.884C53.7017 150.999 54.2342 150.391 55.0994 150.391C55.9591 150.391 56.4417 150.955 56.4417 151.828ZM54.2619 151.607H55.8759C55.8759 151.165 55.5653 150.833 55.0828 150.833C54.628 150.833 54.2952 151.143 54.2619 151.607ZM58.2155 150.413C58.3153 150.413 58.3929 150.419 58.4761 150.43V150.949C58.4096 150.938 58.3597 150.933 58.2931 150.933C57.7995 150.933 57.4445 151.303 57.4445 151.839V153.299H56.9009V150.48H57.4445V151.016H57.4556C57.6053 150.662 57.8327 150.413 58.2155 150.413ZM61.3056 151.828C61.3056 151.906 61.3056 151.989 61.3001 152.033H59.1258C59.1369 152.503 59.4142 152.939 59.9744 152.939C60.4736 152.939 60.6678 152.619 60.7177 152.431H61.2723C61.1226 152.973 60.7066 153.382 59.9633 153.382C59.0648 153.382 58.5656 152.746 58.5656 151.884C58.5656 150.999 59.0981 150.391 59.9633 150.391C60.8231 150.391 61.3056 150.955 61.3056 151.828ZM59.1258 151.607H60.7399C60.7399 151.165 60.4293 150.833 59.9467 150.833C59.4919 150.833 59.1591 151.143 59.1258 151.607ZM63.2513 150.397C63.7727 150.397 64.1942 150.695 64.1942 151.342V153.299H63.6507V151.491C63.6507 151.115 63.4843 150.861 63.0738 150.861C62.6079 150.861 62.3084 151.143 62.3084 151.569V153.299H61.7649V150.48H62.3084V150.833H62.3195C62.4693 150.618 62.7632 150.397 63.2513 150.397ZM65.7975 152.884C65.8918 152.884 65.9362 152.879 66.0305 152.862V153.299C65.8918 153.326 65.8031 153.332 65.6866 153.332C65.2207 153.332 64.9378 153.155 64.9378 152.503V150.927H64.5274V150.48H64.9378V149.573H65.4814V150.48H66.0249V150.927H65.4814V152.519C65.4814 152.818 65.5646 152.884 65.7975 152.884ZM67.0596 149.977H66.4439V149.391H67.0596V149.977ZM67.0207 153.299H66.4772V150.48H67.0207V153.299ZM68.4129 153.376C67.8472 153.376 67.4866 153.05 67.4866 152.569C67.4866 151.939 67.9636 151.751 68.668 151.618C69.1118 151.535 69.3835 151.48 69.3835 151.204C69.3835 150.999 69.2615 150.828 68.8455 150.828C68.3519 150.828 68.2021 150.983 68.1744 151.358H67.6198C67.6475 150.817 68.0025 150.391 68.8677 150.391C69.4501 150.391 69.916 150.634 69.916 151.364V152.657C69.916 152.862 69.9437 152.967 70.0491 152.967C70.0658 152.967 70.0824 152.967 70.1157 152.961V153.293C70.0214 153.315 69.9271 153.326 69.8384 153.326C69.5666 153.326 69.4224 153.221 69.3891 152.901H69.378C69.195 153.194 68.8733 153.376 68.4129 153.376ZM68.5349 152.939C69.023 152.939 69.3835 152.691 69.3835 152.199V151.795C69.2948 151.878 69.0508 151.939 68.7623 152C68.2631 152.099 68.0524 152.237 68.0524 152.53C68.0524 152.796 68.1966 152.939 68.5349 152.939ZM71.5659 152.884C71.6602 152.884 71.7046 152.879 71.7989 152.862V153.299C71.6602 153.326 71.5715 153.332 71.455 153.332C70.9891 153.332 70.7062 153.155 70.7062 152.503V150.927H70.2958V150.48H70.7062V149.573H71.2498V150.48H71.7933V150.927H71.2498V152.519C71.2498 152.818 71.333 152.884 71.5659 152.884ZM74.7821 151.828C74.7821 151.906 74.7821 151.989 74.7766 152.033H72.6024C72.6135 152.503 72.8908 152.939 73.451 152.939C73.9502 152.939 74.1443 152.619 74.1942 152.431H74.7489C74.5991 152.973 74.1831 153.382 73.4399 153.382C72.5414 153.382 72.0422 152.746 72.0422 151.884C72.0422 150.999 72.5746 150.391 73.4399 150.391C74.2996 150.391 74.7821 150.955 74.7821 151.828ZM72.6024 151.607H74.2164C74.2164 151.165 73.9058 150.833 73.4233 150.833C72.9684 150.833 72.6356 151.143 72.6024 151.607ZM77.8257 150.397C78.5468 150.397 79.0959 150.96 79.0959 151.889C79.0959 152.818 78.5468 153.376 77.8257 153.376C77.382 153.376 77.1102 153.177 76.9549 152.95H76.9438V153.299H76.4003V149.346H76.9438V150.811H76.9549C77.1102 150.612 77.382 150.397 77.8257 150.397ZM77.737 152.928C78.2694 152.928 78.5246 152.442 78.5246 151.889C78.5246 151.336 78.2694 150.85 77.737 150.85C77.2489 150.85 76.9494 151.248 76.9494 151.889C76.9494 152.525 77.2489 152.928 77.737 152.928ZM82.1594 151.828C82.1594 151.906 82.1594 151.989 82.1538 152.033H79.9796C79.9907 152.503 80.268 152.939 80.8282 152.939C81.3274 152.939 81.5215 152.619 81.5715 152.431H82.1261C81.9763 152.973 81.5604 153.382 80.8171 153.382C79.9186 153.382 79.4194 152.746 79.4194 151.884C79.4194 150.999 79.9519 150.391 80.8171 150.391C81.6768 150.391 82.1594 150.955 82.1594 151.828ZM79.9796 151.607H81.5936C81.5936 151.165 81.283 150.833 80.8005 150.833C80.3457 150.833 80.0129 151.143 79.9796 151.607ZM83.6177 152.884C83.712 152.884 83.7564 152.879 83.8507 152.862V153.299C83.712 153.326 83.6233 153.332 83.5068 153.332C83.0409 153.332 82.758 153.155 82.758 152.503V150.927H82.3476V150.48H82.758V149.573H83.3016V150.48H83.8452V150.927H83.3016V152.519C83.3016 152.818 83.3848 152.884 83.6177 152.884ZM85.4788 153.299H84.9186L84.0422 150.48H84.6302L85.2292 152.663H85.2403L85.8282 150.48H86.3773L86.9652 152.663H86.9763L87.5809 150.48H88.1467L87.2703 153.299H86.7101L86.1 151.126H86.0889L85.4788 153.299ZM91.026 151.828C91.026 151.906 91.026 151.989 91.0205 152.033H88.8463C88.8573 152.503 89.1347 152.939 89.6949 152.939C90.1941 152.939 90.3882 152.619 90.4381 152.431H90.9928C90.843 152.973 90.427 153.382 89.6838 153.382C88.7852 153.382 88.2861 152.746 88.2861 151.884C88.2861 150.999 88.8185 150.391 89.6838 150.391C90.5435 150.391 91.026 150.955 91.026 151.828ZM88.8463 151.607H90.4603C90.4603 151.165 90.1497 150.833 89.6671 150.833C89.2123 150.833 88.8795 151.143 88.8463 151.607ZM94.0811 151.828C94.0811 151.906 94.0811 151.989 94.0755 152.033H91.9013C91.9124 152.503 92.1897 152.939 92.7499 152.939C93.2491 152.939 93.4432 152.619 93.4931 152.431H94.0478C93.898 152.973 93.482 153.382 92.7388 153.382C91.8403 153.382 91.3411 152.746 91.3411 151.884C91.3411 150.999 91.8735 150.391 92.7388 150.391C93.5985 150.391 94.0811 150.955 94.0811 151.828ZM91.9013 151.607H93.5153C93.5153 151.165 93.2047 150.833 92.7222 150.833C92.2673 150.833 91.9346 151.143 91.9013 151.607ZM96.0268 150.397C96.5481 150.397 96.9697 150.695 96.9697 151.342V153.299H96.4261V151.491C96.4261 151.115 96.2597 150.861 95.8493 150.861C95.3834 150.861 95.0839 151.143 95.0839 151.569V153.299H94.5403V150.48H95.0839V150.833H95.095C95.2447 150.618 95.5387 150.397 96.0268 150.397ZM99.7592 149.761C99.5318 149.761 99.4652 149.827 99.4652 150.126V150.48H99.9922V150.927H99.4652V153.299H98.9161V150.927H98.5279V150.48H98.9161V150.137C98.9161 149.485 99.1879 149.308 99.6483 149.308C99.7537 149.308 99.8369 149.319 99.9922 149.341V149.778C99.8812 149.767 99.8369 149.761 99.7592 149.761ZM102.199 152.21V150.48H102.743V153.299H102.199V152.945H102.188C102.038 153.16 101.744 153.376 101.256 153.376C100.735 153.376 100.313 153.078 100.313 152.431V150.48H100.857V152.282C100.857 152.663 101.023 152.917 101.434 152.917C101.9 152.917 102.199 152.635 102.199 152.21ZM104.839 150.397C105.361 150.397 105.782 150.695 105.782 151.342V153.299H105.239V151.491C105.239 151.115 105.072 150.861 104.662 150.861C104.196 150.861 103.897 151.143 103.897 151.569V153.299H103.353V150.48H103.897V150.833H103.908C104.057 150.618 104.351 150.397 104.839 150.397ZM108.378 150.822V149.346H108.921V153.299H108.378V152.967H108.367C108.211 153.166 107.94 153.376 107.496 153.376C106.775 153.376 106.226 152.818 106.226 151.889C106.226 150.96 106.775 150.397 107.496 150.397C107.94 150.397 108.211 150.601 108.367 150.822H108.378ZM107.585 152.928C108.073 152.928 108.372 152.525 108.372 151.889C108.372 151.248 108.073 150.85 107.585 150.85C107.052 150.85 106.791 151.336 106.791 151.889C106.791 152.442 107.052 152.928 107.585 152.928ZM110.315 153.376C109.749 153.376 109.389 153.05 109.389 152.569C109.389 151.939 109.866 151.751 110.57 151.618C111.014 151.535 111.286 151.48 111.286 151.204C111.286 150.999 111.164 150.828 110.748 150.828C110.254 150.828 110.104 150.983 110.076 151.358H109.522C109.55 150.817 109.905 150.391 110.77 150.391C111.352 150.391 111.818 150.634 111.818 151.364V152.657C111.818 152.862 111.846 152.967 111.951 152.967C111.968 152.967 111.984 152.967 112.018 152.961V153.293C111.923 153.315 111.829 153.326 111.74 153.326C111.469 153.326 111.324 153.221 111.291 152.901H111.28C111.097 153.194 110.775 153.376 110.315 153.376ZM110.437 152.939C110.925 152.939 111.286 152.691 111.286 152.199V151.795C111.197 151.878 110.953 151.939 110.664 152C110.165 152.099 109.954 152.237 109.954 152.53C109.954 152.796 110.099 152.939 110.437 152.939ZM115.558 150.397C116.129 150.397 116.418 150.739 116.418 151.342V153.299H115.874V151.491C115.874 151.115 115.796 150.861 115.38 150.861C114.976 150.861 114.72 151.143 114.72 151.569V153.299H114.177V151.491C114.177 151.115 114.099 150.861 113.683 150.861C113.278 150.861 113.023 151.143 113.023 151.569V153.299H112.48V150.48H113.023V150.833H113.034C113.184 150.618 113.445 150.397 113.872 150.397C114.266 150.397 114.51 150.574 114.621 150.889H114.632C114.837 150.618 115.125 150.397 115.558 150.397ZM119.609 151.828C119.609 151.906 119.609 151.989 119.604 152.033H117.429C117.44 152.503 117.718 152.939 118.278 152.939C118.777 152.939 118.971 152.619 119.021 152.431H119.576C119.426 152.973 119.01 153.382 118.267 153.382C117.368 153.382 116.869 152.746 116.869 151.884C116.869 150.999 117.402 150.391 118.267 150.391C119.127 150.391 119.609 150.955 119.609 151.828ZM117.429 151.607H119.043C119.043 151.165 118.733 150.833 118.25 150.833C117.795 150.833 117.463 151.143 117.429 151.607ZM121.555 150.397C122.076 150.397 122.498 150.695 122.498 151.342V153.299H121.954V151.491C121.954 151.115 121.788 150.861 121.377 150.861C120.911 150.861 120.612 151.143 120.612 151.569V153.299H120.068V150.48H120.612V150.833H120.623C120.773 150.618 121.067 150.397 121.555 150.397ZM124.101 152.884C124.195 152.884 124.24 152.879 124.334 152.862V153.299C124.195 153.326 124.107 153.332 123.99 153.332C123.524 153.332 123.241 153.155 123.241 152.503V150.927H122.831V150.48H123.241V149.573H123.785V150.48H124.328V150.927H123.785V152.519C123.785 152.818 123.868 152.884 124.101 152.884ZM125.563 153.376C124.997 153.376 124.636 153.05 124.636 152.569C124.636 151.939 125.113 151.751 125.818 151.618C126.262 151.535 126.533 151.48 126.533 151.204C126.533 150.999 126.411 150.828 125.995 150.828C125.502 150.828 125.352 150.983 125.324 151.358H124.77C124.797 150.817 125.152 150.391 126.017 150.391C126.6 150.391 127.066 150.634 127.066 151.364V152.657C127.066 152.862 127.094 152.967 127.199 152.967C127.216 152.967 127.232 152.967 127.265 152.961V153.293C127.171 153.315 127.077 153.326 126.988 153.326C126.716 153.326 126.572 153.221 126.539 152.901H126.528C126.345 153.194 126.023 153.376 125.563 153.376ZM125.685 152.939C126.173 152.939 126.533 152.691 126.533 152.199V151.795C126.445 151.878 126.201 151.939 125.912 152C125.413 152.099 125.202 152.237 125.202 152.53C125.202 152.796 125.346 152.939 125.685 152.939ZM128.271 153.299H127.727V149.346H128.271V153.299ZM130.822 153.376C130.256 153.376 129.896 153.05 129.896 152.569C129.896 151.939 130.373 151.751 131.077 151.618C131.521 151.535 131.793 151.48 131.793 151.204C131.793 150.999 131.671 150.828 131.255 150.828C130.761 150.828 130.611 150.983 130.583 151.358H130.029C130.056 150.817 130.411 150.391 131.277 150.391C131.859 150.391 132.325 150.634 132.325 151.364V152.657C132.325 152.862 132.353 152.967 132.458 152.967C132.475 152.967 132.491 152.967 132.525 152.961V153.293C132.43 153.315 132.336 153.326 132.247 153.326C131.976 153.326 131.831 153.221 131.798 152.901H131.787C131.604 153.194 131.282 153.376 130.822 153.376ZM130.944 152.939C131.432 152.939 131.793 152.691 131.793 152.199V151.795C131.704 151.878 131.46 151.939 131.171 152C130.672 152.099 130.461 152.237 130.461 152.53C130.461 152.796 130.606 152.939 130.944 152.939ZM134.473 150.397C134.994 150.397 135.416 150.695 135.416 151.342V153.299H134.872V151.491C134.872 151.115 134.706 150.861 134.295 150.861C133.83 150.861 133.53 151.143 133.53 151.569V153.299H132.987V150.48H133.53V150.833H133.541C133.691 150.618 133.985 150.397 134.473 150.397ZM138.011 150.822V149.346H138.555V153.299H138.011V152.967H138C137.845 153.166 137.573 153.376 137.129 153.376C136.408 153.376 135.859 152.818 135.859 151.889C135.859 150.96 136.408 150.397 137.129 150.397C137.573 150.397 137.845 150.601 138 150.822H138.011ZM137.218 152.928C137.706 152.928 138.006 152.525 138.006 151.889C138.006 151.248 137.706 150.85 137.218 150.85C136.686 150.85 136.425 151.336 136.425 151.889C136.425 152.442 136.686 152.928 137.218 152.928ZM20.3908 159.886C20.4851 159.886 20.5295 159.88 20.6238 159.864V160.3C20.4851 160.328 20.3964 160.333 20.2799 160.333C19.814 160.333 19.5311 160.157 19.5311 159.504V157.929H19.1207V157.481H19.5311V156.575H20.0747V157.481H20.6182V157.929H20.0747V159.521C20.0747 159.819 20.1579 159.886 20.3908 159.886ZM23.6067 158.83C23.6067 158.907 23.6067 158.99 23.6012 159.034H21.427C21.4381 159.504 21.7154 159.941 22.2756 159.941C22.7748 159.941 22.9689 159.62 23.0188 159.432H23.5735C23.4237 159.974 23.0077 160.383 22.2645 160.383C21.3659 160.383 20.8668 159.748 20.8668 158.885C20.8668 158.001 21.3992 157.393 22.2645 157.393C23.1242 157.393 23.6067 157.957 23.6067 158.83ZM21.427 158.609H23.041C23.041 158.167 22.7304 157.835 22.2478 157.835C21.793 157.835 21.4602 158.145 21.427 158.609ZM25.3083 160.383C24.4652 160.383 23.9161 159.775 23.9161 158.891C23.9161 158.006 24.4652 157.398 25.3028 157.398C26.0293 157.398 26.5119 157.868 26.5784 158.504H26.0183C25.9905 158.211 25.8241 157.846 25.3083 157.846C24.7037 157.846 24.4819 158.36 24.4819 158.891C24.4819 159.421 24.7037 159.93 25.3083 159.93C25.8297 159.93 25.9905 159.576 26.0183 159.256H26.5784C26.5396 159.902 26.0349 160.383 25.3083 160.383ZM28.4989 157.398C29.0203 157.398 29.4418 157.697 29.4418 158.344V160.3H28.8983V158.493C28.8983 158.117 28.7319 157.863 28.3214 157.863C27.8555 157.863 27.556 158.145 27.556 158.57V160.3H27.0124V156.348H27.556V157.835H27.5671C27.7169 157.619 28.0108 157.398 28.4989 157.398ZM31.5159 157.398C32.0373 157.398 32.4588 157.697 32.4588 158.344V160.3H31.9153V158.493C31.9153 158.117 31.7489 157.863 31.3384 157.863C30.8725 157.863 30.573 158.145 30.573 158.57V160.3H30.0295V157.481H30.573V157.835H30.5841C30.7339 157.619 31.0278 157.398 31.5159 157.398ZM33.6288 156.978H33.0132V156.392H33.6288V156.978ZM33.59 160.3H33.0465V157.481H33.59V160.3ZM35.4426 160.383C34.5995 160.383 34.0504 159.775 34.0504 158.891C34.0504 158.006 34.5995 157.398 35.437 157.398C36.1636 157.398 36.6462 157.868 36.7127 158.504H36.1525C36.1248 158.211 35.9584 157.846 35.4426 157.846C34.838 157.846 34.6162 158.36 34.6162 158.891C34.6162 159.421 34.838 159.93 35.4426 159.93C35.964 159.93 36.1248 159.576 36.1525 159.256H36.7127C36.6739 159.902 36.1692 160.383 35.4426 160.383ZM37.9289 160.378C37.3632 160.378 37.0026 160.052 37.0026 159.571C37.0026 158.94 37.4796 158.753 38.184 158.62C38.6278 158.537 38.8995 158.482 38.8995 158.205C38.8995 158.001 38.7775 157.829 38.3615 157.829C37.8679 157.829 37.7181 157.984 37.6904 158.36H37.1358C37.1635 157.818 37.5185 157.393 38.3837 157.393C38.9661 157.393 39.432 157.636 39.432 158.366V159.659C39.432 159.864 39.4597 159.969 39.5651 159.969C39.5818 159.969 39.5984 159.969 39.6317 159.963V160.295C39.5374 160.317 39.4431 160.328 39.3544 160.328C39.0826 160.328 38.9384 160.223 38.9051 159.902H38.894C38.711 160.195 38.3893 160.378 37.9289 160.378ZM38.0509 159.941C38.539 159.941 38.8995 159.692 38.8995 159.2V158.797C38.8108 158.88 38.5668 158.94 38.2783 159.001C37.7791 159.101 37.5684 159.239 37.5684 159.532C37.5684 159.797 37.7126 159.941 38.0509 159.941ZM40.6371 160.3H40.0935V156.348H40.6371V160.3ZM43.1881 160.378C42.6224 160.378 42.2618 160.052 42.2618 159.571C42.2618 158.94 42.7388 158.753 43.4432 158.62C43.887 158.537 44.1587 158.482 44.1587 158.205C44.1587 158.001 44.0367 157.829 43.6207 157.829C43.1271 157.829 42.9773 157.984 42.9496 158.36H42.395C42.4227 157.818 42.7777 157.393 43.6429 157.393C44.2253 157.393 44.6912 157.636 44.6912 158.366V159.659C44.6912 159.864 44.7189 159.969 44.8243 159.969C44.841 159.969 44.8576 159.969 44.8909 159.963V160.295C44.7966 160.317 44.7023 160.328 44.6136 160.328C44.3418 160.328 44.1976 160.223 44.1643 159.902H44.1532C43.9702 160.195 43.6485 160.378 43.1881 160.378ZM43.3101 159.941C43.7982 159.941 44.1587 159.692 44.1587 159.2V158.797C44.07 158.88 43.826 158.94 43.5375 159.001C43.0384 159.101 42.8276 159.239 42.8276 159.532C42.8276 159.797 42.9718 159.941 43.3101 159.941ZM46.8392 157.398C47.3606 157.398 47.7821 157.697 47.7821 158.344V160.3H47.2385V158.493C47.2385 158.117 47.0721 157.863 46.6617 157.863C46.1958 157.863 45.8963 158.145 45.8963 158.57V160.3H45.3527V157.481H45.8963V157.835H45.9074C46.0571 157.619 46.3511 157.398 46.8392 157.398ZM49.1517 160.378C48.586 160.378 48.2255 160.052 48.2255 159.571C48.2255 158.94 48.7024 158.753 49.4069 158.62C49.8506 158.537 50.1224 158.482 50.1224 158.205C50.1224 158.001 50.0003 157.829 49.5843 157.829C49.0907 157.829 48.941 157.984 48.9132 158.36H48.3586C48.3863 157.818 48.7413 157.393 49.6065 157.393C50.1889 157.393 50.6548 157.636 50.6548 158.366V159.659C50.6548 159.864 50.6826 159.969 50.7879 159.969C50.8046 159.969 50.8212 159.969 50.8545 159.963V160.295C50.7602 160.317 50.6659 160.328 50.5772 160.328C50.3054 160.328 50.1612 160.223 50.1279 159.902H50.1168C49.9338 160.195 49.6121 160.378 49.1517 160.378ZM49.2737 159.941C49.7618 159.941 50.1224 159.692 50.1224 159.2V158.797C50.0336 158.88 49.7896 158.94 49.5011 159.001C49.002 159.101 48.7912 159.239 48.7912 159.532C48.7912 159.797 48.9354 159.941 49.2737 159.941ZM51.8599 160.3H51.3163V156.348H51.8599V160.3ZM52.8361 161.29C52.7141 161.29 52.6309 161.279 52.4867 161.251V160.809C52.5809 160.82 52.6309 160.825 52.7196 160.825C52.9359 160.825 53.1911 160.715 53.302 160.273L52.1594 157.481H52.7529L53.5793 159.637H53.5904L54.3669 157.481H54.9382L53.8178 160.367C53.546 161.063 53.2743 161.29 52.8361 161.29ZM56.3093 160.378C55.4496 160.378 55.0225 159.935 55.0059 159.361H55.555C55.5772 159.687 55.7768 159.941 56.3038 159.941C56.7808 159.941 56.9083 159.731 56.9083 159.526C56.9083 159.173 56.5312 159.134 56.1651 159.057C55.6715 158.94 55.1057 158.797 55.1057 158.211C55.1057 157.724 55.4995 157.398 56.1817 157.398C56.9582 157.398 57.3299 157.813 57.3687 158.299H56.8196C56.7808 158.084 56.6643 157.835 56.1928 157.835C55.8268 157.835 55.6715 157.979 55.6715 158.189C55.6715 158.482 55.9876 158.509 56.387 158.598C56.9083 158.719 57.4741 158.869 57.4741 159.499C57.4741 160.046 57.0525 160.378 56.3093 160.378ZM58.4854 156.978H57.8697V156.392H58.4854V156.978ZM58.4466 160.3H57.903V157.481H58.4466V160.3ZM60.1715 160.378C59.3118 160.378 58.8847 159.935 58.8681 159.361H59.4172C59.4394 159.687 59.6391 159.941 60.166 159.941C60.643 159.941 60.7706 159.731 60.7706 159.526C60.7706 159.173 60.3934 159.134 60.0273 159.057C59.5337 158.94 58.9679 158.797 58.9679 158.211C58.9679 157.724 59.3617 157.398 60.044 157.398C60.8205 157.398 61.1921 157.813 61.2309 158.299H60.6818C60.643 158.084 60.5265 157.835 60.055 157.835C59.689 157.835 59.5337 157.979 59.5337 158.189C59.5337 158.482 59.8498 158.509 60.2492 158.598C60.7706 158.719 61.3363 158.869 61.3363 159.499C61.3363 160.046 60.9148 160.378 60.1715 160.378ZM62.314 160.3H61.7094V159.698H62.314V160.3ZM15.3923 170.25H12.6689C12.6689 169.531 13.1071 169.034 13.8393 168.581C14.4882 168.188 14.8099 168.028 14.8099 167.519C14.8099 167.204 14.6879 166.867 14.161 166.867C13.5619 166.867 13.3789 167.254 13.3789 167.779H12.7688C12.7688 166.967 13.207 166.353 14.1776 166.353C14.8709 166.353 15.4367 166.768 15.4367 167.497C15.4367 168.238 14.8321 168.619 14.2774 168.956C13.9058 169.178 13.5508 169.388 13.4399 169.725V169.736H15.3923V170.25ZM16.9434 170.25H16.3388V169.647H16.9434V170.25ZM22.2988 170.25H19.4368V166.298H22.2434V166.823H20.047V167.945H21.9716V168.47H20.047V169.725H22.2988V170.25ZM23.065 170.25H22.4327L23.4977 168.807L22.527 167.431H23.1482L23.8249 168.437H23.836L24.5016 167.431H25.1228L24.1521 168.807L25.2282 170.25H24.5903L23.8249 169.172H23.8138L23.065 170.25ZM26.9105 167.348C27.6315 167.348 28.1806 167.912 28.1806 168.84C28.1806 169.769 27.6315 170.327 26.9105 170.327C26.4667 170.327 26.195 170.128 26.0397 169.902H26.0286V171.228H25.485V167.431H26.0286V167.763H26.0397C26.195 167.564 26.4667 167.348 26.9105 167.348ZM26.8217 169.88C27.3542 169.88 27.6093 169.393 27.6093 168.84C27.6093 168.288 27.3542 167.801 26.8217 167.801C26.3336 167.801 26.0341 168.199 26.0341 168.84C26.0341 169.476 26.3336 169.88 26.8217 169.88ZM29.1918 170.25H28.6483V166.298H29.1918V170.25ZM30.584 170.327C30.0183 170.327 29.6578 170.001 29.6578 169.52C29.6578 168.89 30.1348 168.702 30.8392 168.57C31.2829 168.487 31.5547 168.431 31.5547 168.155C31.5547 167.95 31.4326 167.779 31.0167 167.779C30.523 167.779 30.3733 167.934 30.3455 168.31H29.7909C29.8186 167.768 30.1736 167.342 31.0388 167.342C31.6212 167.342 32.0871 167.586 32.0871 168.315V169.609C32.0871 169.813 32.1149 169.918 32.2203 169.918C32.2369 169.918 32.2535 169.918 32.2868 169.913V170.244C32.1925 170.267 32.0982 170.278 32.0095 170.278C31.7377 170.278 31.5935 170.173 31.5602 169.852H31.5491C31.3661 170.145 31.0444 170.327 30.584 170.327ZM30.7061 169.891C31.1941 169.891 31.5547 169.642 31.5547 169.15V168.746C31.4659 168.829 31.2219 168.89 30.9335 168.951C30.4343 169.05 30.2235 169.189 30.2235 169.482C30.2235 169.747 30.3677 169.891 30.7061 169.891ZM33.3309 166.928H32.7153V166.342H33.3309V166.928ZM33.2921 170.25H32.7485V167.431H33.2921V170.25ZM35.3888 167.348C35.9101 167.348 36.3317 167.646 36.3317 168.293V170.25H35.7881V168.442C35.7881 168.067 35.6217 167.812 35.2113 167.812C34.7454 167.812 34.4458 168.094 34.4458 168.52V170.25H33.9023V167.431H34.4458V167.785H34.4569C34.6067 167.569 34.9007 167.348 35.3888 167.348ZM39.121 169.835C39.2153 169.835 39.2597 169.83 39.354 169.813V170.25C39.2153 170.278 39.1266 170.283 39.0101 170.283C38.5442 170.283 38.2613 170.106 38.2613 169.454V167.879H37.8509V167.431H38.2613V166.524H38.8049V167.431H39.3484V167.879H38.8049V169.471C38.8049 169.769 38.8881 169.835 39.121 169.835ZM41.2875 167.348C41.8089 167.348 42.2304 167.646 42.2304 168.293V170.25H41.6869V168.442C41.6869 168.067 41.5205 167.812 41.11 167.812C40.6441 167.812 40.3446 168.094 40.3446 168.52V170.25H39.801V166.298H40.3446V167.785H40.3557C40.5054 167.569 40.7994 167.348 41.2875 167.348ZM45.4137 168.78C45.4137 168.857 45.4137 168.94 45.4082 168.984H43.234C43.2451 169.454 43.5224 169.891 44.0826 169.891C44.5818 169.891 44.7759 169.57 44.8258 169.382H45.3805C45.2307 169.924 44.8147 170.333 44.0715 170.333C43.1729 170.333 42.6738 169.697 42.6738 168.835C42.6738 167.95 43.2062 167.342 44.0715 167.342C44.9312 167.342 45.4137 167.906 45.4137 168.78ZM43.234 168.559H44.848C44.848 168.116 44.5374 167.785 44.0548 167.785C43.6 167.785 43.2672 168.094 43.234 168.559ZM47.6142 166.928H46.9986V166.342H47.6142V166.928ZM47.5754 170.25H47.0318V167.431H47.5754V170.25ZM51.2638 167.348C51.8351 167.348 52.1235 167.691 52.1235 168.293V170.25H51.58V168.442C51.58 168.067 51.5023 167.812 51.0863 167.812C50.6814 167.812 50.4263 168.094 50.4263 168.52V170.25H49.8827V168.442C49.8827 168.067 49.8051 167.812 49.3891 167.812C48.9842 167.812 48.7291 168.094 48.7291 168.52V170.25H48.1855V167.431H48.7291V167.785H48.7402C48.8899 167.569 49.1506 167.348 49.5777 167.348C49.9715 167.348 50.2155 167.525 50.3265 167.84H50.3376C50.5428 167.569 50.8312 167.348 51.2638 167.348ZM54.1447 167.348C54.8657 167.348 55.4148 167.912 55.4148 168.84C55.4148 169.769 54.8657 170.327 54.1447 170.327C53.701 170.327 53.4292 170.128 53.2739 169.902H53.2628V171.228H52.7192V167.431H53.2628V167.763H53.2739C53.4292 167.564 53.701 167.348 54.1447 167.348ZM54.0559 169.88C54.5884 169.88 54.8435 169.393 54.8435 168.84C54.8435 168.288 54.5884 167.801 54.0559 167.801C53.5678 167.801 53.2683 168.199 53.2683 168.84C53.2683 169.476 53.5678 169.88 54.0559 169.88ZM57.1472 170.333C56.2653 170.333 55.7328 169.725 55.7328 168.84C55.7328 167.962 56.2653 167.342 57.1527 167.342C58.0291 167.342 58.5616 167.956 58.5616 168.835C58.5616 169.719 58.0291 170.333 57.1472 170.333ZM57.1527 169.885C57.7296 169.885 57.9958 169.426 57.9958 168.84C57.9958 168.249 57.7296 167.796 57.1527 167.796C56.5648 167.796 56.2986 168.249 56.2986 168.84C56.2986 169.426 56.5648 169.885 57.1527 169.885ZM60.3387 167.365C60.4385 167.365 60.5161 167.37 60.5993 167.381V167.901C60.5328 167.89 60.4829 167.884 60.4163 167.884C59.9227 167.884 59.5677 168.254 59.5677 168.791V170.25H59.0241V167.431H59.5677V167.967H59.5788C59.7285 167.613 59.956 167.365 60.3387 167.365ZM61.9952 169.835C62.0895 169.835 62.1339 169.83 62.2282 169.813V170.25C62.0895 170.278 62.0008 170.283 61.8843 170.283C61.4184 170.283 61.1355 170.106 61.1355 169.454V167.879H60.7251V167.431H61.1355V166.524H61.6791V167.431H62.2226V167.879H61.6791V169.471C61.6791 169.769 61.7623 169.835 61.9952 169.835ZM63.4569 170.327C62.8912 170.327 62.5306 170.001 62.5306 169.52C62.5306 168.89 63.0076 168.702 63.712 168.57C64.1558 168.487 64.4276 168.431 64.4276 168.155C64.4276 167.95 64.3055 167.779 63.8895 167.779C63.3959 167.779 63.2461 167.934 63.2184 168.31H62.6638C62.6915 167.768 63.0465 167.342 63.9117 167.342C64.4941 167.342 64.96 167.586 64.96 168.315V169.609C64.96 169.813 64.9877 169.918 65.0931 169.918C65.1098 169.918 65.1264 169.918 65.1597 169.913V170.244C65.0654 170.267 64.9711 170.278 64.8824 170.278C64.6106 170.278 64.4664 170.173 64.4331 169.852H64.422C64.239 170.145 63.9173 170.327 63.4569 170.327ZM63.5789 169.891C64.067 169.891 64.4276 169.642 64.4276 169.15V168.746C64.3388 168.829 64.0948 168.89 63.8063 168.951C63.3072 169.05 63.0964 169.189 63.0964 169.482C63.0964 169.747 63.2406 169.891 63.5789 169.891ZM67.108 167.348C67.6294 167.348 68.0509 167.646 68.0509 168.293V170.25H67.5073V168.442C67.5073 168.067 67.341 167.812 66.9305 167.812C66.4646 167.812 66.1651 168.094 66.1651 168.52V170.25H65.6215V167.431H66.1651V167.785H66.1762C66.3259 167.569 66.6199 167.348 67.108 167.348ZM69.8809 170.333C69.0378 170.333 68.4887 169.725 68.4887 168.84C68.4887 167.956 69.0378 167.348 69.8753 167.348C70.6019 167.348 71.0845 167.818 71.151 168.453H70.5908C70.5631 168.161 70.3967 167.796 69.8809 167.796C69.2763 167.796 69.0545 168.31 69.0545 168.84C69.0545 169.371 69.2763 169.88 69.8809 169.88C70.4023 169.88 70.5631 169.526 70.5908 169.205H71.151C71.1122 169.852 70.6075 170.333 69.8809 170.333ZM74.1809 168.78C74.1809 168.857 74.1809 168.94 74.1754 168.984H72.0011C72.0122 169.454 72.2895 169.891 72.8497 169.891C73.3489 169.891 73.5431 169.57 73.593 169.382H74.1476C73.9979 169.924 73.5819 170.333 72.8387 170.333C71.9401 170.333 71.4409 169.697 71.4409 168.835C71.4409 167.95 71.9734 167.342 72.8387 167.342C73.6984 167.342 74.1809 167.906 74.1809 168.78ZM72.0011 168.559H73.6152C73.6152 168.116 73.3046 167.785 72.822 167.785C72.3672 167.785 72.0344 168.094 72.0011 168.559ZM77.0636 170.333C76.1817 170.333 75.6493 169.725 75.6493 168.84C75.6493 167.962 76.1817 167.342 77.0692 167.342C77.9455 167.342 78.478 167.956 78.478 168.835C78.478 169.719 77.9455 170.333 77.0636 170.333ZM77.0692 169.885C77.646 169.885 77.9122 169.426 77.9122 168.84C77.9122 168.249 77.646 167.796 77.0692 167.796C76.4812 167.796 76.215 168.249 76.215 168.84C76.215 169.426 76.4812 169.885 77.0692 169.885ZM79.913 166.712C79.6856 166.712 79.6191 166.779 79.6191 167.077V167.431H80.146V167.879H79.6191V170.25H79.07V167.879H78.6817V167.431H79.07V167.088C79.07 166.436 79.3418 166.259 79.8021 166.259C79.9075 166.259 79.9907 166.27 80.146 166.292V166.729C80.0351 166.718 79.9907 166.712 79.913 166.712ZM82.6989 170.327C81.8392 170.327 81.4121 169.885 81.3954 169.31H81.9445C81.9667 169.636 82.1664 169.891 82.6933 169.891C83.1703 169.891 83.2979 169.681 83.2979 169.476C83.2979 169.122 82.9207 169.084 82.5547 169.006C82.061 168.89 81.4953 168.746 81.4953 168.161C81.4953 167.674 81.8891 167.348 82.5713 167.348C83.3478 167.348 83.7194 167.763 83.7583 168.249H83.2092C83.1703 168.033 83.0538 167.785 82.5824 167.785C82.2163 167.785 82.061 167.928 82.061 168.138C82.061 168.431 82.3772 168.459 82.7765 168.547C83.2979 168.669 83.8636 168.818 83.8636 169.448C83.8636 169.996 83.4421 170.327 82.6989 170.327ZM85.3024 169.835C85.3967 169.835 85.4411 169.83 85.5354 169.813V170.25C85.3967 170.278 85.3079 170.283 85.1915 170.283C84.7256 170.283 84.4427 170.106 84.4427 169.454V167.879H84.0323V167.431H84.4427V166.524H84.9863V167.431H85.5298V167.879H84.9863V169.471C84.9863 169.769 85.0695 169.835 85.3024 169.835ZM87.1871 170.333C86.3052 170.333 85.7727 169.725 85.7727 168.84C85.7727 167.962 86.3052 167.342 87.1927 167.342C88.069 167.342 88.6015 167.956 88.6015 168.835C88.6015 169.719 88.069 170.333 87.1871 170.333ZM87.1927 169.885C87.7695 169.885 88.0357 169.426 88.0357 168.84C88.0357 168.249 87.7695 167.796 87.1927 167.796C86.6047 167.796 86.3385 168.249 86.3385 168.84C86.3385 169.426 86.6047 169.885 87.1927 169.885ZM90.3065 170.333C89.4634 170.333 88.9143 169.725 88.9143 168.84C88.9143 167.956 89.4634 167.348 90.3009 167.348C91.0275 167.348 91.5101 167.818 91.5766 168.453H91.0164C90.9887 168.161 90.8223 167.796 90.3065 167.796C89.7019 167.796 89.48 168.31 89.48 168.84C89.48 169.371 89.7019 169.88 90.3065 169.88C90.8278 169.88 90.9887 169.526 91.0164 169.205H91.5766C91.5378 169.852 91.0331 170.333 90.3065 170.333ZM94.5344 170.25H93.891L92.9647 168.807L92.5543 169.2V170.25H92.0107V166.298H92.5543V168.625L93.7912 167.431H94.4179L93.3308 168.465L94.5344 170.25ZM96.6114 170.327C96.0456 170.327 95.6851 170.001 95.6851 169.52C95.6851 168.89 96.1621 168.702 96.8665 168.57C97.3102 168.487 97.582 168.431 97.582 168.155C97.582 167.95 97.46 167.779 97.044 167.779C96.5504 167.779 96.4006 167.934 96.3729 168.31H95.8182C95.846 167.768 96.2009 167.342 97.0662 167.342C97.6486 167.342 98.1145 167.586 98.1145 168.315V169.609C98.1145 169.813 98.1422 169.918 98.2476 169.918C98.2642 169.918 98.2809 169.918 98.3142 169.913V170.244C98.2199 170.267 98.1256 170.278 98.0368 170.278C97.7651 170.278 97.6208 170.173 97.5876 169.852H97.5765C97.3934 170.145 97.0717 170.327 96.6114 170.327ZM96.7334 169.891C97.2215 169.891 97.582 169.642 97.582 169.15V168.746C97.4933 168.829 97.2492 168.89 96.9608 168.951C96.4616 169.05 96.2508 169.189 96.2508 169.482C96.2508 169.747 96.3951 169.891 96.7334 169.891ZM100.262 167.348C100.784 167.348 101.205 167.646 101.205 168.293V170.25H100.662V168.442C100.662 168.067 100.495 167.812 100.085 167.812C99.6191 167.812 99.3196 168.094 99.3196 168.52V170.25H98.776V167.431H99.3196V167.785H99.3306C99.4804 167.569 99.7744 167.348 100.262 167.348ZM102.575 170.327C102.009 170.327 101.649 170.001 101.649 169.52C101.649 168.89 102.126 168.702 102.83 168.57C103.274 168.487 103.546 168.431 103.546 168.155C103.546 167.95 103.424 167.779 103.008 167.779C102.514 167.779 102.364 167.934 102.336 168.31H101.782C101.81 167.768 102.165 167.342 103.03 167.342C103.612 167.342 104.078 167.586 104.078 168.315V169.609C104.078 169.813 104.106 169.918 104.211 169.918C104.228 169.918 104.244 169.918 104.278 169.913V170.244C104.183 170.267 104.089 170.278 104 170.278C103.729 170.278 103.584 170.173 103.551 169.852H103.54C103.357 170.145 103.035 170.327 102.575 170.327ZM102.697 169.891C103.185 169.891 103.546 169.642 103.546 169.15V168.746C103.457 168.829 103.213 168.89 102.924 168.951C102.425 169.05 102.214 169.189 102.214 169.482C102.214 169.747 102.359 169.891 102.697 169.891ZM105.283 170.25H104.74V166.298H105.283V170.25ZM106.259 171.239C106.137 171.239 106.054 171.228 105.91 171.201V170.758C106.004 170.77 106.054 170.775 106.143 170.775C106.359 170.775 106.614 170.665 106.725 170.222L105.583 167.431H106.176L107.003 169.587H107.014L107.79 167.431H108.361L107.241 170.316C106.969 171.013 106.698 171.239 106.259 171.239ZM109.733 170.327C108.873 170.327 108.446 169.885 108.429 169.31H108.978C109 169.636 109.2 169.891 109.727 169.891C110.204 169.891 110.332 169.681 110.332 169.476C110.332 169.122 109.954 169.084 109.588 169.006C109.095 168.89 108.529 168.746 108.529 168.161C108.529 167.674 108.923 167.348 109.605 167.348C110.382 167.348 110.753 167.763 110.792 168.249H110.243C110.204 168.033 110.088 167.785 109.616 167.785C109.25 167.785 109.095 167.928 109.095 168.138C109.095 168.431 109.411 168.459 109.81 168.547C110.332 168.669 110.897 168.818 110.897 169.448C110.897 169.996 110.476 170.327 109.733 170.327ZM111.908 166.928H111.293V166.342H111.908V166.928ZM111.869 170.25H111.326V167.431H111.869V170.25ZM113.594 170.327C112.735 170.327 112.308 169.885 112.291 169.31H112.84C112.862 169.636 113.062 169.891 113.589 169.891C114.066 169.891 114.193 169.681 114.193 169.476C114.193 169.122 113.816 169.084 113.45 169.006C112.957 168.89 112.391 168.746 112.391 168.161C112.391 167.674 112.785 167.348 113.467 167.348C114.243 167.348 114.615 167.763 114.654 168.249H114.105C114.066 168.033 113.949 167.785 113.478 167.785C113.112 167.785 112.957 167.928 112.957 168.138C112.957 168.431 113.273 168.459 113.672 168.547C114.193 168.669 114.759 168.818 114.759 169.448C114.759 169.996 114.338 170.327 113.594 170.327ZM116.929 166.928H116.314V166.342H116.929V166.928ZM116.891 170.25H116.347V167.431H116.891V170.25ZM118.987 167.348C119.508 167.348 119.93 167.646 119.93 168.293V170.25H119.386V168.442C119.386 168.067 119.22 167.812 118.81 167.812C118.344 167.812 118.044 168.094 118.044 168.52V170.25H117.501V167.431H118.044V167.785H118.055C118.205 167.569 118.499 167.348 118.987 167.348ZM124.755 167.348C125.326 167.348 125.615 167.691 125.615 168.293V170.25H125.071V168.442C125.071 168.067 124.994 167.812 124.578 167.812C124.173 167.812 123.918 168.094 123.918 168.52V170.25H123.374V168.442C123.374 168.067 123.296 167.812 122.88 167.812C122.475 167.812 122.22 168.094 122.22 168.52V170.25H121.677V167.431H122.22V167.785H122.231C122.381 167.569 122.642 167.348 123.069 167.348C123.463 167.348 123.707 167.525 123.818 167.84H123.829C124.034 167.569 124.322 167.348 124.755 167.348ZM126.993 170.327C126.427 170.327 126.066 170.001 126.066 169.52C126.066 168.89 126.543 168.702 127.248 168.57C127.691 168.487 127.963 168.431 127.963 168.155C127.963 167.95 127.841 167.779 127.425 167.779C126.932 167.779 126.782 167.934 126.754 168.31H126.199C126.227 167.768 126.582 167.342 127.447 167.342C128.03 167.342 128.496 167.586 128.496 168.315V169.609C128.496 169.813 128.523 169.918 128.629 169.918C128.645 169.918 128.662 169.918 128.695 169.913V170.244C128.601 170.267 128.507 170.278 128.418 170.278C128.146 170.278 128.002 170.173 127.969 169.852H127.958C127.775 170.145 127.453 170.327 126.993 170.327ZM127.115 169.891C127.603 169.891 127.963 169.642 127.963 169.15V168.746C127.874 168.829 127.63 168.89 127.342 168.951C126.843 169.05 126.632 169.189 126.632 169.482C126.632 169.747 126.776 169.891 127.115 169.891ZM131.681 170.25H131.037L130.111 168.807L129.701 169.2V170.25H129.157V166.298H129.701V168.625L130.938 167.431H131.564L130.477 168.465L131.681 170.25ZM132.486 166.928H131.87V166.342H132.486V166.928ZM132.447 170.25H131.903V167.431H132.447V170.25ZM134.544 167.348C135.065 167.348 135.487 167.646 135.487 168.293V170.25H134.943V168.442C134.943 168.067 134.777 167.812 134.366 167.812C133.9 167.812 133.601 168.094 133.601 168.52V170.25H133.057V167.431H133.601V167.785H133.612C133.762 167.569 134.055 167.348 134.544 167.348ZM138.071 167.763V167.431H138.614V170.029C138.614 170.88 138.099 171.262 137.289 171.262C136.479 171.262 136.074 170.875 136.019 170.366H136.584C136.64 170.62 136.828 170.819 137.289 170.819C137.805 170.819 138.071 170.593 138.071 170.062V169.681H138.06C137.904 169.907 137.644 170.106 137.189 170.106C136.485 170.106 135.941 169.631 135.941 168.73C135.941 167.823 136.485 167.348 137.189 167.348C137.644 167.348 137.904 167.564 138.06 167.763H138.071ZM137.289 169.659C137.777 169.659 138.065 169.343 138.065 168.73C138.065 168.111 137.777 167.801 137.289 167.801C136.756 167.801 136.507 168.199 136.507 168.73C136.507 169.261 136.756 169.659 137.289 169.659ZM19.9305 173.929H19.3148V173.344H19.9305V173.929ZM19.8916 177.252H19.3481V174.433H19.8916V177.252ZM21.9883 174.35C22.5096 174.35 22.9312 174.648 22.9312 175.295V177.252H22.3876V175.444C22.3876 175.068 22.2212 174.814 21.8108 174.814C21.3449 174.814 21.0454 175.096 21.0454 175.521V177.252H20.5018V174.433H21.0454V174.786H21.0565C21.2062 174.571 21.5002 174.35 21.9883 174.35ZM24.5182 173.714C24.2908 173.714 24.2243 173.78 24.2243 174.079V174.433H24.7512V174.88H24.2243V177.252H23.6751V174.88H23.2869V174.433H23.6751V174.09C23.6751 173.438 23.9469 173.261 24.4073 173.261C24.5127 173.261 24.5959 173.272 24.7512 173.294V173.731C24.6402 173.719 24.5959 173.714 24.5182 173.714ZM26.3001 177.334C25.4182 177.334 24.8857 176.726 24.8857 175.842C24.8857 174.963 25.4182 174.344 26.3056 174.344C27.1819 174.344 27.7144 174.958 27.7144 175.837C27.7144 176.721 27.1819 177.334 26.3001 177.334ZM26.3056 176.887C26.8824 176.887 27.1487 176.428 27.1487 175.842C27.1487 175.251 26.8824 174.797 26.3056 174.797C25.7177 174.797 25.4514 175.251 25.4514 175.842C25.4514 176.428 25.7177 176.887 26.3056 176.887ZM29.4916 174.366C29.5914 174.366 29.669 174.372 29.7522 174.383V174.902C29.6857 174.891 29.6358 174.886 29.5692 174.886C29.0756 174.886 28.7206 175.256 28.7206 175.792V177.252H28.177V174.433H28.7206V174.969H28.7317C28.8814 174.615 29.1088 174.366 29.4916 174.366ZM33.1836 174.35C33.7549 174.35 34.0433 174.692 34.0433 175.295V177.252H33.4998V175.444C33.4998 175.068 33.4221 174.814 33.0061 174.814C32.6012 174.814 32.3461 175.096 32.3461 175.521V177.252H31.8025V175.444C31.8025 175.068 31.7249 174.814 31.3089 174.814C30.904 174.814 30.6489 175.096 30.6489 175.521V177.252H30.1053V174.433H30.6489V174.786H30.6599C30.8097 174.571 31.0704 174.35 31.4975 174.35C31.8913 174.35 32.1353 174.526 32.2462 174.842H32.2573C32.4626 174.571 32.751 174.35 33.1836 174.35ZM37.2349 175.781C37.2349 175.859 37.2349 175.942 37.2293 175.986H35.0549C35.066 176.456 35.3433 176.892 35.9035 176.892C36.4027 176.892 36.5968 176.572 36.6467 176.384H37.2016C37.0518 176.925 36.6356 177.334 35.8924 177.334C34.9939 177.334 34.4947 176.699 34.4947 175.837C34.4947 174.952 35.0272 174.344 35.8924 174.344C36.7521 174.344 37.2349 174.908 37.2349 175.781ZM35.0549 175.56H36.6689C36.6689 175.118 36.3583 174.786 35.8758 174.786C35.421 174.786 35.0882 175.096 35.0549 175.56ZM39.7016 174.775V173.299H40.2451V177.252H39.7016V176.92H39.6905C39.5352 177.119 39.2634 177.329 38.8197 177.329C38.0986 177.329 37.5495 176.771 37.5495 175.842C37.5495 174.913 38.0986 174.35 38.8197 174.35C39.2634 174.35 39.5352 174.554 39.6905 174.775H39.7016ZM38.9084 176.881C39.3965 176.881 39.696 176.478 39.696 175.842C39.696 175.201 39.3965 174.803 38.9084 174.803C38.376 174.803 38.1153 175.289 38.1153 175.842C38.1153 176.395 38.376 176.881 38.9084 176.881ZM42.5987 173.929H41.983V173.344H42.5987V173.929ZM42.5599 177.252H42.0163V174.433H42.5599V177.252ZM44.6565 174.35C45.1778 174.35 45.5994 174.648 45.5994 175.295V177.252H45.0558V175.444C45.0558 175.068 44.8894 174.814 44.479 174.814C44.0131 174.814 43.7135 175.096 43.7135 175.521V177.252H43.17V174.433H43.7135V174.786H43.7246C43.8744 174.571 44.1684 174.35 44.6565 174.35ZM47.4807 177.252H46.8706L45.8612 174.433H46.4435L47.1868 176.693H47.1923L47.9245 174.433H48.4902L47.4807 177.252ZM51.3393 175.781C51.3393 175.859 51.3393 175.942 51.3337 175.986H49.1595C49.1706 176.456 49.4479 176.892 50.0081 176.892C50.5073 176.892 50.7014 176.572 50.7513 176.384H51.306C51.1562 176.925 50.7402 177.334 49.997 177.334C49.0985 177.334 48.5993 176.699 48.5993 175.837C48.5993 174.952 49.1318 174.344 49.997 174.344C50.8567 174.344 51.3393 174.908 51.3393 175.781ZM49.1595 175.56H50.7735C50.7735 175.118 50.4629 174.786 49.9804 174.786C49.5256 174.786 49.1928 175.096 49.1595 175.56ZM52.9134 177.329C52.0537 177.329 51.6266 176.887 51.6099 176.312H52.159C52.1812 176.638 52.3809 176.892 52.9078 176.892C53.3848 176.892 53.5124 176.682 53.5124 176.478C53.5124 176.124 53.1352 176.085 52.7692 176.008C52.2755 175.892 51.7098 175.748 51.7098 175.162C51.7098 174.676 52.1036 174.35 52.7858 174.35C53.5623 174.35 53.9339 174.764 53.9727 175.251H53.4236C53.3848 175.035 53.2683 174.786 52.7969 174.786C52.4308 174.786 52.2755 174.93 52.2755 175.14C52.2755 175.433 52.5917 175.461 52.991 175.549C53.5124 175.671 54.0781 175.82 54.0781 176.45C54.0781 176.997 53.6566 177.329 52.9134 177.329ZM55.5169 176.837C55.6112 176.837 55.6556 176.831 55.7499 176.815V177.252C55.6112 177.279 55.5224 177.285 55.406 177.285C54.9401 177.285 54.6572 177.108 54.6572 176.456V174.88H54.2467V174.433H54.6572V173.526H55.2007V174.433H55.7443V174.88H55.2007V176.472C55.2007 176.771 55.2839 176.837 55.5169 176.837ZM59.2748 174.35C59.8461 174.35 60.1346 174.692 60.1346 175.295V177.252H59.591V175.444C59.591 175.068 59.5133 174.814 59.0974 174.814C58.6925 174.814 58.4373 175.096 58.4373 175.521V177.252H57.8938V175.444C57.8938 175.068 57.8161 174.814 57.4001 174.814C56.9952 174.814 56.7401 175.096 56.7401 175.521V177.252H56.1965V174.433H56.7401V174.786H56.7512C56.9009 174.571 57.1616 174.35 57.5887 174.35C57.9825 174.35 58.2266 174.526 58.3375 174.842H58.3486C58.5538 174.571 58.8422 174.35 59.2748 174.35ZM63.326 175.781C63.326 175.859 63.326 175.942 63.3205 175.986H61.1462C61.1573 176.456 61.4347 176.892 61.9948 176.892C62.494 176.892 62.6882 176.572 62.7381 176.384H63.2927C63.143 176.925 62.727 177.334 61.9838 177.334C61.0852 177.334 60.586 176.699 60.586 175.837C60.586 174.952 61.1185 174.344 61.9838 174.344C62.8435 174.344 63.326 174.908 63.326 175.781ZM61.1462 175.56H62.7603C62.7603 175.118 62.4497 174.786 61.9671 174.786C61.5123 174.786 61.1795 175.096 61.1462 175.56ZM65.2717 174.35C65.7931 174.35 66.2146 174.648 66.2146 175.295V177.252H65.6711V175.444C65.6711 175.068 65.5047 174.814 65.0942 174.814C64.6283 174.814 64.3288 175.096 64.3288 175.521V177.252H63.7853V174.433H64.3288V174.786H64.3399C64.4897 174.571 64.7836 174.35 65.2717 174.35ZM67.8179 176.837C67.9122 176.837 67.9566 176.831 68.0509 176.815V177.252C67.9122 177.279 67.8235 177.285 67.707 177.285C67.2411 177.285 66.9582 177.108 66.9582 176.456V174.88H66.5478V174.433H66.9582V173.526H67.5018V174.433H68.0454V174.88H67.5018V176.472C67.5018 176.771 67.585 176.837 67.8179 176.837ZM71.6646 174.775V173.299H72.2082V177.252H71.6646V176.92H71.6535C71.4982 177.119 71.2265 177.329 70.7827 177.329C70.0617 177.329 69.5126 176.771 69.5126 175.842C69.5126 174.913 70.0617 174.35 70.7827 174.35C71.2265 174.35 71.4982 174.554 71.6535 174.775H71.6646ZM70.8715 176.881C71.3596 176.881 71.6591 176.478 71.6591 175.842C71.6591 175.201 71.3596 174.803 70.8715 174.803C70.339 174.803 70.0783 175.289 70.0783 175.842C70.0783 176.395 70.339 176.881 70.8715 176.881ZM75.4156 175.781C75.4156 175.859 75.4156 175.942 75.41 175.986H73.2358C73.2469 176.456 73.5242 176.892 74.0844 176.892C74.5836 176.892 74.7777 176.572 74.8276 176.384H75.3823C75.2325 176.925 74.8165 177.334 74.0733 177.334C73.1748 177.334 72.6756 176.699 72.6756 175.837C72.6756 174.952 73.2081 174.344 74.0733 174.344C74.933 174.344 75.4156 174.908 75.4156 175.781ZM73.2358 175.56H74.8498C74.8498 175.118 74.5392 174.786 74.0567 174.786C73.6019 174.786 73.2691 175.096 73.2358 175.56ZM77.1172 177.334C76.2742 177.334 75.7251 176.726 75.7251 175.842C75.7251 174.958 76.2742 174.35 77.1117 174.35C77.8383 174.35 78.3208 174.819 78.3874 175.455H77.8272C77.7995 175.162 77.6331 174.797 77.1172 174.797C76.5127 174.797 76.2908 175.311 76.2908 175.842C76.2908 176.373 76.5127 176.881 77.1172 176.881C77.6386 176.881 77.7995 176.527 77.8272 176.207H78.3874C78.3486 176.854 77.8438 177.334 77.1172 177.334ZM79.4039 173.929H78.7882V173.344H79.4039V173.929ZM79.365 177.252H78.8215V174.433H79.365V177.252ZM81.09 177.329C80.2303 177.329 79.8032 176.887 79.7866 176.312H80.3357C80.3579 176.638 80.5575 176.892 81.0845 176.892C81.5615 176.892 81.689 176.682 81.689 176.478C81.689 176.124 81.3119 176.085 80.9458 176.008C80.4522 175.892 79.8864 175.748 79.8864 175.162C79.8864 174.676 80.2802 174.35 80.9624 174.35C81.739 174.35 82.1106 174.764 82.1494 175.251H81.6003C81.5615 175.035 81.445 174.786 80.9735 174.786C80.6075 174.786 80.4522 174.93 80.4522 175.14C80.4522 175.433 80.7683 175.461 81.1677 175.549C81.689 175.671 82.2548 175.82 82.2548 176.45C82.2548 176.997 81.8332 177.329 81.09 177.329ZM83.2657 173.929H82.6501V173.344H83.2657V173.929ZM83.2269 177.252H82.6833V174.433H83.2269V177.252ZM85.1016 177.334C84.2197 177.334 83.6873 176.726 83.6873 175.842C83.6873 174.963 84.2197 174.344 85.1072 174.344C85.9835 174.344 86.516 174.958 86.516 175.837C86.516 176.721 85.9835 177.334 85.1016 177.334ZM85.1072 176.887C85.684 176.887 85.9502 176.428 85.9502 175.842C85.9502 175.251 85.684 174.797 85.1072 174.797C84.5192 174.797 84.253 175.251 84.253 175.842C84.253 176.428 84.5192 176.887 85.1072 176.887ZM88.465 174.35C88.9864 174.35 89.4079 174.648 89.4079 175.295V177.252H88.8644V175.444C88.8644 175.068 88.698 174.814 88.2875 174.814C87.8216 174.814 87.5221 175.096 87.5221 175.521V177.252H86.9786V174.433H87.5221V174.786H87.5332C87.683 174.571 87.9769 174.35 88.465 174.35ZM91.1107 177.329C90.251 177.329 89.8239 176.887 89.8073 176.312H90.3564C90.3786 176.638 90.5782 176.892 91.1052 176.892C91.5822 176.892 91.7097 176.682 91.7097 176.478C91.7097 176.124 91.3326 176.085 90.9665 176.008C90.4729 175.892 89.9071 175.748 89.9071 175.162C89.9071 174.676 90.3009 174.35 90.9831 174.35C91.7596 174.35 92.1313 174.764 92.1701 175.251H91.621C91.5822 175.035 91.4657 174.786 90.9942 174.786C90.6282 174.786 90.4729 174.93 90.4729 175.14C90.4729 175.433 90.789 175.461 91.1884 175.549C91.7097 175.671 92.2755 175.82 92.2755 176.45C92.2755 176.997 91.8539 177.329 91.1107 177.329ZM93.2531 177.252H92.6486V176.649H93.2531V177.252Z" fill="white"/>
<path d="M-9.9834 227H158.815" stroke="#F8FC32" stroke-linecap="round"/>
<path d="M159 40.9042H0V124.924H159V40.9042Z" fill="#B881FF"/>
<path d="M-0.739258 84.5723H160.664" stroke="#A764FF" stroke-linecap="round" stroke-dasharray="2 2"/>
<path d="M-0.739258 114.605H160.664" stroke="#A764FF" stroke-linecap="round" stroke-dasharray="2 2"/>
<path d="M-0.739258 51.2224H160.664" stroke="#A764FF" stroke-linecap="round" stroke-dasharray="2 2"/>
<path d="M3.69824 73.7013V83.4667" stroke="#1C1C1C" stroke-width="3" stroke-linecap="round"/>
<path d="M5.54688 71.8588V82.1769" stroke="#1C1C1C" stroke-width="3" stroke-linecap="round"/>
<path d="M7.39551 65.5941V81.0714" stroke="#1C1C1C" stroke-width="3" stroke-linecap="round"/>
<path d="M9.24414 69.2792V85.125" stroke="#1C1C1C" stroke-width="3" stroke-linecap="round"/>
<path d="M11.0938 79.5974V87.7046" stroke="#1C1C1C" stroke-width="3" stroke-linecap="round"/>
<path d="M12.9424 91.3896V83.651" stroke="#1C1C1C" stroke-width="3" stroke-linecap="round"/>
<path d="M14.791 82.177V92.8637" stroke="#1C1C1C" stroke-width="3" stroke-linecap="round"/>
<path d="M16.6396 79.5974V87.7046" stroke="#1C1C1C" stroke-width="3" stroke-linecap="round"/>
<path d="M18.4883 77.7549V92.8636" stroke="#1C1C1C" stroke-width="3" stroke-linecap="round"/>
<path d="M20.3379 79.5974V91.3896" stroke="#1C1C1C" stroke-width="3" stroke-linecap="round"/>
<path d="M22.1865 82.177V91.3897" stroke="#1C1C1C" stroke-width="3" stroke-linecap="round"/>
<path d="M24.0352 79.5974V87.7046" stroke="#1C1C1C" stroke-width="3" stroke-linecap="round"/>
<path d="M25.8838 77.0178V83.6509" stroke="#1C1C1C" stroke-width="3" stroke-linecap="round"/>
<path d="M27.7324 67.8052V78.4919" stroke="#1C1C1C" stroke-width="3" stroke-linecap="round"/>
<path d="M29.582 65.5941V77.3863" stroke="#1C1C1C" stroke-width="3" stroke-linecap="round"/>
<path d="M31.4307 63.3831V75.9123" stroke="#1C1C1C" stroke-width="3" stroke-linecap="round"/>
<path d="M33.2793 65.5941V91.3896" stroke="#1C1C1C" stroke-width="3" stroke-linecap="round"/>
<path d="M35.1279 79.5974V91.3896" stroke="#1C1C1C" stroke-width="3" stroke-linecap="round"/>
<path d="M36.9775 71.8588V86.9675" stroke="#1C1C1C" stroke-width="3" stroke-linecap="round"/>
<path d="M38.8262 69.6477V80.3344" stroke="#1C1C1C" stroke-width="3" stroke-linecap="round"/>
<path d="M40.6748 67.8052V77.0178" stroke="#1C1C1C" stroke-width="3" stroke-linecap="round"/>
<path d="M42.5234 67.8052V77.0178" stroke="#1C1C1C" stroke-width="3" stroke-linecap="round"/>
<path d="M44.3721 65.5941V75.1753" stroke="#1C1C1C" stroke-width="3" stroke-linecap="round"/>
<path d="M46.2217 63.3831V75.9123" stroke="#1C1C1C" stroke-width="3" stroke-linecap="round"/>
<path d="M48.0703 65.5941V77.3863" stroke="#1C1C1C" stroke-width="3" stroke-linecap="round"/>
<path d="M49.9189 66.6997V75.9124" stroke="#1C1C1C" stroke-width="3" stroke-linecap="round"/>
<path d="M51.7676 71.8588V86.9675" stroke="#1C1C1C" stroke-width="3" stroke-linecap="round"/>
<path d="M53.6162 78.4919V91.3897" stroke="#1C1C1C" stroke-width="3" stroke-linecap="round"/>
<path d="M55.4658 79.5974V95.8117" stroke="#1C1C1C" stroke-width="3" stroke-linecap="round"/>
<path d="M57.3145 86.9675V99.4967" stroke="#1C1C1C" stroke-width="3" stroke-linecap="round"/>
<path d="M59.1631 96.5487V105.024" stroke="#1C1C1C" stroke-width="3" stroke-linecap="round"/>
<path d="M61.0117 92.1266V104.287" stroke="#1C1C1C" stroke-width="3" stroke-linecap="round"/>
<path d="M62.8604 90.2841V98.3912" stroke="#1C1C1C" stroke-width="3" stroke-linecap="round"/>
<path d="M64.71 89.1786V96.5487" stroke="#1C1C1C" stroke-width="3" stroke-linecap="round"/>
<path d="M66.5586 86.9675V95.8117" stroke="#1C1C1C" stroke-width="3" stroke-linecap="round"/>
<path d="M68.4072 88.4415V98.3912" stroke="#1C1C1C" stroke-width="3" stroke-linecap="round"/>
<path d="M70.2559 82.177V90.2841" stroke="#1C1C1C" stroke-width="3" stroke-linecap="round"/>
<path d="M72.1045 80.3345V87.7046" stroke="#1C1C1C" stroke-width="3" stroke-linecap="round"/>
<path d="M73.9541 84.0195V96.5488" stroke="#1C1C1C" stroke-width="3" stroke-linecap="round"/>
<path d="M75.8027 91.3896V98.3913" stroke="#1C1C1C" stroke-width="3" stroke-linecap="round"/>
<path d="M77.6514 93.6007V108.341" stroke="#1C1C1C" stroke-width="3" stroke-linecap="round"/>
<path d="M79.5 96.5487V114.606" stroke="#1C1C1C" stroke-width="3" stroke-linecap="round"/>
<path d="M81.3496 95.0747V106.867" stroke="#1C1C1C" stroke-width="3" stroke-linecap="round"/>
<path d="M83.1982 88.4415V100.234" stroke="#1C1C1C" stroke-width="3" stroke-linecap="round"/>
<path d="M85.0469 84.7565V96.5487" stroke="#1C1C1C" stroke-width="3" stroke-linecap="round"/>
<path d="M86.8955 92.1266V100.234" stroke="#1C1C1C" stroke-width="3" stroke-linecap="round"/>
<path d="M88.7441 90.2841V104.287" stroke="#1C1C1C" stroke-width="3" stroke-linecap="round"/>
<path d="M90.5938 84.0195V95.8117" stroke="#1C1C1C" stroke-width="3" stroke-linecap="round"/>
<path d="M92.4424 76.6493V88.4415" stroke="#1C1C1C" stroke-width="3" stroke-linecap="round"/>
<path d="M94.291 70.3848V79.5974" stroke="#1C1C1C" stroke-width="3" stroke-linecap="round"/>
<path d="M96.1396 71.8588V83.651" stroke="#1C1C1C" stroke-width="3" stroke-linecap="round"/>
<path d="M97.9883 74.0698V85.4935" stroke="#1C1C1C" stroke-width="3" stroke-linecap="round"/>
<path d="M99.8379 83.651V89.1786" stroke="#1C1C1C" stroke-width="3" stroke-linecap="round"/>
<path d="M101.687 80.3345V85.1251" stroke="#1C1C1C" stroke-width="3" stroke-linecap="round"/>
<path d="M103.535 77.0178V81.4399" stroke="#1C1C1C" stroke-width="3" stroke-linecap="round"/>
<path d="M105.384 57.8555V77.7548" stroke="#1C1C1C" stroke-width="3" stroke-linecap="round"/>
<path d="M107.232 59.698V65.5941" stroke="#1C1C1C" stroke-width="3" stroke-linecap="round"/>
<path d="M109.082 61.9091V69.6477" stroke="#1C1C1C" stroke-width="3" stroke-linecap="round"/>
<path d="M110.931 51.2224V66.6997" stroke="#1C1C1C" stroke-width="3" stroke-linecap="round"/>
<path d="M112.779 51.2224V63.0146" stroke="#1C1C1C" stroke-width="3" stroke-linecap="round"/>
<path d="M114.628 60.8036V72.5958" stroke="#1C1C1C" stroke-width="3" stroke-linecap="round"/>
<path d="M116.478 65.5941V77.3863" stroke="#1C1C1C" stroke-width="3" stroke-linecap="round"/>
<path d="M118.326 71.8588V88.4416" stroke="#1C1C1C" stroke-width="3" stroke-linecap="round"/>
<path d="M120.175 81.4399V93.2321" stroke="#1C1C1C" stroke-width="3" stroke-linecap="round"/>
<path d="M122.023 87.7046V91.3897" stroke="#1C1C1C" stroke-width="3" stroke-linecap="round"/>
<path d="M123.872 85.125V89.5471" stroke="#1C1C1C" stroke-width="3" stroke-linecap="round"/>
<path d="M125.722 78.4919V87.7046" stroke="#1C1C1C" stroke-width="3" stroke-linecap="round"/>
<path d="M127.57 68.5422V80.3344" stroke="#1C1C1C" stroke-width="3" stroke-linecap="round"/>
<path d="M129.419 62.6461V70.3848" stroke="#1C1C1C" stroke-width="3" stroke-linecap="round"/>
<path d="M131.268 54.9075V66.6997" stroke="#1C1C1C" stroke-width="3" stroke-linecap="round"/>
<path d="M133.116 54.1704V65.9626" stroke="#1C1C1C" stroke-width="3" stroke-linecap="round"/>
<path d="M134.966 64.4886V84.0195" stroke="#1C1C1C" stroke-width="3" stroke-linecap="round"/>
<path d="M136.814 80.3345V89.9156" stroke="#1C1C1C" stroke-width="3" stroke-linecap="round"/>
<path d="M138.663 81.4399V87.7046" stroke="#1C1C1C" stroke-width="3" stroke-linecap="round"/>
<path d="M140.512 85.125V90.6526" stroke="#1C1C1C" stroke-width="3" stroke-linecap="round"/>
<path d="M142.36 89.5471V96.5487" stroke="#1C1C1C" stroke-width="3" stroke-linecap="round"/>
<path d="M144.21 79.9659V93.6007" stroke="#1C1C1C" stroke-width="3" stroke-linecap="round"/>
<path d="M146.059 75.9124V82.914" stroke="#1C1C1C" stroke-width="3" stroke-linecap="round"/>
<path d="M147.907 66.6997V77.7549" stroke="#1C1C1C" stroke-width="3" stroke-linecap="round"/>
<path d="M149.756 63.0146V71.8588" stroke="#1C1C1C" stroke-width="3" stroke-linecap="round"/>
<path d="M151.605 59.698V68.5422" stroke="#1C1C1C" stroke-width="3" stroke-linecap="round"/>
<path d="M153.454 58.9611V67.8052" stroke="#1C1C1C" stroke-width="3" stroke-linecap="round"/>
<path d="M155.303 63.3831V83.6509" stroke="#1C1C1C" stroke-width="3" stroke-linecap="round"/>
<path d="M83.9662 77.2187C84.9446 77.7873 84.9446 79.1964 83.9662 79.7651L75.0689 84.9374C74.0831 85.5108 72.8447 84.8018 72.8447 83.6642V73.3195C72.8447 72.1819 74.0831 71.4733 75.0689 72.0463L83.9662 77.2187Z" fill="white"/>
</g>
</g>
<defs>
<clipPath id="clip0_507_586">
<rect width="159" height="227" fill="white"/>
</clipPath>
</defs>
</svg>
