<svg width="301" height="161" viewBox="0 0 301 161" fill="none" xmlns="http://www.w3.org/2000/svg">
<g clip-path="url(#clip0_507_486)">
<mask id="mask0_507_486" style="mask-type:luminance" maskUnits="userSpaceOnUse" x="0" y="0" width="301" height="161">
<path d="M301 0H0V161H301V0Z" fill="white"/>
</mask>
<g mask="url(#mask0_507_486)">
<path d="M301 0H0V161H301V0Z" fill="#1C1C1C"/>
<path d="M25.3681 53.6666H22.2881V33.471H30.6321C34.4121 33.471 37.1841 35.2505 37.1841 39.4873C37.1841 43.7242 34.4121 45.4754 30.6321 45.4754H25.3681V53.6666ZM25.3681 42.7921H30.4921C32.8161 42.7921 33.9921 41.747 33.9921 39.4873C33.9921 37.1995 32.8161 36.1544 30.4921 36.1544H25.3681V42.7921ZM44.9858 54.0903C40.5338 54.0903 37.8458 50.9833 37.8458 46.464C37.8458 41.973 40.5338 38.8095 45.0138 38.8095C49.4378 38.8095 52.1258 41.9447 52.1258 46.4358C52.1258 50.9551 49.4378 54.0903 44.9858 54.0903ZM45.0138 51.8024C47.9258 51.8024 49.2698 49.4581 49.2698 46.464C49.2698 43.4417 47.9258 41.1256 45.0138 41.1256C42.0458 41.1256 40.7018 43.4417 40.7018 46.464C40.7018 49.4581 42.0458 51.8024 45.0138 51.8024ZM61.0972 38.9224C61.6012 38.9224 61.9932 38.9507 62.4132 39.0072V41.6623C62.0772 41.6058 61.8252 41.5775 61.4892 41.5775C58.9972 41.5775 57.2052 43.47 57.2052 46.2098V53.6666H54.4612V39.2614H57.2052V42.0012H57.2612C58.0172 40.1935 59.1652 38.9224 61.0972 38.9224ZM69.4595 51.5482C69.9355 51.5482 70.1597 51.52 70.6357 51.4352V53.6666C69.9355 53.8079 69.4875 53.8361 68.8995 53.8361C66.5475 53.8361 65.1195 52.9323 65.1195 49.5993V41.5493H63.0475V39.2614H65.1195V34.6291H67.8635V39.2614H70.6077V41.5493H67.8635V49.684C67.8635 51.2093 68.2835 51.5482 69.4595 51.5482ZM78.1551 35.5895C77.0071 35.5895 76.6711 35.9284 76.6711 37.4537V39.2614H79.3311V41.5493H76.6711V53.6666H73.8991V41.5493H71.9391V39.2614H73.8991V37.5102C73.8991 34.1772 75.2711 33.2733 77.5951 33.2733C78.1271 33.2733 78.5471 33.3298 79.3311 33.4428V35.6742C78.7711 35.6177 78.5471 35.5895 78.1551 35.5895ZM87.1501 54.0903C82.6981 54.0903 80.0101 50.9833 80.0101 46.464C80.0101 41.973 82.6981 38.8095 87.1781 38.8095C91.6021 38.8095 94.2901 41.9447 94.2901 46.4358C94.2901 50.9551 91.6021 54.0903 87.1501 54.0903ZM87.1781 51.8024C90.0901 51.8024 91.4341 49.4581 91.4341 46.464C91.4341 43.4417 90.0901 41.1256 87.1781 41.1256C84.2101 41.1256 82.8661 43.4417 82.8661 46.464C82.8661 49.4581 84.2101 51.8024 87.1781 51.8024ZM99.3693 53.6666H96.6253V33.471H99.3693V53.6666ZM105.389 36.691H102.281V33.697H105.389V36.691ZM105.193 53.6666H102.449V39.2614H105.193V53.6666ZM114.658 54.0903C110.206 54.0903 107.518 50.9833 107.518 46.464C107.518 41.973 110.206 38.8095 114.686 38.8095C119.11 38.8095 121.798 41.9447 121.798 46.4358C121.798 50.9551 119.11 54.0903 114.658 54.0903ZM114.686 51.8024C117.598 51.8024 118.942 49.4581 118.942 46.464C118.942 43.4417 117.598 41.1256 114.686 41.1256C111.718 41.1256 110.374 43.4417 110.374 46.464C110.374 49.4581 111.718 51.8024 114.686 51.8024Z" fill="#A774FF"/>
<path d="M279.3 52.2544L275.1 48.0176M266.7 44.4869C266.7 45.136 266.827 45.7788 267.073 46.3785C267.32 46.9782 267.68 47.5231 268.135 47.982C268.59 48.4411 269.131 48.8052 269.725 49.0536C270.319 49.302 270.957 49.4298 271.6 49.4298C272.243 49.4298 272.881 49.302 273.475 49.0536C274.07 48.8052 274.61 48.4411 275.065 47.982C275.52 47.5231 275.881 46.9782 276.127 46.3785C276.374 45.7788 276.5 45.136 276.5 44.4869C276.5 43.8377 276.374 43.195 276.127 42.5953C275.881 41.9955 275.52 41.4507 275.065 40.9917C274.61 40.5326 274.07 40.1685 273.475 39.9201C272.881 39.6718 272.243 39.5439 271.6 39.5439C270.957 39.5439 270.319 39.6718 269.725 39.9201C269.131 40.1685 268.59 40.5326 268.135 40.9917C267.68 41.4507 267.32 41.9955 267.073 42.5953C266.827 43.195 266.7 43.8377 266.7 44.4869Z" stroke="#A774FF" stroke-width="2.5" stroke-linecap="round" stroke-linejoin="round"/>
<path d="M123.554 116.654C121.423 116.654 120.059 115.076 120.059 112.917C120.059 110.757 121.423 109.189 123.554 109.189C125.686 109.189 127.05 110.757 127.05 112.917C127.05 115.076 125.686 116.654 123.554 116.654ZM123.554 115.7C125.237 115.7 125.905 114.393 125.905 112.917C125.905 111.44 125.237 110.144 123.554 110.144C121.872 110.144 121.204 111.44 121.204 112.917C121.204 114.393 121.872 115.7 123.554 115.7ZM130.303 116.513H129.208L127.395 111.389H128.44L129.775 115.498H129.785L131.1 111.389H132.115L130.303 116.513ZM137.231 113.841C137.231 113.982 137.231 114.132 137.221 114.213H133.317C133.338 115.066 133.835 115.86 134.841 115.86C135.737 115.86 136.086 115.277 136.175 114.936H137.171C136.903 115.921 136.156 116.664 134.821 116.664C133.208 116.664 132.311 115.508 132.311 113.941C132.311 112.334 133.268 111.228 134.821 111.228C136.365 111.228 137.231 112.254 137.231 113.841ZM133.317 113.439H136.215C136.215 112.635 135.658 112.033 134.792 112.033C133.975 112.033 133.377 112.595 133.317 113.439ZM140.416 111.269C140.595 111.269 140.734 111.279 140.884 111.299V112.243C140.765 112.223 140.675 112.213 140.555 112.213C139.669 112.213 139.031 112.886 139.031 113.861V116.513H138.056V111.389H139.031V112.364H139.052C139.321 111.721 139.729 111.269 140.416 111.269ZM142.747 116.654C141.731 116.654 141.084 116.061 141.084 115.187C141.084 114.042 141.941 113.7 143.205 113.459C144.002 113.308 144.49 113.208 144.49 112.706C144.49 112.334 144.271 112.022 143.524 112.022C142.638 112.022 142.369 112.304 142.319 112.987H141.323C141.373 112.002 142.011 111.228 143.564 111.228C144.61 111.228 145.446 111.67 145.446 112.997V115.348C145.446 115.719 145.496 115.91 145.685 115.91C145.715 115.91 145.745 115.91 145.805 115.9V116.503C145.635 116.544 145.466 116.563 145.307 116.563C144.819 116.563 144.56 116.373 144.5 115.79H144.48C144.151 116.323 143.574 116.654 142.747 116.654ZM142.966 115.86C143.842 115.86 144.49 115.408 144.49 114.514V113.78C144.331 113.932 143.893 114.042 143.375 114.153C142.478 114.333 142.1 114.584 142.1 115.116C142.1 115.599 142.358 115.86 142.966 115.86ZM147.61 116.513H146.634V109.33H147.61V116.513ZM149.681 116.513H148.705V109.33H149.681V116.513ZM154.113 116.513H153.017V109.33H155.985C157.33 109.33 158.316 109.963 158.316 111.47C158.316 112.977 157.33 113.6 155.985 113.6H154.113V116.513ZM154.113 112.645H155.936C156.762 112.645 157.18 112.274 157.18 111.47C157.18 110.656 156.762 110.284 155.936 110.284H154.113V112.645ZM158.938 116.513H158.032L160.791 109.33H161.697L158.938 116.513ZM167.23 116.513H162.529V109.33H163.625V115.558H167.23V116.513Z" fill="white"/>
<path d="M125.277 137.805H123.681V134.517H120.524V132.908H123.681V129.619H125.277V132.908H128.434V134.517H125.277V137.805ZM134.57 139.606C131.516 139.606 129.8 138.014 129.8 135.279H131.687C131.687 136.923 132.374 137.996 134.45 137.996C136.32 137.996 136.955 137.235 136.955 135.954C136.955 134.309 135.789 133.911 134.587 133.911H133.472V132.371H134.519C135.703 132.371 136.543 131.834 136.543 130.536C136.543 129.601 135.977 128.771 134.519 128.771C132.511 128.771 132.014 129.844 132.014 131.003H130.126C130.126 128.788 131.619 127.161 134.536 127.161C136.646 127.161 138.465 128.338 138.465 130.45C138.465 131.73 137.813 132.526 136.68 133.011V133.046C138.242 133.548 138.877 134.586 138.877 135.988C138.877 138.307 137.178 139.606 134.57 139.606ZM144.463 139.606C142.25 139.606 140.791 138.117 140.568 136.334H142.49C142.627 137.321 143.21 138.048 144.48 138.048C146.676 138.048 147.26 135.971 147.26 133.911V133.738L147.208 133.721C146.59 134.724 145.492 135.296 144.154 135.296C141.855 135.296 140.259 133.669 140.259 131.315C140.259 128.996 141.855 127.161 144.497 127.161C147.894 127.161 149.112 129.705 149.112 133.357C149.112 137.286 147.414 139.606 144.463 139.606ZM144.429 133.721C146.042 133.721 147.054 132.682 147.054 131.177C147.054 129.723 146.161 128.719 144.532 128.719C142.987 128.719 142.147 129.705 142.147 131.211C142.147 132.786 143.056 133.721 144.429 133.721ZM152.034 139.363H150.164V137.477H152.034V139.363ZM158.009 139.606C155.435 139.606 153.462 138.411 153.462 135.988C153.462 134.344 154.542 133.513 155.675 133.011V132.977C154.834 132.526 154.045 131.765 154.045 130.415C154.045 128.355 155.709 127.161 158.009 127.161C160.325 127.161 161.989 128.355 161.989 130.415C161.989 131.765 161.183 132.526 160.359 132.977V133.011C161.474 133.513 162.573 134.344 162.573 135.988C162.573 138.411 160.599 139.606 158.009 139.606ZM158.009 132.267C159.347 132.267 160.136 131.696 160.136 130.484C160.136 129.29 159.347 128.684 158.009 128.684C156.687 128.684 155.898 129.29 155.898 130.484C155.898 131.696 156.687 132.267 158.009 132.267ZM158.009 138.048C159.656 138.048 160.634 137.252 160.634 135.885C160.634 134.551 159.656 133.756 158.009 133.756C156.362 133.756 155.384 134.551 155.384 135.885C155.384 137.252 156.362 138.048 158.009 138.048ZM170.146 134.032C168.19 134.032 167.178 132.509 167.178 130.588C167.178 128.684 168.156 127.161 170.146 127.161C172.085 127.161 173.097 128.684 173.097 130.588C173.097 132.509 172.119 134.032 170.146 134.032ZM171.433 139.363H169.957L176.546 127.403H178.022L171.433 139.363ZM170.146 132.735C171.09 132.735 171.536 131.903 171.536 130.588C171.536 129.272 171.09 128.442 170.146 128.442C169.185 128.442 168.739 129.272 168.739 130.588C168.739 131.903 169.185 132.735 170.146 132.735ZM177.85 139.606C175.894 139.606 174.899 138.083 174.899 136.178C174.899 134.258 175.877 132.735 177.85 132.735C179.806 132.735 180.801 134.258 180.801 136.178C180.801 138.083 179.823 139.606 177.85 139.606ZM177.85 138.325C178.794 138.325 179.257 137.494 179.257 136.178C179.257 134.863 178.794 134.032 177.85 134.032C176.906 134.032 176.443 134.863 176.443 136.178C176.443 137.494 176.906 138.325 177.85 138.325Z" fill="#14AE5C"/>
<path d="M23.8563 116.513H22.7507V110.284H20.4502V109.33H26.1568V110.284H23.8563V116.513ZM27.914 116.664C26.3305 116.664 25.3744 115.558 25.3744 113.951C25.3744 112.354 26.3305 111.228 27.924 111.228C29.4976 111.228 30.4536 112.344 30.4536 113.941C30.4536 115.549 29.4976 116.664 27.914 116.664ZM27.924 115.85C28.9597 115.85 29.4378 115.016 29.4378 113.951C29.4378 112.877 28.9597 112.052 27.924 112.052C26.8683 112.052 26.3903 112.877 26.3903 113.951C26.3903 115.016 26.8683 115.85 27.924 115.85ZM34.8894 112.012V109.33H35.8655V116.513H34.8894V115.91H34.8696C34.5907 116.272 34.1027 116.654 33.306 116.654C32.0113 116.654 31.0253 115.639 31.0253 113.951C31.0253 112.264 32.0113 111.239 33.306 111.239C34.1027 111.239 34.5907 111.61 34.8696 112.012H34.8894ZM33.4653 115.84C34.3417 115.84 34.8795 115.107 34.8795 113.951C34.8795 112.786 34.3417 112.062 33.4653 112.062C32.5092 112.062 32.0411 112.946 32.0411 113.951C32.0411 114.956 32.5092 115.84 33.4653 115.84ZM38.3683 116.654C37.3525 116.654 36.7051 116.061 36.7051 115.187C36.7051 114.042 37.5616 113.7 38.8265 113.459C39.6231 113.308 40.1112 113.208 40.1112 112.706C40.1112 112.334 39.8921 112.022 39.1451 112.022C38.2588 112.022 37.9899 112.304 37.94 112.987H36.9442C36.9939 112.002 37.6313 111.228 39.1849 111.228C40.2307 111.228 41.0672 111.67 41.0672 112.997V115.348C41.0672 115.719 41.117 115.91 41.3063 115.91C41.3361 115.91 41.366 115.91 41.4258 115.9V116.503C41.2564 116.544 41.0872 116.563 40.9278 116.563C40.4398 116.563 40.1809 116.373 40.1211 115.79H40.1012C39.7726 116.322 39.1949 116.654 38.3683 116.654ZM38.5874 115.86C39.4638 115.86 40.1112 115.408 40.1112 114.514V113.78C39.9518 113.932 39.5136 114.042 38.9957 114.153C38.0994 114.333 37.7209 114.584 37.7209 115.116C37.7209 115.599 37.9799 115.86 38.5874 115.86ZM42.7565 118.312C42.5374 118.312 42.3881 118.291 42.1291 118.241V117.438C42.2985 117.457 42.3881 117.468 42.5474 117.468C42.9358 117.468 43.394 117.267 43.5931 116.463L41.5415 111.389H42.6072L44.0911 115.308H44.111L45.5053 111.389H46.5311L44.5193 116.634C44.0313 117.899 43.5433 118.312 42.7565 118.312ZM47.0378 111.791V111.239C47.3963 111.138 47.5557 110.937 47.5557 110.425H47.0378V109.33H48.1134V110.425C48.1134 111.078 47.8345 111.591 47.0378 111.791ZM50.5978 116.654C49.0542 116.654 48.2873 115.85 48.2574 114.805H49.2434C49.2832 115.398 49.6417 115.86 50.5878 115.86C51.4443 115.86 51.6734 115.479 51.6734 115.107C51.6734 114.464 50.9962 114.393 50.3389 114.253C49.4525 114.042 48.4367 113.78 48.4367 112.716C48.4367 111.831 49.1438 111.239 50.3688 111.239C51.763 111.239 52.4303 111.992 52.5 112.877H51.514C51.4443 112.485 51.2352 112.033 50.3886 112.033C49.7313 112.033 49.4525 112.294 49.4525 112.675C49.4525 113.208 50.0201 113.258 50.7372 113.419C51.6734 113.64 52.6893 113.911 52.6893 115.056C52.6893 116.051 51.9323 116.654 50.5978 116.654ZM56.795 116.513H55.6995V109.33H58.6673C60.0118 109.33 60.9978 109.963 60.9978 111.47C60.9978 112.977 60.0118 113.6 58.6673 113.6H56.795V116.513ZM56.795 112.645H58.6175C59.4442 112.645 59.8624 112.273 59.8624 111.47C59.8624 110.656 59.4442 110.284 58.6175 110.284H56.795V112.645ZM61.6202 116.513H60.7139L63.4726 109.33H64.3789L61.6202 116.513ZM69.912 116.513H65.2113V109.33H66.3068V115.558H69.912V116.513Z" fill="white"/>
<path d="M25.8767 137.805H24.2811V134.517H21.124V132.908H24.2811V129.619H25.8767V132.908H29.0338V134.517H25.8767V137.805ZM32.5622 139.363V130.484C32.0474 130.969 31.138 131.055 30.0742 131.055V129.532C32.1675 129.481 32.7852 128.84 32.9396 127.403H34.4152V139.363H32.5622ZM38.3412 139.363H36.471V137.477H38.3412V139.363ZM46.4412 139.363H44.5882V136.629H38.9432V134.897L44.5882 127.403H46.4412V135.019H48.1055V136.629H46.4412V139.363ZM44.5882 129.809L40.659 135.019H44.5882V129.809ZM55.5319 134.032C53.5759 134.032 52.5635 132.509 52.5635 130.588C52.5635 128.684 53.5416 127.161 55.5319 127.161C57.4707 127.161 58.483 128.684 58.483 130.588C58.483 132.509 57.5051 134.032 55.5319 134.032ZM56.8187 139.363H55.3431L61.9317 127.403H63.4073L56.8187 139.363ZM55.5319 132.735C56.4756 132.735 56.9217 131.903 56.9217 130.588C56.9217 129.272 56.4756 128.442 55.5319 128.442C54.571 128.442 54.125 129.272 54.125 130.588C54.125 131.903 54.571 132.735 55.5319 132.735ZM63.2357 139.606C61.2797 139.606 60.2846 138.083 60.2846 136.178C60.2846 134.258 61.2626 132.735 63.2357 132.735C65.1917 132.735 66.1869 134.258 66.1869 136.178C66.1869 138.083 65.2089 139.606 63.2357 139.606ZM63.2357 138.325C64.1794 138.325 64.6427 137.494 64.6427 136.178C64.6427 134.863 64.1794 134.032 63.2357 134.032C62.2921 134.032 61.8288 134.863 61.8288 136.178C61.8288 137.494 62.2921 138.325 63.2357 138.325Z" fill="#14AE5C"/>
<path d="M-9.09961 161H310.45" stroke="#A774FF" stroke-linecap="round"/>
<path opacity="0.5" d="M24.2343 81.2061H22.6943V71.1083H24.2343V75.3311H29.1483V71.1083H30.7023V81.2061H29.1483V76.6727H24.2343V81.2061ZM35.4787 81.418C33.2527 81.418 31.9087 79.8645 31.9087 77.6048C31.9087 75.3593 33.2527 73.7776 35.4927 73.7776C37.7047 73.7776 39.0487 75.3452 39.0487 77.5907C39.0487 79.8504 37.7047 81.418 35.4787 81.418ZM35.4927 80.274C36.9487 80.274 37.6207 79.1018 37.6207 77.6048C37.6207 76.0937 36.9487 74.9356 35.4927 74.9356C34.0087 74.9356 33.3367 76.0937 33.3367 77.6048C33.3367 79.1018 34.0087 80.274 35.4927 80.274ZM41.5885 81.2061H40.2165V71.1083H41.5885V81.2061ZM48.1965 74.8791V71.1083H49.5685V81.2061H48.1965V80.3588H48.1685C47.7765 80.8672 47.0905 81.4039 45.9705 81.4039C44.1505 81.4039 42.7645 79.9775 42.7645 77.6048C42.7645 75.2322 44.1505 73.7917 45.9705 73.7917C47.0905 73.7917 47.7765 74.3142 48.1685 74.8791H48.1965ZM46.1945 80.2599C47.4265 80.2599 48.1825 79.229 48.1825 77.6048C48.1825 75.9666 47.4265 74.9497 46.1945 74.9497C44.8505 74.9497 44.1925 76.1926 44.1925 77.6048C44.1925 79.0171 44.8505 80.2599 46.1945 80.2599ZM52.5829 72.7183H51.0289V71.2213H52.5829V72.7183ZM52.4849 81.2061H51.1129V74.0035H52.4849V81.2061ZM57.777 73.7917C59.093 73.7917 60.157 74.5543 60.157 76.2067V81.2061H58.785V76.588C58.785 75.6276 58.365 74.978 57.329 74.978C56.153 74.978 55.397 75.6983 55.397 76.7857V81.2061H54.025V74.0035H55.397V74.9074H55.425C55.803 74.3566 56.545 73.7917 57.777 73.7917ZM66.6802 74.8509V74.0035H68.0522V80.6412C68.0522 82.8161 66.7502 83.7906 64.7062 83.7906C62.6622 83.7906 61.6402 82.802 61.5002 81.5027H62.9282C63.0682 82.1524 63.5442 82.6608 64.7062 82.6608C66.0082 82.6608 66.6802 82.0818 66.6802 80.726V79.7515H66.6522C66.2602 80.3305 65.6022 80.839 64.4542 80.839C62.6762 80.839 61.3042 79.6244 61.3042 77.3224C61.3042 75.0062 62.6762 73.7917 64.4542 73.7917C65.6022 73.7917 66.2602 74.3425 66.6522 74.8509H66.6802ZM64.7062 79.695C65.9382 79.695 66.6662 78.89 66.6662 77.3224C66.6662 75.7406 65.9382 74.9497 64.7062 74.9497C63.3622 74.9497 62.7322 75.9666 62.7322 77.3224C62.7322 78.6782 63.3622 79.695 64.7062 79.695ZM72.3978 81.4039C70.2278 81.4039 69.1496 80.274 69.1076 78.8053H70.4938C70.5498 79.6385 71.0538 80.2882 72.3838 80.2882C73.5878 80.2882 73.9098 79.7515 73.9098 79.229C73.9098 78.3251 72.9578 78.2262 72.0338 78.0285C70.7878 77.7319 69.3596 77.3647 69.3596 75.8677C69.3596 74.6249 70.3538 73.7917 72.0758 73.7917C74.0358 73.7917 74.9738 74.8509 75.0718 76.0937H73.6858C73.5878 75.5429 73.2938 74.9074 72.1038 74.9074C71.1798 74.9074 70.7878 75.2746 70.7878 75.8112C70.7878 76.5597 71.5858 76.6304 72.5938 76.8563C73.9098 77.167 75.3378 77.5483 75.3378 79.1583C75.3378 80.5565 74.2738 81.4039 72.3978 81.4039Z" fill="#A774FF"/>
<path d="M96.3339 81.2061H94.7939V71.1083H98.966C100.856 71.1083 102.242 71.9981 102.242 74.1165C102.242 76.2349 100.856 77.1105 98.966 77.1105H96.3339V81.2061ZM96.3339 75.7689H98.8959C100.058 75.7689 100.646 75.2463 100.646 74.1165C100.646 72.9725 100.058 72.45 98.8959 72.45H96.3339V75.7689ZM106.143 81.418C103.917 81.418 102.573 79.8645 102.573 77.6048C102.573 75.3593 103.917 73.7776 106.157 73.7776C108.369 73.7776 109.713 75.3452 109.713 77.5907C109.713 79.8504 108.369 81.418 106.143 81.418ZM106.157 80.274C107.613 80.274 108.285 79.1018 108.285 77.6048C108.285 76.0937 107.613 74.9356 106.157 74.9356C104.673 74.9356 104.001 76.0937 104.001 77.6048C104.001 79.1018 104.673 80.274 106.157 80.274ZM113.695 81.4039C111.525 81.4039 110.447 80.274 110.405 78.8053H111.791C111.847 79.6385 112.351 80.2882 113.681 80.2882C114.885 80.2882 115.207 79.7515 115.207 79.229C115.207 78.3251 114.255 78.2262 113.331 78.0285C112.085 77.7319 110.657 77.3647 110.657 75.8677C110.657 74.6249 111.651 73.7917 113.373 73.7917C115.333 73.7917 116.271 74.8509 116.369 76.0937H114.983C114.885 75.5429 114.591 74.9074 113.401 74.9074C112.477 74.9074 112.085 75.2746 112.085 75.8112C112.085 76.5597 112.883 76.6304 113.891 76.8563C115.207 77.167 116.635 77.5483 116.635 79.1583C116.635 80.5565 115.571 81.4039 113.695 81.4039ZM119.186 72.7183H117.632V71.2213H119.186V72.7183ZM119.088 81.2061H117.716V74.0035H119.088V81.2061ZM123.261 80.1469C123.499 80.1469 123.611 80.1328 123.849 80.0904V81.2061C123.499 81.2768 123.275 81.2909 122.981 81.2909C121.805 81.2909 121.091 80.839 121.091 79.1725V75.1475H120.055V74.0035H121.091V71.6874H122.463V74.0035H123.835V75.1475H122.463V79.2148C122.463 79.9775 122.673 80.1469 123.261 80.1469ZM126.447 72.7183H124.893V71.2213H126.447V72.7183ZM126.349 81.2061H124.977V74.0035H126.349V81.2061ZM131.081 81.418C128.855 81.418 127.511 79.8645 127.511 77.6048C127.511 75.3593 128.855 73.7776 131.095 73.7776C133.307 73.7776 134.651 75.3452 134.651 77.5907C134.651 79.8504 133.307 81.418 131.081 81.418ZM131.095 80.274C132.551 80.274 133.223 79.1018 133.223 77.6048C133.223 76.0937 132.551 74.9356 131.095 74.9356C129.611 74.9356 128.939 76.0937 128.939 77.6048C128.939 79.1018 129.611 80.274 131.095 80.274ZM139.57 73.7917C140.886 73.7917 141.95 74.5543 141.95 76.2067V81.2061H140.578V76.588C140.578 75.6276 140.158 74.978 139.122 74.978C137.946 74.978 137.19 75.6983 137.19 76.7857V81.2061H135.818V74.0035H137.19V74.9074H137.218C137.596 74.3566 138.338 73.7917 139.57 73.7917ZM146.247 81.4039C144.077 81.4039 142.999 80.274 142.957 78.8053H144.343C144.399 79.6385 144.903 80.2882 146.233 80.2882C147.437 80.2882 147.759 79.7515 147.759 79.229C147.759 78.3251 146.807 78.2262 145.883 78.0285C144.637 77.7319 143.209 77.3647 143.209 75.8677C143.209 74.6249 144.203 73.7917 145.925 73.7917C147.885 73.7917 148.823 74.8509 148.921 76.0937H147.535C147.437 75.5429 147.143 74.9074 145.953 74.9074C145.029 74.9074 144.637 75.2746 144.637 75.8112C144.637 76.5597 145.435 76.6304 146.443 76.8563C147.759 77.167 149.187 77.5483 149.187 79.1583C149.187 80.5565 148.123 81.4039 146.247 81.4039Z" fill="#A774FF"/>
<path d="M114.801 87.5614H127.401" stroke="#A774FF" stroke-width="2" stroke-linecap="round"/>
</g>
</g>
<defs>
<clipPath id="clip0_507_486">
<rect width="301" height="161" fill="white"/>
</clipPath>
</defs>
</svg>
