<svg width="162" height="162" viewBox="0 0 162 162" fill="none" xmlns="http://www.w3.org/2000/svg">
<g clip-path="url(#clip0_507_565)">
<path d="M139 0.5H23C10.2975 0.5 0 10.7975 0 23.5V138.5C0 151.203 10.2975 161.5 23 161.5H139C151.703 161.5 162 151.203 162 138.5V23.5C162 10.7975 151.703 0.5 139 0.5Z" fill="#EEEEEE"/>
<mask id="mask0_507_565" style="mask-type:alpha" maskUnits="userSpaceOnUse" x="0" y="0" width="162" height="162">
<path d="M139 0.5H23C10.2975 0.5 0 10.7975 0 23.5V138.5C0 151.203 10.2975 161.5 23 161.5H139C151.703 161.5 162 151.203 162 138.5V23.5C162 10.7975 151.703 0.5 139 0.5Z" fill="#D05FCC"/>
</mask>
<g mask="url(#mask0_507_565)">
<path d="M29.9996 112.5C19.7048 112.5 8.97209 115.159 -5.47756 108.913C-6.864 108.313 -8.45438 109.325 -8.41632 110.835L-5.54951 224.586C-5.52217 225.671 -4.63508 226.536 -3.55014 226.536H176.913C178.051 226.536 178.96 225.588 178.911 224.451L174.053 110.247C174.021 109.484 173.542 108.8 172.843 108.491C146.293 96.7871 138.903 89.5017 106 89.5C67.9996 89.4981 51.9996 112.5 29.9996 112.5Z" fill="#FF5959"/>
</g>
<path d="M26.1604 28.836C21.8164 28.836 18.7684 26.58 18.5764 22.716H21.3124C21.5044 25.02 22.8724 26.58 26.0884 26.58C28.8484 26.58 29.6884 25.38 29.6884 23.82C29.6884 21.636 28.0084 21.324 24.8884 20.532C22.2004 19.812 19.2484 18.948 19.2484 15.684C19.2484 12.708 21.5524 11.004 25.2484 11.004C29.1604 11.004 31.7044 12.996 31.9684 16.452H29.2324C28.9444 14.388 27.7684 13.26 25.2724 13.26C23.1124 13.26 22.0084 14.052 22.0084 15.54C22.0084 17.46 23.8084 17.868 26.0164 18.42C29.3284 19.26 32.4484 20.052 32.4484 23.676C32.4484 26.628 30.4564 28.836 26.1604 28.836ZM42.5975 20.652C42.5975 19.02 41.8776 17.916 40.1016 17.916C38.0856 17.916 36.7896 19.14 36.7896 20.988V28.5H34.4375V11.34H36.7896V17.796H36.8376C37.4856 16.86 38.7576 15.9 40.8696 15.9C43.1256 15.9 44.9496 17.196 44.9496 20.004V28.5H42.5975V20.652ZM52.9643 28.86C49.1483 28.86 46.8442 26.22 46.8442 22.38C46.8442 18.564 49.1483 15.876 52.9883 15.876C56.7803 15.876 59.0843 18.54 59.0843 22.356C59.0843 26.196 56.7803 28.86 52.9643 28.86ZM49.2923 22.38C49.2923 24.924 50.4443 26.916 52.9883 26.916C55.4843 26.916 56.6362 24.924 56.6362 22.38C56.6362 19.812 55.4843 17.844 52.9883 17.844C50.4443 17.844 49.2923 19.812 49.2923 22.38ZM63.438 22.164V28.5H61.086V16.26H63.438V18.588H63.486C64.134 17.052 65.1179 15.972 66.7739 15.972C67.2059 15.972 67.542 15.996 67.902 16.044V18.3C67.614 18.252 67.3979 18.228 67.1099 18.228C64.9739 18.228 63.438 19.836 63.438 22.164ZM73.4618 28.644C71.4458 28.644 70.2217 27.876 70.2217 25.044V18.204H68.4457V16.26H70.2217V12.324H72.5738V16.26H74.9258V18.204H72.5738V25.116C72.5738 26.412 72.9337 26.7 73.9417 26.7C74.3497 26.7 74.5418 26.676 74.9498 26.604V28.5C74.3498 28.62 73.9658 28.644 73.4618 28.644ZM85.8027 28.5V13.62H80.2588V11.34H94.0107V13.62H88.4668V28.5H85.8027ZM98.1974 28.86C94.3094 28.86 92.1495 26.1 92.1495 22.356C92.1495 18.516 94.4534 15.876 98.1974 15.876C101.917 15.876 104.005 18.324 104.005 22.116C104.005 22.452 104.005 22.812 103.981 23.004H94.5734C94.6214 25.044 95.8215 26.94 98.2455 26.94C100.405 26.94 101.245 25.548 101.461 24.732H103.861C103.213 27.084 101.413 28.86 98.1974 28.86ZM94.5734 21.156H101.557C101.557 19.236 100.213 17.796 98.1255 17.796C96.1575 17.796 94.7174 19.14 94.5734 21.156ZM108.344 22.164V28.5H105.992V16.26H108.344V18.588H108.392C109.04 17.052 110.024 15.972 111.68 15.972C112.112 15.972 112.448 15.996 112.808 16.044V18.3C112.52 18.252 112.304 18.228 112.016 18.228C109.88 18.228 108.344 19.836 108.344 22.164ZM121.68 20.652C121.68 19.02 121.344 17.916 119.544 17.916C117.792 17.916 116.688 19.14 116.688 20.988V28.5H114.336V16.26H116.688V17.796H116.736C117.384 16.86 118.512 15.9 120.36 15.9C122.064 15.9 123.12 16.668 123.6 18.036H123.648C124.536 16.86 125.784 15.9 127.656 15.9C130.128 15.9 131.376 17.388 131.376 20.004V28.5H129.024V20.652C129.024 19.02 128.688 17.916 126.888 17.916C125.136 17.916 124.032 19.14 124.032 20.988V28.5H121.68V20.652ZM23.9044 52.5V37.62H18.3604V35.34H32.1124V37.62H26.5684V52.5H23.9044ZM33.5551 46.164V52.5H31.2032V40.26H33.5551V42.588H33.6031C34.2511 41.052 35.2352 39.972 36.8912 39.972C37.3232 39.972 37.6591 39.996 38.0191 40.044V42.3C37.7311 42.252 37.5151 42.228 37.2271 42.228C35.0912 42.228 33.5551 43.836 33.5551 46.164ZM42.5091 52.836C40.0611 52.836 38.5011 51.42 38.5011 49.332C38.5011 46.596 40.5651 45.78 43.6131 45.204C45.5331 44.844 46.709 44.604 46.709 43.404C46.709 42.516 46.1811 41.772 44.3811 41.772C42.2451 41.772 41.5971 42.444 41.4771 44.076H39.077C39.197 41.724 40.7331 39.876 44.4771 39.876C46.9971 39.876 49.0131 40.932 49.0131 44.1V49.716C49.0131 50.604 49.1331 51.06 49.5891 51.06C49.6611 51.06 49.7331 51.06 49.8771 51.036V52.476C49.4691 52.572 49.0611 52.62 48.6771 52.62C47.5011 52.62 46.8771 52.164 46.7331 50.772H46.6851C45.8931 52.044 44.5011 52.836 42.5091 52.836ZM40.9491 49.164C40.9491 50.316 41.5731 50.94 43.0371 50.94C45.1491 50.94 46.709 49.86 46.709 47.724V45.972C46.325 46.332 45.269 46.596 44.021 46.86C41.861 47.292 40.9491 47.892 40.9491 49.164ZM56.6299 52.836C53.5099 52.836 51.1339 50.412 51.1339 46.38C51.1339 42.348 53.5099 39.9 56.6299 39.9C58.5499 39.9 59.7259 40.788 60.3979 41.748H60.4459V35.34H62.7979V52.5H60.4459V51.06H60.3979C59.7259 51.924 58.5499 52.836 56.6299 52.836ZM53.5819 46.38C53.5819 48.78 54.7099 50.892 57.0139 50.892C59.1259 50.892 60.4219 49.14 60.4219 46.38C60.4219 43.596 59.1259 41.868 57.0139 41.868C54.7099 41.868 53.5819 43.98 53.5819 46.38ZM65.4454 52.5V40.26H67.7973V52.5H65.4454ZM65.3014 38.076V35.532H67.9653V38.076H65.3014ZM78.5975 44.652C78.5975 43.02 77.8775 41.916 76.1015 41.916C74.0855 41.916 72.7896 43.14 72.7896 44.988V52.5H70.4376V40.26H72.7896V41.796H72.8375C73.4855 40.86 74.7576 39.9 76.8696 39.9C79.1256 39.9 80.9496 41.196 80.9496 44.004V52.5H78.5975V44.652ZM88.7483 56.892C85.2443 56.892 83.4923 55.212 83.2523 53.004H85.7002C85.9402 54.108 86.7563 54.972 88.7483 54.972C90.9803 54.972 92.1322 53.988 92.1322 51.684V50.028H92.0843C91.4123 51.012 90.2843 51.876 88.3163 51.876C85.2683 51.876 82.9163 49.812 82.9163 45.9C82.9163 41.964 85.2683 39.9 88.3163 39.9C90.2843 39.9 91.4123 40.836 92.0843 41.7H92.1322V40.26H94.4843V51.54C94.4843 55.236 92.2523 56.892 88.7483 56.892ZM85.3643 45.9C85.3643 48.204 86.4443 49.932 88.7483 49.932C90.8603 49.932 92.1083 48.564 92.1083 45.9C92.1083 43.212 90.8603 41.868 88.7483 41.868C86.4443 41.868 85.3643 43.596 85.3643 45.9Z" fill="black"/>
<path d="M20.0599 141.76C18.3811 141.76 17.2979 140.47 17.2979 138.692C17.2979 136.906 18.3895 135.616 20.0682 135.616C21.5485 135.616 22.4664 136.559 22.607 137.741H21.656C21.5485 137.162 21.1846 136.402 20.0517 136.402C18.7451 136.402 18.2488 137.51 18.2488 138.684C18.2488 139.867 18.7451 140.975 20.0517 140.975C21.1929 140.975 21.5981 140.214 21.656 139.494H22.607C22.4747 140.809 21.5484 141.76 20.0599 141.76ZM25.1632 141.769C23.8483 141.769 23.0543 140.859 23.0543 139.536C23.0543 138.221 23.8483 137.295 25.1715 137.295C26.4781 137.295 27.2719 138.213 27.2719 139.527C27.2719 140.851 26.4781 141.769 25.1632 141.769ZM23.8979 139.536C23.8979 140.412 24.2949 141.099 25.1715 141.099C26.0315 141.099 26.4285 140.412 26.4285 139.536C26.4285 138.651 26.0315 137.973 25.1715 137.973C24.2949 137.973 23.8979 138.651 23.8979 139.536ZM30.4922 138.94C30.4922 138.378 30.3764 137.998 29.7562 137.998C29.1525 137.998 28.7721 138.419 28.7721 139.056V141.645H27.9617V137.427H28.7721V137.956H28.7887C29.0119 137.634 29.4006 137.303 30.0374 137.303C30.6245 137.303 30.9884 137.568 31.1538 138.039H31.1702C31.4762 137.634 31.9063 137.303 32.5514 137.303C33.4031 137.303 33.8332 137.816 33.8332 138.717V141.645H33.0226V138.94C33.0226 138.378 32.9069 137.998 32.2866 137.998C31.683 137.998 31.3026 138.419 31.3026 139.056V141.645H30.4922V138.94ZM36.8464 141.76C36.1848 141.76 35.7797 141.463 35.5481 141.124H35.5315V143.108H34.7212V137.427H35.5315V137.923H35.5481C35.7797 137.625 36.1848 137.303 36.8464 137.303C37.9214 137.303 38.7402 138.146 38.7402 139.536C38.7402 140.925 37.9214 141.76 36.8464 141.76ZM35.5399 139.536C35.5399 140.487 35.9864 141.09 36.7142 141.09C37.5081 141.09 37.8885 140.363 37.8885 139.536C37.8885 138.709 37.5081 137.981 36.7142 137.981C35.9864 137.981 35.5399 138.576 35.5399 139.536ZM39.4375 141.645V135.732H40.2479V141.645H39.4375ZM43.0266 141.769C41.6869 141.769 40.9426 140.818 40.9426 139.527C40.9426 138.204 41.7365 137.295 43.0266 137.295C44.3084 137.295 45.0278 138.138 45.0278 139.445C45.0278 139.561 45.0278 139.685 45.0196 139.751H41.7778C41.7943 140.454 42.2079 141.107 43.0431 141.107C43.7874 141.107 44.0768 140.627 44.1512 140.346H44.9782C44.7549 141.157 44.1347 141.769 43.0266 141.769ZM41.7778 139.114H44.1843C44.1843 138.452 43.7211 137.956 43.0017 137.956C42.3236 137.956 41.8274 138.419 41.7778 139.114ZM47.0371 141.694C46.3424 141.694 45.9207 141.43 45.9207 140.454V138.097H45.3086V137.427H45.9207V136.071H46.7311V137.427H47.5416V138.097H46.7311V140.479C46.7311 140.925 46.8552 141.024 47.2025 141.024C47.3431 141.024 47.4091 141.016 47.5497 140.991V141.645C47.343 141.686 47.2108 141.694 47.0371 141.694ZM49.9959 141.769C48.6562 141.769 47.9121 140.818 47.9121 139.527C47.9121 138.204 48.7059 137.295 49.9959 137.295C51.2777 137.295 51.9973 138.138 51.9973 139.445C51.9973 139.561 51.9973 139.685 51.989 139.751H48.7473C48.7638 140.454 49.1773 141.107 50.0126 141.107C50.7568 141.107 51.0463 140.627 51.1207 140.346H51.9476C51.7243 141.157 51.1041 141.769 49.9959 141.769ZM48.7473 139.114H51.1537C51.1537 138.452 50.6907 137.956 49.9712 137.956C49.2931 137.956 48.7969 138.419 48.7473 139.114ZM54.3605 141.76C53.2854 141.76 52.4668 140.925 52.4668 139.536C52.4668 138.146 53.2854 137.303 54.3605 137.303C55.0221 137.303 55.4274 137.609 55.6589 137.94H55.6755V135.732H56.4858V141.645H55.6755V141.148H55.6589C55.4274 141.446 55.0221 141.76 54.3605 141.76ZM53.3103 139.536C53.3103 140.363 53.699 141.09 54.4929 141.09C55.2206 141.09 55.6672 140.487 55.6672 139.536C55.6672 138.576 55.2206 137.981 54.4929 137.981C53.699 137.981 53.3103 138.709 53.3103 139.536Z" fill="black"/>
<path d="M17.8486 129.5C17.8486 125.561 20.2425 122.834 24.2423 120.349C27.7876 118.197 29.5754 117.319 29.5754 114.531C29.5754 112.804 28.8784 110.955 26.0301 110.955C22.7575 110.955 21.7273 113.077 21.7273 115.955H18.3941C18.3941 111.501 20.8182 108.137 26.121 108.137C29.9087 108.137 32.9692 110.41 32.9692 114.41C32.9692 118.47 29.6663 120.561 26.6664 122.409C24.6059 123.621 22.6666 124.773 22.0606 126.621V126.682H32.7268V129.5H17.8486ZM43.6455 129.924C38.2518 129.924 35.2217 127.136 35.2217 122.349H38.5548C38.5548 125.227 39.7669 127.106 43.4334 127.106C46.7363 127.106 47.8574 125.773 47.8574 123.531C47.8574 120.652 45.7969 119.955 43.6758 119.955H41.7062V117.258H43.5546C45.6454 117.258 47.1302 116.319 47.1302 114.046C47.1302 112.41 46.1303 110.955 43.5546 110.955C40.0093 110.955 39.1306 112.834 39.1306 114.864H35.7974C35.7974 110.986 38.4336 108.137 43.5849 108.137C47.312 108.137 50.524 110.198 50.524 113.895C50.524 116.137 49.3725 117.531 47.3726 118.379V118.44C50.1301 119.319 51.2512 121.137 51.2512 123.591C51.2512 127.652 48.2514 129.924 43.6455 129.924ZM58.0255 129.5L69.6614 108.562H72.2673L60.6315 129.5H58.0255ZM53.1167 114.137C53.1167 110.804 54.8439 108.137 58.3589 108.137C61.7829 108.137 63.5707 110.804 63.5707 114.137C63.5707 117.501 61.8435 120.167 58.3589 120.167C54.9045 120.167 53.1167 117.501 53.1167 114.137ZM55.8741 114.137C55.8741 116.44 56.662 117.894 58.3589 117.894C60.0254 117.894 60.8133 116.44 60.8133 114.137C60.8133 111.834 60.0254 110.38 58.3589 110.38C56.662 110.38 55.8741 111.834 55.8741 114.137ZM66.7524 123.924C66.7524 120.561 68.4796 117.894 71.9643 117.894C75.4187 117.894 77.1762 120.561 77.1762 123.924C77.1762 127.258 75.449 129.924 71.9643 129.924C68.5099 129.924 66.7524 127.258 66.7524 123.924ZM69.4796 123.924C69.4796 126.227 70.2977 127.682 71.9643 127.682C73.6309 127.682 74.449 126.227 74.449 123.924C74.449 121.622 73.6309 120.167 71.9643 120.167C70.2977 120.167 69.4796 121.622 69.4796 123.924Z" fill="black"/>
</g>
<defs>
<clipPath id="clip0_507_565">
<rect width="162" height="161" fill="white" transform="translate(0 0.5)"/>
</clipPath>
</defs>
</svg>
