<svg width="564" height="343" viewBox="0 0 564 343" fill="none" xmlns="http://www.w3.org/2000/svg">
<path d="M78.252 172H68.652L102.828 80.48H113.324L147.756 172H137.772L128.556 146.656H87.468L78.252 172ZM107.948 89.312L90.54 138.336H125.612L108.204 89.312H107.948ZM172.85 173.664C159.794 173.664 151.474 166.368 151.474 155.488C151.474 141.408 161.458 136.928 178.354 133.984C189.106 132.064 196.018 131.296 196.018 123.488C196.018 116.832 191.666 112.352 181.17 112.352C168.498 112.352 164.018 116.832 163.378 126.432H154.546C155.186 114.912 162.482 105.056 181.426 105.056C193.458 105.056 204.082 110.176 204.082 125.792V158.432C204.082 163.68 204.85 166.112 207.794 166.112C208.306 166.112 208.818 166.112 209.586 165.984V172C208.178 172.256 206.77 172.512 205.234 172.512C199.73 172.512 196.53 170.336 196.018 162.144H195.762C191.282 169.568 183.474 173.664 172.85 173.664ZM173.874 166.368C187.186 166.368 196.018 159.328 196.018 147.552V135.392C194.098 138.08 187.186 139.616 179.378 140.896C166.706 143.2 160.178 146.4 160.178 154.72C160.178 162.272 164.402 166.368 173.874 166.368Z" fill="black"/>
<path d="M86.1743 225H83.8383V202.12H92.6383C96.8623 202.12 100.03 203.912 100.03 208.712C100.03 213.512 96.8623 215.336 92.6383 215.336H86.1743V225ZM86.1743 213.288H92.8623C95.9663 213.288 97.5983 211.848 97.5983 208.712C97.5983 205.608 95.9663 204.168 92.8623 204.168H86.1743V213.288ZM105.549 225H103.213V202.12H112.013C116.237 202.12 119.405 203.912 119.405 208.712C119.405 213.512 116.237 215.336 112.013 215.336H105.549V225ZM105.549 213.288H112.237C115.341 213.288 116.973 211.848 116.973 208.712C116.973 205.608 115.341 204.168 112.237 204.168H105.549V213.288ZM130.987 225H128.651V202.12H131.499L143.883 221.704H143.947V202.12H146.283V225H143.435L131.051 205.416H130.987V225ZM164.598 216.104C164.598 216.552 164.598 217 164.566 217.256H151.638C151.67 220.552 153.43 223.656 157.27 223.656C160.63 223.656 161.942 221.352 162.262 220.008H164.374C163.574 222.984 161.334 225.448 157.238 225.448C152.246 225.448 149.462 221.8 149.462 216.84C149.462 211.624 152.534 208.264 157.238 208.264C161.942 208.264 164.598 211.56 164.598 216.104ZM151.638 215.432H162.39C162.39 212.52 160.502 210.056 157.142 210.056C153.974 210.056 151.798 212.392 151.638 215.432ZM178.394 218.984V208.68H180.474V225H178.394V222.696H178.33C177.402 224.04 175.642 225.384 172.73 225.384C169.818 225.384 167.386 223.752 167.386 220.136V208.68H169.466V219.688C169.466 221.768 170.426 223.56 173.242 223.56C176.346 223.56 178.394 221.384 178.394 218.984ZM198.598 216.104C198.598 216.552 198.598 217 198.566 217.256H185.638C185.67 220.552 187.43 223.656 191.27 223.656C194.63 223.656 195.942 221.352 196.262 220.008H198.374C197.574 222.984 195.334 225.448 191.238 225.448C186.246 225.448 183.462 221.8 183.462 216.84C183.462 211.624 186.534 208.264 191.238 208.264C195.942 208.264 198.598 211.56 198.598 216.104ZM185.638 215.432H196.39C196.39 212.52 194.502 210.056 191.142 210.056C187.974 210.056 185.798 212.392 185.638 215.432ZM29.9243 263H27.5883V240.12H30.8203L38.5323 259.864H38.5963L46.3403 240.12H49.5723V263H47.2363V243.416H47.1723L39.6203 263H37.5083L29.9883 243.416H29.9243V263ZM60.5515 263.448C55.6555 263.448 52.7115 259.928 52.7115 254.872C52.7115 249.784 55.6555 246.264 60.5515 246.264C65.4475 246.264 68.3915 249.784 68.3915 254.872C68.3915 259.928 65.4475 263.448 60.5515 263.448ZM60.5515 261.624C64.3595 261.624 66.2155 258.616 66.2155 254.872C66.2155 251.096 64.3595 248.088 60.5515 248.088C56.7435 248.088 54.8875 251.096 54.8875 254.872C54.8875 258.616 56.7435 261.624 60.5515 261.624ZM79.0703 246.296C81.9823 246.296 84.4143 247.928 84.4143 251.544V263H82.3343V251.992C82.3343 249.912 81.3743 248.12 78.5583 248.12C75.4543 248.12 73.4062 250.296 73.4062 252.696V263H71.3263V246.68H73.4062V249.016H73.4703C74.3983 247.672 76.1583 246.296 79.0703 246.296ZM94.2545 246.68V248.504H90.9585V258.808C90.9585 260.824 91.4065 261.304 93.0065 261.304C93.5185 261.304 93.7745 261.272 94.2545 261.24V263C93.6145 263.096 93.2305 263.128 92.7185 263.128C90.3505 263.128 88.8785 262.328 88.8785 258.776V248.504H86.4785V246.68H88.8785V241.24H90.9585V246.68H94.2545ZM103.735 246.296C104.311 246.296 104.759 246.328 105.143 246.392V248.44C104.823 248.376 104.471 248.344 104.151 248.344C101.207 248.344 99.0312 250.712 99.0312 253.88V263H96.9513V246.68H99.0312V250.008H99.0953C99.9273 247.864 101.431 246.296 103.735 246.296ZM120.723 254.104C120.723 254.552 120.723 255 120.691 255.256H107.763C107.795 258.552 109.555 261.656 113.395 261.656C116.755 261.656 118.067 259.352 118.387 258.008H120.499C119.699 260.984 117.459 263.448 113.363 263.448C108.371 263.448 105.587 259.8 105.587 254.84C105.587 249.624 108.659 246.264 113.363 246.264C118.067 246.264 120.723 249.56 120.723 254.104ZM107.763 253.432H118.515C118.515 250.52 116.627 248.056 113.267 248.056C110.099 248.056 107.923 250.392 107.763 253.432ZM128.119 263.416C124.855 263.416 122.775 261.592 122.775 258.872C122.775 255.352 125.271 254.232 129.495 253.496C132.183 253.016 133.911 252.824 133.911 250.872C133.911 249.208 132.823 248.088 130.199 248.088C127.031 248.088 125.911 249.208 125.751 251.608H123.543C123.703 248.728 125.527 246.264 130.263 246.264C133.271 246.264 135.927 247.544 135.927 251.448V259.608C135.927 260.92 136.119 261.528 136.855 261.528C136.983 261.528 137.111 261.528 137.303 261.496V263C136.951 263.064 136.599 263.128 136.215 263.128C134.839 263.128 134.039 262.584 133.911 260.536H133.847C132.727 262.392 130.775 263.416 128.119 263.416ZM128.375 261.592C131.703 261.592 133.911 259.832 133.911 256.888V253.848C133.431 254.52 131.703 254.904 129.751 255.224C126.583 255.8 124.951 256.6 124.951 258.68C124.951 260.568 126.007 261.592 128.375 261.592ZM142.156 263H140.076V240.12H142.156V263ZM155.831 263H153.495V240.12H162.455C167.319 240.12 169.975 242.392 169.975 246.584C169.975 249.624 168.215 251.704 165.719 252.344V252.408C170.967 253.464 169.142 262.424 170.391 262.808V263H167.895C166.839 262.04 168.919 253.496 162.807 253.496H155.831V263ZM155.831 251.448H161.879C165.527 251.448 167.639 249.816 167.639 246.616C167.639 243.704 165.975 242.168 162.039 242.168H155.831V251.448ZM187.473 254.104C187.473 254.552 187.473 255 187.441 255.256H174.513C174.545 258.552 176.305 261.656 180.145 261.656C183.505 261.656 184.817 259.352 185.137 258.008H187.249C186.449 260.984 184.209 263.448 180.113 263.448C175.121 263.448 172.337 259.8 172.337 254.84C172.337 249.624 175.409 246.264 180.113 246.264C184.817 246.264 187.473 249.56 187.473 254.104ZM174.513 253.432H185.265C185.265 250.52 183.377 248.056 180.017 248.056C176.849 248.056 174.673 250.392 174.513 253.432ZM202.325 249.24V246.68H204.405V261.976C204.405 266.616 201.525 268.856 197.045 268.856C192.629 268.856 190.293 266.712 190.037 263.864H192.213C192.533 265.624 193.909 267.032 197.077 267.032C200.373 267.032 202.325 265.592 202.325 262.264V259.224H202.261C201.301 260.92 199.509 262.232 196.757 262.232C192.853 262.232 189.589 259.672 189.589 254.232C189.589 248.856 192.853 246.296 196.757 246.296C199.509 246.296 201.301 247.608 202.261 249.24H202.325ZM197.045 260.408C200.053 260.408 202.325 258.424 202.325 254.232C202.325 250.104 200.053 248.12 197.045 248.12C193.685 248.12 191.765 250.552 191.765 254.232C191.765 257.976 193.685 260.408 197.045 260.408ZM219.081 256.984V246.68H221.161V263H219.081V260.696H219.017C218.089 262.04 216.329 263.384 213.417 263.384C210.505 263.384 208.073 261.752 208.073 258.136V246.68H210.153V257.688C210.153 259.768 211.113 261.56 213.929 261.56C217.033 261.56 219.081 259.384 219.081 256.984ZM227.094 263H225.014V240.12H227.094V263ZM235.4 263.416C232.136 263.416 230.056 261.592 230.056 258.872C230.056 255.352 232.552 254.232 236.776 253.496C239.464 253.016 241.192 252.824 241.192 250.872C241.192 249.208 240.104 248.088 237.48 248.088C234.312 248.088 233.192 249.208 233.032 251.608H230.824C230.984 248.728 232.808 246.264 237.544 246.264C240.552 246.264 243.208 247.544 243.208 251.448V259.608C243.208 260.92 243.4 261.528 244.136 261.528C244.264 261.528 244.392 261.528 244.584 261.496V263C244.232 263.064 243.88 263.128 243.496 263.128C242.12 263.128 241.32 262.584 241.192 260.536H241.128C240.008 262.392 238.056 263.416 235.4 263.416ZM235.656 261.592C238.984 261.592 241.192 259.832 241.192 256.888V253.848C240.712 254.52 238.984 254.904 237.032 255.224C233.864 255.8 232.232 256.6 232.232 258.68C232.232 260.568 233.288 261.592 235.656 261.592ZM254.142 246.296C254.718 246.296 255.166 246.328 255.55 246.392V248.44C255.23 248.376 254.878 248.344 254.558 248.344C251.614 248.344 249.438 250.712 249.438 253.88V263H247.358V246.68H249.438V250.008H249.502C250.334 247.864 251.838 246.296 254.142 246.296Z" fill="black"/>
<path d="M347.86 172H333.012L367.06 80.48H382.292L416.596 172H401.236L393.684 149.984H355.412L347.86 172ZM374.484 93.536L359.636 138.08H389.716L374.74 93.536H374.484ZM440.588 173.792C427.532 173.792 419.212 166.24 419.212 155.104C419.212 140.512 430.22 136.16 446.476 133.088C456.716 131.168 462.988 129.888 462.988 123.488C462.988 118.752 460.172 114.784 450.572 114.784C439.18 114.784 435.724 118.368 435.084 127.072H422.284C422.924 114.528 431.116 104.672 451.084 104.672C464.524 104.672 475.276 110.304 475.276 127.2V157.152C475.276 161.888 475.916 164.32 478.348 164.32C478.732 164.32 479.116 164.32 479.884 164.192V171.872C477.708 172.384 475.532 172.64 473.484 172.64C467.212 172.64 463.884 170.208 463.116 162.784H462.86C458.636 169.568 451.212 173.792 440.588 173.792ZM443.404 163.68C454.668 163.68 462.988 157.92 462.988 146.528V137.184C460.94 139.104 455.308 140.512 448.652 141.92C437.132 144.224 432.268 147.424 432.268 154.208C432.268 160.352 435.596 163.68 443.404 163.68Z" fill="black"/>
<path d="M353.37 225H349.85V202.12H359.386C363.706 202.12 366.874 204.136 366.874 208.936C366.874 213.736 363.706 215.72 359.386 215.72H353.37V225ZM353.37 212.68H359.226C361.882 212.68 363.226 211.496 363.226 208.936C363.226 206.344 361.882 205.16 359.226 205.16H353.37V212.68ZM373.339 225H369.819V202.12H379.355C383.675 202.12 386.843 204.136 386.843 208.936C386.843 213.736 383.675 215.72 379.355 215.72H373.339V225ZM373.339 212.68H379.195C381.851 212.68 383.195 211.496 383.195 208.936C383.195 206.344 381.851 205.16 379.195 205.16H373.339V212.68ZM399.12 225H395.6V202.12H399.632L410.256 219.72H410.32V202.12H413.872V225H409.84L399.184 207.4H399.12V225ZM432.502 216.488C432.502 216.936 432.502 217.416 432.47 217.672H419.926C419.99 220.392 421.59 222.92 424.822 222.92C427.702 222.92 428.822 221.064 429.11 219.976H432.31C431.446 223.112 429.046 225.48 424.758 225.48C419.574 225.48 416.694 221.8 416.694 216.808C416.694 211.688 419.766 208.168 424.758 208.168C429.718 208.168 432.502 211.432 432.502 216.488ZM419.926 215.208H429.238C429.238 212.648 427.446 210.728 424.662 210.728C422.038 210.728 420.118 212.52 419.926 215.208ZM445.903 218.696V208.68H449.039V225H445.903V222.952H445.839C444.975 224.2 443.279 225.448 440.463 225.448C437.455 225.448 435.023 223.72 435.023 219.976V208.68H438.159V219.112C438.159 221.32 439.119 222.792 441.487 222.792C444.175 222.792 445.903 221.16 445.903 218.696ZM467.533 216.488C467.533 216.936 467.533 217.416 467.501 217.672H454.957C455.021 220.392 456.621 222.92 459.853 222.92C462.733 222.92 463.853 221.064 464.141 219.976H467.341C466.477 223.112 464.077 225.48 459.789 225.48C454.605 225.48 451.725 221.8 451.725 216.808C451.725 211.688 454.797 208.168 459.789 208.168C464.749 208.168 467.533 211.432 467.533 216.488ZM454.957 215.208H464.269C464.269 212.648 462.477 210.728 459.693 210.728C457.069 210.728 455.149 212.52 454.957 215.208ZM292.103 263H288.647V240.12H293.287L299.879 258.104H299.943L306.567 240.12H311.207V263H307.751V245.24H307.687L301.383 263H298.471L292.167 245.24H292.103V263ZM322.15 263.48C317.062 263.48 313.99 259.96 313.99 254.84C313.99 249.752 317.062 246.168 322.182 246.168C327.238 246.168 330.31 249.72 330.31 254.808C330.31 259.928 327.238 263.48 322.15 263.48ZM322.182 260.888C325.51 260.888 327.046 258.232 327.046 254.84C327.046 251.416 325.51 248.792 322.182 248.792C318.79 248.792 317.254 251.416 317.254 254.84C317.254 258.232 318.79 260.888 322.182 260.888ZM341.555 246.2C344.563 246.2 346.995 247.928 346.995 251.672V263H343.859V252.536C343.859 250.36 342.899 248.888 340.531 248.888C337.843 248.888 336.115 250.52 336.115 252.984V263H332.979V246.68H336.115V248.728H336.179C337.043 247.48 338.739 246.2 341.555 246.2ZM356.245 260.6C356.789 260.6 357.045 260.568 357.589 260.472V263C356.789 263.16 356.277 263.192 355.605 263.192C352.917 263.192 351.285 262.168 351.285 258.392V249.272H348.917V246.68H351.285V241.432H354.421V246.68H357.557V249.272H354.421V258.488C354.421 260.216 354.901 260.6 356.245 260.6ZM367.75 246.296C368.326 246.296 368.774 246.328 369.254 246.392V249.4C368.87 249.336 368.582 249.304 368.198 249.304C365.35 249.304 363.302 251.448 363.302 254.552V263H360.166V246.68H363.302V249.784H363.366C364.23 247.736 365.542 246.296 367.75 246.296ZM385.58 254.488C385.58 254.936 385.58 255.416 385.548 255.672H373.004C373.068 258.392 374.668 260.92 377.9 260.92C380.78 260.92 381.9 259.064 382.188 257.976H385.388C384.524 261.112 382.124 263.48 377.836 263.48C372.652 263.48 369.772 259.8 369.772 254.808C369.772 249.688 372.844 246.168 377.836 246.168C382.796 246.168 385.58 249.432 385.58 254.488ZM373.004 253.208H382.316C382.316 250.648 380.524 248.728 377.74 248.728C375.116 248.728 373.196 250.52 373.004 253.208ZM392.741 263.448C389.477 263.448 387.397 261.56 387.397 258.776C387.397 255.128 390.149 254.04 394.213 253.272C396.773 252.792 398.341 252.472 398.341 250.872C398.341 249.688 397.637 248.696 395.237 248.696C392.389 248.696 391.525 249.592 391.365 251.768H388.165C388.325 248.632 390.373 246.168 395.365 246.168C398.725 246.168 401.413 247.576 401.413 251.8V259.288C401.413 260.472 401.573 261.08 402.181 261.08C402.277 261.08 402.373 261.08 402.565 261.048V262.968C402.021 263.096 401.477 263.16 400.965 263.16C399.397 263.16 398.565 262.552 398.373 260.696H398.309C397.253 262.392 395.397 263.448 392.741 263.448ZM393.445 260.92C396.261 260.92 398.341 259.48 398.341 256.632V254.296C397.829 254.776 396.421 255.128 394.757 255.48C391.877 256.056 390.661 256.856 390.661 258.552C390.661 260.088 391.493 260.92 393.445 260.92ZM408.365 263H405.229V240.12H408.365V263ZM422.541 263H419.085V240.12H423.725L430.317 258.104H430.381L437.005 240.12H441.645V263H438.189V245.24H438.125L431.821 263H428.909L422.605 245.24H422.541V263ZM460.267 254.488C460.267 254.936 460.267 255.416 460.235 255.672H447.691C447.755 258.392 449.355 260.92 452.587 260.92C455.467 260.92 456.587 259.064 456.875 257.976H460.075C459.211 261.112 456.811 263.48 452.523 263.48C447.339 263.48 444.459 259.8 444.459 254.808C444.459 249.688 447.531 246.168 452.523 246.168C457.483 246.168 460.267 249.432 460.267 254.488ZM447.691 253.208H457.003C457.003 250.648 455.211 248.728 452.427 248.728C449.803 248.728 447.883 250.52 447.691 253.208ZM474.5 248.664V240.12H477.636V263H474.5V261.08H474.436C473.54 262.232 471.972 263.448 469.412 263.448C465.252 263.448 462.084 260.216 462.084 254.84C462.084 249.464 465.252 246.2 469.412 246.2C471.972 246.2 473.54 247.384 474.436 248.664H474.5ZM469.924 260.856C472.74 260.856 474.468 258.52 474.468 254.84C474.468 251.128 472.74 248.824 469.924 248.824C466.852 248.824 465.348 251.64 465.348 254.84C465.348 258.04 466.852 260.856 469.924 260.856ZM484.526 243.768H480.974V240.376H484.526V243.768ZM484.302 263H481.166V246.68H484.302V263ZM498.575 256.696V246.68H501.711V263H498.575V260.952H498.511C497.647 262.2 495.951 263.448 493.135 263.448C490.127 263.448 487.695 261.72 487.695 257.976V246.68H490.831V257.112C490.831 259.32 491.791 260.792 494.159 260.792C496.847 260.792 498.575 259.16 498.575 256.696ZM522.989 246.2C526.285 246.2 527.949 248.184 527.949 251.672V263H524.813V252.536C524.813 250.36 524.365 248.888 521.965 248.888C519.629 248.888 518.157 250.52 518.157 252.984V263H515.021V252.536C515.021 250.36 514.573 248.888 512.173 248.888C509.837 248.888 508.365 250.52 508.365 252.984V263H505.229V246.68H508.365V248.728H508.429C509.293 247.48 510.797 246.2 513.261 246.2C515.533 246.2 516.941 247.224 517.581 249.048H517.645C518.829 247.48 520.493 246.2 522.989 246.2Z" fill="black"/>
</svg>
