<svg width="275" height="154" viewBox="0 0 275 154" fill="none" xmlns="http://www.w3.org/2000/svg">
<g filter="url(#filter0_d_449_493)">
<mask id="mask0_449_493" style="mask-type:luminance" maskUnits="userSpaceOnUse" x="5" y="3" width="264" height="144">
<path d="M261.261 3.63098H13.6424C9.36876 3.63098 5.9043 7.09544 5.9043 11.3691V139.048C5.9043 143.321 9.36876 146.786 13.6424 146.786H261.261C265.535 146.786 269 143.321 269 139.048V11.3691C269 7.09544 265.535 3.63098 261.261 3.63098Z" fill="white"/>
</mask>
<g mask="url(#mask0_449_493)">
<path d="M261.261 3.63098H13.6424C9.36876 3.63098 5.9043 7.09544 5.9043 11.3691V139.048C5.9043 143.321 9.36876 146.786 13.6424 146.786H261.261C265.535 146.786 269 143.321 269 139.048V11.3691C269 7.09544 265.535 3.63098 261.261 3.63098Z" fill="white"/>
<path d="M14.6453 20.6548H13.8594L16.1324 14.4643H16.9062L19.1793 20.6548H18.3934L16.5435 15.4437H16.4951L14.6453 20.6548ZM14.9354 18.2366H18.1032V18.9016H14.9354V18.2366ZM23.3354 17.0517L22.6947 17.2331C22.6543 17.1263 22.5949 17.0225 22.5164 16.9218C22.4398 16.819 22.335 16.7344 22.202 16.6678C22.069 16.6014 21.8987 16.5681 21.6911 16.5681C21.407 16.5681 21.1702 16.6336 20.9808 16.7646C20.7934 16.8935 20.6997 17.0577 20.6997 17.2572C20.6997 17.4346 20.7642 17.5747 20.8931 17.6774C21.0221 17.7802 21.2236 17.8658 21.4976 17.9343L22.1869 18.1036C22.602 18.2044 22.9113 18.3585 23.1148 18.5661C23.3183 18.7717 23.4201 19.0366 23.4201 19.3611C23.4201 19.627 23.3436 19.8648 23.1904 20.0744C23.0392 20.284 22.8277 20.4492 22.5556 20.5701C22.2836 20.691 21.9672 20.7515 21.6065 20.7515C21.133 20.7515 20.741 20.6488 20.4306 20.4432C20.1203 20.2376 19.9239 19.9374 19.8412 19.5425L20.5183 19.3731C20.5829 19.623 20.7047 19.8104 20.8841 19.9354C21.0655 20.0603 21.3022 20.1228 21.5944 20.1228C21.9269 20.1228 22.1909 20.0522 22.3864 19.9112C22.5838 19.7681 22.6826 19.5969 22.6826 19.3974C22.6826 19.2361 22.6262 19.1011 22.5133 18.9923C22.4005 18.8815 22.2272 18.7988 21.9934 18.7444L21.2196 18.563C20.7944 18.4623 20.482 18.3061 20.2825 18.0946C20.0851 17.8809 19.9863 17.614 19.9863 17.2935C19.9863 17.0316 20.0599 16.7998 20.207 16.5983C20.3561 16.3968 20.5586 16.2386 20.8145 16.1238C21.0725 16.0089 21.3647 15.9514 21.6911 15.9514C22.1506 15.9514 22.5113 16.0523 22.7733 16.2538C23.0372 16.4553 23.2246 16.7212 23.3354 17.0517ZM27.7826 17.0517L27.1418 17.2331C27.1015 17.1263 27.0421 17.0225 26.9635 16.9218C26.8869 16.819 26.7821 16.7344 26.6491 16.6678C26.5161 16.6014 26.3458 16.5681 26.1383 16.5681C25.8541 16.5681 25.6173 16.6336 25.4279 16.7646C25.2406 16.8935 25.1469 17.0577 25.1469 17.2572C25.1469 17.4346 25.2113 17.5747 25.3403 17.6774C25.4692 17.7802 25.6707 17.8658 25.9448 17.9343L26.634 18.1036C27.0491 18.2044 27.3584 18.3585 27.562 18.5661C27.7655 18.7717 27.8673 19.0366 27.8673 19.3611C27.8673 19.627 27.7907 19.8648 27.6375 20.0744C27.4864 20.284 27.2748 20.4492 27.0028 20.5701C26.7307 20.691 26.4144 20.7515 26.0536 20.7515C25.5801 20.7515 25.1881 20.6488 24.8778 20.4432C24.5675 20.2376 24.371 19.9374 24.2884 19.5425L24.9655 19.3731C25.0299 19.623 25.1519 19.8104 25.3312 19.9354C25.5126 20.0603 25.7493 20.1228 26.0415 20.1228C26.374 20.1228 26.638 20.0522 26.8335 19.9112C27.031 19.7681 27.1297 19.5969 27.1297 19.3974C27.1297 19.2361 27.0733 19.1011 26.9604 18.9923C26.8476 18.8815 26.6743 18.7988 26.4405 18.7444L25.6667 18.563C25.2416 18.4623 24.9292 18.3061 24.7297 18.0946C24.5322 17.8809 24.4335 17.614 24.4335 17.2935C24.4335 17.0316 24.507 16.7998 24.6541 16.5983C24.8033 16.3968 25.0058 16.2386 25.2617 16.1238C25.5196 16.0089 25.8118 15.9514 26.1383 15.9514C26.5977 15.9514 26.9584 16.0523 27.2204 16.2538C27.4844 16.4553 27.6718 16.7212 27.7826 17.0517ZM28.9411 20.6548V16.0119H29.6545V20.6548H28.9411ZM29.3038 15.2381C29.1647 15.2381 29.0448 15.1908 28.9441 15.0961C28.8454 15.0014 28.796 14.8874 28.796 14.7545C28.796 14.6215 28.8454 14.5077 28.9441 14.4129C29.0448 14.3182 29.1647 14.2709 29.3038 14.2709C29.4428 14.2709 29.5617 14.3182 29.6605 14.4129C29.7612 14.5077 29.8116 14.6215 29.8116 14.7545C29.8116 14.8874 29.7612 15.0014 29.6605 15.0961C29.5617 15.1908 29.4428 15.2381 29.3038 15.2381ZM32.835 22.4926C32.4905 22.4926 32.1943 22.4483 31.9464 22.3596C31.6985 22.2729 31.4919 22.1581 31.3267 22.015C31.1635 21.8739 31.0335 21.7228 30.9368 21.5616L31.5051 21.1626C31.5696 21.2472 31.6512 21.344 31.7499 21.4528C31.8487 21.5636 31.9837 21.6593 32.1549 21.7399C32.3283 21.8226 32.5549 21.8639 32.835 21.8639C33.2099 21.8639 33.5192 21.7732 33.763 21.5918C34.0068 21.4104 34.1288 21.1263 34.1288 20.7394V19.7963H34.0683C34.016 19.881 33.9414 19.9858 33.8446 20.1107C33.7499 20.2336 33.6129 20.3434 33.4335 20.4401C33.2562 20.5349 33.0164 20.5822 32.7142 20.5822C32.3393 20.5822 32.0028 20.4935 31.7046 20.3163C31.4084 20.1389 31.1736 19.881 31.0003 19.5425C30.829 19.2039 30.7434 18.7928 30.7434 18.3092C30.7434 17.8336 30.827 17.4195 30.9942 17.0669C31.1615 16.7122 31.3942 16.4382 31.6924 16.2447C31.9907 16.0492 32.3353 15.9514 32.7262 15.9514C33.0285 15.9514 33.2683 16.0019 33.4457 16.1026C33.6249 16.2014 33.762 16.3142 33.8567 16.4412C33.9534 16.5661 34.028 16.6688 34.0804 16.7495H34.1529V16.0119H34.8421V20.7877C34.8421 21.1868 34.7515 21.5112 34.5701 21.7611C34.3907 22.013 34.1489 22.1974 33.8446 22.3142C33.5424 22.4331 33.2059 22.4926 32.835 22.4926ZM32.8109 19.9414C33.0971 19.9414 33.3389 19.876 33.5363 19.745C33.7338 19.614 33.8839 19.4255 33.9867 19.1797C34.0895 18.9339 34.1408 18.6396 34.1408 18.2971C34.1408 17.9626 34.0905 17.6674 33.9897 17.4115C33.889 17.1555 33.7399 16.955 33.5424 16.8099C33.3449 16.6648 33.1011 16.5923 32.8109 16.5923C32.5086 16.5923 32.2567 16.6688 32.0552 16.822C31.8557 16.9752 31.7056 17.1807 31.6048 17.4386C31.5061 17.6966 31.4567 17.9827 31.4567 18.2971C31.4567 18.6195 31.5071 18.9047 31.6079 19.1525C31.7106 19.3984 31.8617 19.5918 32.0612 19.7329C32.2627 19.8719 32.5126 19.9414 32.8109 19.9414ZM36.8612 17.8618V20.6548H36.148V16.0119H36.8371V16.7374H36.8975C37.0063 16.5016 37.1716 16.3122 37.3932 16.1691C37.6149 16.024 37.9011 15.9514 38.2517 15.9514C38.5661 15.9514 38.8411 16.016 39.0769 16.1449C39.3127 16.2719 39.4961 16.4653 39.6271 16.7252C39.758 16.9832 39.8235 17.3097 39.8235 17.7047V20.6548H39.1102V17.753C39.1102 17.3882 39.0155 17.1041 38.826 16.9006C38.6366 16.6951 38.3767 16.5923 38.0462 16.5923C37.8185 16.5923 37.6149 16.6417 37.4356 16.7404C37.2583 16.8391 37.1182 16.9832 37.0155 17.1727C36.9126 17.3621 36.8612 17.5918 36.8612 17.8618ZM43.0737 20.7515C42.6263 20.7515 42.2404 20.6528 41.916 20.4553C41.5936 20.2557 41.3447 19.9777 41.1694 19.621C40.9961 19.2623 40.9094 18.8452 40.9094 18.3696C40.9094 17.8941 40.9961 17.4749 41.1694 17.1121C41.3447 16.7475 41.5885 16.4633 41.9008 16.2598C42.2152 16.0543 42.5819 15.9514 43.0011 15.9514C43.2429 15.9514 43.4817 15.9917 43.7175 16.0724C43.9533 16.153 44.1679 16.2839 44.3613 16.4653C44.5548 16.6447 44.7089 16.8825 44.8238 17.1787C44.9387 17.4749 44.9961 17.8397 44.9961 18.2729V18.5752H41.4172V17.9585H44.2706C44.2706 17.6966 44.2182 17.4628 44.1135 17.2572C44.0107 17.0517 43.8636 16.8895 43.6722 16.7706C43.4827 16.6517 43.259 16.5923 43.0011 16.5923C42.717 16.5923 42.4711 16.6628 42.2636 16.8039C42.0581 16.9429 41.8998 17.1243 41.789 17.3479C41.6782 17.5716 41.6228 17.8114 41.6228 18.0673V18.4785C41.6228 18.8291 41.6832 19.1263 41.8041 19.3701C41.9271 19.6119 42.0973 19.7963 42.315 19.9233C42.5326 20.0482 42.7855 20.1107 43.0737 20.1107C43.261 20.1107 43.4303 20.0845 43.5815 20.0321C43.7346 19.9777 43.8666 19.8971 43.9774 19.7903C44.0883 19.6815 44.1739 19.5465 44.2344 19.3852L44.9236 19.5787C44.851 19.8124 44.7291 20.018 44.5578 20.1953C44.3865 20.3707 44.1749 20.5077 43.923 20.6064C43.6712 20.7032 43.388 20.7515 43.0737 20.7515ZM47.8344 20.7515C47.4475 20.7515 47.1059 20.6538 46.8097 20.4583C46.5135 20.2609 46.2818 19.9827 46.1145 19.624C45.9472 19.2633 45.8636 18.8371 45.8636 18.3454C45.8636 17.8578 45.9472 17.4346 46.1145 17.0759C46.2818 16.7172 46.5145 16.4402 46.8127 16.2447C47.111 16.0492 47.4556 15.9514 47.8465 15.9514C48.1488 15.9514 48.3875 16.0019 48.5629 16.1026C48.7402 16.2014 48.8753 16.3142 48.9679 16.4412C49.0626 16.5661 49.1362 16.6688 49.1886 16.7495H49.249V14.4643H49.9624V20.6548H49.2732V19.9414H49.1886C49.1362 20.0261 49.0616 20.1329 48.9649 20.2619C48.8681 20.3888 48.7302 20.5027 48.5508 20.6034C48.3714 20.7022 48.1326 20.7515 47.8344 20.7515ZM47.9311 20.1107C48.2173 20.1107 48.4591 20.0361 48.6566 19.887C48.8541 19.7359 49.0042 19.5273 49.1069 19.2613C49.2097 18.9933 49.2612 18.684 49.2612 18.3334C49.2612 17.9868 49.2107 17.6835 49.11 17.4235C49.0092 17.1615 48.8601 16.958 48.6626 16.8129C48.4651 16.6658 48.2213 16.5923 47.9311 16.5923C47.6289 16.5923 47.377 16.6698 47.1754 16.8251C46.9759 16.9782 46.8258 17.1867 46.7251 17.4507C46.6263 17.7127 46.577 18.0069 46.577 18.3334C46.577 18.6639 46.6273 18.9641 46.7281 19.2341C46.8309 19.5021 46.982 19.7157 47.1815 19.875C47.383 20.0321 47.6329 20.1107 47.9311 20.1107ZM59.0819 17.5596C59.0819 18.2124 58.964 18.7767 58.7282 19.2523C58.4924 19.7279 58.169 20.0946 57.7579 20.3525C57.3469 20.6105 56.8773 20.7394 56.3493 20.7394C55.8214 20.7394 55.3518 20.6105 54.9408 20.3525C54.5296 20.0946 54.2063 19.7279 53.9705 19.2523C53.7347 18.7767 53.6169 18.2124 53.6169 17.5596C53.6169 16.9066 53.7347 16.3424 53.9705 15.8669C54.2063 15.3913 54.5296 15.0245 54.9408 14.7666C55.3518 14.5087 55.8214 14.3797 56.3493 14.3797C56.8773 14.3797 57.3469 14.5087 57.7579 14.7666C58.169 15.0245 58.4924 15.3913 58.7282 15.8669C58.964 16.3424 59.0819 16.9066 59.0819 17.5596ZM58.3564 17.5596C58.3564 17.0235 58.2668 16.5711 58.0874 16.2024C57.91 15.8336 57.6692 15.5545 57.365 15.365C57.0627 15.1756 56.7242 15.0809 56.3493 15.0809C55.9745 15.0809 55.635 15.1756 55.3307 15.365C55.0284 15.5545 54.7876 15.8336 54.6083 16.2024C54.4309 16.5711 54.3423 17.0235 54.3423 17.5596C54.3423 18.0956 54.4309 18.548 54.6083 18.9167C54.7876 19.2855 55.0284 19.5646 55.3307 19.754C55.635 19.9434 55.9745 20.0382 56.3493 20.0382C56.7242 20.0382 57.0627 19.9434 57.365 19.754C57.6692 19.5646 57.91 19.2855 58.0874 18.9167C58.2668 18.548 58.3564 18.0956 58.3564 17.5596ZM60.9589 17.8618V20.6548H60.2456V16.0119H60.9348V16.7374H60.9952C61.104 16.5016 61.2693 16.3122 61.4909 16.1691C61.7126 16.024 61.9988 15.9514 62.3494 15.9514C62.6638 15.9514 62.9388 16.016 63.1746 16.1449C63.4103 16.2719 63.5937 16.4653 63.7247 16.7252C63.8557 16.9832 63.9212 17.3097 63.9212 17.7047V20.6548H63.2078V17.753C63.2078 17.3882 63.1131 17.1041 62.9237 16.9006C62.7343 16.6951 62.4743 16.5923 62.1439 16.5923C61.9161 16.5923 61.7126 16.6417 61.5332 16.7404C61.356 16.8391 61.2159 16.9832 61.1131 17.1727C61.0103 17.3621 60.9589 17.5918 60.9589 17.8618ZM14.2825 33.0358V32.4916L16.3258 30.2548C16.5656 29.9929 16.7632 29.7652 16.9183 29.5717C17.0735 29.3763 17.1883 29.1929 17.2629 29.0216C17.3394 28.8483 17.3777 28.6669 17.3777 28.4775C17.3777 28.2599 17.3253 28.0715 17.2206 27.9123C17.1178 27.753 16.9767 27.6302 16.7974 27.5435C16.6181 27.4568 16.4165 27.4135 16.1929 27.4135C15.9551 27.4135 15.7475 27.4629 15.5702 27.5617C15.3948 27.6584 15.2588 27.7944 15.1621 27.9697C15.0674 28.145 15.0201 28.3506 15.0201 28.5864H14.3067C14.3067 28.2236 14.3903 27.9052 14.5576 27.6312C14.7248 27.3571 14.9525 27.1435 15.2407 26.9904C15.5309 26.8372 15.8563 26.7606 16.217 26.7606C16.5798 26.7606 16.9011 26.8372 17.1813 26.9904C17.4614 27.1435 17.6811 27.35 17.8402 27.61C17.9994 27.87 18.079 28.1591 18.079 28.4775C18.079 28.7052 18.0377 28.9279 17.9551 29.1455C17.8745 29.3612 17.7335 29.602 17.5319 29.8679C17.3324 30.132 17.0554 30.4543 16.7006 30.8352L15.3103 32.3224V32.3707H18.1878V33.0358H14.2825ZM21.6126 26.8453V33.0358H20.8629V27.6312H20.8267L19.3153 28.6347V27.873L20.8629 26.8453H21.6126ZM23.5592 33.0841C23.41 33.0841 23.2821 33.0307 23.1753 32.9239C23.0685 32.8171 23.0151 32.6892 23.0151 32.54C23.0151 32.3909 23.0685 32.263 23.1753 32.1562C23.2821 32.0493 23.41 31.9959 23.5592 31.9959C23.7083 31.9959 23.8363 32.0493 23.943 32.1562C24.0498 32.263 24.1032 32.3909 24.1032 32.54C24.1032 32.6388 24.0781 32.7294 24.0277 32.812C23.9793 32.8947 23.9138 32.9612 23.8312 33.0115C23.7506 33.0599 23.6599 33.0841 23.5592 33.0841ZM27.1743 33.1203C26.7189 33.1203 26.3309 32.9964 26.0106 32.7486C25.6902 32.4987 25.4453 32.137 25.2761 31.6634C25.1068 31.1879 25.0221 30.6136 25.0221 29.9405C25.0221 29.2715 25.1068 28.7002 25.2761 28.2266C25.4473 27.751 25.6932 27.3883 26.0136 27.1385C26.336 26.8866 26.7229 26.7606 27.1743 26.7606C27.6257 26.7606 28.0116 26.8866 28.332 27.1385C28.6544 27.3883 28.9003 27.751 29.0695 28.2266C29.2409 28.7002 29.3264 29.2715 29.3264 29.9405C29.3264 30.6136 29.2419 31.1879 29.0725 31.6634C28.9033 32.137 28.6584 32.4987 28.338 32.7486C28.0176 32.9964 27.6297 33.1203 27.1743 33.1203ZM27.1743 32.4554C27.6257 32.4554 27.9763 32.2377 28.2262 31.8025C28.4761 31.3672 28.601 30.7465 28.601 29.9405C28.601 29.4045 28.5436 28.948 28.4287 28.5712C28.3158 28.1944 28.1526 27.9073 27.9391 27.7098C27.7274 27.5123 27.4725 27.4135 27.1743 27.4135C26.727 27.4135 26.3773 27.6342 26.1254 28.0755C25.8735 28.5148 25.7476 29.1365 25.7476 29.9405C25.7476 30.4765 25.804 30.9319 25.9169 31.3068C26.0297 31.6816 26.192 31.9667 26.4035 32.1622C26.6171 32.3577 26.8741 32.4554 27.1743 32.4554ZM32.458 33.1203C32.0428 33.1203 31.6761 33.0468 31.3577 32.8997C31.0414 32.7506 30.7945 32.5461 30.6171 32.2861C30.4398 32.0242 30.3522 31.7259 30.3542 31.3914C30.3522 31.1294 30.4036 30.8876 30.5084 30.666C30.6131 30.4423 30.7562 30.2558 30.9376 30.1067C31.1209 29.9556 31.3255 29.8599 31.5511 29.8196V29.7833C31.2549 29.7068 31.0191 29.5405 30.8439 29.2846C30.6685 29.0266 30.5819 28.7335 30.5839 28.405C30.5819 28.0906 30.6615 27.8095 30.8227 27.5617C30.9839 27.3137 31.2056 27.1183 31.4877 26.9752C31.7718 26.8321 32.0953 26.7606 32.458 26.7606C32.8166 26.7606 33.1371 26.8321 33.4192 26.9752C33.7013 27.1183 33.9229 27.3137 34.0842 27.5617C34.2474 27.8095 34.33 28.0906 34.3321 28.405C34.33 28.7335 34.2404 29.0266 34.063 29.2846C33.8877 29.5405 33.655 29.7068 33.3648 29.7833V29.8196C33.5884 29.8599 33.79 29.9556 33.9693 30.1067C34.1487 30.2558 34.2917 30.4423 34.3985 30.666C34.5053 30.8876 34.5598 31.1294 34.5618 31.3914C34.5598 31.7259 34.4691 32.0242 34.2897 32.2861C34.1124 32.5461 33.8655 32.7506 33.5492 32.8997C33.2348 33.0468 32.8711 33.1203 32.458 33.1203ZM32.458 32.4554C32.7381 32.4554 32.9799 32.4101 33.1834 32.3194C33.3869 32.2287 33.5442 32.1007 33.655 31.9355C33.7658 31.7703 33.8222 31.5768 33.8242 31.3551C33.8222 31.1214 33.7618 30.9148 33.6429 30.7355C33.524 30.5561 33.3618 30.4151 33.1562 30.3123C32.9527 30.2095 32.7199 30.1581 32.458 30.1581C32.194 30.1581 31.9582 30.2095 31.7506 30.3123C31.5451 30.4151 31.3829 30.5561 31.264 30.7355C31.1471 30.9148 31.0897 31.1214 31.0917 31.3551C31.0897 31.5768 31.1431 31.7703 31.2519 31.9355C31.3627 32.1007 31.521 32.2287 31.7265 32.3194C31.932 32.4101 32.1758 32.4554 32.458 32.4554ZM32.458 29.5173C32.6797 29.5173 32.8761 29.473 33.0474 29.3843C33.2207 29.2956 33.3567 29.1717 33.4555 29.0126C33.5542 28.8533 33.6046 28.6669 33.6066 28.4533C33.6046 28.2438 33.5552 28.0614 33.4585 27.9063C33.3618 27.749 33.2278 27.6281 33.0564 27.5435C32.8852 27.4568 32.6857 27.4135 32.458 27.4135C32.2262 27.4135 32.0237 27.4568 31.8504 27.5435C31.6771 27.6281 31.5431 27.749 31.4484 27.9063C31.3537 28.0614 31.3073 28.2438 31.3093 28.4533C31.3073 28.6669 31.3547 28.8533 31.4514 29.0126C31.5501 29.1717 31.6862 29.2956 31.8595 29.3843C32.0328 29.473 32.2322 29.5173 32.458 29.5173ZM36.0611 33.0841C35.9119 33.0841 35.784 33.0307 35.6772 32.9239C35.5703 32.8171 35.5169 32.6892 35.5169 32.54C35.5169 32.3909 35.5703 32.263 35.6772 32.1562C35.784 32.0493 35.9119 31.9959 36.0611 31.9959C36.2102 31.9959 36.3381 32.0493 36.4449 32.1562C36.5517 32.263 36.6051 32.3909 36.6051 32.54C36.6051 32.6388 36.5799 32.7294 36.5295 32.812C36.4812 32.8947 36.4157 32.9612 36.333 33.0115C36.2525 33.0599 36.1618 33.0841 36.0611 33.0841ZM37.8732 33.0358V32.4916L39.9165 30.2548C40.1563 29.9929 40.3538 29.7652 40.5089 29.5717C40.6641 29.3763 40.779 29.1929 40.8535 29.0216C40.9301 28.8483 40.9684 28.6669 40.9684 28.4775C40.9684 28.2599 40.9159 28.0715 40.8112 27.9123C40.7084 27.753 40.5673 27.6302 40.388 27.5435C40.2087 27.4568 40.0072 27.4135 39.7835 27.4135C39.5457 27.4135 39.3381 27.4629 39.1608 27.5617C38.9855 27.6584 38.8495 27.7944 38.7527 27.9697C38.658 28.145 38.6107 28.3506 38.6107 28.5864H37.8973C37.8973 28.2236 37.981 27.9052 38.1482 27.6312C38.3155 27.3571 38.5431 27.1435 38.8313 26.9904C39.1215 26.8372 39.4469 26.7606 39.8077 26.7606C40.1704 26.7606 40.4918 26.8372 40.7719 26.9904C41.052 27.1435 41.2717 27.35 41.4308 27.61C41.59 27.87 41.6696 28.1591 41.6696 28.4775C41.6696 28.7052 41.6283 28.9279 41.5457 29.1455C41.4651 29.3612 41.324 29.602 41.1225 29.8679C40.9231 30.132 40.646 30.4543 40.2913 30.8352L38.9009 32.3224V32.3707H41.7784V33.0358H37.8732ZM45.046 33.1203C44.5905 33.1203 44.2026 32.9964 43.8823 32.7486C43.5618 32.4987 43.317 32.137 43.1478 31.6634C42.9784 31.1879 42.8938 30.6136 42.8938 29.9405C42.8938 29.2715 42.9784 28.7002 43.1478 28.2266C43.319 27.751 43.5648 27.3883 43.8853 27.1385C44.2077 26.8866 44.5946 26.7606 45.046 26.7606C45.4974 26.7606 45.8833 26.8866 46.2037 27.1385C46.5261 27.3883 46.772 27.751 46.9412 28.2266C47.1125 28.7002 47.1981 29.2715 47.1981 29.9405C47.1981 30.6136 47.1135 31.1879 46.9442 31.6634C46.775 32.137 46.5302 32.4987 46.2097 32.7486C45.8893 32.9964 45.5014 33.1203 45.046 33.1203ZM45.046 32.4554C45.4974 32.4554 45.848 32.2377 46.0979 31.8025C46.3478 31.3672 46.4727 30.7465 46.4727 29.9405C46.4727 29.4045 46.4152 28.948 46.3004 28.5712C46.1875 28.1944 46.0243 27.9073 45.8107 27.7098C45.5991 27.5123 45.3442 27.4135 45.046 27.4135C44.5986 27.4135 44.249 27.6342 43.9971 28.0755C43.7452 28.5148 43.6192 29.1365 43.6192 29.9405C43.6192 30.4765 43.6757 30.9319 43.7885 31.3068C43.9014 31.6816 44.0636 31.9667 44.2752 32.1622C44.4888 32.3577 44.7457 32.4554 45.046 32.4554ZM48.3468 33.0358V32.4916L50.3901 30.2548C50.6299 29.9929 50.8273 29.7652 50.9826 29.5717C51.1377 29.3763 51.2526 29.1929 51.3272 29.0216C51.4037 28.8483 51.442 28.6669 51.442 28.4775C51.442 28.2599 51.3896 28.0715 51.2848 27.9123C51.1821 27.753 51.041 27.6302 50.8616 27.5435C50.6823 27.4568 50.4808 27.4135 50.2571 27.4135C50.0193 27.4135 49.8117 27.4629 49.6344 27.5617C49.4591 27.6584 49.3231 27.7944 49.2263 27.9697C49.1316 28.145 49.0843 28.3506 49.0843 28.5864H48.371C48.371 28.2236 48.4545 27.9052 48.6218 27.6312C48.7891 27.3571 49.0168 27.1435 49.305 26.9904C49.5951 26.8372 49.9206 26.7606 50.2813 26.7606C50.644 26.7606 50.9654 26.8372 51.2455 26.9904C51.5256 27.1435 51.7452 27.35 51.9045 27.61C52.0637 27.87 52.1433 28.1591 52.1433 28.4775C52.1433 28.7052 52.102 28.9279 52.0193 29.1455C51.9387 29.3612 51.7976 29.602 51.5961 29.8679C51.3966 30.132 51.1195 30.4543 50.7649 30.8352L49.3744 32.3224V32.3707H52.2521V33.0358H48.3468ZM53.2224 31.7662V31.1496L55.9428 26.8453H56.3901V27.8004H56.0879L54.0325 31.0529V31.1012H57.6959V31.7662H53.2224ZM56.1362 33.0358V31.5788V31.2917V26.8453H56.8496V33.0358H56.1362Z" fill="black"/>
<path d="M17.5103 64.7619H14.7317V55.7575H17.6334C18.5069 55.7575 19.2543 55.9379 19.8757 56.2984C20.4971 56.6559 20.9734 57.1704 21.3046 57.8416C21.6358 58.5098 21.8015 59.31 21.8015 60.2422C21.8015 61.1801 21.6343 61.9876 21.3002 62.6647C20.9661 63.3389 20.4795 63.8576 19.8406 64.2211C19.2016 64.5816 18.4248 64.7619 17.5103 64.7619ZM15.822 63.7946H17.44C18.1845 63.7946 18.8015 63.651 19.2909 63.3638C19.7805 63.0765 20.1454 62.6676 20.3857 62.1371C20.6261 61.6065 20.7462 60.9749 20.7462 60.2422C20.7462 59.5152 20.6275 58.8895 20.3901 58.3647C20.1527 57.8372 19.798 57.4327 19.3261 57.1513C18.8542 56.867 18.2666 56.7248 17.5631 56.7248H15.822V63.7946ZM26.3212 64.9026C25.6705 64.9026 25.1092 64.759 24.6373 64.4717C24.1683 64.1816 23.8064 63.777 23.5513 63.2582C23.2993 62.7365 23.1732 62.1298 23.1732 61.438C23.1732 60.7463 23.2993 60.1366 23.5513 59.609C23.8064 59.0785 24.161 58.6652 24.6153 58.3692C25.0725 58.0702 25.606 57.9207 26.2157 57.9207C26.5674 57.9207 26.9147 57.9793 27.2577 58.0965C27.6006 58.2139 27.9128 58.4044 28.1942 58.6682C28.4756 58.929 28.6998 59.2749 28.8668 59.7058C29.0339 60.1366 29.1175 60.6671 29.1175 61.2973V61.737H23.9118V60.8401H28.0623C28.0623 60.4591 27.9861 60.119 27.8336 59.82C27.6841 59.521 27.4702 59.2851 27.1918 59.1122C26.9162 58.9393 26.5908 58.8528 26.2157 58.8528C25.8024 58.8528 25.4448 58.9554 25.1429 59.1605C24.844 59.3628 24.6138 59.6266 24.4526 59.952C24.2915 60.2773 24.2108 60.6261 24.2108 60.9983V61.5963C24.2108 62.1063 24.2987 62.5387 24.4746 62.8933C24.6534 63.245 24.9011 63.5132 25.2176 63.6979C25.5342 63.8796 25.9021 63.9705 26.3212 63.9705C26.5938 63.9705 26.84 63.9324 27.0598 63.8562C27.2826 63.777 27.4746 63.6598 27.6358 63.5045C27.797 63.3461 27.9215 63.1498 28.0095 62.9153L29.0119 63.1966C28.9065 63.5367 28.7291 63.8357 28.4799 64.0936C28.2308 64.3486 27.923 64.5479 27.5567 64.6916C27.1903 64.8322 26.7785 64.9026 26.3212 64.9026ZM30.6959 67.2944V58.0086H31.6983V59.0814H31.8214C31.8976 58.9641 32.0032 58.8147 32.138 58.633C32.2757 58.4483 32.4721 58.2842 32.7271 58.1406C32.985 57.994 33.3339 57.9207 33.7735 57.9207C34.3422 57.9207 34.8434 58.0629 35.2772 58.3472C35.7109 58.6315 36.0495 59.0346 36.2928 59.5563C36.5361 60.078 36.6577 60.6935 36.6577 61.4029C36.6577 62.118 36.5361 62.7379 36.2928 63.2627C36.0495 63.7844 35.7124 64.1888 35.2816 64.4761C34.8507 64.7604 34.3538 64.9026 33.7911 64.9026C33.3573 64.9026 33.01 64.8308 32.7491 64.6872C32.4883 64.5406 32.2875 64.375 32.1468 64.1903C32.0061 64.0027 31.8976 63.8474 31.8214 63.7243H31.7335V67.2944H30.6959ZM31.7159 61.3852C31.7159 61.8953 31.7906 62.3452 31.9401 62.7351C32.0896 63.122 32.308 63.4253 32.5952 63.6451C32.8824 63.862 33.2342 63.9705 33.6504 63.9705C34.0842 63.9705 34.4462 63.8562 34.7364 63.6276C35.0295 63.396 35.2493 63.0853 35.3959 62.6955C35.5454 62.3027 35.6201 61.8659 35.6201 61.3852C35.6201 60.9104 35.5468 60.4825 35.4003 60.1014C35.2566 59.7174 35.0383 59.4141 34.7452 59.1913C34.455 58.9656 34.09 58.8528 33.6504 58.8528C33.2283 58.8528 32.8737 58.9598 32.5865 59.1738C32.2991 59.3848 32.0822 59.6808 31.9357 60.0619C31.7892 60.4399 31.7159 60.8811 31.7159 61.3852ZM38.2405 64.7619V58.0086H39.2429V59.0287H39.3133C39.4364 58.6945 39.6592 58.4234 39.9816 58.2152C40.304 58.0072 40.6674 57.9031 41.072 57.9031C41.1481 57.9031 41.2435 57.9046 41.3577 57.9075C41.472 57.9104 41.5585 57.9149 41.6171 57.9207V58.9759C41.582 58.9671 41.5014 58.9539 41.3753 58.9364C41.2522 58.9158 41.1218 58.9056 40.984 58.9056C40.6557 58.9056 40.3626 58.9744 40.1047 59.1122C39.8497 59.247 39.6475 59.4346 39.498 59.675C39.3514 59.9124 39.2781 60.1835 39.2781 60.4883V64.7619H38.2405ZM45.473 64.9026C44.8223 64.9026 44.261 64.759 43.7891 64.4717C43.3201 64.1816 42.9581 63.777 42.7031 63.2582C42.4511 62.7365 42.325 62.1298 42.325 61.438C42.325 60.7463 42.4511 60.1366 42.7031 59.609C42.9581 59.0785 43.3128 58.6652 43.7671 58.3692C44.2243 58.0702 44.7578 57.9207 45.3675 57.9207C45.7192 57.9207 46.0665 57.9793 46.4095 58.0965C46.7524 58.2139 47.0646 58.4044 47.3459 58.6682C47.6274 58.929 47.8516 59.2749 48.0186 59.7058C48.1857 60.1366 48.2693 60.6671 48.2693 61.2973V61.737H43.0636V60.8401H47.2141C47.2141 60.4591 47.1379 60.119 46.9854 59.82C46.8359 59.521 46.622 59.2851 46.3436 59.1122C46.068 58.9393 45.7426 58.8528 45.3675 58.8528C44.9542 58.8528 44.5966 58.9554 44.2947 59.1605C43.9957 59.3628 43.7656 59.6266 43.6044 59.952C43.4432 60.2773 43.3626 60.6261 43.3626 60.9983V61.5963C43.3626 62.1063 43.4505 62.5387 43.6264 62.8933C43.8052 63.245 44.0528 63.5132 44.3694 63.6979C44.686 63.8796 45.0538 63.9705 45.473 63.9705C45.7456 63.9705 45.9918 63.9324 46.2116 63.8562C46.4344 63.777 46.6264 63.6598 46.7876 63.5045C46.9488 63.3461 47.0733 63.1498 47.1613 62.9153L48.1637 63.1966C48.0582 63.5367 47.8809 63.8357 47.6317 64.0936C47.3826 64.3486 47.0748 64.5479 46.7085 64.6916C46.3421 64.8322 45.9303 64.9026 45.473 64.9026ZM54.6312 59.521L53.6991 59.7849C53.6405 59.6295 53.554 59.4786 53.4397 59.332C53.3283 59.1825 53.1759 59.0595 52.9825 58.9627C52.789 58.866 52.5413 58.8177 52.2394 58.8177C51.8261 58.8177 51.4817 58.9129 51.2063 59.1034C50.9336 59.291 50.7973 59.5299 50.7973 59.82C50.7973 60.078 50.8912 60.2817 51.0787 60.4312C51.2663 60.5807 51.5594 60.7052 51.958 60.8049L52.9605 61.0511C53.5643 61.1977 54.0142 61.4219 54.3102 61.7238C54.6063 62.0228 54.7543 62.4082 54.7543 62.8802C54.7543 63.2671 54.6429 63.6129 54.4202 63.9178C54.2004 64.2226 53.8925 64.4629 53.4969 64.6388C53.1012 64.8147 52.641 64.9026 52.1163 64.9026C51.4275 64.9026 50.8574 64.7531 50.4061 64.4541C49.9546 64.1552 49.6688 63.7184 49.5487 63.1439L50.5335 62.8977C50.6273 63.2612 50.8046 63.5338 51.0655 63.7155C51.3293 63.8972 51.6737 63.9881 52.0988 63.9881C52.5824 63.9881 52.9664 63.8855 53.2507 63.6803C53.5379 63.4722 53.6815 63.223 53.6815 62.9329C53.6815 62.6984 53.5995 62.502 53.4353 62.3438C53.2712 62.1825 53.0191 62.0623 52.6791 61.9832L51.5535 61.7194C50.9351 61.5729 50.4808 61.3457 50.1906 61.038C49.9033 60.7273 49.7597 60.3389 49.7597 59.8728C49.7597 59.4918 49.8667 59.1547 50.0807 58.8616C50.2976 58.5685 50.5922 58.3384 50.9644 58.1713C51.3396 58.0042 51.7646 57.9207 52.2394 57.9207C52.9077 57.9207 53.4324 58.0673 53.8134 58.3603C54.1974 58.6535 54.47 59.0404 54.6312 59.521ZM61.0998 59.521L60.1677 59.7849C60.1091 59.6295 60.0226 59.4786 59.9083 59.332C59.7969 59.1825 59.6445 59.0595 59.451 58.9627C59.2576 58.866 59.0099 58.8177 58.708 58.8177C58.2947 58.8177 57.9503 58.9129 57.6748 59.1034C57.4022 59.291 57.2659 59.5299 57.2659 59.82C57.2659 60.078 57.3597 60.2817 57.5473 60.4312C57.7349 60.5807 58.028 60.7052 58.4266 60.8049L59.4291 61.0511C60.0329 61.1977 60.4828 61.4219 60.7788 61.7238C61.0749 62.0228 61.2229 62.4082 61.2229 62.8802C61.2229 63.2671 61.1115 63.6129 60.8887 63.9178C60.6689 64.2226 60.3611 64.4629 59.9655 64.6388C59.5697 64.8147 59.1096 64.9026 58.5849 64.9026C57.8961 64.9026 57.326 64.7531 56.8746 64.4541C56.4232 64.1552 56.1374 63.7184 56.0173 63.1439L57.0021 62.8977C57.0959 63.2612 57.2732 63.5338 57.5341 63.7155C57.7979 63.8972 58.1423 63.9881 58.5673 63.9881C59.0509 63.9881 59.4349 63.8855 59.7192 63.6803C60.0065 63.4722 60.1501 63.223 60.1501 62.9329C60.1501 62.6984 60.068 62.502 59.9039 62.3438C59.7397 62.1825 59.4876 62.0623 59.1476 61.9832L58.0221 61.7194C57.4037 61.5729 56.9493 61.3457 56.6591 61.038C56.3719 60.7273 56.2283 60.3389 56.2283 59.8728C56.2283 59.4918 56.3353 59.1547 56.5493 58.8616C56.7662 58.5685 57.0607 58.3384 57.4329 58.1713C57.8082 58.0042 58.2331 57.9207 58.708 57.9207C59.3763 57.9207 59.9009 58.0673 60.282 58.3603C60.666 58.6535 60.9385 59.0404 61.0998 59.521ZM62.7848 64.7619V58.0086H63.8224V64.7619H62.7848ZM63.3123 56.8831C63.1101 56.8831 62.9357 56.8142 62.7892 56.6764C62.6456 56.5387 62.5737 56.3731 62.5737 56.1797C62.5737 55.9862 62.6456 55.8205 62.7892 55.6828C62.9357 55.5451 63.1101 55.4762 63.3123 55.4762C63.5146 55.4762 63.6876 55.5451 63.8312 55.6828C63.9777 55.8205 64.051 55.9862 64.051 56.1797C64.051 56.3731 63.9777 56.5387 63.8312 56.6764C63.6876 56.8142 63.5146 56.8831 63.3123 56.8831ZM68.4664 64.9026C67.8567 64.9026 67.3218 64.7575 66.8616 64.4673C66.4043 64.1771 66.0468 63.7712 65.7888 63.2494C65.5338 62.7277 65.4063 62.118 65.4063 61.4204C65.4063 60.717 65.5338 60.1029 65.7888 59.5782C66.0468 59.0536 66.4043 58.6462 66.8616 58.356C67.3218 58.0658 67.8567 57.9207 68.4664 57.9207C69.076 57.9207 69.6095 58.0658 70.0667 58.356C70.5269 58.6462 70.8845 59.0536 71.1395 59.5782C71.3974 60.1029 71.5264 60.717 71.5264 61.4204C71.5264 62.118 71.3974 62.7277 71.1395 63.2494C70.8845 63.7712 70.5269 64.1771 70.0667 64.4673C69.6095 64.7575 69.076 64.9026 68.4664 64.9026ZM68.4664 63.9705C68.9294 63.9705 69.3105 63.8518 69.6095 63.6143C69.9085 63.3769 70.1298 63.0648 70.2734 62.6779C70.417 62.291 70.4888 61.8718 70.4888 61.4204C70.4888 60.9691 70.417 60.5484 70.2734 60.1586C70.1298 59.7687 69.9085 59.4537 69.6095 59.2133C69.3105 58.973 68.9294 58.8528 68.4664 58.8528C68.0033 58.8528 67.6222 58.973 67.3232 59.2133C67.0242 59.4537 66.8029 59.7687 66.6593 60.1586C66.5157 60.5484 66.4439 60.9691 66.4439 61.4204C66.4439 61.8718 66.5157 62.291 66.6593 62.6779C66.8029 63.0648 67.0242 63.3769 67.3232 63.6143C67.6222 63.8518 68.0033 63.9705 68.4664 63.9705ZM74.1479 60.6994V64.7619H73.1103V58.0086H74.1127V59.0638H74.2007C74.3589 58.7209 74.5993 58.4454 74.9217 58.2373C75.2441 58.0262 75.6603 57.9207 76.1704 57.9207C76.6276 57.9207 77.0277 58.0145 77.3707 58.2021C77.7136 58.3867 77.9804 58.6682 78.1708 59.0462C78.3612 59.4215 78.4563 59.8963 78.4563 60.4707V64.7619H77.419V60.5411C77.419 60.0106 77.2812 59.5973 77.0058 59.3013C76.7302 59.0023 76.3521 58.8528 75.8714 58.8528C75.5402 58.8528 75.2441 58.9246 74.9832 59.0682C74.7253 59.2118 74.5216 59.4215 74.3722 59.6969C74.2227 59.9725 74.1479 60.3066 74.1479 60.6994ZM18.0028 77.4241H19.1986L20.2011 78.7435L20.4649 79.0948L21.9597 81.0819H20.7638L19.779 79.7634L19.5328 79.4291L18.0028 77.4241ZM22.3291 75.7359C22.3291 76.6856 22.1576 77.5062 21.8146 78.1979C21.4717 78.8897 21.0013 79.4229 20.4033 79.7982C19.8054 80.1735 19.1224 80.3615 18.3545 80.3615C17.5865 80.3615 16.9036 80.1735 16.3057 79.7982C15.7077 79.4229 15.2373 78.8897 14.8943 78.1979C14.5514 77.5062 14.3799 76.6856 14.3799 75.7359C14.3799 74.7862 14.5514 73.9655 14.8943 73.2738C15.2373 72.582 15.7077 72.0486 16.3057 71.6734C16.9036 71.2982 17.5865 71.1106 18.3545 71.1106C19.1224 71.1106 19.8054 71.2982 20.4033 71.6734C21.0013 72.0486 21.4717 72.582 21.8146 73.2738C22.1576 73.9655 22.3291 74.7862 22.3291 75.7359ZM21.2738 75.7359C21.2738 74.9562 21.1434 74.2982 20.8826 73.7619C20.6246 73.2255 20.2744 72.8195 19.8318 72.544C19.3921 72.2684 18.8997 72.1307 18.3545 72.1307C17.8093 72.1307 17.3154 72.2684 16.8728 72.544C16.4332 72.8195 16.0829 73.2255 15.822 73.7619C15.564 74.2982 15.4351 74.9562 15.4351 75.7359C15.4351 76.5156 15.564 77.1734 15.822 77.7097C16.0829 78.2467 16.4332 78.6522 16.8728 78.9277C17.3154 79.2031 17.8093 79.3409 18.3545 79.3409C18.8997 79.3409 19.3921 79.2031 19.8318 78.9277C20.2744 78.6522 20.6246 78.2467 20.8826 77.7097C21.1434 77.1734 21.2738 76.5156 21.2738 75.7359ZM28.2777 77.4768V73.4848H29.3153V80.2377H28.2777V79.0948H28.2074C28.0491 79.4376 27.8028 79.7293 27.4687 79.97C27.1346 80.2075 26.7125 80.3259 26.2025 80.3259C25.7804 80.3259 25.4053 80.2338 25.0769 80.0489C24.7487 79.8616 24.4907 79.58 24.3031 79.2047C24.1156 78.8271 24.0218 78.3504 24.0218 77.7762V73.4848H25.0594V77.7058C25.0594 78.1979 25.1971 78.591 25.4727 78.8835C25.7511 79.1768 26.1058 79.3238 26.5367 79.3238C26.7946 79.3238 27.0569 79.2573 27.3236 79.1257C27.5933 78.9942 27.819 78.7915 28.0007 78.5191C28.1854 78.2467 28.2777 77.8993 28.2777 77.4768ZM34.0472 80.3785C33.3965 80.3785 32.8352 80.2354 32.3633 79.9475C31.8943 79.6574 31.5323 79.2534 31.2773 78.7342C31.0252 78.2127 30.8992 77.606 30.8992 76.9142C30.8992 76.2225 31.0252 75.6128 31.2773 75.0852C31.5323 74.5547 31.887 74.1414 32.3413 73.8453C32.7986 73.5463 33.332 73.3969 33.9417 73.3969C34.2934 73.3969 34.6408 73.4555 34.9837 73.5727C35.3266 73.69 35.6388 73.8806 35.9202 74.1444C36.2015 74.4052 36.4258 74.7511 36.5929 75.1819C36.7599 75.6128 36.8435 76.1433 36.8435 76.7735V77.2129H31.6378V76.3163H35.7883C35.7883 75.9352 35.7121 75.5952 35.5597 75.2962C35.4102 74.9972 35.1962 74.7613 34.9177 74.5884C34.6422 74.4155 34.3169 74.329 33.9417 74.329C33.5284 74.329 33.1708 74.4316 32.8689 74.6367C32.5699 74.839 32.3398 75.1028 32.1787 75.4282C32.0174 75.7535 31.9368 76.1023 31.9368 76.4745V77.0728C31.9368 77.5828 32.0248 78.0146 32.2006 78.3697C32.3794 78.721 32.6271 78.9896 32.9436 79.1737C33.2602 79.3556 33.6281 79.4469 34.0472 79.4469C34.3198 79.4469 34.566 79.409 34.7859 79.3324C35.0086 79.2534 35.2006 79.1358 35.3618 78.9803C35.523 78.8224 35.6476 78.6259 35.7356 78.3914L36.7379 78.6731C36.6324 79.0128 36.4551 79.3122 36.206 79.5699C35.9568 79.8245 35.649 80.0241 35.2826 80.1681C34.9162 80.3081 34.5044 80.3785 34.0472 80.3785ZM43.2055 74.9972L42.2733 75.2611C42.2147 75.1057 42.1282 74.9548 42.0139 74.8082C41.9026 74.6587 41.7501 74.5357 41.5567 74.4389C41.3632 74.3422 41.1155 74.2938 40.8137 74.2938C40.4004 74.2938 40.056 74.3891 39.7804 74.5796C39.5079 74.7672 39.3715 75.0061 39.3715 75.2962C39.3715 75.5541 39.4653 75.7579 39.653 75.9074C39.8405 76.0569 40.1337 76.1814 40.5322 76.2811L41.5347 76.5273C42.1385 76.6739 42.5884 76.8979 42.8845 77.1997C43.1805 77.4992 43.3286 77.8846 43.3286 78.3566C43.3286 78.7435 43.2171 79.0894 42.9944 79.3943C42.7745 79.6991 42.4668 79.939 42.0711 80.1147C41.6754 80.2911 41.2152 80.3785 40.6906 80.3785C40.0017 80.3785 39.4317 80.2292 38.9802 79.9305C38.5289 79.631 38.2431 79.1946 38.1229 78.6205L39.1077 78.3736C39.2015 78.7373 39.3789 79.0097 39.6397 79.1915C39.9035 79.3734 40.2479 79.4639 40.6729 79.4639C41.1566 79.4639 41.5406 79.3618 41.8249 79.1567C42.1121 78.9485 42.2558 78.6994 42.2558 78.4092C42.2558 78.1747 42.1737 77.9782 42.0095 77.8196C41.8454 77.6586 41.5933 77.5387 41.2533 77.4597L40.1278 77.1959C39.5093 77.0488 39.055 76.8219 38.7648 76.5141C38.4775 76.2035 38.3339 75.8151 38.3339 75.349C38.3339 74.968 38.4409 74.6309 38.6549 74.3378C38.8718 74.0447 39.1664 73.8145 39.5386 73.6475C39.9138 73.4804 40.3388 73.3969 40.8137 73.3969C41.4819 73.3969 42.0066 73.5435 42.3876 73.8365C42.7717 74.1296 43.0442 74.5166 43.2055 74.9972ZM47.8274 73.4848V74.3642H44.3276V73.4848H47.8274ZM45.3477 71.8669H46.3853V78.3032C46.3853 78.5965 46.4278 78.8162 46.5128 78.9632C46.6008 79.1064 46.7121 79.2031 46.8469 79.2534C46.9847 79.2999 47.1298 79.3238 47.2822 79.3238C47.3966 79.3238 47.4903 79.3176 47.5636 79.306C47.6369 79.2913 47.6955 79.2797 47.7394 79.2704L47.9505 80.2029C47.8802 80.2292 47.782 80.2555 47.6559 80.2818C47.5299 80.3112 47.3702 80.3259 47.1767 80.3259C46.8836 80.3259 46.5964 80.2632 46.3149 80.1371C46.0365 80.011 45.8049 79.8191 45.6203 79.5606C45.4386 79.3029 45.3477 78.9779 45.3477 78.5849V71.8669ZM49.3882 80.2377V73.4848H50.4258V80.2377H49.3882ZM49.9158 72.3593C49.7136 72.3593 49.5392 72.2904 49.3926 72.1526C49.249 72.0149 49.1772 71.8493 49.1772 71.6559C49.1772 71.4624 49.249 71.2967 49.3926 71.159C49.5392 71.0213 49.7136 70.9524 49.9158 70.9524C50.118 70.9524 50.291 71.0213 50.4346 71.159C50.5812 71.2967 50.6544 71.4624 50.6544 71.6559C50.6544 71.8493 50.5812 72.0149 50.4346 72.1526C50.291 72.2904 50.118 72.3593 49.9158 72.3593ZM55.0698 80.3785C54.4601 80.3785 53.9252 80.2338 53.465 79.9437C53.0078 79.6535 52.6502 79.2472 52.3922 78.7257C52.1372 78.2041 52.0097 77.5944 52.0097 76.8964C52.0097 76.1932 52.1372 75.5791 52.3922 75.0544C52.6502 74.5298 53.0078 74.1224 53.465 73.8322C53.9252 73.542 54.4601 73.3969 55.0698 73.3969C55.6794 73.3969 56.2129 73.542 56.6701 73.8322C57.1303 74.1224 57.488 74.5298 57.7429 75.0544C58.0008 75.5791 58.1298 76.1932 58.1298 76.8964C58.1298 77.5944 58.0008 78.2041 57.7429 78.7257C57.488 79.2472 57.1303 79.6535 56.6701 79.9437C56.2129 80.2338 55.6794 80.3785 55.0698 80.3785ZM55.0698 79.4469C55.5329 79.4469 55.914 79.3277 56.2129 79.0909C56.5119 78.8534 56.7332 78.5407 56.8768 78.1538C57.0204 77.7669 57.0922 77.3483 57.0922 76.8964C57.0922 76.4453 57.0204 76.0246 56.8768 75.6348C56.7332 75.2449 56.5119 74.9298 56.2129 74.6895C55.914 74.4492 55.5329 74.329 55.0698 74.329C54.6067 74.329 54.2256 74.4492 53.9267 74.6895C53.6277 74.9298 53.4063 75.2449 53.2627 75.6348C53.1191 76.0246 53.0473 76.4453 53.0473 76.8964C53.0473 77.3483 53.1191 77.7669 53.2627 78.1538C53.4063 78.5407 53.6277 78.8534 53.9267 79.0909C54.2256 79.3277 54.6067 79.4469 55.0698 79.4469ZM60.7513 76.1756V80.2377H59.7137V73.4848H60.7161V74.54H60.8041C60.9624 74.1971 61.2027 73.9216 61.5252 73.7135C61.8475 73.5024 62.2638 73.3969 62.7738 73.3969C63.231 73.3969 63.6312 73.4907 63.9741 73.6783C64.317 73.8629 64.5837 74.1443 64.7742 74.5224C64.9648 74.8976 65.0601 75.3725 65.0601 75.9469V80.2377H64.0225V76.0173C64.0225 75.4868 63.8847 75.0735 63.6092 74.7775C63.3336 74.4785 62.9555 74.329 62.4749 74.329C62.1436 74.329 61.8475 74.4008 61.5867 74.5444C61.3288 74.688 61.125 74.8977 60.9756 75.1731C60.8261 75.4487 60.7513 75.7828 60.7513 76.1756ZM67.9937 76.1756V80.2377H66.9561V73.4848H67.9585V74.54H68.0464C68.2048 74.1971 68.4451 73.9216 68.7675 73.7135C69.0899 73.5024 69.5061 73.3969 70.0162 73.3969C70.4734 73.3969 70.8735 73.4907 71.2164 73.6783C71.5594 73.8629 71.8261 74.1443 72.0166 74.5224C72.2071 74.8976 72.3024 75.3725 72.3024 75.9469V80.2377H71.2648V76.0173C71.2648 75.4868 71.127 75.0735 70.8515 74.7775C70.576 74.4785 70.1979 74.329 69.7172 74.329C69.386 74.329 69.0899 74.4008 68.8291 74.5444C68.5712 74.688 68.3674 74.8977 68.2179 75.1731C68.0684 75.4487 67.9937 75.7828 67.9937 76.1756ZM76.1857 80.3963C75.7578 80.3963 75.3695 80.3159 75.0206 80.1549C74.6719 79.9901 74.3948 79.7541 74.1897 79.4469C73.9845 79.1358 73.8819 78.7605 73.8819 78.321C73.8819 77.9341 73.9581 77.6207 74.1105 77.38C74.263 77.1371 74.4667 76.9467 74.7217 76.8087C74.9767 76.6709 75.258 76.5683 75.5658 76.5009C75.8765 76.4306 76.1887 76.3749 76.5023 76.3338C76.9127 76.2811 77.2453 76.2415 77.5004 76.2151C77.7583 76.1858 77.9456 76.1374 78.0632 76.07C78.1832 76.0026 78.2435 75.8854 78.2435 75.7184V75.6831C78.2435 75.2493 78.1244 74.9123 77.8876 74.6719C77.6527 74.4316 77.2966 74.3114 76.8189 74.3114C76.3235 74.3114 75.9351 74.4198 75.6538 74.6367C75.3724 74.8536 75.1745 75.0852 75.0602 75.3314L74.0753 74.9797C74.2512 74.5693 74.4857 74.2498 74.7788 74.0212C75.0749 73.7896 75.3973 73.6284 75.7461 73.5376C76.0978 73.4438 76.4437 73.3969 76.7837 73.3969C77.0006 73.3969 77.2497 73.4233 77.5311 73.476C77.8155 73.5258 78.0896 73.6299 78.3534 73.7882C78.6204 73.9465 78.8417 74.1854 79.0173 74.5049C79.193 74.8244 79.2812 75.2523 79.2812 75.7887V80.2377H78.2435V79.3238H78.1909C78.1205 79.4701 78.0029 79.6272 77.8389 79.7943C77.6747 79.9615 77.4564 80.1031 77.1838 80.2207C76.9112 80.3375 76.5785 80.3963 76.1857 80.3963ZM76.344 79.4639C76.7544 79.4639 77.1002 79.3834 77.3817 79.2225C77.666 79.0615 77.8799 78.8534 78.0238 78.598C78.17 78.3434 78.2435 78.0749 78.2435 77.7932V76.8439C78.1994 76.8964 78.1027 76.9452 77.9534 76.9893C77.8066 77.0303 77.6366 77.0666 77.4432 77.0991C77.2527 77.1285 77.0666 77.1549 76.8848 77.1781C76.7061 77.1982 76.561 77.216 76.4495 77.2307C76.1799 77.2663 75.9278 77.3228 75.6933 77.4025C75.4618 77.4783 75.2742 77.5944 75.1306 77.7499C74.9899 77.9024 74.9195 78.1097 74.9195 78.3736C74.9195 78.7342 75.0529 79.0074 75.3196 79.1915C75.5893 79.3734 75.9308 79.4639 76.344 79.4639ZM81.1747 80.2377V73.4848H82.2124V80.2377H81.1747ZM81.7025 72.3593C81.5005 72.3593 81.3256 72.2904 81.1794 72.1526C81.0354 72.0149 80.9635 71.8493 80.9635 71.6559C80.9635 71.4624 81.0354 71.2967 81.1794 71.159C81.3256 71.0213 81.5005 70.9524 81.7025 70.9524C81.9044 70.9524 82.0778 71.0213 82.2209 71.159C82.3679 71.2967 82.4415 71.4624 82.4415 71.6559C82.4415 71.8493 82.3679 72.0149 82.2209 72.1526C82.0778 72.2904 81.9044 72.3593 81.7025 72.3593ZM84.1129 80.2377V73.4848H85.115V74.5049H85.1854C85.3084 74.1707 85.5313 73.8996 85.854 73.6914C86.1766 73.4834 86.5396 73.3793 86.9443 73.3793C87.0209 73.3793 87.116 73.3808 87.2298 73.3837C87.3443 73.3866 87.431 73.391 87.4898 73.3969V74.4521C87.4542 74.4433 87.3737 74.4301 87.2476 74.4125C87.1246 74.392 86.9946 74.3818 86.856 74.3818C86.5279 74.3818 86.2347 74.4506 85.977 74.5884C85.7224 74.7232 85.5197 74.9108 85.3703 75.1511C85.2241 75.3886 85.1506 75.6597 85.1506 75.9645V80.2377H84.1129ZM91.3457 80.3785C90.6949 80.3785 90.1331 80.2354 89.6611 79.9475C89.1922 79.6574 88.8308 79.2534 88.5754 78.7342C88.3232 78.2127 88.1971 77.606 88.1971 76.9142C88.1971 76.2225 88.3232 75.6128 88.5754 75.0852C88.8308 74.5547 89.1852 74.1414 89.6394 73.8453C90.0968 73.5463 90.6299 73.3969 91.2397 73.3969C91.5918 73.3969 91.9392 73.4555 92.282 73.5727C92.6248 73.69 92.9366 73.8806 93.2183 74.1444C93.5 74.4052 93.7236 74.7511 93.8907 75.1819C94.0579 75.6128 94.1415 76.1433 94.1415 76.7735V77.2129H88.936V76.3163H93.0868C93.0868 75.9352 93.0101 75.5952 92.8577 75.2962C92.7084 74.9972 92.494 74.7613 92.2162 74.5884C91.9407 74.4155 91.615 74.329 91.2397 74.329C90.8265 74.329 90.469 74.4316 90.1672 74.6367C89.8685 74.839 89.6379 75.1028 89.4769 75.4282C89.316 75.7535 89.2347 76.1023 89.2347 76.4745V77.0728C89.2347 77.5828 89.3229 78.0146 89.4986 78.3697C89.6774 78.721 89.925 78.9896 90.2415 79.1737C90.5587 79.3556 90.9263 79.4469 91.3457 79.4469C91.6181 79.4469 91.8641 79.409 92.0839 79.3324C92.3068 79.2534 92.4987 79.1358 92.6596 78.9803C92.8213 78.8224 92.9459 78.6259 93.0334 78.3914L94.0362 78.6731C93.931 79.0128 93.753 79.3122 93.5038 79.5699C93.2547 79.8245 92.9475 80.0241 92.5807 80.1681C92.2147 80.3081 91.803 80.3785 91.3457 80.3785Z" fill="black"/>
<mask id="mask1_449_493" style="mask-type:luminance" maskUnits="userSpaceOnUse" x="5" y="105" width="264" height="42">
<path d="M261.26 105.773H13.6414C9.36778 105.773 5.90332 109.238 5.90332 113.512V139.047C5.90332 143.321 9.36778 146.785 13.6414 146.785H261.26C265.534 146.785 268.999 143.321 268.999 139.047V113.512C268.999 109.238 265.534 105.773 261.26 105.773Z" fill="white"/>
</mask>
<g mask="url(#mask1_449_493)">
<path d="M261.26 105.773H13.6414C9.36778 105.773 5.90332 109.238 5.90332 113.512V139.047C5.90332 143.321 9.36778 146.785 13.6414 146.785H261.26C265.534 146.785 268.999 143.321 268.999 139.047V113.512C268.999 109.238 265.534 105.773 261.26 105.773Z" fill="#E1DFDF"/>
<mask id="mask2_449_493" style="mask-type:luminance" maskUnits="userSpaceOnUse" x="5" y="105" width="264" height="42">
<path d="M268.998 105.773H5.90234V146.785H268.998V105.773Z" fill="white"/>
</mask>
<g mask="url(#mask2_449_493)">
<path d="M265.129 105.773H9.77139C7.63458 105.773 5.90234 107.506 5.90234 109.642V142.916C5.90234 145.053 7.63458 146.785 9.77139 146.785H265.129C267.265 146.785 268.998 145.053 268.998 142.916V109.642C268.998 107.506 267.265 105.773 265.129 105.773Z" fill="#00A886"/>
<path d="M124.428 124.339C124.387 123.976 124.218 123.693 123.921 123.494C123.623 123.291 123.248 123.189 122.797 123.189C122.473 123.189 122.194 123.241 121.958 123.343C121.722 123.443 121.539 123.582 121.408 123.759C121.28 123.933 121.216 124.132 121.216 124.355C121.216 124.542 121.259 124.704 121.347 124.84C121.437 124.975 121.553 125.09 121.697 125.182C121.843 125.272 121.999 125.348 122.166 125.409C122.333 125.468 122.493 125.517 122.647 125.555L123.416 125.755C123.667 125.817 123.925 125.9 124.19 126.005C124.454 126.111 124.699 126.249 124.924 126.421C125.15 126.593 125.332 126.805 125.47 127.059C125.611 127.313 125.682 127.617 125.682 127.972C125.682 128.417 125.566 128.814 125.336 129.16C125.108 129.506 124.776 129.779 124.34 129.98C123.906 130.179 123.382 130.28 122.766 130.28C122.176 130.28 121.666 130.186 121.235 129.999C120.804 129.812 120.467 129.546 120.223 129.202C119.98 128.856 119.845 128.446 119.819 127.972H121.012C121.035 128.256 121.127 128.493 121.289 128.683C121.453 128.87 121.662 129.01 121.916 129.102C122.172 129.192 122.453 129.237 122.758 129.237C123.094 129.237 123.394 129.184 123.655 129.079C123.919 128.971 124.126 128.823 124.278 128.633C124.43 128.441 124.505 128.216 124.505 127.96C124.505 127.726 124.438 127.535 124.305 127.387C124.174 127.238 123.996 127.115 123.77 127.018C123.547 126.92 123.295 126.834 123.012 126.76L122.081 126.505C121.451 126.333 120.951 126.081 120.581 125.748C120.214 125.414 120.031 124.973 120.031 124.424C120.031 123.97 120.154 123.574 120.4 123.236C120.647 122.897 120.98 122.634 121.4 122.447C121.821 122.257 122.296 122.162 122.824 122.162C123.357 122.162 123.828 122.256 124.235 122.443C124.646 122.63 124.969 122.888 125.205 123.217C125.441 123.542 125.564 123.916 125.574 124.339H124.428ZM129.769 124.24V125.163H126.541V124.24H129.769ZM127.407 122.824H128.557V128.413C128.557 128.637 128.59 128.805 128.657 128.918C128.724 129.028 128.809 129.104 128.915 129.145C129.022 129.183 129.139 129.202 129.264 129.202C129.357 129.202 129.438 129.196 129.507 129.183C129.576 129.17 129.63 129.16 129.668 129.152L129.877 130.103C129.81 130.128 129.715 130.154 129.592 130.179C129.469 130.208 129.315 130.223 129.13 130.226C128.827 130.231 128.546 130.177 128.284 130.064C128.022 129.951 127.81 129.777 127.649 129.541C127.488 129.305 127.407 129.009 127.407 128.653V122.824ZM132.761 130.28C132.386 130.28 132.048 130.21 131.745 130.072C131.443 129.931 131.203 129.727 131.026 129.46C130.852 129.193 130.764 128.866 130.764 128.479C130.764 128.146 130.828 127.871 130.957 127.656C131.084 127.44 131.258 127.27 131.476 127.144C131.694 127.018 131.937 126.924 132.206 126.86C132.476 126.795 132.75 126.747 133.03 126.713C133.384 126.672 133.671 126.639 133.892 126.614C134.112 126.585 134.273 126.54 134.372 126.479C134.473 126.417 134.522 126.317 134.522 126.179V126.152C134.522 125.816 134.428 125.555 134.238 125.371C134.05 125.186 133.771 125.094 133.4 125.094C133.012 125.094 132.707 125.18 132.484 125.352C132.263 125.521 132.111 125.709 132.026 125.917L130.945 125.671C131.073 125.312 131.26 125.022 131.507 124.801C131.755 124.578 132.042 124.417 132.364 124.317C132.688 124.214 133.027 124.163 133.384 124.163C133.62 124.163 133.87 124.191 134.134 124.247C134.401 124.301 134.649 124.401 134.881 124.548C135.114 124.694 135.305 124.903 135.453 125.174C135.603 125.444 135.677 125.794 135.677 126.224V130.148H134.553V129.34H134.507C134.433 129.49 134.321 129.636 134.173 129.779C134.024 129.923 133.833 130.042 133.599 130.138C133.366 130.232 133.086 130.28 132.761 130.28ZM133.01 129.356C133.329 129.356 133.601 129.293 133.826 129.168C134.054 129.042 134.228 128.878 134.346 128.675C134.466 128.47 134.526 128.251 134.526 128.017V127.256C134.485 127.297 134.406 127.336 134.288 127.371C134.173 127.404 134.04 127.434 133.892 127.459C133.743 127.483 133.598 127.504 133.457 127.525C133.316 127.543 133.198 127.558 133.103 127.572C132.88 127.599 132.676 127.647 132.491 127.713C132.309 127.78 132.163 127.876 132.053 128.002C131.945 128.125 131.892 128.29 131.892 128.495C131.892 128.779 131.997 128.995 132.206 129.141C132.417 129.285 132.685 129.356 133.01 129.356ZM137.209 130.148V124.24H138.321V125.178H138.382C138.49 124.86 138.68 124.61 138.952 124.428C139.226 124.243 139.537 124.151 139.883 124.151C139.955 124.151 140.039 124.154 140.136 124.159C140.236 124.164 140.314 124.171 140.371 124.178V125.278C140.325 125.266 140.243 125.252 140.125 125.236C140.007 125.218 139.889 125.209 139.771 125.209C139.499 125.209 139.257 125.267 139.044 125.382C138.833 125.495 138.667 125.653 138.544 125.855C138.421 126.056 138.359 126.284 138.359 126.54V130.148H137.209ZM144.474 124.24V125.163H141.246V124.24H144.474ZM142.112 122.824H143.263V128.413C143.263 128.637 143.296 128.805 143.362 128.918C143.429 129.028 143.515 129.104 143.62 129.145C143.728 129.183 143.845 129.202 143.97 129.202C144.063 129.202 144.143 129.196 144.213 129.183C144.282 129.17 144.336 129.16 144.374 129.152L144.582 130.103C144.515 130.128 144.42 130.154 144.297 130.179C144.174 130.208 144.02 130.223 143.835 130.226C143.533 130.231 143.251 130.177 142.99 130.064C142.727 129.951 142.516 129.777 142.354 129.541C142.192 129.305 142.112 129.009 142.112 128.653V122.824Z" fill="white"/>
<path d="M149.509 126.279H154.022" stroke="white" stroke-width="0.773809" stroke-linecap="round" stroke-linejoin="round"/>
<path d="M151.766 124.023L154.023 126.28L151.766 128.537" stroke="white" stroke-width="0.773809" stroke-linecap="round" stroke-linejoin="round"/>
</g>
</g>
</g>
</g>
<defs>
<filter id="filter0_d_449_493" x="0.719773" y="-0.00592315" width="273.465" height="153.524" filterUnits="userSpaceOnUse" color-interpolation-filters="sRGB">
<feFlood flood-opacity="0" result="BackgroundImageFix"/>
<feColorMatrix in="SourceAlpha" type="matrix" values="0 0 0 0 0 0 0 0 0 0 0 0 0 0 0 0 0 0 127 0" result="hardAlpha"/>
<feOffset dy="1.54762"/>
<feGaussianBlur stdDeviation="2.59226"/>
<feComposite in2="hardAlpha" operator="out"/>
<feColorMatrix type="matrix" values="0 0 0 0 0 0 0 0 0 0.458246 0 0 0 0 0.365506 0 0 0 0.1 0"/>
<feBlend mode="normal" in2="BackgroundImageFix" result="effect1_dropShadow_449_493"/>
<feBlend mode="normal" in="SourceGraphic" in2="effect1_dropShadow_449_493" result="shape"/>
</filter>
</defs>
</svg>
